<svg width="467" height="348" viewBox="0 0 467 348" fill="none" xmlns="http://www.w3.org/2000/svg">
<path d="M0.300781 100C0.300781 44.7715 45.0723 0 100.301 0V0C155.529 0 200.301 44.7715 200.301 100V339H100.301C45.0723 339 0.300781 294.228 0.300781 239V100Z" fill="#FFCB13"/>
<path d="M370.301 9.7784e-07C415.588 4.37794e-07 452.301 36.7127 452.301 82V82C452.301 127.287 415.588 164 370.301 164L232.301 164L232.301 100C232.301 44.7715 277.072 2.08958e-06 332.301 1.43099e-06L370.301 9.7784e-07Z" fill="#FEFBFB"/>
<path d="M308.301 348C266.327 348 232.301 313.974 232.301 272V272C232.301 230.026 266.327 196 308.301 196L466.301 196L466.301 248C466.301 303.228 421.529 348 366.301 348L308.301 348Z" fill="#F59738"/>
</svg>
