<svg width="227" height="100" viewBox="0 0 227 100" fill="none" xmlns="http://www.w3.org/2000/svg">
<rect x="0.5" width="226" height="100" rx="10" fill="#F8F8F8"/>
<g clip-path="url(#clip0_1414_2315)">
<path d="M54.458 63.215L58.079 45.042L49.027 45.086L45.663 63.173L36.37 63.22L39.991 45.043C37.4685 45.0428 35.0239 45.9166 33.0731 47.5157C31.1222 49.1148 29.7857 51.3405 29.291 53.814C27.491 62.819 25.5 72.392 25.5 72.392L57.151 72.254C59.5529 72.2437 61.853 71.2823 63.5477 69.5802C65.2425 67.8781 66.194 65.5739 66.194 63.172L54.458 63.215Z" fill="#444444"/>
<path d="M75.238 27H39.065C35.4673 27 32.017 28.4292 29.4731 30.9731C26.9292 33.517 25.5 36.9673 25.5 40.565V49.608C25.5 46.0103 26.9292 42.56 29.4731 40.0161C32.017 37.4722 35.4673 36.043 39.065 36.043H73.437C74.0001 36.0208 74.5606 36.1311 75.0733 36.3651C75.586 36.599 76.0366 36.9501 76.3889 37.39C76.7412 37.8299 76.9852 38.3464 77.1014 38.8979C77.2177 39.4493 77.2028 40.0203 77.058 40.565C76.7785 41.8108 76.0953 42.9294 75.1147 43.7469C74.134 44.5645 72.9107 45.0352 71.635 45.086H67.113L65.313 54.13H69.835C77.326 54.13 84.61 48.056 86.102 40.565C87.594 33.074 82.729 27 75.238 27Z" fill="#FF8A45"/>
<path d="M108.76 42.252C108.803 42.9955 108.654 43.7376 108.329 44.4073C108.003 45.077 107.511 45.6519 106.899 46.077C105.271 47.0269 103.406 47.4931 101.522 47.421H99.865V52.91H95.936V37.493H101.829C103.637 37.3853 105.436 37.8173 106.998 38.734C107.572 39.1167 108.037 39.6425 108.346 40.2594C108.654 40.8763 108.797 41.5631 108.76 42.252ZM99.86 44.733H101.213C102.153 44.8383 103.102 44.6196 103.901 44.113C104.193 43.924 104.432 43.6631 104.595 43.3553C104.758 43.0474 104.839 42.703 104.83 42.355C104.843 42.0424 104.785 41.7308 104.66 41.4441C104.534 41.1575 104.345 40.9033 104.106 40.701C103.39 40.2755 102.556 40.0941 101.728 40.184H99.973V44.733H99.86Z" fill="#444444"/>
<path d="M118.397 37.495H114.468V52.797H118.397V37.495Z" fill="#444444"/>
<path d="M136.468 52.798H122.715V50.73L131.607 40.183H122.922V37.498H136.26V39.564L127.368 50.11H136.468V52.798Z" fill="#444444"/>
<path d="M159.038 45.146C159.087 46.2324 158.909 47.3171 158.517 48.3315C158.125 49.3458 157.527 50.2678 156.76 51.039C154.822 52.3528 152.535 53.0551 150.194 53.0551C147.853 53.0551 145.566 52.3528 143.628 51.039C142.861 50.2678 142.263 49.3458 141.871 48.3315C141.479 47.3171 141.302 46.2324 141.35 45.146C141.302 44.0596 141.479 42.9749 141.871 41.9605C142.263 40.9462 142.861 40.0242 143.628 39.253C145.522 37.8036 147.867 37.0704 150.249 37.183C153.143 37.183 155.311 37.907 156.763 39.251C157.568 39.9939 158.192 40.9117 158.587 41.9338C158.981 42.9558 159.136 44.0548 159.038 45.146ZM145.493 45.146C145.39 46.5174 145.794 47.8789 146.63 48.971C147.088 49.431 147.638 49.7886 148.244 50.0203C148.85 50.2519 149.498 50.3524 150.146 50.315C153.246 50.315 154.902 48.558 154.902 45.146C154.902 41.734 153.351 39.977 150.249 39.977C149.6 39.9304 148.949 40.0266 148.342 40.2588C147.735 40.491 147.185 40.8536 146.733 41.321C146.276 41.8399 145.93 42.4471 145.717 43.105C145.504 43.7629 145.427 44.4575 145.493 45.146Z" fill="#444444"/>
<path d="M182.68 52.798H177.618L169.553 41.218H169.453C169.599 42.6609 169.668 44.1107 169.66 45.561V52.798H166.141V37.498H171.104L179.169 48.973H179.269C179.169 47.009 179.062 45.561 179.062 44.733V37.498H182.578L182.68 52.798Z" fill="#444444"/>
<path d="M200.503 52.798H189.746V37.498H200.503V40.183H193.782V43.598H200.089V46.283H193.782V50.212H200.503V52.798Z" fill="#444444"/>
<path d="M98.314 59.791H95.936V70.957H98.314V59.791Z" fill="#FF8A45"/>
<path d="M113.514 70.957H110.514L105.654 62.478H105.554C105.654 63.926 105.654 65.064 105.654 65.684V70.958H103.586V59.791H106.586L111.446 68.165C111.346 66.717 111.346 65.684 111.346 65.065V59.791H113.518L113.514 70.957Z" fill="#FF8A45"/>
<path d="M123.888 70.957H121.51V59.791H127.922V61.755H123.89V64.655H127.715V66.618H123.89V70.961L123.888 70.957Z" fill="#FF8A45"/>
<path d="M144.35 65.375C144.447 66.9066 143.968 68.4191 143.006 69.615C141.918 70.565 140.522 71.0885 139.077 71.0885C137.632 71.0885 136.236 70.565 135.148 69.615C134.158 68.4346 133.676 66.9099 133.808 65.375C133.711 63.8434 134.19 62.3309 135.152 61.135C136.248 60.2007 137.641 59.6875 139.081 59.6875C140.521 59.6875 141.914 60.2007 143.01 61.135C143.972 62.3309 144.451 63.8434 144.354 65.375H144.35ZM136.186 65.375C136.105 66.3608 136.36 67.345 136.91 68.167C137.168 68.4877 137.502 68.7401 137.88 68.9019C138.259 69.0638 138.672 69.1301 139.082 69.095C140.943 69.095 141.874 67.8543 141.874 65.373C141.874 62.8917 140.942 61.6507 139.078 61.65C138.668 61.6146 138.255 61.6807 137.876 61.8425C137.497 62.0044 137.164 62.257 136.906 62.578C136.402 63.4228 136.152 64.3948 136.185 65.378L136.186 65.375Z" fill="#FF8A45"/>
<path d="M155.154 70.957H152.774V61.757H149.774V59.791H158.148V61.755H155.148L155.154 70.957Z" fill="#FF8A45"/>
<path d="M170.233 70.957H163.821V59.791H170.233V61.755H166.201V64.237H169.923V66.203H166.201V69.103H170.233V70.957Z" fill="#FF8A45"/>
<path d="M183.137 61.549C182.737 61.5573 182.344 61.6543 181.987 61.833C181.629 62.0116 181.316 62.2674 181.069 62.582C180.53 63.4093 180.275 64.3898 180.343 65.375C180.343 67.857 181.273 69.0977 183.135 69.097C184.132 69.0904 185.117 68.8794 186.03 68.477V70.441C185.054 70.862 183.99 71.0395 182.93 70.958C182.24 71.0199 181.545 70.9213 180.899 70.6702C180.253 70.419 179.675 70.0219 179.208 69.51C178.289 68.2965 177.847 66.7885 177.964 65.271C177.959 64.2387 178.17 63.2169 178.584 62.271C178.976 61.4327 179.629 60.7437 180.445 60.307C181.287 59.8032 182.256 59.5519 183.237 59.583C184.358 59.5868 185.46 59.8711 186.443 60.41L185.719 62.374C185.325 62.1581 184.909 61.9848 184.478 61.857C183.963 61.757 183.55 61.651 183.136 61.547" fill="#FF8A45"/>
<path d="M199.99 70.957H197.612V66.203H193.166V71.063H190.785V59.791H193.163V64.134H197.609V59.791H199.987L199.99 70.957Z" fill="#FF8A45"/>
</g>
<defs>
<clipPath id="clip0_1414_2315">
<rect width="175" height="45.392" fill="white" transform="translate(25.5 27)"/>
</clipPath>
</defs>
</svg>
