<svg width="25" height="24" viewBox="0 0 25 24" fill="none" xmlns="http://www.w3.org/2000/svg">
<g clip-path="url(#clip0_170_10291)">
<path d="M23.2566 3H22.0133C21.3264 3 20.77 3.55637 20.77 4.24328V20.406C20.77 21.0923 21.3264 21.6493 22.0133 21.6493H23.2566C23.9429 21.6493 24.4999 21.0923 24.4999 20.406V4.24328C24.4999 3.55637 23.9429 3 23.2566 3Z" fill="#0D267A"/>
<path d="M18.7539 4.78065L4.76695 8.7144C4.6333 8.7517 4.54067 8.87416 4.54067 9.01341V18.9037C4.54067 19.917 5.27297 20.7811 6.27195 20.9477L10.8304 21.7073C10.9448 21.7266 11.0592 21.7359 11.173 21.7359C11.6591 21.7359 12.1334 21.5644 12.5107 21.2448C12.9764 20.8501 13.2437 20.2745 13.2437 19.664V18.7931L18.757 20.2875C18.9547 20.341 19.1493 20.1924 19.1493 19.9879V5.07966C19.1493 4.8739 18.9522 4.7247 18.7539 4.78065ZM11.3787 19.664C11.3787 19.743 11.3383 19.7933 11.3054 19.8219C11.2718 19.8499 11.2152 19.881 11.1375 19.8679H11.1369L6.5778 19.1083C6.47771 19.0915 6.4056 19.0057 6.4056 18.9037V16.9387L11.3787 18.2871V19.664ZM2.67575 9.2055H1.74328C1.05637 9.2055 0.5 9.76187 0.5 10.4488V14.8003C0.5 15.4866 1.05637 16.0436 1.74328 16.0436H2.67575C2.84732 16.0436 2.98657 15.9043 2.98657 15.7327V9.51632C2.98657 9.34475 2.84732 9.2055 2.67575 9.2055Z" fill="#0D267A"/>
</g>
<defs>
<clipPath id="clip0_170_10291">
<rect width="24" height="24" fill="white" transform="translate(0.5)"/>
</clipPath>
</defs>
</svg>
