<svg width="120" height="120" viewBox="0 0 120 120" fill="none" xmlns="http://www.w3.org/2000/svg">
<g clip-path="url(#clip0_164_6862)">
<path d="M90.4207 7.94872C90.3199 7.94872 90.218 7.92243 90.1255 7.8671C88.1948 6.71133 86.177 5.65709 84.1285 4.73376C83.8385 4.60311 83.7093 4.26224 83.8401 3.97229C83.9708 3.68228 84.3111 3.55301 84.6017 3.68392C86.6906 4.62559 88.7482 5.70066 90.7167 6.87864C90.9897 7.04208 91.0784 7.39584 90.9152 7.66863C90.8073 7.84876 90.6165 7.94872 90.4207 7.94872ZM101.244 16.2513C101.1 16.2513 100.956 16.1974 100.844 16.0892C99.2265 14.5243 97.5031 13.0374 95.7211 11.67C95.4688 11.4766 95.4212 11.1152 95.6148 10.863C95.8084 10.6103 96.1701 10.5632 96.422 10.7565C98.2388 12.1505 99.996 13.6664 101.645 15.2617C101.873 15.483 101.879 15.8474 101.658 16.0758C101.545 16.1927 101.395 16.2513 101.244 16.2513ZM109.903 26.7893C109.714 26.7893 109.529 26.6963 109.418 26.5259C108.199 24.6388 106.857 22.8006 105.429 21.0632C105.227 20.8176 105.263 20.4545 105.509 20.2527C105.754 20.0506 106.117 20.0867 106.319 20.3321C107.774 22.1034 109.142 23.9769 110.386 25.9008C110.558 26.168 110.482 26.5243 110.215 26.6968C110.118 26.7595 110.01 26.7893 109.903 26.7893ZM115.946 39.0114C115.71 39.0114 115.488 38.865 115.404 38.6297C114.646 36.5169 113.756 34.423 112.759 32.4068C112.618 32.1218 112.735 31.7762 113.02 31.6352C113.305 31.4942 113.65 31.6111 113.791 31.8961C114.808 33.9517 115.715 36.0868 116.487 38.2409C116.595 38.5404 116.44 38.8701 116.14 38.9775C116.076 39.0005 116.01 39.0114 115.946 39.0114ZM119.034 52.2902C118.745 52.2902 118.496 52.073 118.462 51.7789C118.21 49.5457 117.823 47.3033 117.314 45.1138C117.242 44.8042 117.435 44.4947 117.744 44.4227C118.055 44.3501 118.364 44.5432 118.436 44.8531C118.955 47.0853 119.349 49.3723 119.607 51.6494C119.642 51.9654 119.415 52.2505 119.099 52.2864C119.077 52.2888 119.055 52.2902 119.034 52.2902ZM118.998 65.9287C118.975 65.9287 118.953 65.9273 118.93 65.9246C118.614 65.8874 118.388 65.6012 118.425 65.2855C118.458 65.0106 118.488 64.7354 118.517 64.4596C118.721 62.4931 118.826 60.4988 118.832 58.5322C118.833 58.2149 119.091 57.9583 119.408 57.9583C119.728 57.9591 119.985 58.2176 119.984 58.5358C119.978 60.5407 119.87 62.5736 119.662 64.5782C119.633 64.8591 119.602 65.1398 119.569 65.4202C119.535 65.7132 119.286 65.9287 118.998 65.9287Z" fill="#674EA0"/>
<path d="M23.704 11.9243C23.5318 11.9243 23.3614 11.8474 23.2481 11.7004C23.0537 11.4487 23.0999 11.0873 23.3516 10.8928C25.1679 9.49063 27.083 8.18009 29.0433 6.99718C29.3154 6.83288 29.6695 6.92048 29.8335 7.19269C29.9981 7.46515 29.9105 7.81891 29.6383 7.9832C27.7152 9.14344 25.8371 10.4287 24.0556 11.8044C23.9507 11.8852 23.827 11.9243 23.704 11.9243ZM13.9291 21.4353C13.8014 21.4353 13.6725 21.3928 13.5655 21.3058C13.3193 21.1048 13.2823 20.742 13.4833 20.4955C14.9307 18.722 16.4978 17.0115 18.1418 15.4123C18.3699 15.1905 18.7344 15.1954 18.9562 15.4235C19.1777 15.6514 19.1731 16.0158 18.945 16.2373C17.3324 17.8063 15.7952 19.484 14.3757 21.2234C14.2618 21.363 14.0964 21.4353 13.9291 21.4353ZM6.58134 32.9241C6.49669 32.9241 6.41073 32.9051 6.32938 32.8657C6.04383 32.7263 5.92495 32.3816 6.06434 32.0958C7.06843 30.0358 8.2037 28.012 9.43866 26.0812C9.60979 25.8129 9.96605 25.7349 10.2338 25.9062C10.5019 26.0777 10.5802 26.4336 10.4089 26.7014C9.19768 28.5952 8.08436 30.5799 7.09939 32.6004C6.99969 32.8049 6.79466 32.9241 6.58134 32.9241ZM2.05696 45.7907C2.01476 45.7907 1.97179 45.7861 1.92907 45.7762C1.61882 45.7058 1.42443 45.3978 1.49481 45.0875C2.00248 42.8504 2.64486 40.6204 3.40469 38.4597C3.51043 38.1598 3.83901 38.0018 4.13882 38.1073C4.43895 38.2129 4.59641 38.5415 4.49126 38.8417C3.74589 40.9608 3.11553 43.1481 2.61805 45.3419C2.5572 45.6094 2.31982 45.7907 2.05696 45.7907ZM0.57667 59.3515C0.26011 59.3515 0.003023 59.096 0.0011172 58.7792L0 58.4399C0 56.3759 0.108434 54.283 0.322015 52.2192L0.35678 51.8906C0.391544 51.5747 0.675509 51.346 0.991544 51.3805C1.30778 51.4151 1.53614 51.6993 1.50191 52.0152L1.4674 52.3378C1.25796 54.3625 1.1517 56.4156 1.1517 58.4399L1.15249 58.7724C1.15446 59.0903 0.898423 59.3498 0.579956 59.3515C0.579102 59.3515 0.57805 59.3515 0.57667 59.3515ZM2.22756 72.8893C1.96797 72.8893 1.73192 72.7124 1.66837 72.449C1.12922 70.2204 0.715531 67.9369 0.438138 65.662C0.399496 65.3463 0.624316 65.0594 0.940022 65.021C1.2552 64.9827 1.54272 65.2069 1.58129 65.5229C1.85323 67.7535 2.25904 69.9928 2.7878 72.1779C2.86226 72.4873 2.67253 72.7984 2.3634 72.8732C2.31792 72.8841 2.27218 72.8893 2.22756 72.8893ZM6.94278 85.6877C6.73222 85.6877 6.52955 85.5722 6.42854 85.3718C5.39349 83.3244 4.46714 81.1968 3.67525 79.0478C3.56543 78.7494 3.71796 78.4183 4.01612 78.3085C4.31487 78.1987 4.6457 78.3512 4.75577 78.6497C5.53229 80.757 6.44116 82.8438 7.45617 84.8521C7.59937 85.136 7.48574 85.4821 7.2021 85.6259C7.11858 85.6678 7.03012 85.6877 6.94278 85.6877Z" fill="#674EA0"/>
<path d="M35.8528 113.273C35.7744 113.273 35.695 113.256 35.6189 113.223C33.5269 112.292 31.4653 111.224 29.4913 110.055C29.2178 109.894 29.1274 109.54 29.2895 109.267C29.4514 108.993 29.8043 108.902 30.0781 109.067C32.0143 110.211 34.0359 111.257 36.0877 112.172C36.378 112.301 36.5086 112.64 36.379 112.93C36.2837 113.147 36.0734 113.273 35.8528 113.273ZM82.41 114.012C82.183 114.012 81.9675 113.878 81.8766 113.653C81.7564 113.36 81.8979 113.023 82.1923 112.903C84.2728 112.054 86.3273 111.074 88.2983 109.992C88.5767 109.839 88.9269 109.94 89.0801 110.219C89.2334 110.496 89.1318 110.847 88.8527 111C86.8434 112.106 84.749 113.103 82.6274 113.971C82.556 113.998 82.4823 114.012 82.41 114.012ZM48.8719 117.344C48.8364 117.344 48.8005 117.342 48.7641 117.333C46.508 116.907 44.2569 116.342 42.0724 115.66C41.769 115.564 41.5998 115.241 41.6945 114.937C41.7895 114.633 42.1124 114.466 42.416 114.56C44.5582 115.23 46.7663 115.784 48.9787 116.202C49.2911 116.26 49.4965 116.564 49.4371 116.876C49.3845 117.15 49.143 117.344 48.8719 117.344ZM69.2712 117.673C68.9929 117.673 68.7479 117.47 68.7033 117.188C68.6537 116.874 68.8684 116.578 69.1822 116.529C71.4031 116.178 73.6271 115.696 75.792 115.093C76.0984 115.006 76.4157 115.187 76.5012 115.493C76.5866 115.8 76.4075 116.118 76.1014 116.202C73.8938 116.816 71.6263 117.309 69.3615 117.667C69.3311 117.67 69.301 117.673 69.2712 117.673ZM60.0507 118.396C58.5798 118.396 57.0833 118.341 55.6022 118.232C55.2851 118.207 55.0469 117.931 55.0704 117.613C55.0937 117.298 55.3684 117.057 55.6868 117.081C57.9415 117.249 60.2107 117.287 62.4514 117.194C62.7731 117.183 63.0373 117.429 63.0502 117.747C63.0628 118.065 62.8161 118.333 62.4984 118.344C61.6858 118.38 60.8623 118.396 60.0507 118.396Z" fill="#674EA0"/>
<path d="M16.6122 53.9061C19.0927 29.9392 40.5328 12.5206 64.4997 15.0011C88.4665 17.4814 105.885 38.9211 103.405 62.8883C100.924 86.8552 79.4843 104.274 55.5171 101.793C31.5503 99.3127 14.1319 77.873 16.6122 53.9061Z" fill="#EDEAF3"/>
<path d="M26.0662 78.4575H23.4635C21.3294 78.4575 19.5996 80.1875 19.5996 82.3214V84.1059C19.5996 86.2398 21.3294 87.9698 23.4635 87.9698H26.0662C28.2001 87.9698 29.9301 86.2398 29.9301 84.1059V82.3214C29.9301 80.1875 28.2001 78.4575 26.0662 78.4575Z" fill="white"/>
<path d="M23.4534 79.0233C21.6401 79.0233 20.165 80.4981 20.165 82.3114V84.0959C20.165 85.9088 21.6401 87.3839 23.4534 87.3839H26.0561C27.8691 87.3839 29.3441 85.9088 29.3441 84.0959V82.3114C29.3441 80.4981 27.8691 79.0233 26.0561 79.0233H23.4534ZM26.0561 88.5353H23.4534C21.0054 88.5353 19.0137 86.5438 19.0137 84.0959V82.3114C19.0137 79.8634 21.0054 77.8716 23.4534 77.8716H26.0561C28.5043 77.8716 30.4958 79.8634 30.4958 82.3114V84.0959C30.4958 86.5438 28.5043 88.5353 26.0561 88.5353Z" fill="#674EA0"/>
<path d="M36.379 78.4575H33.776C31.6421 78.4575 29.9121 80.1875 29.9121 82.3214V84.1059C29.9121 86.2398 31.6421 87.9698 33.776 87.9698H36.379C38.5129 87.9698 40.2426 86.2398 40.2426 84.1059V82.3214C40.2426 80.1875 38.5129 78.4575 36.379 78.4575Z" fill="white"/>
<path d="M33.7953 79.0233C31.9823 79.0233 30.5072 80.4981 30.5072 82.3114V84.0959C30.5072 85.9088 31.9823 87.3839 33.7953 87.3839H36.3982C38.2112 87.3839 39.686 85.9088 39.686 84.0959V82.3114C39.686 80.4981 38.2112 79.0233 36.3982 79.0233H33.7953ZM36.3982 88.5353H33.7953C31.347 88.5353 29.3555 86.5438 29.3555 84.0959V82.3114C29.3555 79.8634 31.347 77.8716 33.7953 77.8716H36.3982C38.8459 77.8716 40.8377 79.8634 40.8377 82.3114V84.0959C40.8377 86.5438 38.8459 88.5353 36.3982 88.5353Z" fill="#674EA0"/>
<path d="M46.7205 78.4575H44.1178C41.9839 78.4575 40.2539 80.1875 40.2539 82.3214V84.1059C40.2539 86.2398 41.9839 87.9698 44.1178 87.9698H46.7205C48.8547 87.9698 50.5847 86.2398 50.5847 84.1059V82.3214C50.5847 80.1875 48.8547 78.4575 46.7205 78.4575Z" fill="white"/>
<path d="M44.1078 79.0233C42.2948 79.0233 40.8197 80.4981 40.8197 82.3114V84.0959C40.8197 85.9088 42.2948 87.3839 44.1078 87.3839H46.7104C48.5236 87.3839 49.9987 85.9088 49.9987 84.0959V82.3114C49.9987 80.4981 48.5236 79.0233 46.7104 79.0233H44.1078ZM46.7104 88.5353H44.1078C41.6598 88.5353 39.668 86.5438 39.668 84.0959V82.3114C39.668 79.8634 41.6598 77.8716 44.1078 77.8716H46.7104C49.1589 77.8716 51.1504 79.8634 51.1504 82.3114V84.0959C51.1504 86.5438 49.1589 88.5353 46.7104 88.5353Z" fill="#674EA0"/>
<path d="M57.0623 78.4575H54.4596C52.3257 78.4575 50.5957 80.1875 50.5957 82.3214V84.1059C50.5957 86.2398 52.3257 87.9698 54.4596 87.9698H57.0623C59.1965 87.9698 60.9262 86.2398 60.9262 84.1059V82.3214C60.9262 80.1875 59.1965 78.4575 57.0623 78.4575Z" fill="white"/>
<path d="M54.4496 79.0233C52.6366 79.0233 51.1615 80.4981 51.1615 82.3114V84.0959C51.1615 85.9088 52.6366 87.3839 54.4496 87.3839H57.0522C58.8655 87.3839 60.3405 85.9088 60.3405 84.0959V82.3114C60.3405 80.4981 58.8655 79.0233 57.0522 79.0233H54.4496ZM57.0522 88.5353H54.4496C52.0013 88.5353 50.0098 86.5438 50.0098 84.0959V82.3114C50.0098 79.8634 52.0013 77.8716 54.4496 77.8716H57.0522C59.5002 77.8716 61.492 79.8634 61.492 82.3114V84.0959C61.492 86.5438 59.5002 88.5353 57.0522 88.5353Z" fill="#674EA0"/>
<path d="M35.0918 81.4251C33.9854 81.4251 33.085 82.2337 33.085 83.2277C33.085 84.2214 33.9854 85.0297 35.0918 85.0297C36.1983 85.0297 37.0987 84.2214 37.0987 83.2277C37.0987 82.2337 36.1983 81.4251 35.0918 81.4251ZM35.0918 86.1814C33.3501 86.1814 31.9336 84.8564 31.9336 83.2277C31.9336 81.5989 33.3501 80.2737 35.0918 80.2737C36.8334 80.2737 38.2501 81.5989 38.2501 83.2277C38.2501 84.8564 36.8334 86.1814 35.0918 86.1814Z" fill="#674EA0"/>
<path d="M54.6185 85.4399H55.331C55.9181 85.4399 56.4027 85.2608 56.8121 84.8922C57.2064 84.5376 57.3981 84.1272 57.3981 83.6378C57.3981 83.1488 57.2066 82.7397 56.8132 82.387C56.4019 82.0151 55.9175 81.8355 55.331 81.8355H54.6185V85.4399ZM55.331 86.5916H54.2442C54.0454 86.5916 53.8627 86.5217 53.7163 86.3897C53.5558 86.2457 53.4668 86.0469 53.4668 85.8317V81.4439C53.4668 81.2287 53.5555 81.0305 53.7168 80.8854C53.8633 80.7534 54.0454 80.6838 54.2442 80.6838H55.331C56.2034 80.6838 56.9613 80.9689 57.5832 81.531C58.2236 82.1047 58.5495 82.8142 58.5495 83.6378C58.5495 84.4609 58.2242 85.1712 57.5823 85.7482C56.9608 86.3079 56.2031 86.5916 55.331 86.5916Z" fill="#674EA0"/>
<path d="M44.2764 83.4585H46.123C46.387 83.3802 46.5992 83.2271 46.7109 83.0332C46.806 82.8684 46.8238 82.6808 46.7646 82.4758C46.6567 82.1047 46.2269 81.8355 45.7419 81.8355H44.2764V83.4585ZM43.7006 86.5916C43.3826 86.5916 43.125 86.3339 43.125 86.0159V81.2597C43.125 80.9415 43.3826 80.6838 43.7006 80.6838H45.7419C46.7435 80.6838 47.6192 81.2887 47.8706 82.1548C48.0163 82.6578 47.959 83.1737 47.7088 83.608C47.5532 83.8782 47.3262 84.1105 47.0513 84.2876L47.9169 85.6343C48.0888 85.9018 48.0111 86.2581 47.7438 86.43C47.476 86.6017 47.1198 86.5245 46.9484 86.2572L45.8892 84.6099H44.2764V86.0159C44.2764 86.3339 44.0184 86.5916 43.7006 86.5916Z" fill="#674EA0"/>
<path d="M23.049 86.2089C23.0257 86.2089 23.003 86.2076 22.9795 86.2045C22.7577 86.178 22.5709 86.0244 22.5014 85.8114L21.21 81.848C21.1117 81.5457 21.2769 81.2207 21.5794 81.1221C21.882 81.0238 22.2064 81.1892 22.305 81.4912L23.2128 84.2771L24.2815 82.555C24.4488 82.285 24.8039 82.2015 25.0745 82.3694C25.3444 82.5373 25.4275 82.8921 25.2599 83.1624L23.5378 85.9367C23.4323 86.1071 23.2462 86.2089 23.049 86.2089Z" fill="#674EA0"/>
<path d="M26.4676 86.209C26.2701 86.209 26.0842 86.1072 25.9785 85.9369L24.2567 83.1625C24.0889 82.8923 24.1719 82.5374 24.4421 82.3696C24.7124 82.2017 25.0675 82.2852 25.2351 82.5551L26.3041 84.2773L27.2115 81.4914C27.3099 81.1891 27.6352 81.0237 27.9371 81.1222C28.2398 81.2208 28.4048 81.5459 28.3065 81.8482L27.0152 85.8115C26.9457 86.0245 26.7592 86.1781 26.5366 86.2047C26.5136 86.2075 26.4903 86.209 26.4676 86.209Z" fill="#674EA0"/>
<path d="M15.7247 68.9651H13.122C10.9878 68.9651 9.25781 70.6951 9.25781 72.829V74.6132C9.25781 76.7474 10.9878 78.4774 13.122 78.4774H15.7247C17.8586 78.4774 19.5886 76.7474 19.5886 74.6132V72.829C19.5886 70.6951 17.8586 68.9651 15.7247 68.9651Z" fill="white"/>
<path d="M13.1409 69.5306C11.328 69.5306 9.85261 71.0057 9.85261 72.8187V74.6029C9.85261 76.4161 11.328 77.8912 13.1409 77.8912H15.7436C17.5566 77.8912 19.0317 76.4161 19.0317 74.6029V72.8187C19.0317 71.0057 17.5566 69.5306 15.7436 69.5306H13.1409ZM15.7436 79.0429H13.1409C10.6927 79.0429 8.70117 77.0514 8.70117 74.6029V72.8187C8.70117 70.3707 10.6927 68.3792 13.1409 68.3792H15.7436C18.1916 68.3792 20.1831 70.3707 20.1831 72.8187V74.6029C20.1831 77.0514 18.1916 79.0429 15.7436 79.0429Z" fill="#674EA0"/>
<path d="M36.379 88.0078H33.776C31.6421 88.0078 29.9121 89.7375 29.9121 91.8714V93.6559C29.9121 95.7901 31.6421 97.5198 33.776 97.5198H36.379C38.5129 97.5198 40.2426 95.7901 40.2426 93.6559V91.8714C40.2426 89.7375 38.5129 88.0078 36.379 88.0078Z" fill="#807DBB"/>
<path d="M33.7953 88.5736C31.9823 88.5736 30.5072 90.0486 30.5072 91.8616V93.6461C30.5072 95.4594 31.9823 96.9345 33.7953 96.9345H36.3982C38.2112 96.9345 39.686 95.4594 39.686 93.6461V91.8616C39.686 90.0486 38.2112 88.5736 36.3982 88.5736H33.7953ZM36.3982 98.0859H33.7953C31.347 98.0859 29.3555 96.0941 29.3555 93.6461V91.8616C29.3555 89.4139 31.347 87.4221 33.7953 87.4221H36.3982C38.8459 87.4221 40.8377 89.4139 40.8377 91.8616V93.6461C40.8377 96.0941 38.8459 98.0859 36.3982 98.0859Z" fill="#674EA0"/>
<path d="M36.379 97.5002H33.776C31.6421 97.5002 29.9121 99.2303 29.9121 101.364V103.149C29.9121 105.283 31.6421 107.013 33.776 107.013H36.379C38.5129 107.013 40.2426 105.283 40.2426 103.149V101.364C40.2426 99.2303 38.5129 97.5002 36.379 97.5002Z" fill="#EE445B"/>
<path d="M33.7953 98.0657C31.9823 98.0657 30.5072 99.5405 30.5072 101.354V103.138C30.5072 104.951 31.9823 106.426 33.7953 106.426H36.3982C38.2112 106.426 39.686 104.951 39.686 103.138V101.354C39.686 99.5405 38.2112 98.0657 36.3982 98.0657H33.7953ZM36.3982 107.578H33.7953C31.347 107.578 29.3555 105.587 29.3555 103.138V101.354C29.3555 98.9058 31.347 96.9143 33.7953 96.9143H36.3982C38.8459 96.9143 40.8377 98.9058 40.8377 101.354V103.138C40.8377 105.587 38.8459 107.578 36.3982 107.578Z" fill="#674EA0"/>
<path d="M46.7205 88.0078H44.1178C41.9839 88.0078 40.2539 89.7375 40.2539 91.8714V93.6559C40.2539 95.7901 41.9839 97.5198 44.1178 97.5198H46.7205C48.8547 97.5198 50.5847 95.7901 50.5847 93.6559V91.8714C50.5847 89.7375 48.8547 88.0078 46.7205 88.0078Z" fill="white"/>
<path d="M44.1078 88.5736C42.2948 88.5736 40.8197 90.0486 40.8197 91.8616V93.6461C40.8197 95.4594 42.2948 96.9345 44.1078 96.9345H46.7104C48.5236 96.9345 49.9987 95.4594 49.9987 93.6461V91.8616C49.9987 90.0486 48.5236 88.5736 46.7104 88.5736H44.1078ZM46.7104 98.0859H44.1078C41.6598 98.0859 39.668 96.0941 39.668 93.6461V91.8616C39.668 89.4139 41.6598 87.4221 44.1078 87.4221H46.7104C49.1589 87.4221 51.1504 89.4139 51.1504 91.8616V93.6461C51.1504 96.0941 49.1589 98.0859 46.7104 98.0859Z" fill="#674EA0"/>
<path d="M57.0623 88.0078H54.4596C52.3257 88.0078 50.5957 89.7375 50.5957 91.8714V93.6559C50.5957 95.7901 52.3257 97.5198 54.4596 97.5198H57.0623C59.1965 97.5198 60.9262 95.7901 60.9262 93.6559V91.8714C60.9262 89.7375 59.1965 88.0078 57.0623 88.0078Z" fill="#807DBB"/>
<path d="M54.4496 88.5736C52.6366 88.5736 51.1615 90.0486 51.1615 91.8616V93.6461C51.1615 95.4594 52.6366 96.9345 54.4496 96.9345H57.0522C58.8655 96.9345 60.3405 95.4594 60.3405 93.6461V91.8616C60.3405 90.0486 58.8655 88.5736 57.0522 88.5736H54.4496ZM57.0522 98.0859H54.4496C52.0013 98.0859 50.0098 96.0941 50.0098 93.6461V91.8616C50.0098 89.4139 52.0013 87.4221 54.4496 87.4221H57.0522C59.5002 87.4221 61.492 89.4139 61.492 91.8616V93.6461C61.492 96.0941 59.5002 98.0859 57.0522 98.0859Z" fill="#674EA0"/>
<path d="M26.0662 68.9651H23.4635C21.3294 68.9651 19.5996 70.6951 19.5996 72.829V74.6132C19.5996 76.7474 21.3294 78.4774 23.4635 78.4774H26.0662C28.2001 78.4774 29.9301 76.7474 29.9301 74.6132V72.829C29.9301 70.6951 28.2001 68.9651 26.0662 68.9651Z" fill="#807DBB"/>
<path d="M23.4534 69.5306C21.6401 69.5306 20.165 71.0057 20.165 72.8187V74.6029C20.165 76.4161 21.6401 77.8912 23.4534 77.8912H26.0561C27.8691 77.8912 29.3441 76.4161 29.3441 74.6029V72.8187C29.3441 71.0057 27.8691 69.5306 26.0561 69.5306H23.4534ZM26.0561 79.0429H23.4534C21.0054 79.0429 19.0137 77.0514 19.0137 74.6029V72.8187C19.0137 70.3707 21.0054 68.3792 23.4534 68.3792H26.0561C28.5043 68.3792 30.4958 70.3707 30.4958 72.8187V74.6029C30.4958 77.0514 28.5043 79.0429 26.0561 79.0429Z" fill="#674EA0"/>
<path d="M26.0662 59.4727H23.4635C21.3294 59.4727 19.5996 61.2029 19.5996 63.3366V65.1211C19.5996 67.255 21.3294 68.985 23.4635 68.985H26.0662C28.2001 68.985 29.9301 67.255 29.9301 65.1211V63.3366C29.9301 61.2029 28.2001 59.4727 26.0662 59.4727Z" fill="white"/>
<path d="M23.4534 60.0387C21.6401 60.0387 20.165 61.5132 20.165 63.3264V65.1109C20.165 66.9239 21.6401 68.3992 23.4534 68.3992H26.0561C27.8691 68.3992 29.3441 66.9239 29.3441 65.1109V63.3264C29.3441 61.5132 27.8691 60.0387 26.0561 60.0387H23.4534ZM26.0561 69.5507H23.4534C21.0054 69.5507 19.0137 67.5592 19.0137 65.1109V63.3264C19.0137 60.8785 21.0054 58.887 23.4534 58.887H26.0561C28.5043 58.887 30.4958 60.8785 30.4958 63.3264V65.1109C30.4958 67.5592 28.5043 69.5507 26.0561 69.5507Z" fill="#674EA0"/>
<path d="M36.379 59.4727H33.776C31.6421 59.4727 29.9121 61.2029 29.9121 63.3366V65.1211C29.9121 67.255 31.6421 68.985 33.776 68.985H36.379C38.5129 68.985 40.2426 67.255 40.2426 65.1211V63.3366C40.2426 61.2029 38.5129 59.4727 36.379 59.4727Z" fill="#807DBB"/>
<path d="M33.7953 60.0387C31.9823 60.0387 30.5072 61.5132 30.5072 63.3264V65.1109C30.5072 66.9239 31.9823 68.3992 33.7953 68.3992H36.3982C38.2112 68.3992 39.686 66.9239 39.686 65.1109V63.3264C39.686 61.5132 38.2112 60.0387 36.3982 60.0387H33.7953ZM36.3982 69.5507H33.7953C31.347 69.5507 29.3555 67.5592 29.3555 65.1109V63.3264C29.3555 60.8785 31.347 58.887 33.7953 58.887H36.3982C38.8459 58.887 40.8377 60.8785 40.8377 63.3264V65.1109C40.8377 67.5592 38.8459 69.5507 36.3982 69.5507Z" fill="#674EA0"/>
<path d="M36.379 68.9651H33.776C31.6421 68.9651 29.9121 70.6951 29.9121 72.829V74.6132C29.9121 76.7474 31.6421 78.4774 33.776 78.4774H36.379C38.5129 78.4774 40.2426 76.7474 40.2426 74.6132V72.829C40.2426 70.6951 38.5129 68.9651 36.379 68.9651Z" fill="white"/>
<path d="M33.7953 69.5306C31.9823 69.5306 30.5072 71.0057 30.5072 72.8187V74.6029C30.5072 76.4161 31.9823 77.8912 33.7953 77.8912H36.3982C38.2112 77.8912 39.686 76.4161 39.686 74.6029V72.8187C39.686 71.0057 38.2112 69.5306 36.3982 69.5306H33.7953ZM36.3982 79.0429H33.7953C31.347 79.0429 29.3555 77.0514 29.3555 74.6029V72.8187C29.3555 70.3707 31.347 68.3792 33.7953 68.3792H36.3982C38.8459 68.3792 40.8377 70.3707 40.8377 72.8187V74.6029C40.8377 77.0514 38.8459 79.0429 36.3982 79.0429Z" fill="#674EA0"/>
<path d="M46.7205 68.9651H44.1178C41.9839 68.9651 40.2539 70.6951 40.2539 72.829V74.6132C40.2539 76.7474 41.9839 78.4774 44.1178 78.4774H46.7205C48.8547 78.4774 50.5847 76.7474 50.5847 74.6132V72.829C50.5847 70.6951 48.8547 68.9651 46.7205 68.9651Z" fill="#EE445B"/>
<path d="M44.1078 69.5306C42.2948 69.5306 40.8197 71.0057 40.8197 72.8187V74.6029C40.8197 76.4161 42.2948 77.8912 44.1078 77.8912H46.7104C48.5236 77.8912 49.9987 76.4161 49.9987 74.6029V72.8187C49.9987 71.0057 48.5236 69.5306 46.7104 69.5306H44.1078ZM46.7104 79.0429H44.1078C41.6598 79.0429 39.668 77.0514 39.668 74.6029V72.8187C39.668 70.3707 41.6598 68.3792 44.1078 68.3792H46.7104C49.1589 68.3792 51.1504 70.3707 51.1504 72.8187V74.6029C51.1504 77.0514 49.1589 79.0429 46.7104 79.0429Z" fill="#674EA0"/>
<path d="M17.3498 93.6214L13.6709 97.0089C12.6696 97.9311 12.6696 99.4259 13.6709 100.348L17.3498 103.735C18.3511 104.657 19.9743 104.657 20.9757 103.735L24.6545 100.348C25.6556 99.4259 25.6556 97.9311 24.6545 97.0089L20.9757 93.6214C19.9743 92.6994 18.3511 92.6994 17.3498 93.6214Z" fill="white"/>
<path d="M19.1527 93.4889C18.6373 93.4889 18.122 93.6693 17.7296 94.0305L14.0509 97.418C13.6864 97.7537 13.4854 98.1959 13.4854 98.6638C13.4854 99.1316 13.6864 99.5738 14.0509 99.9094L17.7296 103.297C18.5144 104.02 19.791 104.02 20.5757 103.297L24.2543 99.9094C24.6187 99.5738 24.8197 99.1316 24.8197 98.6638C24.8197 98.1959 24.6187 97.7537 24.2543 97.418L20.5757 94.0305C20.1831 93.6693 19.6678 93.4889 19.1527 93.4889ZM19.1527 104.983C18.3548 104.983 17.5571 104.704 16.9498 104.144L13.2707 100.757C12.6666 100.2 12.334 99.4571 12.334 98.6638C12.334 97.8706 12.6666 97.1272 13.2707 96.5707L16.9498 93.1833C18.1642 92.0644 20.141 92.0647 21.3559 93.1833L25.0344 96.5707C25.6385 97.1272 25.9711 97.8706 25.9711 98.6638C25.9711 99.4571 25.6385 100.2 25.0344 100.757L21.3559 104.144C20.7485 104.704 19.9506 104.983 19.1527 104.983Z" fill="#674EA0"/>
<path d="M60.3676 63.3174L56.6885 59.93C55.6874 59.008 54.0639 59.008 53.0625 59.93L49.384 63.3174C48.3824 64.2395 48.3824 65.7342 49.384 66.6561L53.0625 70.0439C54.0639 70.9656 55.6874 70.9656 56.6885 70.0439L60.3676 66.6561C61.3687 65.7342 61.3687 64.2395 60.3676 63.3174Z" fill="white"/>
<path d="M54.8947 59.797C54.3793 59.797 53.8642 59.9777 53.4719 60.3388L49.7928 63.7263C49.4284 64.0621 49.2279 64.5045 49.2279 64.9722C49.2279 65.4399 49.4284 65.8824 49.7928 66.2178L53.4719 69.6056C54.2564 70.3279 55.5329 70.3279 56.3177 69.6056L59.9965 66.2178C60.361 65.8824 60.562 65.4399 60.562 64.9722C60.562 64.5045 60.361 64.0621 59.9965 63.7263L56.3177 60.3388C55.9253 59.9777 55.41 59.797 54.8947 59.797ZM54.8947 71.2915C54.0967 71.2915 53.2991 71.0117 52.6918 70.4525L49.013 67.065C48.4089 66.5089 48.0762 65.7654 48.0762 64.9722C48.0762 64.1786 48.4089 63.4355 49.013 62.8791L52.6918 59.4917C53.9064 58.3731 55.8831 58.3734 57.0979 59.4917L60.7766 62.8791C61.3807 63.4355 61.7134 64.1786 61.7134 64.9722C61.7134 65.7654 61.3807 66.5089 60.7766 67.065L57.0979 70.4525C56.4905 71.0117 55.6923 71.2915 54.8947 71.2915Z" fill="#674EA0"/>
<path d="M53.0174 67.4658C52.8615 67.4658 52.7093 67.4023 52.5984 67.2851C52.4388 67.1159 52.3966 66.8673 52.4916 66.6548L54.2668 62.6846C54.3969 62.3941 54.7375 62.2646 55.0278 62.3938C55.3181 62.5239 55.4481 62.8642 55.3183 63.1548L54.1083 65.8607L57.125 64.7167C57.4223 64.6041 57.7548 64.7536 57.8676 65.051C57.9801 65.3481 57.8306 65.6805 57.5333 65.7933L53.2213 67.4283C53.1548 67.4535 53.0858 67.4658 53.0174 67.4658Z" fill="#674EA0"/>
<path d="M56.1695 66.0504C56.0301 66.0504 55.8902 66 55.7798 65.8981L54.1506 64.3981C53.9167 64.1829 53.9016 63.8184 54.1171 63.5846C54.3324 63.351 54.6968 63.3356 54.9307 63.5509L56.5596 65.0511C56.7938 65.2664 56.8088 65.6308 56.5933 65.8645C56.4796 65.9879 56.3249 66.0504 56.1695 66.0504Z" fill="#674EA0"/>
<path d="M17.2168 98.0245L19.9285 100.521L20.4046 100.082C20.7604 99.7548 20.9567 99.3229 20.9564 98.8663C20.9564 98.4098 20.7604 97.978 20.4046 97.6502C19.6379 96.944 18.3904 96.944 17.6232 97.6502L17.2168 98.0245ZM19.9285 101.879C19.7883 101.879 19.6484 101.829 19.5383 101.727L15.9769 98.4479C15.8586 98.3388 15.791 98.1852 15.791 98.0245C15.791 97.8632 15.8586 97.7096 15.9769 97.6006L16.843 96.8033C18.0402 95.7009 19.9879 95.7011 21.1848 96.8033C21.78 97.3515 22.1081 98.0839 22.1081 98.8663C22.1081 99.6482 21.78 100.381 21.1848 100.929L20.3184 101.727C20.208 101.829 20.0684 101.879 19.9285 101.879Z" fill="#674EA0"/>
<path d="M58.1693 41.2334C58.0184 38.9035 57.7076 36.6469 56.7481 35.2827C56.117 34.3854 55.1304 33.3734 54.0723 33.2885C54.879 32.7061 55.4075 31.74 55.4075 30.645C55.4075 28.8651 54.0137 27.4221 52.2947 27.4221C50.5754 27.4221 49.1816 28.8651 49.1816 30.645C49.1816 31.7474 49.7169 32.7195 50.5326 33.3008C49.5811 33.4596 48.687 34.3528 48.0992 35.1491C47.0844 36.524 46.7484 38.8312 46.5868 41.2255C46.5063 42.4158 47.4461 43.4279 48.6391 43.4279L56.1164 43.4281C57.3065 43.4281 58.2465 42.421 58.1693 41.2334Z" fill="white"/>
<path d="M52.2843 27.9876C50.8854 27.9876 49.7474 29.1749 49.7474 30.6347C49.7474 31.509 50.1617 32.3263 50.8564 32.8215C51.0462 32.9567 51.1357 33.1927 51.0831 33.4198C51.0308 33.6467 50.8468 33.8198 50.617 33.8582C49.9884 33.9633 49.2356 34.5547 48.5518 35.4808C47.5658 36.8167 47.2851 39.268 47.151 41.2541C47.1231 41.6708 47.2641 42.0682 47.5489 42.3729C47.8315 42.6752 48.215 42.842 48.6288 42.842L56.1061 42.8423C56.5196 42.8423 56.9029 42.6757 57.1858 42.3743C57.4697 42.0709 57.6113 41.6755 57.5844 41.2604C57.4585 39.3198 57.1951 36.923 56.2668 35.6035C55.5338 34.561 54.6924 33.9066 54.0157 33.8521C53.7753 33.8327 53.5724 33.6656 53.5075 33.4332C53.4426 33.201 53.5294 32.9526 53.7249 32.8113C54.4117 32.3154 54.8216 31.5019 54.8216 30.6347C54.8216 29.1749 53.6833 27.9876 52.2843 27.9876ZM56.1063 43.9937C56.1061 43.9937 48.6288 43.9934 48.6288 43.9934C47.9032 43.9934 47.203 43.6891 46.7077 43.1591C46.2101 42.6268 45.953 41.9044 46.002 41.1766C46.1557 38.9011 46.4689 36.3636 47.6256 34.7968C47.9941 34.2976 48.6452 33.5345 49.4604 33.0769C48.9084 32.4 48.5954 31.5377 48.5954 30.6347C48.5954 28.54 50.2501 26.8362 52.2843 26.8362C54.3183 26.8362 55.973 28.54 55.973 30.6347C55.973 31.5093 55.6784 32.3472 55.1567 33.0147C56.0749 33.4819 56.8008 34.3612 57.2091 34.9411C58.2956 36.4865 58.5897 38.9649 58.7337 41.1859C58.7808 41.9115 58.5226 42.6317 58.0259 43.1618C57.5302 43.6903 56.8306 43.9937 56.1063 43.9937Z" fill="#674EA0"/>
<path d="M54.0786 33.2815C55.1342 33.3699 56.1183 34.3823 56.7481 35.2779C57.7076 36.6422 58.0184 38.8987 58.1693 41.2286C58.2465 42.4162 57.3065 43.4233 56.1164 43.4233L48.6391 43.4231C47.4461 43.4231 46.5063 42.411 46.5868 41.2207C46.7484 38.8264 47.0844 36.5192 48.0992 35.1443C48.6802 34.3574 49.5594 33.4737 50.4984 33.2993L54.0786 33.2815Z" fill="white"/>
<path d="M56.1063 43.9891C56.1061 43.9891 48.6288 43.9888 48.6288 43.9888C47.9032 43.9888 47.203 43.6846 46.7077 43.1545C46.2101 42.6222 45.953 41.8998 46.002 41.172C46.1557 38.8965 46.4689 36.359 47.6256 34.7922C48.1233 34.1183 49.143 32.9535 50.3829 32.7229C50.6951 32.6651 50.996 32.8713 51.054 33.184C51.1121 33.4964 50.9057 33.7971 50.593 33.8552C49.9713 33.9707 49.2274 34.5617 48.5518 35.4762C47.5658 36.8122 47.2851 39.2634 47.151 41.2495C47.1231 41.6662 47.2641 42.0636 47.5489 42.3683C47.8315 42.6706 48.215 42.8374 48.6288 42.8374L56.1061 42.8377C56.5196 42.8377 56.9029 42.6711 57.1858 42.3697C57.4697 42.0663 57.6113 41.6709 57.5844 41.2558C57.4585 39.3152 57.1951 36.9184 56.2668 35.5989C55.5343 34.5573 54.6945 33.9017 54.0201 33.8453C53.7033 33.8185 53.4678 33.5403 53.4944 33.2232C53.5212 32.9064 53.8008 32.672 54.1165 32.6975C55.5199 32.8152 56.6562 34.1509 57.2091 34.9365C58.2956 36.4819 58.5897 38.9603 58.7337 41.1813C58.7808 41.9069 58.5226 42.6271 58.0259 43.1572C57.5302 43.6857 56.8306 43.9891 56.1063 43.9891Z" fill="#674EA0"/>
<path d="M55.4154 30.645C55.4154 32.4249 54.0216 33.8676 52.3026 33.8676C50.5833 33.8676 49.1895 32.4249 49.1895 30.645C49.1895 28.8651 50.5833 27.4221 52.3026 27.4221C54.0216 27.4221 55.4154 28.8651 55.4154 30.645Z" fill="white"/>
<path d="M52.2924 27.9876C50.8935 27.9876 49.7555 29.1749 49.7555 30.6347C49.7555 32.0942 50.8935 33.2817 52.2924 33.2817C53.6914 33.2817 54.8296 32.0942 54.8296 30.6347C54.8296 29.1749 53.6914 27.9876 52.2924 27.9876ZM52.2924 34.4334C50.2582 34.4334 48.6035 32.7291 48.6035 30.6347C48.6035 28.54 50.2582 26.8362 52.2924 26.8362C54.3264 26.8362 55.9811 28.54 55.9811 30.6347C55.9811 32.7291 54.3264 34.4334 52.2924 34.4334Z" fill="#674EA0"/>
<path d="M70.474 41.2334C70.3228 38.9035 70.012 36.6469 69.0528 35.2827C68.4217 34.3854 67.4351 33.3734 66.3771 33.2885C67.1835 32.7061 67.7122 31.74 67.7122 30.645C67.7122 28.8651 66.3185 27.4221 64.5991 27.4221C62.8801 27.4221 61.4863 28.8651 61.4863 30.645C61.4863 31.7474 62.0217 32.7195 62.8371 33.3008C61.8856 33.4596 60.9918 34.3528 60.4036 35.1491C59.3888 36.524 59.0531 38.8312 58.8915 41.2255C58.811 42.4158 59.7505 43.4279 60.9436 43.4279L68.4209 43.4281C69.6109 43.4281 70.5512 42.421 70.474 41.2334Z" fill="white"/>
<path d="M64.6183 27.9876C63.2193 27.9876 62.0813 29.1749 62.0813 30.6347C62.0813 31.509 62.4959 32.3263 63.1905 32.8215C63.3803 32.9567 63.4699 33.1927 63.4176 33.4198C63.365 33.6467 63.181 33.8198 62.9515 33.8582C62.3226 33.9633 61.5698 34.5547 60.8864 35.4808C59.8997 36.8171 59.6194 39.268 59.4849 41.2541C59.457 41.6708 59.598 42.0682 59.8828 42.3729C60.1656 42.6752 60.549 42.842 60.9631 42.842L68.4401 42.8423C68.8538 42.8423 69.2371 42.6757 69.5197 42.3743C69.804 42.0709 69.9455 41.6755 69.9187 41.2604C69.7927 39.3198 69.529 36.9233 68.6007 35.6035C67.8683 34.561 67.0265 33.9066 66.3502 33.8521C66.1098 33.8327 65.9067 33.6656 65.8417 33.4332C65.7769 33.201 65.8637 32.9526 66.0591 32.8113C66.7456 32.3154 67.1555 31.5019 67.1555 30.6347C67.1555 29.1749 66.0175 27.9876 64.6183 27.9876ZM68.4403 43.9937C68.4401 43.9937 60.9627 43.9934 60.9627 43.9934C60.2371 43.9934 59.5373 43.6891 59.0416 43.1591C58.5441 42.6268 58.287 41.9044 58.336 41.1766C58.4898 38.9011 58.8029 36.3636 59.9597 34.7968C60.3283 34.2976 60.9792 33.5345 61.7944 33.0769C61.2424 32.4 60.9296 31.5377 60.9296 30.6347C60.9296 28.54 62.5846 26.8362 64.6183 26.8362C66.6523 26.8362 68.307 28.54 68.307 30.6347C68.307 31.5093 68.0126 32.3472 67.491 33.0147C68.4088 33.4819 69.135 34.3612 69.543 34.9411C70.6301 36.4865 70.9236 38.9649 71.0676 41.1859C71.1148 41.9112 70.8571 42.6314 70.3601 43.1618C69.8645 43.6903 69.1649 43.9937 68.4403 43.9937Z" fill="#674EA0"/>
<path d="M66.3831 33.2815C67.4389 33.3699 68.4228 34.3823 69.0528 35.2779C70.012 36.6422 70.3228 38.8987 70.474 41.2286C70.5512 42.4162 69.6109 43.4233 68.4209 43.4233L60.9436 43.4231C59.7505 43.4231 58.811 42.411 58.8915 41.2207C59.0531 38.8264 59.3888 36.5192 60.4036 35.1443C60.9847 34.3574 61.8642 33.4737 62.8028 33.2993L66.3831 33.2815Z" fill="white"/>
<path d="M68.4401 43.9891C68.4399 43.9891 60.9625 43.9888 60.9625 43.9888C60.2369 43.9888 59.537 43.6846 59.0411 43.1545C58.5439 42.6222 58.2868 41.8998 58.3361 41.172C58.4896 38.8965 58.8027 36.3593 59.9595 34.7922C60.4571 34.1183 61.4768 32.9535 62.7167 32.7229C63.0293 32.6651 63.3297 32.8713 63.3878 33.184C63.4459 33.4964 63.2396 33.7971 62.9272 33.8552C62.3051 33.9707 61.5611 34.5617 60.8862 35.4762C59.8995 36.8127 59.6192 39.2634 59.4847 41.2495C59.4568 41.6662 59.5978 42.0636 59.8823 42.3683C60.1654 42.6706 60.5488 42.8374 60.9629 42.8374L68.4399 42.8377C68.8535 42.8377 69.2369 42.6711 69.5195 42.3697C69.8038 42.0663 69.9453 41.6709 69.9185 41.2558C69.7925 39.3152 69.5288 36.9187 68.6005 35.5989C67.8684 34.5573 67.0282 33.9017 66.3541 33.8453C66.037 33.8185 65.8018 33.5403 65.8281 33.2232C65.8549 32.9064 66.1334 32.672 66.4503 32.6975C67.8539 32.8152 68.9902 34.1509 69.5428 34.9365C70.6299 36.4819 70.9234 38.9603 71.0674 41.1813C71.1146 41.9066 70.8569 42.6268 70.3599 43.1572C69.8643 43.6857 69.1647 43.9891 68.4401 43.9891Z" fill="#674EA0"/>
<path d="M67.72 30.645C67.72 32.4249 66.3263 33.8676 64.6069 33.8676C62.8879 33.8676 61.4941 32.4249 61.4941 30.645C61.4941 28.8651 62.8879 27.4221 64.6069 27.4221C66.3263 27.4221 67.72 28.8651 67.72 30.645Z" fill="white"/>
<path d="M64.5969 27.9876C63.1979 27.9876 62.0599 29.1749 62.0599 30.6347C62.0599 32.0942 63.1979 33.2817 64.5969 33.2817C65.9961 33.2817 67.1341 32.0942 67.1341 30.6347C67.1341 29.1749 65.9961 27.9876 64.5969 27.9876ZM64.5969 34.4334C62.5632 34.4334 60.9082 32.7291 60.9082 30.6347C60.9082 28.54 62.5632 26.8362 64.5969 26.8362C66.6309 26.8362 68.2856 28.54 68.2856 30.6347C68.2856 32.7291 66.6309 34.4334 64.5969 34.4334Z" fill="#674EA0"/>
<path d="M41.8044 50.1035C40.3447 50.1035 39.1947 48.8648 39.293 47.4083C39.4909 44.4779 39.9017 41.6539 41.144 39.9716C41.9378 38.896 43.1875 37.6725 44.4852 37.6758C45.5493 37.6783 46.817 37.6821 48.2831 37.684C49.6421 37.6856 50.9227 38.9885 51.7289 40.1347C52.9031 41.8045 53.2831 44.5663 53.4685 47.4179C53.5627 48.8713 52.4121 50.1041 50.9558 50.1038L41.8044 50.1035Z" fill="#EE445B"/>
<path d="M44.4699 38.2415C43.6238 38.2415 42.5499 39.0121 41.5965 40.3037C40.3694 41.9658 40.0223 44.9891 39.8568 47.437C39.8199 47.9833 40.0053 48.5038 40.378 48.9028C40.749 49.2993 41.2517 49.5178 41.7942 49.5178L50.9453 49.518C51.4872 49.518 51.9899 49.3004 52.3607 48.9047C52.7329 48.5076 52.9184 47.9893 52.8832 47.4455C52.7279 45.0534 52.4018 42.0975 51.2476 40.4562C50.2766 39.0759 49.1644 38.2511 48.2717 38.25C47.1784 38.2486 46.1953 38.2461 45.3248 38.2437L44.4732 38.2415C44.4721 38.2415 44.4711 38.2415 44.4699 38.2415ZM50.9453 50.6697L41.7942 50.6692C40.9292 50.6692 40.1277 50.3212 39.5367 49.6892C38.9522 49.0638 38.6504 48.2147 38.7082 47.3595C38.8949 44.5934 39.2742 41.5106 40.6701 39.6197C41.3678 38.6744 42.789 37.0901 44.4697 37.0901C44.476 37.0901 45.3276 37.0923 45.3276 37.0923C46.1978 37.0944 47.1803 37.0972 48.2733 37.0986C50.0327 37.1005 51.482 38.788 52.1893 39.7938C53.5009 41.6591 53.8572 44.6709 54.0321 47.3707C54.0877 48.2234 53.7846 49.0693 53.2008 49.6922C52.6099 50.3228 51.8089 50.6697 50.9453 50.6697Z" fill="#674EA0"/>
<path d="M50.0998 34.4718C50.0998 36.65 48.3944 38.4159 46.2902 38.4159C44.1861 38.4159 42.4805 36.65 42.4805 34.4718C42.4805 32.2932 44.1861 30.5273 46.2902 30.5273C48.3944 30.5273 50.0998 32.2932 50.0998 34.4718Z" fill="white"/>
<path d="M46.2801 31.0931C44.4969 31.0931 43.046 32.6041 43.046 34.4617C43.046 36.319 44.4969 37.8303 46.2801 37.8303C48.0635 37.8303 49.5142 36.319 49.5142 34.4617C49.5142 32.6041 48.0635 31.0931 46.2801 31.0931ZM46.2801 38.9817C43.862 38.9817 41.8945 36.9537 41.8945 34.4617C41.8945 31.9691 43.862 29.9414 46.2801 29.9414C48.6985 29.9414 50.6659 31.9691 50.6659 34.4617C50.6659 36.9537 48.6985 38.9817 46.2801 38.9817Z" fill="#674EA0"/>
<path d="M66.1209 50.1035C64.6609 50.1035 63.5111 48.8648 63.6094 47.4083C63.8073 44.4779 64.2181 41.6539 65.4601 39.9716C66.2542 38.896 67.5039 37.6725 68.8016 37.6758C69.8657 37.6783 71.1332 37.6821 72.5993 37.684C73.9582 37.6856 75.2389 38.9885 76.0453 40.1347C77.2192 41.8045 77.5995 44.5663 77.7846 47.4179C77.8788 48.8713 76.7285 50.1041 75.272 50.1038L66.1209 50.1035Z" fill="#807DBB"/>
<path d="M68.8159 38.2415C67.9695 38.2415 66.8959 39.0121 65.9422 40.3037C64.7154 41.9658 64.368 44.9891 64.2028 47.437C64.1659 47.9833 64.351 48.5038 64.7239 48.9031C65.0947 49.2993 65.5977 49.5178 66.1399 49.5178L75.2913 49.518C75.8329 49.518 76.3354 49.3004 76.7064 48.9047C77.0786 48.5076 77.2641 47.9893 77.2289 47.4455C77.0739 45.0534 76.7475 42.0975 75.5933 40.4562C74.6226 39.0759 73.5101 38.2511 72.6177 38.25C71.5241 38.2486 70.541 38.2461 69.6705 38.2437L68.8189 38.2415C68.8178 38.2415 68.8168 38.2415 68.8159 38.2415ZM75.2913 50.6697L66.1399 50.6692C65.2751 50.6692 64.4734 50.3212 63.883 49.6892C63.2981 49.0641 62.9961 48.2147 63.0539 47.3595C63.2406 44.5934 63.6199 41.5106 65.0161 39.6197C65.7135 38.6744 67.1347 37.0901 68.8154 37.0901C68.822 37.0901 69.6735 37.0923 69.6735 37.0923C70.5438 37.0944 71.5262 37.0972 72.619 37.0986C74.3786 37.1005 75.828 38.788 76.5353 39.7938C77.8469 41.6591 78.2029 44.6709 78.3781 47.3707C78.4337 48.2234 78.1303 49.0693 77.5465 49.6922C76.9559 50.3228 76.1546 50.6697 75.2913 50.6697Z" fill="#674EA0"/>
<path d="M74.4163 34.4718C74.4163 36.65 72.7106 38.4159 70.6066 38.4159C68.5022 38.4159 66.7969 36.65 66.7969 34.4718C66.7969 32.2932 68.5022 30.5273 70.6066 30.5273C72.7106 30.5273 74.4163 32.2932 74.4163 34.4718Z" fill="white"/>
<path d="M70.5965 31.0931C68.8131 31.0931 67.3624 32.6041 67.3624 34.4617C67.3624 36.319 68.8131 37.8303 70.5965 37.8303C72.3796 37.8303 73.8303 36.319 73.8303 34.4617C73.8303 32.6041 72.3796 31.0931 70.5965 31.0931ZM70.5965 38.9817C68.1784 38.9817 66.2109 36.9537 66.2109 34.4617C66.2109 31.9691 68.1784 29.9414 70.5965 29.9414C73.0146 29.9414 74.982 31.9691 74.982 34.4617C74.982 36.9537 73.0146 38.9817 70.5965 38.9817Z" fill="#674EA0"/>
<path d="M53.7102 52.9083C52.2096 52.9083 51.0281 51.6355 51.1291 50.1386C51.3323 47.1273 51.7545 44.2254 53.0311 42.4965C53.8471 41.391 55.131 40.1339 56.4645 40.1372C57.5582 40.1396 58.8608 40.1438 60.3676 40.146C61.7641 40.1476 63.0798 41.4861 63.9087 42.6643C65.1151 44.3801 65.5059 47.2183 65.6959 50.1487C65.7931 51.6421 64.6107 52.9088 63.114 52.9088L53.7102 52.9083Z" fill="white"/>
<path d="M53.7 52.3808L63.1039 52.3813C63.6652 52.3813 64.186 52.1554 64.57 51.7455C64.9555 51.3342 65.1477 50.7972 65.1113 50.234C64.9519 47.774 64.616 44.7337 63.4273 43.0437C62.427 41.6209 61.2789 40.7707 60.3566 40.7695C59.2164 40.7679 58.1929 40.7657 57.2885 40.7633L56.453 40.7611C55.5752 40.7611 54.467 41.5552 53.4842 42.8865C52.2205 44.5979 51.8635 47.7074 51.6934 50.2255C51.6551 50.7912 51.8471 51.3303 52.2332 51.7436C52.6173 52.1543 53.1382 52.3808 53.7 52.3808ZM63.1039 53.5327L53.7 53.5322C52.8155 53.5322 51.996 53.1762 51.392 52.5299C50.7942 51.8906 50.4853 51.0226 50.5442 50.1477C50.7361 47.3076 51.1252 44.1425 52.5576 42.2025C53.2729 41.2337 54.7293 39.6094 56.4492 39.6094C56.456 39.6094 57.2914 39.6116 57.2914 39.6116C58.1956 39.614 59.2183 39.6165 60.358 39.6179C62.1592 39.6203 63.6444 41.3501 64.3695 42.3813C65.7153 44.2948 66.0806 47.3868 66.2605 50.1593C66.3169 51.0311 66.0069 51.8964 65.41 52.533C64.8059 53.1776 63.987 53.5327 63.1039 53.5327Z" fill="#674EA0"/>
<path d="M62.2052 36.8662C62.2052 39.1047 60.4522 40.9196 58.2901 40.9196C56.1278 40.9196 54.375 39.1047 54.375 36.8662C54.375 34.6274 56.1278 32.8127 58.2901 32.8127C60.4522 32.8127 62.2052 34.6274 62.2052 36.8662Z" fill="white"/>
<path d="M58.3094 33.3782C56.4679 33.3782 54.9698 34.9382 54.9698 36.8558C54.9698 38.7734 56.4679 40.3331 58.3094 40.3331C60.1506 40.3331 61.6483 38.7734 61.6483 36.8558C61.6483 34.9382 60.1506 33.3782 58.3094 33.3782ZM58.3094 41.4847C55.8332 41.4847 53.8184 39.4081 53.8184 36.8558C53.8184 34.3035 55.8332 32.2268 58.3094 32.2268C60.7855 32.2268 62.8 34.3035 62.8 36.8558C62.8 39.4081 60.7855 41.4847 58.3094 41.4847Z" fill="#674EA0"/>
<path d="M70.276 2.10962H46.066C43.5681 2.10962 41.543 4.13424 41.543 6.63203V19.715C41.543 22.2128 43.5681 24.2375 46.066 24.2375H52.9884C54.5153 24.2375 55.9825 24.8322 57.0788 25.8952L58.1711 26.9546L59.2634 25.8952C60.3595 24.8322 61.8263 24.2375 63.3535 24.2375H70.276C72.774 24.2375 74.7987 22.2128 74.7987 19.715V6.63203C74.7987 4.13424 72.774 2.10962 70.276 2.10962Z" fill="white"/>
<path d="M46.0557 2.67512C43.8793 2.67512 42.1087 4.44594 42.1087 6.62224V19.705C42.1087 21.8813 43.8793 23.6519 46.0557 23.6519H52.9781C54.664 23.6519 56.2591 24.2981 57.4691 25.472L58.1608 26.1423L58.8522 25.4716C60.0622 24.298 61.6572 23.6519 63.3431 23.6519H70.2657C72.442 23.6519 74.2128 21.8813 74.2128 19.705V6.62224C74.2128 4.44594 72.442 2.67512 70.2657 2.67512H46.0557ZM58.1608 27.5204C58.0162 27.5204 57.8713 27.4659 57.7599 27.3581L56.6676 26.2986C55.6734 25.3342 54.3631 24.8033 52.9781 24.8033H46.0557C43.244 24.8033 40.957 22.5161 40.957 19.705V6.62224C40.957 3.81091 43.244 1.52368 46.0557 1.52368H70.2657C73.077 1.52368 75.3642 3.81091 75.3642 6.62224V19.705C75.3642 22.5161 73.077 24.8033 70.2657 24.8033H63.3431C61.9582 24.8033 60.6482 25.3342 59.6536 26.2986L58.5617 27.3581C58.45 27.4659 58.3051 27.5204 58.1608 27.5204Z" fill="#674EA0"/>
<path d="M58.3396 17.2079C58.2449 17.2079 58.1502 17.2353 58.0693 17.2927L54.0201 20.1599C53.9201 20.2309 53.8542 20.3365 53.8342 20.4576C53.8142 20.5775 53.8418 20.6972 53.9122 20.7946L53.9533 20.8522C54.1006 21.0556 54.3996 21.1046 54.6069 20.9578L58.6556 18.0904C58.7558 18.0197 58.8218 17.9137 58.8419 17.7927C58.8618 17.6728 58.8342 17.5534 58.7635 17.4556L58.7224 17.3984C58.6326 17.2744 58.4866 17.2079 58.3396 17.2079ZM54.3366 22.195C53.8319 22.195 53.3344 21.9617 53.0187 21.5249L52.9779 21.4677C52.7271 21.1202 52.6274 20.6944 52.6978 20.2692C52.7687 19.8425 53.0017 19.4702 53.3544 19.2205L57.4037 16.3527C58.128 15.8398 59.1386 16.0066 59.657 16.7254C59.6573 16.7259 59.6981 16.7823 59.6981 16.7823C59.9489 17.1304 60.0486 17.5564 59.9779 17.9814C59.9073 18.4077 59.674 18.7801 59.3213 19.0299L55.2723 21.8976C54.9888 22.0986 54.6611 22.195 54.3366 22.195Z" fill="#674EA0"/>
<path d="M56.7703 15.7425C56.6745 15.7425 56.5789 15.7702 56.497 15.8282L52.2645 18.8257C52.1635 18.8972 52.0967 19.0038 52.0761 19.1259C52.0562 19.2475 52.0844 19.3685 52.1553 19.4676L52.1906 19.5164C52.3391 19.722 52.6419 19.7715 52.8511 19.6234L57.0839 16.6259C57.1849 16.5544 57.2515 16.4474 57.272 16.3253C57.2919 16.2042 57.264 16.0829 57.1926 15.9843L57.1578 15.9356C57.0669 15.8099 56.919 15.7425 56.7703 15.7425ZM52.5776 20.8614C52.0718 20.8614 51.5729 20.6278 51.2564 20.1894L51.221 20.1404C50.9691 19.791 50.8692 19.3636 50.9403 18.9369C51.0118 18.5092 51.2457 18.1357 51.5989 17.8857L55.8314 14.8882C56.5581 14.374 57.5721 14.5418 58.0918 15.262C58.0923 15.2628 58.1271 15.3112 58.1271 15.3112C58.379 15.6601 58.4787 16.0876 58.4077 16.5139C58.3368 16.9419 58.1028 17.3151 57.7492 17.5657L53.5165 20.5632C53.232 20.7647 52.9037 20.8614 52.5776 20.8614Z" fill="#674EA0"/>
<path d="M54.9098 14.1339L50.5788 17.2013C50.4717 17.2768 50.4002 17.3927 50.378 17.5272C50.3537 17.6733 50.3892 17.822 50.4783 17.9453C50.6557 18.1911 51.0024 18.2591 51.2354 18.0942L55.5664 15.0269C55.6735 14.951 55.745 14.8354 55.7672 14.7012C55.7918 14.5551 55.7559 14.4064 55.6672 14.2826C55.4898 14.0372 55.1431 13.9688 54.9098 14.1339ZM50.9438 19.3368C50.4112 19.3368 49.8819 19.0866 49.5443 18.6191C49.2743 18.2448 49.1669 17.79 49.2422 17.3382C49.3151 16.8984 49.5533 16.5162 49.9131 16.2615L54.2442 13.1941C54.995 12.6624 56.0522 12.8489 56.6009 13.609C56.871 13.9836 56.9785 14.4387 56.903 14.8902C56.8301 15.33 56.5919 15.712 56.2319 15.9669L51.901 19.0339C51.6119 19.2388 51.277 19.3368 50.9438 19.3368Z" fill="#674EA0"/>
<path d="M53.603 12.4026C53.5058 12.4026 53.4116 12.4298 53.3316 12.4864L49.0455 15.5253C48.9444 15.597 48.8765 15.7087 48.8543 15.8397C48.8286 15.9913 48.8672 16.1537 48.9605 16.2844C49.1405 16.5368 49.4839 16.6145 49.7106 16.4541L53.9965 13.4152C54.0977 13.3438 54.1654 13.2321 54.1876 13.1009C54.2131 12.9492 54.1744 12.7873 54.0813 12.6565C53.9649 12.493 53.7799 12.4026 53.603 12.4026ZM49.4384 17.6907C48.9017 17.6907 48.3648 17.4325 48.0228 16.9527C47.7533 16.5741 47.6424 16.0984 47.7191 15.6472C47.7927 15.2126 48.0274 14.8356 48.3795 14.5858L52.6654 11.5469C53.4124 11.0173 54.4683 11.2153 55.0192 11.9884C55.2883 12.3662 55.3995 12.8416 55.3231 13.2926C55.2498 13.7276 55.0151 14.1047 54.6627 14.3544L50.3768 17.3936C50.0936 17.5943 49.7659 17.6907 49.4384 17.6907Z" fill="#674EA0"/>
<path d="M67.0513 14.4C66.9801 14.4 66.9075 14.3866 66.8372 14.3583C66.542 14.24 66.3988 13.9049 66.5168 13.6097C66.7791 12.9559 66.7205 12.4728 66.7199 12.4682C66.6931 12.2619 66.7788 12.0509 66.9448 11.9265L69.1559 10.2716C69.1942 10.2428 69.2024 10.2091 69.2043 10.196L65.5546 5.38659L63.0606 7.26361C62.8071 7.45498 62.4456 7.40379 62.2545 7.14999C62.0633 6.89586 62.114 6.53494 62.3681 6.34383L64.8812 4.4517C65.3741 4.07934 66.0702 4.16287 66.4319 4.63768L70.1175 9.475C70.3076 9.72499 70.3886 10.0366 70.3451 10.3526C70.2999 10.6818 70.1187 10.9876 69.8478 11.1921L67.8774 12.667C67.8714 12.9796 67.8153 13.4668 67.5861 14.038C67.496 14.263 67.2797 14.4 67.0513 14.4Z" fill="#674EA0"/>
<path d="M61.645 20.4001C61.211 20.4001 60.7633 20.266 60.3731 19.9883L59.4728 19.4209C59.2041 19.2512 59.1236 18.8958 59.2934 18.6269C59.4634 18.358 59.8188 18.2775 60.088 18.4473L61.0141 19.0322C61.4523 19.3429 62.0056 19.3065 62.2487 18.9705C62.3775 18.7926 62.3785 18.5968 62.3567 18.464C62.3156 18.2167 62.1636 17.9831 61.9391 17.8235L57.4591 14.6392C57.2001 14.4549 57.139 14.0954 57.3233 13.8361C57.5078 13.577 57.867 13.5163 58.1264 13.7006L62.6061 16.8845C63.0793 17.2211 63.4024 17.7282 63.4928 18.2767C63.5741 18.7698 63.4637 19.2559 63.1817 19.6455C62.8235 20.1409 62.2474 20.4001 61.645 20.4001Z" fill="#674EA0"/>
<path d="M65.7576 16.6702C65.4196 16.6702 65.088 16.5736 64.8038 16.3712L61.2362 13.8301C60.9769 13.6456 60.9166 13.2863 61.1011 13.0271C61.2852 12.768 61.645 12.7075 61.904 12.892L65.472 15.4331C65.7504 15.6316 66.2142 15.4802 66.4848 15.1024C66.6414 14.8835 66.7091 14.6245 66.6702 14.3929C66.6524 14.2857 66.6028 14.1385 66.4686 14.0427L59.2225 9.01002L53.7893 10.8836C52.7 11.2595 51.5034 10.6845 51.1231 9.60207C50.9396 9.07902 50.9725 8.5155 51.2151 8.01414C51.4594 7.50949 51.8854 7.13109 52.415 6.9484L58.1244 4.9799C58.1535 4.96925 61.5888 3.79922 64.1406 7.65545C64.3164 7.92075 64.2436 8.2778 63.9782 8.45339C63.7129 8.62892 63.3558 8.55604 63.1803 8.291C61.1203 5.17817 58.5322 6.05714 58.5059 6.06621L52.7904 8.03714C52.5527 8.11876 52.3616 8.28903 52.2515 8.51576C52.1436 8.73926 52.1286 8.98951 52.2096 9.22091C52.3807 9.70721 52.9207 9.96516 53.4139 9.79508L59.1233 7.82632C59.2969 7.76632 59.4884 7.79287 59.6395 7.89775L67.1313 13.1009C67.4925 13.3581 67.7304 13.7482 67.8063 14.2028C67.8947 14.7343 67.7545 15.3061 67.4215 15.7723C67.0067 16.3526 66.3714 16.6702 65.7576 16.6702Z" fill="#674EA0"/>
<path d="M63.8747 18.7649C63.5135 18.7649 63.1564 18.6606 62.8495 18.4423L61.0798 17.1844C60.8204 17.0002 60.7596 16.6409 60.9439 16.3818C61.1279 16.1222 61.4872 16.0614 61.7465 16.246L63.5162 17.5034C63.8267 17.7241 64.3144 17.5995 64.5811 17.231C64.7241 17.0333 64.7852 16.7928 64.7487 16.5708C64.7285 16.4478 64.669 16.2761 64.502 16.157L59.4807 12.5883C59.2213 12.404 59.1605 12.0447 59.3448 11.7857C59.5291 11.5261 59.8884 11.4656 60.1474 11.6496L65.169 15.2186C65.5518 15.4911 65.8062 15.9048 65.8851 16.3837C65.971 16.9064 65.8358 17.4612 65.514 17.9059C65.111 18.4632 64.4878 18.7649 63.8747 18.7649Z" fill="#674EA0"/>
<path d="M49.6809 14.7183C49.4712 14.7183 49.269 14.6033 49.1675 14.4034C48.7967 13.6753 48.7162 13.0442 48.7094 12.6663L46.7412 11.1931C46.4682 10.9867 46.2869 10.6805 46.242 10.3517C46.1984 10.0354 46.2795 9.72409 46.4701 9.47436L50.1552 4.63756C50.5174 4.16275 51.2135 4.07923 51.7066 4.45217L54.395 6.46884C54.6497 6.65949 54.7009 7.02034 54.5103 7.27474C54.3194 7.52913 53.9586 7.58058 53.7042 7.39L51.0328 5.38595L47.3857 10.1726C47.3843 10.2085 47.3931 10.2424 47.4334 10.2728L49.6423 11.9261C49.8126 12.0532 49.8986 12.2641 49.8665 12.4741C49.8641 12.4932 49.7921 13.0924 50.1935 13.8812C50.3381 14.1644 50.225 14.5113 49.9416 14.6553C49.8581 14.6983 49.7688 14.7183 49.6809 14.7183Z" fill="#674EA0"/>
<path d="M59.4184 22.113C58.8905 22.113 58.3407 21.9256 57.8684 21.5776L56.5096 20.5593C56.2553 20.3684 56.2038 20.0075 56.3943 19.7531C56.5855 19.499 56.9461 19.447 57.2005 19.6378L58.5551 20.6532C58.8727 20.8873 59.2544 20.999 59.571 20.9498C59.6895 20.9314 59.8522 20.8804 59.9521 20.7427C60.1652 20.4497 60.0064 19.8326 59.4384 19.415L58.7862 18.898C58.5367 18.7006 58.4951 18.3383 58.6928 18.0891C58.8903 17.8402 59.2525 17.798 59.5017 17.9958L60.1375 18.5001C61.1608 19.2526 61.5031 20.5677 60.8842 21.419C60.6246 21.7767 60.2211 22.014 59.7476 22.0877C59.6394 22.1045 59.5294 22.113 59.4184 22.113Z" fill="#674EA0"/>
<path d="M97.4021 98.145V103.245L88.7402 103.287V98.145H97.4021Z" fill="white"/>
<path d="M89.306 98.7689V102.756L96.8159 102.72V98.7689H89.306ZM88.7299 103.911C88.5777 103.911 88.4317 103.851 88.324 103.743C88.2151 103.635 88.1543 103.488 88.1543 103.335V98.1931C88.1543 97.8751 88.412 97.6175 88.7299 97.6175L97.3917 97.6172C97.5445 97.6172 97.691 97.678 97.7989 97.7859C97.907 97.8941 97.9673 98.0405 97.9673 98.1931V103.293C97.9673 103.61 97.7115 103.867 97.3947 103.869L88.7329 103.911C88.7318 103.911 88.731 103.911 88.7299 103.911Z" fill="#674EA0"/>
<path d="M112.108 70.8987H114.111C114.912 70.8987 115.56 71.5416 115.56 72.334V95.966C115.56 97.1604 114.592 98.1295 113.397 98.1306L72.5811 98.1747C71.781 98.1747 71.1328 97.532 71.1328 96.739V72.334C71.1328 71.5416 71.781 70.8987 72.5811 70.8987H112.108Z" fill="#807DBB"/>
<path d="M72.5712 98.7402C71.4546 98.7402 70.5469 97.838 70.5469 96.7287V72.3237C70.5469 71.2147 71.4546 70.3127 72.5707 70.3127H74.7265C75.0447 70.3127 75.3024 70.5704 75.3024 70.8884C75.3024 71.2062 75.0447 71.4642 74.7265 71.4642H72.5707C72.0899 71.4642 71.6983 71.8497 71.6983 72.3237V96.7287C71.6983 97.2029 72.0899 97.5885 72.5707 97.5885L113.386 97.5447C114.262 97.5439 114.974 96.8308 114.974 95.9557V72.3237C114.974 71.85 114.582 71.4642 114.101 71.4642H112.098C111.78 71.4642 111.522 71.2062 111.522 70.8884C111.522 70.5704 111.78 70.3127 112.098 70.3127H114.101C115.217 70.3127 116.125 71.2147 116.125 72.3237V95.9557C116.125 97.4653 114.897 98.6945 113.388 98.6964L72.5712 98.7402Z" fill="#674EA0"/>
<path d="M112.141 92.5857C112.142 93.3732 111.504 94.0118 110.716 94.0118H76.158C75.3733 94.0118 74.7363 93.3809 74.7363 92.6024V64.164C74.7363 63.3855 75.3733 62.7544 76.158 62.7544H110.686C111.471 62.7544 112.107 63.3855 112.107 64.164L112.141 92.5857Z" fill="white"/>
<path d="M76.1476 63.378C75.6813 63.378 75.3018 63.7521 75.3018 64.2118V92.6502C75.3018 93.1099 75.6813 93.4837 76.1476 93.4837H110.706C110.933 93.4837 111.146 93.3955 111.306 93.2348C111.467 93.0743 111.555 92.861 111.555 92.6343L111.521 64.2123C111.521 63.7521 111.142 63.378 110.675 63.378H76.1476ZM110.706 94.6354H76.1476C75.0463 94.6354 74.1504 93.7446 74.1504 92.6502V64.2118C74.1504 63.117 75.0463 62.2266 76.1476 62.2266H110.675C111.777 62.2266 112.673 63.117 112.673 64.2118L112.707 92.6329C112.707 93.1677 112.499 93.6704 112.121 94.0488C111.743 94.427 111.241 94.6354 110.706 94.6354Z" fill="#674EA0"/>
<path d="M108.039 72.0794V70.8954C108.039 70.5736 107.776 70.3127 107.452 70.3127H96.8571C96.5329 70.3127 96.2695 70.5736 96.2695 70.8954V75.4649C96.2695 75.7867 96.5329 76.0474 96.8571 76.0474H107.452C107.776 76.0474 108.039 75.7867 108.039 75.4649V74.2561L109.585 73.1312L108.039 72.0794Z" fill="#807DBB"/>
<path d="M96.8471 70.8782L96.8353 75.4546L107.442 75.4612L107.453 74.2457C107.453 74.0617 107.541 73.8884 107.69 73.7802L108.575 73.1367L107.705 72.5453C107.548 72.4379 107.453 72.2597 107.453 72.0691V70.8851L96.8471 70.8782ZM107.442 76.6126H96.8471C96.2058 76.6126 95.6836 76.0932 95.6836 75.4546V70.8851C95.6836 70.2462 96.2058 69.7268 96.8471 69.7268H107.442C108.083 69.7268 108.605 70.2462 108.605 70.8851V71.7643L109.899 72.6449C110.054 72.7504 110.148 72.9245 110.151 73.1118C110.154 73.2994 110.065 73.4763 109.914 73.5867L108.605 74.539V75.4546C108.605 76.0932 108.083 76.6126 107.442 76.6126Z" fill="#674EA0"/>
<path d="M97.5519 81.9818V80.7981C97.5519 80.4763 97.815 80.2153 98.1395 80.2153H108.734C109.058 80.2153 109.321 80.4763 109.321 80.7981V85.367C109.321 85.6887 109.058 85.95 108.734 85.95H98.1395C97.815 85.95 97.5519 85.6887 97.5519 85.367V84.1584L96.0059 83.0338L97.5519 81.9818Z" fill="#807DBB"/>
<path d="M96.9961 83.0974L97.8803 83.7409C98.0293 83.8491 98.1171 84.0222 98.1171 84.2064V85.415L108.723 85.4222L108.735 80.8458L98.1292 80.8389L98.1171 82.0298C98.1171 82.2204 98.0229 82.3986 97.8652 82.506L96.9961 83.0974ZM108.723 86.5736H98.1292C97.4876 86.5736 96.9657 86.0539 96.9657 85.415V84.4994L95.6569 83.5473C95.5052 83.4369 95.4167 83.2601 95.42 83.0725C95.4228 82.8852 95.5167 82.7111 95.6716 82.6054L96.9657 81.7251V80.8458C96.9657 80.2073 97.4876 79.6875 98.1292 79.6875H108.723C109.365 79.6875 109.887 80.2073 109.887 80.8458V85.415C109.887 86.0539 109.365 86.5736 108.723 86.5736Z" fill="#674EA0"/>
<path d="M103.1 103.301H99.7999H87.0036H83.7032C82.8481 103.301 82.1484 103.995 82.1484 104.842V104.913C82.1484 105.761 82.8481 106.454 83.7032 106.454H103.1C103.955 106.454 104.655 105.761 104.655 104.913V104.842C104.655 103.995 103.955 103.301 103.1 103.301Z" fill="#807DBB"/>
<path d="M83.7224 103.867C83.1825 103.867 82.7435 104.3 82.7435 104.832V104.903C82.7435 105.436 83.1825 105.869 83.7224 105.869H103.12C103.659 105.869 104.098 105.436 104.098 104.903V104.832C104.098 104.3 103.659 103.867 103.12 103.867H83.7224ZM103.12 107.02H83.7224C82.5475 107.02 81.5918 106.071 81.5918 104.903V104.832C81.5918 103.665 82.5475 102.715 83.7224 102.715H103.12C104.294 102.715 105.25 103.665 105.25 104.832V104.903C105.25 106.071 104.294 107.02 103.12 107.02Z" fill="#674EA0"/>
<path d="M87.8919 75.4267H88.5458C89.1471 75.4267 89.6345 74.9768 89.6345 74.4217C89.6345 74.0031 89.3568 73.6438 88.9614 73.4932C88.7087 73.3966 88.5458 73.1679 88.5458 72.9155C88.5458 72.6616 88.7087 72.4327 88.9617 72.3363C89.3568 72.1857 89.6345 71.8268 89.6345 71.4075C89.6345 70.9886 89.3568 70.6296 88.9614 70.479C88.7087 70.3824 88.5458 70.1534 88.5458 69.901V69.5866C88.5458 68.0951 87.2358 65.5667 85.6194 65.5667H82.6476C81.0315 65.5667 79.7216 68.0951 79.7216 69.5866V69.901C79.7216 70.1534 79.5581 70.3824 79.3059 70.479C78.9105 70.6296 78.6328 70.9886 78.6328 71.4075C78.6328 71.8268 78.9105 72.1857 79.3059 72.3363C79.5581 72.4327 79.7216 72.6616 79.7216 72.9141C79.7216 73.1679 79.5581 73.3966 79.3059 73.4932C78.9105 73.6438 78.6328 74.0031 78.6328 74.4217C78.6328 74.9768 79.1202 75.4267 79.7216 75.4267H87.8919Z" fill="#EE445B"/>
<path d="M88.5356 75.9925H87.8818C87.5638 75.9925 87.3059 75.7345 87.3059 75.4166C87.3059 75.0987 87.5638 74.8411 87.8818 74.8411H88.5356C88.8182 74.8411 89.0485 74.6483 89.0485 74.412C89.0485 74.2447 88.9297 74.091 88.7459 74.0209C88.2684 73.8385 87.9598 73.4007 87.9598 72.9054C87.9598 72.4089 88.2684 71.9709 88.7462 71.7885C88.93 71.7184 89.0485 71.5651 89.0485 71.3975C89.0485 71.2302 88.9297 71.0765 88.7459 71.0067C88.2684 70.8244 87.9598 70.3862 87.9598 69.8909V69.5763C87.9598 68.3115 86.7982 66.1324 85.6093 66.1324H82.6375C81.4485 66.1324 80.2873 68.3115 80.2873 69.5763V69.8909C80.2873 70.3862 79.9787 70.8244 79.5011 71.0067C79.3174 71.0765 79.1986 71.2302 79.1986 71.3975C79.1986 71.5651 79.3174 71.7184 79.5011 71.7885C79.9787 71.9709 80.2873 72.4089 80.2873 72.904C80.2873 73.4007 79.9787 73.8385 79.5011 74.0209C79.3174 74.091 79.1986 74.2447 79.1986 74.412C79.1986 74.6483 79.4286 74.8411 79.7114 74.8411H80.3653C80.6832 74.8411 80.9409 75.0987 80.9409 75.4166C80.9409 75.7345 80.6832 75.9925 80.3653 75.9925H79.7114C78.7938 75.9925 78.0469 75.2835 78.0469 74.412C78.0469 73.7627 78.4565 73.1869 79.0904 72.9454C79.1246 72.932 79.1359 72.9111 79.1359 72.9054C79.1359 72.8983 79.1246 72.8775 79.0901 72.8643C78.4565 72.6225 78.0469 72.0467 78.0469 71.3975C78.0469 70.7483 78.4565 70.1726 79.0904 69.9309C79.1246 69.9177 79.1359 69.8969 79.1359 69.8909V69.5763C79.1359 67.7685 80.6394 64.981 82.6375 64.981H85.6093C87.6076 64.981 89.1112 67.7685 89.1112 69.5763V69.8909C89.1112 69.8969 89.1224 69.9177 89.1569 69.9309C89.7906 70.1726 90.2002 70.7483 90.2002 71.3975C90.2002 72.0464 89.7908 72.6223 89.1569 72.8643C89.1224 72.8775 89.1112 72.8983 89.1112 72.904C89.1112 72.9111 89.1224 72.932 89.1567 72.9454C89.7906 73.1869 90.2002 73.7627 90.2002 74.412C90.2002 75.2835 89.4533 75.9925 88.5356 75.9925Z" fill="#674EA0"/>
<path d="M93.4176 94.5844C93.0997 94.5844 92.8418 94.3267 92.8418 94.0088V62.7443C92.8418 62.4264 93.0997 62.1685 93.4176 62.1685C93.7356 62.1685 93.9932 62.4264 93.9932 62.7443V94.0088C93.9932 94.3267 93.7356 94.5844 93.4176 94.5844Z" fill="#674EA0"/>
<path d="M93.4116 78.9644H74.7259C74.4081 78.9644 74.1504 78.7067 74.1504 78.3888C74.1504 78.0709 74.4081 77.813 74.7259 77.813H93.4116C93.7295 77.813 93.9875 78.0709 93.9875 78.3888C93.9875 78.7067 93.7295 78.9644 93.4116 78.9644Z" fill="#674EA0"/>
<path d="M82.9734 73.5981V74.5932C82.9734 74.6279 82.9753 74.6622 82.9783 74.6961C80.894 75.0047 79.3866 76.2462 79.3359 78.4149H88.8274C88.75 76.0091 87.0686 74.9568 85.1281 74.6898C85.1311 74.6581 85.133 74.6258 85.133 74.5932V73.594L82.9734 73.5981Z" fill="white"/>
<path d="M79.9594 77.8287H88.1806C87.8534 76.0267 86.3282 75.4272 85.0399 75.2501C84.7357 75.2082 84.5177 74.9349 84.5448 74.6293C84.5462 74.6137 84.5476 74.5984 84.5476 74.5828V74.1608L83.5391 74.1625V74.5828C83.5391 74.5992 83.5402 74.6156 83.5418 74.6318C83.5705 74.9369 83.3553 75.2106 83.0528 75.2553C82.0024 75.4108 80.2968 75.9538 79.9594 77.8287ZM88.8176 78.9801H79.3261C79.1708 78.9801 79.0221 78.918 78.9139 78.8068C78.8055 78.6959 78.7464 78.5458 78.7502 78.3911C78.8008 76.2438 80.1489 74.709 82.3876 74.2079V73.588C82.3876 73.2703 82.6448 73.0124 82.9624 73.0119L85.1223 73.0081C85.2757 73.0081 85.4219 73.0685 85.53 73.1762C85.6382 73.2841 85.699 73.4311 85.699 73.5836V74.1962C87.9849 74.6759 89.3222 76.1811 89.3931 78.3859C89.398 78.542 89.3397 78.6929 89.2311 78.8051C89.1226 78.9171 88.9736 78.9801 88.8176 78.9801Z" fill="#674EA0"/>
<path d="M84.2101 73.7088H83.9551C82.7634 73.7088 81.7969 72.6603 81.7969 71.3668V69.0239C81.7969 69.0239 84.1241 70.5549 86.3686 70.1047C86.551 70.3504 86.3686 71.3668 86.3686 71.3668C86.3686 72.6603 85.402 73.7088 84.2101 73.7088Z" fill="white"/>
<path d="M82.3919 69.9806V71.3563C82.3919 72.3303 83.102 73.1224 83.9747 73.1224H84.2293C85.102 73.1224 85.8117 72.3303 85.8117 71.3563C85.8117 71.3223 85.815 71.2884 85.8207 71.255C85.8509 71.0871 85.873 70.9014 85.8845 70.7407C84.5204 70.8338 83.2183 70.3694 82.3919 69.9806ZM84.2293 74.2738H83.9747C82.4667 74.2738 81.2402 72.9653 81.2402 71.3563V69.0134C81.2402 68.8018 81.3566 68.6071 81.5428 68.5069C81.7293 68.4067 81.9558 68.4163 82.1326 68.5326C82.1534 68.5461 84.295 69.9261 86.2745 69.5296C86.4924 69.4861 86.717 69.572 86.8498 69.7508C86.9306 69.8595 87.1745 70.1881 86.9628 71.4091C86.9365 72.9937 85.7203 74.2738 84.2293 74.2738Z" fill="#674EA0"/>
<path d="M82.9113 88.5417L82.9107 89.8829C82.9107 89.9711 82.922 90.0565 82.9412 90.1392C80.8333 90.4494 79.1495 91.7169 79.1016 94.0359H89.0162C88.9776 91.7542 87.3398 90.4664 85.1399 90.1441C85.1597 90.06 85.1714 89.973 85.1714 89.8829V88.5354C85.1703 88.5354 82.9113 88.5417 82.9113 88.5417Z" fill="white"/>
<path d="M79.7517 93.45H88.4062C88.0466 91.3723 85.9974 90.8386 85.0757 90.7039C84.9158 90.6803 84.7734 90.591 84.6828 90.4572C84.5922 90.3238 84.5615 90.1582 84.599 90.001C84.6096 89.9552 84.6148 89.9134 84.6148 89.8725V89.1028L83.5064 89.1061L83.5059 89.8728C83.5059 89.9125 83.5108 89.9544 83.5212 89.9993C83.5576 90.1559 83.5267 90.3205 83.436 90.4536C83.3454 90.5864 83.2033 90.6754 83.0442 90.6987C82.1354 90.8328 80.114 91.3643 79.7517 93.45ZM89.0354 94.6017H79.1208C78.9661 94.6017 78.818 94.5395 78.7096 94.4287C78.6012 94.3183 78.542 94.1688 78.545 94.0141C78.591 91.7778 80.0034 90.1784 82.3545 89.6557L82.355 88.5314C82.3553 88.2143 82.6118 87.9572 82.9289 87.956L85.1879 87.9495C85.3268 87.9583 85.4883 88.0097 85.5965 88.1179C85.7049 88.2258 85.7665 88.3725 85.7665 88.5256V89.6598C88.148 90.1836 89.5735 91.7824 89.6113 94.0163C89.6137 94.1705 89.5546 94.3197 89.4462 94.4295C89.338 94.5399 89.1899 94.6017 89.0354 94.6017Z" fill="#674EA0"/>
<path d="M81.6103 84.6157C80.4959 84.3955 80.5304 82.6143 81.2829 81.8452C82.6123 80.486 84.7725 81.366 85.5545 81.4687C86.7322 81.6229 87.7317 81.2702 87.7317 81.2702C87.7317 81.2702 87.7777 82.7417 86.5729 83.7348L81.6103 84.6157Z" fill="#EE445B"/>
<path d="M83.2529 81.6576C82.6795 81.6576 82.1143 81.795 81.6828 82.2361C81.3665 82.5595 81.2184 83.2164 81.3594 83.671C81.4292 83.8955 81.5407 83.9796 81.6245 84.0146L86.3033 83.1841C86.7088 82.8095 86.9191 82.3695 87.0281 82.0056C86.6015 82.0694 86.0555 82.105 85.4682 82.028C85.2976 82.0056 85.0957 81.958 84.863 81.9029C84.4022 81.7942 83.8236 81.6576 83.2529 81.6576ZM81.5987 85.1798C81.5613 85.1798 81.524 85.1761 81.4873 85.1688C80.8989 85.0527 80.4514 84.631 80.2595 84.0122C79.9953 83.1606 80.2535 82.051 80.8597 81.4308C82.1754 80.0855 84.0957 80.5385 85.1272 80.7821C85.3302 80.8301 85.5048 80.8711 85.6177 80.8862C86.631 81.019 87.5199 80.7186 87.5284 80.7156C87.7017 80.6545 87.8939 80.6798 88.0453 80.7835C88.1967 80.8873 88.2899 81.057 88.2956 81.2408C88.2981 81.3123 88.334 83.0081 86.9274 84.1677C86.8507 84.2307 86.7592 84.2731 86.6617 84.2901L81.6993 85.171C81.6661 85.177 81.6324 85.1798 81.5987 85.1798Z" fill="#674EA0"/>
<path d="M84.2101 88.8186H83.9336C82.6403 88.8186 81.5918 87.7701 81.5918 86.4766C81.5918 86.4766 81.5973 84.6544 81.5918 84.631C82.0806 83.3832 85.496 84.3718 86.5521 83.6721C86.5469 83.6637 86.5521 86.4766 86.5521 86.4766C86.5521 87.7701 85.5036 88.8186 84.2101 88.8186Z" fill="white"/>
<path d="M82.1888 84.7671C82.1913 85.004 82.1896 85.4756 82.1866 86.4684C82.1866 87.4404 82.979 88.2327 83.9527 88.2327H84.2293C85.2033 88.2327 85.9954 87.4404 85.9954 86.4665L85.9938 85.0654C85.9935 84.8332 85.9933 84.6302 85.9941 84.4528C85.4949 84.5309 84.9139 84.5234 84.3136 84.5161C83.6039 84.5068 82.4489 84.4925 82.1888 84.7671ZM84.2293 89.3841H83.9527C82.344 89.3841 81.0352 88.0752 81.0352 86.4665C81.0371 85.8277 81.039 84.7871 81.0363 84.6549C81.0313 84.5722 81.0442 84.4887 81.0748 84.4106C81.4987 83.3288 82.9372 83.3468 84.3281 83.3644C84.9695 83.3723 85.7504 83.3824 86.131 83.242C86.194 83.1683 86.2857 83.1429 86.4193 83.1064C86.6921 83.0325 86.9788 83.1664 87.0954 83.4241C87.1351 83.5109 87.151 83.6031 87.1464 83.6932C87.1436 83.863 87.1452 85.4317 87.1471 86.4654C87.1471 88.0752 85.838 89.3841 84.2293 89.3841Z" fill="#674EA0"/>
</g>
<defs>
<clipPath id="clip0_164_6862">
<rect width="120" height="120" fill="white"/>
</clipPath>
</defs>
</svg>
