<svg width="24" height="24" viewBox="0 0 24 24" fill="none" xmlns="http://www.w3.org/2000/svg">
<path d="M16.0917 1.15137H7.51862C6.80476 1.15137 6.22606 1.73006 6.22606 2.44392V21.0345C6.22606 21.7483 6.80476 22.327 7.51861 22.327H15.8876C16.5959 22.327 17.1723 21.757 17.1801 21.0487L17.3842 2.45811C17.3921 1.73875 16.8111 1.15137 16.0917 1.15137Z" fill="#37466E"/>
<path d="M7.48911 1.4963C6.94088 1.4963 6.49634 1.94065 6.49634 2.48889V21.3498C6.49634 21.8981 6.94088 22.3424 7.48911 22.3424H15.9269C16.4751 22.3424 16.9197 21.8981 16.9197 21.3498V2.48889C16.9197 1.94065 16.4751 1.4963 15.9269 1.4963H7.48911ZM7.48911 1H15.9269C16.7494 1 17.416 1.66665 17.416 2.48893V21.3499C17.416 22.1722 16.7494 22.8388 15.9269 22.8388H7.48911C6.66665 22.8388 6 22.1722 6 21.3499V2.48893C6 1.66665 6.66665 1 7.48911 1ZM8.84075 1.47658H14.6679C14.6011 1.50947 14.4799 1.52314 14.4299 1.79579C14.3816 2.05874 14.1524 2.24968 13.8851 2.24968H9.76749C9.4803 2.24968 9.22462 2.06739 9.13098 1.79579C9.10016 1.70681 9.04676 1.47658 8.84075 1.47658Z" fill="white"/>
<path fill-rule="evenodd" clip-rule="evenodd" d="M11.6124 8.55528C11.6202 8.54922 11.6276 8.54247 11.6349 8.5352L13.0388 7.13144C13.1358 7.0345 13.1358 6.87731 13.0388 6.78037C12.9419 6.68343 12.7847 6.68343 12.6877 6.78037L11.4168 8.05136L10.8903 7.52493C10.7934 7.42799 10.6364 7.42799 10.5394 7.52493C10.4425 7.62187 10.4425 7.77905 10.5394 7.876L11.2414 8.57779C11.3383 8.67473 11.4954 8.67473 11.5923 8.57779C11.5996 8.57069 11.6061 8.56307 11.6124 8.55528L11.6124 8.55528ZM11.8317 9.68587C10.6667 9.68587 9.72217 8.74141 9.72217 7.57633C9.72217 6.41126 10.6666 5.4668 11.8317 5.4668C12.9967 5.4668 13.9411 6.41126 13.9411 7.57633C13.9411 8.74141 12.9967 9.68587 11.8317 9.68587Z" fill="white"/>
<path fill-rule="evenodd" clip-rule="evenodd" d="M7.73701 15.6418H15.6785C15.8156 15.6418 15.9267 15.779 15.9267 15.8901C15.9267 16.0272 15.8156 16.1383 15.6785 16.1383H7.73701C7.59991 16.1383 7.48877 16.0012 7.48877 15.8901C7.48877 15.753 7.59991 15.6418 7.73701 15.6418Z" fill="white"/>
<path fill-rule="evenodd" clip-rule="evenodd" d="M7.73701 16.6348H15.6785C15.8156 16.6348 15.9267 16.7719 15.9267 16.883C15.9267 17.0201 15.8156 17.1312 15.6785 17.1312H7.73701C7.59991 17.1312 7.48877 16.9941 7.48877 16.883C7.48877 16.7459 7.59991 16.6348 7.73701 16.6348Z" fill="white"/>
<path fill-rule="evenodd" clip-rule="evenodd" d="M7.73701 17.6274H15.6785C15.8156 17.6274 15.9267 17.7645 15.9267 17.8757C15.9267 18.0128 15.8156 18.1239 15.6785 18.1239H7.73701C7.59991 18.1239 7.48877 17.9868 7.48877 17.8757C7.48877 17.7386 7.59991 17.6274 7.73701 17.6274Z" fill="white"/>
<path fill-rule="evenodd" clip-rule="evenodd" d="M10.7155 14.6492H12.7009C12.838 14.6492 12.9492 14.7863 12.9492 14.8974C12.9492 15.0345 12.838 15.1457 12.7009 15.1457H10.7155C10.5784 15.1457 10.4673 15.0085 10.4673 14.8974C10.4673 14.7603 10.5784 14.6492 10.7155 14.6492Z" fill="white"/>
<path fill-rule="evenodd" clip-rule="evenodd" d="M10.3426 19.6125H13.0726C13.4151 19.6125 13.693 19.9551 13.693 20.233C13.693 20.5756 13.4151 20.8534 13.0726 20.8534H10.3426C10 20.8534 9.72217 20.5108 9.72217 20.233C9.72217 19.8904 10 19.6125 10.3426 19.6125Z" fill="white"/>
</svg>
