<svg width="20" height="20" viewBox="0 0 20 20" fill="none" xmlns="http://www.w3.org/2000/svg">
<g clip-path="url(#clip0_258_555)">
<path d="M18.8393 2.82523C17.2917 1.27761 14.7735 1.27761 13.226 2.82523L3.87038 12.1808C3.42054 12.6306 3.1728 13.2287 3.17276 13.8648C3.17276 14.501 3.4205 15.0991 3.87034 15.5489C4.7989 16.4775 6.30984 16.4775 7.2384 15.5489L14.7228 8.0644L13.6002 6.94173L6.1157 14.4261C5.80621 14.7356 5.30257 14.7358 4.993 14.4261C4.84308 14.2762 4.76046 14.0768 4.76046 13.8648C4.76046 13.6528 4.84308 13.4535 4.99304 13.3035L14.3486 3.94789C15.2773 3.01934 16.7881 3.01934 17.7167 3.94789C18.6453 4.87645 18.6453 6.38736 17.7167 7.31595L8.36102 16.6715C6.81344 18.2191 4.29534 18.2192 2.74764 16.6715C1.20006 15.1239 1.20006 12.6057 2.74764 11.0582L12.1033 1.70249L10.9806 0.579834L1.62499 9.9355C-0.541662 12.1021 -0.541662 15.6276 1.62499 17.7942C2.70831 18.8775 4.13132 19.4192 5.55437 19.4192C6.97738 19.4192 8.4004 18.8775 9.48368 17.7942L18.8393 8.43854C20.3869 6.89095 20.3869 4.37282 18.8393 2.82523Z" fill="#696E7A"/>
</g>
<defs>
<clipPath id="clip0_258_555">
<rect width="20" height="20" fill="white"/>
</clipPath>
</defs>
</svg>
