<svg width="30" height="18" viewBox="0 0 30 18" fill="none" xmlns="http://www.w3.org/2000/svg">
<path d="M28 0H2C0.895431 0 0 0.89543 0 2V16C0 17.1046 0.89543 18 2 18H28C29.1046 18 30 17.1046 30 16V2C30 0.895431 29.1046 0 28 0Z" fill="#00008B"/>
<path d="M0 0L18 9L0 0ZM18 0L0 9L18 0Z" fill="black"/>
<path d="M0 0L18 9L0 0ZM18 0L0 9L18 0Z" fill="black"/>
<path d="M8.99997 0V10.5V0ZM0 4.49999H20.9999H0Z" fill="black"/>
<path d="M8.99997 0V10.5V0ZM0 4.49999H20.9999H0Z" fill="black"/>
<path d="M23.495 14.376L23.6887 14.9783L24.2804 14.7542L23.9303 15.2812L24.4744 15.6041L23.8441 15.6589L23.9308 16.2856L23.495 15.827L23.0591 16.2856L23.1459 15.6589L22.5156 15.6041L23.0597 15.2812L22.7096 14.7542L23.3013 14.9783L23.495 14.376Z" fill="white"/>
<path d="M19.9794 8.80908L20.1731 9.41138L20.7648 9.1873L20.4146 9.71428L20.9587 10.0372L20.3284 10.092L20.4152 10.7187L19.9794 10.2601L19.5435 10.7187L19.6303 10.092L19 10.0372L19.5441 9.71428L19.194 9.1873L19.7857 9.41138L19.9794 8.80908Z" fill="white"/>
<path d="M23.495 5L23.6887 5.6023L24.2804 5.37823L23.9303 5.90521L24.4744 6.2281L23.8441 6.28293L23.9308 6.90964L23.495 6.45103L23.0591 6.90964L23.1459 6.28293L22.5156 6.2281L23.0597 5.90521L22.7096 5.37823L23.3013 5.6023L23.495 5Z" fill="white"/>
<path d="M26.621 7.87158L26.8147 8.47389L27.4064 8.24981L27.0563 8.77679L27.6004 9.09968L26.9701 9.15451L27.0569 9.78122L26.621 9.32261L26.1851 9.78122L26.2719 9.15451L25.6416 9.09968L26.1857 8.77679L25.8356 8.24981L26.4273 8.47389L26.621 7.87158Z" fill="white"/>
<path d="M24.9011 10.6924L25.0541 11.0677L25.4584 11.0973L25.1488 11.3588L25.2455 11.7524L24.9011 11.5388L24.5566 11.7524L24.6534 11.3588L24.3438 11.0973L24.748 11.0677L24.9011 10.6924Z" fill="white"/>
<mask id="mask0_240_1101" style="mask-type:alpha" maskUnits="userSpaceOnUse" x="0" y="0" width="16" height="9">
<path d="M0 2C0 0.89543 0.895431 0 2 0H16V9H0V2Z" fill="#C4C4C4"/>
</mask>
<g mask="url(#mask0_240_1101)">
<path fill-rule="evenodd" clip-rule="evenodd" d="M5.97419 3.9941L-1.42285 0.295578L-0.617103 -1.31592L7.98856 2.98691L16.5942 -1.31592L17.4 0.295578L10.0029 3.9941L17.4 7.69262L16.5942 9.30412L7.98856 5.00128L-0.617103 9.30412L-1.42285 7.69262L5.97419 3.9941Z" fill="white"/>
<path fill-rule="evenodd" clip-rule="evenodd" d="M6.64514 3.99457L-1.28906 0.0274588L-0.751897 -1.04688L7.98806 3.32311L16.728 -1.04688L17.2652 0.0274588L9.33097 3.99457L17.2652 7.96169L16.728 9.03602L7.98806 4.66603L-0.751897 9.03602L-1.28906 7.96169L6.64514 3.99457Z" fill="#FF0000"/>
<path fill-rule="evenodd" clip-rule="evenodd" d="M9.4904 5.49591V10.0002H6.48756V5.49591H-1.01953V2.49307H6.48756V-0.509766H9.4904V2.49307H20.0003V5.49591H9.4904Z" fill="white"/>
<path fill-rule="evenodd" clip-rule="evenodd" d="M8.88983 4.89534V10.0002H7.08813V4.89534H-1.01953V3.09364H7.08813V-0.509766H8.88983V3.09364H20.0003V4.89534H8.88983Z" fill="#FF0000"/>
</g>
</svg>
