<svg width="180" height="100" viewBox="0 0 180 100" fill="none" xmlns="http://www.w3.org/2000/svg">
<g filter="url(#filter0_d_1414_2047)">
<g clip-path="url(#clip0_1414_2047)">
<path d="M22 35V64.8126H31.0642C34.2169 64.8126 36.3074 64.6374 37.3252 64.2813C38.343 63.9253 39.0825 63.2622 39.548 62.2922C40.0135 61.3222 40.2396 59.8333 40.2396 57.8197V55.0522C40.2396 53.1122 39.9218 51.6796 39.2763 50.7403C38.6309 49.801 37.3962 49.1192 35.584 48.714C37.21 48.3457 38.3041 47.8202 38.8565 47.1326C39.4088 46.445 39.6838 45.2314 39.6839 43.4879C39.6838 40.9095 39.2927 39.039 38.5107 37.8787C37.7287 36.7185 36.708 35.949 35.4358 35.5683C34.1635 35.1877 32.287 35 29.817 35H22ZM29.8417 40.1026C30.6484 40.1149 31.1924 40.165 31.4717 40.2632C31.751 40.3615 31.9771 40.6054 32.1509 40.9798C32.3247 41.3543 32.4103 41.9988 32.4103 42.9319C32.4103 44.7 32.3002 45.7697 32.0892 46.1442C31.8782 46.5187 31.3892 46.7126 30.6196 46.7125C30.4335 46.7126 30.1768 46.7126 29.8417 46.7249V40.1026V40.1026ZM29.8417 51.3704C31.0084 51.4072 31.7173 51.5574 31.9904 51.8275C32.2635 52.0976 32.4103 52.8733 32.4103 54.1502V56.9301C32.4103 58.1334 32.2574 58.8965 31.9533 59.2034C31.6492 59.5104 30.9463 59.6732 29.8417 59.71V51.3704Z" fill="#BFBFBF"/>
<path d="M80.9048 35V64.8126H88.4254V54.175L90.7717 64.8126H98.0206L94.0565 50.1225L97.1068 40.3744H90.7717L88.4254 47.5156V35H80.9048Z" fill="#BFBFBF"/>
<path d="M99.3794 35V64.8126H107.221V51.3704C108.301 51.3704 108.967 51.5581 109.222 51.9387C109.476 52.3193 109.604 53.3078 109.604 54.9039V64.8126H116.878V56.9548C116.878 54.5483 116.811 53.0782 116.68 52.5441C116.55 52.01 116.226 51.4158 115.693 50.7773C115.159 50.1389 114.107 49.6383 112.556 49.2577C114.269 49.0981 115.418 48.6102 116.001 47.8121C116.585 47.0141 116.878 45.4625 116.878 43.1419C116.878 40.6004 116.469 38.7425 115.643 37.5822C114.818 36.4219 113.742 35.7025 112.432 35.4201C111.123 35.1377 108.623 35 104.924 35H99.3794ZM107.221 40.1026C108.127 40.1026 108.744 40.2527 109.086 40.5474C109.427 40.8421 109.604 41.4553 109.604 42.4006V44.0439C109.604 45.3576 109.427 46.1272 109.073 46.3666C108.72 46.606 108.102 46.7249 107.221 46.7249V40.1026Z" fill="#BFBFBF"/>
<path d="M139.662 35V64.8126H146.701L147.195 62.9717C147.828 63.733 148.519 64.3084 149.282 64.6891C150.045 65.0697 150.871 65.2574 151.752 65.2574C152.981 65.2574 154.044 64.9383 154.938 64.2937C155.832 63.6491 156.4 62.8859 156.642 62.008C156.884 61.1301 157 59.7976 157 58.005V46.9843C157 45.1795 156.957 44.0034 156.877 43.4508C156.796 42.8983 156.558 42.3353 156.16 41.7582C155.763 41.1811 155.189 40.7307 154.432 40.4115C153.674 40.0923 152.782 39.9297 151.752 39.9296C150.858 39.9297 150.033 40.111 149.27 40.4609C148.506 40.8109 147.816 41.3426 147.195 42.0547V35H139.662ZM148.282 44.2662C148.753 44.2663 149.071 44.4602 149.233 44.8469C149.394 45.2337 149.48 46.0533 149.48 47.3179V57.6096C149.48 59.0585 149.412 59.9718 149.27 60.3525C149.127 60.7331 148.815 60.9331 148.343 60.9331C147.884 60.9331 147.572 60.7455 147.417 60.3772C147.262 60.0088 147.195 59.1705 147.195 57.8567V47.3179C147.195 45.9551 147.256 45.1105 147.393 44.7728C147.529 44.4352 147.822 44.2663 148.282 44.2662Z" fill="#BFBFBF"/>
<path d="M51.0084 39.9297C48.8859 39.9297 47.1622 40.33 45.8341 41.1158C44.506 41.9016 43.6197 42.8087 43.1791 43.8339C42.7384 44.8591 42.5122 46.3167 42.5122 48.2075V49.8384H49.5759V47.2809C49.5759 45.9181 49.637 45.0735 49.7611 44.7481C49.8852 44.4228 50.2031 44.2663 50.712 44.2663C51.1588 44.2663 51.4705 44.4602 51.6629 44.847C51.8553 45.2338 51.9592 46.0658 51.9592 47.3427C51.9592 48.3618 51.8737 49.0374 51.6999 49.3689C51.5261 49.7004 50.1936 50.3386 47.7235 51.2963C45.4148 52.1803 43.9724 52.956 43.389 53.619C42.8056 54.2821 42.5122 55.5332 42.5122 57.3626V59.3641C42.5122 61.832 43.0685 63.4273 44.167 64.1578C45.2655 64.8884 46.4695 65.2574 47.7853 65.2574C48.7906 65.2574 49.6524 65.0385 50.3786 64.6026C51.1047 64.1667 51.6976 63.5099 52.1568 62.6382V64.8127H59.4798V52.5441C59.4798 48.5046 59.3453 45.8458 59.0847 44.5505C58.824 43.2551 58.0539 42.1542 56.763 41.264C55.4721 40.3739 53.5529 39.9297 51.0084 39.9297ZM51.9592 53.199V58.2274C51.9592 59.4553 51.8797 60.2122 51.737 60.5008C51.5942 60.7893 51.2948 60.9332 50.8231 60.9332C50.3266 60.9332 49.9904 60.7456 49.8229 60.3772C49.6553 60.0089 49.5759 59.1956 49.5759 57.9309C49.5759 56.8259 49.6675 55.9751 49.8599 55.3858C50.0523 54.7964 50.7552 54.0707 51.9592 53.199Z" fill="#BFBFBF"/>
<path d="M70.1982 39.9297C68.2246 39.9297 66.5499 40.3488 65.1721 41.1775C63.7944 42.0063 62.9021 42.9509 62.48 44.0068C62.058 45.0628 61.8379 46.6267 61.8379 48.7017V55.6452C61.8379 58.0272 62.1008 59.8602 62.6159 61.1556C63.131 62.4509 64.005 63.4643 65.2462 64.1825C66.4875 64.9008 68.1745 65.2574 70.297 65.2574C71.9602 65.2574 73.3538 65.0009 74.4833 64.4791C75.6128 63.9572 76.5235 63.1816 77.2248 62.1563C77.9261 61.1311 78.3417 60.1302 78.4721 59.1541C78.6024 58.178 78.6819 56.7079 78.6944 54.7557H71.9888V57.6715C71.9888 58.9361 71.8971 59.7994 71.7171 60.2537C71.5372 60.708 71.1887 60.9332 70.6798 60.9332C70.2454 60.9332 69.9277 60.7142 69.7042 60.2784C69.4808 59.8425 69.3585 59.1857 69.3585 58.3139V46.7867C69.3585 45.7185 69.4441 45.0304 69.5931 44.7234C69.742 44.4165 70.0231 44.2663 70.4575 44.2663C70.892 44.2663 71.1976 44.4353 71.359 44.7852C71.5204 45.1351 71.5936 45.8045 71.5937 46.7867V49.6037H78.6944C78.6943 47.3077 78.4621 45.531 78.0028 44.2786C77.5435 43.0263 76.6144 41.9878 75.2243 41.1652C73.8341 40.3426 72.1593 39.9297 70.1982 39.9297Z" fill="#BFBFBF"/>
<path d="M119.595 40.3745V56.8561C119.595 58.9556 119.644 60.3631 119.731 61.0691C119.818 61.7751 120.032 62.457 120.386 63.1077C120.739 63.7584 121.296 64.2715 122.04 64.6644C122.785 65.0573 123.714 65.2575 124.844 65.2575C125.837 65.2575 126.723 65.051 127.486 64.6397C128.25 64.2284 128.891 63.6091 129.413 62.7865L129.277 64.8127H136.933V40.3745H129.413V56.819C129.413 58.8204 129.358 60.0089 129.252 60.3773C129.147 60.7456 128.81 60.9332 128.252 60.9332C127.731 60.9332 127.419 60.7457 127.301 60.3896C127.183 60.0335 127.116 58.9075 127.116 57.0043V40.3745H119.595Z" fill="#BFBFBF"/>
</g>
</g>
<defs>
<filter id="filter0_d_1414_2047" x="-4" y="0" width="188" height="108" filterUnits="userSpaceOnUse" color-interpolation-filters="sRGB">
<feFlood flood-opacity="0" result="BackgroundImageFix"/>
<feColorMatrix in="SourceAlpha" type="matrix" values="0 0 0 0 0 0 0 0 0 0 0 0 0 0 0 0 0 0 127 0" result="hardAlpha"/>
<feOffset dy="4"/>
<feGaussianBlur stdDeviation="2"/>
<feComposite in2="hardAlpha" operator="out"/>
<feColorMatrix type="matrix" values="0 0 0 0 0 0 0 0 0 0 0 0 0 0 0 0 0 0 0.25 0"/>
<feBlend mode="normal" in2="BackgroundImageFix" result="effect1_dropShadow_1414_2047"/>
<feBlend mode="normal" in="SourceGraphic" in2="effect1_dropShadow_1414_2047" result="shape"/>
</filter>
<clipPath id="clip0_1414_2047">
<rect width="135" height="30.2574" fill="white" transform="translate(22 35)"/>
</clipPath>
</defs>
</svg>
