<svg width="34" height="34" viewBox="0 0 34 34" fill="none" xmlns="http://www.w3.org/2000/svg">
<path fill-rule="evenodd" clip-rule="evenodd" d="M0 17C0 7.61116 7.61116 0 17 0C26.3888 0 34 7.61116 34 17C34 26.3888 26.3888 34 17 34C7.61116 34 0 26.3888 0 17Z" fill="white"/>
<g clip-path="url(#clip0_174_13178)">
<path d="M17.039 19.2887C17.039 17.9973 16.4243 17.0427 15.1542 16.6849C16.0809 16.244 16.5642 15.5759 16.5642 14.5368C16.5642 12.4879 15.0311 11.9883 13.2624 11.9883H8.39258V22.2754H13.3988C15.2759 22.2754 17.039 21.3788 17.039 19.2887ZM10.6628 13.7444H12.7931C13.6121 13.7444 14.3492 13.9736 14.3492 14.9198C14.3492 15.7933 13.7757 16.1448 12.9644 16.1448H10.6628V13.7444ZM10.6621 20.5284V17.6954H13.1365C14.1359 17.6954 14.7681 18.1105 14.7681 19.1643C14.7681 20.2034 14.0135 20.5284 13.0896 20.5284H10.6621Z" fill="#EE445B"/>
<path d="M21.538 22.4703C23.3242 22.4703 24.481 21.6688 25.0377 19.9651H23.2249C23.0297 20.601 22.2254 20.9372 21.6016 20.9372C20.398 20.9372 19.7657 20.2349 19.7657 19.0413H25.1601C25.3307 16.6528 23.9991 14.6172 21.5373 14.6172C19.258 14.6172 17.7109 16.3237 17.7109 18.5591C17.7109 20.8792 19.1768 22.4703 21.538 22.4703ZM21.4736 16.1629C22.5052 16.1629 23.0241 16.7667 23.1109 17.7541H19.7685C19.8364 16.7751 20.4889 16.1629 21.4736 16.1629Z" fill="#EE445B"/>
<path d="M19.3496 12.5283H23.5375V13.5416H19.3496V12.5283Z" fill="#EE445B"/>
</g>
<defs>
<clipPath id="clip0_174_13178">
<rect width="16.7852" height="16.7713" fill="white" transform="translate(8.39258 8.84375)"/>
</clipPath>
</defs>
</svg>
