<svg width="72" height="72" viewBox="0 0 72 72" fill="none" xmlns="http://www.w3.org/2000/svg">
<path d="M60.4 58.3143H59.3714V27.4572C59.3714 26.8914 58.9086 26.4286 58.3429 26.4286H50.1143C49.5486 26.4286 49.0857 26.8914 49.0857 27.4572V58.3143H47.0286V33.6286C47.0286 33.0629 46.5657 32.6 46 32.6H37.7714C37.2057 32.6 36.7429 33.0629 36.7429 33.6286V58.3143H34.6857V38.7714C34.6857 38.2057 34.2229 37.7429 33.6571 37.7429H25.4286C24.8629 37.7429 24.4 38.2057 24.4 38.7714V58.3143H22.3429V47C22.3429 46.4343 21.88 45.9714 21.3143 45.9714H13.0857C12.52 45.9714 12.0571 46.4343 12.0571 47V58.3143H11.0286C10.4629 58.3143 10 58.7772 10 59.3429C10 59.9086 10.4629 60.3714 11.0286 60.3714H60.4C60.9657 60.3714 61.4286 59.9086 61.4286 59.3429C61.4286 58.7772 60.9657 58.3143 60.4 58.3143Z" fill="#66509E"/>
<path d="M11.193 41.384C11.3883 41.6926 11.7173 41.8569 12.0569 41.8569C12.2421 41.8569 12.4373 41.8055 12.6121 41.6922L53.7961 15.2168L52.2533 18.8273C52.0271 19.3415 52.2737 19.9482 52.788 20.1749C52.9218 20.2263 53.0657 20.2569 53.1995 20.2569C53.6004 20.2569 53.9813 20.0202 54.1457 19.6293L57.2314 12.4293C57.3752 12.0898 57.3238 11.7093 57.108 11.4107C56.8818 11.1126 56.5218 10.9583 56.1514 11.0098L47.9228 12.0383C47.3675 12.1103 46.9662 12.6245 47.0381 13.1803C47.11 13.746 47.6142 14.147 48.18 14.075L52.6338 13.5198L11.5012 39.9643C11.0179 40.2729 10.8845 40.9105 11.1931 41.3839L11.193 41.384Z" fill="#66509E"/>
</svg>
