<svg width="24" height="24" viewBox="0 0 24 24" fill="none" xmlns="http://www.w3.org/2000/svg">
<path d="M0.781249 23.8592L1.08839 23.808L13.5556 18.5856C13.7943 18.489 13.9688 18.2793 14.0202 18.027C14.0717 17.7747 13.9934 17.5134 13.8115 17.3311L6.54109 10.0607C6.35876 9.87872 6.09752 9.80051 5.84518 9.85194C5.59286 9.90336 5.38323 10.0778 5.28659 10.3166L0.0641936 22.7838C-0.040451 23.0232 -0.0159847 23.2995 0.129016 23.517C0.274018 23.7345 0.519732 23.8632 0.780993 23.859L0.781249 23.8592ZM2.5477 20.8385L3.03414 21.325L2.21485 21.6576L2.5477 20.8385ZM6.05485 20.0448L4.5445 20.6848L3.16219 19.3025L3.82774 17.8177L6.05485 20.0448ZM4.4677 16.2816L5.1077 14.7712L9.10125 18.7903L7.5909 19.4048L4.4677 16.2816ZM6.25965 11.9551L11.9172 17.6127L10.6372 18.1504L5.72205 13.2352L6.25965 11.9551Z" fill="white"/>
<path d="M10.3812 8.72955C10.5788 7.83972 10.5435 6.91382 10.2788 6.0415L8.81955 6.50221V6.50239C9.00901 7.14719 9.02348 7.8308 8.86151 8.4831C8.69955 9.13544 8.36707 9.73293 7.89795 10.2143L8.97315 11.2895C9.67546 10.5867 10.1637 9.69901 10.3812 8.72955L10.3812 8.72955Z" fill="white"/>
<path d="M7.74459 4.81285L8.30779 6.70729L9.74134 5.35049L11.6613 5.8112L11.2006 3.8912L12.5829 2.45765L10.6629 1.89445L10.0997 0L8.66619 1.3568L6.74619 0.896091L7.2069 2.81609L5.8501 4.24965L7.74459 4.81285ZM8.81979 2.96965L9.12693 3.04643L9.35729 2.84161L9.43408 3.12322L9.71569 3.2L9.51087 3.43036L9.58765 3.73751L9.28051 3.66072L9.05015 3.86555L8.97336 3.58394L8.69175 3.50715L8.89658 3.27679L8.81979 2.96965Z" fill="white"/>
<path d="M17.8311 13.5939C16.9564 13.3389 16.0309 13.3123 15.143 13.5171C14.1735 13.7348 13.2859 14.223 12.583 14.9251L13.6582 16.0003C14.157 15.5016 14.7875 15.1553 15.4759 15.0019C16.1013 14.8571 16.7534 14.8748 17.3702 15.0532L17.8311 13.5939Z" fill="white"/>
<path d="M21.4147 11.2896L19.9811 12.6464L18.0611 12.1856L18.5218 14.1056L17.165 15.5392L19.0595 16.1024L19.6227 17.9968L21.0562 16.64L22.9762 17.1008L22.5155 15.1808L23.8723 13.7472L21.9779 13.2095L21.4147 11.2896ZM20.9027 15.0272L20.5956 14.9505L20.3652 15.1553L20.2884 14.8737L20.0068 14.7969L20.2117 14.5665L20.1347 14.2847L20.4418 14.3615L20.6722 14.1567L20.749 14.4383L21.0306 14.5151L20.8258 14.7455L20.9027 15.0272Z" fill="white"/>
<path d="M17.5751 6.29777L17.0119 4.40332L15.5783 5.76012L13.6583 5.29941L14.119 7.21941L12.7622 8.65297L14.6567 9.21617L15.2199 11.1106L16.6534 9.75381L18.5734 10.2145L18.1127 8.29452L19.4695 6.86097L17.5751 6.29777ZM16.4999 8.14097L16.1927 8.06418L15.9623 8.269L15.8856 7.98739L15.604 7.91061L15.8088 7.68025L15.732 7.3731L16.0391 7.44989L16.2695 7.24507L16.3463 7.52668L16.6279 7.60346L16.4231 7.83382L16.4999 8.14097Z" fill="white"/>
<path d="M10.3823 12.3909L13.2425 9.53076L14.3286 10.6168L11.4684 13.477L10.3823 12.3909Z" fill="white"/>
</svg>
