<svg width="52" height="50" viewBox="0 0 52 50" fill="none" xmlns="http://www.w3.org/2000/svg">
<path d="M50.4 47.3143H49.3714V16.4572C49.3714 15.8914 48.9086 15.4286 48.3429 15.4286H40.1143C39.5486 15.4286 39.0857 15.8914 39.0857 16.4572V47.3143H37.0286V22.6286C37.0286 22.0629 36.5657 21.6 36 21.6H27.7714C27.2057 21.6 26.7429 22.0629 26.7429 22.6286V47.3143H24.6857V27.7714C24.6857 27.2057 24.2229 26.7429 23.6571 26.7429H15.4286C14.8629 26.7429 14.4 27.2057 14.4 27.7714V47.3143H12.3429V36C12.3429 35.4343 11.88 34.9714 11.3143 34.9714H3.08571C2.52 34.9714 2.05714 35.4343 2.05714 36V47.3143H1.02857C0.462857 47.3143 0 47.7772 0 48.3429C0 48.9086 0.462857 49.3714 1.02857 49.3714H50.4C50.9657 49.3714 51.4286 48.9086 51.4286 48.3429C51.4286 47.7772 50.9657 47.3143 50.4 47.3143Z" fill="#66509E"/>
<path d="M1.19301 30.384C1.38828 30.6926 1.71735 30.8569 2.05685 30.8569C2.24208 30.8569 2.43734 30.8055 2.61211 30.6922L43.7961 4.21677L42.2533 7.82726C42.0271 8.34155 42.2737 8.9482 42.788 9.1749C42.9218 9.22633 43.0657 9.25686 43.1995 9.25686C43.6004 9.25686 43.9813 9.02021 44.1457 8.62927L47.2314 1.42927C47.3752 1.08976 47.3238 0.709268 47.108 0.410745C46.8818 0.112624 46.5218 -0.0416613 46.1514 0.00976726L37.9228 1.03834C37.3675 1.11026 36.9662 1.62454 37.0381 2.18026C37.11 2.74597 37.6142 3.14695 38.18 3.07503L42.6338 2.51977L1.50124 28.9643C1.01789 29.2729 0.884495 29.9105 1.19307 30.3839L1.19301 30.384Z" fill="#66509E"/>
</svg>
