<svg width="17" height="25" viewBox="0 0 17 25" fill="none" xmlns="http://www.w3.org/2000/svg">
<path d="M16.8934 20.1322L12.7137 14.2675H13.6173C13.8271 14.2675 14.0191 14.1503 14.115 13.9639C14.2111 13.7775 14.1948 13.5532 14.0732 13.3825L10.7486 8.71734H11.5068C11.7166 8.71734 11.9086 8.60019 12.0045 8.41377C12.1005 8.22734 12.0843 8.00305 11.9627 7.83233L10.2362 5.41002C10.2418 5.40627 10.2478 5.40359 10.2532 5.39966C10.3764 5.3102 10.438 5.15859 10.4123 5.00841L10.1577 3.52393L11.2361 2.4725C11.3452 2.36625 11.3845 2.20715 11.3373 2.0625C11.2904 1.91768 11.165 1.81232 11.0143 1.79018L9.5239 1.57357L8.8573 0.223035C8.79015 0.0864274 8.65105 0 8.49872 0C8.3464 0 8.2073 0.0864274 8.13997 0.223035L7.47318 1.57357L5.98281 1.79018C5.83209 1.81214 5.70691 1.9175 5.65995 2.0625C5.61299 2.20732 5.65209 2.36625 5.76102 2.4725L6.8396 3.52393L6.58496 5.00841C6.55925 5.15841 6.62103 5.3102 6.74425 5.39966C6.7496 5.40359 6.75603 5.4052 6.76193 5.40895L5.03479 7.83235C4.91301 8.00307 4.89712 8.22753 4.99301 8.41379C5.08908 8.60022 5.28122 8.71736 5.4907 8.71736H6.24892L2.92412 13.3825C2.80233 13.5532 2.78644 13.7777 2.88233 13.9639C2.9784 14.1504 3.17055 14.2675 3.38002 14.2675H4.28361L0.103954 20.1322C-0.0178338 20.3029 -0.0337242 20.5274 0.0621679 20.7138C0.158241 20.9001 0.350382 21.0172 0.559859 21.0172H6.42592V23.5363C6.42592 23.8456 6.67663 24.0963 6.98592 24.0963H10.0113C10.3206 24.0963 10.5713 23.8456 10.5713 23.5363V21.0172H16.4373C16.6472 21.0172 16.8391 20.9001 16.935 20.7138C17.0316 20.5274 17.0154 20.3029 16.8938 20.1322L16.8934 20.1322ZM7.51053 4.34429L7.66357 3.45144C7.68589 3.32163 7.64285 3.18912 7.54857 3.09734L6.89984 2.46483L7.79643 2.33465C7.92661 2.31555 8.03929 2.23394 8.0975 2.11572L8.49857 1.30338L8.89946 2.11586C8.95767 2.2339 9.07035 2.31568 9.20071 2.33479L10.0973 2.46497L9.44857 3.09747C9.35429 3.18926 9.31125 3.32176 9.33357 3.45158L9.48661 4.34461L8.68446 3.923C8.62625 3.89247 8.56214 3.87711 8.49839 3.87711C8.43446 3.87711 8.37053 3.89247 8.31214 3.923L7.51053 4.34429ZM8.49855 4.90127L10.4198 7.597H9.66157C9.45175 7.597 9.25978 7.71414 9.16388 7.90057C9.0678 8.087 9.08405 8.31129 9.20566 8.48201L11.3787 11.5309C9.82317 11.1379 8.43547 10.1941 7.49869 8.89326L7.79191 8.48183C7.91369 8.31111 7.92958 8.08665 7.83369 7.90039C7.73762 7.71396 7.54548 7.59682 7.336 7.59682H6.57778L8.49855 4.90127ZM5.8682 13.4508C5.77212 13.2643 5.57998 13.1472 5.3705 13.1472H4.46692L7.01174 9.57631C8.10637 10.9863 9.68639 11.9906 11.4387 12.3679L12.073 12.5045L12.5307 13.1468H11.6271C11.4173 13.1468 11.2253 13.264 11.1294 13.4504C11.0787 13.5488 11.0601 13.6575 11.071 13.7636C9.12674 16.1783 6.3917 17.7893 3.32473 18.3116L2.70082 18.4179L5.82672 14.0317C5.94815 13.8615 5.96404 13.637 5.86815 13.4508L5.8682 13.4508ZM9.45124 22.9758H7.54587V21.0167H9.45124V22.9758ZM10.0112 19.8967H1.64644L2.04161 19.3421L3.45839 19.1006C6.61931 18.5622 9.45016 16.9369 11.5036 14.4995L15.3503 19.8965H10.0113L10.0112 19.8967Z" fill="white"/>
</svg>
