<svg width="60" height="60" viewBox="0 0 60 60" fill="none" xmlns="http://www.w3.org/2000/svg">
<g clip-path="url(#clip0_258_43)">
<path d="M11.25 15.625V4.375C11.25 3.725 11.325 3.1 11.5 2.5H4.375C1.975 2.5 0 4.475 0 6.875V18.125C0 20.525 1.975 22.5 4.375 22.5H5.3L8.5 26.75C8.85 27.2 9.375 27.475 9.925 27.5H10C10.55 27.5 11.05 27.275 11.4 26.85L15.15 22.575C12.825 21.125 11.25 18.55 11.25 15.625Z" fill="#4768B1"/>
<path d="M55.6256 2.5H48.5006C48.6756 3.1 48.7506 3.725 48.7506 4.375V15.625C48.7506 18.55 47.1756 21.125 44.8506 22.575L48.6006 26.85C48.9506 27.275 49.4506 27.5 50.0006 27.5H50.0756C50.6256 27.475 51.1506 27.2 51.5006 26.75L54.6756 22.5H55.6256C58.0256 22.5 60.0006 20.525 60.0006 18.125V6.875C60.0006 4.475 58.0256 2.5 55.6256 2.5Z" fill="#4768B1"/>
<path d="M30 25C29.9775 25 29.9525 25 29.93 25C29.365 24.9775 28.84 24.7025 28.5 24.25L25.3125 20H19.375C16.9625 20 15 18.0375 15 15.625V4.375C15 1.9625 16.9625 0 19.375 0H40.625C43.0375 0 45 1.9625 45 4.375V15.625C45 18.0375 43.0375 20 40.625 20H35.225L31.41 24.36C31.055 24.7675 30.54 25 30 25Z" fill="#4768B1"/>
<path d="M10 42.5C12.7614 42.5 15 40.2614 15 37.5C15 34.7386 12.7614 32.5 10 32.5C7.23858 32.5 5 34.7386 5 37.5C5 40.2614 7.23858 42.5 10 42.5Z" fill="#4768B1"/>
<path d="M16.675 46C14.15 47.9 12.5 50.95 12.5 54.375V55H1.875C0.85 55 0 54.15 0 53.125V51.875C0 48.075 3.075 45 6.875 45H13.125C14.425 45 15.65 45.375 16.675 46Z" fill="#4768B1"/>
<path d="M50 42.5C52.7614 42.5 55 40.2614 55 37.5C55 34.7386 52.7614 32.5 50 32.5C47.2386 32.5 45 34.7386 45 37.5C45 40.2614 47.2386 42.5 50 42.5Z" fill="#4768B1"/>
<path d="M60.0002 51.875V53.125C60.0002 54.15 59.1502 55 58.1252 55H47.5002V54.375C47.5002 50.95 45.8502 47.9 43.3252 46C44.3502 45.375 45.5752 45 46.8752 45H53.1252C56.9252 45 60.0002 48.075 60.0002 51.875Z" fill="#4768B1"/>
<path d="M30 43.75C34.1421 43.75 37.5 40.3921 37.5 36.25C37.5 32.1079 34.1421 28.75 30 28.75C25.8579 28.75 22.5 32.1079 22.5 36.25C22.5 40.3921 25.8579 43.75 30 43.75Z" fill="#4768B1"/>
<path d="M36.875 47.5H23.125C19.3325 47.5 16.25 50.5825 16.25 54.375V58.125C16.25 59.16 17.09 60 18.125 60H41.875C42.91 60 43.75 59.16 43.75 58.125V54.375C43.75 50.5825 40.6675 47.5 36.875 47.5Z" fill="#4768B1"/>
</g>
<defs>
<clipPath id="clip0_258_43">
<rect width="60" height="60" fill="white"/>
</clipPath>
</defs>
</svg>
