<svg width="72" height="72" viewBox="0 0 72 72" fill="none" xmlns="http://www.w3.org/2000/svg">
<path d="M9.38209 11H63.02C63.7834 11 64.4025 11.6183 64.4025 12.3818V51.8769C64.4025 52.6403 63.7834 53.2594 63.02 53.2594H43.9267L47.0453 58.9945H50.7144C52.5321 58.9945 52.5321 61.7592 50.7144 61.7592H23.8502C22.0317 61.7592 22.0317 58.9945 23.8502 58.9945H27.5193L30.6379 53.2594H9.3825C8.61911 53.2594 8 52.6402 8 51.8769V12.3818C8 11.6184 8.61874 11 9.38209 11ZM40.5602 38.7879C42.0712 39.7887 40.5485 42.089 39.0378 41.0881L35.5197 38.7633C34.8604 38.3892 34.627 37.5511 34.991 36.8925L36.8918 33.0876C37.7014 31.4616 40.1744 32.6923 39.3648 34.3192L38.566 35.9195C45.989 34.2513 48.194 25.6406 41.5405 21.6224C39.9871 20.6854 41.4127 18.3209 42.9655 19.2571C51.2885 24.2854 49.4102 35.6309 39.9791 38.4049L40.5602 38.7879ZM35.5952 23.0939C34.7856 24.72 32.3127 23.4893 33.1222 21.8624L33.8374 20.4317C26.4136 22.0999 24.2091 30.7086 30.8622 34.7288C32.4155 35.665 30.9899 38.0303 29.4371 37.0937C20.92 31.9477 23.1596 20.4792 32.6619 17.879L31.927 17.3932C30.4159 16.3924 31.9387 14.0921 33.4494 15.093L36.9835 17.4286C37.6058 17.7918 37.8481 18.5817 37.5223 19.2362C36.8794 20.5215 36.2373 21.8078 35.5952 23.0939ZM57.3629 43.4159C59.1814 43.4159 59.1814 46.1806 57.3629 46.1806H15.0392C13.2215 46.1806 13.2215 43.4159 15.0392 43.4159H57.3629ZM61.6378 13.7633H10.7647V50.4935H61.6378V13.7633Z" fill="#66509E"/>
</svg>
