<svg width="72" height="72" viewBox="0 0 72 72" fill="none" xmlns="http://www.w3.org/2000/svg">
<path d="M29.0249 25.0698C30.6741 25.208 32.2117 26.7896 33.1957 28.189C34.6947 30.3204 35.1803 33.8459 35.416 37.4862C35.5367 39.3416 34.068 40.9151 32.2087 40.9151L20.5264 40.9147C18.6625 40.9147 17.1942 39.3335 17.32 37.4739C17.5724 33.733 18.0974 30.1283 19.6829 27.9802C20.5906 26.7507 21.9643 25.3702 23.4313 25.0977L29.0249 25.0698Z" fill="white"/>
<path d="M32.1929 41.7989C32.1925 41.7989 20.5102 41.7985 20.5102 41.7985C19.3765 41.7985 18.2826 41.3231 17.5087 40.495C16.7314 39.6633 16.3296 38.5347 16.4062 37.3976C16.6463 33.8425 17.1357 29.8779 18.9428 27.43C19.7205 26.3772 21.3137 24.5573 23.2508 24.197C23.7385 24.1067 24.2087 24.4289 24.2993 24.9175C24.3901 25.4056 24.0675 25.8753 23.579 25.9661C22.6078 26.1466 21.4454 27.0698 20.39 28.4987C18.8495 30.5859 18.4109 34.4157 18.2014 37.5186C18.1578 38.1698 18.378 38.7906 18.823 39.2667C19.2645 39.739 19.8638 39.9996 20.5102 39.9996L32.1925 40C32.8385 40 33.4374 39.7398 33.8794 39.2688C34.323 38.7948 34.5442 38.1771 34.5022 37.5285C34.3054 34.4966 33.8939 30.752 32.4436 28.6903C31.2992 27.063 29.9871 26.0388 28.9335 25.9507C28.4385 25.9087 28.0706 25.4741 28.1121 24.9787C28.154 24.4837 28.5907 24.1174 29.084 24.1573C31.2766 24.3412 33.0519 26.4281 33.9157 27.6555C35.6133 30.07 36.0727 33.9422 36.2978 37.4122C36.3713 38.5458 35.9679 39.671 35.1919 40.4992C34.4175 41.3249 33.3244 41.7989 32.1929 41.7989Z" fill="#674EA0"/>
<path d="M31.1139 20.9509C31.1139 23.7316 28.9363 25.9858 26.2505 25.9858C23.5644 25.9858 21.3867 23.7316 21.3867 20.9509C21.3867 18.1701 23.5644 15.9155 26.2505 15.9155C28.9363 15.9155 31.1139 18.1701 31.1139 20.9509Z" fill="white"/>
<path d="M26.2351 16.799C24.0495 16.799 22.2715 18.654 22.2715 20.9347C22.2715 23.2149 24.0495 25.0703 26.2351 25.0703C28.4209 25.0703 30.1992 23.2149 30.1992 20.9347C30.1992 18.654 28.4209 16.799 26.2351 16.799ZM26.2351 26.8697C23.0569 26.8697 20.4717 24.2069 20.4717 20.9347C20.4717 17.6619 23.0569 15 26.2351 15C29.4129 15 31.9981 17.6619 31.9981 20.9347C31.9981 24.2069 29.4129 26.8697 26.2351 26.8697Z" fill="#674EA0"/>
<path d="M48.2496 25.0698C49.8993 25.208 51.4364 26.7896 52.4208 28.189C53.9194 30.3204 54.405 33.8459 54.6411 37.4862C54.7618 39.3416 53.2927 40.9151 51.4335 40.9151L39.7511 40.9147C37.8872 40.9147 36.4193 39.3335 36.5451 37.4739C36.7976 33.733 37.3221 30.1283 38.9076 27.9802C39.8154 26.7507 41.1895 25.3702 42.656 25.0977L48.2496 25.0698Z" fill="white"/>
<path d="M51.4631 41.7989C51.4627 41.7989 39.7803 41.7985 39.7803 41.7985C38.6467 41.7985 37.5532 41.3231 36.7784 40.495C36.0015 39.6633 35.5998 38.5347 35.6768 37.3976C35.9168 33.8425 36.4058 29.8784 38.2133 27.43C38.9907 26.3772 40.5838 24.5573 42.5209 24.197C43.0094 24.1067 43.4788 24.4289 43.5695 24.9175C43.6602 25.4056 43.338 25.8753 42.8499 25.9661C41.878 26.1466 40.7156 27.0698 39.661 28.4987C38.1196 30.5869 37.6816 34.4157 37.4715 37.5186C37.4278 38.1698 37.6482 38.7906 38.0927 39.2667C38.535 39.739 39.134 39.9996 39.7808 39.9996L51.4627 40C52.109 40 52.708 39.7398 53.1495 39.2688C53.5936 38.7948 53.8147 38.1771 53.7728 37.5285C53.576 34.4966 53.164 30.7524 51.7137 28.6903C50.5698 27.063 49.2572 26.0388 48.204 25.9507C47.7086 25.9087 47.3411 25.4741 47.3822 24.9787C47.4241 24.4837 47.8592 24.1174 48.3542 24.1573C50.5471 24.3412 52.3226 26.4281 53.1858 27.6555C54.8843 30.07 55.3428 33.9422 55.5679 37.4122C55.6415 38.5454 55.2389 39.6706 54.4624 40.4992C53.6881 41.3249 52.5951 41.7989 51.4631 41.7989Z" fill="#674EA0"/>
<path d="M50.3379 20.9509C50.3379 23.7316 48.1604 25.9858 45.4741 25.9858C42.7884 25.9858 40.6108 23.7316 40.6108 20.9509C40.6108 18.1701 42.7884 15.9155 45.4741 15.9155C48.1604 15.9155 50.3379 18.1701 50.3379 20.9509Z" fill="white"/>
<path d="M45.4588 16.799C43.2732 16.799 41.4952 18.654 41.4952 20.9347C41.4952 23.2149 43.2732 25.0703 45.4588 25.0703C47.645 25.0703 49.423 23.2149 49.423 20.9347C49.423 18.654 47.645 16.799 45.4588 16.799ZM45.4588 26.8697C42.2816 26.8697 39.6958 24.2069 39.6958 20.9347C39.6958 17.6619 42.2816 15 45.4588 15C48.6367 15 51.222 17.6619 51.222 20.9347C51.222 24.2069 48.6367 26.8697 45.4588 26.8697Z" fill="#674EA0"/>
<path d="M9.84851 51.3528C7.5679 51.3528 5.77109 49.4173 5.92469 47.1418C6.23395 42.5634 6.87567 38.1514 8.81663 35.5229C10.0569 33.8424 12.0094 31.9309 14.0368 31.936C15.6993 31.9399 17.68 31.9459 19.9706 31.9489C22.0938 31.9514 24.0946 33.987 25.3541 35.7778C27.1886 38.3866 27.7824 42.7015 28.072 47.1567C28.2192 49.4276 26.4215 51.3536 24.1464 51.3532L9.84851 51.3528Z" fill="#66509E"/>
<path d="M14.0129 32.8195C12.691 32.8195 11.0132 34.0233 9.52349 36.0413C7.60645 38.6382 7.06402 43.3616 6.80559 47.1862C6.74789 48.0397 7.03753 48.8529 7.6198 49.4763C8.1994 50.0957 8.98486 50.4371 9.83244 50.4371L24.1298 50.4375C24.9765 50.4375 25.7619 50.0975 26.3412 49.4793C26.9226 48.8589 27.2126 48.0491 27.1575 47.1995C26.9148 43.4621 26.4054 38.8439 24.6021 36.2796C23.0851 34.123 21.3474 32.8344 19.9527 32.8327C18.2445 32.8306 16.7086 32.8267 15.3485 32.8229L14.0181 32.8195C14.0163 32.8195 14.0147 32.8195 14.0129 32.8195ZM24.1298 52.2369L9.83244 52.2361C8.48093 52.2361 7.22871 51.6923 6.30546 50.705C5.39217 49.7278 4.92069 48.4012 5.01094 47.0652C5.30274 42.7434 5.89528 37.927 8.07619 34.9727C9.16629 33.4958 11.3866 31.0205 14.0125 31.0205C14.0224 31.0205 15.3528 31.0239 15.3528 31.0239C16.7125 31.0273 18.2475 31.0316 19.9552 31.0337C22.704 31.0367 24.9683 33.6733 26.0734 35.2447C28.1226 38.159 28.6792 42.8644 28.9525 47.0826C29.0394 48.4148 28.5659 49.7364 27.6537 50.7096C26.7305 51.6949 25.4791 52.2369 24.1298 52.2369Z" fill="#674EA0"/>
<path d="M22.8095 26.9302C22.8095 30.3334 20.1451 33.0923 16.8574 33.0923C13.5701 33.0923 10.9053 30.3334 10.9053 26.9302C10.9053 23.5266 13.5701 20.7676 16.8574 20.7676C20.1451 20.7676 22.8095 23.5266 22.8095 26.9302Z" fill="white"/>
<path d="M16.8416 21.6514C14.0557 21.6514 11.7887 24.0121 11.7887 26.9144C11.7887 29.8162 14.0557 32.1773 16.8416 32.1773C19.6279 32.1773 21.8945 29.8162 21.8945 26.9144C21.8945 24.0121 19.6279 21.6514 16.8416 21.6514ZM16.8416 33.9763C13.0636 33.9763 9.98975 30.8079 9.98975 26.9144C9.98975 23.02 13.0636 19.8521 16.8416 19.8521C20.62 19.8521 23.6938 23.02 23.6938 26.9144C23.6938 30.8079 20.62 33.9763 16.8416 33.9763Z" fill="#674EA0"/>
<path d="M47.8398 51.3528C45.5587 51.3528 43.7623 49.4173 43.9159 47.1418C44.2252 42.5634 44.8669 38.1514 46.8074 35.5229C48.0481 33.8424 50.0006 31.9309 52.028 31.936C53.6905 31.9399 55.6708 31.9459 57.9614 31.9489C60.0846 31.9514 62.0854 33.987 63.3453 35.7778C65.1794 38.3866 65.7736 42.7015 66.0628 47.1567C66.21 49.4276 64.4127 51.3536 62.1372 51.3532L47.8398 51.3528Z" fill="#66509E"/>
<path d="M52.05 32.8195C50.7276 32.8195 49.0502 34.0233 47.5601 36.0413C45.6435 38.6382 45.1006 43.3616 44.8426 47.1862C44.7849 48.0397 45.0741 48.8529 45.6568 49.4767C46.236 50.0957 47.022 50.4371 47.8691 50.4371L62.1669 50.4375C63.0131 50.4375 63.7981 50.0975 64.3778 49.4793C64.9593 48.8589 65.2492 48.0491 65.1941 47.1995C64.952 43.4621 64.442 38.8439 62.6387 36.2796C61.1222 34.123 59.384 32.8344 57.9897 32.8327C56.2811 32.8306 54.7452 32.8267 53.3852 32.8229L52.0547 32.8195C52.0529 32.8195 52.0513 32.8195 52.05 32.8195ZM62.1669 52.2369L47.8691 52.2361C46.518 52.2361 45.2653 51.6923 44.343 50.705C43.4292 49.7283 42.9573 48.4012 43.0476 47.0652C43.3394 42.7434 43.9319 37.927 46.1132 34.9727C47.2029 33.4958 49.4232 31.0205 52.0491 31.0205C52.0594 31.0205 53.3899 31.0239 53.3899 31.0239C54.7495 31.0273 56.2845 31.0316 57.9919 31.0337C60.741 31.0367 63.0054 33.6733 64.1104 35.2447C66.1596 38.159 66.7158 42.8644 66.9896 47.0826C67.0764 48.4148 66.6025 49.7364 65.6903 50.7096C64.7676 51.6949 63.5158 52.2369 62.1669 52.2369Z" fill="#674EA0"/>
<path d="M60.7998 26.9302C60.7998 30.3334 58.1349 33.0923 54.8477 33.0923C51.5599 33.0923 48.8955 30.3334 48.8955 26.9302C48.8955 23.5266 51.5599 20.7676 54.8477 20.7676C58.1349 20.7676 60.7998 23.5266 60.7998 26.9302Z" fill="white"/>
<path d="M54.8319 21.6514C52.0455 21.6514 49.7789 24.0121 49.7789 26.9144C49.7789 29.8162 52.0455 32.1773 54.8319 32.1773C57.6178 32.1773 59.8843 29.8162 59.8843 26.9144C59.8843 24.0121 57.6178 21.6514 54.8319 21.6514ZM54.8319 33.9763C51.0539 33.9763 47.98 30.8079 47.98 26.9144C47.98 23.02 51.0539 19.8521 54.8319 19.8521C58.6098 19.8521 61.6837 23.02 61.6837 26.9144C61.6837 30.8079 58.6098 33.9763 54.8319 33.9763Z" fill="#674EA0"/>
<path d="M28.4493 55.7339C26.1048 55.7339 24.2588 53.7454 24.4166 51.4065C24.7341 46.7019 25.3938 42.168 27.3883 39.4668C28.6632 37.7397 30.6691 35.7756 32.7526 35.7808C34.4613 35.7846 36.4964 35.791 38.8506 35.7944C41.0325 35.797 43.088 37.8882 44.3831 39.729C46.268 42.4097 46.8785 46.844 47.1754 51.4223C47.3273 53.7556 45.4799 55.7347 43.1415 55.7347L28.4493 55.7339Z" fill="white"/>
<path d="M28.4333 54.9101L43.1256 54.911C44.0026 54.911 44.8163 54.5581 45.4162 53.9176C46.0184 53.275 46.3188 52.4361 46.2619 51.5561C46.0129 47.7126 45.488 42.9626 43.6308 40.3222C42.068 38.0993 40.2743 36.7709 38.8334 36.7692C37.052 36.7666 35.4528 36.7632 34.0398 36.7594L32.7345 36.7559C31.363 36.7559 29.6316 37.9966 28.0962 40.0766C26.1218 42.7505 25.564 47.6086 25.2983 51.5428C25.2384 52.4266 25.5383 53.269 26.1416 53.9146C26.7417 54.5563 27.5555 54.9101 28.4333 54.9101ZM43.1256 56.7099L28.4333 56.7091C27.0515 56.7091 25.771 56.1529 24.8273 55.1432C23.8934 54.1443 23.4108 52.7882 23.5028 51.4213C23.8026 46.9841 24.4106 42.0389 26.6485 39.0079C27.766 37.4944 30.0414 34.9565 32.7285 34.9565C32.7392 34.9565 34.0444 34.96 34.0444 34.96C35.4571 34.9638 37.0549 34.9677 38.8355 34.9698C41.6496 34.9737 43.9701 37.6762 45.103 39.2873C47.2057 42.2768 47.7763 47.1077 48.0575 51.4393C48.1456 52.8014 47.6612 54.1533 46.7286 55.1479C45.7849 56.1551 44.5053 56.7099 43.1256 56.7099Z" fill="#674EA0"/>
<path d="M41.722 30.6709C41.722 34.1682 38.9831 37.0037 35.6051 37.0037C32.2267 37.0037 29.4883 34.1682 29.4883 30.6709C29.4883 27.1731 32.2267 24.3379 35.6051 24.3379C38.9831 24.3379 41.722 27.1731 41.722 30.6709Z" fill="white"/>
<path d="M35.6347 25.2208C32.7577 25.2208 30.4171 27.6581 30.4171 30.6541C30.4171 33.65 32.7577 36.0868 35.6347 36.0868C38.5114 36.0868 40.8515 33.65 40.8515 30.6541C40.8515 27.6581 38.5114 25.2208 35.6347 25.2208ZM35.6347 37.8862C31.7661 37.8862 28.6182 34.6417 28.6182 30.6541C28.6182 26.6664 31.7661 23.4219 35.6347 23.4219C39.5034 23.4219 42.6508 26.6664 42.6508 30.6541C42.6508 34.6417 39.5034 37.8862 35.6347 37.8862Z" fill="#674EA0"/>
</svg>
