<svg width="180" height="100" viewBox="0 0 180 100" fill="none" xmlns="http://www.w3.org/2000/svg">
<path d="M33 58.6882H145.743V66H33V58.6882Z" fill="#BFBFBF"/>
<path d="M33.0171 54.214V35.0833H56.5301C64.1627 35.0833 69.6003 38.5722 69.6003 44.5151C69.6003 50.1742 65.2934 54.214 56.3139 54.214H33.0171ZM51.9073 49.3228C54.834 49.3228 56.5467 46.8188 56.5467 44.899C56.5467 42.9459 55.0169 40.6589 51.9905 40.6589H45.5884V49.3228H51.9073Z" fill="#BFBFBF"/>
<path d="M90.2022 39.8244L81.5719 54.2476H69.5659L80.94 35H99.4311L110.855 54.2476H85.5794L88.5892 49.2396H95.8227L90.2022 39.8244Z" fill="#BFBFBF"/>
<path d="M125.589 54.1975H113.134V35H146.092V40.5923H125.589V44.0145H145.743V49.4399H125.589V54.1975Z" fill="#BFBFBF"/>
</svg>
