<svg width="180" height="100" viewBox="0 0 180 100" fill="none" xmlns="http://www.w3.org/2000/svg">
<g clip-path="url(#clip0_1414_2041)">
<path d="M84.1167 61.2506C84.1814 61.2596 84.1955 61.2621 84.2585 61.2704C85.3122 61.4141 86.3477 61.6048 87.1402 61.9604C87.8748 62.286 88.3053 62.698 88.6985 63.4325C89.2962 64.5462 89.3352 66.1065 88.795 67.2874C88.3914 68.1661 87.5056 68.9029 86.6969 69.2934C85.8571 69.7022 85.0297 69.8968 84.0807 70.0056C82.4209 70.189 80.6284 69.8438 79.1349 69.1186C78.2513 68.6855 77.1723 67.9395 76.628 66.9785C76.2278 66.2745 76.2405 65.3584 76.7275 64.6893C77.5037 63.6228 79.1661 63.388 80.4183 63.4325C81.3729 63.4696 83.0917 63.7658 83.9981 64.0895C84.2493 64.1807 85.1758 64.543 85.3375 64.7092C85.4514 64.8248 85.5252 64.9928 85.4741 65.1481C85.267 65.784 83.7277 66.1192 83.2832 66.1865C82.0933 66.3695 81.4759 65.9174 80.1232 65.3812C79.7874 65.2492 79.3399 65.1027 78.998 65.071C78.3839 65.0123 77.6421 65.1849 77.5248 65.858C77.4666 66.2048 77.8717 66.5292 78.1807 66.6656C78.9064 66.9785 79.4963 67.091 80.2105 67.1006C82.3202 67.1355 84.6912 66.7868 86.4168 65.5594C86.6531 65.3901 86.8851 65.1424 86.8875 64.8301C86.895 64.1995 85.7937 63.8139 85.7937 63.8139C84.6313 63.3274 82.4835 63.0906 81.3771 62.9991C80.216 62.8982 78.389 62.7473 77.9504 62.6824C77.4987 62.6177 77.0082 62.5262 76.617 62.3503C76.2242 62.1721 75.8398 61.7733 75.7257 61.3322C75.5234 60.5369 75.7815 59.561 76.2215 58.9257C77.3745 57.2616 80.0754 56.6296 82.0932 56.3786C84.0462 56.1346 87.2034 56.1371 89.1216 57.1604C89.4178 57.3197 89.569 57.468 89.5072 57.7858C89.3822 58.3825 88.9355 58.767 88.394 58.9356C87.826 59.1171 86.651 59.1878 86.1349 59.2204C83.8222 59.3506 81.0276 59.2823 78.8248 59.8853C78.6523 59.9348 78.3541 60.0155 78.2573 60.1241C77.9125 60.4999 78.8973 60.6072 79.1082 60.6502C79.1709 60.6652 79.1831 60.6674 79.2485 60.6745L84.1167 61.2506ZM70.3588 50.8984C70.3588 50.8984 70.735 50.3321 71.0502 49.9024C71.6241 49.1199 72.6627 48.0348 73.4448 47.3629C73.6841 47.1577 73.9662 46.9253 73.9662 46.9253C73.9662 46.9253 73.525 46.9711 73.2749 47.0224C72.6815 47.1383 71.8114 47.7189 71.3766 48.0941C70.6592 48.7106 69.8702 49.7128 70.2272 50.6034C70.279 50.7292 70.3588 50.8984 70.3588 50.8984ZM74.3471 51.9699C75.4805 51.8914 76.5422 51.5638 77.5306 51.0134C78.4999 50.4689 79.9257 49.4071 79.7778 48.1589C79.7329 47.7549 79.4694 47.4498 79.1367 47.3075C78.7044 47.1194 78.479 47.1497 77.9267 47.3145C77.5255 47.4323 77.3448 47.5039 76.9659 47.7215C75.8541 48.37 74.2776 49.7578 73.4218 50.8654C73.2243 51.1267 73.0242 51.4188 72.8677 51.619C72.7689 51.7425 72.6922 51.8558 72.7018 51.886C72.7359 52.0116 73.9045 52.0001 74.3471 51.9699ZM71.4614 54.0977C71.3446 54.2218 71.2209 54.5211 71.0927 54.7378C71.0241 54.8538 70.8971 55.003 70.8131 55.063C70.5182 55.2807 70.2683 55.2908 69.9835 55.0392C69.5842 54.6846 69.3532 54.1362 69.3368 53.6027C69.3283 53.3699 69.3681 53.1124 69.3242 52.9161C69.2515 52.5848 68.9212 52.2434 68.7432 51.9266C68.5341 51.5535 68.3649 50.9028 68.3439 50.4826C68.2721 49.1727 68.96 47.9659 69.8535 47.0142C70.7533 46.0517 71.9306 45.2519 73.2109 44.7073C74.4212 44.1956 76.1947 43.8467 77.5237 44.3088C77.9563 44.4576 78.5591 44.8273 78.862 45.2145C78.9264 45.2949 78.9788 45.3818 79.0448 45.4243C79.1039 45.4621 79.2584 45.477 79.3814 45.4997C79.8053 45.5735 80.4156 45.8956 80.6649 46.1102C81.1658 46.544 81.4401 46.9586 81.5671 47.5603C81.8217 48.7711 81.1272 50.0994 80.3361 50.9078C78.9816 52.2992 77.6439 53.2775 75.9112 53.9585C75.1501 54.257 73.9648 54.5358 73.1013 54.4578C72.8331 54.4355 72.5577 54.3646 72.2966 54.3472C72.1633 54.3357 71.6761 54.2095 71.6241 54.1739C71.5595 54.1241 71.4761 54.0808 71.4614 54.0977ZM73.009 56.782C73.0618 56.791 73.1431 56.8147 73.213 56.8417C73.8205 57.0737 74.0704 57.6381 74.2201 58.258C74.5668 59.6975 74.7149 62.8822 74.7725 64.1288C74.8149 65.0644 74.8382 65.9849 74.8773 66.9098C74.9104 67.693 74.9726 68.7342 74.81 69.468C74.7509 69.7319 74.575 70.0388 74.3233 70.1959C74.0348 70.3813 73.3784 70.3954 73.0175 70.3207C72.1281 70.136 71.8391 69.5619 71.7122 68.6789C71.4104 66.5719 71.5557 62.4366 71.7338 60.6917C71.793 60.1153 72.0092 58.2687 72.309 57.4944C72.4114 57.2333 72.6293 56.7074 73.009 56.782ZM45.9511 60.2877C45.9511 60.2877 44.6274 60.3818 43.7163 60.4833C42.5572 60.6086 40.3792 60.9861 39.1221 61.4368C38.745 61.5723 37.979 61.8942 37.9124 62.2834C37.8424 62.6869 38.0919 63.0024 38.3693 63.3288C38.5297 63.5184 39.4376 64.3952 39.6922 64.6082C40.7594 65.5027 42.9233 66.8821 44.517 67.5519C45.0646 67.7793 45.9704 68.1049 45.9704 68.1049C45.9704 68.1049 45.9031 65.5157 45.9152 62.9653C45.9222 61.6198 45.9511 60.2877 45.9511 60.2877ZM70.2232 61.3182C70.299 62.0137 70.121 63.3289 70.0901 63.5024C70.0337 63.9022 69.7333 64.8245 69.6835 64.937C69.4411 65.4975 69.202 65.9567 68.9487 66.4148C68.5147 67.1991 67.4825 68.4423 66.8698 68.9744C64.5912 70.9515 61.0639 72.0772 58.0378 72.448C55.9844 72.6971 53.625 72.6605 51.4493 72.2564C50.7005 72.1196 49.5862 71.8618 49.5862 71.8618C49.5862 71.8618 49.5898 72.3091 49.5541 72.6236C49.5368 72.7672 49.4292 73.1449 49.3688 73.2673C49.2106 73.5954 48.9509 73.7646 48.5732 73.8374C48.1174 73.9223 47.6339 73.9507 47.2127 73.7699C46.5211 73.4778 46.2729 72.8282 46.1524 72.0791C46.0549 71.48 45.9529 70.4385 45.9529 70.4385C45.9529 70.4385 45.4355 70.1925 45.0041 69.9764C43.6791 69.321 42.4206 68.5269 41.3197 67.7102C41.0147 67.4817 39.7043 66.3799 39.415 66.1064C38.604 65.3334 37.8744 64.5644 37.3193 63.5777C36.8878 62.8068 36.7636 62.1226 37.0918 61.3058C37.5443 60.1673 39.1703 59.3102 40.2831 58.8217C41.0998 58.4597 43.6395 57.6271 44.6945 57.4728C45.1928 57.4013 45.9657 57.2623 46.0132 57.2313C46.0327 57.2164 46.0461 57.2037 46.0602 57.1876C46.0845 57.1532 46.1256 56.0262 46.1176 55.6139C46.1073 55.2086 46.4164 52.5463 46.5158 51.9834C46.5676 51.6789 46.7973 50.507 47.0317 50.1993C47.1851 49.9914 47.4563 50.0082 47.6775 50.1447C48.8875 50.9001 49.2551 53.5197 49.3451 54.8526C49.3989 55.6647 49.4257 56.8862 49.4257 56.8862C49.4257 56.8862 50.8138 56.845 51.6676 56.8693C52.4974 56.8887 53.412 57.0201 54.2732 57.1579C55.3758 57.3354 57.525 57.806 58.7576 58.4333C59.7726 58.9499 60.7226 59.8203 61.0304 60.7413C61.3164 61.5857 61.2735 62.1701 60.838 62.9321C60.3482 63.7926 59.4218 64.4322 58.4825 64.4856C58.203 64.5018 57.1509 64.3615 56.8272 64.1099C56.7003 64.0096 56.7068 63.8286 56.7984 63.7058C56.8332 63.6627 57.3249 63.4002 57.6152 63.247C57.7607 63.1676 57.8811 63.082 57.9947 62.9781C58.2359 62.7649 58.4529 62.5302 58.4287 62.2551C58.3953 61.8981 58.019 61.6778 57.6602 61.5362C55.9771 60.8649 52.6165 60.3077 50.9925 60.2113C50.3569 60.1738 49.4527 60.1417 49.4527 60.1417L49.6439 69.1442C49.6439 69.1442 50.3914 69.2872 50.9805 69.383C51.3185 69.4345 52.7507 69.5639 53.1313 69.5733C56.0291 69.6501 59.2635 69.3896 61.9229 68.1298C63.0904 67.5782 64.1616 66.8914 64.9725 65.9618C66.0413 64.7317 66.601 63.0482 66.4529 61.2898C66.2905 59.3693 64.9442 57.0896 63.8691 55.7016C61.0284 52.0342 56.1592 49.0175 51.8754 47.2489C47.502 45.4444 43.1795 44.4063 38.538 44.2325C37.3414 44.188 34.7325 44.2486 33.4136 44.6148C33.2253 44.6681 33.0354 44.7318 32.8605 44.7712C32.7223 44.8052 32.5045 44.897 32.4448 44.9455C32.4116 44.9724 32.3789 45.0097 32.3789 45.0097C32.3789 45.0097 32.4602 45.0548 32.5379 45.0878C32.6776 45.149 33.2656 45.1856 33.5699 45.2415C33.8422 45.293 34.1257 45.4365 34.2379 45.6368C34.3445 45.8272 34.3578 45.9773 34.2304 46.1361C33.9316 46.5009 32.8069 46.4394 32.3116 46.3607C31.7969 46.2783 31.1561 46.1202 31.0384 45.6704C30.9019 45.1405 31.1526 44.6211 31.4235 44.141C31.9676 43.1803 32.7471 42.6806 33.8885 42.3677C35.5098 41.9199 37.557 41.6068 39.0879 41.548C42.553 41.4166 45.8325 42.0249 49.1898 43.0482C51.1113 43.6315 53.6269 44.6102 55.4686 45.5004C56.7901 46.1401 58.8722 47.3164 60.0419 48.0851C60.4108 48.3296 62.5696 49.9219 62.9049 50.2018C63.6044 50.7759 64.5194 51.6012 65.1819 52.2612C66.4638 53.5364 68.0581 55.4911 68.8327 57.0426C69.0191 57.4141 69.1634 57.7796 69.4039 58.2102C69.4866 58.3577 69.8404 59.24 69.8993 59.4949C69.9575 59.7471 70.0429 60.1178 70.055 60.1325C70.0721 60.2679 70.2361 61.0259 70.2232 61.3182ZM113.785 59.3277C112.162 59.7033 107.895 59.9119 107.895 59.9119L107.357 61.6039C107.357 61.6039 109.49 61.4212 111.041 61.5839C111.041 61.5839 111.544 61.5252 111.603 62.1567C111.623 62.7456 111.553 63.3775 111.553 63.3775C111.553 63.3775 111.521 63.7598 110.981 63.8571C110.396 63.9549 106.385 64.1107 106.385 64.1107L105.735 66.3163C105.735 66.3163 105.494 66.8261 106.035 66.6806C106.537 66.5455 110.74 65.7538 111.288 65.8677C111.875 66.0139 112.524 66.7991 112.336 67.5147C112.112 68.4016 107.917 71.0874 105.363 70.9C105.363 70.9 104.02 70.9869 102.886 69.1681C101.829 67.4349 103.286 64.1532 103.286 64.1532C103.286 64.1532 102.618 62.6212 103.102 62.102C103.102 62.102 103.39 61.8396 104.23 61.7802L105.258 59.6448C105.258 59.6448 104.087 59.7257 103.39 58.8608C102.741 58.0402 102.687 57.6631 103.184 57.4365C103.716 57.1727 108.594 56.2791 111.95 56.3924C111.95 56.3924 113.116 56.2774 114.128 58.3085C114.128 58.3086 114.618 59.13 113.785 59.3277ZM101.162 67.5385C100.732 68.5542 99.5955 69.638 98.184 68.9643C96.7906 68.2892 94.5713 63.7291 94.5713 63.7291C94.5713 63.7291 93.7288 62.0287 93.5667 62.0725C93.5667 62.0725 93.3847 61.7404 93.273 63.5986C93.157 65.4489 93.2954 69.0567 92.5602 69.6246C91.8637 70.1941 91.0203 69.9674 90.583 69.3021C90.1854 68.6467 90.02 67.0894 90.2369 64.3542C90.4918 61.6137 91.126 58.698 91.9362 57.79C92.7453 56.8882 93.3948 57.5429 93.648 57.7804C93.648 57.7804 94.7303 58.7652 96.515 61.6568L96.83 62.1917C96.83 62.1917 98.4518 64.9236 98.6212 64.9173C98.6212 64.9173 98.7538 65.0428 98.872 64.9526C99.0422 64.9037 98.9735 64.0278 98.9735 64.0278C98.9735 64.0278 98.637 61.0505 97.1574 56.0112C97.1574 56.0112 96.9337 55.3828 97.085 54.794C97.2352 54.1989 97.8294 54.4783 97.8294 54.4783C97.8294 54.4783 100.123 55.6358 101.236 59.3839C102.341 63.1332 101.598 66.5152 101.162 67.5385ZM125.842 65.2937C124.798 67.1221 121.851 70.9507 117.935 70.0468C116.642 73.1953 115.555 76.3803 114.934 81.1462C114.934 81.1462 114.797 82.0724 114.031 81.7507C113.271 81.4837 112.019 80.2155 111.766 78.4611C111.494 76.1565 112.516 72.2606 114.605 67.7934C113.995 66.7991 113.58 65.3786 113.936 63.3559C113.936 63.3559 114.46 59.5998 118.218 56.2144C118.218 56.2144 118.668 55.8238 118.929 55.9441C119.217 56.0652 119.084 57.2874 118.856 57.8818C118.618 58.4727 116.946 61.3801 116.946 61.3801C116.946 61.3801 115.902 63.3443 116.196 64.8935C118.167 61.8518 122.646 55.718 125.423 57.6523C126.356 58.3222 126.786 59.7795 126.786 61.3498C126.787 62.7291 126.455 64.195 125.842 65.2937ZM125.032 60.4764C125.032 60.4764 124.877 59.267 123.7 60.5993C122.687 61.7236 120.86 63.8301 119.389 66.6912C120.932 66.5172 122.421 65.6767 122.871 65.2486C123.602 64.5968 125.307 62.8285 125.032 60.4764ZM147.417 60.2011H140.24C140.096 57.752 139.802 55.3663 139.339 52.9094C139.291 52.6551 139.071 52.4707 138.814 52.4707H137.16C137.016 52.4707 136.879 52.5357 136.786 52.649C136.692 52.7642 136.656 52.9108 136.683 53.0543C137.154 55.4319 137.451 57.7719 137.598 60.2034H130.693C130.371 60.2034 130.11 60.465 130.11 60.7867V62.285C130.11 62.6074 130.371 62.8708 130.693 62.8708H137.697C137.702 63.2406 137.705 63.5717 137.705 63.8824C137.705 66.0417 137.612 67.8204 137.396 69.8277C137.379 69.9829 137.429 70.1373 137.534 70.2512C137.635 70.3659 137.782 70.4313 137.934 70.4313H139.468C139.768 70.4313 140.016 70.2051 140.046 69.9057C140.256 67.8848 140.346 66.0839 140.346 63.8822C140.346 63.5727 140.342 63.2405 140.338 62.8707H147.417C147.738 62.8707 148 62.6073 148 62.2848V60.7866C148 60.4634 147.738 60.2011 147.417 60.2011Z" fill="#BFBFBF"/>
<path d="M51.4422 40.1236C51.3405 40.2754 51.316 40.4615 51.3743 40.6364C51.4353 40.811 51.5679 40.9437 51.7391 41.0039L53.0258 41.4386C53.1036 41.4631 53.1809 41.4759 53.2568 41.4759C53.4952 41.4759 53.719 41.3574 53.8516 41.1584C58.0662 34.9428 63.7701 29.7675 70.3479 26.1922C77.1386 22.5006 84.8324 20.5479 92.5999 20.5479C101.982 20.5479 111.034 23.3261 118.779 28.5818C126.335 33.7083 132.204 40.8607 135.751 49.2659C135.857 49.5175 136.101 49.6797 136.373 49.6797H137.909C138.086 49.6797 138.253 49.5902 138.353 49.4416C138.453 49.2934 138.472 49.1051 138.406 48.9384C134.749 39.901 128.565 32.197 120.52 26.6621C112.284 20.9957 102.63 18 92.5999 18C76.0185 18 60.632 26.2708 51.4422 40.1236Z" fill="#BFBFBF"/>
</g>
<defs>
<clipPath id="clip0_1414_2041">
<rect width="117" height="63.8182" fill="white" transform="translate(31 18)"/>
</clipPath>
</defs>
</svg>
