<svg width="23" height="28" viewBox="0 0 23 28" fill="none" xmlns="http://www.w3.org/2000/svg">
<path d="M5.61348 21.6007C5.61348 21.8216 5.43437 22.0007 5.21348 22.0007C4.99259 22.0007 4.81348 21.8216 4.81348 21.6007C4.81348 21.3798 4.99259 21.2007 5.21348 21.2007C5.43437 21.2007 5.61348 21.3798 5.61348 21.6007Z" fill="white" stroke="white" stroke-width="0.7"/>
<path d="M18.4138 21.6007C18.4138 21.8216 18.2347 22.0007 18.0138 22.0007C17.7929 22.0007 17.6138 21.8216 17.6138 21.6007C17.6138 21.3798 17.7929 21.2007 18.0138 21.2007C18.2347 21.2007 18.4138 21.3798 18.4138 21.6007Z" fill="white" stroke="white" stroke-width="0.7"/>
<path d="M11.6136 20.0006C12.2752 20.0006 12.8136 19.4622 12.8136 18.8006C12.8136 18.5799 12.6348 18.4006 12.4136 18.4006C12.1923 18.4006 12.0136 18.5799 12.0136 18.8006C12.0136 19.0209 11.8343 19.2006 11.6136 19.2006C11.3929 19.2006 11.2136 19.0209 11.2136 18.8006C11.2136 18.5802 11.3929 18.4006 11.6136 18.4006C11.8348 18.4006 12.0136 18.2213 12.0136 18.0006C12.0136 17.7799 11.8348 17.6006 11.6136 17.6006C10.952 17.6006 10.4136 18.139 10.4136 18.8006C10.4136 19.4622 10.952 20.0006 11.6136 20.0006Z" fill="white" stroke="white" stroke-width="0.7"/>
<path d="M11.9563 20.5945C11.8119 20.3533 11.4147 20.3533 11.2702 20.5945L10.0702 22.5945C9.99417 22.7213 9.99417 22.8793 10.0702 23.0061L11.2702 25.0061C11.3427 25.127 11.4727 25.2006 11.6135 25.2006C11.7542 25.2006 11.8842 25.127 11.9563 25.0067L13.1563 23.0067C13.2324 22.8799 13.2324 22.7218 13.1563 22.595L11.9563 20.5945ZM11.6135 24.0229L10.8799 22.8006L11.6135 21.5783L12.347 22.8006L11.6135 24.0229Z" fill="white" stroke="white" stroke-width="0.7"/>
<path d="M8.01348 19.2007C7.35185 19.2007 6.81348 19.7391 6.81348 20.4007C6.81348 21.0623 7.35185 21.6007 8.01348 21.6007C8.6751 21.6007 9.21348 21.0623 9.21348 20.4007C9.21348 19.7391 8.6751 19.2007 8.01348 19.2007ZM8.01348 20.8007C7.79276 20.8007 7.61348 20.621 7.61348 20.4007C7.61348 20.1803 7.79276 20.0007 8.01348 20.0007C8.23419 20.0007 8.41348 20.1803 8.41348 20.4007C8.41348 20.621 8.23419 20.8007 8.01348 20.8007Z" fill="white" stroke="white" stroke-width="0.7"/>
<path d="M15.2137 19.2007C14.552 19.2007 14.0137 19.7391 14.0137 20.4007C14.0137 21.0623 14.552 21.6007 15.2137 21.6007C15.8753 21.6007 16.4137 21.0623 16.4137 20.4007C16.4137 19.7391 15.8753 19.2007 15.2137 19.2007ZM15.2137 20.8007C14.993 20.8007 14.8137 20.621 14.8137 20.4007C14.8137 20.1803 14.993 20.0007 15.2137 20.0007C15.4344 20.0007 15.6137 20.1803 15.6137 20.4007C15.6137 20.621 15.4344 20.8007 15.2137 20.8007Z" fill="white" stroke="white" stroke-width="0.7"/>
<path d="M10.5451 10.559C10.9822 10.9177 11.527 11.1042 12.0651 11.1042C12.4167 11.1042 12.7654 11.0245 13.0787 10.8613C15.4999 9.60133 15.2251 5.35273 15.2122 5.17216C15.199 4.9818 15.053 4.82769 14.8635 4.80377C14.6771 4.78055 14.4942 4.89305 14.4342 5.07413C14.3249 5.40216 14.1855 5.6141 14.0526 5.75093C13.9394 3.72377 12.0094 1.44734 11.9171 1.34023C11.8383 1.24844 11.7206 1.19398 11.6006 1.20076C11.479 1.20469 11.3663 1.26362 11.2935 1.36076C11.1922 1.49558 8.81348 4.69631 8.81348 7.20076C8.81348 8.80076 9.7551 9.91039 10.5451 10.5592L10.5451 10.559ZM12.709 10.1513C12.1961 10.4181 11.5313 10.3336 11.0526 9.94058C10.9549 9.86022 10.8546 9.76897 10.7542 9.67218C10.6042 8.69092 10.6597 7.25504 11.5978 5.58825C12.043 6.42862 12.8155 8.08791 13.1017 9.88434C12.9819 9.98666 12.8519 10.0774 12.709 10.1513L12.709 10.1513ZM11.6322 2.27015C12.2454 3.08693 13.4942 4.95783 13.2215 6.32213C13.1979 6.4398 13.2287 6.56177 13.3044 6.65409C13.3803 6.74694 13.4935 6.80052 13.6135 6.80052C13.639 6.80052 14.0006 6.79498 14.3951 6.50891C14.3358 7.28016 14.1735 8.26123 13.7579 9.04532C13.2167 6.63444 12.0103 4.68052 11.9528 4.58854C11.8808 4.47337 11.7556 4.40247 11.6196 4.40051C11.4856 4.40729 11.3563 4.46569 11.2808 4.57854C10.3008 6.04816 9.95633 7.3966 9.89955 8.49781C9.72508 8.11852 9.61348 7.68656 9.61348 7.20048C9.61348 5.45923 11.0047 3.20085 11.6322 2.2702L11.6322 2.27015Z" fill="white" stroke="white" stroke-width="0.7"/>
<path d="M11.6135 26.8006C15.2464 26.8006 18.0382 25.7713 19.913 23.7413C22.7234 20.6967 22.4265 16.5436 22.4137 16.4005C22.4137 15.9518 21.923 13.7225 12.3959 13.6066C12.2194 13.3546 12.0962 13.0789 12.0446 12.7743C12.0094 12.5611 11.8282 12.4062 11.6139 12.4062C11.3994 12.4062 11.2184 12.5611 11.1835 12.7727C11.1316 13.0779 11.008 13.3543 10.8307 13.6066C1.30427 13.7225 0.813756 15.9512 0.815127 16.3686C0.801199 16.5437 0.504412 20.6966 3.31478 23.7414C5.1887 25.7712 7.98084 26.8005 11.6138 26.8005L11.6135 26.8006ZM21.2926 16.0139C19.0755 16.0194 15.2492 15.7151 13.2748 14.4239C18.7756 14.5759 20.6572 15.471 21.2926 16.0139ZM11.6131 13.8762C13.2167 16.5682 19.1907 16.8117 21.2995 16.8117C21.4234 16.8117 21.5291 16.811 21.6247 16.8094C21.6243 17.8655 21.427 20.9262 19.3195 23.2044C17.603 25.0601 15.0102 26.0008 11.6134 26.0008C8.21667 26.0008 5.62394 25.0601 3.90737 23.2047C2.49182 21.6747 1.93895 19.7919 1.72771 18.3947C3.80451 18.3566 9.90828 18.0908 11.5563 16.2983C11.594 16.2579 11.6324 16.2583 11.6691 16.2983C12.9484 17.6899 16.9011 18.1754 19.9919 18.3383C20.2222 18.3463 20.4006 18.1802 20.4126 17.9599C20.4238 17.7392 20.2546 17.5511 20.0342 17.5395C15.9358 17.324 13.1012 16.6743 12.2582 15.7567C11.9278 15.3979 11.2994 15.3974 10.9678 15.7567C9.71658 17.117 4.68257 17.5479 1.63571 17.5963C1.61089 17.2792 1.60286 17.0107 1.6025 16.8095C3.32588 16.8315 9.91427 16.7256 11.6126 13.8763L11.6131 13.8762ZM1.92577 16.0139C2.55901 15.4832 4.44701 14.5774 9.94955 14.4243C7.97135 15.7159 4.1388 16.0203 1.92577 16.0139Z" fill="white" stroke="white" stroke-width="0.6"/>
</svg>
