<svg width="34" height="34" viewBox="0 0 34 34" fill="none" xmlns="http://www.w3.org/2000/svg">
<path opacity="0.1" fill-rule="evenodd" clip-rule="evenodd" d="M0 17C0 7.61116 7.61116 0 17 0C26.3888 0 34 7.61116 34 17C34 26.3888 26.3888 34 17 34C7.61116 34 0 26.3888 0 17Z" fill="white"/>
<path fill-rule="evenodd" clip-rule="evenodd" d="M26.063 16.9877C26.063 17.6008 26.0006 18.2132 25.878 18.81C25.7584 19.3927 25.5813 19.9648 25.3494 20.5116C25.1227 21.0488 24.8416 21.5665 24.5131 22.0492C24.1894 22.5289 23.8166 22.979 23.4071 23.3892C22.9967 23.7977 22.5451 24.1695 22.0656 24.4944C21.5813 24.8207 21.0629 25.1014 20.5254 25.3291C19.9777 25.5599 19.4044 25.7367 18.8222 25.8561C18.2245 25.979 17.61 26.0417 16.9959 26.0417C16.3814 26.0417 15.7669 25.979 15.1701 25.8561C14.5871 25.7367 14.0137 25.5599 13.4665 25.3291C12.929 25.1014 12.4101 24.8207 11.9258 24.4944C11.4463 24.1695 10.9947 23.7977 10.5852 23.3892C10.1753 22.979 9.80245 22.5289 9.47838 22.0492C9.15164 21.5665 8.87004 21.0488 8.6425 20.5116C8.41048 19.9648 8.23297 19.3927 8.11298 18.81C7.99168 18.2132 7.92969 17.6008 7.92969 16.9877C7.92969 16.3741 7.99165 15.7604 8.11302 15.1649C8.233 14.5822 8.41051 14.0093 8.64253 13.4633C8.87008 12.9257 9.15168 12.4076 9.47841 11.9248C9.80249 11.4447 10.1753 10.9955 10.5852 10.5848C10.9948 10.1763 11.4464 9.80543 11.9258 9.48093C12.4102 9.15332 12.9291 8.87263 13.4665 8.64449C14.0138 8.41323 14.5871 8.23597 15.1702 8.11751C15.767 7.9955 16.3815 7.93359 16.996 7.93359C17.61 7.93359 18.2245 7.9955 18.8222 8.11751C19.4044 8.23601 19.9777 8.41326 20.5254 8.64449C21.0629 8.87259 21.5813 9.15332 22.0657 9.48093C22.5451 9.80543 22.9968 10.1763 23.4071 10.5848C23.8167 10.9955 24.1895 11.4447 24.5131 11.9248C24.8416 12.4076 25.1227 12.9258 25.3494 13.4633C25.5813 14.0093 25.7584 14.5822 25.878 15.1649C26.0006 15.7604 26.063 16.3741 26.063 16.9877ZM13.6922 9.99418C11.533 11.0124 9.92149 12.9991 9.41898 15.3935C9.6231 15.3953 12.8497 15.4359 16.5673 14.4496C15.2272 12.072 13.7954 10.1317 13.6922 9.99418ZM17.2088 15.6402C13.2221 16.832 9.3964 16.7463 9.25917 16.741C9.25694 16.8241 9.25296 16.9045 9.25296 16.9877C9.25296 18.974 10.0034 20.7848 11.2368 22.154C11.2342 22.15 13.3531 18.3962 17.5316 17.0469C17.6325 17.0133 17.7353 16.9833 17.8371 16.9541C17.6428 16.5147 17.4306 16.0743 17.2088 15.6402ZM22.1095 11.1848C20.7463 9.98445 18.9563 9.25637 16.9959 9.25637C16.3668 9.25637 15.7563 9.33241 15.1714 9.47299C15.2874 9.62863 16.7418 11.5552 18.066 13.9832C20.9876 12.8895 22.0904 11.213 22.1095 11.1848ZM18.3649 18.2353C18.3476 18.241 18.3304 18.2459 18.3135 18.2521C13.7451 19.8424 12.2532 23.0474 12.237 23.0824C13.5515 24.1032 15.2003 24.719 16.996 24.719C18.0682 24.719 19.0896 24.501 20.0189 24.1063C19.9042 23.4307 19.4544 21.0629 18.3649 18.2353ZM21.3227 23.3998C23.0613 22.2283 24.2961 20.368 24.6405 18.2131C24.4812 18.1618 22.3149 17.477 19.8156 17.8771C20.8313 20.6641 21.2439 22.9338 21.3227 23.3998ZM18.662 15.1353C18.8417 15.504 19.0157 15.8793 19.1764 16.2564C19.2335 16.3917 19.2893 16.5244 19.3438 16.657C22.0037 16.3227 24.6242 16.8851 24.7362 16.9081C24.7185 15.0752 24.0619 13.393 22.9755 12.076C22.9609 12.0968 21.719 13.8886 18.662 15.1353Z" fill="white"/>
</svg>
