<svg width="24" height="24" viewBox="0 0 24 24" fill="none" xmlns="http://www.w3.org/2000/svg">
<path d="M16.3769 5.54292C16.2055 5.54292 16.0684 5.64578 16.0341 5.81721L14.5255 13.5999C14.4569 14.1142 14.0455 14.457 13.5312 14.457H13.3255C13.1541 14.7656 12.7427 14.9027 12.3998 14.697C12.2969 14.6284 12.1941 14.5599 12.1598 14.457H11.6112C11.4055 14.7999 10.9941 14.9027 10.6855 14.697C10.3427 14.4913 10.2398 14.0799 10.4455 13.7713C10.6512 13.4627 11.0627 13.3256 11.3712 13.5313C11.4741 13.5999 11.5769 13.6684 11.6112 13.7713H12.1598C12.3312 13.4627 12.7769 13.3599 13.0855 13.5313C13.1884 13.5999 13.2569 13.6684 13.3255 13.7713H13.5312C13.7027 13.7713 13.8398 13.6684 13.8741 13.497L14.0112 12.7427H10.8569C10.3769 12.7427 9.96552 12.3999 9.86266 11.9542L8.79981 7.49701C8.66266 6.94844 9.00552 6.39987 9.55409 6.26272C9.62266 6.22844 9.72552 6.22844 9.79409 6.22844H15.2453L15.3482 5.67987C15.3482 5.64558 15.3825 5.57701 15.3825 5.54272H2.7998V15.8284H21.9998V5.54272L16.3769 5.54292ZM7.25695 11.7143H6.22838C6.02266 11.7143 5.88552 11.8515 5.88552 12.0572C5.88552 12.2629 6.02266 12.4001 6.22838 12.4001C6.81123 12.4001 7.25695 12.8458 7.25695 13.4286C7.25695 13.8743 6.98266 14.2515 6.57123 14.3886V15.1429H5.88552V14.4572H5.1998V13.7715H6.22838C6.43409 13.7715 6.57123 13.6343 6.57123 13.4286C6.57123 13.2229 6.43409 13.0858 6.22838 13.0858C5.64552 13.0858 5.1998 12.6401 5.1998 12.0572C5.1998 11.6115 5.47409 11.2343 5.88552 11.0972V10.3429H6.57123V11.0286H7.25695V11.7143ZM7.94266 8.28578H7.25695V8.97149H6.57123V8.28578H5.88552V7.60006H6.57123V6.91435H7.25695V7.60006H7.94266V8.28578ZM16.5141 8.28578C16.5141 7.70292 16.9598 7.25721 17.5427 7.25721H19.9427C20.5255 7.25721 20.9712 7.70292 20.9712 8.28578V9.65721C20.9712 10.2401 20.5255 10.6858 19.9427 10.6858H17.5427C16.9598 10.6858 16.5141 10.2401 16.5141 9.65721V8.28578ZM16.5141 11.7143H18.2284V12.4001H17.6798L19.1541 13.8743L18.6741 14.3543L17.1998 12.8801V13.4286H16.5141V11.7143Z" fill="#674FA0"/>
<path d="M14.8679 20.2172C14.8337 20.0801 14.7994 19.943 14.7994 19.8058V18.5715H9.99938V19.8058C9.99938 19.943 9.96509 20.0801 9.93081 20.2172L9.38223 21.5201C9.31366 21.6915 9.38223 21.8972 9.55366 21.9658C9.58795 22.0001 9.62223 22.0001 9.65652 22.0001H15.1422C15.3479 22.0001 15.4851 21.863 15.4851 21.6572C15.4851 21.623 15.4851 21.5544 15.4508 21.5201L14.8679 20.2172Z" fill="#674FA0"/>
<path d="M17.5426 9.99992H19.9426C20.1483 9.99992 20.2854 9.86278 20.2854 9.65707V9.31421H17.1997V9.65707C17.1997 9.86278 17.3368 9.99992 17.5426 9.99992Z" fill="#674FA0"/>
<path d="M20.2854 8.28573C20.2854 8.08001 20.1483 7.94287 19.9426 7.94287H17.5426C17.3368 7.94287 17.1997 8.08001 17.1997 8.28573V8.62859H20.2854V8.28573Z" fill="#674FA0"/>
<path d="M2.7998 17.543C2.7998 17.7487 2.93695 17.8858 3.14266 17.8858H21.6569C21.8627 17.8858 21.9998 17.7487 21.9998 17.543V16.5144H2.7998V17.543Z" fill="#674FA0"/>
<path d="M9.55419 7.0515C9.48562 7.12007 9.45133 7.25721 9.48562 7.36007L10.5485 11.8172C10.5828 11.9886 10.7199 12.0915 10.8913 12.0915H14.1485L15.1428 6.91455H9.82867C9.72581 6.91455 9.62296 6.94884 9.55439 7.05169L9.55419 7.0515ZM13.4285 11.3715H11.3713V10.6858H13.4285V11.3715ZM13.7713 10.0001H11.0285V9.31435H13.7713V10.0001ZM10.3428 7.94293H14.1142V8.62864H10.3428V7.94293Z" fill="#674FA0"/>
<path d="M21.9998 3.14291C21.9998 2.93719 21.8627 2.80005 21.6569 2.80005H3.14266C2.93695 2.80005 2.7998 2.93719 2.7998 3.14291V4.85719H21.9998V3.14291ZM4.17123 4.17148H3.48552V3.48576H4.17123V4.17148ZM5.54266 4.17148H4.85695V3.48576H5.54266V4.17148ZM6.91409 4.17148H6.22838V3.48576H6.91409V4.17148Z" fill="#674FA0"/>
</svg>
