<svg width="120" height="120" viewBox="0 0 120 120" fill="none" xmlns="http://www.w3.org/2000/svg">
<g clip-path="url(#clip0_165_9876)">
<path d="M13.9077 28.0458C13.7874 28.0458 13.6664 28.0086 13.5619 27.9323C13.3008 27.7415 13.244 27.3744 13.435 27.1131C14.7066 25.3739 16.095 23.6881 17.5616 22.1023C17.7816 21.8642 18.1532 21.8505 18.3903 22.0697C18.6279 22.2897 18.6427 22.6605 18.4229 22.8979C16.9864 24.4513 15.6266 26.1021 14.3814 27.8055C14.2666 27.9621 14.0882 28.0458 13.9077 28.0458V28.0458ZM7.58083 39.2042C7.50452 39.2042 7.42741 39.1894 7.35267 39.1579C7.05451 39.0318 6.91478 38.6879 7.04083 38.3894C7.88057 36.4029 8.84636 34.4431 9.91109 32.5658C10.0706 32.2847 10.4285 32.1855 10.7106 32.345C10.9919 32.5047 11.0908 32.8626 10.9314 33.1444C9.88872 34.9823 8.9432 36.9008 8.12109 38.846C8.02662 39.0694 7.80925 39.2042 7.58083 39.2042V39.2042ZM3.9853 51.5186C3.95267 51.5186 3.91952 51.516 3.88609 51.5102C3.56715 51.4558 3.35241 51.1526 3.40688 50.8336C3.77004 48.7034 4.26057 46.5747 4.86373 44.5065C4.95425 44.1952 5.27846 44.0158 5.59083 44.1079C5.90188 44.1986 6.08004 44.5239 5.98951 44.835C5.39873 46.8602 4.91873 48.9447 4.56294 51.031C4.51399 51.3168 4.26609 51.5186 3.9853 51.5186V51.5186Z" fill="#66509E"/>
<path d="M74.0951 114.712C73.8391 114.712 73.6038 114.544 73.5309 114.286C73.4433 113.973 73.6249 113.649 73.9364 113.562C75.9704 112.988 77.9925 112.291 79.9462 111.488C80.2459 111.367 80.5888 111.51 80.7117 111.81C80.8343 112.11 80.6914 112.452 80.392 112.573C78.3964 113.394 76.3309 114.104 74.2541 114.691C74.2009 114.704 74.1478 114.712 74.0951 114.712V114.712ZM55.0057 116.636C54.9914 116.636 54.9772 116.633 54.963 116.633C54.3728 116.591 53.7809 116.538 53.188 116.478C51.6272 116.315 50.0585 116.089 48.5251 115.799C48.207 115.741 47.9975 115.433 48.057 115.115C48.1167 114.796 48.4222 114.586 48.7417 114.649C50.2435 114.931 51.7801 115.152 53.3091 115.312C53.8896 115.373 54.4691 115.423 55.047 115.465C55.3701 115.486 55.613 115.767 55.5899 116.091C55.5678 116.399 55.3101 116.636 55.0057 116.636V116.636ZM61.4291 116.733C61.1167 116.733 60.857 116.486 60.8435 116.17C60.8304 115.846 61.0814 115.573 61.4049 115.56C63.5157 115.47 65.643 115.257 67.7285 114.923C68.0485 114.878 68.3491 115.091 68.3999 115.41C68.4512 115.731 68.2333 116.031 67.9135 116.083C65.783 116.423 63.6099 116.641 61.4541 116.731C61.4457 116.733 61.4375 116.733 61.4291 116.733V116.733Z" fill="#66509E"/>
<path d="M104.912 29.2046C104.726 29.2046 104.543 29.1165 104.43 28.952C103.228 27.2162 101.911 25.5304 100.517 23.9415C100.303 23.6981 100.327 23.3275 100.571 23.1141C100.814 22.901 101.185 22.9249 101.398 23.1683C102.822 24.7907 104.166 26.5125 105.393 28.2846C105.578 28.551 105.511 28.916 105.246 29.1004C105.143 29.1707 105.027 29.2046 104.912 29.2046V29.2046ZM110.96 40.5165C110.727 40.5165 110.506 40.3757 110.415 40.1454C109.639 38.1812 108.741 36.2404 107.744 34.3765C107.591 34.091 107.699 33.736 107.985 33.5833C108.27 33.4299 108.626 33.5383 108.778 33.8239C109.796 35.7267 110.714 37.7089 111.505 39.7149C111.624 40.016 111.476 40.3565 111.175 40.4754C111.104 40.5033 111.032 40.5165 110.96 40.5165ZM114.259 52.9117C113.972 52.9117 113.722 52.7017 113.679 52.4099C113.376 50.3194 112.946 48.2244 112.403 46.1833C112.32 45.8702 112.506 45.5491 112.819 45.466C113.132 45.3833 113.453 45.5689 113.536 45.882C114.091 47.9667 114.53 50.1062 114.84 52.241C114.886 52.5617 114.664 52.8591 114.344 52.9057C114.315 52.9099 114.287 52.9117 114.259 52.9117V52.9117Z" fill="#66509E"/>
<path d="M18.2095 56.1477C20.5426 33.6066 40.7068 17.2245 63.2482 19.5571C85.7895 21.8903 102.172 42.0545 99.839 64.5958C97.5058 87.1369 77.3413 103.519 54.8003 101.186C32.2589 98.8537 15.8768 78.6892 18.2095 56.1477V56.1477Z" fill="#EDEAF3"/>
<path d="M4.92188 55.957H47.9508C50.234 55.957 52.0845 57.8078 52.0845 60.0907V104.893H8.87582V60.4736L4.92188 55.957V55.957Z" fill="white"/>
<path d="M52.0851 105.479H8.87646C8.55252 105.479 8.29015 105.217 8.29015 104.893V60.4743C8.29015 60.1503 8.55252 59.8877 8.87646 59.8877C9.20041 59.8877 9.46304 60.1503 9.46304 60.4743V104.307H51.4986V60.0916C51.4986 58.1353 49.9073 56.544 47.9512 56.544H4.92252C4.59857 56.544 4.33594 56.2816 4.33594 55.9577C4.33594 55.6337 4.59857 55.3711 4.92252 55.3711H47.9512C50.5538 55.3711 52.6715 57.489 52.6715 60.0916V104.893C52.6715 105.217 52.4088 105.479 52.0851 105.479Z" fill="#66509E"/>
<path d="M8.85357 73.8044V60.0907C8.85357 57.8078 7.00278 55.957 4.71962 55.957C2.43673 55.957 0.585938 57.8078 0.585938 60.0907V73.8044H8.85357Z" fill="#807DBB"/>
<path d="M1.17289 73.219H8.26763V60.0916C8.26763 58.1353 6.67632 56.544 4.72 56.544C2.76421 56.544 1.17289 58.1353 1.17289 60.0916V73.219V73.219ZM8.85395 74.3919H0.586316C0.262368 74.3919 0 74.1293 0 73.8053V60.0916C0 57.489 2.11763 55.3711 4.72 55.3711C7.32263 55.3711 9.44053 57.489 9.44053 60.0916V73.8053C9.44053 74.1293 9.17789 74.3919 8.85395 74.3919Z" fill="#66509E"/>
<path d="M48.1182 89.8838H13.0082C12.6845 89.8838 12.4219 89.6212 12.4219 89.2973C12.4219 88.9736 12.6845 88.7109 13.0082 88.7109H48.1182C48.4421 88.7109 48.7048 88.9736 48.7048 89.2973C48.7048 89.6212 48.4421 89.8838 48.1182 89.8838Z" fill="#66509E"/>
<path d="M32.2892 93.6336H13.0082C12.6845 93.6336 12.4219 93.3712 12.4219 93.0473C12.4219 92.7233 12.6845 92.4609 13.0082 92.4609H32.2892C32.6132 92.4609 32.8756 92.7233 32.8756 93.0473C32.8756 93.3712 32.6132 93.6336 32.2892 93.6336Z" fill="#66509E"/>
<path d="M37.0585 105.352L33.6914 111.975L37.2125 110.077L38.4432 113.883L41.659 107.638L37.0585 105.352Z" fill="#807DBB"/>
<path d="M38.4439 114.471C38.4281 114.471 38.412 114.471 38.396 114.468C38.1599 114.45 37.9586 114.292 37.8857 114.065L36.8717 110.928L33.9696 112.492C33.7438 112.613 33.4654 112.573 33.2823 112.394C33.0986 112.215 33.0531 111.939 33.1691 111.71L36.5365 105.087C36.6833 104.797 37.037 104.682 37.3249 104.83C37.6136 104.977 37.7286 105.33 37.582 105.618L35.0636 110.571L36.9352 109.563C37.0881 109.481 37.2702 109.471 37.4315 109.534C37.5933 109.6 37.7173 109.734 37.771 109.9L38.5678 112.363L41.1378 107.37C41.2865 107.082 41.6415 106.967 41.9275 107.117C42.2157 107.266 42.3289 107.619 42.1807 107.907L38.9652 114.152C38.8639 114.35 38.6617 114.471 38.4439 114.471V114.471Z" fill="#66509E"/>
<path d="M46.7139 106.172L49.7494 111.969L46.2281 110.072L44.9979 113.877L41.7773 107.621L46.7139 106.172V106.172Z" fill="#807DBB"/>
<path d="M44.998 114.464C44.7798 114.464 44.578 114.343 44.4766 114.146L41.2566 107.889C41.1082 107.602 41.2216 107.248 41.5098 107.1C41.7961 106.951 42.1509 107.064 42.2993 107.353L44.874 112.356L45.6709 109.893C45.7245 109.727 45.8487 109.593 46.0103 109.527C46.1714 109.464 46.354 109.475 46.5069 109.556L48.3427 110.546L46.1951 106.444C46.0448 106.157 46.1553 105.803 46.4424 105.653C46.7301 105.503 47.0837 105.614 47.234 105.9L50.2695 111.698C50.3893 111.925 50.3456 112.206 50.1624 112.388C49.9787 112.567 49.699 112.606 49.4722 112.485L46.5701 110.922L45.5561 114.059C45.483 114.285 45.2822 114.443 45.0456 114.462C45.0301 114.464 45.0137 114.464 44.998 114.464V114.464Z" fill="#66509E"/>
<path d="M36.6765 94.0981L37.6641 93.7347L38.2617 92.8683L39.3088 92.762L40.103 92.0718L41.1438 92.2289L42.0849 91.7578L43.0536 92.1689L44.0823 91.9465L44.9183 92.5857L45.9699 92.6262L46.6209 93.4531L47.6294 93.7541L48.0541 94.717L48.9562 95.2589L49.1283 96.2973L49.867 97.0465L49.7754 98.0952L50.3046 99.0049L49.9554 99.9973L50.2417 101.01L49.6565 101.885L49.682 102.937L48.8975 103.638L48.6607 104.664L47.7265 105.148L47.2417 106.083L46.2167 106.319L45.5151 107.104L44.463 107.078L43.5883 107.664L42.5757 107.377L41.5828 107.727L40.673 107.198L39.6249 107.289L38.8754 106.55L37.8373 106.378L37.2951 105.476L36.332 105.051L36.0315 104.043L35.2044 103.392L35.1638 102.34L34.5249 101.504L34.747 100.475L34.3359 99.5065L34.807 98.5654L34.6499 97.5249L35.3401 96.7304L35.4467 95.6836L36.3128 95.0857L36.6765 94.0981V94.0981Z" fill="#EE445B"/>
<path d="M36.3128 95.0863H36.3196H36.3128ZM40.6736 106.612C40.7767 106.612 40.8786 106.639 40.9686 106.691L41.6441 107.084L42.3812 106.825C42.4952 106.784 42.6189 106.781 42.7354 106.814L43.4873 107.026L44.1373 106.591C44.2375 106.524 44.3578 106.491 44.4778 106.492L45.2589 106.512L45.7799 105.929C45.8607 105.839 45.967 105.777 46.0846 105.749L46.8462 105.573L47.2062 104.879C47.2617 104.771 47.3494 104.684 47.457 104.628L48.1507 104.269L48.3265 103.507C48.3536 103.389 48.4167 103.283 48.5067 103.202L49.0894 102.681L49.0707 101.899C49.0678 101.778 49.1023 101.659 49.1696 101.559L49.6044 100.91L49.3915 100.158C49.3586 100.041 49.3625 99.9174 49.4025 99.8034L49.6623 99.0663L49.2691 98.3908C49.2083 98.2858 49.1817 98.1658 49.192 98.0447L49.2596 97.2663L48.711 96.7097C48.6262 96.6239 48.5699 96.5131 48.5502 96.3937L48.4223 95.6224L47.7525 95.2195C47.6489 95.1576 47.5673 95.0645 47.5183 94.9537L47.2025 94.2387L46.4539 94.0158C46.3378 93.9816 46.2354 93.9116 46.1607 93.8166L45.677 93.2023L44.896 93.1721C44.7752 93.1673 44.6589 93.1255 44.5628 93.0526L43.9415 92.5779L43.1773 92.7429C43.0596 92.7673 42.9362 92.7563 42.8246 92.7092L42.1054 92.4039L41.4067 92.7537C41.2983 92.8073 41.177 92.8287 41.0565 92.8094L40.2836 92.6921L39.6936 93.2058C39.602 93.2845 39.4883 93.3337 39.3683 93.346L38.5904 93.425L38.1467 94.0681C38.0783 94.1676 37.9802 94.2434 37.8667 94.2852L37.1333 94.5558L36.8631 95.2889C36.8215 95.4023 36.7454 95.5 36.6462 95.5687L36.0028 96.0129L35.9236 96.7908C35.9112 96.9108 35.8623 97.0245 35.7828 97.1158L35.2702 97.706L35.387 98.4787C35.4049 98.5976 35.3857 98.7205 35.3317 98.8284L34.982 99.5273L35.287 100.247C35.3344 100.358 35.346 100.482 35.3207 100.6L35.1554 101.363L35.6299 101.985C35.7033 102.081 35.7454 102.198 35.7499 102.318L35.7804 103.098L36.3944 103.582C36.4894 103.657 36.5591 103.76 36.5936 103.876L36.817 104.624L37.532 104.94C37.6425 104.989 37.7354 105.071 37.7981 105.174L38.2004 105.844L38.9717 105.972C39.0912 105.992 39.2012 106.049 39.2873 106.133L39.8439 106.682L40.6231 106.614C40.6399 106.612 40.657 106.612 40.6736 106.612V106.612ZM41.5833 108.312C41.481 108.312 41.3791 108.286 41.2883 108.233L40.5396 107.798L39.6757 107.873C39.5039 107.891 39.336 107.827 39.2136 107.707L38.5965 107.099L37.7415 106.957C37.572 106.929 37.4233 106.828 37.3349 106.681L36.8889 105.938L36.0957 105.588C35.9386 105.519 35.8196 105.384 35.7707 105.219L35.5228 104.389L34.842 103.853C34.7075 103.746 34.6254 103.587 34.6191 103.415L34.5854 102.549L34.0594 101.861C33.9546 101.723 33.9157 101.548 33.9517 101.38L34.1352 100.534L33.7967 99.736C33.7296 99.5781 33.7349 99.3987 33.8117 99.2447L34.1999 98.4697L34.0707 97.6131C34.0446 97.4434 34.0946 97.271 34.2075 97.141L34.7757 96.4866L34.8636 95.625C34.881 95.4545 34.9723 95.2997 35.1139 95.2021L35.827 94.7094L36.1265 93.8968C36.186 93.735 36.3125 93.6084 36.4739 93.5489L37.2867 93.2489L37.7791 92.536C37.877 92.3944 38.0317 92.3031 38.2028 92.2858L39.0649 92.1984L39.7189 91.6295C39.8489 91.5171 40.0217 91.4666 40.191 91.4923L41.0475 91.6216L41.8225 91.2337C41.9765 91.1568 42.1562 91.1516 42.3144 91.2184L43.112 91.5571L43.9591 91.3742C44.1265 91.34 44.302 91.3771 44.4383 91.4813L45.1267 92.0076L45.9928 92.0413C46.1646 92.0476 46.3246 92.1292 46.431 92.2645L46.967 92.945L47.797 93.1929C47.9615 93.2418 48.0965 93.3608 48.1657 93.5179L48.516 94.3105L49.2586 94.7573C49.406 94.8458 49.507 94.9947 49.5346 95.1639L49.6762 96.0187L50.2849 96.6355C50.4057 96.7576 50.4665 96.9268 50.4518 97.0984L50.3765 97.9616L50.812 98.7108C50.8983 98.8595 50.9152 99.0387 50.8583 99.2002L50.5707 100.017L50.8062 100.851C50.8531 101.017 50.8252 101.195 50.7291 101.338L50.2473 102.057L50.2683 102.923C50.2725 103.096 50.2012 103.26 50.0731 103.375L49.4273 103.952L49.2323 104.797C49.1936 104.964 49.0836 105.106 48.9307 105.185L48.1615 105.584L47.7628 106.353C47.6839 106.505 47.542 106.616 47.3744 106.654L46.5302 106.85L45.9523 107.496C45.8375 107.623 45.6786 107.695 45.5004 107.691L44.6349 107.67L43.9146 108.152C43.7717 108.249 43.5954 108.276 43.4289 108.228L42.5952 107.993L41.7781 108.281C41.7146 108.302 41.6489 108.312 41.5833 108.312V108.312Z" fill="#66509E"/>
<path d="M45.5041 96.4993C47.2947 98.2901 47.2947 101.194 45.5041 102.984C43.7133 104.775 40.8099 104.775 39.0189 102.984C37.2281 101.194 37.2281 98.2901 39.0189 96.4993C40.8099 94.7086 43.7133 94.7086 45.5041 96.4993V96.4993Z" fill="white"/>
<path d="M42.2617 95.7425C41.238 95.7425 40.2133 96.1323 39.4335 96.912C38.6785 97.667 38.2625 98.6712 38.2625 99.7399C38.2625 100.808 38.6785 101.812 39.4335 102.568C40.993 104.127 43.5309 104.127 45.0901 102.568C45.8454 101.812 46.2614 100.808 46.2614 99.7399C46.2614 98.6712 45.8454 97.667 45.0901 96.912C44.3104 96.1323 43.2859 95.7425 42.2617 95.7425ZM42.2617 104.909C40.9375 104.909 39.6133 104.405 38.6046 103.397C37.628 102.42 37.0898 101.121 37.0898 99.7399C37.0898 98.3583 37.628 97.0597 38.6048 96.0833C40.6212 94.0654 43.9025 94.0665 45.9193 96.0833H45.9191C46.8959 97.0597 47.4341 98.3583 47.4341 99.7399C47.4341 101.121 46.8959 102.42 45.9193 103.397C44.9106 104.405 43.5864 104.909 42.2617 104.909Z" fill="#66509E"/>
<path d="M39.4922 100.573L43.1511 96.9141L39.4922 100.573Z" fill="white"/>
<path d="M39.4924 101.16C39.3427 101.16 39.1924 101.102 39.0782 100.988C38.849 100.759 38.849 100.388 39.0779 100.159L42.7366 96.4998C42.9661 96.2709 43.3369 96.2709 43.5658 96.4998C43.7953 96.7288 43.7953 97.0998 43.5661 97.3285L39.9071 100.988C39.7927 101.102 39.6424 101.16 39.4924 101.16Z" fill="#66509E"/>
<path d="M41.25 102.448L44.9089 98.7891L41.25 102.448Z" fill="white"/>
<path d="M41.2503 103.035C41.1003 103.035 40.9503 102.977 40.8358 102.863C40.6069 102.634 40.6069 102.263 40.8355 102.034L44.4945 98.3748C44.724 98.1459 45.095 98.1459 45.3237 98.3748C45.5529 98.6035 45.5529 98.9748 45.3242 99.2035L41.665 102.863C41.5503 102.977 41.4003 103.035 41.2503 103.035V103.035Z" fill="#66509E"/>
<path d="M31.7033 97.5008H12.4225C12.0986 97.5008 11.8359 97.2384 11.8359 96.9147C11.8359 96.5905 12.0986 96.3281 12.4225 96.3281H31.7033C32.0275 96.3281 32.2899 96.5905 32.2899 96.9147C32.2899 97.2384 32.0275 97.5008 31.7033 97.5008Z" fill="#66509E"/>
<path d="M19.926 74.2377C19.2812 74.2377 18.6949 74.0474 18.1731 73.6674C17.7033 73.3253 17.5586 72.6745 17.8349 72.1524C19.1796 69.5943 20.3857 67.2364 21.4186 65.1453C21.7199 64.5364 22.1899 64.0448 22.7781 63.7224C22.8131 63.7029 22.8504 63.6869 22.8891 63.6753L25.3362 62.929C25.3444 62.9266 25.3525 62.9243 25.361 62.9221L26.8591 62.4643C28.8394 61.8608 30.8912 61.6532 32.9581 61.8435L35.9946 62.1248C36.6662 62.1869 37.3515 61.9753 37.8728 61.5437L40.9225 59.0214C41.1718 58.815 41.5415 58.8495 41.7483 59.0995C41.9544 59.349 41.9194 59.7185 41.6699 59.925L38.621 62.4466C37.8623 63.0756 36.8657 63.3848 35.8862 63.2924L32.8496 63.0111C30.9349 62.8337 29.0349 63.0269 27.2015 63.5858L25.6807 64.0508C25.6723 64.0529 25.6639 64.0556 25.6554 64.0574L23.2925 64.7785C22.9391 64.985 22.6552 65.2903 22.4694 65.6656C21.4325 67.7643 20.222 70.1311 18.8718 72.6995C19.4878 73.174 20.2781 73.1761 21.2781 72.7279C22.2765 72.2803 22.7239 71.4016 23.2407 70.3842C23.5757 69.7306 23.9081 69.0785 24.2396 68.4248C24.3207 68.265 24.4702 68.1514 24.6457 68.1156L27.0223 67.6324C27.2749 67.5803 27.5304 67.7008 27.6539 67.9266C29.2341 70.8324 32.9631 72.1071 35.632 70.6553C35.9175 70.5008 36.2731 70.6061 36.427 70.89C36.5818 71.1745 36.4762 71.5306 36.1918 71.6853C33.0941 73.3714 28.8339 72.0471 26.8446 68.865L25.157 69.2085C24.8673 69.779 24.577 70.3482 24.2854 70.9174C23.7202 72.0295 23.1341 73.1811 21.7575 73.7979C21.1041 74.0908 20.4923 74.2377 19.926 74.2377V74.2377Z" fill="#66509E"/>
<path d="M42.5389 76.1534C42.4352 76.1534 42.3307 76.126 42.2357 76.0684C41.9589 75.9005 41.8702 75.5405 42.0381 75.2631L44.3489 71.4476C44.5663 71.0879 44.8391 70.7715 45.1591 70.506L46.7844 69.1584C47.0341 68.9515 47.4028 68.9865 47.6099 69.2355C47.817 69.4844 47.7823 69.8542 47.5331 70.0608L45.9076 71.4087C45.6884 71.5902 45.5012 71.8081 45.3512 72.055L43.0407 75.8708C42.9305 76.0526 42.7373 76.1534 42.5389 76.1534V76.1534Z" fill="#66509E"/>
<path d="M25.113 85.4939C24.9446 85.4939 24.7775 85.4215 24.6615 85.282C24.4549 85.0328 24.4891 84.6631 24.7386 84.4562L28.3852 81.4291C28.642 81.2165 28.8004 80.916 28.8312 80.5841C28.862 80.2518 28.7617 79.9273 28.5486 79.6707C28.3354 79.4141 28.0354 79.2557 27.7033 79.2246C27.3702 79.1896 27.0465 79.2931 26.7896 79.507L22.2888 83.2428C22.0402 83.4491 21.6699 83.4146 21.463 83.166C21.2565 82.9168 21.2909 82.547 21.5402 82.3402L26.0409 78.6046C26.5388 78.192 27.1659 77.9989 27.812 78.057C28.4557 78.117 29.0383 78.4241 29.4512 78.922C29.8638 79.4199 30.0586 80.0483 29.9988 80.6923C29.9388 81.3368 29.6317 81.9186 29.1341 82.3317L25.487 85.3589C25.3778 85.4491 25.2449 85.4939 25.113 85.4939V85.4939Z" fill="#66509E"/>
<path d="M29.1888 86.8546C29.0204 86.8546 28.853 86.7825 28.7372 86.6428C28.5306 86.3938 28.5646 86.0241 28.814 85.8173L29.9359 84.8862C30.1927 84.6733 30.3511 84.3728 30.3819 84.0404C30.413 83.708 30.3122 83.3836 30.0993 83.127C29.8864 82.8704 29.5859 82.712 29.2538 82.6809C28.9175 82.6536 28.5967 82.7509 28.3409 82.9641L25.4527 85.3602C25.2038 85.5665 24.8343 85.532 24.6272 85.2833C24.4206 85.0341 24.4548 84.6644 24.7043 84.4575L27.5917 82.0615C28.0893 81.6491 28.718 81.4565 29.3625 81.5138C30.0061 81.5733 30.5885 81.8804 31.0014 82.3783C31.4148 82.8762 31.6093 83.5046 31.5493 84.1491C31.4898 84.793 31.1827 85.3754 30.6848 85.7886L29.5625 86.7199C29.4532 86.8101 29.3204 86.8546 29.1888 86.8546V86.8546Z" fill="#66509E"/>
<path d="M28.0318 87.2726C27.9563 87.2726 27.8797 87.2687 27.8034 87.2616C27.1592 87.2018 26.5771 86.8942 26.1637 86.3963C25.7508 85.8992 25.5563 85.27 25.6161 84.6263C25.6761 83.9818 25.9832 83.3997 26.4808 82.9866C26.7297 82.7803 27.0997 82.8139 27.3066 83.0634C27.5132 83.3126 27.4787 83.6824 27.2295 83.8892C26.9732 84.1021 26.8145 84.4024 26.7837 84.7347C26.7529 85.0666 26.8532 85.391 27.0661 85.6479C27.2795 85.9042 27.5797 86.0634 27.9121 86.0937C28.2432 86.1234 28.5682 86.0245 28.825 85.8113C29.0742 85.6053 29.4437 85.6397 29.6505 85.8876C29.8576 86.1371 29.8237 86.5063 29.5742 86.7139C29.1358 87.0776 28.5953 87.2726 28.0318 87.2726V87.2726Z" fill="#66509E"/>
<path d="M23.9268 85.8646C23.2304 85.8646 22.5394 85.567 22.0607 84.9902C21.2083 83.9631 21.3507 82.4336 22.3773 81.5799C22.627 81.3736 22.996 81.4086 23.2028 81.6565C23.4097 81.906 23.3757 82.2749 23.1268 82.4825C22.5965 82.922 22.5233 83.7115 22.9631 84.2418C23.4031 84.7723 24.1925 84.8462 24.722 84.4054C24.9712 84.1991 25.341 84.2333 25.5478 84.4823C25.7544 84.7312 25.7199 85.1007 25.471 85.3081C25.0199 85.682 24.4715 85.8646 23.9268 85.8646V85.8646Z" fill="#66509E"/>
<path d="M20.7043 83.7554C20.0077 83.7554 19.3164 83.458 18.838 82.8814C17.9856 81.8538 18.128 80.3243 19.1551 79.4709C19.4046 79.2646 19.7743 79.2983 19.9809 79.548C20.1877 79.7967 20.1533 80.1664 19.9046 80.3733C19.3743 80.8138 19.3006 81.6025 19.7406 82.1328C20.1804 82.6633 20.9698 82.7364 21.4996 82.2962C21.7483 82.0901 22.1183 82.1243 22.3254 82.373C22.532 82.622 22.4972 82.9917 22.2485 83.1988C21.7972 83.573 21.2491 83.7554 20.7043 83.7554V83.7554Z" fill="#66509E"/>
<path d="M17.7176 81.5283C17.0213 81.5283 16.33 81.2309 15.8513 80.6543C15.4381 80.157 15.2436 79.528 15.3036 78.8833C15.3636 78.2393 15.6707 77.6575 16.1684 77.2438C16.4181 77.0383 16.7876 77.072 16.9944 77.3206C17.201 77.5696 17.1665 77.9393 16.9178 78.1464C16.6607 78.3596 16.5021 78.6598 16.4713 78.9925C16.4405 79.3243 16.5405 79.6488 16.7536 79.9054C17.1942 80.4364 17.9834 80.5101 18.5131 80.0691C18.7621 79.8627 19.1318 79.8972 19.3386 80.1459C19.5452 80.3948 19.511 80.7648 19.2615 80.9717C18.8102 81.3459 18.2623 81.5283 17.7176 81.5283V81.5283Z" fill="#66509E"/>
<path d="M21.8754 83.3513C21.7073 83.3513 21.5404 83.279 21.4241 83.1395C21.2175 82.8903 21.252 82.5206 21.5012 82.3137L24.7544 79.6137C25.2841 79.1734 25.3575 78.3848 24.9181 77.8548C24.7044 77.5979 24.4041 77.4395 24.0725 77.4084C23.7407 77.375 23.4157 77.4779 23.1588 77.6911L19.2417 80.9424C18.9931 81.1479 18.6233 81.1142 18.4165 80.8656C18.2096 80.6166 18.2438 80.2466 18.4933 80.0398L22.4099 76.7887C22.9081 76.3753 23.5373 76.1813 24.1807 76.2411C24.8249 76.3011 25.4075 76.6082 25.8202 77.1061C26.6731 78.1327 26.5309 79.6632 25.5033 80.5163L22.2499 83.2163C22.1407 83.3066 22.0078 83.3513 21.8754 83.3513V83.3513Z" fill="#66509E"/>
<path d="M18.8683 81.0805C18.7002 81.0805 18.5328 81.0078 18.417 80.8684C18.2102 80.6194 18.2444 80.2494 18.4938 80.0426L19.3646 79.3199C19.8944 78.8797 19.9678 78.0907 19.5281 77.5607C19.0881 77.0313 18.2994 76.9576 17.7691 77.3973L16.8981 78.1202C16.6494 78.3263 16.2794 78.292 16.0725 78.0431C15.866 77.7942 15.9002 77.4244 16.1494 77.2176L17.0204 76.4947C18.0473 75.6421 19.577 75.7836 20.4302 76.8121C21.2831 77.8386 21.1412 79.3692 20.1136 80.2226L19.2423 80.9452C19.1331 81.0357 19.0002 81.0805 18.8683 81.0805V81.0805Z" fill="#66509E"/>
<path d="M17.3923 77.548C17.1883 77.548 16.9902 77.4419 16.8823 77.2519L14.1944 72.5409C14.0573 72.3333 13.8623 72.1225 13.6331 71.9454L12.1223 70.7772C11.8662 70.579 11.8189 70.2106 12.017 69.9548C12.2157 69.698 12.5833 69.6509 12.8394 69.8493L14.3504 71.0175C14.6833 71.2751 14.9675 71.5819 15.1946 71.9298L17.9007 76.6711C18.0615 76.9525 17.9636 77.3101 17.682 77.4709C17.5904 77.5233 17.4904 77.548 17.3923 77.548V77.548Z" fill="#66509E"/>
<path d="M25.4857 64.0762C25.4502 64.0762 25.4141 64.0728 25.3778 64.0662C24.4447 63.8928 21.342 63.2847 20.6236 62.7291L16.7668 59.9486C16.5044 59.7591 16.4447 59.3931 16.6344 59.1302C16.8231 58.8681 17.1891 58.8076 17.4525 58.9978L21.3254 61.7897C21.6699 62.0557 23.8047 62.5818 25.592 62.9133C25.9104 62.972 26.1207 63.2781 26.0615 63.5965C26.0091 63.8789 25.7625 64.0762 25.4857 64.0762V64.0762Z" fill="#66509E"/>
<path d="M33.4744 87.2323C33.1334 87.2323 32.8223 87.1994 32.5781 87.1515C32.0489 87.0489 31.0733 86.7328 29.6783 86.2115C29.3749 86.0978 29.2207 85.7602 29.3341 85.457C29.4476 85.1533 29.7839 85.0002 30.0886 85.1123C31.7515 85.7339 32.4818 85.9381 32.802 86.0007C33.4357 86.1236 34.8833 86.1125 35.3023 85.2941C35.4555 84.9915 35.5178 84.6541 35.4818 84.3199C35.4473 83.9978 35.6802 83.7089 36.0018 83.6741C36.3289 83.6468 36.6133 83.8725 36.6476 84.1944C36.7083 84.7544 36.6044 85.3189 36.3473 85.8254C35.7807 86.9349 34.4939 87.2323 33.4744 87.2323V87.2323Z" fill="#66509E"/>
<path d="M36.0938 84.845C35.799 84.845 35.5451 84.6231 35.5114 84.3234C35.4759 84.0018 35.708 83.7115 36.0296 83.6763C36.6125 83.6108 37.119 83.2602 37.3853 82.7379C37.5635 82.3868 37.6185 81.9994 37.5443 81.6181C37.4822 81.3 37.6896 80.9923 38.0072 80.9302C38.3272 80.8637 38.6327 81.0752 38.6951 81.3931C38.8203 82.0339 38.7288 82.6823 38.4303 83.2702C37.984 84.1455 37.1348 84.7323 36.1593 84.841C36.1375 84.8437 36.1154 84.845 36.0938 84.845Z" fill="#66509E"/>
<path d="M38.1452 82.1097C37.822 82.1097 37.5596 81.8487 37.5586 81.5252C37.5575 81.2013 37.8194 80.9381 38.1431 80.9368C38.8033 80.935 39.3986 80.5695 39.6962 79.9847C39.8762 79.6342 39.9302 79.2468 39.8541 78.8629C39.791 78.5455 39.9978 78.2371 40.3152 78.1737C40.6315 78.1168 40.9412 78.3179 41.0044 78.6352C41.1323 79.2805 41.041 79.9316 40.741 80.5179C40.2433 81.4955 39.2489 82.1063 38.1468 82.1097C38.1462 82.1097 38.1454 82.1097 38.1452 82.1097V82.1097Z" fill="#66509E"/>
<path d="M40.4203 79.2975C40.1006 79.2975 39.839 79.0407 39.8343 78.7196C39.8298 78.3962 40.0885 78.1301 40.4119 78.1249C41.0611 78.1151 41.6464 77.7517 41.9398 77.1762C42.1669 76.7315 42.1906 76.2291 42.0064 75.7612C41.8498 75.3641 41.5514 75.0304 41.1667 74.8217C39.9595 74.1701 35.7995 71.743 35.623 71.6394C35.3432 71.4765 35.2488 71.1175 35.4122 70.838C35.5751 70.5583 35.934 70.4633 36.2138 70.6273C36.2567 70.6523 40.5338 73.1478 41.7245 73.7904C42.3524 74.1312 42.8395 74.678 43.0972 75.3312C43.4019 76.1049 43.3606 76.972 42.984 77.7091C42.493 78.673 41.514 79.2815 40.4293 79.2975C40.4267 79.2975 40.4232 79.2975 40.4203 79.2975V79.2975Z" fill="#66509E"/>
<path d="M40.4053 79.2878C40.3058 79.2878 40.2053 79.2625 40.1127 79.2088L34.6287 76.0359C34.3487 75.8736 34.2524 75.5146 34.415 75.2349C34.5769 74.9541 34.935 74.8578 35.2161 75.0207L40.6995 78.1938C40.98 78.3562 41.0758 78.7149 40.9137 78.9949C40.805 79.183 40.6082 79.2878 40.4053 79.2878V79.2878Z" fill="#66509E"/>
<path d="M38.106 82.0999C38.0071 82.0999 37.9071 82.0746 37.8147 82.0222L32.2865 78.8491C32.0057 78.6875 31.9089 78.3293 32.0702 78.0488C32.2307 77.767 32.5889 77.6712 32.8705 77.8314L38.3986 81.0046C38.6794 81.1662 38.7763 81.5246 38.615 81.8051C38.5068 81.9946 38.3094 82.0999 38.106 82.0999V82.0999Z" fill="#66509E"/>
<path d="M36.1003 84.8538C36.0011 84.8538 35.9008 84.8285 35.8085 84.7756L30.294 81.6025C30.0132 81.4406 29.9166 81.0827 30.0785 80.8019C30.2398 80.5209 30.5974 80.4246 30.879 80.5862L36.3937 83.7593C36.6743 83.9209 36.7708 84.2788 36.6093 84.5596C36.5008 84.7485 36.3035 84.8538 36.1003 84.8538V84.8538Z" fill="#66509E"/>
<path d="M113.436 82.0011C113.436 94.4429 103.349 104.529 90.9073 104.529C78.4652 104.529 68.3789 94.4429 68.3789 82.0011C68.3789 69.5587 78.4652 59.4727 90.9073 59.4727C103.349 59.4727 113.436 69.5587 113.436 82.0011V82.0011Z" fill="white"/>
<path d="M90.9077 60.0594C78.8088 60.0594 68.9659 69.9025 68.9659 82.0015C68.9659 94.1001 78.8088 103.944 90.9077 103.944C103.007 103.944 112.85 94.1001 112.85 82.0015C112.85 69.9025 103.007 60.0594 90.9077 60.0594ZM90.9077 105.116C78.1624 105.116 67.793 94.7467 67.793 82.0015C67.793 69.2559 78.1624 58.8867 90.9077 58.8867C103.653 58.8867 114.022 69.2559 114.022 82.0015C114.022 94.7467 103.653 105.116 90.9077 105.116Z" fill="#66509E"/>
<path d="M64.2721 89.6101C64.0074 89.6101 63.7674 89.4295 63.7029 89.1608C63.1508 86.8648 62.8711 84.4903 62.8711 82.1027C62.8711 66.2319 75.1829 53.3203 90.3158 53.3203C92.0364 53.3203 93.7572 53.4879 95.4314 53.819C95.7487 53.8816 95.9556 54.19 95.8927 54.5077C95.8303 54.8256 95.5219 55.0324 95.2037 54.969C93.6048 54.6532 91.9603 54.4929 90.3158 54.4929C75.8295 54.4929 64.0437 66.8785 64.0437 82.1027C64.0437 84.3985 64.3127 86.6806 64.8429 88.8866C64.9187 89.2014 64.7248 89.5182 64.4098 89.5937C64.364 89.6048 64.3179 89.6101 64.2721 89.6101V89.6101Z" fill="#66509E"/>
<path d="M90.3718 110.879C88.1981 110.879 86.0342 110.61 83.9395 110.084C83.6255 110.005 83.435 109.687 83.5139 109.373C83.5929 109.058 83.91 108.868 84.2258 108.947C86.2268 109.45 88.2945 109.705 90.3718 109.705C104.858 109.705 116.644 97.3205 116.644 82.0963C116.644 79.4371 116.284 76.8078 115.577 74.2797C115.489 73.9676 115.671 73.6442 115.983 73.5571C116.294 73.4697 116.618 73.6515 116.706 73.9631C117.443 76.5944 117.817 79.3305 117.817 82.0963C117.817 97.9668 105.504 110.879 90.3718 110.879V110.879Z" fill="#66509E"/>
<path d="M80.332 63.1641C80.6186 64.323 81.451 65.5891 83.8162 64.7375C87.7789 63.3117 88.0783 66.747 87.552 68.898C86.7599 72.1362 90.5241 72.3743 90.5241 72.3743L80.332 63.1641Z" fill="white"/>
<path d="M90.5255 72.9611C90.5128 72.9611 90.5007 72.9603 90.4881 72.9597C90.4026 72.9545 88.3926 72.8124 87.3965 71.4571C86.862 70.7303 86.7231 69.8221 86.9831 68.7584C87.2841 67.5279 87.2623 65.9924 86.5341 65.3371C86.0315 64.8853 85.1839 64.8689 84.0155 65.2895C82.8702 65.7013 81.9081 65.7061 81.156 65.3034C80.4783 64.9411 79.9968 64.25 79.7633 63.3047C79.6857 62.9903 79.8773 62.6721 80.192 62.5947C80.5068 62.5189 80.8241 62.7095 80.9018 63.0234C81.0557 63.6461 81.327 64.0653 81.7091 64.27C82.1568 64.5092 82.7994 64.4808 83.6183 64.1861C85.2247 63.6074 86.4697 63.7024 87.3186 64.4655C88.4799 65.5103 88.4949 67.5121 88.1223 69.0374C87.9465 69.7561 88.017 70.3192 88.3386 70.7592C89.0068 71.6732 90.5478 71.7882 90.5633 71.7895C90.8857 71.8116 91.1302 72.0905 91.1089 72.4126C91.0886 72.7232 90.8315 72.9611 90.5255 72.9611V72.9611Z" fill="#66509E"/>
<path d="M72.1576 79.2188C71.0745 79.3887 70.2895 79.8832 69.7266 80.453L72.1576 79.2188Z" fill="white"/>
<path d="M69.7269 81.0388C69.5779 81.0388 69.429 80.9827 69.3147 80.8695C69.0845 80.6419 69.0824 80.2709 69.3097 80.0406C70.0613 79.2798 70.9892 78.8085 72.0674 78.639C72.3868 78.593 72.6869 78.808 72.7371 79.1269C72.7874 79.4472 72.569 79.7472 72.2487 79.7974C71.4237 79.9269 70.7155 80.2864 70.1437 80.8643C70.029 80.9806 69.8779 81.0388 69.7269 81.0388Z" fill="#66509E"/>
<path d="M78.557 64.2773C79.0157 64.9989 79.4262 66.1537 79.0443 67.7592C78.3362 70.731 75.5341 70.5823 78.5062 72.395C81.4783 74.2073 80.8117 77.0373 80.0251 77.9908C78.327 80.051 76.638 79.6747 74.0625 79.2589L78.557 64.2773V64.2773Z" fill="white"/>
<path d="M76.7871 80.1708C76.0071 80.1708 75.1795 80.0356 74.2818 79.8887L73.9695 79.8377C73.6497 79.7861 73.4324 79.4853 73.4842 79.1653C73.5358 78.8458 73.8353 78.6253 74.1563 78.6803L74.471 78.7316C76.8489 79.1193 78.1592 79.3343 79.5732 77.6182C79.8637 77.2664 80.2339 76.3787 80.0653 75.3743C79.8984 74.3824 79.2713 73.5482 78.2016 72.8961C77.1297 72.2427 76.6795 71.7737 76.5947 71.2224C76.5032 70.6253 76.8805 70.1929 77.2805 69.7348C77.7034 69.2503 78.2305 68.6469 78.4742 67.6242C78.8153 66.1898 78.4387 65.1837 78.0626 64.5929C77.8887 64.3192 77.9692 63.9569 78.2424 63.7835C78.516 63.609 78.8784 63.69 79.0518 63.9632C79.5495 64.7453 80.0511 66.0624 79.6147 67.8956C79.3039 69.2003 78.6179 69.9861 78.1634 70.5064C77.9966 70.6971 77.7682 70.9592 77.7539 71.054C77.7592 71.0674 77.8387 71.3014 78.8116 71.8953C80.5224 72.9382 81.0663 74.2571 81.2216 75.1798C81.4421 76.49 81.0066 77.7237 80.4776 78.3643C79.3153 79.775 78.1213 80.1708 76.7871 80.1708V80.1708Z" fill="#66509E"/>
<path d="M106.519 91.5129C104.53 91.3534 102.78 91.3111 101.61 91.9482C99.5717 93.0577 99.4964 96.3063 97.6096 97.8911C95.7225 99.4753 93.6849 97.0987 95.4207 90.9974C96.8546 85.9569 91.6467 83.8269 88.4464 86.1077C88.0704 86.375 87.6604 86.7363 87.3633 87.2929L106.519 91.5129V91.5129Z" fill="white"/>
<path d="M96.4796 98.9548C96.1399 98.9548 95.8107 98.8598 95.5123 98.6664C94.3357 97.904 93.5462 95.4479 94.8567 90.8393C95.3836 88.9877 94.947 87.4048 93.6586 86.4958C92.2552 85.5053 90.2523 85.543 88.7875 86.5872C88.5009 86.7906 88.1399 87.0853 87.8812 87.5711C87.7291 87.8569 87.3738 87.9653 87.0878 87.8122C86.802 87.6595 86.6941 87.3045 86.8465 87.0187C87.2252 86.3095 87.7475 85.8874 88.1075 85.6322C89.9704 84.3048 92.5312 84.2653 94.3344 85.5377C96.0549 86.7514 96.6565 88.8006 95.9849 91.1598C94.7662 95.4451 95.5596 97.2998 96.1496 97.6819C96.5236 97.9251 96.9452 97.6856 97.2333 97.4437C98.0096 96.7922 98.4499 95.7932 98.9159 94.7361C99.4825 93.4511 100.068 92.1224 101.33 91.4351C102.696 90.6922 104.666 90.7782 106.566 90.9301C106.889 90.9561 107.13 91.2385 107.104 91.5614C107.078 91.8843 106.801 92.1245 106.473 92.0993C104.824 91.9666 102.974 91.8753 101.891 92.4656C100.98 92.9616 100.498 94.0529 99.9888 95.2087C99.4891 96.3429 98.9725 97.5143 97.987 98.3419C97.5038 98.7477 96.9802 98.9548 96.4796 98.9548V98.9548Z" fill="#66509E"/>
<path d="M110.245 91.7893C109.543 91.7562 108.846 91.6996 108.164 91.6406L110.245 91.7893Z" fill="white"/>
<path d="M110.245 92.3751C110.236 92.3751 110.226 92.3751 110.217 92.3745C109.508 92.3409 108.803 92.2843 108.114 92.2245C107.791 92.1961 107.552 91.9122 107.58 91.5898C107.608 91.2677 107.892 91.0361 108.215 91.0559C108.889 91.1138 109.578 91.1706 110.272 91.203C110.596 91.2188 110.846 91.4927 110.83 91.8166C110.816 92.1303 110.556 92.3751 110.245 92.3751V92.3751Z" fill="#66509E"/>
<path d="M98.6121 86.8995C97.2534 88.4056 97.2156 90.7029 99.5553 90.3861C101.895 90.0692 99.97 85.3937 98.6121 86.8995Z" fill="white"/>
<path d="M98.6121 86.8996H98.6187H98.6121ZM99.199 87.1888C99.1634 87.1888 99.12 87.2122 99.0476 87.2922V87.2927C98.3166 88.1022 98.1216 89.0435 98.355 89.4851C98.5468 89.8485 99.0705 89.8606 99.4768 89.8051C99.7187 89.7727 99.9761 89.6759 100.049 89.209C100.166 88.4585 99.6903 87.4117 99.2626 87.2083C99.2405 87.1977 99.2213 87.1888 99.199 87.1888V87.1888ZM99.135 91.0025C98.0129 91.0025 97.52 90.4154 97.3179 90.0327C96.8132 89.0764 97.1666 87.6272 98.1768 86.5067C98.6174 86.0185 99.2113 85.884 99.7666 86.1496C100.698 86.5932 101.398 88.168 101.208 89.3901C101.069 90.2759 100.496 90.8506 99.634 90.9675C99.4555 90.9914 99.2892 91.0025 99.135 91.0025V91.0025Z" fill="#66509E"/>
<path d="M93.2231 57.5879C93.0775 57.5879 92.932 57.5342 92.8186 57.4257C92.5841 57.2026 92.5752 56.8315 92.7986 56.5971L95.0036 54.2829L92.7986 51.9673C92.5752 51.7331 92.5841 51.3618 92.8186 51.1386C93.0528 50.9147 93.4239 50.9242 93.6473 51.1586L96.2381 53.8786C96.4539 54.105 96.4539 54.461 96.2381 54.6873L93.6473 57.4058C93.5323 57.5268 93.3778 57.5879 93.2231 57.5879Z" fill="#66509E"/>
<path d="M85.9087 113.155C85.716 113.155 85.5281 113.061 85.416 112.887L83.3563 109.708C83.1853 109.445 83.2524 109.095 83.5079 108.913L86.5379 106.75C86.801 106.562 87.1674 106.623 87.3552 106.886C87.5434 107.15 87.4821 107.516 87.2184 107.704L84.645 109.542L86.4 112.25C86.576 112.521 86.4984 112.884 86.2266 113.061C86.1281 113.126 86.0179 113.155 85.9087 113.155V113.155Z" fill="#66509E"/>
<path d="M107.357 55.6103C114.159 56.8882 119.322 63.1311 119.322 70.6395C119.322 79.0716 112.811 85.9077 104.778 85.9077C96.7457 85.9077 90.2344 79.0716 90.2344 70.6395C90.2344 62.2069 96.7457 55.3711 104.778 55.3711L107.357 55.6103V55.6103Z" fill="white"/>
<path d="M104.779 86.4949C96.4358 86.4949 89.6484 79.3825 89.6484 70.6402C89.6484 61.8981 96.4358 54.7852 104.779 54.7852C105.102 54.7852 105.365 55.0478 105.365 55.3717C105.365 55.6954 105.102 55.9581 104.779 55.9581C97.0824 55.9581 90.8211 62.5446 90.8211 70.6402C90.8211 78.7362 97.0824 85.322 104.779 85.322C112.475 85.322 118.736 78.7362 118.736 70.6402C118.736 63.5159 113.906 57.4378 107.249 56.1875C106.931 56.1275 106.722 55.8209 106.781 55.5025C106.841 55.1849 107.15 54.9754 107.466 55.0346C114.676 56.3888 119.909 62.9523 119.909 70.6402C119.909 79.3825 113.122 86.4949 104.779 86.4949V86.4949Z" fill="#66509E"/>
<path d="M110.358 77.389V70.1232C110.358 69.0293 110.196 68.3032 109.829 67.4414L100.138 67.4504C99.8294 68.2572 99.6094 69.1253 99.6094 70.123V77.3414L110.358 77.389V77.389Z" fill="#EE445B"/>
<path d="M110.358 77.9763C110.034 77.9763 109.772 77.7136 109.772 77.3897V70.1239C109.772 69.3023 109.677 68.6984 109.432 68.0286L100.551 68.0368C100.31 68.762 100.196 69.4339 100.196 70.1236V77.342C100.196 77.6657 99.9337 77.9284 99.6098 77.9284C99.2858 77.9284 99.0234 77.6657 99.0234 77.342V70.1236C99.0234 69.1681 99.2037 68.2523 99.5908 67.241C99.6779 67.0147 99.8955 66.8647 100.138 66.8644L109.828 66.8555C109.829 66.8555 109.829 66.8555 109.829 66.8555C110.063 66.8555 110.276 66.9957 110.368 67.2118C110.783 68.1828 110.944 68.9994 110.944 70.1239V77.3897C110.944 77.7136 110.682 77.9763 110.358 77.9763Z" fill="#66509E"/>
<path d="M113.036 83.1952V81.3486C113.036 79.0073 111.227 77.1094 108.998 77.1094H107.124H102.813H100.951C98.7214 77.1094 96.9141 79.007 96.9141 81.3486V83.4594C96.9141 83.4594 99.3359 85.7641 104.785 85.8957C110.234 86.0273 113.036 83.1952 113.036 83.1952Z" fill="#807DBB"/>
<path d="M113.036 83.1961H113.043H113.036ZM97.5008 83.1837C98.1402 83.6732 100.48 85.2061 104.8 85.31C109.222 85.4369 111.79 83.4995 112.45 82.9369V81.349C112.45 79.335 110.902 77.6969 108.998 77.6969L100.952 77.6963C99.0489 77.6963 97.5008 79.335 97.5008 81.349V83.1837V83.1837ZM105.155 86.4874C105.029 86.4874 104.901 86.4855 104.771 86.4829C99.1605 86.3471 96.6158 83.9848 96.5102 83.8845C96.3939 83.7742 96.3281 83.6203 96.3281 83.4598V81.349C96.3281 78.6879 98.4023 76.5234 100.952 76.5234L108.998 76.5242C111.548 76.5242 113.623 78.6884 113.623 81.349V83.1961C113.623 83.3505 113.562 83.4987 113.453 83.6087C113.334 83.729 110.54 86.4874 105.155 86.4874Z" fill="#66509E"/>
<path d="M107.107 74.2969V77.1179V77.1121C107.107 77.9398 104.962 81.6085 104.962 81.6085C104.962 81.6085 102.773 77.7803 102.773 77.1295L102.808 77.1179V74.2969H107.107V74.2969Z" fill="white"/>
<path d="M104.963 82.1952C104.961 82.1952 104.96 82.1952 104.96 82.1952C104.75 82.1938 104.558 82.0815 104.454 81.8996C103.608 80.4199 102.188 77.8317 102.188 77.1296C102.188 77.0612 102.2 76.9946 102.222 76.9317V74.2975C102.222 73.9733 102.484 73.7109 102.808 73.7109C103.132 73.7109 103.395 73.9733 103.395 74.2975V77.1186C103.395 77.1562 103.391 77.193 103.384 77.2294C103.525 77.6923 104.221 79.0641 104.967 80.4178C105.772 78.9691 106.504 77.4828 106.521 77.1104V74.2975C106.521 73.9733 106.784 73.7109 107.108 73.7109C107.431 73.7109 107.694 73.9733 107.694 74.2975V77.1186C107.694 77.1309 107.694 77.1433 107.693 77.1557C107.645 78.0899 106.127 80.7786 105.469 81.9049C105.364 82.0846 105.171 82.1952 104.963 82.1952V82.1952Z" fill="#66509E"/>
<path d="M100.137 64.3945V67.4353C100.137 67.8835 102.301 68.2472 104.973 68.2472C107.644 68.2472 109.81 67.8835 109.81 67.4353V64.458L100.137 64.3945Z" fill="#807DBB"/>
<path d="M104.973 68.8341C101.375 68.8341 99.5508 68.3636 99.5508 67.436V64.3952C99.5508 64.0712 99.8131 63.8086 100.137 63.8086C100.461 63.8086 100.723 64.0712 100.723 64.3952V67.206C101.178 67.392 102.647 67.6615 104.973 67.6615C107.3 67.6615 108.769 67.392 109.224 67.206V64.4586C109.224 64.1346 109.487 63.8723 109.811 63.8723C110.134 63.8723 110.397 64.1346 110.397 64.4586V67.436C110.397 68.3636 108.572 68.8341 104.973 68.8341Z" fill="#66509E"/>
<path d="M112.683 63.3516L105.033 66.1768L97.3828 63.3516L105.033 60.5273L112.683 63.3516Z" fill="#807DBB"/>
<path d="M99.0758 63.3517L105.034 65.552L110.991 63.3517L105.034 61.1523L99.0758 63.3517ZM105.034 66.7631C104.965 66.7631 104.896 66.7507 104.831 66.7267L97.1803 63.9017C96.9498 63.8167 96.7969 63.5973 96.7969 63.3517C96.7969 63.1065 96.9498 62.887 97.1803 62.802L104.831 59.9775C104.962 59.9294 105.105 59.9294 105.236 59.9775L112.887 62.802C113.117 62.887 113.27 63.1065 113.27 63.3517C113.27 63.5973 113.117 63.8167 112.887 63.9017L105.236 66.7267C105.171 66.7507 105.102 66.7631 105.034 66.7631Z" fill="#66509E"/>
<path d="M112.735 67.876C112.411 67.876 112.148 67.6134 112.148 67.2897V63.3405C112.148 63.0163 112.411 62.7539 112.735 62.7539C113.059 62.7539 113.322 63.0163 113.322 63.3405V67.2897C113.322 67.6134 113.059 67.876 112.735 67.876Z" fill="#66509E"/>
<path d="M100.96 70.7518C102.536 70.4526 103.888 69.1829 104.493 68.2031H105.556C105.959 68.7708 106.526 70.04 109.14 70.3615L109.142 70.3852C108.936 72.9734 107.174 74.995 105.03 74.995C102.988 74.995 101.291 73.1587 100.957 70.7465L100.96 70.7518Z" fill="white"/>
<path d="M101.634 71.1832C102.079 73.0809 103.448 74.4085 105.031 74.4085C106.72 74.4085 108.143 72.9132 108.495 70.8535C106.409 70.4498 105.658 69.4156 105.244 68.7898H104.808C104.129 69.7496 102.973 70.7517 101.634 71.1832ZM105.031 75.5814C102.716 75.5814 100.758 73.5819 100.377 70.8272C100.338 70.5485 100.503 70.2811 100.77 70.1911C100.821 70.1746 100.872 70.1646 100.923 70.1614C102.246 69.8803 103.438 68.798 103.995 67.8953C104.101 67.7225 104.29 67.6172 104.494 67.6172H105.557C105.747 67.6172 105.925 67.709 106.036 67.8643C106.079 67.9261 106.125 67.9956 106.175 68.0711C106.555 68.6496 107.129 69.524 109.212 69.7801C109.485 69.8138 109.699 70.0325 109.725 70.3067C109.728 70.3403 109.73 70.3982 109.727 70.4322C109.493 73.3677 107.474 75.5814 105.031 75.5814V75.5814Z" fill="#66509E"/>
<path d="M79.9877 77.1674C76.5635 76.5411 72.9337 77.1724 69.9293 79.0693C65.7698 81.6956 63.1798 86.3403 62.8977 91.2258C62.8798 91.5377 62.8711 91.8503 62.8711 92.1627C62.8711 100.595 69.3824 107.431 77.4148 107.431C85.4474 107.431 91.959 100.595 91.959 92.1627C91.959 87.0892 89.4845 82.1448 85.2498 79.2969C83.645 78.2174 81.8466 77.5071 79.9877 77.1674Z" fill="white"/>
<path d="M77.3799 77.5199C74.8483 77.5199 72.3796 78.2199 70.243 79.5693C66.348 82.028 63.7581 86.5091 63.4838 91.2635C63.4667 91.5641 63.4578 91.8654 63.4578 92.1672C63.4578 100.263 69.7191 106.849 77.4154 106.849C85.1123 106.849 91.3733 100.263 91.3733 92.1672C91.3733 87.2067 88.902 82.463 84.9233 79.7878C83.4088 78.7688 81.7131 78.083 79.8828 77.748C79.0486 77.5954 78.2104 77.5199 77.3799 77.5199V77.5199ZM77.4154 108.022C69.0725 108.022 62.2852 100.91 62.2852 92.1672C62.2852 91.8435 62.2946 91.5201 62.3131 91.1964C62.6133 85.9925 65.3438 81.2756 69.617 78.5778C72.7041 76.6285 76.4241 75.9243 80.0938 76.5949C82.0836 76.9585 83.9283 77.7054 85.5775 78.8141C89.876 81.7056 92.5462 86.822 92.5462 92.1672C92.5462 100.91 85.7586 108.022 77.4154 108.022V108.022Z" fill="#66509E"/>
<path d="M82.9945 98.8932V91.6272C82.9945 90.5332 82.8335 89.8072 82.4653 88.9453L72.775 88.9543C72.4661 89.7611 72.2461 90.6295 72.2461 91.6272V98.8453L82.9945 98.8932Z" fill="#EE445B"/>
<path d="M82.9952 99.4802C82.6715 99.4802 82.4088 99.2178 82.4088 98.8936V91.6275C82.4088 90.806 82.3141 90.202 82.0688 89.5323L73.1886 89.5404C72.9467 90.2667 72.8331 90.9383 72.8331 91.6275V98.846C72.8331 99.1699 72.5707 99.4323 72.2465 99.4323C71.9228 99.4323 71.6602 99.1699 71.6602 98.846V91.6275C71.6602 90.6725 71.841 89.7567 72.2281 88.7454C72.3152 88.5186 72.5325 88.3683 72.7752 88.3683L82.4654 88.3594C82.4657 88.3594 82.4657 88.3594 82.466 88.3594C82.7007 88.3594 82.9133 88.4996 83.0052 88.7157C83.4199 89.686 83.5817 90.5028 83.5817 91.6275V98.8936C83.5817 99.2178 83.3194 99.4802 82.9952 99.4802Z" fill="#66509E"/>
<path d="M85.6729 104.699V102.853C85.6729 100.511 83.8645 98.6135 81.6345 98.6135H79.761L75.45 98.6133H73.5884C71.3582 98.6133 69.5508 100.511 69.5508 102.852V104.963C69.5508 104.963 71.9726 107.268 77.4218 107.4C82.871 107.531 85.6729 104.699 85.6729 104.699V104.699Z" fill="#807DBB"/>
<path d="M85.6733 104.7H85.6796H85.6733ZM70.1375 104.688C70.7769 105.177 73.1167 106.71 77.4367 106.814C81.8583 106.938 84.4269 105.003 85.0867 104.441V102.853C85.0867 100.839 83.5385 99.2008 81.6346 99.2008L73.5888 99.2002C71.6859 99.2002 70.1375 100.839 70.1375 102.853V104.688ZM77.7922 107.992C77.6654 107.992 77.5383 107.989 77.4083 107.987C71.7972 107.851 69.2525 105.489 69.147 105.388C69.0306 105.278 68.9648 105.124 68.9648 104.964V102.853C68.9648 100.192 71.0391 98.0273 73.5888 98.0273L81.6346 98.0281C84.1851 98.0281 86.2598 100.193 86.2598 102.853V104.7C86.2598 104.854 86.1985 105.003 86.0898 105.113C85.9714 105.233 83.1775 107.992 77.7922 107.992V107.992Z" fill="#66509E"/>
<path d="M79.7438 95.8008V98.6221V98.616C79.7438 99.4439 77.5988 103.112 77.5988 103.112C77.5988 103.112 75.4102 99.2842 75.4102 98.6334L75.4444 98.6221V95.8008H79.7438Z" fill="white"/>
<path d="M77.5992 103.699C77.5982 103.699 77.5971 103.699 77.5963 103.699C77.3871 103.698 77.1942 103.585 77.09 103.404C76.244 101.924 74.8242 99.3359 74.8242 98.6335C74.8242 98.5651 74.8363 98.4988 74.8587 98.4359V95.8014C74.8587 95.4775 75.1211 95.2148 75.445 95.2148C75.769 95.2148 76.0313 95.4775 76.0313 95.8014V98.6227C76.0313 98.6604 76.0279 98.6969 76.0208 98.7333C76.1616 99.1962 76.8574 100.568 77.6032 101.922C78.4087 100.473 79.1408 98.9867 79.1579 98.6143V95.8014C79.1579 95.4775 79.4205 95.2148 79.7442 95.2148C80.0682 95.2148 80.3308 95.4775 80.3308 95.8014V98.6227C80.3308 98.6351 80.3305 98.6472 80.3295 98.6596C80.2819 99.5938 78.764 102.282 78.1055 103.409C78 103.589 77.8074 103.699 77.5992 103.699V103.699Z" fill="#66509E"/>
<path d="M72.7734 85.8984V88.9392C72.7734 89.3874 74.9382 89.7511 77.6095 89.7511C80.2805 89.7511 82.4469 89.3874 82.4469 88.9392V85.9619L72.7734 85.8984Z" fill="#807DBB"/>
<path d="M77.6099 90.338C74.0117 90.338 72.1875 89.868 72.1875 88.9404V85.8991C72.1875 85.5751 72.4499 85.3125 72.7738 85.3125C73.0978 85.3125 73.3601 85.5751 73.3601 85.8991V88.7104C73.8151 88.8959 75.2841 89.1654 77.6099 89.1654C79.9364 89.1654 81.4057 88.8959 81.8609 88.7104V85.9625C81.8609 85.6386 82.1236 85.3762 82.4472 85.3762C82.7712 85.3762 83.0338 85.6386 83.0338 85.9625V88.9404C83.0338 89.868 81.2088 90.338 77.6099 90.338V90.338Z" fill="#66509E"/>
<path d="M85.3786 84.8555L77.7284 87.6807L70.0781 84.8555L77.7284 82.0312L85.3786 84.8555V84.8555Z" fill="#807DBB"/>
<path d="M71.7711 84.8552L77.7288 87.0554L83.6864 84.8552L77.7288 82.6565L71.7711 84.8552ZM77.7288 88.267C77.6601 88.267 77.5911 88.2547 77.5259 88.231L69.8756 85.4054C69.6451 85.3202 69.4922 85.101 69.4922 84.8552C69.4922 84.6097 69.6451 84.3904 69.8756 84.3052L77.5259 81.4812C77.6569 81.4333 77.8006 81.4333 77.9319 81.4812L85.5819 84.3052C85.8124 84.3904 85.9653 84.6097 85.9653 84.8552C85.9653 85.101 85.8124 85.3202 85.5819 85.4054L77.9319 88.231C77.8664 88.2547 77.7977 88.267 77.7288 88.267Z" fill="#66509E"/>
<path d="M85.3717 89.3802C85.0478 89.3802 84.7852 89.1178 84.7852 88.7939V84.8444C84.7852 84.5204 85.0478 84.2578 85.3717 84.2578C85.6954 84.2578 85.958 84.5204 85.958 84.8444V88.7939C85.958 89.1178 85.6954 89.3802 85.3717 89.3802Z" fill="#66509E"/>
<path d="M73.5966 92.2557C75.173 91.9565 76.5248 90.6868 77.1298 89.707H78.1932C78.5959 90.2749 79.163 91.5439 81.7769 91.8655L81.7793 91.8891C81.573 94.4776 79.8109 96.4989 77.6669 96.4989C75.6245 96.4989 73.9277 94.6626 73.5938 92.2504L73.5966 92.2557V92.2557Z" fill="white"/>
<path d="M74.2712 92.6874C74.716 94.5848 76.0844 95.9127 77.6678 95.9127C79.3565 95.9127 80.7799 94.4166 81.1315 92.3577C79.046 91.954 78.2947 90.9198 77.881 90.2937H77.4449C76.7654 91.2537 75.6094 92.2561 74.2712 92.6874V92.6874ZM77.6678 97.0853C75.3523 97.0853 73.3949 95.0858 73.0133 92.3311C72.9749 92.0521 73.1402 91.7853 73.4073 91.6956C73.4575 91.6782 73.5089 91.6685 73.5604 91.6658C74.8818 91.3842 76.0744 90.3021 76.6315 89.3995C76.7383 89.2264 76.9273 89.1211 77.1304 89.1211H78.1941C78.3841 89.1211 78.562 89.2135 78.6723 89.3679C78.716 89.43 78.762 89.4998 78.8115 89.5748C79.1912 90.1537 79.7657 91.0277 81.8491 91.2837C82.1223 91.3174 82.3352 91.5366 82.3615 91.8106C82.3647 91.844 82.3668 91.9024 82.3644 91.9358C82.1302 94.8716 80.1112 97.0853 77.6678 97.0853V97.0853Z" fill="#66509E"/>
<path d="M41.3649 17.0985H33.7914C33.4672 17.0985 33.2049 16.8361 33.2049 16.5122V11.1924H28.1254C27.8017 11.1924 27.5391 10.9298 27.5391 10.6061C27.5391 10.2822 27.8017 10.0195 28.1254 10.0195H33.7914C34.1151 10.0195 34.3775 10.2822 34.3775 10.6061V15.9258H41.3649C41.6885 15.9258 41.9512 16.1882 41.9512 16.5122C41.9512 16.8361 41.6885 17.0985 41.3649 17.0985Z" fill="#66509E"/>
<path d="M23.4375 10.6391C23.4375 12.5991 25.0267 14.1877 26.9867 14.1877C28.9467 14.1877 30.5357 12.5991 30.5357 10.6391C30.5357 8.67879 28.9467 7.08984 26.9867 7.08984C25.0267 7.08984 23.4375 8.67879 23.4375 10.6391Z" fill="#807DBB"/>
<path d="M26.9868 7.6768C25.3531 7.6768 24.0242 9.00575 24.0242 10.6392C24.0242 12.2729 25.3531 13.6015 26.9868 13.6015C28.6208 13.6015 29.9497 12.2729 29.9497 10.6392C29.9497 9.00575 28.6208 7.6768 26.9868 7.6768V7.6768ZM26.9868 14.7744C24.7063 14.7744 22.8516 12.9194 22.8516 10.6392C22.8516 8.35917 24.7063 6.50391 26.9868 6.50391C29.2671 6.50391 31.1224 8.35917 31.1224 10.6392C31.1224 12.9194 29.2671 14.7744 26.9868 14.7744Z" fill="#66509E"/>
<path d="M33.7914 44.286H28.1254C27.8017 44.286 27.5391 44.0236 27.5391 43.6997C27.5391 43.3757 27.8017 43.1133 28.1254 43.1133H33.2049V37.7933C33.2049 37.4697 33.4672 37.207 33.7914 37.207H41.3649C41.6885 37.207 41.9512 37.4697 41.9512 37.7933C41.9512 38.1173 41.6885 38.3799 41.3649 38.3799H34.3775V43.6997C34.3775 44.0236 34.1151 44.286 33.7914 44.286Z" fill="#66509E"/>
<path d="M23.4375 43.6857C23.4375 41.7254 25.0267 40.1367 26.9867 40.1367C28.9467 40.1367 30.5357 41.7254 30.5357 43.6857C30.5357 45.6457 28.9467 47.2346 26.9867 47.2346C25.0267 47.2346 23.4375 45.6457 23.4375 43.6857Z" fill="#807DBB"/>
<path d="M26.9868 40.7234C25.3531 40.7234 24.0242 42.0524 24.0242 43.686C24.0242 45.32 25.3531 46.6487 26.9868 46.6487C28.6208 46.6487 29.9497 45.32 29.9497 43.686C29.9497 42.0524 28.6208 40.7234 26.9868 40.7234ZM26.9868 47.8216C24.7063 47.8216 22.8516 45.9663 22.8516 43.686C22.8516 41.4058 24.7063 39.5508 26.9868 39.5508C29.2671 39.5508 31.1224 41.4058 31.1224 43.686C31.1224 45.9663 29.2671 47.8216 26.9868 47.8216Z" fill="#66509E"/>
<path d="M36.621 33.1065H27.5397C27.2158 33.1065 26.9531 32.8439 26.9531 32.5199C26.9531 32.1962 27.2158 31.9336 27.5397 31.9336H36.621C36.9452 31.9336 37.2076 32.1962 37.2076 32.5199C37.2076 32.8439 36.9452 33.1065 36.621 33.1065Z" fill="#66509E"/>
<path d="M21.8555 32.4943C21.8555 34.4543 23.4442 36.0432 25.4047 36.0432C27.3647 36.0432 28.9534 34.4543 28.9534 32.4943C28.9534 30.5343 27.3647 28.9453 25.4047 28.9453C23.4442 28.9453 21.8555 30.5343 21.8555 32.4943Z" fill="#EE445B"/>
<path d="M25.4051 29.5323C23.7711 29.5323 22.4419 30.8612 22.4419 32.4949C22.4419 34.1286 23.7711 35.4575 25.4051 35.4575C27.0387 35.4575 28.3674 34.1286 28.3674 32.4949C28.3674 30.8612 27.0387 29.5323 25.4051 29.5323ZM25.4051 36.6304C23.1245 36.6304 21.2695 34.7752 21.2695 32.4949C21.2695 30.2146 23.1245 28.3594 25.4051 28.3594C27.6853 28.3594 29.5401 30.2146 29.5401 32.4949C29.5401 34.7752 27.6853 36.6304 25.4051 36.6304Z" fill="#66509E"/>
<path d="M36.7965 21.7979H27.715C27.3913 21.7979 27.1289 21.5353 27.1289 21.2116C27.1289 20.8876 27.3913 20.625 27.715 20.625H36.7965C37.1205 20.625 37.3829 20.8876 37.3829 21.2116C37.3829 21.5353 37.1205 21.7979 36.7965 21.7979Z" fill="#66509E"/>
<path d="M22.0312 21.244C22.0312 23.204 23.6202 24.7929 25.5802 24.7929C27.5405 24.7929 29.1291 23.204 29.1291 21.244C29.1291 19.284 27.5405 17.6953 25.5802 17.6953C23.6202 17.6953 22.0312 19.284 22.0312 21.244Z" fill="#807DBB"/>
<path d="M25.5808 18.2234C23.9469 18.2234 22.6182 19.5526 22.6182 21.1863C22.6182 22.82 23.9469 24.1489 25.5808 24.1489C27.2145 24.1489 28.5435 22.82 28.5435 21.1863C28.5435 19.5526 27.2145 18.2234 25.5808 18.2234V18.2234ZM25.5808 25.3218C23.3006 25.3218 21.4453 23.4666 21.4453 21.1863C21.4453 18.906 23.3006 17.0508 25.5808 17.0508C27.8611 17.0508 29.7164 18.906 29.7164 21.1863C29.7164 23.4666 27.8611 25.3218 25.5808 25.3218Z" fill="#66509E"/>
<path d="M83.9222 17.0985H76.348C76.0244 17.0985 75.7617 16.8361 75.7617 16.5122C75.7617 16.1882 76.0244 15.9258 76.348 15.9258H83.3357V10.6061C83.3357 10.2822 83.598 10.0195 83.9222 10.0195H89.5878C89.9117 10.0195 90.1741 10.2822 90.1741 10.6061C90.1741 10.9298 89.9117 11.1924 89.5878 11.1924H84.5086V16.5122C84.5086 16.8361 84.2459 17.0985 83.9222 17.0985Z" fill="#66509E"/>
<path d="M94.2854 10.6391C94.2854 12.5991 92.6962 14.1877 90.7364 14.1877C88.7764 14.1877 87.1875 12.5991 87.1875 10.6391C87.1875 8.67879 88.7764 7.08984 90.7364 7.08984C92.6962 7.08984 94.2854 8.67879 94.2854 10.6391Z" fill="#807DBB"/>
<path d="M90.7371 7.6768C89.1034 7.6768 87.7745 9.00575 87.7745 10.6392C87.7745 12.2729 89.1034 13.6015 90.7371 13.6015C92.3705 13.6015 93.6995 12.2729 93.6995 10.6392C93.6995 9.00575 92.3705 7.6768 90.7371 7.6768V7.6768ZM90.7371 14.7744C88.4568 14.7744 86.6016 12.9194 86.6016 10.6392C86.6016 8.35917 88.4568 6.50391 90.7371 6.50391C93.0171 6.50391 94.8724 8.35917 94.8724 10.6392C94.8724 12.9194 93.0171 14.7744 90.7371 14.7744Z" fill="#66509E"/>
<path d="M89.5878 44.286H83.9222C83.598 44.286 83.3357 44.0236 83.3357 43.6997V38.3799H76.348C76.0244 38.3799 75.7617 38.1173 75.7617 37.7933C75.7617 37.4697 76.0244 37.207 76.348 37.207H83.9222C84.2459 37.207 84.5086 37.4697 84.5086 37.7933V43.1133H89.5878C89.9117 43.1133 90.1741 43.3757 90.1741 43.6997C90.1741 44.0236 89.9117 44.286 89.5878 44.286Z" fill="#66509E"/>
<path d="M94.2854 43.6857C94.2854 41.7254 92.6962 40.1367 90.7364 40.1367C88.7764 40.1367 87.1875 41.7254 87.1875 43.6857C87.1875 45.6457 88.7764 47.2346 90.7364 47.2346C92.6962 47.2346 94.2854 45.6457 94.2854 43.6857Z" fill="#EE445B"/>
<path d="M90.7371 40.7234C89.1034 40.7234 87.7745 42.0524 87.7745 43.686C87.7745 45.32 89.1034 46.6487 90.7371 46.6487C92.3705 46.6487 93.6995 45.32 93.6995 43.686C93.6995 42.0524 92.3705 40.7234 90.7371 40.7234ZM90.7371 47.8216C88.4568 47.8216 86.6016 45.9663 86.6016 43.686C86.6016 41.4058 88.4568 39.5508 90.7371 39.5508C93.0171 39.5508 94.8724 41.4058 94.8724 43.686C94.8724 45.9663 93.0171 47.8216 90.7371 47.8216Z" fill="#66509E"/>
<path d="M90.2346 33.1065H81.153C80.829 33.1065 80.5664 32.8439 80.5664 32.5199C80.5664 32.1962 80.829 31.9336 81.153 31.9336H90.2346C90.5585 31.9336 90.8209 32.1962 90.8209 32.5199C90.8209 32.8439 90.5585 33.1065 90.2346 33.1065Z" fill="#66509E"/>
<path d="M95.9263 32.4943C95.9263 34.4543 94.3373 36.0432 92.3773 36.0432C90.4171 36.0432 88.8281 34.4543 88.8281 32.4943C88.8281 30.5343 90.4171 28.9453 92.3773 28.9453C94.3373 28.9453 95.9263 30.5343 95.9263 32.4943Z" fill="#807DBB"/>
<path d="M92.3777 29.5323C90.744 29.5323 89.4151 30.8612 89.4151 32.4949C89.4151 34.1286 90.744 35.4575 92.3777 35.4575C94.0114 35.4575 95.3403 34.1286 95.3403 32.4949C95.3403 30.8612 94.0114 29.5323 92.3777 29.5323ZM92.3777 36.6304C90.0975 36.6304 88.2422 34.7752 88.2422 32.4949C88.2422 30.2146 90.0975 28.3594 92.3777 28.3594C94.658 28.3594 96.5132 30.2146 96.5132 32.4949C96.5132 34.7752 94.658 36.6304 92.3777 36.6304Z" fill="#66509E"/>
<path d="M89.9997 21.7979H80.9183C80.5947 21.7979 80.332 21.5353 80.332 21.2116C80.332 20.8876 80.5947 20.625 80.9183 20.625H89.9997C90.3234 20.625 90.586 20.8876 90.586 21.2116C90.586 21.5353 90.3234 21.7979 89.9997 21.7979Z" fill="#66509E"/>
<path d="M95.7502 21.244C95.7502 23.204 94.1613 24.7929 92.2013 24.7929C90.2413 24.7929 88.6523 23.204 88.6523 21.244C88.6523 19.284 90.2413 17.6953 92.2013 17.6953C94.1613 17.6953 95.7502 19.284 95.7502 21.244Z" fill="#EE445B"/>
<path d="M92.2017 18.2234C90.568 18.2234 89.239 19.5526 89.239 21.1863C89.239 22.82 90.568 24.1489 92.2017 24.1489C93.8356 24.1489 95.1646 22.82 95.1646 21.1863C95.1646 19.5526 93.8356 18.2234 92.2017 18.2234V18.2234ZM92.2017 25.3218C89.9217 25.3218 88.0664 23.4666 88.0664 21.1863C88.0664 18.906 89.9217 17.0508 92.2017 17.0508C94.4819 17.0508 96.3372 18.906 96.3372 21.1863C96.3372 23.4666 94.4819 25.3218 92.2017 25.3218Z" fill="#66509E"/>
<path d="M81.6057 26.506C81.6057 39.1383 71.3649 49.3791 58.7325 49.3791C46.1002 49.3791 35.8594 39.1383 35.8594 26.506C35.8594 13.8736 46.1002 3.63281 58.7325 3.63281C71.3649 3.63281 81.6057 13.8736 81.6057 26.506V26.506Z" fill="white"/>
<path d="M58.7332 4.21951C46.444 4.21951 36.4463 14.2174 36.4463 26.5061C36.4463 38.7956 46.444 48.7935 58.7332 48.7935C71.0221 48.7935 81.0197 38.7956 81.0197 26.5061C81.0197 14.2174 71.0221 4.21951 58.7332 4.21951V4.21951ZM58.7332 49.9661C45.7974 49.9661 35.2734 39.4421 35.2734 26.5061C35.2734 13.5708 45.7974 3.04688 58.7332 3.04688C71.6684 3.04688 82.1924 13.5708 82.1924 26.5061C82.1924 39.4421 71.6684 49.9661 58.7332 49.9661Z" fill="#66509E"/>
<path d="M67.6064 35.3523V23.3973C67.6064 21.5973 67.3414 20.4028 66.7361 18.9844L50.7921 18.9994C50.2837 20.327 49.9219 21.7557 49.9219 23.397V35.2733L67.6064 35.3523V35.3523Z" fill="#EE445B"/>
<path d="M67.6067 35.9397C67.2828 35.9397 67.0204 35.6773 67.0204 35.3534V23.3984C67.0204 21.8962 66.8341 20.8199 66.3433 19.5723L51.2012 19.5865C50.7296 20.9197 50.5088 22.1402 50.5088 23.3981V35.2747C50.5088 35.5983 50.2462 35.8607 49.9223 35.8607C49.5983 35.8607 49.3359 35.5983 49.3359 35.2747V23.3981C49.3359 21.8749 49.6249 20.411 50.2449 18.791C50.332 18.5641 50.5491 18.4144 50.7917 18.4141L66.7359 18.3991C66.9694 18.3868 67.1836 18.5389 67.2757 18.7552C67.9357 20.3018 68.193 21.6036 68.193 23.3984V35.3534C68.193 35.6773 67.9307 35.9397 67.6067 35.9397V35.9397Z" fill="#66509E"/>
<path d="M71.9948 44.935V41.8969C71.9948 38.0445 69.0195 34.9221 65.3503 34.9221H62.268L55.1751 34.9219H52.1119C48.4427 34.9219 45.4688 38.0442 45.4688 41.8966V45.3698C45.4688 45.3698 49.454 49.1616 58.4193 49.3782C67.3848 49.5948 71.9948 44.935 71.9948 44.935Z" fill="#807DBB"/>
<path d="M71.9944 44.9362H72.0007H71.9944ZM46.0557 45.0994C46.9181 45.7951 50.8662 48.6096 58.4341 48.7928C66.081 48.9623 70.5115 45.4696 71.4086 44.6788V41.897C71.4086 38.3749 68.691 35.5091 65.351 35.5091L52.1123 35.5086C48.7725 35.5086 46.0557 38.3744 46.0557 41.8967V45.0994V45.0994ZM59.0318 49.9725C58.8252 49.9725 58.617 49.9699 58.4054 49.9649C49.3186 49.7454 45.2347 45.9559 45.0652 45.7946C44.9489 45.6841 44.8828 45.5307 44.8828 45.3701V41.8967C44.8828 37.728 48.126 34.3359 52.1123 34.3359L65.351 34.3362C69.3378 34.3362 72.5815 37.7283 72.5815 41.897V44.9354C72.5815 45.0899 72.5204 45.238 72.4118 45.348C72.221 45.5409 67.7339 49.9725 59.0318 49.9725V49.9725Z" fill="#66509E"/>
<path d="M62.267 30.293V34.9348V34.9248C62.267 36.2869 58.7378 42.323 58.7378 42.323C58.7378 42.323 55.1367 36.0243 55.1367 34.9535L55.1933 34.9348V30.293H62.267Z" fill="white"/>
<path d="M58.7379 42.9099C58.7371 42.9099 58.736 42.9099 58.735 42.9099C58.5258 42.9089 58.3329 42.7962 58.2287 42.6144C57.366 41.1052 54.5508 36.0923 54.5508 34.9544C54.5508 34.8655 54.5708 34.7799 54.6074 34.7031V30.2936C54.6074 29.9697 54.87 29.707 55.1937 29.707C55.5176 29.707 55.7803 29.9697 55.7803 30.2936V34.9355C55.7803 34.9976 55.7705 35.0576 55.7518 35.1147C55.9663 35.9349 57.3387 38.6265 58.7426 41.1399C60.0992 38.7426 61.6813 35.6602 61.6813 34.9255V30.2936C61.6813 29.9697 61.9437 29.707 62.2676 29.707C62.5916 29.707 62.8542 29.9697 62.8542 30.2936V34.9355C62.8542 34.9449 62.8537 34.9544 62.8534 34.9636C62.8021 36.4626 59.8416 41.5976 59.2442 42.6197C59.1387 42.7994 58.946 42.9099 58.7379 42.9099V42.9099Z" fill="#66509E"/>
<path d="M50.8008 13.9453V18.9485C50.8008 19.6858 54.3626 20.284 58.7581 20.284C63.1526 20.284 66.7166 19.6858 66.7166 18.9485V14.0501L50.8008 13.9453V13.9453Z" fill="#807DBB"/>
<path d="M58.7583 20.8707C56.1896 20.8707 50.2148 20.6833 50.2148 18.9486V13.9454C50.2148 13.6217 50.4775 13.3594 50.8012 13.3594C51.1251 13.3594 51.3877 13.6217 51.3877 13.9454V18.8062C51.8935 19.1425 54.3777 19.6981 58.7583 19.6981C63.1396 19.6981 65.6246 19.1425 66.1304 18.8062V14.0502C66.1304 13.726 66.393 13.4636 66.7169 13.4636C67.0406 13.4636 67.3033 13.726 67.3033 14.0502V18.9486C67.3033 20.6833 61.3275 20.8707 58.7583 20.8707V20.8707Z" fill="#66509E"/>
<path d="M71.4633 12.2646L58.8762 16.9125L46.2891 12.2646L58.8762 7.61719L71.4633 12.2646Z" fill="#807DBB"/>
<path d="M47.9826 12.2646L58.8768 16.2875L69.7713 12.2646L58.8768 8.24224L47.9826 12.2646V12.2646ZM58.8768 17.4988C58.8079 17.4988 58.7392 17.4864 58.6736 17.4622L46.0863 12.8143C45.856 12.7293 45.7031 12.5099 45.7031 12.2646C45.7031 12.0193 45.856 11.7996 46.0863 11.7149L58.6736 7.06776C58.8052 7.01908 58.9484 7.01908 59.0797 7.06776L71.6671 11.7149C71.8973 11.7996 72.0505 12.0193 72.0505 12.2646C72.0505 12.5099 71.8973 12.7293 71.6671 12.8143L59.0797 17.4622C59.0144 17.4864 58.9458 17.4988 58.8768 17.4988V17.4988Z" fill="#66509E"/>
<path d="M71.4848 19.3309C71.1608 19.3309 70.8984 19.0686 70.8984 18.7446V12.2465C70.8984 11.9228 71.1608 11.6602 71.4848 11.6602C71.8087 11.6602 72.0713 11.9228 72.0713 12.2465V18.7446C72.0713 19.0686 71.8087 19.3309 71.4848 19.3309V19.3309Z" fill="#66509E"/>
<path d="M52.1532 24.4663C54.7466 23.9742 56.9711 21.885 57.9663 20.2734H59.7158C60.3787 21.2069 61.3111 23.2953 65.6124 23.824L65.6163 23.8634C65.2766 28.1221 62.3771 31.4476 58.85 31.4476C55.4898 31.4476 52.6976 28.4269 52.1484 24.4579L52.1532 24.4663Z" fill="white"/>
<path d="M52.8191 24.9141C53.4988 28.3914 55.9696 30.862 58.8504 30.862C61.9178 30.862 64.4841 28.0859 64.9783 24.3259C61.2828 23.7175 60.0912 21.9043 59.437 20.9086C59.4262 20.8922 59.4157 20.8762 59.4051 20.8601H58.2857C57.1735 22.5086 55.1504 24.277 52.8191 24.9141V24.9141ZM58.8504 32.0346C55.2317 32.0346 52.1691 28.882 51.568 24.5391C51.5293 24.2575 51.6972 23.9891 51.967 23.9012C52.0236 23.8825 52.0812 23.8733 52.1383 23.872C54.4354 23.397 56.5051 21.5246 57.4678 19.9659C57.5743 19.7928 57.7633 19.6875 57.9667 19.6875H59.7164C59.9064 19.6875 60.0846 19.7796 60.1946 19.9346C60.2646 20.0333 60.3375 20.1441 60.4164 20.2643C61.0804 21.2738 62.0828 22.8001 65.6843 23.2428C65.9588 23.2764 66.172 23.4972 66.197 23.7722C66.2001 23.8051 66.2035 23.878 66.2009 23.9109C65.8317 28.542 62.6717 32.0346 58.8504 32.0346V32.0346Z" fill="#66509E"/>
</g>
<defs>
<clipPath id="clip0_165_9876">
<rect width="120" height="120" fill="white"/>
</clipPath>
</defs>
</svg>
