<svg width="120" height="120" viewBox="0 0 120 120" fill="none" xmlns="http://www.w3.org/2000/svg">
<g clip-path="url(#clip0_165_8916)">
<path d="M6.18993 74.8877C5.94004 74.8877 5.71117 74.722 5.64437 74.4696C5.06663 72.3207 4.60878 70.115 4.28354 67.9141C4.23764 67.6049 4.45166 67.3178 4.76094 67.2721C5.07022 67.2251 5.35736 67.4403 5.403 67.7496C5.72107 69.9071 6.17014 72.0684 6.73674 74.1752C6.81715 74.477 6.639 74.7875 6.33715 74.868C6.28766 74.8816 6.23806 74.8877 6.18993 74.8877V74.8877ZM11.0802 87.1884C10.8786 87.1884 10.6844 87.0807 10.5817 86.8915C9.5263 84.9294 8.57509 82.8882 7.75352 80.8234C7.63859 80.5327 7.78086 80.2036 8.07022 80.0886C8.35983 79.9735 8.68878 80.1146 8.80507 80.4053C9.61055 82.4304 10.5433 84.4321 11.5776 86.3558C11.726 86.6304 11.6233 86.9731 11.3475 87.1216C11.2632 87.1673 11.1704 87.1884 11.0802 87.1884ZM18.6475 98.0515C18.4904 98.0515 18.3347 97.9859 18.2233 97.8597C16.751 96.1921 15.3607 94.4205 14.0877 92.5947C13.9095 92.3385 13.9725 91.9859 14.2287 91.8077C14.4848 91.6284 14.8374 91.6915 15.0155 91.9475C16.2636 93.739 17.6283 95.4758 19.0706 97.1112C19.2786 97.3451 19.2551 97.7026 19.0211 97.9093C18.9136 98.0046 18.78 98.0515 18.6475 98.0515V98.0515ZM28.4864 106.909C28.3726 106.909 28.2587 106.875 28.1586 106.804C26.3461 105.516 24.5882 104.107 22.9343 102.618C22.7016 102.409 22.6831 102.051 22.8921 101.818C23.1012 101.587 23.4588 101.569 23.6901 101.776C25.3132 103.237 27.0364 104.619 28.8143 105.882C29.0691 106.063 29.1285 106.417 28.9479 106.672C28.8378 106.826 28.6632 106.909 28.4864 106.909V106.909Z" fill="#66509E"/>
<path d="M113.463 34.496C113.254 34.496 113.054 34.381 112.955 34.1805C111.991 32.2259 110.901 30.3034 109.717 28.47C109.548 28.2065 109.623 27.8577 109.886 27.6882C110.148 27.5187 110.499 27.5942 110.667 27.8564C111.875 29.7269 112.986 31.6865 113.969 33.6808C114.108 33.9603 113.993 34.3006 113.712 34.4379C113.633 34.4775 113.547 34.496 113.463 34.496V34.496ZM117.909 46.9649C117.652 46.9649 117.419 46.7867 117.359 46.5257C116.869 44.4028 116.248 42.2836 115.514 40.2263C115.409 39.9319 115.563 39.6078 115.857 39.5038C116.151 39.3987 116.474 39.5521 116.579 39.8465C117.328 41.9434 117.961 44.1059 118.461 46.2721C118.53 46.5764 118.341 46.8795 118.037 46.95C117.994 46.9599 117.952 46.9649 117.909 46.9649V46.9649ZM119.373 60.1203C119.058 60.1191 118.805 59.8643 118.808 59.5513L118.809 59.2766C118.808 57.1822 118.691 55.0692 118.461 52.9958C118.427 52.6865 118.651 52.4069 118.961 52.3723C119.269 52.3364 119.551 52.5616 119.584 52.8721C119.819 54.9851 119.94 57.1414 119.94 59.2766L119.938 59.5587C119.937 59.8692 119.684 60.1203 119.373 60.1203V60.1203ZM117.806 73.2671C117.762 73.2671 117.719 73.2622 117.674 73.2523C117.37 73.1793 117.183 72.875 117.255 72.5707C117.757 70.4539 118.143 68.2791 118.402 66.1067C118.439 65.7962 118.718 65.5735 119.03 65.6119C119.34 65.649 119.561 65.9298 119.525 66.2403C119.26 68.4548 118.867 70.6729 118.355 72.8317C118.294 73.0927 118.062 73.2671 117.806 73.2671ZM113.281 85.71C113.196 85.71 113.109 85.6902 113.029 85.6494C112.749 85.5096 112.637 85.1694 112.777 84.8911C113.754 82.9401 114.629 80.9125 115.373 78.8614C115.48 78.5682 115.805 78.416 116.098 78.5224C116.391 78.63 116.544 78.9542 116.436 79.2473C115.676 81.3393 114.785 83.409 113.787 85.3983C113.688 85.595 113.489 85.71 113.281 85.71V85.71ZM106.02 96.7797C105.892 96.7797 105.764 96.7364 105.658 96.6486C105.418 96.4483 105.386 96.0919 105.587 95.8519C106.987 94.1756 108.303 92.4016 109.498 90.5793C109.67 90.3183 110.02 90.2453 110.281 90.416C110.542 90.588 110.615 90.9381 110.445 91.1991C109.225 93.0585 107.883 94.8671 106.455 96.5768C106.342 96.7104 106.182 96.7797 106.02 96.7797V96.7797ZM96.4258 105.901C96.2538 105.901 96.0843 105.823 95.973 105.676C95.7849 105.426 95.8357 105.072 96.0856 104.884C97.8287 103.57 99.5136 102.143 101.095 100.641C101.321 100.426 101.679 100.434 101.895 100.661C102.109 100.887 102.1 101.246 101.874 101.461C100.262 102.993 98.5436 104.449 96.766 105.787C96.6633 105.864 96.5445 105.901 96.4258 105.901V105.901Z" fill="#66509E"/>
<path d="M56.1281 2.63698C55.841 2.63698 55.5949 2.41802 55.5664 2.12606C55.5355 1.81554 55.7631 1.53843 56.0737 1.50874C58.2831 1.29101 60.5285 1.2007 62.7638 1.23905C63.0756 1.24523 63.3244 1.50255 63.3194 1.81554C63.3133 2.12729 63.0621 2.37472 62.7442 2.37101C60.552 2.33265 58.3511 2.42173 56.1836 2.63327C56.1652 2.63575 56.1467 2.63698 56.1281 2.63698V2.63698ZM75.8811 4.1042C75.8353 4.1042 75.7883 4.09802 75.7425 4.08688C73.6319 3.5574 71.4609 3.1442 69.2921 2.85843C68.9828 2.8176 68.7652 2.5343 68.806 2.22379C68.8469 1.91451 69.1325 1.69554 69.4407 1.7376C71.6514 2.02832 73.8645 2.45018 76.0172 2.98956C76.3201 3.06503 76.5046 3.37307 76.429 3.67616C76.3648 3.93224 76.1335 4.1042 75.8811 4.1042ZM43.1928 5.44771C42.9578 5.44771 42.7376 5.29925 42.6572 5.0642C42.557 4.76977 42.7141 4.44812 43.0097 4.34668C45.1153 3.62544 47.2852 3.02049 49.4588 2.54791C49.7631 2.47987 50.0649 2.6741 50.1318 2.97966C50.1974 3.28523 50.0044 3.58585 49.6988 3.65265C47.5673 4.11657 45.4407 4.70915 43.3759 5.41678C43.3152 5.43781 43.2533 5.44771 43.1928 5.44771Z" fill="#66509E"/>
<path d="M19.6814 54.9846C22.0888 31.7207 42.8997 14.813 66.1635 17.2205C89.4275 19.6291 106.335 40.4399 103.928 63.7038C101.519 86.9677 80.7083 103.874 57.4443 101.467C34.1805 99.0592 17.2741 78.2485 19.6814 54.9846V54.9846Z" fill="#EDEAF3"/>
<path d="M6.00586 51.8565L10.8021 41.7072C11.4442 40.3488 13.0859 39.7587 14.4677 40.3897L14.4973 40.402C15.8805 41.033 16.4805 42.6437 15.8397 44.002L11.0434 54.1525L6.00586 51.8565V51.8565Z" fill="white"/>
<path d="M11.0511 54.7547C10.9705 54.7547 10.8876 54.7374 10.8098 54.7003C10.5278 54.5667 10.4078 54.2302 10.54 53.9469L15.3363 43.7976C15.5801 43.2842 15.6061 42.7077 15.4105 42.1757C15.2115 41.6314 14.8069 41.1984 14.2713 40.9535C13.1418 40.4388 11.8317 40.9077 11.3231 41.9852L6.52569 52.1357C6.3932 52.4178 6.05546 52.539 5.77353 52.4042C5.49023 52.2718 5.37023 51.9341 5.50371 51.652L10.3 41.5015C11.0721 39.8685 13.0515 39.1547 14.7117 39.9118C15.5541 40.2953 16.1689 40.9572 16.4733 41.7873C16.7727 42.6062 16.7319 43.492 16.3594 44.2813L11.5631 54.4306C11.4667 54.6347 11.2637 54.7547 11.0511 54.7547V54.7547Z" fill="#66509E"/>
<path d="M10.8105 54.7468L15.2791 45.2903C15.9249 43.9245 17.5752 43.3307 18.967 43.9653C20.3574 44.5987 20.9612 46.2193 20.3167 47.5851L15.8468 57.0416L10.8105 54.7468V54.7468Z" fill="white"/>
<path d="M15.8263 57.5866C15.746 57.5866 15.6632 57.5693 15.5852 57.5322C15.303 57.3985 15.1818 57.0608 15.3155 56.7788L19.784 47.3223C20.0289 46.8051 20.0549 46.2249 19.8582 45.688C19.6578 45.1412 19.2508 44.7033 18.7114 44.4583C17.6029 43.9524 16.2828 44.4249 15.7708 45.5099L11.3011 54.9664C11.1675 55.2497 10.831 55.3709 10.5489 55.2361C10.2656 55.1037 10.1455 54.766 10.2792 54.4839L14.7477 45.0274C15.5234 43.3845 17.5126 42.6682 19.1803 43.4291C19.998 43.8014 20.6152 44.4658 20.9209 45.2996C21.2215 46.1223 21.1818 47.013 20.8071 47.806L16.3386 57.2625C16.2421 57.4666 16.0379 57.5866 15.8263 57.5866V57.5866Z" fill="#66509E"/>
<path d="M15.5566 57.649L19.7628 48.7468C20.4086 47.381 22.06 46.7884 23.4507 47.4218C24.8411 48.0552 25.4461 49.6771 24.8004 51.0429L20.3319 60.4994L15.5566 57.649V57.649Z" fill="white"/>
<path d="M20.3101 61.0429C20.2299 61.0429 20.147 61.0256 20.069 60.9885C19.7868 60.8549 19.6656 60.5184 19.7993 60.2363L24.2678 50.7798C24.5127 50.2627 24.5398 49.6825 24.3433 49.1456C24.1427 48.5975 23.7346 48.1608 23.1952 47.9146C22.0868 47.4099 20.768 47.8812 20.2546 48.9674L16.0471 57.8697C15.9148 58.1518 15.5771 58.273 15.2938 58.1394C15.0116 58.0058 14.8917 57.668 15.0253 57.386L19.2315 48.4837C20.0072 46.8421 21.9965 46.1258 23.6641 46.8854C24.4818 47.2577 25.1004 47.9221 25.4047 48.7571C25.7066 49.5798 25.6656 50.4693 25.2909 51.2623L20.8224 60.7188C20.7259 60.9229 20.5231 61.0429 20.3101 61.0429V61.0429Z" fill="#66509E"/>
<path d="M4.89972 41.2756L1.22302 36.5845C0.332295 35.4476 0.547553 33.8171 1.70549 32.9412C2.86343 32.0665 4.52351 32.2793 5.41436 33.415L7.43073 35.9882L4.89972 41.2756Z" fill="white"/>
<path d="M4.91036 41.8771C4.74199 41.8771 4.57634 41.8029 4.465 41.6606L0.787062 36.9695C0.263763 36.3002 0.0348975 35.4713 0.14364 34.6338C0.253867 33.7913 0.690444 33.0429 1.37333 32.527C2.77387 31.468 4.79036 31.7266 5.86912 33.1023L7.88438 35.6755C8.07725 35.9204 8.03407 36.2767 7.78912 36.4684C7.54294 36.6614 7.18665 36.6181 6.99477 36.372L4.9784 33.8C4.27807 32.9068 2.96686 32.7398 2.05622 33.4289C1.6158 33.7616 1.33498 34.2404 1.26583 34.7798C1.19655 35.3142 1.3424 35.8437 1.67766 36.2717L5.35448 40.9629C5.54747 41.2078 5.50418 41.5641 5.25799 41.7559C5.15531 41.8375 5.0316 41.8771 4.91036 41.8771V41.8771Z" fill="#66509E"/>
<path d="M23.5212 53.681C25.9581 57.4888 25.091 62.5622 21.3896 65.3605L20.9033 65.728C16.9705 68.7008 11.3293 67.9795 8.30218 64.1185L2.00899 56.0896C0.232491 53.8232 0.11979 50.8146 1.48445 48.4801L4.89022 41.2838L7.40391 35.9742L9.26206 32.0476C9.90795 30.6818 11.5581 30.0892 12.9488 30.7226C14.3392 31.356 14.9442 32.9779 14.2983 34.3436L6.59125 50.6525L23.5212 53.681Z" fill="white"/>
<path d="M15.448 68.1579C12.5841 68.1591 9.74971 66.9009 7.8719 64.5047L1.57734 56.4758C-0.291814 54.0919 -0.51833 50.8667 0.997134 48.2539L8.76509 31.8436C9.54076 30.202 11.5287 29.4844 13.1977 30.2453C14.0142 30.6176 14.6327 31.282 14.9382 32.117C15.2389 32.9397 15.1981 33.8292 14.8244 34.6222L7.1159 50.9323C6.98365 51.2143 6.64592 51.3356 6.36373 51.202C6.08179 51.0684 5.96056 50.7306 6.09417 50.4486L13.8013 34.1397C14.0451 33.6226 14.0722 33.0411 13.8756 32.5055C13.6751 31.9574 13.2681 31.5207 12.7288 31.2746C11.6191 30.7698 10.3004 31.2411 9.78695 32.3273L2.00922 48.7587C2.00179 48.7735 1.99437 48.7884 1.98682 48.802C0.692928 51.0164 0.882206 53.7541 2.46819 55.7781L8.76138 63.8069C11.5944 67.4205 16.894 68.0972 20.5758 65.3137L21.0619 64.9463C24.516 62.336 25.3746 57.6399 23.0587 54.0238C22.8905 53.7603 22.9672 53.4115 23.2307 53.2432C23.4942 53.0737 23.8429 53.1517 24.0113 53.4139C26.6476 57.5335 25.6726 62.8791 21.7437 65.8494L21.2573 66.2168C19.5267 67.5245 17.4792 68.1579 15.448 68.1579V68.1579Z" fill="#66509E"/>
<path d="M58.5024 29.3953C58.5024 39.9986 49.6434 48.5941 38.7146 48.5941C27.7849 48.5941 18.9258 39.9986 18.9258 29.3953C18.9258 18.792 27.7849 10.1953 38.7146 10.1953C49.6434 10.1953 58.5024 18.792 58.5024 29.3953V29.3953Z" fill="white"/>
<path d="M57.3047 22.5C57.9503 24.2023 58.3587 26.0171 58.4911 27.9062L57.3047 22.5Z" fill="white"/>
<path d="M58.4994 28.5114C58.2049 28.5114 57.9561 28.2826 57.9351 27.9844C57.8089 26.1857 57.4218 24.4203 56.7847 22.7391C56.6746 22.4471 56.8206 22.1205 57.1126 22.0092C57.4058 21.8991 57.7311 22.0463 57.8423 22.3383C58.5192 24.1234 58.9299 25.9964 59.0635 27.9053C59.0858 28.217 58.8506 28.4879 58.5388 28.509C58.5253 28.5102 58.5117 28.5114 58.4994 28.5114Z" fill="#66509E"/>
<path d="M38.8128 49.2034C27.6208 49.2034 18.5156 40.2566 18.5156 29.2599C18.5156 18.2632 27.6208 9.31641 38.8128 9.31641C41.422 9.31641 43.963 9.79641 46.3642 10.7428C46.6538 10.8566 46.7972 11.1857 46.6822 11.4752C46.5683 11.7659 46.2404 11.9094 45.9486 11.7943C43.681 10.9011 41.2796 10.4471 38.8128 10.4471C28.2443 10.4471 19.6463 18.8867 19.6463 29.2599C19.6463 39.6331 28.2443 48.0727 38.8128 48.0727C40.9518 48.0727 43.0524 47.73 45.0567 47.0521C45.3523 46.9531 45.6739 47.1115 45.7729 47.4071C45.8732 47.7028 45.7147 48.0232 45.4191 48.1234C43.2987 48.8409 41.0755 49.2034 38.8128 49.2034V49.2034Z" fill="#66509E"/>
<path d="M22.5586 18.2812L30.1754 25.7621L22.5586 18.2812V18.2812Z" fill="white"/>
<path d="M30.184 26.3067C30.0418 26.3067 29.8982 26.2523 29.7882 26.1447L22.1712 18.6651C21.9486 18.4461 21.9449 18.0873 22.1639 17.8647C22.3827 17.642 22.7403 17.6383 22.9643 17.8572L30.5811 25.3381C30.8039 25.557 30.8075 25.9146 30.5885 26.1372C30.4773 26.2498 30.3312 26.3067 30.184 26.3067V26.3067Z" fill="#66509E"/>
<path d="M35.6772 20.3373L28.1543 12.9492L35.6772 20.3373Z" fill="white"/>
<path d="M35.6857 20.941C35.5436 20.941 35.3999 20.8878 35.2899 20.7789L27.7671 13.3909C27.5443 13.1719 27.5407 12.8144 27.7596 12.5917C27.9786 12.3678 28.3361 12.3653 28.5588 12.5843L36.0817 19.9723C36.3056 20.1913 36.3081 20.5488 36.0891 20.7715C35.979 20.8853 35.8318 20.941 35.6857 20.941Z" fill="#66509E"/>
<path d="M47.995 28.5437C47.849 26.182 45.8521 24.3115 43.4152 24.3115C40.8828 24.3115 38.8266 26.3305 38.8266 28.8183C38.8266 31.3061 36.7706 33.3251 34.2383 33.3251C31.801 33.3251 29.8044 31.4546 29.6585 29.0929C29.6535 29.0026 29.6484 28.9123 29.6484 28.8183C29.6484 28.723 29.6535 28.634 29.6585 28.5437C29.6869 27.5651 29.8737 26.6261 30.1952 25.7503C31.4696 22.2814 34.8519 19.8047 38.8266 19.8047C43.806 19.8047 47.8526 23.6892 47.995 28.5437V28.5437Z" fill="#EE445B"/>
<path d="M38.8059 20.3495C35.1862 20.3495 31.93 22.5899 30.7066 25.9239C30.3985 26.7627 30.229 27.641 30.203 28.5392C30.198 28.6319 30.1932 28.7136 30.1932 28.7977C30.1932 28.8818 30.198 28.9623 30.2019 29.0427C30.3305 31.1124 32.0945 32.7392 34.2176 32.7392C36.4357 32.7392 38.2406 30.9701 38.2406 28.7977C38.2406 26.0006 40.5528 23.7256 43.3945 23.7256C44.4695 23.7256 45.4728 24.0522 46.3042 24.6138C44.8294 22.0542 42.0336 20.3495 38.8059 20.3495V20.3495ZM34.2176 33.8699C31.4984 33.8699 29.2393 31.7779 29.0724 29.1082C29.0674 29.0018 29.0625 28.9016 29.0625 28.7977C29.0625 28.6926 29.0674 28.5936 29.0724 28.4934C29.102 27.4864 29.2951 26.4868 29.6438 25.5342C31.032 21.7573 34.7135 19.2188 38.8059 19.2188C44.112 19.2188 48.3875 23.2987 48.5396 28.5058C48.5495 28.815 48.3095 29.0736 48.0002 29.0872C47.6996 29.1058 47.4298 28.8658 47.4101 28.5577C47.2815 26.4818 45.5172 24.8563 43.3945 24.8563C41.1763 24.8563 39.3714 26.6241 39.3714 28.7977C39.3714 31.5948 37.0592 33.8699 34.2176 33.8699V33.8699Z" fill="#66509E"/>
<path d="M44.3267 36.0343C42.7928 37.1663 40.8851 37.8368 38.8166 37.8368C33.8372 37.8368 29.7906 33.951 29.6484 29.0978C29.7944 31.4595 31.791 33.33 34.2282 33.33C36.7606 33.33 38.8166 31.311 38.8166 28.8232C38.8166 26.3354 40.8728 24.3164 43.4051 24.3164C45.8421 24.3164 47.839 26.1869 47.9849 28.5486L44.3267 36.0343V36.0343Z" fill="white"/>
<path d="M38.8256 38.3816C33.5197 38.3816 29.2443 34.3016 29.0921 29.0946C29.0822 28.7853 29.3222 28.5268 29.6315 28.5119C29.937 28.4995 30.2017 28.7346 30.2216 29.0426C30.3502 31.1173 32.1142 32.7441 34.2372 32.7441C36.4554 32.7441 38.2603 30.975 38.2603 28.8026C38.2603 26.0055 40.5725 23.7305 43.4142 23.7305C46.1333 23.7305 48.3923 25.8224 48.5593 28.4921C48.5779 28.8039 48.3415 29.0723 48.0298 29.0921C47.7144 29.1094 47.4495 28.8744 47.4298 28.5626C47.3012 26.4868 45.5369 24.8612 43.4142 24.8612C41.196 24.8612 39.3911 26.629 39.3911 28.8026C39.3911 31.5997 37.0789 33.8748 34.2372 33.8748C33.1622 33.8748 32.1589 33.547 31.3276 32.9866C32.8021 35.5461 35.5981 37.2496 38.8256 37.2496C40.7111 37.2496 42.4999 36.6657 44.0005 35.5585C44.2504 35.3729 44.6055 35.4261 44.7911 35.6773C44.9766 35.9284 44.9233 36.2822 44.6709 36.4678C42.9762 37.7197 40.9546 38.3816 38.8256 38.3816V38.3816Z" fill="#66509E"/>
<path d="M53.9044 10.202L55.0661 12.5142C55.1451 12.6738 55.2998 12.7827 55.4779 12.8086L58.0758 13.1798C58.525 13.2429 58.7043 13.7847 58.3791 14.0952L56.4985 15.8952C56.3699 16.0189 56.3118 16.1971 56.3414 16.3715L56.7857 18.9126C56.8624 19.3517 56.3935 19.687 55.9927 19.4791L53.6681 18.2792C53.5084 18.1975 53.3179 18.1975 53.1583 18.2792L50.8338 19.4791C50.4331 19.687 49.9642 19.3517 50.0409 18.9126L50.485 16.3715C50.5147 16.1971 50.4566 16.0189 50.3279 15.8952L48.4475 14.0952C48.122 13.7847 48.3015 13.2429 48.7506 13.1798L51.3486 12.8086C51.5266 12.7827 51.6812 12.6738 51.7605 12.5142L52.9222 10.202C53.1238 9.80245 53.7028 9.80245 53.9044 10.202V10.202Z" fill="#EE445B"/>
<path d="M53.9136 10.1811L53.4076 10.4348L53.9136 10.1811ZM48.8934 13.7106L50.728 15.4661C50.9927 15.7209 51.114 16.0884 51.0509 16.4484L50.6154 18.9399L52.909 17.756C53.2307 17.5902 53.6142 17.5902 53.9357 17.756L56.2293 18.9399L55.7939 16.4471C55.7309 16.0871 55.8521 15.7197 56.1169 15.4661L57.9515 13.7106L55.4066 13.3482C55.0455 13.2962 54.7325 13.071 54.5705 12.7482L53.4187 10.457L52.2755 12.7482C52.1123 13.071 51.7993 13.2962 51.438 13.3482L48.8934 13.7106V13.7106ZM50.5882 20.0867C50.3544 20.0867 50.1231 20.0137 49.9264 19.869C49.5873 19.6191 49.4203 19.2084 49.4934 18.7952L49.9362 16.2529L48.0644 14.4838C47.7589 14.1894 47.6488 13.7576 47.7775 13.3556C47.9086 12.9498 48.2538 12.6591 48.6793 12.5985L51.2784 12.2286L52.4266 9.92754C52.6157 9.55022 52.9981 9.31641 53.4223 9.31641C53.8468 9.31641 54.2289 9.55022 54.4183 9.92754L55.5798 12.2397L58.1655 12.5985C58.5911 12.6591 58.9363 12.9498 59.0674 13.3556C59.1959 13.7576 59.0859 14.1894 58.7791 14.4838L56.8987 16.2838L57.3515 18.7952C57.4245 19.2071 57.2574 19.6191 56.9185 19.869C56.5734 20.1226 56.1231 20.1572 55.7419 19.9605L53.4174 18.7605L51.1027 19.9605C50.9396 20.0447 50.7625 20.0867 50.5882 20.0867V20.0867Z" fill="#66509E"/>
<path d="M31.0043 65.1159C31.0043 66.4841 29.8748 67.5938 28.4806 67.5938C27.0864 67.5938 25.957 66.4841 25.957 65.1159C25.957 63.7464 27.0864 62.6367 28.4806 62.6367C29.8748 62.6367 31.0043 63.7464 31.0043 65.1159Z" fill="white"/>
<path d="M28.4893 63.1815C27.4093 63.1815 26.531 64.0401 26.531 65.0953C26.531 66.1493 27.4093 67.0079 28.4893 67.0079C29.5693 67.0079 30.4478 66.1493 30.4478 65.0953C30.4478 64.0401 29.5693 63.1815 28.4893 63.1815V63.1815ZM28.4893 68.1386C26.7858 68.1386 25.4004 66.7728 25.4004 65.0953C25.4004 63.4165 26.7858 62.0508 28.4893 62.0508C30.1928 62.0508 31.5785 63.4165 31.5785 65.0953C31.5785 66.7728 30.1928 68.1386 28.4893 68.1386Z" fill="#66509E"/>
<path d="M31.0047 65.4658C30.6929 65.4658 30.4395 65.2122 30.4395 64.8993V54.7599C30.4395 53.5784 31.4131 52.6172 32.6105 52.6172C33.8081 52.6172 34.7828 53.5784 34.7828 54.7599V59.0415C34.7828 60.2205 35.764 61.1793 36.9702 61.1793C37.283 61.1793 37.5354 61.4329 37.5354 61.7446C37.5354 62.0576 37.283 62.3112 36.9702 62.3112C35.1405 62.3112 33.6522 60.844 33.6522 59.0415V54.7599C33.6522 54.2019 33.1845 53.7479 32.6105 53.7479C32.0377 53.7479 31.5702 54.2019 31.5702 54.7599V64.8993C31.5702 65.2122 31.3178 65.4658 31.0047 65.4658Z" fill="#66509E"/>
<path d="M49.1519 68.155C46.9425 68.155 45.145 66.3859 45.145 64.2099V54.7459C45.145 53.1946 43.8547 51.9315 42.2687 51.9315C40.6826 51.9315 39.3924 53.1946 39.3924 54.7459V58.1257C39.3924 58.4387 39.1401 58.6911 38.827 58.6911C38.5152 58.6911 38.2617 58.4387 38.2617 58.1257V54.7459C38.2617 52.5711 40.0591 50.8008 42.2687 50.8008C44.4782 50.8008 46.2756 52.5711 46.2756 54.7459V64.2099C46.2756 65.7612 47.5661 67.0243 49.1519 67.0243C50.738 67.0243 52.0282 65.7612 52.0282 64.2099V63.9847C52.0282 63.6717 52.2819 63.4193 52.5937 63.4193C52.9065 63.4193 53.159 63.6717 53.159 63.9847V64.2099C53.159 66.3859 51.3615 68.155 49.1519 68.155V68.155Z" fill="#66509E"/>
<path d="M56.7171 44.4727V45.8706C56.7171 46.6636 56.0628 47.3044 55.2562 47.3044H49.9168C49.1102 47.3044 48.457 46.6636 48.457 45.8706V44.4727H56.7171Z" fill="white"/>
<path d="M55.2649 47.8504H49.9255C48.8083 47.8504 47.9004 46.9523 47.9004 45.85V44.4521C47.9004 44.1403 48.1528 43.8867 48.4657 43.8867C48.7774 43.8867 49.0311 44.1403 49.0311 44.4521V45.85C49.0311 46.33 49.4318 46.7185 49.9255 46.7185H55.2649C55.7585 46.7185 56.1606 46.33 56.1606 45.85V44.4521C56.1606 44.1403 56.413 43.8867 56.7258 43.8867C57.0376 43.8867 57.2913 44.1403 57.2913 44.4521V45.85C57.2913 46.9523 56.382 47.8504 55.2649 47.8504V47.8504Z" fill="#66509E"/>
<path d="M52.8464 63.9602H52.3268C50.9499 63.9602 49.834 62.8431 49.834 61.4662V47.2852H55.3403V61.4662C55.3403 62.8431 54.2233 63.9602 52.8464 63.9602V63.9602Z" fill="#EE445B"/>
<path d="M50.4093 47.8898V61.5042C50.4093 62.5681 51.274 63.4329 52.3367 63.4329H52.8563C53.9201 63.4329 54.785 62.5681 54.785 61.5042V47.8898H50.4093V47.8898ZM52.8563 64.5636H52.3367C50.6505 64.5636 49.2773 63.1916 49.2773 61.5042V47.3244C49.2773 47.0114 49.5308 46.7578 49.8439 46.7578H55.3502C55.662 46.7578 55.9157 47.0114 55.9157 47.3244V61.5042C55.9157 63.1916 54.5436 64.5636 52.8563 64.5636Z" fill="#66509E"/>
<path d="M55.9132 44.5751H49.2402C47.7941 44.5751 46.6113 43.3912 46.6113 41.9462V33.6848C46.6113 32.2386 47.7941 31.0547 49.2402 31.0547H55.9132C57.3594 31.0547 58.5421 32.2386 58.5421 33.6848V41.9462C58.5421 43.3912 57.3594 44.5751 55.9132 44.5751V44.5751Z" fill="#807DBB"/>
<path d="M49.2488 31.6581C48.112 31.6581 47.1854 32.5847 47.1854 33.7228V41.9842C47.1854 43.1212 48.112 44.0478 49.2488 44.0478H55.9218C57.06 44.0478 57.9854 43.1212 57.9854 41.9842V33.7228C57.9854 32.5847 57.06 31.6581 55.9218 31.6581H49.2488ZM55.9218 45.1785H49.2488C47.4873 45.1785 46.0547 43.7447 46.0547 41.9842V33.7228C46.0547 31.9612 47.4873 30.5273 49.2488 30.5273H55.9218C57.6836 30.5273 59.1174 31.9612 59.1174 33.7228V41.9842C59.1174 43.7447 57.6836 45.1785 55.9218 45.1785V45.1785Z" fill="#66509E"/>
<path d="M49.8328 35.2323H46.6199C46.3082 35.2323 46.0547 34.9787 46.0547 34.6669C46.0547 34.3539 46.3082 34.1016 46.6199 34.1016H49.8328C50.1446 34.1016 50.3982 34.3539 50.3982 34.6669C50.3982 34.9787 50.1446 35.2323 49.8328 35.2323Z" fill="#66509E"/>
<path d="M49.8328 38.3976H46.6199C46.3082 38.3976 46.0547 38.144 46.0547 37.8322C46.0547 37.5192 46.3082 37.2656 46.6199 37.2656H49.8328C50.1446 37.2656 50.3982 37.5192 50.3982 37.8322C50.3982 38.144 50.1446 38.3976 49.8328 38.3976Z" fill="#66509E"/>
<path d="M49.8328 41.5616H46.6199C46.3082 41.5616 46.0547 41.308 46.0547 40.9963C46.0547 40.6833 46.3082 40.4297 46.6199 40.4297H49.8328C50.1446 40.4297 50.3982 40.6833 50.3982 40.9963C50.3982 41.308 50.1446 41.5616 49.8328 41.5616Z" fill="#66509E"/>
<path d="M58.5619 35.2323H55.3504C55.0375 35.2323 54.7852 34.9787 54.7852 34.6669C54.7852 34.3539 55.0375 34.1016 55.3504 34.1016H58.5619C58.8751 34.1016 59.1287 34.3539 59.1287 34.6669C59.1287 34.9787 58.8751 35.2323 58.5619 35.2323Z" fill="#66509E"/>
<path d="M58.5619 38.3976H55.3504C55.0375 38.3976 54.7852 38.144 54.7852 37.8322C54.7852 37.5192 55.0375 37.2656 55.3504 37.2656H58.5619C58.8751 37.2656 59.1287 37.5192 59.1287 37.8322C59.1287 38.144 58.8751 38.3976 58.5619 38.3976Z" fill="#66509E"/>
<path d="M58.5619 41.5616H55.3504C55.0375 41.5616 54.7852 41.308 54.7852 40.9963C54.7852 40.6833 55.0375 40.4297 55.3504 40.4297H58.5619C58.8751 40.4297 59.1287 40.6833 59.1287 40.9963C59.1287 41.308 58.8751 41.5616 58.5619 41.5616Z" fill="#66509E"/>
<path d="M67.4751 110.273H56.748V115.113H67.4751V110.273Z" fill="white"/>
<path d="M57.3221 114.586H66.9184V110.877H57.3221V114.586V114.586ZM67.4837 115.716H56.7566C56.4438 115.716 56.1914 115.464 56.1914 115.151V110.311C56.1914 109.998 56.4438 109.746 56.7566 109.746H67.4837C67.7968 109.746 68.0491 109.998 68.0491 110.311V115.151C68.0491 115.464 67.7968 115.716 67.4837 115.716Z" fill="#66509E"/>
<path d="M87.4202 110.459H37.2776C35.4108 110.459 33.8965 108.946 33.8965 107.078V78.8498C33.8965 76.983 35.4108 75.4688 37.2776 75.4688H87.4202C89.2871 75.4688 90.8001 76.983 90.8001 78.8498V107.078C90.8001 108.946 89.2871 110.459 87.4202 110.459Z" fill="white"/>
<path d="M37.2862 76.0721C35.7337 76.0721 34.4706 77.3352 34.4706 78.8878V107.116C34.4706 108.669 35.7337 109.932 37.2862 109.932H87.4288C88.9815 109.932 90.2432 108.669 90.2432 107.116V78.8878C90.2432 77.3352 88.9815 76.0721 87.4288 76.0721H37.2862V76.0721ZM87.4288 111.063H37.2862C35.1102 111.063 33.3398 109.292 33.3398 107.116V78.8878C33.3398 76.7117 35.1102 74.9414 37.2862 74.9414H87.4288C89.605 74.9414 91.3753 76.7117 91.3753 78.8878V107.116C91.3753 109.292 89.605 111.063 87.4288 111.063V111.063Z" fill="#66509E"/>
<path d="M75.8887 118.101V116.246C75.8887 115.536 75.29 114.961 74.5513 114.961H49.7063C48.9679 114.961 48.3691 115.536 48.3691 116.246V118.101H75.8887V118.101Z" fill="#EE445B"/>
<path d="M48.9139 117.515H75.3028V116.226C75.3028 115.829 74.9563 115.506 74.5307 115.506H49.6858C49.2602 115.506 48.9139 115.829 48.9139 116.226V117.515V117.515ZM75.8681 118.646H48.3486C48.0356 118.646 47.7832 118.393 47.7832 118.08V116.226C47.7832 115.205 48.6367 114.375 49.6858 114.375H74.5307C75.5798 114.375 76.4334 115.205 76.4334 116.226V118.08C76.4334 118.393 76.1811 118.646 75.8681 118.646V118.646Z" fill="#66509E"/>
<path d="M67.0991 91.582C67.1029 91.6649 67.1054 91.749 67.1054 91.8332C67.1054 94.6612 64.7201 96.9548 61.7795 96.9548C58.9206 96.9548 56.5875 94.7874 56.4613 92.0682C56.4563 91.9903 56.4551 91.9111 56.4551 91.8332L67.0991 91.582V91.582Z" fill="white"/>
<path d="M61.7882 97.5585C58.6311 97.5585 56.0469 95.1758 55.9046 92.1325C55.8997 92.0496 55.8984 91.9606 55.8984 91.8715C55.8984 91.5597 56.1508 91.3061 56.4638 91.3061C56.7754 91.3061 57.0292 91.5597 57.0292 91.8715C57.0292 91.9395 57.0303 92.0076 57.0341 92.0744C57.1479 94.5177 59.236 96.4278 61.7882 96.4278C64.4135 96.4278 66.5486 94.3841 66.5486 91.8715C66.5486 91.796 66.5463 91.7206 66.5426 91.6463C66.529 91.3346 66.769 91.0698 67.0818 91.055C67.396 91.0451 67.6584 91.2826 67.6733 91.5944C67.6769 91.6859 67.6793 91.7787 67.6793 91.8715C67.6793 95.0076 65.037 97.5585 61.7882 97.5585V97.5585Z" fill="#66509E"/>
<path d="M67.082 92.2004C67.082 92.2004 67.0078 90.7641 66.0415 89.8338L66.2569 89.6977C64.3306 90.0961 61.3579 89.5122 59.8548 89.5493C56.8548 89.6186 56.4651 92.3428 56.4651 92.3428C55.5929 91.2887 55.8441 89.5592 55.8441 89.5592C56.6221 85.134 61.353 85.1711 63.7245 85.8243C67.1141 86.7547 67.1141 83.4961 67.1141 83.4961C67.1141 83.4961 70.1499 90.1146 67.082 92.2004V92.2004Z" fill="#EE445B"/>
<path d="M66.8103 89.8235C67.1048 90.2169 67.2966 90.64 67.4215 91.0173C68.2888 89.5748 67.7939 87.0598 67.2001 85.2486C67.038 85.5233 66.8226 85.7893 66.5358 86.0082C65.7996 86.5686 64.8063 86.6837 63.5828 86.3472C62.0896 85.9365 59.7774 85.8165 58.1729 86.8321C57.224 87.4321 56.6314 88.3761 56.41 89.6354C56.41 89.6354 56.3345 90.202 56.4409 90.833C57.0075 89.9039 58.0665 89.0033 59.849 88.9625C60.4145 88.9476 61.1617 89.0156 61.9535 89.0874C63.3762 89.2161 64.9894 89.3633 66.151 89.1233C66.4195 89.0676 66.6879 89.2123 66.7892 89.466C66.8363 89.5835 66.8426 89.7084 66.8103 89.8235V89.8235ZM56.4731 92.8878C56.3072 92.8878 56.1465 92.8149 56.0376 92.6825C55.017 91.4491 55.2816 89.5377 55.2929 89.4573C55.5749 87.8528 56.3395 86.654 57.5678 85.8759C59.4842 84.6635 62.1675 84.7847 63.8834 85.2573C64.7444 85.4936 65.405 85.4441 65.8455 85.1113C66.5393 84.5868 66.5568 83.4833 66.5568 83.4721C66.5593 83.2074 66.7448 82.9785 67.0033 82.9229C67.2632 82.8672 67.5254 82.9983 67.6356 83.2396C67.7679 83.5266 70.8323 90.3196 67.4078 92.6466C67.2383 92.7629 67.0207 92.7765 66.8376 92.6862C66.6545 92.5947 66.5358 92.4141 66.5246 92.2099C66.5246 92.1989 66.4515 91.0866 65.7612 90.3258C64.5501 90.4581 63.1287 90.3307 61.852 90.2144C61.0925 90.1451 60.3762 90.0808 59.8764 90.0932C57.3836 90.1501 57.0459 92.3101 57.0321 92.4016C57.0012 92.6231 56.8417 92.8062 56.6265 92.8655C56.5756 92.8804 56.5237 92.8878 56.4731 92.8878V92.8878Z" fill="#66509E"/>
<path d="M78.3777 86.2437L78.3431 86.2239C77.0132 85.52 75.3443 85.9963 74.6279 87.2817L67.0073 100.949H57.2255L49.6048 87.2817C48.8885 85.9963 47.2184 85.52 45.8899 86.2239L45.8551 86.2437C44.581 86.9167 44.0825 88.4346 44.7207 89.6903L51.9777 103.951V110.45H72.2552V103.951L79.512 89.6903C80.1505 88.4346 79.6518 86.9167 78.3777 86.2437Z" fill="#807DBB"/>
<path d="M52.5539 109.923H71.7007V103.987C71.7007 103.898 71.7217 103.811 71.7625 103.731L79.0182 89.4711C79.5169 88.4926 79.1247 87.3099 78.1238 86.7816C78.1188 86.7792 78.0843 86.7594 78.0843 86.7594C77.0278 86.2002 75.7016 86.5738 75.1326 87.5957L67.5119 101.262C67.4117 101.441 67.2224 101.553 67.0182 101.553H57.2365C57.031 101.553 56.8418 101.441 56.7416 101.262L49.1222 87.5957C48.5532 86.5738 47.2269 86.2002 46.1655 86.7619L46.1346 86.7792C45.1301 87.3099 44.7379 88.4913 45.2365 89.4711L52.492 103.731C52.533 103.811 52.5539 103.898 52.5539 103.987V109.923V109.923ZM72.2662 111.054H51.9886C51.6769 111.054 51.4233 110.8 51.4233 110.488V104.124L44.2282 89.9845C43.4462 88.448 44.0501 86.6023 45.6014 85.7821L45.6323 85.7647C47.2368 84.9148 49.2435 85.4901 50.1095 87.0452L57.568 100.422H66.6854L74.144 87.0452C75.01 85.4901 77.0178 84.9148 78.6186 85.7623L78.6559 85.7833C80.2058 86.6047 80.8084 88.4493 80.0266 89.9845L72.8315 104.124V110.488C72.8315 110.8 72.5792 111.054 72.2662 111.054Z" fill="#66509E"/>
<path d="M39.6741 81.4453L40.7267 83.4964L43.0811 83.8255L41.3776 85.4214L41.7783 87.6767L39.6741 86.6127L37.571 87.6767L37.9717 85.4214L36.2695 83.8255L38.6225 83.4964L39.6741 81.4453V81.4453Z" fill="#EE445B"/>
<path d="M39.6842 86.0842C39.7709 86.0842 39.8588 86.1052 39.9392 86.1448L41.0327 86.699L40.8299 85.5596C40.7965 85.3703 40.8608 85.1786 41.0006 85.0475L41.8406 84.2594L40.6579 84.0949C40.4749 84.0689 40.3165 83.9563 40.2324 83.793L39.6842 82.7229L39.1351 83.793C39.0508 83.9563 38.8926 84.0689 38.7106 84.0949L37.5281 84.2594L38.3681 85.0475C38.5065 85.1786 38.5708 85.3703 38.5374 85.5596L38.3347 86.699L39.4283 86.146C39.5087 86.1052 39.5965 86.0842 39.6842 86.0842ZM41.7887 88.28C41.7008 88.28 41.613 88.259 41.5325 88.2194L39.6842 87.2842L37.8349 88.2182C37.643 88.3159 37.4141 88.2961 37.2423 88.1675C37.0703 88.04 36.985 87.826 37.0233 87.6157L37.3697 85.6623L35.8914 84.2767C35.733 84.127 35.6736 83.9007 35.7392 83.6928C35.8048 83.485 35.9841 83.3341 36.1994 83.3031L38.2629 83.0149L39.1808 81.226C39.2772 81.0367 39.4716 80.918 39.6842 80.918C39.8958 80.918 40.0901 81.0367 40.1866 81.226L41.1044 83.0149L43.1681 83.3031C43.3832 83.3341 43.5627 83.485 43.6281 83.6928C43.6938 83.9007 43.6356 84.127 43.476 84.2767L41.9977 85.6623L42.3454 87.6157C42.3825 87.826 42.2971 88.04 42.125 88.1675C42.0262 88.2417 41.9074 88.28 41.7887 88.28V88.28Z" fill="#66509E"/>
<path d="M83.7085 78.3398L84.7613 80.391L87.1143 80.72L85.4108 82.3159L85.8128 84.5699L83.7085 83.506L81.6042 84.5699L82.005 82.3159L80.3027 80.72L82.6557 80.391L83.7085 78.3398Z" fill="#EE445B"/>
<path d="M81.5612 81.1539L82.4012 81.942C82.5399 82.0731 82.6042 82.2649 82.5708 82.4529L82.3678 83.5935L83.4626 83.0393C83.6236 82.9589 83.8129 82.9589 83.9724 83.0393L85.0659 83.5935L84.8632 82.4529C84.8298 82.2649 84.8941 82.0731 85.0339 81.942L85.8739 81.1539L84.6912 80.9894C84.5092 80.9634 84.351 80.8509 84.2667 80.6876L83.7176 79.6162L83.1683 80.6876C83.0841 80.8509 82.9258 80.9634 82.7439 80.9894L81.5612 81.1539ZM85.8219 85.1746C85.7341 85.1746 85.6475 85.1535 85.5657 85.1127L83.7176 84.1787L81.8681 85.1127C81.6764 85.2092 81.4474 85.1906 81.2755 85.062C81.1036 84.9346 81.0182 84.7205 81.0566 84.509L81.4042 82.5568L79.9245 81.17C79.7663 81.0216 79.7069 80.7939 79.7723 80.5873C79.838 80.3795 80.0173 80.2273 80.2326 80.1977L82.2961 79.9094L83.2141 78.1193C83.3118 77.9313 83.506 77.8125 83.7176 77.8125C83.9304 77.8125 84.1246 77.9313 84.221 78.1193L85.139 79.9094L87.2013 80.1977C87.4164 80.2273 87.5959 80.3795 87.6614 80.5873C87.7271 80.7939 87.6688 81.0216 87.5092 81.17L86.031 82.5568L86.3786 84.509C86.4157 84.7205 86.3304 84.9346 86.1584 85.062C86.0595 85.1362 85.9407 85.1746 85.8219 85.1746V85.1746Z" fill="#66509E"/>
<path d="M80.0769 100.547L81.1285 102.598L83.4826 102.927L81.7791 104.523L82.1811 106.778L80.0769 105.713L77.9714 106.778L78.3734 104.523L76.6699 102.927L79.024 102.598L80.0769 100.547Z" fill="#EE445B"/>
<path d="M77.8988 103.304L78.7388 104.09C78.8786 104.222 78.9429 104.413 78.9095 104.601L78.7065 105.742L79.8014 105.189C79.961 105.107 80.1502 105.107 80.3111 105.189L81.4047 105.742L81.2017 104.603C81.1683 104.413 81.2327 104.222 81.3712 104.09L82.2126 103.302L81.0299 103.138C80.848 103.112 80.6883 102.999 80.6056 102.836L80.0563 101.766L79.507 102.836C79.4228 102.999 79.2645 103.112 79.0814 103.138L77.8988 103.304V103.304ZM82.1605 107.323C82.074 107.323 81.9862 107.302 81.9058 107.262L80.0563 106.327L78.2067 107.262C78.0151 107.358 77.7862 107.339 77.6141 107.21C77.4423 107.083 77.3569 106.869 77.394 106.657L77.7417 104.705L76.2632 103.318C76.1036 103.17 76.0442 102.944 76.111 102.736C76.1767 102.528 76.356 102.377 76.5713 102.346L78.6347 102.058L79.5528 100.269C79.6493 100.08 79.8434 99.9609 80.0563 99.9609C80.2678 99.9609 80.4619 100.08 80.5586 100.269L81.4776 102.058L83.54 102.346C83.7565 102.377 83.9358 102.528 84.0014 102.736C84.067 102.944 84.0076 103.17 83.8493 103.318L82.3697 104.705L82.7172 106.657C82.7544 106.869 82.6702 107.083 82.4982 107.21C82.3981 107.285 82.2794 107.323 82.1605 107.323V107.323Z" fill="#66509E"/>
<path d="M41.7276 101.538C41.4158 101.538 41.1621 101.284 41.1621 100.972V99.4716C41.1621 99.1586 41.4158 98.9062 41.7276 98.9062C42.0405 98.9062 42.293 99.1586 42.293 99.4716V100.972C42.293 101.284 42.0405 101.538 41.7276 101.538Z" fill="#66509E"/>
<path d="M41.7276 105.054C41.4158 105.054 41.1621 104.801 41.1621 104.488V102.988C41.1621 102.675 41.4158 102.422 41.7276 102.422C42.0405 102.422 42.293 102.675 42.293 102.988V104.488C42.293 104.801 42.0405 105.054 41.7276 105.054Z" fill="#66509E"/>
<path d="M44.3127 102.557H42.7529C42.4411 102.557 42.1875 102.304 42.1875 101.991C42.1875 101.679 42.4411 101.426 42.7529 101.426H44.3127C44.6259 101.426 44.8795 101.679 44.8795 101.991C44.8795 102.304 44.6259 102.557 44.3127 102.557Z" fill="#66509E"/>
<path d="M40.6802 102.557H39.1202C38.8071 102.557 38.5547 102.304 38.5547 101.991C38.5547 101.679 38.8071 101.426 39.1202 101.426H40.6802C40.9919 101.426 41.2454 101.679 41.2454 101.991C41.2454 102.304 40.9919 102.557 40.6802 102.557Z" fill="#66509E"/>
<path d="M57.5478 79.9751C57.236 79.9751 56.9824 79.7215 56.9824 79.4097V77.9091C56.9824 77.5961 57.236 77.3438 57.5478 77.3438C57.8606 77.3438 58.1144 77.5961 58.1144 77.9091V79.4097C58.1144 79.7215 57.8606 79.9751 57.5478 79.9751Z" fill="#66509E"/>
<path d="M57.5478 83.4907C57.236 83.4907 56.9824 83.2371 56.9824 82.9254V81.4247C56.9824 81.113 57.236 80.8594 57.5478 80.8594C57.8606 80.8594 58.1144 81.113 58.1144 81.4247V82.9254C58.1144 83.2371 57.8606 83.4907 57.5478 83.4907Z" fill="#66509E"/>
<path d="M60.1626 80.9354H58.6026C58.2895 80.9354 58.0371 80.6818 58.0371 80.3701C58.0371 80.0571 58.2895 79.8047 58.6026 79.8047H60.1626C60.4743 79.8047 60.7278 80.0571 60.7278 80.3701C60.7278 80.6818 60.4743 80.9354 60.1626 80.9354Z" fill="#66509E"/>
<path d="M56.5004 80.9354H54.9404C54.6274 80.9354 54.375 80.6818 54.375 80.3701C54.375 80.0571 54.6274 79.8047 54.9404 79.8047H56.5004C56.8121 79.8047 57.0657 80.0571 57.0657 80.3701C57.0657 80.6818 56.8121 80.9354 56.5004 80.9354Z" fill="#66509E"/>
<path d="M84.7354 94.5649C84.4223 94.5649 84.1699 94.3113 84.1699 93.9996V92.4991C84.1699 92.1872 84.4223 91.9336 84.7354 91.9336C85.0472 91.9336 85.3008 92.1872 85.3008 92.4991V93.9996C85.3008 94.3113 85.0472 94.5649 84.7354 94.5649Z" fill="#66509E"/>
<path d="M84.7354 98.0232C84.4223 98.0232 84.1699 97.7695 84.1699 97.4565V95.9571C84.1699 95.6441 84.4223 95.3906 84.7354 95.3906C85.0472 95.3906 85.3008 95.6441 85.3008 95.9571V97.4565C85.3008 97.7695 85.0472 98.0232 84.7354 98.0232Z" fill="#66509E"/>
<path d="M87.3498 95.5253H85.79C85.4782 95.5253 85.2246 95.2718 85.2246 94.96C85.2246 94.6469 85.4782 94.3945 85.79 94.3945H87.3498C87.663 94.3945 87.9153 94.6469 87.9153 94.96C87.9153 95.2718 87.663 95.5253 87.3498 95.5253Z" fill="#66509E"/>
<path d="M83.7173 95.5253H82.1573C81.8442 95.5253 81.5918 95.2718 81.5918 94.96C81.5918 94.6469 81.8442 94.3945 82.1573 94.3945H83.7173C84.029 94.3945 84.2825 94.6469 84.2825 94.96C84.2825 95.2718 84.029 95.5253 83.7173 95.5253Z" fill="#66509E"/>
<path d="M99.0096 64.9219H81.0059V69.7107H99.0096V64.9219Z" fill="#EE445B"/>
<path d="M81.5812 69.126H98.4531V65.4679H81.5812V69.126ZM99.0184 70.2568H81.0147C80.7029 70.2568 80.4492 70.0032 80.4492 69.6914V64.9025C80.4492 64.5895 80.7029 64.3359 81.0147 64.3359H99.0184C99.3313 64.3359 99.5837 64.5895 99.5837 64.9025V69.6914C99.5837 70.0032 99.3313 70.2568 99.0184 70.2568Z" fill="#66509E"/>
<path d="M71.1914 52.4254V40.324C71.1914 39.1858 72.1143 38.2617 73.2523 38.2617H106.794C107.934 38.2617 108.857 39.1858 108.857 40.324V62.8766C108.857 64.0159 107.934 64.9388 108.75 64.9388H75.2083C72.1143 64.9388 71.1914 64.0159 71.1914 62.8766V61.3994V52.4254Z" fill="white"/>
<path d="M73.261 38.8077C72.4372 38.8077 71.7655 39.4783 71.7655 40.3034V62.856C71.7655 63.8494 72.9271 64.3517 75.217 64.3517H107.904C107.94 64.2094 107.993 64.0646 108.045 63.9224C108.165 63.5983 108.3 63.2308 108.3 62.856V40.3034C108.3 39.4783 107.628 38.8077 106.803 38.8077H73.261V38.8077ZM108.759 65.4836H75.217C72.1761 65.4836 70.6348 64.5991 70.6348 62.856V40.3034C70.6348 38.8548 71.8137 37.6758 73.261 37.6758H106.803C108.252 37.6758 109.431 38.8548 109.431 40.3034V62.856C109.431 63.4325 109.244 63.9409 109.108 64.3121C109.093 64.3517 109.077 64.3962 109.061 64.4395C109.219 64.5397 109.324 64.7166 109.324 64.9183C109.324 65.23 109.071 65.4836 108.759 65.4836Z" fill="#66509E"/>
<path d="M104.87 70.2714H75.1845C74.8715 70.2714 74.6191 70.0177 74.6191 69.706C74.6191 69.393 74.8715 69.1406 75.1845 69.1406H104.87C105.182 69.1406 105.436 69.393 105.436 69.706C105.436 70.0177 105.182 70.2714 104.87 70.2714Z" fill="#66509E"/>
<path d="M89.3463 49.2362H82.5966C82.2835 49.2362 82.0312 48.9826 82.0312 48.6708C82.0312 48.3578 82.2835 48.1055 82.5966 48.1055H89.3463C89.6581 48.1055 89.9117 48.3578 89.9117 48.6708C89.9117 48.9826 89.6581 49.2362 89.3463 49.2362V49.2362Z" fill="#66509E"/>
<path d="M85.9949 57.5248C85.6821 57.5248 85.4297 57.2712 85.4297 56.9595V48.6708C85.4297 48.3578 85.6821 48.1055 85.9949 48.1055C86.3067 48.1055 86.5604 48.3578 86.5604 48.6708V56.9595C86.5604 57.2712 86.3067 57.5248 85.9949 57.5248Z" fill="#66509E"/>
<path d="M94.2438 57.5253C94.0063 57.524 93.7961 57.3768 93.7144 57.1566L90.6217 48.8692C90.5128 48.576 90.6611 48.2506 90.9532 48.1418C91.2463 48.0317 91.5718 48.1813 91.6806 48.4733L94.2526 55.3653L96.9135 48.4671C97.0262 48.1764 97.3528 48.0317 97.6447 48.143C97.9366 48.2556 98.0813 48.5834 97.9689 48.8741L94.772 57.1628C94.688 57.3818 94.4777 57.5253 94.2438 57.5253V57.5253Z" fill="#66509E"/>
<path d="M73.6817 23.2031C73.6657 28.6341 80.4043 33.0963 88.6558 33.1186L90.953 33.1248C99.2034 33.1483 105.967 28.7231 105.982 23.2934L95.9721 23.265L84.1366 23.2328L73.6817 23.2031V23.2031Z" fill="#807DBB"/>
<path d="M74.2805 23.809C74.4845 26.0296 75.9246 28.124 78.3888 29.7558C81.1353 31.5731 84.7848 32.5801 88.6657 32.5912L90.963 32.5974C90.984 32.5974 91.0049 32.5974 91.0259 32.5974C94.8846 32.5974 98.5143 31.6115 101.255 29.8189C103.729 28.2007 105.18 26.115 105.396 23.8943L74.2805 23.809V23.809ZM91.0259 33.7282C91.0038 33.7282 90.9815 33.7282 90.9605 33.7282L88.6619 33.722C84.5634 33.7108 80.6925 32.637 77.7653 30.6985C74.7642 28.7117 73.1163 26.063 73.125 23.2399C73.125 22.9282 73.3785 22.6758 73.6903 22.6758C73.6916 22.6758 105.993 22.7661 105.993 22.7661C106.142 22.7661 106.286 22.8255 106.391 22.9319C106.497 23.0383 106.557 23.183 106.556 23.3327C106.548 26.1558 104.885 28.7945 101.874 30.7653C98.9509 32.6766 95.1011 33.7282 91.0259 33.7282V33.7282Z" fill="#66509E"/>
<path d="M84.1491 23.8109C83.9907 23.8109 83.8324 23.7441 83.7211 23.6142C83.5168 23.3779 83.5442 23.0204 83.7805 22.8163L87.6625 19.4724C87.9001 19.2695 88.2562 19.2955 88.4603 19.533C88.6646 19.7693 88.6374 20.1268 88.401 20.3297L84.5178 23.6736C84.4113 23.7652 84.2803 23.8109 84.1491 23.8109V23.8109Z" fill="#66509E"/>
<path d="M95.8066 23.8323C95.6741 23.8323 95.5418 23.7865 95.4342 23.6925L91.5707 20.3276C91.3357 20.1235 91.3108 19.7659 91.5163 19.5296C91.7216 19.2946 92.0779 19.2698 92.3142 19.4752L96.1777 22.8402C96.4128 23.0455 96.4374 23.4018 96.2333 23.6381C96.1208 23.7668 95.9637 23.8323 95.8066 23.8323Z" fill="#66509E"/>
<path d="M92.5044 18.3391C92.5007 19.7259 91.3724 20.848 89.9856 20.8442C88.5975 20.8405 87.4766 19.7123 87.4805 18.3255C87.4841 16.9374 88.6124 15.8154 89.9992 15.8203C91.3873 15.824 92.5081 16.951 92.5044 18.3391Z" fill="white"/>
<path d="M89.9726 16.3663C88.9013 16.3663 88.0291 17.236 88.0254 18.3074C88.0228 19.3799 88.8938 20.2558 89.9663 20.2595C91.0427 20.2595 91.9161 19.3898 91.9186 18.3173C91.9197 17.7977 91.7193 17.309 91.352 16.9404C90.9858 16.5717 90.497 16.3676 89.9776 16.3663C89.9763 16.3663 89.9738 16.3663 89.9726 16.3663V16.3663ZM89.9726 21.3903C89.1413 21.3878 88.3693 21.0661 87.7903 20.4822C87.2101 19.8995 86.8921 19.1263 86.8945 18.3037C86.897 17.4822 87.2187 16.7103 87.8013 16.13C88.3829 15.5523 89.1536 15.2344 89.9712 15.2344C90.8027 15.2368 91.5745 15.5597 92.1547 16.1424C92.7338 16.7251 93.0517 17.4995 93.0492 18.321C93.0444 20.0146 91.6649 21.3903 89.9726 21.3903V21.3903Z" fill="#66509E"/>
<path d="M79.9301 10.873C79.7914 10.873 79.6518 10.821 79.5429 10.7183C79.3151 10.5043 79.3054 10.1456 79.5194 9.91916C84.9924 4.12081 94.1619 3.85483 99.9602 9.32782C100.188 9.54184 100.198 9.9006 99.9837 10.127C99.7697 10.3546 99.4122 10.3645 99.1845 10.1505C93.839 5.10679 85.3869 5.3505 80.3421 10.6948C80.2307 10.8136 80.081 10.873 79.9301 10.873V10.873Z" fill="#66509E"/>
<path d="M83.9737 14.7047C83.8351 14.7047 83.6953 14.654 83.5852 14.55C83.3588 14.336 83.3477 13.9785 83.5628 13.7509C85.1959 12.0201 87.4053 11.0292 89.7831 10.9612C92.1621 10.8894 94.4248 11.7529 96.1554 13.3871C96.3831 13.6012 96.3929 13.9587 96.1789 14.1863C95.9638 14.4127 95.6062 14.4238 95.3786 14.2098C93.8681 12.7834 91.8912 12.0337 89.8166 12.0907C87.7394 12.1513 85.8108 13.016 84.3856 14.5265C84.2742 14.6453 84.1234 14.7047 83.9737 14.7047V14.7047Z" fill="#66509E"/>
</g>
<defs>
<clipPath id="clip0_165_8916">
<rect width="120" height="120" fill="white"/>
</clipPath>
</defs>
</svg>
