<svg width="120" height="120" viewBox="0 0 120 120" fill="none" xmlns="http://www.w3.org/2000/svg">
<path d="M37.5263 115.526C37.4518 115.526 37.3746 115.512 37.3029 115.481C35.1518 114.588 33.031 113.556 30.9984 112.412C30.7199 112.255 30.6206 111.902 30.7778 111.623C30.935 111.345 31.288 111.245 31.5665 111.403C33.5577 112.522 35.6371 113.534 37.7469 114.409C38.042 114.533 38.1826 114.872 38.0613 115.167C37.9675 115.39 37.7524 115.526 37.5263 115.526ZM71.5886 118.843C71.3183 118.843 71.0784 118.653 71.0205 118.38C70.9598 118.065 71.1611 117.759 71.4755 117.696C73.7149 117.246 75.9515 116.656 78.122 115.942C78.4254 115.843 78.7536 116.008 78.8528 116.314C78.9521 116.618 78.7866 116.946 78.4832 117.045C76.2687 117.773 73.988 118.374 71.7045 118.832C71.6658 118.841 71.6272 118.843 71.5886 118.843ZM50.8688 119.276C50.8385 119.276 50.8081 119.273 50.7778 119.268C48.4695 118.907 46.1666 118.405 43.9273 117.776C43.6184 117.688 43.4391 117.368 43.5274 117.062C43.6129 116.753 43.9328 116.574 44.2417 116.659C46.437 117.274 48.6956 117.768 50.957 118.124C51.2742 118.173 51.4893 118.468 51.4397 118.785C51.3955 119.072 51.1473 119.276 50.8688 119.276ZM60.0525 119.993C59.2941 119.993 58.5219 119.977 57.7552 119.947C57.4353 119.935 57.1843 119.665 57.1953 119.345C57.2092 119.025 57.4794 118.775 57.7993 118.788C60.1049 118.877 62.4022 118.829 64.6691 118.647C64.989 118.623 65.2676 118.86 65.2952 119.18C65.32 119.5 65.0828 119.778 64.7629 119.806C63.2019 119.93 61.619 119.993 60.0525 119.993Z" fill="#674EA0"/>
<path d="M100.287 18.5765C100.143 18.5765 99.9998 18.524 99.8867 18.4176C98.2265 16.8431 96.4559 15.355 94.6275 13.994C94.371 13.8029 94.3186 13.4394 94.5089 13.1826C94.6992 12.9256 95.0632 12.8726 95.3197 13.0637C97.184 14.4518 98.9904 15.97 100.684 17.5756C100.918 17.796 100.926 18.163 100.706 18.3955C100.593 18.5158 100.438 18.5765 100.287 18.5765ZM109.172 29.2144C108.982 29.2144 108.797 29.122 108.687 28.9521C107.584 27.2701 106.379 25.6205 105.102 24.05C104.934 23.8418 104.763 23.6347 104.592 23.4289C104.388 23.1829 104.421 22.8172 104.666 22.612C104.912 22.4069 105.276 22.4399 105.482 22.6859C105.656 22.8953 105.83 23.1062 106.004 23.3183C107.305 24.9198 108.533 26.6015 109.655 28.3169C109.832 28.5847 109.757 28.9443 109.49 29.1197C109.39 29.1837 109.28 29.2144 109.172 29.2144ZM115.339 41.6244C115.099 41.6244 114.878 41.4763 114.793 41.2389C114.026 39.0894 113.124 36.9617 112.104 34.9143C111.963 34.6275 112.079 34.2797 112.366 34.1368C112.653 33.9942 113 34.1109 113.144 34.3977C114.183 36.4866 115.105 38.6572 115.885 40.85C115.993 41.1518 115.835 41.4832 115.532 41.5905C115.469 41.6134 115.402 41.6244 115.339 41.6244ZM118.392 55.1396C118.1 55.1396 117.846 54.9179 117.816 54.6195C117.581 52.344 117.206 50.0624 116.704 47.8387C116.635 47.5262 116.831 47.2157 117.143 47.1451C117.454 47.0742 117.766 47.2706 117.838 47.583C118.348 49.8517 118.731 52.179 118.968 54.5003C119.001 54.8188 118.77 55.1035 118.453 55.1368C118.433 55.1385 118.411 55.1396 118.392 55.1396ZM118.188 68.997C118.163 68.997 118.135 68.9953 118.111 68.9921C117.794 68.9499 117.57 68.6586 117.611 68.3409C117.686 67.7916 117.749 67.2405 117.807 66.6879C117.987 64.962 118.089 63.2113 118.116 61.4854C118.122 61.1653 118.386 60.9049 118.704 60.9143C119.023 60.919 119.28 61.1826 119.274 61.5031C119.25 63.2626 119.142 65.0475 118.96 66.8073C118.902 67.371 118.836 67.9327 118.762 68.4929C118.723 68.7846 118.475 68.997 118.188 68.997Z" fill="#674EA0"/>
<path d="M18.6479 19.5614C18.4989 19.5614 18.3472 19.504 18.2342 19.3896C18.0108 19.162 18.0108 18.7947 18.2397 18.5694C18.9374 17.878 19.6627 17.194 20.3964 16.5366C21.3919 15.6444 22.4289 14.7743 23.4824 13.9513C23.7361 13.7539 24.1001 13.7986 24.2959 14.0509C24.4945 14.3033 24.4504 14.6678 24.1966 14.8647C23.1652 15.6722 22.1448 16.525 21.1713 17.4C20.4515 18.0448 19.74 18.7153 19.056 19.3932C18.9429 19.5054 18.794 19.5614 18.6479 19.5614ZM10.0213 30.4044C9.91651 30.4044 9.81167 30.3766 9.71788 30.3179C9.44485 30.1493 9.3594 29.7919 9.52759 29.5195C10.7521 27.5388 12.1089 25.6097 13.5596 23.7859C13.7582 23.5352 14.1249 23.4938 14.3732 23.6929C14.6241 23.8926 14.6655 24.2575 14.467 24.5079C13.0439 26.296 11.7146 28.1871 10.5149 30.1292C10.4046 30.3068 10.2143 30.4044 10.0213 30.4044ZM4.18564 42.9729C4.12772 42.9729 4.06431 42.9637 4.0064 42.9442C3.70027 42.8446 3.5348 42.5172 3.63409 42.2128C4.35938 39.9974 5.22261 37.8029 6.20439 35.6907C6.33955 35.4001 6.68426 35.274 6.97383 35.4092C7.26612 35.544 7.39029 35.8888 7.25513 36.1794C6.2954 38.25 5.446 40.4012 4.73719 42.5729C4.65723 42.8178 4.43106 42.9729 4.18564 42.9729ZM1.46085 56.5614C1.44708 56.5614 1.43053 56.5609 1.41399 56.5595C1.09681 56.5335 0.856877 56.2541 0.884477 55.9348C0.920352 55.4806 0.961719 55.0258 1.00858 54.5699C1.20159 52.704 1.48567 50.8275 1.8552 48.993C1.91596 48.6791 2.2248 48.4756 2.53648 48.5385C2.85088 48.6016 3.05494 48.9069 2.99146 49.2211C2.6302 51.0197 2.35168 52.8595 2.16139 54.6894C2.11724 55.1361 2.07587 55.5823 2.04 56.0277C2.01518 56.3314 1.76148 56.5614 1.46085 56.5614ZM1.98486 70.4097C1.70356 70.4097 1.45813 70.2056 1.41399 69.9199C1.04995 67.6209 0.821002 65.2737 0.732773 62.9431C0.721786 62.6226 0.969993 62.3537 1.28988 62.3416C1.60984 62.3264 1.88009 62.5791 1.89107 62.8992C1.97659 65.1838 2.20276 67.4853 2.55852 69.739C2.60816 70.0553 2.39305 70.3523 2.07587 70.4022C2.04556 70.4072 2.01518 70.4097 1.98486 70.4097Z" fill="#674EA0"/>
<path d="M17.3985 56.2812C19.8337 32.7611 40.8734 15.6678 64.3924 18.1019C87.9142 20.5357 105.007 41.5757 102.572 65.0959C100.14 88.616 79.0973 105.709 55.5783 103.275C32.0592 100.841 14.966 79.8013 17.3985 56.2812Z" fill="#EDEAF3"/>
<path d="M6.12305 104.08V59.2876C6.12305 58.4842 6.77659 57.8323 7.5792 57.8323H52.3696C53.1721 57.8323 53.8257 58.4842 53.8257 59.2876V104.08C53.8257 104.883 53.1721 105.534 52.3696 105.534H7.5792C6.77659 105.534 6.12305 104.883 6.12305 104.08Z" fill="white"/>
<path d="M7.60171 58.4063C7.11906 58.4063 6.72742 58.7988 6.72742 59.2814V104.073C6.72742 104.556 7.11906 104.948 7.60171 104.948H52.3921C52.8747 104.948 53.2663 104.556 53.2663 104.073V59.2814C53.2663 58.7988 52.8747 58.4063 52.3921 58.4063H7.60171ZM52.3921 106.108H7.60171C6.47928 106.108 5.56641 105.195 5.56641 104.073V59.2814C5.56641 58.1592 6.47928 57.2463 7.60171 57.2463H52.3921C53.5145 57.2463 54.4274 58.1592 54.4274 59.2814V104.073C54.4274 105.195 53.5145 106.108 52.3921 106.108Z" fill="#674EA0"/>
<path d="M52.3696 57.8323H7.5792C6.77659 57.8323 6.12305 58.4842 6.12305 59.2876V63.677H53.8257V59.2876C53.8257 58.4842 53.1721 57.8323 52.3696 57.8323Z" fill="#807DBB"/>
<path d="M6.72742 63.0908H53.2663V59.2814C53.2663 58.7988 52.8747 58.4063 52.3921 58.4063H7.60171C7.11906 58.4063 6.72742 58.7988 6.72742 59.2814V63.0908ZM53.8482 64.2505H6.14556C5.82567 64.2505 5.56641 63.991 5.56641 63.6708V59.2814C5.56641 58.1592 6.47928 57.2463 7.60171 57.2463H52.3921C53.5145 57.2463 54.4274 58.1592 54.4274 59.2814V63.6708C54.4274 63.991 54.1681 64.2505 53.8482 64.2505Z" fill="#674EA0"/>
<path d="M43.0489 77.8125H42.9634C42.8559 77.8169 42.7511 77.8249 42.6462 77.8365C40.4455 78.0789 38.8184 80.0094 38.8184 82.2218V83.4896H50.0153V82.2386C50.0153 80.0182 48.3826 78.08 46.1763 77.8368C46.0688 77.8249 45.964 77.8172 45.8564 77.8125H43.0489Z" fill="#807DBB"/>
<path d="M50.0378 84.0633H38.8409C38.521 84.0633 38.2617 83.8035 38.2617 83.4833V82.2155C38.2617 79.6599 40.1288 77.5266 42.6026 77.2539C42.724 77.2406 42.8425 77.2318 42.9639 77.2271L43.0714 77.2266C43.3941 77.2266 43.6533 77.4861 43.6533 77.8062C43.6533 78.1267 43.3941 78.3865 43.0714 78.3865H42.9859C42.917 78.3896 42.8232 78.3967 42.7295 78.4069C40.8431 78.6146 39.42 80.2519 39.42 82.2155V82.9036H49.4559V82.2323C49.4559 80.2602 48.0273 78.6157 46.1354 78.4069C46.0417 78.3967 45.9479 78.3896 45.8541 78.386C45.5342 78.3727 45.286 78.1024 45.2998 77.7825C45.3108 77.4624 45.5756 77.2152 45.901 77.2271C46.0223 77.2321 46.1437 77.2409 46.2623 77.2542C48.7443 77.5277 50.617 79.6678 50.617 82.2323V83.4833C50.617 83.8035 50.3577 84.0633 50.0378 84.0633Z" fill="#674EA0"/>
<path d="M28.6642 82.6758H28.5787C28.4712 82.6805 28.3663 82.6882 28.2588 82.7C26.0608 82.9419 24.4336 84.8724 24.4336 87.0851V88.3526H35.6306V87.1021C35.6306 84.8818 33.9979 82.9433 31.7916 82.7C31.684 82.6882 31.5793 82.6805 31.4689 82.6758H28.6642Z" fill="#807DBB"/>
<path d="M35.6237 88.9269H24.4267C24.1069 88.9269 23.8477 88.6671 23.8477 88.3469V87.0791C23.8477 84.5231 25.7147 82.3902 28.1885 82.1177C28.3071 82.1045 28.4284 82.0954 28.5498 82.0904L28.6573 82.0898C28.9772 82.0898 29.2393 82.3496 29.2393 82.6699C29.2393 82.9903 28.9772 83.2498 28.6573 83.2498H28.5719C28.5029 83.2534 28.4091 83.2603 28.3182 83.2705C26.4289 83.4782 25.006 85.1155 25.006 87.0791V87.7669H35.0418V87.0962C35.0418 85.1241 33.6132 83.4795 31.7213 83.2705C31.6276 83.2603 31.5338 83.2534 31.44 83.2493C31.1201 83.2358 30.8719 82.9658 30.8829 82.6456C30.8967 82.3257 31.1615 82.0799 31.487 82.0904C31.6083 82.0954 31.7296 82.1045 31.8482 82.1177C34.3303 82.3916 36.2028 84.5317 36.2028 87.0962V88.3469C36.2028 88.6671 35.9436 88.9269 35.6237 88.9269Z" fill="#674EA0"/>
<path d="M14.1649 87.832H14.0767C13.9719 87.8367 13.8644 87.8445 13.7595 87.8561C11.5588 88.0984 9.93164 90.029 9.93164 92.2413V93.5091H21.1286V92.2581C21.1286 90.0378 19.4959 88.0996 17.2896 87.8563C17.182 87.8445 17.0772 87.8367 16.9697 87.832H14.1649Z" fill="#807DBB"/>
<path d="M21.1511 94.0829H9.95415C9.63426 94.0829 9.375 93.823 9.375 93.5029V92.2351C9.375 89.6794 11.242 87.5462 13.7186 87.2734C13.8372 87.2605 13.9558 87.2516 14.0772 87.2464L14.1874 87.2461C14.5074 87.2461 14.7666 87.5057 14.7666 87.8258C14.7666 88.146 14.5074 88.4058 14.1874 88.4058H14.0992C14.0303 88.4091 13.9365 88.4163 13.8427 88.4265C11.9564 88.6342 10.5361 90.2715 10.5361 92.2351V92.9232H20.5719V92.2519C20.5719 90.28 19.1433 88.6352 17.2487 88.4265C17.1549 88.4163 17.0612 88.4091 16.9674 88.4056C16.6475 88.392 16.3993 88.1215 16.413 87.8016C16.4241 87.4816 16.6888 87.2362 17.0143 87.2464C17.1356 87.2516 17.2569 87.2605 17.3756 87.2737C19.8576 87.5473 21.7302 89.6874 21.7302 92.2519V93.5029C21.7302 93.823 21.471 94.0829 21.1511 94.0829Z" fill="#674EA0"/>
<path d="M40.3418 71.6856V69.3174C40.3418 67.893 41.4946 66.7385 42.9204 66.7385H47.3358V66.8315C47.3358 67.1801 47.4984 67.5135 47.7852 67.7115C48.2486 68.0292 48.5602 68.5857 48.5602 69.3088V71.6602L40.3418 71.6856Z" fill="#EE445B"/>
<path d="M40.335 72.318C40.0151 72.318 39.7559 72.0582 39.7559 71.7378V69.3696C39.7559 67.6277 41.1706 66.2107 42.9136 66.2107H47.329C47.6489 66.2107 47.9108 66.4706 47.9108 66.7907V66.8834C47.9108 67.05 47.9853 67.2005 48.1094 67.2866C48.7603 67.7353 49.1353 68.4915 49.1353 69.361V71.7124C49.1353 72.0326 48.8733 72.2921 48.5535 72.2921C48.2335 72.2921 47.9742 72.0326 47.9742 71.7124V69.361C47.9742 68.8718 47.7895 68.4738 47.4503 68.2416C47.1469 68.0317 46.9263 67.7231 46.8215 67.3704H42.9136C41.8105 67.3704 40.9142 68.2672 40.9142 69.3696V71.7378C40.9142 72.0582 40.6549 72.318 40.335 72.318Z" fill="#674EA0"/>
<path d="M45.8739 76.5818V78.2533C45.8739 79.028 45.2451 79.656 44.4701 79.656C43.6952 79.656 43.0664 79.028 43.0664 78.2533V76.5895L45.8739 76.5818Z" fill="white"/>
<path d="M44.4633 80.2302C43.3712 80.2302 42.4805 79.3409 42.4805 78.2476V76.5838C42.4805 76.2636 42.7397 76.0041 43.0596 76.0041C43.3823 76.0041 43.6415 76.2636 43.6415 76.5838V78.2476C43.6415 78.7015 44.0083 79.0706 44.4633 79.0706C44.9184 79.0706 45.2852 78.7015 45.2852 78.2476V76.5761C45.2852 76.2559 45.5444 75.9961 45.8671 75.9961C46.187 75.9961 46.4462 76.2559 46.4462 76.5761V78.2476C46.4462 79.3409 45.5555 80.2302 44.4633 80.2302Z" fill="#674EA0"/>
<path d="M25.957 76.6072V74.2387C25.957 72.8143 27.1098 71.6599 28.5356 71.6599H32.951V71.7528C32.951 72.1014 33.1137 72.4351 33.4005 72.6334C33.8638 72.9509 34.1754 73.5071 34.1754 74.2307V76.5816L25.957 76.6072Z" fill="#EE445B"/>
<path d="M25.953 77.1813C25.6331 77.1813 25.3711 76.9215 25.3711 76.6012V74.2328C25.3711 72.4909 26.7887 71.0742 28.5316 71.0742H32.947C33.2668 71.0742 33.5288 71.3337 33.5288 71.654V71.7469C33.5288 71.9134 33.6033 72.064 33.7274 72.1498C34.3782 72.5985 34.7506 73.3547 34.7506 74.2248V76.5756C34.7506 76.8958 34.4914 77.1553 34.1714 77.1553C33.8515 77.1553 33.5922 76.8958 33.5922 76.5756V74.2248C33.5922 73.735 33.4075 73.3373 33.0683 73.1048C32.7649 72.8947 32.5443 72.5861 32.4394 72.2339H28.5316C27.4284 72.2339 26.5322 73.1308 26.5322 74.2328V76.6012C26.5322 76.9215 26.2729 77.1813 25.953 77.1813Z" fill="#674EA0"/>
<path d="M31.4571 81.4453V83.1172C31.4571 83.8918 30.8311 84.5198 30.0561 84.5198C29.2811 84.5198 28.6523 83.8918 28.6523 83.1172V81.4531L31.4571 81.4453Z" fill="white"/>
<path d="M30.0786 85.0933C28.9865 85.0933 28.0957 84.2038 28.0957 83.1109V81.4468C28.0957 81.1266 28.3549 80.8671 28.6748 80.8671C28.9947 80.8671 29.2567 81.1266 29.2567 81.4468V83.1109C29.2567 83.5646 29.6235 83.9336 30.0786 83.9336C30.5308 83.9336 30.9004 83.5646 30.9004 83.1109V81.4391C30.9004 81.1189 31.1596 80.8594 31.4795 80.8594C31.8022 80.8594 32.0615 81.1189 32.0615 81.4391V83.1109C32.0615 84.2038 31.1707 85.0933 30.0786 85.0933Z" fill="#674EA0"/>
<path d="M11.4551 81.7632V79.3947C11.4551 77.9706 12.6106 76.8162 14.0337 76.8162H18.449V76.9091C18.449 77.2574 18.6117 77.5911 18.9013 77.7894C19.3618 78.1071 19.6735 78.6633 19.6735 79.3867V81.7378L11.4551 81.7632Z" fill="#EE445B"/>
<path d="M11.4483 82.3378C11.1284 82.3378 10.8691 82.078 10.8691 81.7576V79.3891C10.8691 77.6475 12.2839 76.2302 14.0269 76.2302H18.4422C18.7649 76.2302 19.0241 76.4903 19.0241 76.8105V76.9034C19.0241 77.0698 19.0986 77.2203 19.2227 77.3064C19.8735 77.7551 20.2487 78.5113 20.2487 79.3811V81.7321C20.2487 82.0524 19.9866 82.3119 19.6667 82.3119C19.3468 82.3119 19.0876 82.0524 19.0876 81.7321V79.3811C19.0876 78.8915 18.9028 78.4939 18.5636 78.2614C18.2602 78.0515 18.0396 77.7426 17.9348 77.3902H14.0269C12.9238 77.3902 12.0274 78.2868 12.0274 79.3891V81.7576C12.0274 82.078 11.7682 82.3378 11.4483 82.3378Z" fill="#674EA0"/>
<path d="M16.9845 86.6016V88.2731C16.9845 89.0478 16.3556 89.6757 15.5807 89.6757C14.8058 89.6757 14.1797 89.0478 14.1797 88.2731V86.6092L16.9845 86.6016Z" fill="white"/>
<path d="M15.5766 90.25C14.4845 90.25 13.5938 89.3603 13.5938 88.2672V86.6033C13.5938 86.2832 13.8529 86.0236 14.1756 86.0236C14.4956 86.0236 14.7548 86.2832 14.7548 86.6033V88.2672C14.7548 88.7211 15.1243 89.0901 15.5766 89.0901C16.0289 89.0901 16.3984 88.7211 16.3984 88.2672V86.5956C16.3984 86.2754 16.6605 86.0156 16.9804 86.0156C17.3003 86.0156 17.5595 86.2754 17.5595 86.5956V88.2672C17.5595 89.3603 16.6687 90.25 15.5766 90.25Z" fill="#674EA0"/>
<path d="M35.6305 88.3594H24.4336V102.053H35.6305V88.3594Z" fill="#EE445B"/>
<path d="M25.006 101.467H35.0418V88.9331H25.006V101.467ZM35.6237 102.627H24.4267C24.1069 102.627 23.8477 102.367 23.8477 102.047V88.3532C23.8477 88.033 24.1069 87.7734 24.4267 87.7734H35.6237C35.9436 87.7734 36.2028 88.033 36.2028 88.3532V102.047C36.2028 102.367 35.9436 102.627 35.6237 102.627Z" fill="#674EA0"/>
<path d="M49.1742 102.07H38.8184V83.4958H50.0153V101.229C50.0153 101.693 49.6374 102.07 49.1742 102.07Z" fill="#EE445B"/>
<path d="M39.42 101.484H49.1967C49.34 101.484 49.4559 101.367 49.4559 101.223V84.0701H39.42V101.484ZM49.1967 102.644H38.8409C38.521 102.644 38.2617 102.385 38.2617 102.064V83.4901C38.2617 83.1696 38.521 82.9102 38.8409 82.9102H50.0378C50.3577 82.9102 50.617 83.1696 50.617 83.4901V101.223C50.617 102.007 49.9799 102.644 49.1967 102.644Z" fill="#674EA0"/>
<path d="M21.1286 102.058H10.7728C10.3094 102.058 9.93164 101.681 9.93164 101.216V93.5156H21.1286V102.058Z" fill="#EE445B"/>
<path d="M10.5361 94.0893V101.21C10.5361 101.354 10.6519 101.472 10.7953 101.472H20.5719V94.0893H10.5361ZM21.1511 102.632H10.7953C10.0121 102.632 9.375 101.994 9.375 101.21V93.5094C9.375 93.1891 9.63426 92.9297 9.95415 92.9297H21.1511C21.471 92.9297 21.7302 93.1891 21.7302 93.5094V102.052C21.7302 102.372 21.471 102.632 21.1511 102.632Z" fill="#674EA0"/>
<path d="M48.8911 102.644H11.1553C10.8354 102.644 10.5762 102.385 10.5762 102.064C10.5762 101.744 10.8354 101.484 11.1553 101.484H48.8911C49.211 101.484 49.4703 101.744 49.4703 102.064C49.4703 102.385 49.211 102.644 48.8911 102.644Z" fill="#674EA0"/>
<path d="M10.5764 71.9885H12.54V74.2198C12.54 74.5295 12.791 74.7808 13.0998 74.7808H18.0088C18.3177 74.7808 18.5687 74.5295 18.5687 74.2198V71.9885H20.5323C20.968 71.9885 21.1693 71.4487 20.8384 71.1638L15.8632 66.8533C15.6867 66.7003 15.4247 66.7003 15.2482 66.8533L10.2703 71.1638C9.94209 71.4487 10.1434 71.9885 10.5764 71.9885Z" fill="white"/>
<path d="M10.8658 71.4589H12.5344C12.8543 71.4589 13.1135 71.7184 13.1135 72.0386V74.27L18.0032 74.251L17.9839 72.0386C17.9839 71.7184 18.2431 71.4589 18.563 71.4589H20.2316L15.5487 67.4043L10.8658 71.4589ZM18.0032 75.4109H13.0942C12.4654 75.4109 11.9552 74.899 11.9552 74.27V72.6185H10.5708C10.1295 72.6185 9.7434 72.3505 9.58898 71.9358C9.43449 71.5209 9.55032 71.0656 9.88405 70.7757L14.862 66.4653C15.2536 66.1257 15.8438 66.126 16.2354 66.4653L21.2134 70.7757C21.547 71.0656 21.6656 71.5209 21.5084 71.9358C21.354 72.3505 20.9679 72.6185 20.5266 72.6185H19.145V74.27C19.145 74.899 18.632 75.4109 18.0032 75.4109Z" fill="#674EA0"/>
<path d="M47.5971 71.2287V71.2601C47.5971 69.8266 46.436 69.3164 45.0019 69.3164H43.9319C42.4978 69.3164 41.334 69.8266 41.334 71.2601V71.2295C40.6225 71.2397 40.0488 71.8189 40.0488 72.5332C40.0488 73.2474 40.6225 73.8274 41.334 73.837V73.9435C41.334 75.5099 42.6054 76.78 44.1718 76.78H44.7593C46.3257 76.78 47.5971 75.5099 47.5971 73.9435V73.8379C48.3169 73.8379 48.9016 73.254 48.9016 72.5332C48.9016 71.8128 48.3169 71.2287 47.5971 71.2287Z" fill="white"/>
<path d="M41.1976 71.8193C40.8694 71.889 40.6212 72.1816 40.6212 72.5272C40.6212 72.921 40.9439 73.2459 41.3354 73.2511C41.6526 73.2556 41.9091 73.514 41.9091 73.8311V73.9376C41.9091 75.1817 42.9212 76.1937 44.1651 76.1937H44.7525C45.999 76.1937 47.0112 75.1817 47.0112 73.9376V73.8322C47.0112 73.5117 47.2704 73.2519 47.5903 73.2519C47.9902 73.2519 48.3156 72.9271 48.3156 72.5272C48.3156 72.1764 48.0646 71.8829 47.731 71.8165C47.6868 71.8281 47.6399 71.8342 47.5903 71.8342C47.2704 71.8342 47.0112 71.5744 47.0112 71.2542C47.0112 70.9171 47.0112 69.8904 44.9951 69.8904H43.9251C41.9091 69.8904 41.9091 70.9171 41.9091 71.2542C41.9091 71.5744 41.6499 71.8342 41.3272 71.8342C41.2831 71.8342 41.2389 71.8289 41.1976 71.8193ZM44.7525 77.3537H44.1651C42.4111 77.3537 40.9604 76.0244 40.7701 74.3201C40.0144 74.0746 39.4629 73.3603 39.4629 72.5272C39.4629 71.6858 40.0255 70.9652 40.7949 70.7268C41.0266 69.4505 42.138 68.7307 43.9251 68.7307H44.9951C46.7767 68.7307 47.8882 69.4475 48.1226 70.7194C48.903 70.9499 49.4739 71.6731 49.4739 72.5272C49.4739 73.3722 48.9141 74.0895 48.1474 74.3278C47.9543 76.0285 46.5064 77.3537 44.7525 77.3537Z" fill="#674EA0"/>
<path d="M33.1831 76.1371V76.182C33.1831 74.7485 32.0193 74.2383 30.5879 74.2383H29.5151C28.0837 74.2383 26.92 74.7485 26.92 76.182V76.1379C26.2084 76.1481 25.6348 76.7272 25.6348 77.4418C25.6348 78.1561 26.2084 78.7355 26.92 78.7455V78.8519C26.92 80.4184 28.1914 81.6883 29.7578 81.6883H30.3452C31.9117 81.6883 33.1831 80.4184 33.1831 78.8519V78.7465C33.9029 78.7465 34.4876 78.1625 34.4876 77.4418C34.4876 76.7212 33.9029 76.1371 33.1831 76.1371Z" fill="white"/>
<path d="M26.7559 76.7337C26.4415 76.8136 26.2071 77.0994 26.2071 77.4356C26.2071 77.8291 26.527 78.1537 26.9214 78.1598C27.2385 78.1639 27.495 78.4224 27.495 78.7392V78.8456C27.495 80.09 28.5072 81.1024 29.7509 81.1024H30.3384C31.5822 81.1024 32.597 80.09 32.597 78.8456V78.7403C32.597 78.4198 32.8563 78.1603 33.1762 78.1603C33.5761 78.1603 33.9015 77.8352 33.9015 77.4356C33.9015 77.0939 33.6643 76.807 33.3445 76.7306C33.292 76.7472 33.2341 76.7557 33.1762 76.7557C32.8563 76.7557 32.597 76.4959 32.597 76.1758C32.597 75.8388 32.597 74.812 30.5811 74.812H29.5083C27.495 74.812 27.495 75.8388 27.495 76.1758C27.495 76.4959 27.2331 76.7557 26.9131 76.7557C26.858 76.7557 26.8055 76.7483 26.7559 76.7337ZM30.3384 82.2621H29.7509C27.9969 82.2621 26.5463 80.9325 26.3561 79.2282C25.5976 78.9824 25.0488 78.2681 25.0488 77.4356C25.0488 76.593 25.6114 75.8718 26.3836 75.6341C26.6208 74.3669 27.7294 73.6523 29.5083 73.6523H30.5811C32.3544 73.6523 33.4631 74.3639 33.7057 75.6269C34.4862 75.8564 35.0599 76.5803 35.0599 77.4356C35.0599 78.2806 34.5 78.9976 33.7333 79.2359C33.5402 80.9367 32.0896 82.2621 30.3384 82.2621Z" fill="#674EA0"/>
<path d="M18.7104 81.2841C18.7104 79.8464 17.5493 79.3359 16.1152 79.3359H15.0452C13.6111 79.3359 12.4472 79.8465 12.4472 81.2797C11.7358 81.2951 11.1621 81.8743 11.1621 82.5886C11.1621 83.3031 11.7358 83.8828 12.4472 83.8925V83.999C12.4472 85.5654 13.7186 86.8354 15.2851 86.8354H15.8726C17.439 86.8354 18.7104 85.5654 18.7104 83.999V83.8936C19.4302 83.8936 20.0148 83.3095 20.0148 82.5886C20.0148 81.8682 19.4302 81.2841 18.7104 81.2841Z" fill="white"/>
<path d="M15.0384 79.9097C13.0224 79.9097 13.0224 80.9365 13.0224 81.2734C13.0224 81.5909 12.7659 81.8542 12.4488 81.8584C12.0571 81.8642 11.7345 82.1891 11.7345 82.5823C11.7345 82.9761 12.0571 83.3011 12.4488 83.3063C12.7659 83.3107 13.0224 83.5694 13.0224 83.8862V83.9927C13.0224 85.2368 14.0345 86.2492 15.2783 86.2492H15.8658C17.1123 86.2492 18.1245 85.2368 18.1245 83.9927V83.8871C18.1245 83.5669 18.3836 83.3071 18.7036 83.3071C19.1035 83.3071 19.4289 82.9822 19.4289 82.5823C19.4289 82.1827 19.1035 81.8576 18.7036 81.8576C18.3836 81.8576 18.1245 81.598 18.1245 81.2779C18.1245 80.9365 18.1245 79.9097 16.1084 79.9097H15.0384ZM15.8658 87.4089H15.2783C13.5243 87.4089 12.0737 86.0796 11.8834 84.3752C11.1278 84.1297 10.5762 83.4152 10.5762 82.5823C10.5762 81.7429 11.136 81.0238 11.9027 80.7839C12.1206 79.4825 13.2375 78.75 15.0384 78.75H16.1084C17.9066 78.75 19.0235 79.4811 19.2441 80.7768C20.0191 81.009 20.5872 81.7307 20.5872 82.5823C20.5872 83.4274 20.0301 84.1444 19.2607 84.3829C19.0676 86.0837 17.6198 87.4089 15.8658 87.4089Z" fill="#674EA0"/>
<path d="M62.5805 31.699H51.709V51.6325H62.5805V31.699Z" fill="#807DBB"/>
<path d="M52.2841 51.0463H61.9945V32.2727H52.2841V51.0463ZM62.5737 52.206H51.7022C51.3823 52.206 51.123 51.9464 51.123 51.6262V31.6927C51.123 31.3725 51.3823 31.113 51.7022 31.113H62.5737C62.8936 31.113 63.1556 31.3725 63.1556 31.6927V51.6262C63.1556 51.9464 62.8936 52.206 62.5737 52.206Z" fill="#674EA0"/>
<path d="M83.141 44.7197H31.7151C29.3103 44.7197 27.3633 42.7089 27.3633 40.2293V5.0765C27.3633 2.59642 29.3103 0.585938 31.7151 0.585938H83.141C85.543 0.585938 87.4928 2.59642 87.4928 5.0765V40.2293C87.4928 42.7089 85.543 44.7197 83.141 44.7197Z" fill="#807DBB"/>
<path d="M31.7111 1.15969C29.6317 1.15969 27.9384 2.91395 27.9384 5.07031V40.2231C27.9384 42.3795 29.6317 44.1335 31.7111 44.1335H83.137C85.2164 44.1335 86.9097 42.3795 86.9097 40.2231V5.07031C86.9097 2.91395 85.2164 1.15969 83.137 1.15969H31.7111ZM83.137 45.2931H31.7111C28.9919 45.2931 26.7773 43.0188 26.7773 40.2231V5.07031C26.7773 2.27444 28.9919 0 31.7111 0H83.137C85.8562 0 88.068 2.27444 88.068 5.07031V40.2231C88.068 43.0188 85.8562 45.2931 83.137 45.2931Z" fill="#674EA0"/>
<path d="M31.0562 40.209C30.4743 40.209 30 39.7366 30 39.1544V6.10777C30 4.70847 31.0921 3.57446 32.4351 3.57446H82.3607C83.7065 3.57446 84.7958 4.70847 84.7958 6.10724V39.1503C84.7958 39.7322 84.3188 40.209 83.7369 40.209H31.0562Z" fill="white"/>
<path d="M32.4284 4.14848C31.4052 4.14848 30.5751 5.02489 30.5751 6.10184V39.1488C30.5751 39.4102 30.7875 39.6234 31.0495 39.6234H83.7301C83.9894 39.6234 84.21 39.4039 84.21 39.1443V6.10131C84.21 5.02462 83.3771 4.14848 82.3539 4.14848H32.4284ZM83.7301 40.7831H31.0495C30.1476 40.7831 29.4141 40.05 29.4141 39.1488V6.10184C29.4141 4.38511 30.7654 2.98853 32.4284 2.98853H82.3539C84.0169 2.98853 85.3683 4.38484 85.3683 6.10131V39.1443C85.3683 40.0478 84.6319 40.7831 83.7301 40.7831Z" fill="#674EA0"/>
<path d="M70.885 52.1948H43.4112C43.0913 52.1948 42.832 51.9353 42.832 51.6151C42.832 51.2947 43.0913 51.0352 43.4112 51.0352H70.885C71.2049 51.0352 71.4669 51.2947 71.4669 51.6151C71.4669 51.9353 71.2049 52.1948 70.885 52.1948Z" fill="#674EA0"/>
<path d="M76.4714 23.8477H59.6484V36.7897H76.4714V23.8477Z" fill="#EE445B"/>
<path d="M60.2529 36.2035H75.9175V24.4217H60.2529V36.2035ZM76.4967 37.3635H59.6737C59.3511 37.3635 59.0918 37.1039 59.0918 36.7838V23.8419C59.0918 23.5215 59.3511 23.2617 59.6737 23.2617H76.4967C76.8166 23.2617 77.0758 23.5215 77.0758 23.8419V36.7838C77.0758 37.1039 76.8166 37.3635 76.4967 37.3635Z" fill="#674EA0"/>
<path d="M70.1975 28.6712C70.1975 29.9117 69.2267 30.9167 68.0271 30.9167C66.8302 30.9167 65.8594 29.9117 65.8594 28.6712C65.8594 27.4311 66.8302 26.4258 68.0271 26.4258C69.2267 26.4258 70.1975 27.4311 70.1975 28.6712Z" fill="white"/>
<path d="M68.0523 26.9998C67.1753 26.9998 66.4638 27.7469 66.4638 28.6652C66.4638 29.5839 67.1753 30.331 68.0523 30.331C68.9293 30.331 69.6409 29.5839 69.6409 28.6652C69.6409 27.7469 68.9293 26.9998 68.0523 26.9998ZM68.0523 31.4907C66.5355 31.4907 65.3027 30.2232 65.3027 28.6652C65.3027 27.1074 66.5355 25.8398 68.0523 25.8398C69.5691 25.8398 70.802 27.1074 70.802 28.6652C70.802 30.2232 69.5691 31.4907 68.0523 31.4907Z" fill="#674EA0"/>
<path d="M69.3606 32.2435C68.3071 32.2065 67.397 32.2422 66.6303 32.238C64.6336 32.2283 64.1951 34.85 63.9607 36.3036C63.9194 36.5546 64.1124 36.7824 64.3689 36.7822L71.749 36.7769C72.0027 36.7766 72.1957 36.5522 72.1571 36.3023C71.9392 34.8734 71.5752 32.321 69.3606 32.2435Z" fill="white"/>
<path d="M66.6435 32.8123C65.3639 32.8123 64.8895 34.4132 64.5889 36.1959L71.5773 36.1909C71.3126 34.4921 70.8989 32.8707 69.3655 32.817C68.6816 32.7929 68.0445 32.8007 67.4847 32.8068C67.1896 32.8104 66.9138 32.8131 66.6518 32.8123C66.6491 32.8123 66.6463 32.8123 66.6435 32.8123ZM64.3904 37.3559C64.1008 37.3559 63.825 37.2287 63.6347 37.0072C63.4472 36.7852 63.3644 36.493 63.4113 36.205C63.6513 34.7262 64.1477 31.652 66.6435 31.652C66.6849 31.6523 66.7318 31.6526 66.776 31.6523C66.9966 31.6523 67.2282 31.6501 67.4709 31.6471C68.0445 31.6405 68.6954 31.633 69.4069 31.6578C72.0765 31.7516 72.5288 34.7312 72.7467 36.1631L72.755 36.2091C72.7991 36.4949 72.7163 36.7847 72.526 37.0042C72.3385 37.224 72.0655 37.3503 71.7759 37.3509L64.3932 37.3559H64.3904Z" fill="#674EA0"/>
<path d="M55.146 23.8477H38.3203V36.7897H55.146V23.8477Z" fill="#EE445B"/>
<path d="M38.8954 36.2035H54.5573V24.4217H38.8954V36.2035ZM55.1364 37.3635H38.3135C37.9936 37.3635 37.7344 37.1039 37.7344 36.7838V23.8419C37.7344 23.5215 37.9936 23.2617 38.3135 23.2617H55.1364C55.4591 23.2617 55.7184 23.5215 55.7184 23.8419V36.7838C55.7184 37.1039 55.4591 37.3635 55.1364 37.3635Z" fill="#674EA0"/>
<path d="M48.8694 28.6712C48.8694 29.9117 47.8987 30.9167 46.7018 30.9167C45.502 30.9167 44.5312 29.9117 44.5312 28.6712C44.5312 27.4311 45.502 26.4258 46.7018 26.4258C47.8987 26.4258 48.8694 27.4311 48.8694 28.6712Z" fill="white"/>
<path d="M46.6949 26.9998C45.8179 26.9998 45.1064 27.7469 45.1064 28.6652C45.1064 29.5839 45.8179 30.331 46.6949 30.331C47.5691 30.331 48.2834 29.5839 48.2834 28.6652C48.2834 27.7469 47.5691 26.9998 46.6949 26.9998ZM46.6949 31.4907C45.1781 31.4907 43.9453 30.2232 43.9453 28.6652C43.9453 27.1074 45.1781 25.8398 46.6949 25.8398C48.209 25.8398 49.4417 27.1074 49.4417 28.6652C49.4417 30.2232 48.209 31.4907 46.6949 31.4907Z" fill="#674EA0"/>
<path d="M48.0351 32.2435C46.9816 32.2065 46.0688 32.2422 45.3048 32.238C43.3082 32.2283 42.8697 34.85 42.6325 36.3036C42.5911 36.5546 42.7869 36.7824 43.0406 36.7822L50.4234 36.7769C50.6771 36.7766 50.8702 36.5522 50.8316 36.3023C50.6137 34.8734 50.2497 32.321 48.0351 32.2435Z" fill="white"/>
<path d="M45.2863 32.8123C44.0067 32.8123 43.5324 34.4132 43.229 36.1959L50.2201 36.1909C49.9527 34.4921 49.5417 32.8707 48.0083 32.817C47.3216 32.7929 46.6873 32.8007 46.1247 32.8068C45.8324 32.8104 45.5539 32.8131 45.2946 32.8123C45.2919 32.8123 45.2891 32.8123 45.2863 32.8123ZM43.0332 37.3559C42.7408 37.3559 42.4678 37.2287 42.2775 37.0072C42.0872 36.7852 42.0072 36.493 42.0541 36.205C42.2913 34.7262 42.7905 31.652 45.2836 31.652C45.3277 31.6523 45.3746 31.6526 45.4187 31.6523C45.6366 31.6523 45.8683 31.6501 46.1109 31.6471C46.6846 31.6405 47.3354 31.633 48.047 31.6578C50.7193 31.7516 51.1716 34.7312 51.3895 36.1631L51.3978 36.2091C51.4391 36.4949 51.3564 36.7847 51.1689 37.0042C50.9813 37.224 50.7056 37.3503 50.416 37.3509L43.0332 37.3559Z" fill="#674EA0"/>
<path d="M76.4714 7.03125H59.6484V19.9733H76.4714V7.03125Z" fill="#EE445B"/>
<path d="M60.2529 19.3871H75.9175V7.605H60.2529V19.3871ZM76.4967 20.5471H59.6737C59.3511 20.5471 59.0918 20.2873 59.0918 19.9671V7.02499C59.0918 6.70484 59.3511 6.44531 59.6737 6.44531H76.4967C76.8166 6.44531 77.0758 6.70484 77.0758 7.02499V19.9671C77.0758 20.2873 76.8166 20.5471 76.4967 20.5471Z" fill="#674EA0"/>
<path d="M70.1975 11.8546C70.1975 13.095 69.2267 14.1003 68.0271 14.1003C66.8302 14.1003 65.8594 13.095 65.8594 11.8546C65.8594 10.6143 66.8302 9.60938 68.0271 9.60938C69.2267 9.60938 70.1975 10.6143 70.1975 11.8546Z" fill="white"/>
<path d="M68.0523 10.1834C67.1753 10.1834 66.4638 10.9305 66.4638 11.8489C66.4638 12.7672 67.1753 13.5146 68.0523 13.5146C68.9293 13.5146 69.6409 12.7672 69.6409 11.8489C69.6409 10.9305 68.9293 10.1834 68.0523 10.1834ZM68.0523 14.6743C66.5355 14.6743 65.3027 13.407 65.3027 11.8489C65.3027 10.291 66.5355 9.02344 68.0523 9.02344C69.5691 9.02344 70.802 10.291 70.802 11.8489C70.802 13.407 69.5691 14.6743 68.0523 14.6743Z" fill="#674EA0"/>
<path d="M69.3606 15.4271C68.3071 15.3902 67.397 15.4256 66.6303 15.422C64.6336 15.4121 64.1951 18.0337 63.9607 19.4873C63.9194 19.7383 64.1124 19.966 64.3689 19.9658L71.749 19.9605C72.0027 19.9603 72.1957 19.7358 72.1571 19.4862C71.9392 18.0571 71.5752 15.5046 69.3606 15.4271Z" fill="white"/>
<path d="M66.6435 15.9955C65.3639 15.9955 64.8895 17.597 64.5889 19.3796L71.5773 19.3747C71.3126 17.6758 70.8989 16.0542 69.3655 16.0007C68.6816 15.9767 68.0473 15.9839 67.4847 15.9903C67.1923 15.9938 66.9138 15.9971 66.6518 15.9955C66.6491 15.9955 66.6463 15.9955 66.6435 15.9955ZM64.3904 20.5396C64.1008 20.5396 63.825 20.4124 63.6347 20.1907C63.4472 19.9687 63.3644 19.6764 63.4113 19.3888C63.6513 17.9097 64.1477 14.8358 66.6435 14.8358C66.6877 14.8358 66.7318 14.8361 66.7787 14.8361C66.9993 14.8361 67.2309 14.8333 67.4736 14.8306C68.0445 14.8239 68.6954 14.8168 69.4069 14.8413C72.0765 14.9351 72.5288 17.9146 72.7467 19.3465L72.755 19.3926C72.7991 19.6785 72.7163 19.9685 72.526 20.1879C72.3385 20.4077 72.0655 20.5341 71.7759 20.5344L64.3932 20.5396H64.3904Z" fill="#674EA0"/>
<path d="M55.146 7.03125H38.3203V19.9733H55.146V7.03125Z" fill="#EE445B"/>
<path d="M38.8954 19.3871H54.5573V7.605H38.8954V19.3871ZM55.1364 20.5471H38.3135C37.9936 20.5471 37.7344 20.2873 37.7344 19.9671V7.02499C37.7344 6.70484 37.9936 6.44531 38.3135 6.44531H55.1364C55.4591 6.44531 55.7184 6.70484 55.7184 7.02499V19.9671C55.7184 20.2873 55.4591 20.5471 55.1364 20.5471Z" fill="#674EA0"/>
<path d="M48.8694 11.8546C48.8694 13.095 47.8987 14.1003 46.7018 14.1003C45.502 14.1003 44.5312 13.095 44.5312 11.8546C44.5312 10.6143 45.502 9.60938 46.7018 9.60938C47.8987 9.60938 48.8694 10.6143 48.8694 11.8546Z" fill="white"/>
<path d="M46.6949 10.1834C45.8179 10.1834 45.1064 10.9305 45.1064 11.8489C45.1064 12.7672 45.8179 13.5146 46.6949 13.5146C47.5691 13.5146 48.2834 12.7672 48.2834 11.8489C48.2834 10.9305 47.5691 10.1834 46.6949 10.1834ZM46.6949 14.6743C45.1781 14.6743 43.9453 13.407 43.9453 11.8489C43.9453 10.291 45.1781 9.02344 46.6949 9.02344C48.209 9.02344 49.4417 10.291 49.4417 11.8489C49.4417 13.407 48.209 14.6743 46.6949 14.6743Z" fill="#674EA0"/>
<path d="M48.0351 15.4271C46.9816 15.3902 46.0688 15.4256 45.3048 15.422C43.3082 15.4121 42.8697 18.0337 42.6325 19.4873C42.5911 19.7383 42.7869 19.966 43.0406 19.9658L50.4234 19.9605C50.6771 19.9603 50.8702 19.7358 50.8316 19.4862C50.6137 18.0571 50.2497 15.5046 48.0351 15.4271Z" fill="white"/>
<path d="M45.2863 15.9955C44.0067 15.9955 43.5324 17.597 43.229 19.3796L50.2201 19.3747C49.9527 17.6758 49.5417 16.0542 48.0083 16.0007C47.3244 15.9767 46.6873 15.9839 46.1275 15.9903C45.8324 15.9938 45.5566 15.9971 45.2946 15.9955C45.2919 15.9955 45.2891 15.9955 45.2863 15.9955ZM43.0332 20.5396C42.7408 20.5396 42.4678 20.4124 42.2775 20.1907C42.0872 19.9687 42.0072 19.6764 42.0541 19.3888C42.294 17.9067 42.8126 14.8286 45.3001 14.8358C45.5539 14.8369 45.8269 14.8338 46.1137 14.8306C46.6873 14.8239 47.3382 14.8168 48.047 14.8413C50.7193 14.9351 51.1716 17.9146 51.3895 19.3465L51.3978 19.3926C51.4391 19.6785 51.3564 19.9685 51.1689 20.1879C50.9813 20.4077 50.7056 20.5341 50.416 20.5344L43.0332 20.5396Z" fill="#674EA0"/>
<path d="M81.5175 41.2145L72.0469 33.8209C72.0084 33.7903 71.9504 33.8204 71.9532 33.8698L72.6095 45.8661C72.6206 46.0711 72.8384 46.196 73.0205 46.1008L75.6818 44.7115C76.0238 44.5336 76.443 44.6654 76.6195 45.0052L78.1694 47.7851L80.5991 46.6147L78.5197 44.0145C78.3404 43.6745 78.4728 43.2547 78.812 43.0774L81.4733 41.6874C81.6554 41.5923 81.6802 41.3405 81.5175 41.2145Z" fill="white"/>
<path d="M75.9955 44.0461C76.4561 44.0461 76.9001 44.2954 77.129 44.7301L78.4031 47.0191L79.6856 46.4016L78.0584 44.3701C78.0363 44.3412 78.017 44.3098 77.9977 44.2767C77.8405 43.9749 77.8102 43.6302 77.9122 43.305C78.0142 42.9799 78.2349 42.7141 78.5382 42.5568L80.7914 41.3806L72.5895 34.9777L73.1576 45.366L75.4081 44.1909C75.5956 44.0927 75.7969 44.0461 75.9955 44.0461ZM78.1632 48.3586C77.9591 48.3586 77.7632 48.2502 77.6558 48.0607L76.1085 45.2811C76.07 45.2116 76.001 45.1895 75.9458 45.219L73.2845 46.6084C73.0225 46.7446 72.7136 46.7391 72.4572 46.5929C72.2007 46.4468 72.0407 46.1842 72.0242 45.8903L71.3678 33.895C71.3568 33.6468 71.4892 33.4123 71.707 33.2965C71.9277 33.1804 72.1952 33.2027 72.3938 33.3528L81.8697 40.751C82.1014 40.9322 82.2228 41.2157 82.1952 41.5091C82.1703 41.8025 81.9966 42.0588 81.7373 42.1947L79.0732 43.5847C79.0402 43.6032 79.0236 43.6313 79.0181 43.6522C79.0126 43.6661 79.0098 43.6859 79.0153 43.708L81.0451 46.2458C81.1582 46.3836 81.1996 46.5643 81.1582 46.7367C81.1196 46.9091 81.0038 47.0541 80.8466 47.1307L78.4141 48.3012C78.3342 48.34 78.2487 48.3586 78.1632 48.3586Z" fill="#674EA0"/>
<path d="M112.677 78.9699C112.677 92.2625 101.902 103.038 88.6089 103.038C75.3188 103.038 64.541 92.2625 64.541 78.9699C64.541 65.6781 75.3188 54.9023 88.6089 54.9023C101.902 54.9023 112.677 65.6781 112.677 78.9699Z" fill="#807DBB"/>
<path d="M88.602 55.4763C75.6511 55.4763 65.1161 66.0127 65.1161 78.9639C65.1161 91.9154 75.6511 102.452 88.602 102.452C101.556 102.452 112.091 91.9154 112.091 78.9639C112.091 66.0127 101.556 55.4763 88.602 55.4763ZM88.602 103.612C75.0113 103.612 63.9551 92.5549 63.9551 78.9639C63.9551 65.3731 75.0113 54.3167 88.602 54.3167C102.193 54.3167 113.252 65.3731 113.252 78.9639C113.252 92.5549 102.193 103.612 88.602 103.612Z" fill="#674EA0"/>
<path d="M105.52 96.07C105.718 95.4191 105.763 95.0121 105.763 95.0121C105.156 94.0118 104.169 93.2688 102.996 92.9715C100.661 92.3797 96.9209 91.9277 94.8249 91.3251C93.7107 91.0049 92.9441 89.9862 92.9441 88.8317V86.8533C92.9441 86.5888 93.0737 86.3474 93.2777 86.1792C94.5436 85.1442 95.5199 83.56 96.0963 82.0325C96.2314 81.6684 96.3362 81.3179 96.3803 81.0099C96.3803 81.0099 97.4062 81.0195 97.5552 80.0758C98.013 77.1905 98.3439 77.0656 98.3439 75.7981C98.3439 74.5322 97.8806 74.2307 97.3235 74.5584C97.4173 74.2333 97.5883 73.5565 97.6076 72.6147C97.7345 66.7859 93.3687 63.2815 88.1812 63.2815C82.9909 63.2815 78.7162 66.9081 78.7548 72.6147C78.7604 73.5565 78.9452 74.2333 79.0362 74.5584C78.4791 74.2307 78.0158 74.5322 78.0158 75.7981C78.0158 77.0656 78.3467 77.1905 78.8072 80.0758C78.9562 81.0195 79.9794 81.0099 79.9794 81.0099C79.9986 81.1381 80.0207 81.2655 80.0456 81.393C80.3903 83.1552 81.3528 85.0523 82.7593 86.1784C82.9716 86.3485 83.1068 86.594 83.1068 86.8654V88.8317C83.1068 89.9831 82.3511 91.0016 81.2424 91.321C79.1465 91.9241 75.9391 92.5504 73.5977 93.1436C72.569 93.4043 71.6865 94.0057 71.0742 94.8226C71.0742 94.8226 71.077 95.0749 71.1376 95.5011C75.5254 100.129 81.7251 103.02 88.6032 103.02C95.2 103.02 101.171 100.366 105.52 96.07Z" fill="white"/>
<path d="M71.7119 95.2903C76.1824 99.9363 82.1835 102.492 88.6258 102.492C94.7952 102.492 100.614 100.122 105.027 95.8138C105.104 95.5457 105.151 95.3322 105.179 95.1908C104.635 94.3926 103.824 93.8259 102.876 93.5857C101.803 93.3141 100.394 93.0659 99.0285 92.8259C97.4565 92.5496 95.8322 92.2636 94.6876 91.9346C93.3335 91.5457 92.3876 90.2912 92.3876 88.8838V86.9054C92.3876 86.4762 92.5861 86.0672 92.9336 85.7829C94.0119 84.9015 94.9744 83.479 95.5756 81.8803C95.708 81.5259 95.7935 81.2225 95.8294 80.9787C95.8707 80.6916 96.1244 80.4826 96.4085 80.482C96.5271 80.4801 96.9407 80.4426 97.0042 80.0369C97.2303 78.6238 97.4234 77.861 97.5668 77.3041C97.713 76.7261 97.7874 76.4357 97.7874 75.8502C97.7874 75.3974 97.7212 75.18 97.6799 75.0896C97.6688 75.0951 97.6551 75.1019 97.6413 75.1105C97.4344 75.2305 97.178 75.2142 96.9904 75.0689C96.8029 74.9238 96.7229 74.6789 96.7891 74.4511C96.949 73.8918 97.0373 73.287 97.0511 72.6541C97.1035 70.199 96.3175 68.0686 94.7758 66.4936C93.1487 64.8298 90.8156 63.9136 88.2038 63.9136C85.6694 63.9136 83.3803 64.816 81.7505 66.455C80.1675 68.0474 79.3401 70.1941 79.3567 72.6635C79.3622 73.5581 79.5414 74.1836 79.6186 74.4508C79.6821 74.6789 79.6021 74.9236 79.4146 75.0689C79.227 75.2142 78.9705 75.2308 78.7665 75.1105C78.7527 75.1017 78.7389 75.0951 78.7279 75.0893C78.6865 75.1797 78.6175 75.3968 78.6175 75.8502C78.6175 76.4351 78.692 76.725 78.8409 77.3027C78.9816 77.8596 79.1774 78.6227 79.4008 80.0369C79.4697 80.4743 79.9385 80.4809 79.9965 80.482C80.2999 80.49 80.5342 80.691 80.5756 80.9776C80.5949 81.097 80.6143 81.2153 80.6363 81.3339C80.9866 83.1152 81.9462 84.8182 83.146 85.7776C83.5045 86.0658 83.7113 86.4812 83.7113 86.9175V88.8838C83.7113 90.2903 82.7709 91.5429 81.4251 91.9304C80.184 92.2876 78.5541 92.6541 76.9767 93.0085C75.8707 93.2564 74.729 93.5132 73.7637 93.7581C72.9501 93.9638 72.2221 94.4235 71.6898 95.0609C71.6926 95.1237 71.7008 95.2007 71.7119 95.2903ZM88.6258 103.652C81.7974 103.652 75.446 100.918 70.7384 95.9522C70.6556 95.8643 70.6032 95.7531 70.5867 95.6337C70.5232 95.1847 70.5177 94.9131 70.5177 94.8835C70.5149 94.7553 70.5563 94.6295 70.6335 94.5269C71.3312 93.594 72.3407 92.9216 73.4769 92.6337C74.4587 92.3849 75.6087 92.1268 76.7229 91.8767C78.2838 91.5261 79.8972 91.1635 81.1051 90.816C81.9546 90.5708 82.5503 89.776 82.5503 88.8838V86.9175C82.5503 86.8044 82.4675 86.722 82.4206 86.6828C81.0197 85.5625 79.9027 83.605 79.5 81.5719C78.9843 81.4312 78.3887 81.052 78.2562 80.2189C78.0384 78.8574 77.8536 78.1243 77.7157 77.5893C77.5613 76.982 77.4592 76.581 77.4592 75.8502C77.4592 74.9045 77.6881 74.3135 78.1625 74.0424C78.2039 74.0187 78.2562 73.9936 78.3142 73.9718C78.2508 73.6202 78.1984 73.1798 78.1956 72.6706C78.179 69.8858 79.1222 67.4538 80.9287 65.6376C82.7764 63.7779 85.3605 62.7537 88.2038 62.7537C91.1272 62.7537 93.7582 63.7939 95.606 65.6825C97.371 67.4856 98.2701 69.9051 98.2094 72.6794C98.2011 73.1219 98.1597 73.5531 98.0881 73.9699C98.1487 73.9922 98.2011 74.0181 98.2425 74.0424C98.7169 74.3132 98.9457 74.9045 98.9457 75.8502C98.9457 76.5813 98.8437 76.9828 98.6893 77.5904C98.5541 78.1254 98.3666 78.8585 98.1515 80.2189C98.0163 81.06 97.4096 81.4382 96.8911 81.5761C96.8333 81.7942 96.7587 82.03 96.6622 82.2887C95.9893 84.073 94.8972 85.6734 93.6672 86.6803C93.623 86.7167 93.5486 86.7953 93.5486 86.9054V88.8838C93.5486 89.7768 94.1471 90.573 95.0075 90.8198C96.0941 91.1318 97.6881 91.4125 99.2298 91.6836C100.614 91.9274 102.046 92.1792 103.16 92.4616C104.472 92.7939 105.581 93.6116 106.282 94.763C106.348 94.8728 106.375 95.0016 106.362 95.129C106.359 95.1478 106.306 95.5973 106.097 96.2909C106.069 96.383 106.017 96.4668 105.948 96.5344C101.304 101.125 95.1537 103.652 88.6258 103.652Z" fill="#674EA0"/>
<path d="M88.833 91.6423L91.8418 98.6837C91.8693 98.7494 91.93 98.794 92.0017 98.8015L99.6355 99.54C99.8064 99.5566 99.8754 99.7692 99.7458 99.8823L93.9681 104.915C93.9129 104.962 93.8881 105.035 93.9046 105.104L95.5593 112.578C95.5952 112.746 95.4132 112.879 95.267 112.788L88.6867 108.858C88.6261 108.822 88.5489 108.821 88.4882 108.857L81.8776 112.738C81.7287 112.826 81.5494 112.694 81.588 112.526L83.2979 105.064C83.3145 104.995 83.2924 104.922 83.2372 104.875L77.4982 99.7981C77.3685 99.6846 77.4402 99.4724 77.6112 99.4565L85.2477 98.7758C85.3194 98.7692 85.3829 98.7248 85.4104 98.6592L88.4716 91.641C88.5406 91.4835 88.764 91.4846 88.833 91.6423Z" fill="#EE445B"/>
<path d="M88.5776 108.244C88.7183 108.244 88.8562 108.281 88.9803 108.357L94.7938 111.827L93.3322 105.223C93.2687 104.945 93.3653 104.657 93.5804 104.471L98.6824 100.025L91.9394 99.3724C91.6553 99.3443 91.41 99.1647 91.2996 98.9036L88.641 92.6818L85.9356 98.8851C85.8225 99.1438 85.577 99.3219 85.293 99.3474L78.5445 99.9488L83.6135 104.434C83.8285 104.626 83.9196 104.915 83.8561 105.192L82.3448 111.783L88.186 108.351C88.3074 108.28 88.4425 108.244 88.5776 108.244ZM95.362 113.391C95.224 113.391 95.0834 113.353 94.9621 113.278L88.5776 109.467L82.1628 113.234C81.8954 113.388 81.5616 113.372 81.3106 113.187C81.0624 113.005 80.9466 112.691 81.0156 112.39L82.6758 105.151L77.1077 100.227C76.876 100.022 76.7878 99.7001 76.8843 99.4061C76.9781 99.1115 77.24 98.9022 77.5489 98.8733L84.9621 98.2122L87.935 91.4027C88.0591 91.1195 88.3377 90.9375 88.6438 90.9375C88.9582 90.9389 89.2367 91.1237 89.3581 91.408C89.3581 91.4082 92.2786 98.24 92.2786 98.24L99.6836 98.9571C99.9924 98.9869 100.254 99.197 100.348 99.4918C100.442 99.7867 100.354 100.109 100.119 100.313L94.5126 105.196L96.1176 112.448C96.1865 112.751 96.0652 113.063 95.8142 113.245C95.6791 113.342 95.5191 113.391 95.362 113.391Z" fill="#674EA0"/>
<path d="M73.4773 88.8077L75.929 94.5448C75.9538 94.5981 76.0034 94.6353 76.0613 94.6408L82.2804 95.2429C82.4182 95.2564 82.4761 95.4293 82.3686 95.5214L77.6609 99.622C77.6168 99.6604 77.5975 99.72 77.6113 99.7763L78.9599 105.867C78.9902 106.003 78.8413 106.109 78.7199 106.038L73.3587 102.835C73.309 102.805 73.2483 102.805 73.1959 102.834L67.8127 105.997C67.6913 106.068 67.5451 105.96 67.5754 105.824L68.9709 99.7437C68.9819 99.6869 68.9626 99.6279 68.9212 99.589L64.244 95.4533C64.1391 95.3606 64.1943 95.1874 64.3349 95.175L70.5594 94.6196C70.6173 94.6152 70.667 94.5785 70.6891 94.525L73.1849 88.8069C73.2401 88.6789 73.4221 88.6794 73.4773 88.8077Z" fill="#EE445B"/>
<path d="M73.2731 102.284C73.4027 102.284 73.5351 102.32 73.6509 102.39L78.1766 105.092L77.0403 99.9536C76.9796 99.6894 77.0707 99.4136 77.2775 99.2355L81.2461 95.778L76.0006 95.2697C75.7331 95.2449 75.4986 95.0752 75.3911 94.8273L73.3228 89.9826L71.2158 94.8086C71.1054 95.0601 70.8682 95.2275 70.6007 95.2496L65.3525 95.7175L69.299 99.2065C69.5003 99.3858 69.5886 99.6613 69.5307 99.9255L68.353 105.055L72.898 102.386C73.0139 102.318 73.1434 102.284 73.2731 102.284ZM78.7971 106.692C78.6674 106.692 78.5351 106.657 78.4165 106.587L73.2703 103.513L68.0993 106.549C67.8429 106.698 67.5257 106.682 67.2885 106.507C67.0486 106.333 66.9383 106.034 67.0045 105.746L68.3421 99.9098L63.855 95.9393C63.6316 95.7437 63.5489 95.4357 63.6399 95.1549C63.7337 94.8742 63.9818 94.6757 64.277 94.6492L70.2533 94.1164L72.647 88.6268C72.7656 88.3568 73.0415 88.1842 73.3282 88.1833C73.6233 88.1842 73.8909 88.3604 74.0067 88.632L76.3591 94.1395L82.3299 94.7176C82.625 94.746 82.8732 94.9459 82.9642 95.2272C83.0525 95.5088 82.967 95.816 82.7464 96.0102L78.2262 99.947L79.5197 105.793C79.5831 106.079 79.47 106.378 79.2328 106.552C79.1032 106.645 78.9515 106.692 78.7971 106.692Z" fill="#674EA0"/>
<path d="M103.854 89.7371L106.102 94.9999C106.124 95.049 106.171 95.0829 106.223 95.0884L111.929 95.6408C112.056 95.6527 112.105 95.8115 112.009 95.8959L107.693 99.6574C107.651 99.6926 107.635 99.747 107.646 99.7994L108.881 105.386C108.909 105.512 108.774 105.609 108.664 105.543L103.746 102.605C103.699 102.578 103.642 102.577 103.595 102.604L98.6553 105.506C98.545 105.571 98.4098 105.472 98.4374 105.346L99.7171 99.7696C99.7281 99.7172 99.7116 99.6626 99.673 99.6273L95.3818 95.8333C95.2852 95.7478 95.3376 95.5892 95.4672 95.5785L101.176 95.0691C101.228 95.0641 101.275 95.0313 101.295 94.9817L103.586 89.7362C103.636 89.6187 103.804 89.6193 103.854 89.7371Z" fill="#EE445B"/>
<path d="M103.663 101.999C103.792 101.999 103.919 102.032 104.035 102.1L108.092 104.524L107.072 99.9188C107.016 99.6587 107.105 99.3909 107.3 99.2166L110.864 96.1152L106.162 95.6595C105.897 95.6336 105.671 95.467 105.566 95.2252L103.71 90.8824L101.821 95.2078C101.716 95.4491 101.487 95.6146 101.225 95.6405L96.5145 96.0608L100.05 99.1871C100.251 99.3634 100.337 99.6355 100.276 99.8964L99.2227 104.491L103.296 102.099C103.409 102.032 103.536 101.999 103.663 101.999ZM108.732 106.138C108.605 106.138 108.475 106.104 108.36 106.036L103.663 103.229L98.9414 106C98.6932 106.146 98.3816 106.131 98.1471 105.96C97.9128 105.789 97.8024 105.496 97.8658 105.213L99.0876 99.8849L94.9922 96.2618C94.7743 96.0677 94.6916 95.7646 94.7826 95.4888C94.8764 95.2133 95.1218 95.0192 95.4114 94.9946L100.861 94.5087L103.048 89.4985C103.164 89.2332 103.428 89.0611 103.715 89.0628C104.008 89.0636 104.267 89.2368 104.38 89.5043L106.528 94.5299L111.978 95.0578C112.265 95.084 112.51 95.2795 112.598 95.5559C112.689 95.8322 112.604 96.1347 112.386 96.3264L108.26 99.9196L109.441 105.255C109.504 105.538 109.394 105.831 109.159 106C109.032 106.092 108.881 106.138 108.732 106.138Z" fill="#674EA0"/>
<path d="M88.0845 88.4494C85.6714 88.4494 83.2473 87.5528 81.4685 85.7751C81.2423 85.5486 81.2423 85.1816 81.4685 84.9549C81.6946 84.7282 82.0642 84.7284 82.2903 84.9546C85.6135 88.2787 90.7652 87.7814 93.49 85.2315C93.7244 85.0128 94.0912 85.0249 94.309 85.2588C94.5297 85.4927 94.5159 85.8597 94.2814 86.0784C92.5881 87.6634 90.3432 88.4494 88.0845 88.4494Z" fill="#674EA0"/>
<path d="M97.7269 74.9373L98.1268 70.7421C98.4357 67.6958 97.0126 64.7021 94.3678 63.0033C94.1224 62.8455 93.8273 62.6974 93.6645 62.6177C89.9194 60.76 85.4875 61.305 85.4875 61.305C84.1913 61.3849 83.0082 62.0496 82.2994 63.0973L81.5493 64.2029C79.6188 64.5474 78.2481 66.2104 78.3446 68.0971L79.0507 74.5934L80.7137 70.9795C80.7936 70.861 80.9122 70.7407 81.0501 70.6254C81.9188 69.8927 82.6497 69.0193 83.146 68.0146L83.5212 67.2534L84.1389 67.5303C86.9878 68.805 90.1428 69.185 93.2674 68.8701C93.7804 68.8191 94.1693 68.9136 94.263 69.2771C95.8846 75.6086 97.7269 74.9373 97.7269 74.9373Z" fill="#EE445B"/>
<path d="M93.4903 68.2758C94.4832 68.2758 94.7452 68.8618 94.8141 69.131C95.7463 72.7656 96.6978 73.882 97.2024 74.2242L97.5417 70.6848C97.8312 67.8155 96.4909 65.0596 94.0447 63.4887C93.8213 63.3436 93.5234 63.1972 93.3993 63.1346C89.861 61.38 85.5918 61.8732 85.5505 61.8784C84.4032 61.9498 83.3772 62.5254 82.7705 63.4206L82.0204 64.526C81.9321 64.6556 81.797 64.7438 81.6426 64.7717C80.0072 65.0629 78.8351 66.4793 78.9151 68.0657L79.3921 72.4432L80.1781 70.735C80.192 70.7055 80.2057 70.6776 80.2251 70.6509C80.3298 70.4953 80.476 70.3412 80.6663 70.1793C81.524 69.4595 82.1776 68.644 82.6161 67.7557L82.9912 66.9945C83.1291 66.7146 83.4627 66.5941 83.7496 66.7218L84.3673 66.9986C86.9707 68.1638 90.0265 68.6106 93.2007 68.2907C93.3028 68.2805 93.3993 68.2758 93.4903 68.2758ZM97.5582 75.5345C97.3596 75.5345 97.0893 75.4904 96.7805 75.3265C95.578 74.6923 94.5411 72.7176 93.6999 69.4561C93.653 69.4424 93.5427 69.4223 93.3166 69.4448C89.941 69.7849 86.6812 69.305 83.893 68.0574L83.7855 68.0089L83.6558 68.2681C83.1483 69.3012 82.3927 70.2427 81.4137 71.0668C81.3034 71.1594 81.2399 71.2284 81.2068 71.2716L79.5714 74.8332C79.4611 75.0701 79.2101 75.206 78.9509 75.1635C78.6917 75.1216 78.4959 74.9131 78.4655 74.6542L77.7595 68.1575C77.652 66.0384 79.1136 64.1693 81.1931 63.6807L81.808 62.77C82.6161 61.5789 83.9757 60.8141 85.4456 60.724C85.5973 60.7041 90.0568 60.1829 93.9151 62.0957C94.0695 62.173 94.3921 62.3335 94.6734 62.5127C97.4865 64.3208 99.0281 67.4956 98.6944 70.7981L98.2946 74.9898C98.2752 75.2124 98.1263 75.4029 97.9167 75.4799C97.8753 75.4945 97.7485 75.5345 97.5582 75.5345Z" fill="#674EA0"/>
</svg>
