<svg width="120" height="120" viewBox="0 0 120 120" fill="none" xmlns="http://www.w3.org/2000/svg">
<g clip-path="url(#clip0_165_9310)">
<path d="M17.2559 60.008C17.2559 35.2803 37.3021 15.2344 62.0292 15.2344C86.7576 15.2344 106.804 35.2803 106.804 60.008C106.804 84.7356 86.7576 104.782 62.0292 104.782C37.3021 104.782 17.2559 84.7356 17.2559 60.008V60.008Z" fill="#EDEAF3"/>
<path d="M66.0814 3.68239C66.0644 3.68239 66.046 3.682 66.0277 3.68069C63.5962 3.51117 61.1045 3.49807 58.6665 3.6423C58.2512 3.66615 57.9028 3.35252 57.8779 2.9413C57.8543 2.53008 58.1674 2.17689 58.5788 2.15239C61.0809 2.00488 63.6368 2.01798 66.1325 2.19169C66.5438 2.22038 66.853 2.57698 66.8242 2.9882C66.798 3.38147 66.4692 3.68239 66.0814 3.68239V3.68239ZM44.0098 6.44514C43.6967 6.44514 43.4058 6.24693 43.301 5.93383C43.1713 5.54265 43.3836 5.12029 43.7753 4.99021C46.1569 4.19986 48.6159 3.55912 51.084 3.08606C51.4888 3.00693 51.8805 3.27353 51.9578 3.67859C52.0351 4.08326 51.7705 4.47431 51.3657 4.55187C48.9604 5.01261 46.5643 5.63671 44.2443 6.40689C44.167 6.43257 44.0871 6.44514 44.0098 6.44514ZM80.6661 6.63994C80.5849 6.63994 80.5037 6.62684 80.4224 6.59907C78.1102 5.80348 75.7207 5.15396 73.322 4.66794C72.9185 4.58606 72.6565 4.19239 72.739 3.78837C72.8202 3.38462 73.2146 3.12326 73.6181 3.20514C76.0809 3.70414 78.5334 4.37108 80.9085 5.18776C81.2989 5.32178 81.5045 5.7465 81.3722 6.1361C81.2648 6.44527 80.9753 6.63994 80.6661 6.63994V6.63994ZM30.6237 12.9392C30.3814 12.9392 30.1443 12.8211 30.0002 12.6034C29.7735 12.2592 29.8692 11.7964 30.2137 11.5696C32.3111 10.1881 34.5198 8.93174 36.7783 7.83536C37.1491 7.65601 37.5958 7.81008 37.7753 8.18095C37.9561 8.55156 37.8015 8.99815 37.4307 9.17815C35.2298 10.2462 33.0774 11.4702 31.0338 12.8163C30.908 12.8992 30.7652 12.9392 30.6237 12.9392V12.9392ZM19.36 22.6644C19.1831 22.6644 19.0063 22.6019 18.8635 22.475C18.5556 22.2004 18.5294 21.7286 18.8032 21.4212C20.4748 19.5494 22.2866 17.7675 24.1888 16.1244C24.5006 15.8551 24.9735 15.8898 25.2408 16.2014C25.5106 16.5134 25.4766 16.9846 25.1635 17.254C23.3111 18.8551 21.5451 20.5914 19.9167 22.4151C19.77 22.5803 19.5657 22.6644 19.36 22.6644V22.6644ZM10.9705 34.9565C10.8578 34.9565 10.7425 34.9305 10.6351 34.8758C10.267 34.6897 10.1189 34.2409 10.305 33.8731C11.4381 31.6336 12.7312 29.4457 14.1486 27.3701C14.3818 27.0295 14.8456 26.9423 15.1862 27.1745C15.5268 27.407 15.6133 27.8712 15.3814 28.2115C14.0006 30.2338 12.7416 32.3653 11.6373 34.5469C11.505 34.8067 11.2429 34.9565 10.9705 34.9565Z" fill="#66509E"/>
<path d="M11.7158 88.0068C11.4511 88.0068 11.1944 87.8653 11.0594 87.6164C9.86075 85.409 8.7983 83.102 7.90092 80.7596C7.75419 80.3745 7.94546 79.9435 8.33061 79.7955C8.71446 79.6487 9.14677 79.84 9.29481 80.2251C10.1686 82.5059 11.2035 84.754 12.3708 86.9051C12.5686 87.2666 12.4337 87.7199 12.0721 87.9164C11.9581 87.978 11.8363 88.0068 11.7158 88.0068ZM20.4472 100.051C20.2494 100.051 20.0529 99.9727 19.9062 99.8182C18.1795 97.992 16.5577 96.0361 15.0852 94.0042C14.8428 93.6714 14.9175 93.2037 15.2503 92.9627C15.5856 92.7216 16.0507 92.795 16.2931 93.1291C17.7289 95.1085 19.3088 97.0147 20.9896 98.7924C21.2725 99.0924 21.2594 99.564 20.9607 99.8483C20.8166 99.9845 20.6319 100.051 20.4472 100.051V100.051ZM31.9821 109.455C31.8485 109.455 31.7123 109.418 31.5904 109.343C29.4564 108.023 27.3852 106.548 25.4385 104.96C25.1188 104.699 25.0717 104.229 25.3324 103.909C25.5917 103.591 26.0621 103.543 26.3817 103.803C28.2786 105.35 30.2961 106.788 32.3752 108.074C32.7249 108.29 32.8337 108.75 32.6175 109.101C32.476 109.329 32.2324 109.455 31.9821 109.455V109.455ZM82.1922 114.323C81.8909 114.323 81.6066 114.138 81.4939 113.84C81.3485 113.453 81.5437 113.023 81.9289 112.878C84.2175 112.016 86.4721 110.994 88.6297 109.839C88.9939 109.645 89.4472 109.781 89.6398 110.145C89.835 110.508 89.6987 110.96 89.3345 111.155C87.1179 112.341 84.8044 113.39 82.4555 114.274C82.369 114.307 82.28 114.323 82.1922 114.323V114.323ZM45.5568 115.565C45.4848 115.565 45.4127 115.556 45.3407 115.533C42.9367 114.812 40.5538 113.922 38.2612 112.89C37.8852 112.721 37.7175 112.279 37.8865 111.903C38.0568 111.527 38.497 111.361 38.8743 111.529C41.1079 112.535 43.428 113.401 45.7704 114.104C46.1647 114.223 46.3887 114.639 46.2708 115.033C46.1738 115.357 45.8765 115.565 45.5568 115.565ZM67.6992 117.698C67.3193 117.698 66.9957 117.409 66.9577 117.024C66.9171 116.614 67.2171 116.249 67.6271 116.208C70.0664 115.968 72.5097 115.566 74.8874 115.013C75.2909 114.919 75.6904 115.169 75.7834 115.57C75.8765 115.972 75.6276 116.373 75.2254 116.466C72.7848 117.035 70.2773 117.447 67.7725 117.694C67.7476 117.696 67.7241 117.698 67.6992 117.698ZM60.2476 117.947C60.2398 117.947 60.2319 117.947 60.2241 117.947C57.7075 117.869 55.1791 117.628 52.707 117.227C52.3009 117.162 52.0245 116.779 52.09 116.372C52.1555 115.964 52.542 115.691 52.9455 115.755C55.3533 116.144 57.8188 116.38 60.2699 116.454C60.6826 116.467 61.0062 116.812 60.9931 117.223C60.9813 117.628 60.6498 117.947 60.2476 117.947V117.947Z" fill="#66509E"/>
<path d="M118.87 54.0612C118.496 54.0612 118.173 53.7814 118.129 53.4012C117.847 50.9685 117.4 48.5329 116.803 46.1629C116.702 45.7633 116.945 45.3575 117.344 45.2569C117.745 45.157 118.15 45.3987 118.249 45.798C118.864 48.2314 119.321 50.7313 119.612 53.2287C119.66 53.6381 119.367 54.0085 118.957 54.0561C118.928 54.0595 118.898 54.0612 118.87 54.0612V54.0612ZM118.676 68.9447C118.641 68.9447 118.604 68.9421 118.569 68.9382C118.16 68.8792 117.877 68.5006 117.936 68.0932C118.282 65.6788 118.475 63.2098 118.506 60.7537C118.511 60.3448 118.845 60.0172 119.253 60.0172C119.255 60.0172 119.259 60.0172 119.262 60.0172C119.675 60.0226 120.005 60.3611 119.998 60.7732C119.966 63.2936 119.769 65.8281 119.414 68.3054C119.36 68.6775 119.041 68.9447 118.676 68.9447ZM114.652 83.274C114.554 83.274 114.454 83.2543 114.359 83.2124C113.98 83.05 113.804 82.6124 113.967 82.2325C114.931 79.9845 115.755 77.6487 116.417 75.2932C116.528 74.8963 116.941 74.6657 117.336 74.7771C117.733 74.8884 117.965 75.2998 117.854 75.6967C117.174 78.115 116.329 80.5124 115.338 82.8207C115.217 83.1037 114.941 83.274 114.652 83.274V83.274Z" fill="#66509E"/>
<path d="M97.3671 91.3789C100.738 93.171 104.727 91.5636 107.166 85.6199C109.607 79.6749 109.625 71.5238 106.254 69.7317C102.884 67.9396 97.4011 73.1837 94.9605 79.1286C92.5199 85.0723 93.9963 89.5867 97.3671 91.3789V91.3789Z" fill="white"/>
<path d="M104.788 70.1612C104.39 70.1612 103.957 70.2451 103.495 70.4128C100.693 71.4228 97.3979 75.2246 95.6621 79.4521C93.5726 84.5429 94.3835 88.9813 97.728 90.7604C98.9909 91.4311 100.325 91.5451 101.587 91.0905C103.549 90.3818 105.244 88.4062 106.487 85.3774C108.932 79.4246 108.642 71.8813 105.916 70.4311C105.578 70.2516 105.201 70.1612 104.788 70.1612V70.1612ZM100.035 92.8604C99.021 92.8604 98.0057 92.5984 97.0284 92.0783C92.9581 89.9141 91.88 84.7355 94.2813 78.8861C96.194 74.2289 99.773 70.1678 102.988 69.0084C104.325 68.5263 105.58 68.563 106.615 69.1132C110.45 71.153 110.439 79.6813 107.868 85.9434C106.459 89.3744 104.463 91.6394 102.094 92.4936C101.417 92.7386 100.725 92.8604 100.035 92.8604V92.8604Z" fill="#66509E"/>
<path d="M99.2264 79.1887C98.4914 80.9783 99.0652 83.0494 100.505 83.8158C101.946 84.5822 103.711 83.7529 104.446 81.9634C105.179 80.1739 104.607 78.1027 103.166 77.3363C101.725 76.57 99.9613 77.3992 99.2264 79.1887Z" fill="#EE445B"/>
<path d="M99.2058 79.1734H99.211H99.2058ZM102.012 77.7808C101.811 77.7808 101.607 77.8175 101.404 77.8909C100.759 78.1241 100.209 78.694 99.8962 79.4564C99.3145 80.8739 99.7442 82.5612 100.835 83.1415C101.382 83.4324 101.894 83.3512 102.227 83.2306C102.871 82.9974 103.421 82.4276 103.735 81.6651C104.316 80.2477 103.885 78.5603 102.795 77.98C102.546 77.8477 102.282 77.7808 102.012 77.7808ZM101.619 84.8328C101.107 84.8328 100.601 84.707 100.135 84.4595C98.3673 83.5188 97.6403 81.0206 98.5154 78.8891C98.9883 77.7376 99.8569 76.8625 100.897 76.4865C101.77 76.1721 102.692 76.235 103.496 76.6621C105.263 77.6014 105.989 80.1009 105.115 82.2324C104.642 83.3826 103.774 84.259 102.732 84.6337C102.367 84.766 101.991 84.8328 101.619 84.8328V84.8328Z" fill="#66509E"/>
<path d="M79.3304 82.7281C78.6793 87.6198 81.9622 92.0962 86.6627 92.7277C91.3644 93.3591 95.7033 89.9072 96.3544 85.0154C97.0054 80.1251 93.7225 75.6473 89.022 75.0159C84.3203 74.3844 79.9814 77.8377 79.3304 82.7281Z" fill="#EE445B"/>
<path d="M87.8959 75.7314C86.2282 75.7314 84.6025 76.2842 83.2322 77.331C81.4806 78.6685 80.3514 80.6362 80.054 82.8698C79.4579 87.3462 82.4605 91.4559 86.747 92.0323C88.7605 92.3034 90.7754 91.7585 92.4221 90.5008C94.1736 89.162 95.3016 87.1943 95.599 84.9607C96.195 80.4842 93.1937 76.3746 88.9073 75.7995C88.5693 75.7537 88.2313 75.7314 87.8959 75.7314V75.7314ZM87.7623 93.5925C87.3575 93.5925 86.9527 93.565 86.5479 93.5113C81.4466 92.8249 77.8701 87.9633 78.575 82.6733C78.9247 80.0441 80.257 77.7253 82.3256 76.1441C84.2894 74.6441 86.6959 73.9969 89.1064 74.3192C94.2064 75.0056 97.7828 79.8672 97.0793 85.1572C96.7282 87.7877 95.3959 90.1052 93.3274 91.6864C91.695 92.9336 89.7536 93.5925 87.7623 93.5925Z" fill="#66509E"/>
<path d="M89.4238 76.0706L87.9552 75.8034L88.0888 75.0684C88.4334 73.1781 88.1203 71.8811 87.1037 70.989L86.543 70.4964L87.5281 69.375L88.0888 69.8676C89.4984 71.1056 89.9923 72.9462 89.5574 75.337L89.4238 76.0706V76.0706Z" fill="#66509E"/>
<path d="M91.6312 80.0231C91.2133 80.0231 90.4744 79.7939 88.1543 75.4537C87.9604 75.0908 88.098 74.6375 88.4609 74.4437C88.8225 74.2498 89.277 74.386 89.4709 74.7502C89.991 75.7223 90.6225 76.7978 91.1307 77.5681C91.081 77.1057 90.9984 76.5947 90.8976 76.1533C90.8085 75.7511 91.0613 75.3515 91.4622 75.2611C91.8644 75.1707 92.2639 75.4223 92.3543 75.8244C92.4932 76.4402 92.9098 78.5218 92.4775 79.4886C92.3334 79.8109 92.0439 80.01 91.7045 80.0205C91.681 80.0218 91.6574 80.0231 91.6312 80.0231V80.0231Z" fill="#66509E"/>
<path d="M86.9041 78.1318H86.9094H86.9041ZM86.4076 79.2925C86.3801 79.2925 86.3539 79.2912 86.3303 79.2899C85.9845 79.2768 85.6897 79.0711 85.5417 78.7423C85.1133 77.7834 85.488 75.648 85.6124 75.0166C85.6923 74.6118 86.0853 74.3484 86.4888 74.4284C86.8936 74.5083 87.1556 74.9013 87.077 75.3048C86.9722 75.8314 86.891 76.4484 86.853 76.979C87.2709 76.3711 87.7727 75.5458 88.1827 74.8017C88.3805 74.4401 88.8338 74.3091 89.1954 74.507C89.557 74.7048 89.6893 75.158 89.4901 75.5196C87.5343 79.0816 86.8006 79.2925 86.4076 79.2925Z" fill="#66509E"/>
<path d="M66.9697 74.0747C65.7592 78.4515 66.9356 82.641 68.695 83.11C70.4531 83.5777 72.8649 80.3576 73.3365 75.7712C73.8867 70.4445 72.709 65.5699 71.8601 65.343C70.9051 65.0884 68.2837 69.3166 66.9697 74.0747V74.0747Z" fill="white"/>
<path d="M66.9797 74.056H66.9849H66.9797ZM71.6723 66.1734C70.8496 66.8638 68.8649 70.0354 67.6989 74.2551C66.8461 77.3416 67.2889 80.1975 68.0605 81.5455C68.3238 82.0027 68.6199 82.2962 68.8963 82.3695C69.1963 82.4481 69.5369 82.2752 69.7701 82.1141C70.8967 81.3372 72.2631 78.9909 72.605 75.6765C73.0924 70.9433 72.1989 67.1481 71.6723 66.1734V66.1734ZM69.0548 83.8826C68.8714 83.8826 68.6893 83.859 68.5124 83.8119C67.8378 83.6324 67.2338 83.1058 66.7662 82.287C65.8138 80.6258 65.2884 77.3743 66.2605 73.8568C67.2574 70.2477 70.0334 64.0644 72.0627 64.6033C73.7317 65.0476 74.5714 71.1477 74.0893 75.8298C73.75 79.1245 72.3548 82.1442 70.6177 83.3416C70.0989 83.7005 69.567 83.8826 69.0548 83.8826V83.8826Z" fill="#66509E"/>
<path d="M70.1541 73.4766C69.3602 77.8049 69.1113 80.784 69.1113 80.784L70.1541 73.4766Z" fill="white"/>
<path d="M69.0976 81.5147C69.0767 81.5147 69.0557 81.5134 69.0347 81.5121C68.6234 81.478 68.3181 81.1178 68.3522 80.7064C68.3627 80.5833 68.6129 77.6422 69.4042 73.327C69.4788 72.9208 69.8666 72.6536 70.2727 72.727C70.6788 72.8016 70.9474 73.1907 70.8727 73.5955C70.0959 77.8335 69.843 80.8008 69.8404 80.8309C69.8077 81.22 69.4815 81.5147 69.0976 81.5147Z" fill="#66509E"/>
<path d="M55.0281 91.0313C57.5329 95.3112 63.7294 98.699 67.167 95.6846C70.6032 92.6701 69.977 84.3959 67.4722 80.116C64.9687 75.8361 60.3809 75.1221 56.7167 77.8247C51.9927 81.3081 52.5246 86.7514 55.0281 91.0313Z" fill="white"/>
<path d="M55.6556 90.6974C57.2145 93.3634 60.3036 95.6153 63.001 96.0529C64.4813 96.2926 65.7128 95.9953 66.6573 95.166C69.7045 92.4935 69.2813 84.759 66.8119 80.5354C65.7259 78.6804 64.2088 77.5053 62.4232 77.1385C60.6691 76.7769 58.7944 77.2498 57.1425 78.4682C51.5407 82.6001 54.5879 88.8739 55.6556 90.6974ZM63.9455 97.6236C63.5617 97.6236 63.1674 97.5922 62.7612 97.5254C59.6132 97.0158 56.1612 94.5175 54.3665 91.4507C51.8407 87.1315 51.0088 81.138 56.2569 77.2669C58.2534 75.7944 60.5486 75.2297 62.7232 75.6765C64.9032 76.1245 66.8132 77.5826 68.0997 79.7822C70.6071 84.0673 71.5189 92.8878 67.6411 96.2887C66.635 97.1717 65.3735 97.6236 63.9455 97.6236V97.6236Z" fill="#66509E"/>
<path d="M58.1836 80.8008C59.9784 85.5536 63.9871 90.9785 66.9976 94.6899L58.1836 80.8008V80.8008Z" fill="white"/>
<path d="M66.9835 95.4194C66.7661 95.4194 66.5512 95.3251 66.4032 95.1443C61.9215 89.6199 58.9163 84.8775 57.47 81.0482C57.3246 80.6631 57.5198 80.2321 57.905 80.0867C58.2901 79.9426 58.7211 80.1365 58.8665 80.5216C60.2355 84.1491 63.2421 88.8797 67.5626 94.2037C67.822 94.5234 67.7735 94.9937 67.4525 95.253C67.315 95.3644 67.1486 95.4194 66.9835 95.4194Z" fill="#66509E"/>
<path d="M63.04 79.4531C63.04 79.4531 63.5286 81.3946 62.4609 83.7265L63.04 79.4531Z" fill="white"/>
<path d="M62.4737 84.4579C62.3702 84.4579 62.2654 84.4356 62.1645 84.3898C61.7898 84.2181 61.6248 83.7753 61.7964 83.4007C62.7436 81.3308 62.3348 79.6356 62.3309 79.6199C62.2313 79.219 62.4737 78.8142 62.8733 78.7133C63.2754 78.6151 63.6776 78.8561 63.7785 79.2557C63.8008 79.3461 64.3169 81.4815 63.1536 84.0216C63.0278 84.2954 62.7567 84.4579 62.4737 84.4579V84.4579Z" fill="#66509E"/>
<path d="M59.7969 88.7921C59.7969 88.7921 58.5576 88.3009 57.0117 88.6768L59.7969 88.7921Z" fill="white"/>
<path d="M59.8114 89.5812C59.721 89.5812 59.6293 89.5642 59.5389 89.5301C59.5258 89.5235 58.4765 89.1332 57.2031 89.4449C56.797 89.5406 56.3987 89.2956 56.3005 88.896C56.2035 88.4952 56.4485 88.0917 56.8494 87.9947C58.6062 87.5663 60.0262 88.1166 60.0865 88.1415C60.469 88.2934 60.6564 88.727 60.5044 89.1096C60.3878 89.403 60.1075 89.5812 59.8114 89.5812Z" fill="#66509E"/>
<path d="M64.834 87.6998C65.003 87.5098 66.1375 86.3583 66.52 83.9648L64.834 87.6998Z" fill="white"/>
<path d="M64.8466 88.4086C64.6711 88.4086 64.4968 88.3484 64.358 88.2252C64.0527 87.9514 64.0108 87.4982 64.282 87.1916C64.2846 87.189 64.3174 87.1536 64.3187 87.151C65.2632 86.1121 65.6405 84.7733 65.7912 83.8327C65.8567 83.4252 66.2353 83.1462 66.6466 83.213C67.0527 83.2785 67.3305 83.661 67.265 84.0685C67.0829 85.2082 66.6152 86.8431 65.423 88.1545C65.2724 88.3209 65.0588 88.4086 64.8466 88.4086V88.4086Z" fill="#66509E"/>
<path d="M70.9352 78.278C66.4588 83.0466 66.0225 90.447 68.6557 93.2518C71.2889 96.0567 77.0911 94.3981 80.471 88.4361C84.3972 81.5099 85.2225 73.1322 83.9505 71.7776C82.5199 70.254 75.802 73.0942 70.9352 78.278V78.278Z" fill="white"/>
<path d="M70.9481 78.2627H70.9534H70.9481ZM82.6979 72.0989C80.3123 72.0989 75.2411 74.7806 71.4918 78.7736C67.3507 83.1845 66.7769 90.1317 69.2123 92.7256C70.0036 93.5679 71.1931 93.9426 72.5621 93.7788C75.2254 93.4605 78.0132 91.2662 79.8355 88.0526C83.8874 80.9037 84.2267 73.1339 83.4197 72.2732C83.3804 72.2325 83.2154 72.0989 82.6979 72.0989V72.0989ZM71.9359 95.309C70.4162 95.309 69.0826 94.7679 68.1237 93.7474C65.2389 90.674 65.6136 82.8544 70.4044 77.7518C74.6031 73.2793 79.952 70.6055 82.6979 70.6055C83.4957 70.6055 84.1049 70.8229 84.5071 71.2513C86.2573 73.1155 84.9106 82.1273 81.1337 88.7876C79.0507 92.4609 75.9119 94.8806 72.7389 95.2605C72.4665 95.2932 72.1979 95.309 71.9359 95.309V95.309Z" fill="#66509E"/>
<path d="M78.4701 78.6914C73.4736 85.1407 70.6348 90.4726 70.6348 90.4726L78.4701 78.6914V78.6914Z" fill="white"/>
<path d="M70.619 91.203C70.4998 91.203 70.3806 91.1755 70.2692 91.1152C69.905 90.9226 69.7675 90.4707 69.9601 90.1065C69.9889 90.0528 72.8867 84.6436 77.8636 78.2191C78.1151 77.8929 78.5854 77.834 78.9103 78.0855C79.2365 78.3384 79.2968 78.806 79.0439 79.1322C74.143 85.4571 71.3068 90.7549 71.278 90.8073C71.1443 91.0602 70.885 91.203 70.619 91.203V91.203Z" fill="#66509E"/>
<path d="M98.9275 102.49L111.14 90.104C111.567 89.4097 111.162 88.418 110.452 88.418H51.927C51.2078 88.418 50.8056 89.4319 51.2511 90.1223L63.065 102.51L98.9275 102.49Z" fill="#807DBB"/>
<path d="M51.8368 89.658L63.3691 101.748L98.5988 101.73L110.518 89.6423C110.559 89.5401 110.565 89.4196 110.529 89.3056C110.498 89.2047 110.447 89.1549 110.431 89.1471L51.9114 89.1484C51.8997 89.1549 51.8473 89.206 51.8158 89.3108C51.7804 89.4301 51.7896 89.5558 51.8368 89.658V89.658ZM98.9106 102.475H98.9158H98.9106ZM63.0494 103.241C62.8451 103.241 62.6499 103.158 62.5097 103.01L50.6957 90.6235C50.663 90.5894 50.6342 90.5515 50.608 90.5122C50.2267 89.9213 50.2005 89.1353 50.5411 88.5117C50.8333 87.9759 51.3455 87.6562 51.9114 87.6562H110.436C110.994 87.6562 111.504 87.9694 111.797 88.4947C112.139 89.1078 112.125 89.8873 111.759 90.4807C111.731 90.5279 111.695 90.5724 111.656 90.613L99.4425 102.999C99.3023 103.142 99.111 103.222 98.9119 103.222L63.0494 103.241V103.241Z" fill="#66509E"/>
<path d="M98.9211 102.48H63.0469V105.373H98.9211V102.48Z" fill="#807DBB"/>
<path d="M63.8079 104.67H98.19V103.269H63.8079V104.67V104.67ZM98.9367 106.162H63.0612C62.6498 106.162 62.3145 105.828 62.3145 105.415V102.524C62.3145 102.111 62.6498 101.777 63.0612 101.777H98.9367C99.3481 101.777 99.6821 102.111 99.6821 102.524V105.415C99.6821 105.828 99.3481 106.162 98.9367 106.162Z" fill="#66509E"/>
<path d="M9.02344 54.2692V43.1951C9.02344 42.9009 11.6016 41.6594 14.1051 40.8419C16.6086 40.0245 16.754 40.6101 19.2575 39.7927C21.761 38.9752 21.647 38.4635 24.1518 37.646C26.6553 36.8284 26.5951 36.3284 29.1981 36.3281C31.7723 36.3281 31.7239 36.8314 34.1985 37.6488C36.6719 38.4663 36.7505 38.1551 39.2239 38.9726C41.6985 39.7902 42.0143 40.2583 44.4889 41.076C46.9636 41.8935 49.1422 42.3974 49.3728 43.1951V50.8468L9.02344 54.2692V54.2692Z" fill="white"/>
<path d="M9.00844 55.0582C8.59578 55.0582 8.26172 54.7241 8.26172 54.312V43.2381C8.26172 42.1228 12.1748 40.7246 13.8569 40.1754C15.1905 39.7401 15.9071 39.6775 16.6001 39.6167C17.2368 39.561 17.8381 39.5082 19.0093 39.1261C20.1936 38.7398 20.7425 38.4337 21.3255 38.1099C21.9438 37.7659 22.5831 37.4106 23.9036 36.9793C24.6779 36.7265 25.1875 36.5097 25.6368 36.318C26.6167 35.9006 27.2639 35.625 29.1818 35.625C31.084 35.625 31.7285 35.9023 32.7032 36.3223C33.1486 36.5137 33.6517 36.7308 34.4154 36.983C35.6089 37.3773 36.2076 37.4959 36.8403 37.6216C37.4888 37.7504 38.1608 37.8838 39.4421 38.3069C40.7194 38.7289 41.4477 39.0647 42.1539 39.3895C42.8508 39.7112 43.5098 40.0148 44.7071 40.4102C45.1892 40.5696 45.6595 40.7169 46.1076 40.8565C48.3163 41.5476 49.777 42.0041 50.0731 43.0308L50.1032 43.1323V50.8895C50.1032 51.3018 49.7691 51.6357 49.3565 51.6357C48.9451 51.6357 48.6098 51.3018 48.6098 50.8895V43.4105C48.3124 43.1103 46.7875 42.6332 45.6622 42.2809C45.2076 42.1388 44.7294 41.9891 44.2394 41.8274C42.9622 41.4056 42.2325 41.0698 41.529 40.745C40.8307 40.4234 40.1705 40.1195 38.9731 39.7241C37.7809 39.3298 37.1822 39.2111 36.5495 39.0855C35.8997 38.9564 35.229 38.8233 33.9477 38.4002C33.1224 38.1274 32.563 37.8867 32.1137 37.693C31.2229 37.3097 30.7761 37.1174 29.1818 37.1174C27.5691 37.1174 27.1185 37.3091 26.2211 37.6912C25.7678 37.8846 25.2032 38.1252 24.3661 38.398C23.1831 38.7844 22.6329 39.0906 22.0512 39.4143C21.4329 39.7583 20.7923 40.1137 19.4731 40.5449C18.1394 40.9802 17.4229 41.0428 16.7298 41.1035C16.0932 41.1591 15.4905 41.2119 14.3207 41.5941C12.2181 42.2807 10.3434 43.1678 9.75386 43.5472V54.312C9.75386 54.7241 9.4198 55.0582 9.00844 55.0582V55.0582Z" fill="#66509E"/>
<path d="M54.7128 65.6016C54.7128 70.8548 42.6289 76.433 27.7233 76.433C12.8163 76.433 0.732422 70.8548 0.732422 65.6016C0.732422 60.9235 12.8202 56.8359 27.7311 56.8359C42.642 56.8359 54.7298 60.6277 54.7298 65.3052L54.7128 65.6016V65.6016Z" fill="#807DBB"/>
<path d="M27.7441 57.5668C12.2738 57.5668 1.49214 61.793 1.49214 65.5863C1.49214 70.1531 13.1987 75.671 27.7362 75.671C42.2738 75.671 53.9803 70.1531 53.9803 65.5863C53.9803 65.5208 53.9882 65.4566 54.0039 65.3964C53.9987 65.3618 53.9961 65.3263 53.9961 65.29C53.9961 61.6369 43.2144 57.5668 27.7441 57.5668V57.5668ZM27.7362 77.1632C13.2197 77.1632 0 71.6453 0 65.5863C0 60.341 12.4467 56.0742 27.7441 56.0742C41.3817 56.0742 55.4882 59.5215 55.4882 65.29C55.4882 65.3552 55.4803 65.4186 55.4646 65.4789C55.4699 65.5143 55.4725 65.5496 55.4725 65.5863C55.4725 71.6453 42.2515 77.1632 27.7362 77.1632Z" fill="#66509E"/>
<path d="M29.1984 52.2498C29.0464 51.0421 27.1639 51.6496 25.2394 50.1024C24.4076 49.4343 23.5285 48.8454 22.5827 48.4223C19.5132 47.0475 20.4407 48.0762 18.139 47.1637C16.0822 46.3482 15.4298 44.4851 13.2709 44.178C11.6648 43.9495 9.79664 42.2868 9.02371 43.2434C8.77481 43.5524 8.78922 44.0822 8.78922 44.0822V63.3092C8.78922 63.6438 8.96083 63.9468 9.22677 64.0821L28.3796 73.8242C28.8971 74.0862 29.501 74.0862 30.0172 73.8242L49.2014 64.0666C49.449 63.9408 49.6089 63.659 49.6089 63.348V44.0822C49.6089 44.0822 49.6233 43.5524 49.3731 43.2434C48.6014 42.2868 46.732 43.9495 45.1259 44.178C42.9669 44.4851 42.3145 46.3482 40.2578 47.1637C37.9573 48.0762 38.8848 47.0475 35.8141 48.4223C34.8696 48.8454 33.9892 49.4343 33.1586 50.1024C31.2342 51.6496 29.3517 51.0421 29.1984 52.2498V52.2498Z" fill="#EE445B"/>
<path d="M9.67731 43.6728C9.64587 43.6728 9.61836 43.6769 9.5974 43.6857C9.55547 43.7452 9.51879 43.9254 9.5201 44.0511V63.2922C9.5201 63.3534 9.54499 63.394 9.55547 63.4031L28.7044 73.1415C29.0096 73.2961 29.3594 73.2961 29.6646 73.1415L48.8476 63.3847C48.8398 63.3881 48.8476 63.3684 48.8476 63.3308V44.0652C48.8489 43.9254 48.8136 43.7452 48.7769 43.6939C48.5712 43.599 47.7459 43.9735 47.3044 44.1745C46.6638 44.4665 45.938 44.797 45.2175 44.8996C44.2363 45.0392 43.6454 45.5656 42.8961 46.2321C42.266 46.794 41.5507 47.431 40.5184 47.8402C39.3773 48.2928 38.9044 48.3179 38.4878 48.3397C38.0699 48.3618 37.6756 48.3824 36.1048 49.0861C35.3031 49.4449 34.4882 49.9618 33.6118 50.6668C32.5533 51.5175 31.5131 51.7914 30.7533 51.9911C30.4559 52.0693 30.0066 52.1875 29.9345 52.2789C29.9345 52.2789 29.9293 52.2923 29.9253 52.3263L29.1839 58.189L28.4437 52.3263C28.4398 52.2908 28.4332 52.2776 28.4332 52.2776C28.3611 52.1875 27.9131 52.0693 27.6157 51.9911C26.8559 51.7914 25.8157 51.5175 24.7572 50.6668C23.8795 49.9613 23.0633 49.4445 22.2642 49.0861C20.6922 48.3824 20.2978 48.3618 19.8812 48.3397C19.4646 48.3179 18.9917 48.2928 17.8494 47.8402C16.817 47.431 16.1031 46.794 15.4716 46.2321C14.7236 45.5656 14.1328 45.0392 13.1515 44.8996C12.431 44.797 11.7053 44.4665 11.0633 44.1745C10.6677 43.9937 9.9629 43.6728 9.67731 43.6728V43.6728ZM29.1839 74.7476C28.7869 74.7476 28.39 74.6559 28.0271 74.4712L8.87425 64.7302C8.3594 64.4693 8.02796 63.9048 8.02796 63.2922V44.0652C8.02403 43.9504 8.02665 43.2551 8.42884 42.7573C9.26857 41.7171 10.6074 42.3261 11.683 42.8163C12.2581 43.0786 12.8542 43.3498 13.3611 43.4221C14.7891 43.6252 15.6406 44.3838 16.4646 45.1177C17.0555 45.6438 17.6122 46.1408 18.3996 46.4528C19.3153 46.8154 19.614 46.8311 19.9598 46.8494C20.5965 46.8828 21.1795 46.9651 22.8734 47.7239C23.7917 48.1351 24.714 48.7172 25.6913 49.5037C26.5022 50.1552 27.2948 50.3639 27.9943 50.5478C28.386 50.6505 28.8236 50.7657 29.1839 50.9884C29.5454 50.7657 29.983 50.6505 30.3734 50.5478C31.0729 50.3639 31.8655 50.1552 32.6764 49.5037C33.6537 48.7178 34.576 48.1356 35.4943 47.7239C37.1895 46.9651 37.7712 46.8828 38.4092 46.8494C38.755 46.8311 39.0537 46.8154 39.9681 46.4528C40.7555 46.1408 41.3136 45.6438 41.9044 45.1177C42.7284 44.3838 43.5799 43.6252 45.0066 43.4221C45.5149 43.3498 46.1096 43.0786 46.686 42.8163C47.7616 42.3264 49.0991 41.7167 49.9389 42.7578C50.3411 43.2551 50.3437 43.9504 50.3398 44.0851L50.3411 63.3308C50.3411 63.9196 50.0214 64.4627 49.5262 64.7144L30.3406 74.4712C29.9791 74.6559 29.5821 74.7476 29.1839 74.7476V74.7476Z" fill="#66509E"/>
<path d="M29.193 66.3287C28.9899 66.3287 28.7882 66.2462 28.6401 66.0838C28.3637 65.7772 28.3873 65.306 28.6925 65.0291C29.3004 64.4786 30.0668 64.387 30.8082 64.2986C31.5602 64.2087 32.3371 64.116 33.1362 63.5779C33.7139 63.189 34.103 62.8972 34.4462 62.6398C35.2061 62.0699 35.7091 61.6934 37.2117 61.0679C38.3554 60.5918 38.8296 60.5572 39.2488 60.5267C39.5986 60.5012 39.9013 60.4791 40.8222 60.0962C41.6135 59.7664 42.1716 59.2565 42.7624 58.7165C43.5825 57.9664 44.4314 57.1909 45.8633 56.9588C47.2349 56.7362 48.4021 56.0898 48.9864 55.2294C49.217 54.8881 49.682 54.8001 50.0226 55.0311C50.3633 55.2626 50.4523 55.7264 50.2205 56.0676C49.3991 57.279 47.8978 58.1407 46.1017 58.4318C45.11 58.5928 44.489 59.1606 43.7698 59.8181C43.141 60.3925 42.4283 61.0439 41.3947 61.474C40.251 61.9502 39.7768 61.9846 39.3576 62.0153C39.0078 62.0407 38.7052 62.0629 37.7855 62.4457C36.4545 62.9995 36.0589 63.2959 35.341 63.8339C35.0017 64.0887 34.5785 64.4057 33.9694 64.8158C32.8729 65.5558 31.8261 65.6803 30.9851 65.7798C30.4061 65.8493 29.9489 65.9043 29.6947 66.1349C29.5519 66.2646 29.3724 66.3287 29.193 66.3287V66.3287Z" fill="#66509E"/>
<path d="M29.1934 63.7131C28.9916 63.7131 28.7899 63.631 28.6418 63.4694C28.3641 63.1646 28.3864 62.6926 28.6916 62.4153C29.306 61.8553 30.0344 61.8002 30.7405 61.7469C31.4322 61.6947 32.1488 61.6405 32.9283 61.1135C33.4995 60.7267 33.8859 60.4364 34.2252 60.1803C34.9785 59.6135 35.4763 59.2385 36.9685 58.6182C38.103 58.1456 38.5746 58.1124 38.9912 58.0833C39.3383 58.0591 39.637 58.0379 40.5462 57.6591C41.3296 57.3332 41.8811 56.826 42.4654 56.2894C43.2789 55.5417 44.12 54.7688 45.5427 54.541C47.0047 54.307 48.4523 53.5628 48.9842 52.7711C49.2148 52.4293 49.6785 52.3385 50.0204 52.5684C50.3623 52.7985 50.4527 53.2622 50.2222 53.6043C49.3379 54.9196 47.3532 55.7626 45.7798 56.0145C44.7999 56.1712 44.2156 56.7084 43.4754 57.3881C42.8532 57.961 42.1458 58.6098 41.12 59.0369C39.9842 59.5097 39.5126 59.5427 39.096 59.5719C38.7501 59.5962 38.4514 59.6174 37.5409 59.996C36.2244 60.5443 35.8327 60.8385 35.1226 61.3729C34.7872 61.6262 34.3667 61.9418 33.7641 62.3498C32.6571 63.099 31.6143 63.1777 30.8519 63.2352C30.2637 63.2798 29.9204 63.3147 29.6964 63.5184C29.5536 63.6487 29.3728 63.7131 29.1934 63.7131V63.7131Z" fill="#66509E"/>
<path d="M29.1797 57.083C30.1216 56.2566 30.9954 57.1489 32.7784 55.9891C34.6884 54.7469 34.6806 54.4409 36.7557 53.6183C38.8308 52.7956 39.5395 52.8349 41.6146 52.0122C43.6897 51.1894 43.1159 50.0203 45.2919 49.7059C46.9111 49.472 48.2225 47.7082 49.5902 48.5802L29.1797 57.083V57.083Z" fill="white"/>
<path d="M29.1943 57.8151C28.986 57.8151 28.7803 57.729 28.6323 57.5609C28.3611 57.2512 28.3912 56.7797 28.7017 56.5079C29.3331 55.9536 29.9607 55.9286 30.5148 55.9067C31.0689 55.8846 31.5943 55.8639 32.3842 55.3494C32.9672 54.9704 33.3602 54.6852 33.7074 54.4338C34.4751 53.8773 34.982 53.5096 36.4938 52.9104C37.5681 52.4847 38.2938 52.2802 38.9973 52.0824C39.693 51.8864 40.3519 51.7013 41.3528 51.3041C42.1349 50.9941 42.4427 50.644 42.7689 50.2735C43.2275 49.7529 43.7462 49.1629 45.1991 48.9533C45.6943 48.8816 46.2144 48.594 46.7174 48.3157C47.6423 47.8036 48.7938 47.1649 50.0043 47.9367C50.3515 48.1579 50.4537 48.6195 50.2323 48.9669C50.0109 49.315 49.5484 49.4166 49.2026 49.195C48.7834 48.928 48.3641 49.1094 47.4393 49.6215C46.8484 49.9488 46.179 50.3196 45.4126 50.4302C44.5034 50.5616 44.2729 50.8241 43.8903 51.2593C43.5013 51.7002 43.0192 52.2491 41.903 52.6917C40.8301 53.1171 40.103 53.3216 39.4008 53.5193C38.7039 53.7154 38.0462 53.9004 37.0441 54.2978C35.7065 54.8282 35.3069 55.1171 34.5825 55.6423C34.2393 55.8911 33.8122 56.2008 33.1991 56.6004C32.0633 57.3389 31.2026 57.3732 30.5738 57.3978C30.0877 57.4173 29.9082 57.4338 29.6855 57.6297C29.5441 57.754 29.3685 57.8151 29.1943 57.8151V57.8151Z" fill="#66509E"/>
<path d="M49.5902 61.1133C47.6382 61.9196 47.0762 62.3488 45.1229 63.1551C43.171 63.9617 42.529 64.5533 40.5758 65.3599C38.6225 66.1662 38.9618 66.6195 37.0098 67.4252C35.0565 68.2322 34.3753 68.1759 32.422 68.9828C31.4893 69.368 30.7124 70.3086 29.1797 70.9479L49.5902 61.1133V61.1133Z" fill="white"/>
<path d="M29.1946 71.6781C28.9011 71.6781 28.6247 71.5065 28.5042 71.2196C28.347 70.8384 28.5265 70.4021 28.9064 70.2436C29.6832 69.92 30.24 69.5139 30.7784 69.1222C31.2304 68.7921 31.6575 68.4816 32.15 68.2786C33.1666 67.858 33.857 67.6615 34.5251 67.4716C35.1802 67.2842 35.7998 67.1074 36.7378 66.7209C37.6208 66.3567 37.9575 66.0934 38.3465 65.7895C38.7631 65.4646 39.2348 65.0972 40.3051 64.6551C41.2457 64.2662 41.8601 63.9356 42.5086 63.5853C43.1636 63.2329 43.8409 62.8679 44.8522 62.4502C45.8059 62.0565 46.4046 61.7617 47.04 61.4497C47.6688 61.1407 48.3199 60.821 49.3195 60.4085C49.6994 60.2506 50.1356 60.4326 50.2941 60.8134C50.45 61.1944 50.2692 61.6306 49.888 61.7878C48.9343 62.1817 48.3343 62.4769 47.6976 62.7891C47.0701 63.098 46.4203 63.4172 45.4221 63.8294C44.4802 64.2183 43.8671 64.549 43.2173 64.8993C42.5636 65.2517 41.8863 65.6165 40.8749 66.0345C39.992 66.3986 39.6553 66.662 39.2649 66.9659C38.8496 67.2908 38.378 67.6576 37.3077 68.1004C36.2911 68.5196 35.6007 68.7161 34.9339 68.9074C34.2762 69.0934 33.6566 69.2703 32.7199 69.6567C32.3924 69.793 32.0518 70.0406 31.6575 70.3275C31.1059 70.7296 30.4208 71.2301 29.4815 71.6205C29.3872 71.6598 29.2902 71.6781 29.1946 71.6781V71.6781Z" fill="#66509E"/>
<path d="M29.1927 74.7675C28.7813 74.7675 28.4473 74.4335 28.4473 74.0208V52.2501C28.4473 51.8378 28.7813 51.5039 29.1927 51.5039C29.6053 51.5039 29.9394 51.8378 29.9394 52.2501V74.0208C29.9394 74.4335 29.6053 74.7675 29.1927 74.7675Z" fill="#66509E"/>
<path d="M29.183 66.329C29.0048 66.329 28.8253 66.2648 28.6825 66.1351C28.4271 65.9046 27.9699 65.8496 27.3922 65.7801C26.5511 65.6806 25.5044 65.5561 24.4066 64.8161C23.7974 64.4055 23.3742 64.0885 23.0349 63.8338C22.317 63.2959 21.9214 62.9998 20.5904 62.4459C19.6708 62.0631 19.3681 62.041 19.0184 62.0156C18.6004 61.9849 18.1249 61.9505 16.9812 61.4743C15.9476 61.0442 15.2349 60.3928 14.6061 59.8181C13.8882 59.1609 13.266 58.5931 12.2742 58.4321C10.4782 58.1409 8.97687 57.279 8.15547 56.0676C7.9249 55.7265 8.01399 55.2626 8.3546 55.0311C8.69521 54.7999 9.15897 54.8884 9.39084 55.23C9.97381 56.0901 11.1424 56.7365 12.514 56.9591C13.9446 57.1912 14.7935 57.9666 15.6136 58.7165C16.2044 59.2565 16.7625 59.7666 17.555 60.0965C18.4747 60.4794 18.7773 60.5014 19.1271 60.527C19.5463 60.5575 20.0205 60.5921 21.1642 61.0682C22.6681 61.6934 23.1699 62.0697 23.9297 62.6393C24.2729 62.8971 24.6633 63.1889 25.2411 63.5782C26.0389 64.1162 26.817 64.209 27.569 64.2989C28.3092 64.3873 29.0769 64.4789 29.6847 65.0293C29.99 65.3063 30.0136 65.7775 29.7358 66.0841C29.5891 66.2465 29.386 66.329 29.183 66.329V66.329Z" fill="#66509E"/>
<path d="M29.1834 63.7131C29.0039 63.7131 28.8244 63.6487 28.6817 63.5184C28.4576 63.3147 28.1131 63.2798 27.5249 63.2352C26.7637 63.1777 25.721 63.099 24.6127 62.3498C24.01 61.9419 23.5908 61.6265 23.2541 61.3731C22.5441 60.8386 22.1537 60.5443 20.8358 59.996C19.9266 59.6174 19.6279 59.5962 19.2808 59.5719C18.8655 59.5427 18.3926 59.5097 17.2581 59.0369C16.231 58.6098 15.5249 57.961 14.9026 57.3881C14.1624 56.7084 13.5782 56.1712 12.5982 56.0145C11.0236 55.7626 9.04017 54.9196 8.15458 53.6043C7.92401 53.2622 8.01571 52.7985 8.35763 52.5684C8.69955 52.3385 9.16331 52.4293 9.39257 52.7711C9.92576 53.5628 11.372 54.307 12.8341 54.541C14.2568 54.7688 15.0978 55.5417 15.9113 56.2894C16.4956 56.826 17.0472 57.3332 17.8306 57.6591C18.741 58.0379 19.0397 58.0591 19.3856 58.0833C19.8022 58.1124 20.2738 58.1456 21.4096 58.6182C22.9004 59.2388 23.3982 59.6135 24.1515 60.1806C24.4921 60.4367 24.8773 60.7267 25.4498 61.1135C26.2292 61.6405 26.9445 61.6947 27.6375 61.7469C28.3423 61.8002 29.072 61.8553 29.6865 62.4153C29.9904 62.6926 30.0127 63.1646 29.7362 63.4694C29.5882 63.631 29.3865 63.7131 29.1834 63.7131V63.7131Z" fill="#66509E"/>
<path d="M29.1982 57.083C28.2576 56.2566 27.3838 57.1489 25.6009 55.9891C23.6908 54.7469 23.6974 54.4409 21.6223 53.6183C19.5485 52.7956 18.8384 52.8349 16.7646 52.0122C14.6895 51.1894 15.2633 50.0203 13.086 49.7059C11.4668 49.472 10.1567 47.7082 8.78906 48.5802L29.1982 57.083V57.083Z" fill="white"/>
<path d="M29.1836 57.8152C29.0094 57.8152 28.8338 57.7542 28.6924 57.6299C28.4683 57.434 28.2902 57.4175 27.8041 57.398C27.1753 57.3734 26.3146 57.339 25.1788 56.6006C24.5644 56.201 24.1373 55.8913 23.7941 55.6425C23.0696 55.1173 22.6701 54.8283 21.3325 54.298C20.3317 53.9006 19.6727 53.7156 18.9758 53.5195C18.2736 53.3218 17.5478 53.1173 16.4749 52.6919C15.3587 52.2492 14.8753 51.7003 14.4875 51.2595C14.105 50.8243 13.8731 50.5618 12.9653 50.4304C12.1989 50.3198 11.5295 49.9489 10.9373 49.6217C10.0124 49.1096 9.59454 48.9278 9.17532 49.1951C8.82816 49.4168 8.36702 49.3151 8.14432 48.9671C7.92292 48.6196 8.0251 48.1581 8.37226 47.9368C9.58274 47.1648 10.7343 47.8035 11.6605 48.3158C12.1635 48.5942 12.6823 48.8818 13.1788 48.9534C14.6317 49.163 15.1504 49.7531 15.6076 50.2737C15.9338 50.6442 16.2417 50.9942 17.0238 51.3043C18.026 51.7015 18.6836 51.8866 19.3806 52.0826C20.0841 52.2804 20.8098 52.4849 21.8827 52.9106C23.3945 53.5098 23.9015 53.8775 24.6705 54.434C25.0177 54.6854 25.4107 54.9706 25.9937 55.3496C26.7836 55.8641 27.3076 55.8848 27.8631 55.9069C28.4172 55.9288 29.0448 55.9538 29.6762 56.5081C29.9867 56.7799 30.0168 57.2514 29.7443 57.5611C29.5976 57.7292 29.3906 57.8152 29.1836 57.8152V57.8152Z" fill="#66509E"/>
<path d="M8.78906 60.4102C10.741 61.2165 11.303 62.3705 13.255 63.1768C15.2083 63.9834 15.8502 64.575 17.8022 65.3816C19.7554 66.188 19.4161 66.6412 21.3694 67.4469C23.3227 68.2539 24.0039 68.1976 25.9572 69.0046C26.8899 69.3897 27.6668 70.3303 29.1982 70.9696L8.78906 60.4102V60.4102Z" fill="white"/>
<path d="M29.1834 71.6998C29.0878 71.6998 28.9909 71.6815 28.8965 71.6422C27.9572 71.2518 27.2708 70.7513 26.7206 70.3492C26.3262 70.0623 25.9843 69.8147 25.6568 69.6784C24.7201 69.2919 24.1005 69.1151 23.4441 68.9291C22.776 68.7378 22.0856 68.5413 21.0703 68.1221C19.9987 67.6793 19.5284 67.3125 19.1118 66.9876C18.7227 66.6837 18.3847 66.4203 17.5031 66.0561C16.4917 65.6382 15.8144 65.2734 15.1594 64.921C14.5109 64.5707 13.8965 64.24 12.9559 63.8511C11.8856 63.4093 11.2057 62.8793 10.5481 62.3667C9.94282 61.8948 9.37033 61.449 8.48868 61.0847C8.10876 60.9274 7.92667 60.4909 8.08387 60.1101C8.24239 59.7297 8.67863 59.5474 9.05854 59.7053C10.1288 60.1472 10.8088 60.6772 11.4664 61.1897C12.0716 61.6617 12.6428 62.1075 13.5258 62.4719C14.5371 62.8896 15.2144 63.2546 15.8682 63.607C16.5179 63.9573 17.131 64.2878 18.073 64.6768C19.1433 65.1189 19.6149 65.4863 20.0302 65.8112C20.4206 66.1151 20.7572 66.3784 21.6389 66.7426C22.5769 67.1291 23.1965 67.3059 23.8529 67.4933C24.521 67.6832 25.2114 67.8797 26.2267 68.3002C26.7192 68.5033 27.1463 68.8138 27.5983 69.1439C28.1367 69.5356 28.6935 69.9417 29.4716 70.2653C29.8516 70.4238 30.031 70.8601 29.8725 71.2413C29.7533 71.5282 29.4756 71.6998 29.1834 71.6998V71.6998Z" fill="#66509E"/>
<path d="M43.8717 47.2537C43.8272 47.2537 43.7774 47.2489 43.7276 47.2389C43.6778 47.2289 43.6333 47.2139 43.5888 47.194C43.5429 47.1792 43.4984 47.1541 43.4591 47.1244C43.4185 47.0995 43.3791 47.0696 43.3451 47.0349C43.2049 46.8957 43.125 46.7016 43.125 46.5075C43.125 46.3085 43.2049 46.1196 43.3451 45.9801C43.3791 45.9454 43.4185 45.9104 43.4591 45.8856C43.4984 45.8607 43.5429 45.8358 43.5888 45.8159C43.6333 45.796 43.6778 45.7861 43.7276 45.7764C43.9713 45.7266 44.2254 45.806 44.3997 45.9801C44.5385 46.1196 44.6185 46.3085 44.6185 46.5075C44.6185 46.7016 44.5385 46.8957 44.3997 47.0349C44.2595 47.1741 44.0709 47.2537 43.8717 47.2537Z" fill="#66509E"/>
<path d="M39.388 50.7012C39.1941 50.7012 39.0002 50.6218 38.8614 50.4823C38.826 50.4476 38.7959 50.4079 38.771 50.368C38.7421 50.3281 38.7212 50.2835 38.7015 50.2388C38.6819 50.1938 38.6675 50.149 38.657 50.0994C38.6478 50.0546 38.6426 50.0047 38.6426 49.955C38.6426 49.9052 38.6478 49.8557 38.657 49.8107C38.6675 49.7613 38.6819 49.7162 38.7015 49.6715C38.7212 49.6269 38.7421 49.5819 38.771 49.5421C38.7959 49.5024 38.826 49.4627 38.8614 49.4277C39.1404 49.1491 39.6369 49.1491 39.9159 49.4277C39.9513 49.4627 39.9854 49.5024 40.0103 49.5421C40.0352 49.5819 40.06 49.6269 40.0797 49.6715C40.0994 49.7162 40.1151 49.7613 40.1242 49.8107C40.1295 49.8557 40.14 49.9052 40.14 49.955C40.14 50.0047 40.1295 50.0546 40.1242 50.0994C40.1151 50.149 40.0994 50.1938 40.0797 50.2388C40.06 50.2835 40.0352 50.3281 40.0103 50.368C39.9854 50.4079 39.9513 50.4476 39.9159 50.4823C39.7758 50.6218 39.5871 50.7012 39.388 50.7012V50.7012Z" fill="#66509E"/>
<path d="M36.5475 45.4377C36.503 45.4377 36.4532 45.4327 36.4034 45.4229C36.3523 45.413 36.3078 45.398 36.2632 45.3781C36.2187 45.3583 36.1741 45.3383 36.1348 45.3084C36.0942 45.2837 36.0549 45.2538 36.0196 45.2188C35.8807 45.0795 35.8008 44.8855 35.8008 44.6915C35.8008 44.4925 35.8807 44.3035 36.0196 44.1643C36.0549 44.1294 36.0942 44.0995 36.1348 44.0696C36.1741 44.0449 36.2187 44.02 36.2632 44.0001C36.3078 43.9803 36.3523 43.9701 36.4034 43.9602C36.4977 43.9403 36.5973 43.9403 36.6969 43.9602C36.7414 43.9701 36.7912 43.9803 36.8357 44.0001C36.8803 44.02 36.9209 44.0449 36.9602 44.0696C37.0047 44.0995 37.0401 44.1294 37.0741 44.1643C37.2143 44.3035 37.2929 44.4925 37.2929 44.6915C37.2929 44.8855 37.2143 45.0795 37.0741 45.2188C37.0401 45.2538 37.0047 45.2837 36.9602 45.3084C36.9209 45.3383 36.8803 45.3583 36.8357 45.3781C36.7912 45.398 36.7414 45.413 36.6969 45.4229C36.6471 45.4327 36.5973 45.4377 36.5475 45.4377Z" fill="#66509E"/>
<path d="M42.6413 43.3282C42.5915 43.3282 42.5417 43.3234 42.4919 43.3135C42.4474 43.3034 42.3976 43.2885 42.353 43.2687C42.3085 43.2488 42.2627 43.2289 42.2234 43.199C42.1841 43.174 42.1434 43.1444 42.1094 43.1094C41.9744 42.9703 41.8945 42.7762 41.8945 42.5819C41.8945 42.3831 41.9744 42.1889 42.1094 42.0547C42.1434 42.02 42.1841 41.9851 42.2234 41.9603C42.2627 41.9355 42.3085 41.9103 42.353 41.8907C42.3976 41.8708 42.4474 41.8608 42.4919 41.8509C42.5915 41.831 42.6858 41.831 42.7854 41.8509C42.8299 41.8608 42.8797 41.8708 42.9255 41.8907C42.9701 41.9103 43.0146 41.9355 43.0539 41.9603C43.0945 41.9851 43.1338 42.02 43.164 42.0547C43.3028 42.1889 43.3827 42.3831 43.3827 42.5819C43.3827 42.7762 43.3028 42.9703 43.164 43.1094C43.1338 43.1444 43.0945 43.174 43.0539 43.199C43.0146 43.2289 42.9701 43.2488 42.9255 43.2687C42.8797 43.2885 42.8299 43.3034 42.7854 43.3135C42.7356 43.3234 42.6858 43.3282 42.6413 43.3282Z" fill="#66509E"/>
<path d="M46.8893 48.0158C46.8395 48.0158 46.7897 48.011 46.74 48.0009C46.6941 47.9909 46.6456 47.9761 46.6011 47.9562C46.5552 47.9363 46.5159 47.9163 46.4714 47.8865C46.4308 47.8616 46.3967 47.8319 46.3614 47.7972C46.3273 47.7621 46.2919 47.7225 46.267 47.6827C46.2421 47.6429 46.2172 47.5982 46.1976 47.5533C46.1766 47.5086 46.1675 47.4588 46.157 47.414C46.1478 47.3644 46.1426 47.3144 46.1426 47.2698C46.1426 47.22 46.1478 47.1702 46.157 47.1204C46.1675 47.0756 46.1766 47.026 46.1976 46.9812C46.2172 46.9365 46.2421 46.8914 46.267 46.8519C46.2972 46.8122 46.3273 46.7722 46.3614 46.7423C46.3967 46.7076 46.4308 46.6727 46.4714 46.6479C46.5159 46.618 46.5552 46.598 46.6011 46.5782C46.6456 46.5583 46.6941 46.5435 46.74 46.5384C46.8395 46.5185 46.9391 46.5185 47.0334 46.5384C47.0832 46.5435 47.1277 46.5583 47.1723 46.5782C47.2181 46.598 47.2627 46.618 47.302 46.6479C47.3413 46.6727 47.3806 46.7076 47.4159 46.7423C47.4461 46.7722 47.4801 46.8122 47.505 46.8519C47.5352 46.8914 47.5561 46.9365 47.5758 46.9812C47.5954 47.026 47.6111 47.0756 47.6203 47.1204C47.6295 47.1702 47.6347 47.22 47.6347 47.2698C47.6347 47.3144 47.6295 47.3644 47.6203 47.414C47.6111 47.4588 47.5954 47.5086 47.5758 47.5533C47.5561 47.5982 47.5352 47.6429 47.505 47.6827C47.4801 47.7225 47.4461 47.7621 47.4159 47.7972C47.3806 47.8319 47.3413 47.8616 47.302 47.8865C47.2627 47.9163 47.2181 47.9363 47.1723 47.9562C47.1277 47.9761 47.0832 47.9909 47.0334 48.0009C46.9836 48.011 46.9391 48.0158 46.8893 48.0158Z" fill="#66509E"/>
<path d="M39.1256 64.2364C38.9265 64.2364 38.7365 64.1568 38.5977 64.0176C38.4575 63.8781 38.3789 63.6844 38.3789 63.4902C38.3789 63.4404 38.3841 63.3907 38.3933 63.3409C38.4038 63.2961 38.413 63.2463 38.4326 63.2016C38.4536 63.1569 38.4785 63.1171 38.5034 63.0773C38.5283 63.0326 38.5623 62.9975 38.5977 62.9628C38.8715 62.6843 39.3732 62.6843 39.6523 62.9628C39.6876 62.9975 39.7165 63.0326 39.7414 63.0773C39.7715 63.1171 39.7911 63.1569 39.8121 63.2016C39.8317 63.2463 39.8462 63.2961 39.8566 63.3409C39.8658 63.3907 39.871 63.4404 39.871 63.4902C39.871 63.54 39.8658 63.5847 39.8566 63.6345C39.8462 63.6844 39.8317 63.7289 39.8121 63.7737C39.7911 63.8184 39.7715 63.8633 39.7414 63.9031C39.7165 63.9427 39.6876 63.9825 39.6523 64.0176C39.5134 64.1568 39.3195 64.2364 39.1256 64.2364V64.2364Z" fill="#66509E"/>
<path d="M43.7239 62.6054C43.6755 62.6054 43.6309 62.6005 43.5798 62.5904C43.53 62.5805 43.4855 62.5654 43.441 62.5456C43.3964 62.5259 43.3519 62.5059 43.3113 62.4761C43.272 62.451 43.2314 62.4212 43.1973 62.3865C43.1619 62.3517 43.1331 62.3118 43.1069 62.2721C43.0781 62.2321 43.0532 62.1875 43.0375 62.1428C43.0178 62.0979 43.0034 62.0532 42.9929 62.0034C42.9838 61.9536 42.9785 61.9088 42.9785 61.859C42.9785 61.6602 43.0584 61.4711 43.1973 61.3317C43.2314 61.297 43.272 61.2623 43.3113 61.2372C43.3519 61.2124 43.3964 61.1874 43.441 61.1676C43.4855 61.1478 43.53 61.1379 43.5798 61.1279C43.8235 61.0781 44.0829 61.1578 44.2519 61.3317C44.2859 61.3667 44.3174 61.4014 44.3462 61.4413C44.3711 61.4859 44.396 61.5258 44.4156 61.5706C44.4314 61.6154 44.4458 61.665 44.4562 61.71C44.4654 61.7597 44.4707 61.8093 44.4707 61.859C44.4707 61.904 44.4654 61.9536 44.4562 62.0034C44.4458 62.0532 44.4314 62.0979 44.4156 62.1428C44.396 62.1875 44.3711 62.2321 44.3462 62.2721C44.3174 62.3118 44.2859 62.3517 44.2519 62.3865C44.113 62.5259 43.9231 62.6054 43.7239 62.6054V62.6054Z" fill="#66509E"/>
<path d="M47.3874 59.8516C47.3363 59.8516 47.2878 59.8468 47.2419 59.8368C47.1922 59.8269 47.1476 59.8121 47.1031 59.7922C47.0585 59.7771 47.014 59.7523 46.9734 59.7273C46.9341 59.6975 46.8935 59.6678 46.8594 59.6329C46.824 59.5982 46.7939 59.5582 46.7651 59.5184C46.7402 59.4785 46.7153 59.4339 46.6996 59.3892C46.6799 59.3443 46.6655 59.2996 46.655 59.2497C46.6459 59.2 46.6406 59.1552 46.6406 59.1054C46.6406 58.9065 46.7205 58.7175 46.8594 58.5782C46.8935 58.5432 46.9341 58.5134 46.9734 58.4836C47.014 58.4588 47.0585 58.434 47.1031 58.4141C47.1476 58.3991 47.1922 58.3843 47.2419 58.3743C47.3363 58.3544 47.4358 58.3544 47.5315 58.3743C47.5799 58.3843 47.6258 58.3991 47.6703 58.4141C47.7149 58.434 47.7594 58.4588 47.8 58.4836C47.8393 58.5134 47.8786 58.5432 47.914 58.5782C48.0529 58.7175 48.1328 58.9116 48.1328 59.1054C48.1328 59.1552 48.1275 59.2 48.1184 59.2497C48.1079 59.2996 48.0935 59.3443 48.0777 59.3892C48.0581 59.4339 48.0332 59.4785 48.0083 59.5184C47.9782 59.5582 47.9494 59.5982 47.914 59.6329C47.8786 59.6678 47.8393 59.6975 47.8 59.7273C47.7594 59.7523 47.7149 59.7771 47.6703 59.7922C47.6258 59.8121 47.5799 59.8269 47.5315 59.8368C47.4869 59.8468 47.4358 59.8516 47.3874 59.8516V59.8516Z" fill="#66509E"/>
<path d="M33.0013 54.4C32.9567 54.4 32.9069 54.3949 32.8572 54.3849C32.8126 54.375 32.7628 54.365 32.7183 54.3454C32.6738 54.3255 32.6279 54.3055 32.5886 54.2757C32.5493 54.2507 32.5087 54.2159 32.4746 54.1859C32.4393 54.1512 32.4104 54.1114 32.3856 54.0716C32.3554 54.0318 32.3345 53.9871 32.3148 53.9424C32.2952 53.8975 32.2808 53.8478 32.2703 53.803C32.2611 53.7531 32.2559 53.7036 32.2559 53.6586C32.2559 53.6091 32.2611 53.5593 32.2703 53.5094C32.2808 53.4598 32.2952 53.415 32.3148 53.37C32.3345 53.3254 32.3554 53.2807 32.3856 53.2407C32.4104 53.2009 32.4393 53.1612 32.4746 53.1265C32.5087 53.0917 32.5493 53.0618 32.5886 53.0368C32.6279 53.0069 32.6738 52.9873 32.7183 52.9673C32.7628 52.9474 32.8126 52.9324 32.8572 52.9224C33.1008 52.8777 33.3602 52.9574 33.5292 53.1265C33.5646 53.1612 33.5987 53.2009 33.6235 53.2407C33.6537 53.2807 33.6733 53.3254 33.693 53.37C33.7126 53.415 33.7283 53.4648 33.7336 53.5094C33.7428 53.5593 33.748 53.6091 33.748 53.6586C33.748 53.8528 33.6681 54.0417 33.5292 54.1859C33.3943 54.3202 33.2004 54.4 33.0013 54.4Z" fill="#66509E"/>
<path d="M35.4049 52.5857C35.3551 52.5857 35.3106 52.5809 35.2608 52.5709C35.211 52.5608 35.1665 52.5461 35.1206 52.5262C35.0761 52.5112 35.0316 52.4864 34.9923 52.4565C34.9517 52.4318 34.9124 52.4019 34.8783 52.3668C34.7381 52.2277 34.6582 52.0337 34.6582 51.8395C34.6582 51.6405 34.7381 51.4468 34.8783 51.3122C34.9124 51.2774 34.9517 51.2427 34.9923 51.2176C35.0316 51.1929 35.0761 51.1681 35.1206 51.1482C35.1665 51.133 35.211 51.1183 35.2608 51.1084C35.5045 51.0586 35.7626 51.1382 35.9316 51.3122C36.0717 51.4516 36.1517 51.6405 36.1517 51.8395C36.1517 52.0337 36.0717 52.2277 35.9316 52.3668C35.7927 52.5063 35.6041 52.5857 35.4049 52.5857V52.5857Z" fill="#66509E"/>
<path d="M41.9368 50.6521C41.887 50.6521 41.8373 50.6473 41.7875 50.6373C41.7429 50.6274 41.6932 50.6123 41.6486 50.5975C41.6041 50.5776 41.5635 50.5528 41.5189 50.5278C41.4796 50.4979 41.4442 50.4681 41.4089 50.4332C41.27 50.2939 41.1914 50.1049 41.1914 49.9059C41.1914 49.7069 41.27 49.518 41.4089 49.3786C41.4442 49.3438 41.4796 49.3139 41.5189 49.284C41.5635 49.2593 41.6041 49.2343 41.6486 49.2194C41.6932 49.1995 41.7429 49.1847 41.7875 49.1748C42.0311 49.125 42.2905 49.2046 42.4648 49.3786C42.6036 49.518 42.6835 49.7122 42.6835 49.9059C42.6835 49.9556 42.6783 50.0055 42.6678 50.0503C42.6587 50.0999 42.6429 50.1447 42.6233 50.1897C42.6036 50.2343 42.584 50.279 42.5538 50.3188C42.529 50.3635 42.4988 50.3985 42.4648 50.4332C42.4294 50.4681 42.3901 50.4979 42.3495 50.5278C42.3102 50.5528 42.2656 50.5776 42.2211 50.5975C42.1752 50.6123 42.1307 50.6274 42.0809 50.6373C42.0311 50.6473 41.9814 50.6521 41.9368 50.6521V50.6521Z" fill="#66509E"/>
<path d="M21.3411 46.0235C21.2966 46.0235 21.2468 46.0186 21.197 46.0084C21.1472 45.9986 21.1027 45.9835 21.0581 45.9636C21.0136 45.9488 20.9691 45.9238 20.9285 45.899C20.8892 45.8692 20.8485 45.8392 20.8145 45.8046C20.7791 45.7699 20.749 45.7299 20.7241 45.6901C20.694 45.6504 20.6743 45.6056 20.6547 45.5607C20.635 45.516 20.6206 45.4713 20.6101 45.4214C20.5996 45.3718 20.5957 45.3269 20.5957 45.277C20.5957 45.2274 20.5996 45.1776 20.6101 45.1329C20.6206 45.0831 20.635 45.0334 20.6547 44.9886C20.6743 44.9439 20.694 44.9041 20.7241 44.8594C20.749 44.8196 20.7791 44.7846 20.8145 44.7497C20.8485 44.715 20.8892 44.6852 20.9285 44.6553C20.9691 44.6305 21.0136 44.6055 21.0581 44.5856C21.1027 44.5708 21.1472 44.5557 21.197 44.5458C21.4407 44.4962 21.7001 44.5756 21.8691 44.7497C22.0079 44.8893 22.0878 45.0783 22.0878 45.277C22.0878 45.3269 22.0826 45.3718 22.0734 45.4214C22.0682 45.4713 22.0525 45.516 22.0328 45.5607C22.0132 45.6056 21.9883 45.6504 21.9634 45.6901C21.9385 45.7299 21.9031 45.7699 21.8691 45.8046C21.7341 45.9437 21.5402 46.0235 21.3411 46.0235V46.0235Z" fill="#66509E"/>
<path d="M33.1198 47.4885C32.9206 47.4885 32.732 47.4088 32.5918 47.2696C32.453 47.13 32.373 46.9363 32.373 46.7421C32.373 46.5433 32.453 46.3544 32.5918 46.2148C32.6272 46.1801 32.6626 46.1503 32.7019 46.1204C32.7464 46.0956 32.787 46.0706 32.8316 46.0506C32.8761 46.0356 32.9259 46.0208 32.9704 46.0107C33.07 45.9912 33.1696 45.9912 33.2639 46.0107C33.3137 46.0208 33.3582 46.0356 33.4027 46.0506C33.4486 46.0706 33.4931 46.0956 33.5324 46.1204C33.573 46.1503 33.6123 46.1801 33.6464 46.2148C33.7866 46.3544 33.8665 46.5433 33.8665 46.7421C33.8665 46.9363 33.7866 47.13 33.6464 47.2696C33.5075 47.4088 33.3137 47.4885 33.1198 47.4885Z" fill="#66509E"/>
<path d="M35.4915 66.1203C35.443 66.1203 35.3919 66.1164 35.3435 66.1059C35.2976 66.0968 35.2478 66.081 35.2033 66.0614C35.1588 66.047 35.1195 66.0221 35.0736 65.992C35.0343 65.9671 34.995 65.9369 34.9596 65.9016C34.826 65.7627 34.7461 65.5688 34.7461 65.3747C34.7461 65.3249 34.7513 65.2754 34.7605 65.2256C34.771 65.1806 34.7802 65.1311 34.8011 65.0862C34.8208 65.0414 34.8404 65.0017 34.8705 64.9619C34.8954 64.9171 34.9295 64.8823 34.9596 64.8474C34.995 64.8127 35.0343 64.7779 35.0736 64.7529C35.1142 64.7282 35.1588 64.703 35.2033 64.6832C35.2478 64.6683 35.2976 64.6535 35.3435 64.6435C35.5871 64.5937 35.8452 64.6734 36.0195 64.8474C36.0535 64.8823 36.0837 64.9171 36.1085 64.9619C36.1387 65.0017 36.1583 65.0414 36.178 65.0862C36.1989 65.1311 36.2133 65.1806 36.2238 65.2256C36.233 65.2754 36.2382 65.3249 36.2382 65.3747C36.2382 65.5688 36.1583 65.7627 36.0195 65.9016C35.8806 66.0417 35.6854 66.1203 35.4915 66.1203V66.1203Z" fill="#66509E"/>
<path d="M36.8112 41.1601C36.7601 41.1601 36.7116 41.155 36.6671 41.145C36.616 41.1349 36.5714 41.1203 36.5269 41.1004C36.4824 41.0856 36.4378 41.0605 36.3985 41.0358C36.3579 41.0059 36.3186 40.976 36.2832 40.9412C36.2492 40.9062 36.219 40.8666 36.1889 40.8268C36.164 40.787 36.1391 40.7423 36.1247 40.6974C36.1038 40.6527 36.0893 40.6079 36.0789 40.5583C36.0697 40.5132 36.0645 40.4635 36.0645 40.4139C36.0645 40.2149 36.1444 40.0257 36.2832 39.8866C36.3186 39.8517 36.3579 39.8219 36.3985 39.792C36.4378 39.767 36.4824 39.7422 36.5269 39.7274C36.5714 39.7075 36.616 39.6924 36.6671 39.6825C36.9107 39.633 37.1636 39.7124 37.3378 39.8866C37.478 40.0257 37.5566 40.2149 37.5566 40.4139C37.5566 40.4635 37.5527 40.5132 37.5422 40.5583C37.5317 40.6079 37.5173 40.6527 37.5016 40.6974C37.4819 40.7423 37.457 40.787 37.4321 40.8268C37.402 40.8666 37.3732 40.9062 37.3378 40.9412C37.199 41.0803 37.009 41.1601 36.8112 41.1601V41.1601Z" fill="#66509E"/>
<path d="M22.196 41.8536C22.1462 41.8536 22.0964 41.8485 22.0466 41.8385C22.0021 41.8286 21.9523 41.8137 21.9078 41.7938C21.8619 41.7789 21.8174 41.754 21.7781 41.7292C21.7388 41.6992 21.6982 41.6694 21.6693 41.6347C21.634 41.5997 21.5986 41.56 21.5737 41.5203C21.5449 41.4805 21.5239 41.4355 21.5043 41.3909C21.4846 41.3462 21.4689 41.3013 21.4597 41.2516C21.4492 41.2018 21.4453 41.1572 21.4453 41.1074C21.4453 41.0576 21.4492 41.0078 21.4597 40.9629C21.4689 40.9132 21.4846 40.8634 21.5043 40.8188C21.5239 40.7741 21.5449 40.7343 21.5737 40.6893C21.5986 40.6496 21.634 40.6148 21.6693 40.5801C21.9418 40.3014 22.4449 40.3014 22.7187 40.5801C22.7527 40.6148 22.7881 40.6496 22.813 40.6893C22.8431 40.7343 22.8628 40.7741 22.8824 40.8188C22.9021 40.8634 22.9178 40.9132 22.927 40.9629C22.9375 41.0078 22.9414 41.0576 22.9414 41.1074C22.9414 41.1572 22.9375 41.2018 22.927 41.2516C22.9178 41.3013 22.9021 41.3462 22.8824 41.3909C22.8628 41.4355 22.8431 41.4805 22.813 41.5203C22.7881 41.56 22.7527 41.5997 22.7187 41.6347C22.6885 41.6694 22.6492 41.6992 22.6086 41.7292C22.5693 41.754 22.5248 41.7789 22.4789 41.7938C22.4344 41.8137 22.3846 41.8286 22.3401 41.8385C22.2903 41.8485 22.2405 41.8536 22.196 41.8536V41.8536Z" fill="#66509E"/>
<path d="M16.0091 43.3842C15.8152 43.3842 15.6213 43.3047 15.4824 43.1706C15.3423 43.031 15.2637 42.837 15.2637 42.638C15.2637 42.444 15.3423 42.2501 15.4824 42.1107C15.6567 41.9416 15.9148 41.862 16.1584 41.9069C16.2043 41.9169 16.2528 41.9318 16.2986 41.9516C16.3431 41.9715 16.3824 41.9915 16.4217 42.0213C16.4676 42.0462 16.5017 42.076 16.537 42.1107C16.6759 42.2501 16.7558 42.444 16.7558 42.638C16.7558 42.837 16.6759 43.031 16.537 43.1706C16.5017 43.2002 16.4676 43.2352 16.4217 43.2599C16.3824 43.2898 16.3431 43.3098 16.2986 43.3296C16.2528 43.3495 16.2043 43.3595 16.1584 43.3696C16.1086 43.3794 16.0589 43.3842 16.0091 43.3842V43.3842Z" fill="#66509E"/>
<path d="M31.3606 67.4103C31.3122 67.4103 31.2611 67.4051 31.2126 67.3959C31.1668 67.3854 31.117 67.371 31.0724 67.3514C31.0279 67.3317 30.9886 67.3108 30.9427 67.2819C30.9034 67.2571 30.8681 67.2269 30.834 67.1916C30.6951 67.0527 30.6152 66.8588 30.6152 66.6649C30.6152 66.4658 30.6951 66.2758 30.834 66.1317C30.8681 66.1016 30.9034 66.0675 30.9427 66.0426C30.9886 66.0125 31.0279 65.9929 31.0724 65.9732C31.117 65.9536 31.1668 65.9431 31.2126 65.9326C31.4563 65.8828 31.7144 65.9627 31.8886 66.1317C31.9227 66.1671 31.9528 66.2064 31.9777 66.247C32.0078 66.2916 32.0327 66.3309 32.0471 66.3754C32.0681 66.4212 32.0825 66.471 32.093 66.5156C32.1021 66.5654 32.1074 66.6151 32.1074 66.6649C32.1074 66.7095 32.1021 66.7592 32.093 66.809C32.0825 66.8588 32.0681 66.9033 32.0471 66.9479C32.0327 66.9924 32.0078 67.037 31.9777 67.0776C31.9528 67.1169 31.9227 67.1575 31.8886 67.1916C31.7497 67.3317 31.5545 67.4103 31.3606 67.4103V67.4103Z" fill="#66509E"/>
<path d="M27.2311 48.6503C27.0359 48.6503 26.842 48.5709 26.7032 48.4315C26.6691 48.3968 26.639 48.3569 26.6141 48.317C26.5839 48.2772 26.5643 48.2325 26.5446 48.1879C26.525 48.1429 26.5093 48.0983 26.4988 48.0483C26.4896 47.9988 26.4844 47.949 26.4844 47.9041C26.4844 47.7051 26.5643 47.5162 26.7032 47.377C26.9874 47.0983 27.48 47.0983 27.7577 47.377C27.8979 47.5162 27.9765 47.7051 27.9765 47.9041C27.9765 47.949 27.9713 47.9988 27.9621 48.0483C27.9529 48.0983 27.9425 48.1429 27.9215 48.1879C27.9018 48.2325 27.877 48.2772 27.8521 48.317C27.8285 48.3569 27.7931 48.3968 27.7577 48.4315C27.6189 48.5709 27.4289 48.6503 27.2311 48.6503V48.6503Z" fill="#66509E"/>
<path d="M11.0885 45.7208C10.8946 45.7208 10.7007 45.6412 10.5606 45.5017C10.4217 45.3626 10.3418 45.1684 10.3418 44.9746C10.3418 44.7805 10.4217 44.5864 10.5606 44.4473C10.8396 44.1686 11.3374 44.1686 11.6152 44.4473C11.7553 44.5864 11.8352 44.7805 11.8352 44.9746C11.8352 45.0242 11.83 45.074 11.8195 45.1187C11.8104 45.1684 11.7999 45.2134 11.7802 45.2581C11.7593 45.3029 11.7357 45.3477 11.7108 45.3874C11.6807 45.4272 11.6505 45.467 11.6152 45.5017C11.4763 45.6412 11.2876 45.7208 11.0885 45.7208V45.7208Z" fill="#66509E"/>
<path d="M14.0221 47.2443C13.823 47.2443 13.6291 47.1647 13.4903 47.0255C13.3501 46.8863 13.2715 46.6923 13.2715 46.4981C13.2715 46.2991 13.3501 46.1102 13.4903 45.9707C13.7693 45.6921 14.271 45.6921 14.5488 45.9707C14.5789 46.0056 14.6143 46.0405 14.6392 46.0852C14.6641 46.125 14.689 46.1649 14.7086 46.2095C14.7283 46.2545 14.7387 46.304 14.7479 46.3489C14.7584 46.3984 14.7636 46.4483 14.7636 46.4981C14.7636 46.6923 14.6837 46.8863 14.5488 47.0255C14.4099 47.1647 14.216 47.2443 14.0221 47.2443V47.2443Z" fill="#66509E"/>
<path d="M14.0221 62.1234C13.823 62.1234 13.6291 62.0438 13.4903 61.9042C13.3501 61.7651 13.2715 61.5761 13.2715 61.3772C13.2715 61.1831 13.3501 60.989 13.4903 60.8498C13.7693 60.5761 14.271 60.5761 14.5488 60.8498C14.6837 60.989 14.7636 61.1831 14.7636 61.3772C14.7636 61.5761 14.6837 61.7651 14.5488 61.9042C14.4099 62.0438 14.216 62.1234 14.0221 62.1234Z" fill="#66509E"/>
<path d="M23.3346 66.1791C23.2888 66.1791 23.239 66.1751 23.1905 66.1646C23.1394 66.1542 23.0949 66.1398 23.0503 66.1201C23.0058 66.1005 22.9613 66.0795 22.9206 66.0507C22.8813 66.0258 22.842 65.9957 22.8067 65.9603C22.6665 65.8214 22.5879 65.6275 22.5879 65.4336C22.5879 65.3837 22.5931 65.3338 22.6023 65.2893C22.6128 65.2394 22.6272 65.1896 22.6468 65.1449C22.6665 65.1002 22.6875 65.0604 22.7176 65.0155C22.7425 64.9758 22.7713 64.9408 22.8067 64.9061C22.842 64.8714 22.8813 64.8364 22.9206 64.8116C22.9613 64.7866 23.0058 64.7619 23.0503 64.7419C23.0949 64.722 23.1394 64.7121 23.1905 64.7021C23.4329 64.6523 23.6923 64.732 23.8613 64.9061C23.8966 64.9408 23.9307 64.9758 23.9556 65.0155C23.9805 65.0604 24.0054 65.1002 24.025 65.1449C24.046 65.1896 24.0604 65.2394 24.0656 65.2893C24.0748 65.3338 24.08 65.3837 24.08 65.4336C24.08 65.6275 24.0001 65.8214 23.8613 65.9603C23.7224 66.1005 23.5324 66.1791 23.3346 66.1791V66.1791Z" fill="#66509E"/>
<path d="M11.0006 59.8418C10.8015 59.8418 10.6076 59.7622 10.4674 59.6228C10.4386 59.588 10.4033 59.5482 10.3784 59.5084C10.3495 59.4685 10.3286 59.4239 10.3089 59.3792C10.2893 59.3342 10.2749 59.2896 10.2644 59.2397C10.2591 59.1901 10.2539 59.1404 10.2539 59.0954C10.2539 58.8966 10.3338 58.7024 10.4674 58.5683C10.7465 58.2897 11.2495 58.2897 11.5286 58.5683C11.6674 58.7075 11.7474 58.8966 11.7474 59.0954C11.7474 59.2896 11.6674 59.4836 11.5286 59.6228C11.3884 59.7622 11.1945 59.8418 11.0006 59.8418V59.8418Z" fill="#66509E"/>
<path d="M12.4362 48.6503C12.3864 48.6503 12.3353 48.6455 12.2908 48.6355C12.2423 48.6255 12.1964 48.6107 12.1519 48.5908C12.1074 48.5709 12.0628 48.551 12.0222 48.5211C11.9829 48.4964 11.9423 48.4665 11.9082 48.4315C11.8729 48.3968 11.844 48.3569 11.8139 48.317C11.789 48.2772 11.7641 48.2325 11.7445 48.1879C11.7288 48.1429 11.7143 48.0983 11.7039 48.0483C11.6947 47.9988 11.6895 47.9539 11.6895 47.9041C11.6895 47.7051 11.7694 47.5111 11.9082 47.377C12.1873 47.0983 12.6838 47.0983 12.9628 47.377C13.1017 47.5162 13.1816 47.7051 13.1816 47.9041C13.1816 48.0983 13.1017 48.2923 12.9628 48.4315C12.824 48.5709 12.6301 48.6503 12.4362 48.6503Z" fill="#66509E"/>
<path d="M27.2311 55.9745C27.0359 55.9745 26.842 55.8951 26.7032 55.7556C26.6691 55.7209 26.639 55.6811 26.6141 55.6412C26.5839 55.6014 26.5643 55.5567 26.5446 55.5119C26.525 55.467 26.5093 55.4175 26.4988 55.3725C26.4896 55.3228 26.4844 55.2732 26.4844 55.2282C26.4844 55.1786 26.4896 55.129 26.4988 55.0791C26.5093 55.0344 26.525 54.9846 26.5446 54.9397C26.5643 54.895 26.5839 54.8502 26.6141 54.8104C26.639 54.7706 26.6691 54.7309 26.7032 54.7009C26.9822 54.4226 27.48 54.4226 27.7577 54.7009C27.7931 54.7309 27.8285 54.7706 27.8521 54.8104C27.877 54.8502 27.9018 54.895 27.9215 54.9397C27.9425 54.9846 27.9529 55.0344 27.9621 55.0791C27.9713 55.129 27.9765 55.1786 27.9765 55.2282C27.9765 55.2732 27.9713 55.3228 27.9621 55.3725C27.9529 55.4175 27.9425 55.467 27.9215 55.5119C27.9018 55.5567 27.877 55.6014 27.8521 55.6412C27.8285 55.6811 27.7931 55.7209 27.7577 55.7556C27.6189 55.8951 27.4289 55.9745 27.2311 55.9745Z" fill="#66509E"/>
<path d="M24.9752 53.7576C24.9307 53.7576 24.8809 53.7527 24.8311 53.7428C24.7853 53.7328 24.7368 53.718 24.691 53.6981C24.6464 53.683 24.6019 53.6583 24.5626 53.6333C24.522 53.6034 24.4827 53.5738 24.4473 53.5388C24.4132 53.5041 24.3831 53.4692 24.3582 53.4243C24.3281 53.3845 24.3084 53.3398 24.2888 53.2951C24.2678 53.2502 24.2534 53.2055 24.2429 53.1556C24.2338 53.1111 24.2285 53.0612 24.2285 53.0114C24.2285 52.9619 24.2338 52.9121 24.2429 52.8671C24.2534 52.8175 24.2678 52.7727 24.2888 52.7279C24.3084 52.6832 24.3281 52.6383 24.3582 52.5987C24.3831 52.5589 24.4132 52.5191 24.4473 52.484C24.4827 52.4492 24.522 52.4194 24.5626 52.3895C24.6019 52.3647 24.6464 52.34 24.691 52.3201C24.7368 52.305 24.7814 52.2902 24.8311 52.2802C25.0748 52.2305 25.3329 52.3101 25.5019 52.484C25.5372 52.5191 25.5713 52.5589 25.5975 52.5987C25.6224 52.6383 25.646 52.6832 25.6669 52.7279C25.6866 52.7727 25.6958 52.8175 25.7062 52.8671C25.7167 52.9121 25.722 52.9619 25.722 53.0114C25.722 53.0612 25.7167 53.1111 25.7062 53.1556C25.6958 53.2055 25.6866 53.2502 25.6669 53.2951C25.646 53.3398 25.6224 53.3845 25.5975 53.4243C25.5713 53.4692 25.5372 53.5041 25.5019 53.5388C25.363 53.6782 25.1744 53.7576 24.9752 53.7576V53.7576Z" fill="#66509E"/>
<path d="M19.7591 49.5976C19.7145 49.5976 19.6648 49.5928 19.615 49.5828C19.5652 49.5728 19.5207 49.5578 19.4761 49.543C19.4316 49.5231 19.387 49.498 19.3464 49.4733C19.3071 49.4434 19.2665 49.4135 19.2325 49.3787C19.1971 49.344 19.1669 49.3041 19.1421 49.2643C19.1132 49.2245 19.0883 49.1798 19.0726 49.1349C19.053 49.09 19.0386 49.0455 19.0281 48.9956C19.0176 48.951 19.0137 48.9012 19.0137 48.8514C19.0137 48.8016 19.0176 48.7518 19.0281 48.7072C19.0386 48.6572 19.053 48.6126 19.0726 48.5679C19.0883 48.523 19.1132 48.4783 19.1421 48.4385C19.1669 48.3986 19.1971 48.3587 19.2325 48.324C19.2665 48.2893 19.3071 48.2594 19.3464 48.2295C19.387 48.2048 19.4316 48.1797 19.4761 48.1649C19.5207 48.145 19.5652 48.13 19.615 48.12C19.8587 48.0705 20.118 48.1497 20.287 48.324C20.3211 48.3587 20.3512 48.3986 20.3814 48.4385C20.4062 48.4783 20.4311 48.523 20.4508 48.5679C20.4704 48.6126 20.4809 48.6572 20.4914 48.7072C20.5006 48.7518 20.5058 48.8016 20.5058 48.8514C20.5058 48.9012 20.5006 48.951 20.4914 48.9956C20.4809 49.0455 20.4704 49.09 20.4508 49.1349C20.4311 49.1798 20.4062 49.2245 20.3814 49.2643C20.3512 49.3041 20.3211 49.344 20.287 49.3787C20.1521 49.5179 19.9582 49.5976 19.7591 49.5976V49.5976Z" fill="#66509E"/>
<path d="M20.8444 51.9415C20.7933 51.9415 20.7487 51.9367 20.7003 51.9267C20.6492 51.9168 20.6046 51.9017 20.5601 51.8818C20.5156 51.867 20.471 51.8421 20.4304 51.8172C20.3911 51.7873 20.3518 51.7575 20.3164 51.7225C20.2811 51.6879 20.2522 51.6481 20.2221 51.6082C20.1972 51.5683 20.1723 51.5237 20.1566 51.4791C20.137 51.434 20.1225 51.3893 20.1121 51.3396C20.1029 51.2949 20.0977 51.2451 20.0977 51.1953C20.0977 51.1455 20.1029 51.0959 20.1121 51.051C20.1225 51.0012 20.137 50.9565 20.1566 50.9118C20.1723 50.862 20.1972 50.8222 20.2221 50.7823C20.2522 50.7376 20.2811 50.7029 20.3164 50.6679C20.3518 50.6332 20.3911 50.6033 20.4304 50.5734C20.471 50.5487 20.5156 50.5237 20.5601 50.5037C20.6046 50.4888 20.6492 50.4741 20.7003 50.4641C20.7933 50.4443 20.8942 50.4443 20.9885 50.4641C21.0383 50.4741 21.0867 50.4888 21.1274 50.5037C21.1771 50.5237 21.2164 50.5487 21.257 50.5734C21.3016 50.6033 21.3356 50.6332 21.371 50.6679C21.4064 50.7029 21.4352 50.7376 21.4653 50.7823C21.4902 50.8222 21.5151 50.862 21.5348 50.9118C21.5505 50.9565 21.5649 51.0012 21.5754 51.051C21.5846 51.0959 21.5898 51.1455 21.5898 51.1953C21.5898 51.2451 21.5846 51.2949 21.5754 51.3396C21.5649 51.3893 21.5505 51.434 21.5348 51.4791C21.5151 51.5237 21.4902 51.5683 21.4653 51.6082C21.4352 51.6481 21.4064 51.6879 21.371 51.7225C21.2322 51.8617 21.0422 51.9415 20.8444 51.9415Z" fill="#66509E"/>
<path d="M16.7415 50.711C16.6917 50.711 16.6419 50.7062 16.5974 50.6962C16.5476 50.6863 16.5031 50.6712 16.4585 50.6513C16.4127 50.6365 16.3681 50.6117 16.3288 50.5867C16.2895 50.5568 16.2489 50.527 16.2149 50.4922C16.0747 50.353 15.9961 50.159 15.9961 49.9648C15.9961 49.766 16.0747 49.5769 16.2149 49.4374C16.2489 49.4027 16.2895 49.3727 16.3288 49.3429C16.3681 49.318 16.4127 49.2932 16.4585 49.2732C16.5031 49.2536 16.5476 49.2436 16.5974 49.2337C16.6917 49.2138 16.7913 49.2138 16.8856 49.2337C16.9354 49.2436 16.9812 49.2536 17.0258 49.2732C17.0703 49.2932 17.1149 49.318 17.1542 49.3429C17.1948 49.3727 17.2341 49.4027 17.2695 49.4374C17.4083 49.5718 17.4882 49.766 17.4882 49.9648C17.4882 50.159 17.4083 50.353 17.2695 50.4922C17.2341 50.527 17.1948 50.5568 17.1542 50.5867C17.1149 50.6117 17.0703 50.6365 17.0258 50.6513C16.9812 50.6712 16.9354 50.6863 16.8856 50.6962C16.8411 50.7062 16.7913 50.711 16.7415 50.711V50.711Z" fill="#66509E"/>
<path d="M17.2995 64.4221C17.2549 64.4221 17.2051 64.4173 17.1554 64.4073C17.1056 64.3974 17.061 64.3823 17.0152 64.3623C16.9706 64.3425 16.9261 64.3226 16.8868 64.2928C16.8462 64.2678 16.8069 64.2379 16.7715 64.2032C16.6326 64.0638 16.5527 63.8699 16.5527 63.6759C16.5527 63.4769 16.6326 63.2879 16.7715 63.1485C16.8069 63.1138 16.8462 63.0839 16.8868 63.054C16.9261 63.0293 16.9706 63.0043 17.0152 62.9842C17.061 62.9644 17.1056 62.9543 17.1554 62.9445C17.2497 62.9247 17.3492 62.9247 17.4488 62.9445C17.4933 62.9543 17.5431 62.9644 17.5877 62.9842C17.6322 63.0043 17.6728 63.0293 17.7174 63.054C17.7567 63.0839 17.792 63.1138 17.8261 63.1485C17.9663 63.2879 18.0462 63.4769 18.0462 63.6759C18.0462 63.8699 17.9663 64.0638 17.8261 64.2032C17.792 64.2379 17.7567 64.2678 17.7174 64.2928C17.6728 64.3226 17.6322 64.3425 17.5877 64.3623C17.5431 64.3823 17.4933 64.3974 17.4488 64.4073C17.399 64.4173 17.3492 64.4221 17.2995 64.4221V64.4221Z" fill="#66509E"/>
<path d="M20.0827 63.8945C20.0381 63.8945 19.9883 63.8896 19.9386 63.8797C19.8888 63.8697 19.8442 63.8546 19.7984 63.8347C19.7538 63.8199 19.7093 63.7949 19.67 63.7653C19.6294 63.7403 19.5901 63.7104 19.5547 63.6757C19.5207 63.641 19.4905 63.601 19.4656 63.5612C19.4355 63.5214 19.4159 63.4767 19.3962 63.4318C19.3765 63.3871 19.3608 63.3424 19.3517 63.2925C19.3412 63.2428 19.3359 63.198 19.3359 63.1483C19.3359 62.9493 19.4159 62.7604 19.5547 62.6208C19.5901 62.5861 19.6294 62.5511 19.67 62.5264C19.7093 62.5016 19.7538 62.4766 19.7984 62.4567C19.8442 62.4419 19.8888 62.4268 19.9386 62.4169C20.1822 62.3673 20.4403 62.4467 20.6093 62.6208C20.7495 62.7604 20.8294 62.9493 20.8294 63.1483C20.8294 63.198 20.8241 63.2428 20.8137 63.2925C20.8032 63.3424 20.794 63.3871 20.7744 63.4318C20.7547 63.4767 20.7298 63.5214 20.7049 63.5612C20.6787 63.601 20.6447 63.641 20.6093 63.6757C20.5752 63.7104 20.5399 63.7403 20.4953 63.7653C20.456 63.7949 20.4154 63.8199 20.3709 63.8347C20.3263 63.8546 20.2765 63.8697 20.232 63.8797C20.1822 63.8896 20.1324 63.8945 20.0827 63.8945V63.8945Z" fill="#66509E"/>
<path d="M26.7038 67.6936C26.5046 67.6936 26.316 67.6137 26.1758 67.4748C26.0369 67.3346 25.957 67.1407 25.957 66.9468C25.957 66.8971 25.9623 66.8473 25.9728 66.7975C25.9819 66.753 25.9976 66.7032 26.0121 66.6586C26.0317 66.6141 26.0566 66.5735 26.0815 66.5342C26.1064 66.4896 26.1417 66.4543 26.1758 66.4202C26.4496 66.1412 26.9527 66.1412 27.2317 66.4202C27.2658 66.4543 27.2959 66.4896 27.3208 66.5342C27.3509 66.5735 27.3706 66.6141 27.3902 66.6586C27.4099 66.7032 27.4256 66.753 27.4348 66.7975C27.4452 66.8473 27.4492 66.8971 27.4492 66.9468C27.4492 67.1407 27.3706 67.3346 27.2317 67.4748C27.0915 67.6137 26.8976 67.6936 26.7038 67.6936V67.6936Z" fill="#66509E"/>
<path d="M33.1859 43.7437C33.1859 46.189 31.2798 48.1714 28.9269 48.1714C26.5754 48.1714 24.668 46.189 24.668 43.7437C24.668 41.2986 26.5754 39.3164 28.9269 39.3164C31.2798 39.3164 33.1859 41.2986 33.1859 43.7437Z" fill="#EE445B"/>
<path d="M28.9399 40.1058C27.0024 40.1058 25.4277 41.7574 25.4277 43.7872C25.4277 45.817 27.0024 47.4683 28.9399 47.4683C30.8775 47.4683 32.4535 45.817 32.4535 43.7872C32.4535 41.7574 30.8775 40.1058 28.9399 40.1058ZM28.9399 48.9607C26.1797 48.9607 23.9355 46.6399 23.9355 43.7872C23.9355 40.9343 26.1797 38.6133 28.9399 38.6133C31.7002 38.6133 33.9456 40.9343 33.9456 43.7872C33.9456 46.6399 31.7002 48.9607 28.9399 48.9607V48.9607Z" fill="#66509E"/>
<path d="M33.4268 35.2148C31.9688 36.7333 30.8329 38.6593 30.1465 40.7798L33.4268 35.2148Z" fill="white"/>
<path d="M30.1314 41.5691C30.0554 41.5691 29.9781 41.5573 29.9021 41.5324C29.5091 41.4056 29.2942 40.9847 29.4213 40.5926C30.1431 38.3644 31.3366 36.3407 32.8733 34.7409C33.1602 34.4435 33.6318 34.4347 33.9292 34.7195C34.2266 35.0051 34.2357 35.4774 33.9501 35.7746C32.5693 37.2128 31.4938 39.0378 30.8414 41.0528C30.7392 41.3682 30.4458 41.5691 30.1314 41.5691V41.5691Z" fill="#66509E"/>
<path d="M28.8574 41.6602C28.957 42.0849 29.3736 42.324 29.7889 42.1949L28.8574 41.6602Z" fill="white"/>
<path d="M29.5734 42.9616C29.3219 42.9616 29.0743 42.8967 28.8503 42.7688C28.4979 42.5671 28.2398 42.22 28.1455 41.8162C28.0498 41.4149 28.2987 41.0132 28.7009 40.9187C29.1018 40.8235 29.5027 41.0732 29.5983 41.4738C29.5996 41.4794 29.5996 41.4814 29.5996 41.4814C29.9926 41.3591 30.4027 41.5714 30.5245 41.9652C30.6476 42.3587 30.4184 42.7695 30.0254 42.8922C29.876 42.9388 29.7241 42.9616 29.5734 42.9616Z" fill="#66509E"/>
<path d="M48.8868 52.9068V49.106C48.5331 49.0683 48.1073 49.2733 47.4169 49.6549C46.8287 49.9804 46.1632 50.3491 45.406 50.4585C45.1623 50.4937 44.9684 50.5385 44.806 50.593L44.5558 50.697C44.265 50.8435 44.0881 51.04 43.8615 51.2976C43.4737 51.7367 42.9942 52.2832 41.8859 52.7229C40.8143 53.1475 40.0898 53.3516 39.389 53.5489C38.6907 53.7451 38.0318 53.9306 37.027 54.329C35.6842 54.861 35.2846 55.1516 34.5575 55.6782C34.2143 55.9265 33.7872 56.2359 33.1741 56.6352C32.0488 57.3674 31.196 57.4009 30.5737 57.4257C30.2645 57.4379 30.0746 57.4544 29.9121 57.516V61.8314C30.1885 61.779 30.4689 61.7564 30.7453 61.7355C31.4449 61.6825 32.168 61.6282 32.9553 61.0946C33.5278 60.7075 33.9143 60.4174 34.2549 60.1609C35.0056 59.5954 35.5021 59.2212 36.989 58.6029C38.1169 58.1335 38.5846 58.1005 38.9973 58.0719C39.3326 58.048 39.6497 58.0257 40.568 57.6438C41.3567 57.3154 41.9108 56.8067 42.4964 56.2684C43.306 55.5242 44.1431 54.7541 45.5527 54.5288C46.9257 54.3088 48.2763 53.6414 48.8868 52.9068V52.9068Z" fill="#EE445B"/>
<path d="M48.8868 55.4043V54.8438C47.9436 55.4569 46.775 55.862 45.7715 56.0225C44.7785 56.1814 44.1615 56.7488 43.4475 57.4051C42.8252 57.9766 42.1217 58.6236 41.1012 59.0482C39.9732 59.5176 39.5056 59.5506 39.0942 59.5793C38.7575 59.6031 38.4405 59.6254 37.5222 60.0073C36.2003 60.5572 35.8086 60.8527 35.0973 61.3885C34.7606 61.6421 34.3414 61.9574 33.7387 62.3651C32.6396 63.1074 31.6479 63.1827 30.8488 63.243C30.4283 63.2747 30.1335 63.3051 29.9121 63.3923V64.4596C30.2095 64.3913 30.5147 64.3532 30.816 64.3171C31.5732 64.2267 32.358 64.1334 33.1649 63.5893C33.7427 63.1997 34.1331 62.9077 34.4763 62.6502C35.2348 62.0817 35.7353 61.7068 37.2339 61.083C38.3698 60.6102 38.8401 60.5757 39.2553 60.5456C39.5946 60.5208 39.9156 60.4975 40.8431 60.1113C41.6409 59.7789 42.2016 59.2674 42.7938 58.7257C43.6112 57.9791 44.4562 57.2069 45.8737 56.9766C47.1641 56.7672 48.2684 56.1841 48.8868 55.4043V55.4043Z" fill="white"/>
<path d="M9.52756 63.3849L28.4669 73.0161V71.4218C27.7607 71.0733 27.2027 70.6777 26.7481 70.3462C26.3511 70.0567 26.0092 69.8078 25.6778 69.6702C24.7372 69.2825 24.1162 69.1056 23.4573 68.9183C22.7918 68.7283 22.1027 68.5318 21.09 68.1139C20.0249 67.6737 19.5546 67.3069 19.1407 66.9833C18.749 66.6781 18.411 66.4148 17.5228 66.048C16.514 65.6314 15.838 65.2671 15.1843 64.9149C14.5332 64.5641 13.9188 64.2328 12.9756 63.843C11.9105 63.4035 11.2332 62.8748 10.5769 62.3633C10.2271 62.0905 9.88651 61.8269 9.49219 61.582V63.2819C9.49219 63.3417 9.51839 63.3786 9.52756 63.3849V63.3849Z" fill="white"/>
<path d="M48.8868 62.2266C48.4388 62.43 48.0641 62.6139 47.6776 62.8039C47.0488 63.1124 46.4003 63.4315 45.4034 63.843C44.4601 64.2328 43.8457 64.5641 43.1946 64.9149C42.5409 65.267 41.8663 65.6314 40.8562 66.048C39.968 66.4148 39.63 66.6781 39.2383 66.9833C38.8243 67.3069 38.3553 67.6737 37.289 68.1139C36.2763 68.5318 35.5872 68.7283 34.9204 68.9183C34.2628 69.1056 33.6418 69.2825 32.7012 69.6702C32.3698 69.8078 32.0278 70.0567 31.6309 70.3462C31.1763 70.6777 30.6182 71.0733 29.9121 71.4218V73.0161L48.8829 63.3689C48.8684 63.3752 48.8868 63.3519 48.8868 63.3208V62.2266V62.2266Z" fill="white"/>
<path d="M21.39 58.6029C22.8769 59.2212 23.3734 59.5954 24.1241 60.1609C24.4647 60.4174 24.8511 60.7075 25.4236 61.0946C26.2123 61.6282 26.9341 61.6825 27.6337 61.7355C27.9101 61.7564 28.1904 61.779 28.4669 61.8314V57.516C28.3044 57.4544 28.1145 57.4379 27.8066 57.4257C27.183 57.4009 26.3302 57.3674 25.2049 56.6352C24.5918 56.2359 24.1647 55.9265 23.8214 55.6777C23.0944 55.1511 22.6948 54.861 21.352 54.329C20.3485 53.9306 19.6883 53.7451 18.99 53.5489C18.2891 53.3516 17.5647 53.1475 16.4944 52.7229C15.3861 52.2832 14.904 51.7367 14.5188 51.2976C14.2922 51.0397 14.114 50.8432 13.8232 50.6968L13.5756 50.5935C13.4118 50.5392 13.218 50.4937 12.973 50.4585C12.2171 50.3491 11.5503 49.9804 10.9621 49.6549C10.273 49.2733 9.8459 49.0683 9.49219 49.106V52.9062C10.1027 53.6411 11.452 54.3088 12.8262 54.5288C14.2359 54.7541 15.073 55.5242 15.8826 56.2684C16.4695 56.8067 17.0223 57.3154 17.811 57.6438C18.7293 58.0257 19.0463 58.048 19.383 58.0719C19.7944 58.1005 20.2621 58.1335 21.39 58.6029V58.6029Z" fill="#EE445B"/>
<path d="M15.5852 58.7254C16.1773 59.2671 16.738 59.7787 17.5359 60.111C18.4634 60.4972 18.7843 60.5206 19.1236 60.5453C19.5389 60.5755 20.0092 60.6099 21.145 61.0827C22.6437 61.7065 23.1455 62.0815 23.9027 62.6499C24.2472 62.9075 24.6363 63.1995 25.2153 63.5891C26.0223 64.1331 26.8057 64.2264 27.5629 64.3168C27.8642 64.3527 28.1695 64.3911 28.4669 64.4592V63.392C28.2455 63.3048 27.952 63.2744 27.5289 63.2427C26.7324 63.1824 25.7393 63.1071 24.6402 62.3648C24.0376 61.9572 23.6184 61.6418 23.283 61.3882C22.5704 60.8524 22.1787 60.557 20.8568 60.007C19.9398 59.6251 19.6214 59.6029 19.2861 59.579C18.8734 59.5503 18.4057 59.5173 17.2778 59.0479C16.2573 58.6234 15.5538 57.9763 14.9315 57.4049C14.2175 56.7486 13.6005 56.1812 12.6075 56.0223C11.604 55.8618 10.4354 55.4569 9.49219 54.8438V55.4039C10.1118 56.1838 11.2149 56.7669 12.5053 56.9764C13.9241 57.2067 14.769 57.9788 15.5852 58.7254V58.7254Z" fill="white"/>
<path d="M61.2278 25.8984L61.8265 46.3903C61.8265 47.1433 61.0968 47.7542 60.1955 47.7542C59.2941 47.7542 58.5645 47.1433 58.5645 46.3903L59.1631 25.8984H61.2278Z" fill="#807DBB"/>
<path d="M60.1805 48.4847C58.8691 48.4847 57.8027 47.5381 57.8027 46.3745L58.4014 25.8608C58.4145 25.4491 58.7512 25.133 59.1691 25.1368C59.5818 25.1489 59.9054 25.4926 59.8936 25.9046L59.2949 46.3964C59.2962 46.7037 59.7088 46.9923 60.1805 46.9923C60.6521 46.9923 61.0647 46.7037 61.0647 46.3745L60.4674 25.9046C60.4556 25.4926 60.7792 25.1489 61.1918 25.1368C61.6176 25.136 61.9464 25.4491 61.9595 25.8608L62.5569 46.3526C62.5569 47.5381 61.4905 48.4847 60.1805 48.4847V48.4847Z" fill="#66509E"/>
<path d="M56.7332 21.6262C56.7279 21.6262 56.7227 21.6262 56.7175 21.6261C56.3048 21.6176 55.9786 21.2766 55.9865 20.8646L56.2066 10.3997C56.2144 9.98753 56.5537 9.64483 56.9677 9.66919C57.3804 9.67758 57.7066 10.0187 57.6987 10.4307L57.4786 20.8957C57.4707 21.3026 57.138 21.6262 56.7332 21.6262ZM63.6476 21.7012C63.2428 21.7012 62.91 21.3774 62.9009 20.9707L62.6769 10.4309C62.669 10.019 62.9952 9.67797 63.4079 9.66919C63.8231 9.64522 64.1611 9.98753 64.1703 10.3994L64.393 20.9392C64.4022 21.3511 64.076 21.6923 63.6633 21.701C63.6581 21.7012 63.6528 21.7012 63.6476 21.7012ZM59.0205 21.9125C58.6079 21.9125 58.2738 21.5785 58.2738 21.1663V10.4153C58.2738 10.003 58.6079 9.66893 59.0205 9.66893C59.4319 9.66893 59.7659 10.003 59.7659 10.4153V21.1663C59.7659 21.5785 59.4319 21.9125 59.0205 21.9125ZM61.2908 21.9125C60.8782 21.9125 60.5441 21.5785 60.5441 21.1663V10.4153C60.5441 10.003 60.8782 9.66893 61.2908 9.66893C61.7022 9.66893 62.0362 10.003 62.0362 10.4153V21.1663C62.0362 21.5785 61.7022 21.9125 61.2908 21.9125Z" fill="#66509E"/>
<path d="M63.693 22.976C63.693 24.525 62.2139 25.8709 60.3052 25.9149C58.3218 25.9588 56.6895 24.6743 56.6895 23.0911L56.7327 20.918C60.2344 21.6169 63.6484 20.9926 63.6484 20.9926L63.693 22.976V22.976Z" fill="white"/>
<path d="M57.4754 21.7843L57.4492 23.0908C57.4492 23.6499 57.7623 24.0755 58.023 24.3315C58.5693 24.8656 59.4155 25.1696 60.3038 25.1533C61.7645 25.1195 62.9553 24.1399 62.9605 22.968L62.9356 21.8334C61.8103 21.9636 59.7247 22.1093 57.4754 21.7843ZM60.2212 26.6465C58.9701 26.6465 57.7937 26.1952 56.9802 25.3987C56.3212 24.7535 55.957 23.9286 55.957 23.0756L56.0016 20.8876C56.0055 20.6667 56.1077 20.4593 56.2806 20.3208C56.4522 20.1824 56.6762 20.1275 56.8937 20.1707C60.2173 20.8341 63.4963 20.2494 63.5291 20.243C63.7426 20.2037 63.9653 20.2603 64.1343 20.3988C64.3033 20.5367 64.4042 20.742 64.4081 20.9607L64.4527 22.9441C64.4527 22.9494 64.4527 22.9549 64.4527 22.9606C64.4527 24.94 62.6068 26.5931 60.3365 26.6452C60.2985 26.6462 60.2592 26.6465 60.2212 26.6465V26.6465Z" fill="#66509E"/>
<path d="M113.54 29.0625L114.289 45.9858C114.289 47.0013 113.768 47.8238 112.618 47.8238C111.563 47.8238 110.947 47.0013 110.947 45.9858L111.694 29.0897L113.54 29.0625V29.0625Z" fill="#807DBB"/>
<path d="M112.603 48.5542C111.202 48.5542 110.186 47.4674 110.186 45.97L110.934 29.041C110.952 28.6295 111.295 28.313 111.712 28.3286C112.124 28.3468 112.443 28.6954 112.424 29.1072L111.678 46.0032C111.678 46.498 111.921 47.0617 112.603 47.0617C112.831 47.0617 113.527 47.0617 113.527 45.97L112.781 29.0799C112.761 28.6682 113.081 28.3196 113.492 28.3013C113.902 28.2856 114.253 28.602 114.272 29.0139L115.018 45.9369C115.02 47.5158 114.048 48.5542 112.603 48.5542V48.5542Z" fill="#66509E"/>
<path d="M110.019 25.8335V22.2504V17.2066C110.019 14.8867 111.072 12.625 113.029 10.7433C113.388 10.3974 114.216 10.0139 114.177 11.0004V26.6873C114.177 27.1972 114.238 29.0281 114.238 29.0281H111.665C110.991 29.0281 110.14 29.0036 109.968 28.4599C109.911 28.2848 110.019 26.1858 110.019 25.8335Z" fill="white"/>
<path d="M110.711 28.1817C110.862 28.2391 111.186 28.2682 111.679 28.2682H113.482C113.465 27.6988 113.445 26.9737 113.445 26.6734V11.3795C111.7 13.1047 110.778 15.1116 110.778 17.1928V25.8197C110.778 25.9348 110.767 26.23 110.754 26.5861C110.738 27.0109 110.708 27.8254 110.711 28.1817ZM110.715 28.3241H110.72H110.715ZM114.252 29.7607H111.679C110.958 29.7607 109.618 29.7607 109.27 28.6734C109.207 28.4749 109.199 28.2535 109.263 26.5301C109.275 26.2001 109.286 25.9266 109.286 25.8197V17.1928C109.286 14.6869 110.436 12.2005 112.525 10.1916C112.938 9.79392 113.641 9.42776 114.265 9.70798C114.531 9.82706 114.97 10.1555 114.937 11.0161V26.6734C114.937 27.1651 114.997 28.9713 114.997 28.9895C115.004 29.1915 114.929 29.3878 114.788 29.5333C114.648 29.6785 114.454 29.7607 114.252 29.7607Z" fill="#66509E"/>
<path d="M105.811 29.1023C105.811 39.9653 97.0052 48.7712 86.1423 48.7712C75.2794 48.7712 66.4746 39.9653 66.4746 29.1023C66.4746 18.2396 75.2794 9.43359 86.1423 9.43359C97.0052 9.43359 105.811 18.2396 105.811 29.1023Z" fill="white"/>
<path d="M86.1566 10.1644C75.7234 10.1644 67.2343 18.653 67.2343 29.0869C67.2343 39.5209 75.7234 48.0097 86.1566 48.0097C96.5911 48.0097 105.08 39.5209 105.08 29.0869C105.08 18.653 96.5911 10.1644 86.1566 10.1644V10.1644ZM86.1566 49.5021C74.9007 49.5021 65.7422 40.3438 65.7422 29.0869C65.7422 17.8301 74.9007 8.67188 86.1566 8.67188C97.4138 8.67188 106.572 17.8301 106.572 29.0869C106.572 40.3438 97.4138 49.5021 86.1566 49.5021Z" fill="#66509E"/>
<path d="M101.11 25.1653L86.1599 29.8679L80.3027 14.6604C82.0949 13.9349 84.056 13.5352 86.1102 13.5352C90.3848 13.5352 94.2573 15.2699 97.0582 18.0716C98.9892 20.0027 100.412 22.4386 101.11 25.1653V25.1653Z" fill="#EE445B"/>
<path d="M86.1045 14.266C82.1678 14.266 78.4669 15.7989 75.6831 18.5827C72.8993 21.3669 71.3665 25.0685 71.3665 29.0053C71.3665 32.9427 72.8993 36.6437 75.6831 39.4272C78.4656 42.2116 82.1678 43.7451 86.1045 43.7451C90.0425 43.7451 93.7434 42.2116 96.5272 39.4272C99.311 36.6433 100.844 32.9422 100.844 29.0053C100.844 25.069 99.311 21.3675 96.5272 18.5827C93.7434 15.7989 90.0425 14.266 86.1045 14.266V14.266ZM86.1045 45.2375C81.7696 45.2375 77.6927 43.5489 74.6272 40.4824C71.5617 37.4175 69.873 33.3414 69.873 29.0053C69.873 24.6701 71.5617 20.5937 74.6272 17.5275C77.694 14.4617 81.7696 12.7734 86.1045 12.7734C90.4407 12.7734 94.5163 14.4617 97.5831 17.5275C100.649 20.5939 102.337 24.6703 102.337 29.0053C102.337 33.3411 100.649 37.4169 97.5831 40.4824C94.5176 43.5489 90.4407 45.2375 86.1045 45.2375V45.2375Z" fill="#66509E"/>
<path d="M86.1165 30.6177C85.7052 30.6177 85.3711 30.2838 85.3711 29.8715V16.0393C85.3711 15.6272 85.7052 15.293 86.1165 15.293C86.5292 15.293 86.8632 15.6272 86.8632 16.0393V29.8715C86.8632 30.2838 86.5292 30.6177 86.1165 30.6177Z" fill="#66509E"/>
<path d="M86.1464 30.6023C85.9695 30.6023 85.794 30.5406 85.6525 30.4148C85.3433 30.1414 85.3145 29.6698 85.5883 29.3613L92.5328 21.5208C92.8066 21.213 93.2769 21.1836 93.5861 21.4569C93.894 21.7302 93.9228 22.2019 93.6503 22.5104L86.7058 30.3509C86.5577 30.5173 86.352 30.6023 86.1464 30.6023Z" fill="#66509E"/>
<path d="M87.8262 29.909C87.8262 30.8298 87.0795 31.5764 86.1586 31.5764C85.2389 31.5764 84.4922 30.8298 84.4922 29.909C84.4922 28.9886 85.2389 28.2422 86.1586 28.2422C87.0795 28.2422 87.8262 28.9886 87.8262 29.909Z" fill="#EE445B"/>
<path d="M86.1436 28.9729C85.6366 28.9729 85.2239 29.3859 85.2239 29.8933C85.2239 30.4012 85.6366 30.8147 86.1436 30.8147C86.6519 30.8147 87.0645 30.4012 87.0645 29.8933C87.0645 29.3859 86.6519 28.9729 86.1436 28.9729ZM86.1436 32.3071C84.8139 32.3071 83.7305 31.2242 83.7305 29.8933C83.7305 28.5628 84.8139 27.4805 86.1436 27.4805C87.4746 27.4805 88.5567 28.5628 88.5567 29.8933C88.5567 31.2242 87.4746 32.3071 86.1436 32.3071Z" fill="#66509E"/>
</g>
<defs>
<clipPath id="clip0_165_9310">
<rect width="120" height="120" fill="white"/>
</clipPath>
</defs>
</svg>
