<svg width="48" height="48" viewBox="0 0 48 48" fill="none" xmlns="http://www.w3.org/2000/svg">
<path d="M0.401367 42.3229V45.9864C0.401367 46.796 1.05799 47.4517 1.86704 47.4517H45.8357C46.647 47.4517 47.3021 46.796 47.3021 45.9864V42.3229H0.401367Z" fill="#EDEAF3"/>
<path d="M0.401367 42.3229V45.9864C0.401367 46.796 1.05799 47.4517 1.86704 47.4517H38.5074C39.3179 47.4517 39.973 46.796 39.973 45.9864V42.3229H0.401367Z" fill="white"/>
<path d="M1.10023 42.8711V45.9851C1.10023 46.4907 1.51135 46.901 2.01627 46.901H45.985C46.4914 46.901 46.9017 46.4907 46.9017 45.9851V42.8711H1.10023ZM45.985 48H2.01627C0.905296 48 0.000976562 47.0966 0.000976562 45.9851V42.3216C0.000976562 42.0183 0.247209 41.7721 0.550603 41.7721H47.4514C47.7547 41.7721 48.001 42.0183 48.001 42.3216V45.9851C48.001 47.0966 47.0974 48 45.985 48Z" fill="#674EA0"/>
<path d="M0.401367 42.306H47.3021L42.9058 32.7817H4.79838L0.401367 42.306Z" fill="#EDEAF3"/>
<path d="M0.401367 42.306H39.2402L36.3096 32.7817H4.79838L0.401367 42.306Z" fill="white"/>
<path d="M1.4092 41.755H46.5922L42.7038 33.3298H5.29908L1.4092 41.755ZM47.451 42.8541H0.550296C0.36269 42.8541 0.188284 42.7588 0.0871524 42.6013C-0.013246 42.4438 -0.027173 42.2445 0.0519733 42.0745L4.44899 32.5494C4.53839 32.3553 4.73259 32.2307 4.94731 32.2307H43.0548C43.2695 32.2307 43.4637 32.3553 43.5538 32.5494L47.9501 42.0745C48.0285 42.2445 48.0153 42.4438 47.9142 42.6013C47.8131 42.7588 47.6386 42.8541 47.451 42.8541Z" fill="#674EA0"/>
<path d="M4.76584 39.6871C4.6193 39.6871 4.47276 39.6278 4.37751 39.5259C4.26761 39.4226 4.20898 39.2768 4.20898 39.1376C4.20898 38.9903 4.27494 38.8445 4.37751 38.7412C4.56875 38.5441 4.94902 38.5368 5.15417 38.7485C5.25675 38.8445 5.31537 38.9903 5.31537 39.1376C5.31537 39.2768 5.25675 39.4153 5.15417 39.5259C5.04427 39.6278 4.90505 39.6871 4.76584 39.6871Z" fill="#674EA0"/>
<path d="M7.21484 39.1411C7.21484 38.8326 7.46401 38.5916 7.76447 38.5916C8.07226 38.5916 8.3141 38.8326 8.3141 39.1411C8.3141 39.4407 8.07226 39.6906 7.76447 39.6906C7.46401 39.6906 7.21484 39.4407 7.21484 39.1411ZM10.1462 39.1411C10.1462 38.8326 10.3954 38.5916 10.6958 38.5916C11.0036 38.5916 11.2454 38.8326 11.2454 39.1411C11.2454 39.4407 11.0036 39.6906 10.6958 39.6906C10.3954 39.6906 10.1462 39.4407 10.1462 39.1411ZM13.0775 39.1411C13.0775 38.8326 13.3267 38.5916 13.6272 38.5916C13.9349 38.5916 14.1768 38.8326 14.1768 39.1411C14.1768 39.4407 13.9349 39.6906 13.6272 39.6906C13.3267 39.6906 13.0775 39.4407 13.0775 39.1411ZM16.0089 39.1411C16.0089 38.8326 16.258 38.5916 16.5585 38.5916C16.8663 38.5916 17.1081 38.8326 17.1081 39.1411C17.1081 39.4407 16.8663 39.6906 16.5585 39.6906C16.258 39.6906 16.0089 39.4407 16.0089 39.1411ZM18.9402 39.1411C18.9402 38.8326 19.1894 38.5916 19.4898 38.5916C19.7976 38.5916 20.0395 38.8326 20.0395 39.1411C20.0395 39.4407 19.7976 39.6906 19.4898 39.6906C19.1894 39.6906 18.9402 39.4407 18.9402 39.1411ZM21.8716 39.1411C21.8716 38.8326 22.1207 38.5916 22.4212 38.5916C22.729 38.5916 22.9708 38.8326 22.9708 39.1411C22.9708 39.4407 22.729 39.6906 22.4212 39.6906C22.1207 39.6906 21.8716 39.4407 21.8716 39.1411ZM24.8029 39.1411C24.8029 38.8326 25.0521 38.5916 25.3525 38.5916C25.6603 38.5916 25.9022 38.8326 25.9022 39.1411C25.9022 39.4407 25.6603 39.6906 25.3525 39.6906C25.0521 39.6906 24.8029 39.4407 24.8029 39.1411ZM27.7342 39.1411C27.7342 38.8326 27.9834 38.5916 28.2839 38.5916C28.5917 38.5916 28.8335 38.8326 28.8335 39.1411C28.8335 39.4407 28.5917 39.6906 28.2839 39.6906C27.9834 39.6906 27.7342 39.4407 27.7342 39.1411ZM30.6656 39.1411C30.6656 38.8326 30.9147 38.5916 31.2152 38.5916C31.523 38.5916 31.7648 38.8326 31.7648 39.1411C31.7648 39.4407 31.523 39.6906 31.2152 39.6906C30.9147 39.6906 30.6656 39.4407 30.6656 39.1411ZM33.5969 39.1411C33.5969 38.8326 33.8461 38.5916 34.1466 38.5916C34.4543 38.5916 34.6962 38.8326 34.6962 39.1411C34.6962 39.4407 34.4543 39.6906 34.1466 39.6906C33.8461 39.6906 33.5969 39.4407 33.5969 39.1411ZM36.5283 39.1411C36.5283 38.8326 36.7774 38.5916 37.0779 38.5916C37.385 38.5916 37.6275 38.8326 37.6275 39.1411C37.6275 39.4407 37.385 39.6906 37.0779 39.6906C36.7774 39.6906 36.5283 39.4407 36.5283 39.1411ZM39.4596 39.1411C39.4596 38.8326 39.7088 38.5916 40.0092 38.5916C40.3163 38.5916 40.5589 38.8326 40.5589 39.1411C40.5589 39.4407 40.3163 39.6906 40.0092 39.6906C39.7088 39.6906 39.4596 39.4407 39.4596 39.1411Z" fill="#674EA0"/>
<path d="M43.032 39.6862C42.8927 39.6862 42.7455 39.6269 42.6436 39.525C42.5411 39.4217 42.4824 39.2825 42.4824 39.1367C42.4824 38.9894 42.5411 38.8436 42.6436 38.7476C42.8561 38.5359 43.2225 38.5432 43.421 38.7476C43.5221 38.8509 43.5815 38.9894 43.5815 39.1367C43.5815 39.2759 43.5221 39.4217 43.421 39.525C43.3177 39.6269 43.1785 39.6862 43.032 39.6862Z" fill="#674EA0"/>
<path d="M6.36202 36.5023C6.22281 36.5023 6.08361 36.4437 5.98103 36.3484C5.87112 36.2385 5.8125 36.1001 5.8125 35.9528C5.8125 35.8062 5.87112 35.6678 5.97369 35.5644C6.18618 35.36 6.5452 35.36 6.75109 35.5644C6.86026 35.6678 6.91888 35.8136 6.91888 35.9528C6.91888 36.1001 6.86026 36.2385 6.75769 36.3418C6.64778 36.4437 6.50856 36.5023 6.36202 36.5023Z" fill="#674EA0"/>
<path d="M8.61621 35.9607C8.61621 35.661 8.86538 35.4111 9.16584 35.4111C9.47363 35.4111 9.71547 35.661 9.71547 35.9607C9.71547 36.2684 9.47363 36.5102 9.16584 36.5102C8.86538 36.5102 8.61621 36.2684 8.61621 35.9607ZM11.5476 35.9607C11.5476 35.661 11.7967 35.4111 12.0972 35.4111C12.405 35.4111 12.6468 35.661 12.6468 35.9607C12.6468 36.2684 12.405 36.5102 12.0972 36.5102C11.7967 36.5102 11.5476 36.2684 11.5476 35.9607ZM14.4789 35.9607C14.4789 35.661 14.7281 35.4111 15.0285 35.4111C15.3363 35.4111 15.5782 35.661 15.5782 35.9607C15.5782 36.2684 15.3363 36.5102 15.0285 36.5102C14.7281 36.5102 14.4789 36.2684 14.4789 35.9607ZM17.4102 35.9607C17.4102 35.661 17.6594 35.4111 17.9599 35.4111C18.2677 35.4111 18.5095 35.661 18.5095 35.9607C18.5095 36.2684 18.2677 36.5102 17.9599 36.5102C17.6594 36.5102 17.4102 36.2684 17.4102 35.9607ZM20.3416 35.9607C20.3416 35.661 20.5908 35.4111 20.8912 35.4111C21.199 35.4111 21.4408 35.661 21.4408 35.9607C21.4408 36.2684 21.199 36.5102 20.8912 36.5102C20.5908 36.5102 20.3416 36.2684 20.3416 35.9607ZM23.2729 35.9607C23.2729 35.661 23.5221 35.4111 23.8226 35.4111C24.1304 35.4111 24.3722 35.661 24.3722 35.9607C24.3722 36.2684 24.1304 36.5102 23.8226 36.5102C23.5221 36.5102 23.2729 36.2684 23.2729 35.9607ZM26.2043 35.9607C26.2043 35.661 26.4534 35.4111 26.7539 35.4111C27.0617 35.4111 27.3035 35.661 27.3035 35.9607C27.3035 36.2684 27.0617 36.5102 26.7539 36.5102C26.4534 36.5102 26.2043 36.2684 26.2043 35.9607ZM29.1356 35.9607C29.1356 35.661 29.3848 35.4111 29.6853 35.4111C29.993 35.4111 30.2349 35.661 30.2349 35.9607C30.2349 36.2684 29.993 36.5102 29.6853 36.5102C29.3848 36.5102 29.1356 36.2684 29.1356 35.9607ZM32.067 35.9607C32.067 35.661 32.3161 35.4111 32.6166 35.4111C32.9244 35.4111 33.1662 35.661 33.1662 35.9607C33.1662 36.2684 32.9244 36.5102 32.6166 36.5102C32.3161 36.5102 32.067 36.2684 32.067 35.9607ZM34.9983 35.9607C34.9983 35.661 35.2475 35.4111 35.5479 35.4111C35.8557 35.4111 36.0976 35.661 36.0976 35.9607C36.0976 36.2684 35.8557 36.5102 35.5479 36.5102C35.2475 36.5102 34.9983 36.2684 34.9983 35.9607ZM37.9297 35.9607C37.9297 35.661 38.1788 35.4111 38.4793 35.4111C38.7863 35.4111 39.0289 35.661 39.0289 35.9607C39.0289 36.2684 38.7863 36.5102 38.4793 36.5102C38.1788 36.5102 37.9297 36.2684 37.9297 35.9607Z" fill="#674EA0"/>
<path d="M41.4275 36.5023C41.2882 36.5023 41.1483 36.4437 41.0391 36.3485C40.9366 36.2386 40.8779 36.1001 40.8779 35.9528C40.8779 35.8136 40.9366 35.6678 41.0391 35.5645C41.259 35.3527 41.618 35.3674 41.8165 35.5645C41.9176 35.6751 41.977 35.8136 41.977 35.9528C41.977 36.1001 41.9176 36.2386 41.8165 36.3419C41.7132 36.4437 41.574 36.5023 41.4275 36.5023Z" fill="#674EA0"/>
<path d="M26.8528 45.4258H20.9901C20.6867 45.4258 20.4404 45.1796 20.4404 44.8763C20.4404 44.573 20.6867 44.3268 20.9901 44.3268H26.8528C27.1562 44.3268 27.4024 44.573 27.4024 44.8763C27.4024 45.1796 27.1562 45.4258 26.8528 45.4258Z" fill="#674EA0"/>
<path d="M41.4524 6.41101H6.27622C5.46717 6.41101 4.81055 7.06824 4.81055 7.8764V32.7888H42.918V7.8764C42.918 7.06824 42.2621 6.41101 41.4524 6.41101Z" fill="#EDEAF3"/>
<path d="M39.9867 6.41101H6.27622C5.46717 6.41101 4.81055 7.06824 4.81055 7.8764V29.8573H38.521C39.3308 29.8573 39.9867 29.2022 39.9867 28.3919V6.41101Z" fill="white"/>
<path d="M5.30824 32.237H42.3164V7.8749C42.3164 7.36934 41.9061 6.95903 41.4004 6.95903H6.22428C5.71936 6.95903 5.30824 7.36934 5.30824 7.8749V32.237ZM42.8661 33.3361H4.75861C4.45522 33.3361 4.20898 33.0899 4.20898 32.7865V7.8749C4.20898 6.76413 5.1133 5.85999 6.22428 5.85999H41.4004C42.5114 5.85999 43.4157 6.76413 43.4157 7.8749V32.7865C43.4157 33.0899 43.1695 33.3361 42.8661 33.3361Z" fill="#674EA0"/>
<path d="M1.15207 14.1235C0.848728 14.1235 0.602539 13.8773 0.602539 13.574V4.20577C0.602539 3.90317 0.848728 3.65625 1.15207 3.65625C1.45541 3.65625 1.7016 3.90317 1.7016 4.20577V13.574C1.7016 13.8773 1.45541 14.1235 1.15207 14.1235Z" fill="#674EA0"/>
<path d="M1.15207 18.6725C0.848728 18.6725 0.602539 18.4271 0.602539 18.123V16.5023C0.602539 16.1982 0.848728 15.9528 1.15207 15.9528C1.45541 15.9528 1.7016 16.1982 1.7016 16.5023V18.123C1.7016 18.4271 1.45541 18.6725 1.15207 18.6725Z" fill="#674EA0"/>
<path d="M46.6394 25.8554C46.336 25.8554 46.0898 25.6092 46.0898 25.3059V17.4038C46.0898 17.1004 46.336 16.8542 46.6394 16.8542C46.9427 16.8542 47.1889 17.1004 47.1889 17.4038V25.3059C47.1889 25.6092 46.9427 25.8554 46.6394 25.8554Z" fill="#674EA0"/>
<path d="M46.6394 30.3931C46.336 30.3931 46.0898 30.1469 46.0898 29.8436V28.2221C46.0898 27.9181 46.336 27.6726 46.6394 27.6726C46.9427 27.6726 47.1889 27.9181 47.1889 28.2221V29.8436C47.1889 30.1469 46.9427 30.3931 46.6394 30.3931Z" fill="#674EA0"/>
<path d="M36.2693 0.550781H11.353C10.9477 0.550781 10.6201 0.879029 10.6201 1.28348V26.1951C10.6201 26.6003 10.9477 26.9278 11.353 26.9278H16.4821V32.7894L26.0104 26.9278H36.2693C36.6746 26.9278 37.0022 26.6003 37.0022 26.1951V1.28348C37.0022 0.879029 36.6746 0.550781 36.2693 0.550781Z" fill="#EDEAF3"/>
<path d="M11.353 0.550781H34.803V23.997C34.803 24.4015 34.4754 24.7297 34.0701 24.7297H10.6201V1.28348C10.6201 0.879029 10.9477 0.550781 11.353 0.550781Z" fill="white"/>
<path d="M11.5032 1.09904C11.4028 1.09904 11.32 1.18184 11.32 1.28222V26.1939C11.32 26.295 11.4028 26.377 11.5032 26.377H16.6323C16.9357 26.377 17.1819 26.6232 17.1819 26.9265V31.8056L25.8726 26.4591C25.9598 26.4056 26.0595 26.377 26.1606 26.377H36.4196C36.5207 26.377 36.6028 26.295 36.6028 26.1939V1.28222C36.6028 1.18184 36.5207 1.09904 36.4196 1.09904H11.5032ZM16.6323 33.3384C16.54 33.3384 16.4476 33.3149 16.3641 33.2695C16.1904 33.172 16.0827 32.9881 16.0827 32.7888V27.4761H11.5032C10.796 27.4761 10.2207 26.9009 10.2207 26.1939V1.28222C10.2207 0.575898 10.796 0 11.5032 0H36.4196C37.126 0 37.7021 0.575898 37.7021 1.28222V26.1939C37.7021 26.9009 37.126 27.4761 36.4196 27.4761H26.316L16.921 33.257C16.8324 33.3113 16.7327 33.3384 16.6323 33.3384Z" fill="#674EA0"/>
<path d="M25.2516 22.3996C24.7878 22.4758 24.3114 22.5183 23.8248 22.5183C23.3397 22.5183 22.8626 22.4758 22.398 22.3996L21.9216 19.408C21.6564 19.3193 21.4006 19.2102 21.1529 19.0871L18.7008 20.8668C17.9211 20.3092 17.2388 19.6271 16.6804 18.8511L18.4619 16.3981C18.3388 16.1504 18.2289 15.8925 18.1409 15.628L15.1466 15.1518C15.0703 14.688 15.0293 14.2102 15.0293 13.7252V13.7245C15.0293 13.2394 15.0703 12.7632 15.1466 12.2994L18.1409 11.8231C18.2289 11.5579 18.3388 11.3007 18.4604 11.0531L16.6804 8.59926C17.2388 7.8248 17.9211 7.14194 18.7008 6.58362L21.1529 8.36407C21.4006 8.23951 21.6564 8.1318 21.9216 8.04388L22.398 5.05302C22.8626 4.97535 23.3397 4.93359 23.8248 4.93359C24.3114 4.93359 24.7878 4.97535 25.2516 5.05302L25.728 8.04388C25.9933 8.1318 26.2498 8.23951 26.496 8.36407L28.9503 6.58362C29.7285 7.14194 30.4108 7.8248 30.9692 8.59926L29.1877 11.0531C29.3145 11.3007 29.4208 11.5579 29.5087 11.8231L32.5023 12.2994C32.5785 12.7632 32.6174 13.2394 32.6174 13.7245V13.7252C32.6174 14.2102 32.5785 14.688 32.5023 15.1518L29.5087 15.628C29.4208 15.8925 29.3123 16.1504 29.1877 16.3981L30.9692 18.8511C30.4108 19.6271 29.7285 20.3092 28.9503 20.8668L26.496 19.0871C26.2498 19.2102 25.9933 19.3193 25.728 19.408L25.2516 22.3996Z" fill="#FFBAC3"/>
<path d="M25.3956 22.3994C24.9317 22.4756 24.4553 22.5181 23.9687 22.5181C23.4836 22.5181 23.0065 22.4756 22.5419 22.3994L22.0656 19.4078C21.9886 19.3822 21.9183 19.3441 21.8428 19.3148C25.888 18.8488 29.0942 15.641 29.5581 11.5951C29.5874 11.6728 29.627 11.7438 29.6526 11.823L32.6462 12.2992C32.7224 12.763 32.7613 13.2393 32.7613 13.7243V13.725C32.7613 14.2101 32.7224 14.6878 32.6462 15.1516L29.6526 15.6278C29.5647 15.8923 29.4562 16.1503 29.3316 16.3979L31.1131 18.851C30.5547 19.6269 29.8724 20.309 29.0942 20.8666L26.6399 19.0869C26.3937 19.21 26.1372 19.3192 25.8719 19.4078L25.3956 22.3994Z" fill="#DE7885"/>
<path d="M23.0248 21.935C23.6675 22.0112 24.2786 22.0112 24.9213 21.935L25.3339 19.3449C25.3662 19.1427 25.5076 18.9749 25.7025 18.9097C25.9275 18.8342 26.1562 18.739 26.3987 18.6174C26.5834 18.5273 26.8003 18.5448 26.9667 18.6643L29.0926 20.2059C29.5902 19.8124 30.0387 19.364 30.4337 18.8672L28.8911 16.7439C28.7695 16.5775 28.7526 16.357 28.8457 16.1731C28.9592 15.9474 29.0575 15.7137 29.1351 15.4778C29.2004 15.2829 29.3674 15.1407 29.5704 15.1085L32.1625 14.696C32.1984 14.3853 32.216 14.0681 32.216 13.7479C32.216 13.4299 32.1984 13.1119 32.1625 12.8012L29.5704 12.388C29.3674 12.3558 29.2004 12.2136 29.1351 12.0187C29.0538 11.7733 28.9571 11.541 28.8471 11.3278C28.7519 11.1439 28.7687 10.9211 28.8904 10.7541L30.4337 8.62853C30.0387 8.13103 29.5895 7.68263 29.0926 7.28917L26.9667 8.83149C26.7989 8.95312 26.579 8.9707 26.3951 8.87691C26.1693 8.76261 25.9378 8.66517 25.704 8.58823C25.5091 8.52449 25.3662 8.3567 25.3339 8.15374L24.9213 5.5622C24.2904 5.48746 23.6572 5.48746 23.0248 5.5622L22.6129 8.15374C22.5807 8.3567 22.437 8.52449 22.2421 8.58823C22.0098 8.66444 21.7767 8.76262 21.5496 8.87765C21.3642 8.96997 21.1443 8.95312 20.9779 8.83149L18.8549 7.28917C18.3581 7.68189 17.9088 8.13029 17.5131 8.62853L19.0535 10.7541C19.173 10.9182 19.192 11.1358 19.1019 11.319C18.9832 11.5608 18.885 11.7952 18.811 12.0187C18.7457 12.2136 18.5787 12.3558 18.3757 12.388L15.7822 12.8012C15.7462 13.1163 15.7272 13.4336 15.7272 13.7471C15.7272 14.0629 15.7462 14.3802 15.7822 14.696L18.3757 15.1085C18.5787 15.1407 18.7457 15.2829 18.811 15.4778C18.8864 15.7042 18.9846 15.9401 19.1026 16.176C19.1935 16.3592 19.1744 16.5783 19.0543 16.7439L17.5131 18.8672C17.9081 19.3647 18.3573 19.8139 18.8549 20.2066L20.9779 18.6643C21.1428 18.5441 21.3627 18.5273 21.5452 18.6174C21.7914 18.739 22.02 18.835 22.2443 18.9097C22.4385 18.9749 22.5807 19.1427 22.6129 19.3449L23.0248 21.935ZM25.3999 22.4223H25.4072H25.3999ZM23.973 23.0905C23.4791 23.0905 22.9691 23.0494 22.4576 22.9652C22.223 22.9271 22.0406 22.7432 22.0039 22.5087L21.5781 19.8358C21.5063 19.8073 21.4338 19.7765 21.362 19.745L19.1715 21.3342C18.981 21.4727 18.7216 21.4734 18.5288 21.3364C17.7015 20.7451 16.9789 20.0241 16.3823 19.194C16.2438 19.0006 16.2446 18.7419 16.3845 18.55L17.9755 16.3607C17.9433 16.2874 17.9132 16.2156 17.8846 16.1431L15.2084 15.7174C14.9753 15.6807 14.7914 15.4976 14.7525 15.2646C14.6704 14.7634 14.6279 14.2527 14.6279 13.7479C14.6279 13.2438 14.6704 12.7346 14.7525 12.2334C14.7914 12.0004 14.9753 11.8172 15.2084 11.7799L17.8846 11.3534C17.9125 11.2816 17.9426 11.2106 17.9748 11.1373L16.3838 8.94506C16.2446 8.75309 16.2438 8.49372 16.3831 8.30102C16.9803 7.47088 17.7029 6.75137 18.5288 6.15935C18.7208 6.02233 18.9802 6.02234 19.1715 6.16155L21.3612 7.7515C21.433 7.71999 21.5056 7.68995 21.5789 7.66064L22.0039 4.98923C22.0398 4.7555 22.2223 4.57159 22.4561 4.53276C23.4593 4.36571 24.4868 4.36571 25.49 4.53276C25.7238 4.57159 25.9063 4.7555 25.9429 4.98923L26.368 7.66064C26.4405 7.68995 26.5131 7.71999 26.5849 7.7515L28.776 6.16155C28.9673 6.02234 29.2267 6.02161 29.4195 6.16008C30.2461 6.75284 30.9672 7.47307 31.5638 8.30102C31.7023 8.49372 31.7015 8.75309 31.5623 8.94506L29.972 11.1351C30.0035 11.2076 30.0343 11.2802 30.0636 11.3542L32.737 11.7799C32.9701 11.8172 33.154 12.0004 33.1928 12.2334C33.2742 12.7258 33.3152 13.235 33.3152 13.7471C33.3152 14.2615 33.2742 14.7722 33.1928 15.2646C33.154 15.4976 32.9701 15.6807 32.737 15.7174L30.0629 16.1431C30.0336 16.2163 30.0035 16.2889 29.972 16.3614L31.5623 18.55C31.7015 18.7419 31.7023 19.0006 31.5645 19.194C30.9687 20.0212 30.2476 20.7422 29.4187 21.3364C29.2275 21.4734 28.9688 21.4727 28.776 21.3342L26.5841 19.745C26.5116 19.7772 26.4398 19.8073 26.3687 19.8358L25.9429 22.5087C25.9055 22.7432 25.7231 22.9271 25.4893 22.9652C24.977 23.0494 24.467 23.0905 23.973 23.0905Z" fill="#674EA0"/>
<path d="M23.8231 16.1071C25.1386 16.1071 26.2049 15.041 26.2049 13.7259C26.2049 12.4107 25.1386 11.3446 23.8231 11.3446C22.5077 11.3446 21.4414 12.4107 21.4414 13.7259C21.4414 15.041 22.5077 16.1071 23.8231 16.1071Z" fill="white"/>
<path d="M23.9724 11.8926C22.9618 11.8926 22.1403 12.7147 22.1403 13.7244C22.1403 14.7347 22.9618 15.5561 23.9724 15.5561C24.9829 15.5561 25.8045 14.7347 25.8045 13.7244C25.8045 12.7147 24.9829 11.8926 23.9724 11.8926ZM23.9724 16.6551C22.3557 16.6551 21.041 15.3407 21.041 13.7244C21.041 12.1088 22.3557 10.7936 23.9724 10.7936C25.589 10.7936 26.9037 12.1088 26.9037 13.7244C26.9037 15.3407 25.589 16.6551 23.9724 16.6551Z" fill="#674EA0"/>
</svg>
