<svg width="120" height="120" viewBox="0 0 120 120" fill="none" xmlns="http://www.w3.org/2000/svg">
<g clip-path="url(#clip0_165_9646)">
<path d="M17.6176 18.5454C17.4638 18.5454 17.3099 18.4858 17.1956 18.3674C16.967 18.1342 16.9714 17.7608 17.2044 17.5335C17.778 16.9761 18.3692 16.4232 18.9627 15.89C19.9824 14.9755 21.0484 14.0869 22.1319 13.2485C22.389 13.0493 22.7583 13.0959 22.9583 13.3533C23.1583 13.6109 23.1099 13.9812 22.8528 14.1805C21.7934 15.0021 20.7495 15.8726 19.7517 16.768C19.167 17.2904 18.589 17.832 18.0286 18.3779C17.9143 18.4898 17.7648 18.5454 17.6176 18.5454V18.5454ZM9.46815 28.546C9.36045 28.546 9.25056 28.5159 9.15166 28.4529C8.87694 28.2775 8.79782 27.9129 8.97364 27.6386C10.1407 25.8113 11.4286 24.0322 12.8 22.3496C13.0066 22.0972 13.378 22.0594 13.6286 22.2649C13.8813 22.4707 13.9209 22.8421 13.7143 23.0946C12.3714 24.7421 11.1099 26.4847 9.96705 28.2737C9.85496 28.4498 9.66375 28.546 9.46815 28.546V28.546ZM3.811 40.1401C3.74727 40.1401 3.68133 40.1293 3.6154 40.1063C3.30771 39.9981 3.14727 39.6614 3.25496 39.354C3.97804 37.3071 4.82639 35.2808 5.77804 33.3318C5.92089 33.0388 6.27474 32.9175 6.56705 33.0603C6.85935 33.2032 6.98023 33.5561 6.83738 33.8489C5.90551 35.7575 5.07474 37.7416 4.36705 39.7465C4.28353 39.9887 4.05496 40.1401 3.811 40.1401V40.1401ZM0.938475 52.719C0.916497 52.719 0.894519 52.7177 0.872541 52.7153C0.549464 52.6795 0.314299 52.3878 0.351662 52.0641C0.591222 49.9049 0.958255 47.739 1.43957 45.6258C1.5121 45.3085 1.82859 45.1104 2.14507 45.1825C2.46375 45.2551 2.66155 45.5709 2.58902 45.8887C2.1165 47.9581 1.75826 50.0797 1.52309 52.1944C1.49012 52.4959 1.23518 52.719 0.938475 52.719ZM0.980233 65.6221C0.685728 65.6221 0.430783 65.4016 0.39342 65.1019C0.138475 62.9498 0.00660704 60.757 1.36372e-05 58.5843C-0.00218416 58.2588 0.261552 57.994 0.586827 57.9929H0.589025C0.914299 57.9929 1.17804 58.2555 1.17804 58.5808C1.18463 60.7082 1.3165 62.8555 1.56485 64.9627C1.60441 65.2863 1.37364 65.5795 1.05056 65.6177C1.02639 65.6206 1.00221 65.6221 0.980233 65.6221V65.6221Z" fill="#66509E"/>
<path d="M39.7219 112.729C39.6625 112.729 39.601 112.72 39.5417 112.701C37.4757 112.036 35.4252 111.244 33.4515 110.345C33.1548 110.211 33.023 109.861 33.1592 109.564C33.2933 109.268 33.6428 109.137 33.9395 109.272C35.8735 110.151 37.8801 110.927 39.9021 111.578C40.212 111.678 40.3834 112.01 40.2823 112.32C40.2032 112.57 39.9702 112.729 39.7219 112.729V112.729ZM52.3768 115.249C52.3592 115.249 52.3439 115.248 52.3263 115.247C51.9395 115.215 51.5461 115.178 51.1614 115.138C49.3856 114.954 47.6032 114.686 45.8625 114.34C45.5417 114.276 45.3351 113.966 45.3988 113.646C45.4625 113.327 45.7724 113.12 46.0911 113.183C47.7966 113.522 49.5439 113.785 51.2823 113.965C51.6603 114.004 52.045 114.04 52.4252 114.072C52.7483 114.099 52.99 114.383 52.9636 114.708C52.9373 115.016 52.6801 115.249 52.3768 115.249ZM58.834 115.418C58.5175 115.418 58.2559 115.166 58.245 114.847C58.2362 114.521 58.4911 114.249 58.8164 114.239C60.9417 114.173 63.0845 113.983 65.1856 113.675C65.5087 113.628 65.8076 113.85 65.8559 114.173C65.9021 114.495 65.6801 114.794 65.357 114.842C63.212 115.157 61.023 115.35 58.8537 115.418C58.8472 115.418 58.8406 115.418 58.834 115.418V115.418Z" fill="#66509E"/>
<path d="M97.993 20.0783C97.837 20.0783 97.6809 20.0164 97.5644 19.8944C96.1007 18.3524 94.5337 16.8786 92.9073 15.5144C92.6567 15.3051 92.6238 14.9331 92.8326 14.6836C93.0414 14.4342 93.415 14.401 93.6633 14.6106C95.3249 16.0034 96.9249 17.508 98.4194 19.0825C98.6436 19.3186 98.6348 19.692 98.3996 19.9161C98.2853 20.0243 98.1381 20.0783 97.993 20.0783ZM105.758 30.3812C105.558 30.3812 105.36 30.2775 105.25 30.0909C104.173 28.2608 102.978 26.472 101.696 24.7746C101.501 24.5144 101.553 24.1445 101.813 23.9487C102.074 23.7524 102.444 23.8047 102.639 24.0645C103.947 25.7979 105.167 27.624 106.266 29.4924C106.433 29.7731 106.338 30.1344 106.057 30.2997C105.964 30.355 105.861 30.3812 105.758 30.3812V30.3812ZM110.995 42.1704C110.744 42.1704 110.512 42.0089 110.433 41.7568C109.8 39.7315 109.039 37.7192 108.175 35.7757C108.044 35.4781 108.178 35.1295 108.474 34.9972C108.773 34.8647 109.12 34.9992 109.255 35.2968C110.136 37.2814 110.912 39.3364 111.558 41.4045C111.657 41.7153 111.483 42.046 111.171 42.1432C111.114 42.1616 111.055 42.1704 110.995 42.1704V42.1704ZM113.406 54.8408C113.101 54.8408 112.841 54.6043 112.819 54.2939C112.666 52.1748 112.386 50.0425 111.989 47.9566C111.927 47.6366 112.138 47.328 112.457 47.2671C112.78 47.206 113.085 47.4161 113.147 47.7359C113.553 49.8667 113.837 52.044 113.995 54.2084C114.019 54.5333 113.775 54.8157 113.45 54.8394C113.435 54.8405 113.422 54.8408 113.406 54.8408V54.8408Z" fill="#66509E"/>
<path d="M15.7512 54.1133C18.1117 31.3109 38.5095 14.7388 61.3117 17.0988C84.1139 19.4586 100.687 39.8568 98.327 62.6593C95.9666 85.4617 75.5688 102.034 52.7666 99.674C29.9644 97.314 13.3908 76.916 15.7512 54.1133V54.1133Z" fill="#EDEAF3"/>
<path d="M54.2659 102.08V71.7456C54.2659 70.663 53.3252 69.7852 52.1648 69.7852H51.0813L6.6725 69.8856H5.20657C4.04613 69.8856 3.10547 70.7634 3.10547 71.846V102.181L54.2659 102.08V102.08Z" fill="#807DBB"/>
<path d="M3.10854 102.774C2.78327 102.774 2.51953 102.51 2.51953 102.185V71.8498C2.51953 70.4436 3.72612 69.2994 5.20964 69.2994H6.67558L51.0822 69.1992H52.1679C53.6514 69.1992 54.858 70.3432 54.858 71.7493V102.084C54.858 102.41 54.5943 102.674 54.269 102.674C53.9437 102.674 53.6778 102.41 53.6778 102.084V71.7493C53.6778 70.9935 53.0008 70.3786 52.1679 70.3786H51.0844L6.67777 70.4788H5.20964C4.37667 70.4788 3.69975 71.0939 3.69975 71.8498V102.185C3.69975 102.51 3.43601 102.774 3.10854 102.774V102.774Z" fill="#66509E"/>
<path d="M13.983 62.4048H8.38518C7.44452 62.4048 6.67969 63.1173 6.67969 63.9962V94.7947C6.67969 95.6736 7.44452 96.3861 8.38518 96.3861H49.383C50.3236 96.3861 51.0885 95.6736 51.0885 94.7947V63.9962C51.0885 63.1173 50.3236 62.4048 49.383 62.4048L44.9786 62.4023L34.4973 62.4048H32.5632H13.983V62.4048Z" fill="white"/>
<path d="M8.38826 62.996C7.77287 62.996 7.27397 63.4454 7.27397 63.9977V94.796C7.27397 95.3485 7.77287 95.798 8.38826 95.798H49.3861C50.0014 95.798 50.5003 95.3485 50.5003 94.796V63.9977C50.5003 63.4454 50.0014 62.996 49.3861 62.996L44.9817 62.9933L32.5663 62.996H8.38826V62.996ZM49.3861 96.9773H8.38826C7.12232 96.9773 6.09375 95.9986 6.09375 94.796V63.9977C6.09375 62.7951 7.12232 61.8164 8.38826 61.8164H49.3861C50.6498 61.8164 51.6806 62.7951 51.6806 63.9977V94.796C51.6806 95.9986 50.6498 96.9773 49.3861 96.9773Z" fill="#66509E"/>
<path d="M54.6028 99.2578H37.1171C37.1237 99.313 37.1346 99.3659 37.1346 99.4222C37.1346 100.495 36.1962 101.372 35.0467 101.372H22.7171C21.5676 101.372 20.6269 100.495 20.6269 99.4222C20.6269 99.3659 20.6401 99.313 20.6467 99.2578H3.16101C1.7764 99.2578 0.644531 100.315 0.644531 101.607C0.644531 102.898 1.7764 103.955 3.16101 103.955H54.6028C55.9874 103.955 57.1193 102.898 57.1193 101.607C57.1193 100.315 55.9874 99.2578 54.6028 99.2578Z" fill="#807DBB"/>
<path d="M3.16409 99.7924C2.10255 99.7924 1.23662 100.582 1.23662 101.552C1.23662 102.522 2.10255 103.311 3.16409 103.311H54.6058C55.6674 103.311 56.5311 102.522 56.5311 101.552C56.5311 100.582 55.6674 99.7924 54.6058 99.7924H37.6916C37.4762 100.991 36.3751 101.906 35.0498 101.906H22.7201C21.3949 101.906 20.2938 100.991 20.0784 99.7924H3.16409V99.7924ZM54.6058 104.49H3.16409C1.452 104.49 0.0585938 103.172 0.0585938 101.552C0.0585938 99.9313 1.452 98.6133 3.16409 98.6133H20.6498C20.8146 98.6133 20.9729 98.683 21.085 98.8056C21.1971 98.9282 21.252 99.0922 21.2366 99.2572C21.2322 99.2887 21.2278 99.3197 21.2234 99.3504C21.2234 99.359 21.2212 99.3673 21.2212 99.3757C21.2256 100.122 21.896 100.727 22.7201 100.727H35.0498C35.874 100.727 36.5443 100.122 36.5487 99.3757C36.5487 99.3673 36.5465 99.359 36.5465 99.3504C36.5399 99.3197 36.5377 99.2887 36.5333 99.2572C36.5179 99.0922 36.5729 98.9282 36.685 98.8056C36.7971 98.683 36.9553 98.6133 37.1201 98.6133H54.6058C56.3179 98.6133 57.7113 99.9313 57.7113 101.552C57.7113 103.172 56.3179 104.49 54.6058 104.49V104.49Z" fill="#66509E"/>
<path d="M47.6999 62.6936C47.0251 65.8532 43.8845 67.8617 40.6823 67.1797C37.4823 66.498 35.4317 63.3839 36.1043 60.2244C36.7768 57.065 39.9175 55.0565 43.1197 55.7384C46.3219 56.4202 48.3724 59.534 47.6999 62.6936V62.6936Z" fill="#EE445B"/>
<path d="M37.7631 66.0524C37.6202 66.0524 37.4751 65.9996 37.3631 65.8937C35.6817 64.3258 34.9499 62.1082 35.407 59.962C35.7653 58.2825 36.8004 56.8546 38.3191 55.9411C39.8268 55.0354 41.6334 54.7444 43.4048 55.1222C45.1784 55.4998 46.7081 56.5014 47.7169 57.942C48.7323 59.3959 49.0949 61.1211 48.7367 62.8005C48.5806 63.5352 48.2927 64.2266 47.8817 64.855C47.7037 65.1277 47.3389 65.2038 47.0663 65.026C46.7938 64.8475 46.7169 64.482 46.8949 64.2095C47.2246 63.7033 47.4576 63.1469 47.5828 62.555C47.8729 61.1987 47.5762 59.8003 46.7499 58.6176C45.9147 57.4225 44.64 56.5908 43.1587 56.2757C41.6817 55.9605 40.1762 56.2007 38.9279 56.9519C37.6905 57.6952 36.851 58.8515 36.5609 60.2077C36.1916 61.9451 36.7916 63.7484 38.1674 65.0315C38.4048 65.2537 38.418 65.6266 38.196 65.8649C38.0795 65.9895 37.9213 66.0524 37.7631 66.0524V66.0524Z" fill="#66509E"/>
<path d="M10.3711 91.8251V83.73C10.3711 78.5243 14.7777 74.2717 20.3008 74.0625H26.3161C30.0524 74.204 33.9161 76.3926 36.059 79.0946C36.3315 79.4388 36.5447 79.8251 36.703 80.2355L39.1623 86.6933V76.5561L44.8107 76.8339V85.497C44.8107 88.9278 41.8678 91.7087 38.237 91.7087C34.7205 91.7087 31.8502 89.099 31.6744 85.817L31.6854 91.9174L10.3711 91.8251V91.8251Z" fill="white"/>
<path d="M31.6885 92.5108C31.3632 92.5108 31.0994 92.2475 31.0994 91.9223L31.0863 85.8221C31.0863 85.5023 31.3412 85.2403 31.6599 85.2315C31.983 85.2179 32.2489 85.47 32.2643 85.7893C32.4269 88.7799 35.0511 91.1227 38.2401 91.1227C41.539 91.1227 44.2247 88.6007 44.2247 85.5007V77.3992L39.7544 77.1794V86.697C39.7544 86.9814 39.5522 87.2254 39.2731 87.2768C38.994 87.328 38.7148 87.1728 38.6137 86.9069L36.1544 80.4491C36.0159 80.0843 35.8291 79.753 35.6005 79.4647C33.4225 76.7194 29.6907 74.788 26.3082 74.6559H20.3148C15.0709 74.8599 10.9632 78.8454 10.9632 83.7337V91.8289C10.9632 92.1548 10.6994 92.4188 10.3742 92.4188C10.0489 92.4188 9.78516 92.1548 9.78516 91.8289V83.7337C9.78516 81.0594 10.8753 78.5273 12.8577 76.6032C14.8247 74.6941 17.4599 73.5838 20.2819 73.477C20.2885 73.4766 20.2972 73.4766 20.3038 73.4766H26.3192C26.328 73.4766 26.3346 73.4766 26.3412 73.477C30.0511 73.6177 34.1434 75.7293 36.5236 78.732C36.8269 79.1148 37.0731 79.5513 37.2555 80.0293L38.5764 83.4933V76.5599C38.5764 76.3985 38.6423 76.2443 38.7588 76.1328C38.8753 76.0216 39.0335 75.9634 39.1939 75.9711L44.8423 76.2487C45.1566 76.2643 45.4027 76.5232 45.4027 76.8377V85.5007C45.4027 89.2511 42.1896 92.3021 38.2401 92.3021C35.7566 92.3021 33.5588 91.1023 32.2731 89.2678L32.2775 91.9199C32.2797 92.2456 32.0159 92.5102 31.6907 92.5108H31.6885V92.5108Z" fill="#66509E"/>
<path d="M14.9445 92.5051C14.6192 92.5051 14.3555 92.2409 14.3555 91.9154V82.035C14.3555 81.7095 14.6192 81.4453 14.9445 81.4453C15.2698 81.4453 15.5357 81.7095 15.5357 82.035V91.9154C15.5357 92.2409 15.2698 92.5051 14.9445 92.5051Z" fill="#66509E"/>
<path d="M26.2243 70.4883V73.7656C26.2243 75.2841 24.9057 76.5151 23.2771 76.5151C21.6507 76.5151 20.332 75.2841 20.332 73.7656V70.5037L26.2243 70.4883Z" fill="white"/>
<path d="M23.2802 77.1085C21.3307 77.1085 19.7461 75.6107 19.7461 73.7694V70.5074C19.7461 70.1817 20.0098 69.9177 20.3351 69.9177C20.6604 69.9177 20.9241 70.1817 20.9241 70.5074V73.7694C20.9241 74.9604 21.9813 75.9294 23.2802 75.9294C24.5813 75.9294 25.6384 74.9604 25.6384 73.7694V70.492C25.6384 70.1663 25.9021 69.9023 26.2274 69.9023C26.5527 69.9023 26.8164 70.1663 26.8164 70.492V73.7694C26.8164 75.6107 25.2296 77.1085 23.2802 77.1085V77.1085Z" fill="#66509E"/>
<path d="M22.8602 54.2908H26.458C28.2448 54.2908 29.6953 52.9381 29.6953 51.2695H20.0052C17.014 51.2695 14.5898 53.5328 14.5898 56.3247V60.9684L22.8602 54.2908V54.2908Z" fill="#EE445B"/>
<path d="M14.5951 61.5618C14.2676 61.5618 14.0039 61.2979 14.0039 60.9719V56.3284C14.0039 53.2159 16.6984 50.6836 20.0105 50.6836H29.7006C30.0259 50.6836 30.2896 50.9476 30.2896 51.2733C30.2896 53.2645 28.5731 54.8843 26.4632 54.8843H22.8654C22.5402 54.8843 22.2764 54.6203 22.2764 54.2946C22.2764 53.9689 22.5402 53.7049 22.8654 53.7049H26.4632C27.7006 53.7049 28.7446 52.9199 29.0325 51.8629H20.0105C17.349 51.8629 15.1841 53.8662 15.1841 56.3284V60.9719C15.1841 61.2979 14.9204 61.5618 14.5951 61.5618V61.5618Z" fill="#66509E"/>
<path d="M31.8805 60.9448V56.336C31.8805 54.493 30.8212 53.2207 29.3618 52.793L24.375 54.3136L30.1288 62.856L31.8805 60.9448Z" fill="#EE445B"/>
<path d="M25.3125 54.649L30.2026 61.9095L31.2927 60.7193V56.3398C31.2927 54.9215 30.5741 53.8404 29.3609 53.4145L25.3125 54.649V54.649ZM30.1323 63.4495C30.1169 63.4495 30.1037 63.4488 30.0883 63.4477C29.9081 63.4341 29.7433 63.3389 29.6422 63.189L23.8905 54.6466C23.785 54.4917 23.7609 54.2963 23.8224 54.12C23.8861 53.944 24.029 53.8077 24.207 53.7532L29.1938 52.2328C29.3037 52.1991 29.4202 52.1985 29.5301 52.2308C31.3455 52.7626 32.473 54.3371 32.473 56.3398V60.9488C32.473 61.0963 32.418 61.2382 32.3169 61.347L30.5675 63.258C30.4554 63.3804 30.2971 63.4495 30.1323 63.4495Z" fill="#66509E"/>
<path d="M29.8003 60.0839V59.4045C29.8003 56.5944 27.3585 54.3164 24.3475 54.3164H22.0992C19.0882 54.3164 16.6486 56.5944 16.6486 59.4045V60.0856C15.1519 60.1052 13.9453 61.2412 13.9453 62.6417C13.9453 64.0421 15.1519 65.1782 16.6486 65.1977V65.4061C16.6486 68.4771 19.3145 70.967 22.6047 70.967H23.842C27.1321 70.967 29.8003 68.4771 29.8003 65.4061V65.1993C31.3123 65.1993 32.5387 64.0542 32.5387 62.6417C32.5387 61.2289 31.3123 60.0839 29.8003 60.0839V60.0839Z" fill="white"/>
<path d="M22.1022 54.9098C19.4209 54.9098 17.2407 56.9281 17.2407 59.4085V60.0896C17.2407 60.4124 16.9814 60.6751 16.6583 60.6793C15.489 60.6946 14.5396 61.5764 14.5396 62.6456C14.5396 63.7144 15.489 64.5968 16.6583 64.612C16.9814 64.6162 17.2407 64.8788 17.2407 65.2017V65.41C17.2407 68.1511 19.6495 70.3812 22.6077 70.3812H23.8451C26.8055 70.3812 29.2121 68.1511 29.2121 65.41V65.2032C29.2121 64.8777 29.4759 64.6138 29.8033 64.6138C30.9879 64.6138 31.9528 63.7307 31.9528 62.6456C31.9528 61.5604 30.9879 60.6775 29.8033 60.6775C29.4759 60.6775 29.2121 60.4133 29.2121 60.0878V59.4085C29.2121 56.9281 27.0319 54.9098 24.3506 54.9098H22.1022V54.9098ZM23.8451 71.5606H22.6077C19.1154 71.5606 16.2517 68.9766 16.0715 65.7364C14.533 65.4595 13.3594 64.1718 13.3594 62.6456C13.3594 61.1223 14.5264 59.8366 16.0605 59.5564V59.4085C16.0605 56.2777 18.7704 53.7305 22.1022 53.7305H24.3506C27.6825 53.7305 30.3923 56.2777 30.3923 59.4085V59.5476C31.9484 59.8113 33.133 61.1001 33.133 62.6456C33.133 64.1942 31.944 65.4852 30.3836 65.7452C30.1967 68.9815 27.3352 71.5606 23.8451 71.5606V71.5606Z" fill="#66509E"/>
<path d="M25.5238 66.4453C24.2689 67.6176 22.2315 67.6176 20.9766 66.4453H25.5238Z" fill="white"/>
<path d="M23.253 67.9131C22.2838 67.9131 21.3168 67.5689 20.5783 66.8801C20.3387 66.6577 20.3278 66.2848 20.5497 66.0465C20.7717 65.8087 21.1453 65.7957 21.3827 66.0179C22.4135 66.9812 24.0926 66.9812 25.1256 66.0179C25.3629 65.7957 25.7365 65.8087 25.9585 66.0465C26.1805 66.2848 26.1673 66.6577 25.93 66.8801C25.1915 67.5689 24.2223 67.9131 23.253 67.9131V67.9131Z" fill="#66509E"/>
<path d="M31.7023 92.4128C31.377 92.4128 31.1133 92.1488 31.1133 91.8231V82.035C31.1133 81.7095 31.377 81.4453 31.7023 81.4453C32.0276 81.4453 32.2913 81.7095 32.2913 82.035V91.8231C32.2913 92.1488 32.0276 92.4128 31.7023 92.4128Z" fill="#66509E"/>
<path d="M23.2648 92.4278C22.9395 92.4278 22.6758 92.1639 22.6758 91.8382V76.5274C22.6758 76.2017 22.9395 75.9375 23.2648 75.9375C23.5923 75.9375 23.856 76.2017 23.856 76.5274V91.8382C23.856 92.1639 23.5923 92.4278 23.2648 92.4278Z" fill="#66509E"/>
<path d="M39.1992 68.6076L40.4036 62.9901C40.5421 62.3391 41.2212 61.9322 41.9179 62.0817C42.6146 62.2309 43.0673 62.8797 42.9289 63.5307L41.9728 67.9744L39.1992 68.6076V68.6076Z" fill="white"/>
<path d="M39.2023 69.2012C39.1628 69.2012 39.121 69.1968 39.0792 69.1878C38.7606 69.1197 38.5584 68.8063 38.6265 68.4878L39.8287 62.8702C40.0375 61.9023 41.0309 61.2915 42.0441 61.5087C42.5276 61.6124 42.9474 61.8878 43.2243 62.2843C43.51 62.6937 43.6111 63.1812 43.5078 63.6577L42.554 68.1019C42.4836 68.4203 42.1715 68.6234 41.8529 68.5546C41.5342 68.4861 41.332 68.1724 41.4001 67.8542L42.354 63.4102C42.3869 63.2575 42.354 63.0973 42.2573 62.959C42.1518 62.8082 41.9891 62.7028 41.7979 62.6619C41.4177 62.581 41.0529 62.7854 40.9825 63.117L39.7803 68.7348C39.721 69.0118 39.4748 69.2012 39.2023 69.2012V69.2012Z" fill="#66509E"/>
<path d="M49.098 71.6655L48.5991 74.0081C47.9442 77.0802 44.7464 79.0022 41.4563 78.3013C38.164 77.6005 36.0255 74.542 36.6805 71.4701L36.964 70.1367L49.098 71.6655Z" fill="white"/>
<path d="M42.8142 79.0384C42.3285 79.0384 41.8339 78.9878 41.3372 78.8819C39.5988 78.5118 38.0977 77.5296 37.1087 76.1166C36.1131 74.6909 35.757 72.9986 36.1087 71.3513L36.3922 70.0177C36.4603 69.6992 36.7724 69.4959 37.0911 69.5639C37.4098 69.6316 37.6142 69.9447 37.546 70.2632L37.2603 71.5968C36.979 72.9208 37.2691 74.2861 38.0757 75.441C38.8911 76.6083 40.1372 77.4208 41.5812 77.7285C44.5504 78.3608 47.4405 76.6379 48.0252 73.8891L48.5241 71.5465C48.5922 71.228 48.9065 71.0245 49.2252 71.0927C49.5438 71.1603 49.746 71.4735 49.6779 71.792L49.179 74.1348C48.5592 77.0531 45.8559 79.0384 42.8142 79.0384V79.0384Z" fill="#66509E"/>
<path d="M41.4541 70.4754L41.3816 70.8185C41.2783 71.4697 41.7399 72.1031 42.4388 72.2526C42.8234 72.335 43.2036 72.2528 43.4937 72.0552C43.775 71.8647 44.1596 71.9097 44.4212 72.1365C44.5904 72.2834 44.8036 72.3921 45.0432 72.4434C45.4146 72.5229 45.7794 72.4504 46.0673 72.2695C46.3399 72.0987 46.6937 72.1093 46.9465 72.3185C47.1596 72.4972 47.4388 72.6159 47.7552 72.6379C48.3882 72.6812 49.008 72.1941 49.1333 71.6148L49.7596 68.6858C49.8937 68.0618 49.4827 67.342 48.8278 67.1499C48.5025 67.0546 48.175 67.079 47.8959 67.1935C47.5926 67.3181 47.2432 67.248 47.0168 67.0097C46.8322 66.8139 46.5838 66.6682 46.2937 66.606C45.986 66.5401 45.6827 66.5792 45.4234 66.6976C45.1091 66.8425 44.7443 66.7638 44.5157 66.5031C44.3289 66.291 44.0695 66.1326 43.764 66.0671C43.041 65.9126 42.3399 66.3337 42.1948 67.0075L41.9794 68.0174L41.4541 70.4754V70.4754Z" fill="white"/>
<path d="M47.8379 73.2335C47.7984 73.2335 47.7588 73.232 47.7192 73.2295C47.2907 73.2001 46.8929 73.043 46.572 72.775C46.5148 72.7278 46.4379 72.7394 46.3852 72.7722C45.9544 73.0436 45.4335 73.1328 44.9236 73.0234C44.5962 72.9533 44.2885 72.8021 44.0401 72.586C43.9742 72.5298 43.8797 72.5117 43.8291 72.5467C43.394 72.8408 42.8445 72.9449 42.3192 72.8324C41.317 72.6181 40.6511 71.6953 40.8027 70.7309C40.8027 70.7203 40.8049 70.7095 40.8071 70.699L40.8819 70.3559C40.9478 70.0375 41.2621 69.8339 41.5808 69.9021C41.8995 69.97 42.1016 70.283 42.0335 70.6016L41.9654 70.9258C41.9192 71.2678 42.1808 71.597 42.5654 71.6792C42.7786 71.7249 42.9984 71.6852 43.1676 71.5706C43.6621 71.2346 44.339 71.2854 44.8115 71.6937C44.9104 71.7803 45.0357 71.8412 45.1698 71.87C45.3786 71.9148 45.5874 71.8808 45.7588 71.7735C46.2533 71.4625 46.8841 71.5003 47.3258 71.8685C47.4555 71.9766 47.6203 72.0403 47.8005 72.0528C48.1522 72.0777 48.4995 71.7728 48.5588 71.4946L49.1874 68.5658C49.2533 68.2577 49.0445 67.83 48.6665 67.7192C48.4313 67.6504 48.2423 67.6939 48.1236 67.7425C47.5962 67.9592 46.9808 67.8287 46.5918 67.4179C46.4819 67.3014 46.3368 67.221 46.1742 67.186C46.0005 67.1489 45.8269 67.1665 45.6731 67.2368C45.1192 67.4911 44.4775 67.3537 44.0753 66.8957C43.9654 66.7698 43.8159 66.6838 43.6445 66.6471C43.2401 66.561 42.8511 66.7794 42.7764 67.1342L42.561 68.1436C42.4929 68.4621 42.1786 68.6656 41.8599 68.5975C41.5412 68.5298 41.339 68.2166 41.4071 67.8981L41.6225 66.888C41.8335 65.8968 42.8533 65.2722 43.8907 65.4939C44.3126 65.5843 44.6819 65.7997 44.961 66.1172C45.0181 66.1827 45.1038 66.2012 45.183 66.1652C45.5676 65.9878 45.9962 65.9421 46.4203 66.0328C46.8181 66.1179 47.1742 66.317 47.4511 66.6082C47.506 66.6667 47.5962 66.6843 47.6753 66.6513C48.0885 66.4816 48.5588 66.459 48.9962 66.5873C49.9258 66.8592 50.5412 67.8783 50.3412 68.8128L49.7126 71.7416C49.5324 72.586 48.706 73.2333 47.8379 73.2335V73.2335Z" fill="#66509E"/>
<path d="M36.9727 70.1489C37.1133 69.4944 37.6408 68.9837 38.3331 68.8344L41.7661 68.0558C42.3331 67.9274 42.9177 68.2454 43.0913 68.7758L43.1617 68.9848C43.3441 69.5437 43.0012 70.121 42.4034 70.2569L39.4144 70.9371L36.9727 70.1489V70.1489Z" fill="white"/>
<path d="M39.4175 71.5303C39.1494 71.5303 38.9054 71.3448 38.8439 71.0711C38.7714 70.7536 38.9692 70.4377 39.2878 70.3652L42.2768 69.6854C42.4087 69.6551 42.5164 69.5799 42.5757 69.4742C42.6131 69.4092 42.6461 69.3039 42.6043 69.172L42.534 68.9632C42.4549 68.7202 42.1692 68.5731 41.8988 68.6344L38.4681 69.4129C37.9933 69.5153 37.6439 69.8452 37.5538 70.2751C37.4856 70.5938 37.1735 70.7971 36.8527 70.7292C36.534 70.6613 36.3318 70.3479 36.3999 70.0294C36.5867 69.1525 37.2988 68.4586 38.2131 68.2615L41.6395 67.4843C42.501 67.2892 43.3867 67.7769 43.6549 68.5955L43.7252 68.8043C43.8637 69.2268 43.8197 69.6707 43.6021 70.0549C43.3801 70.4476 42.9911 70.7318 42.5384 70.8353L39.5494 71.5155C39.5054 71.5254 39.4615 71.5303 39.4175 71.5303V71.5303Z" fill="#66509E"/>
<path d="M103.47 103.41V110.032C103.47 110.917 102.701 111.634 101.753 111.634H77.0675H67.1071C66.1599 111.634 65.3906 110.917 65.3906 110.032V60.4894C65.3906 59.6041 66.1599 58.8867 67.1071 58.8867H101.753C102.701 58.8867 103.47 59.6041 103.47 60.4894V103.41Z" fill="white"/>
<path d="M67.1102 59.4801C66.4882 59.4801 65.9827 59.9346 65.9827 60.4931V110.036C65.9827 110.594 66.4882 111.048 67.1102 111.048H101.756C102.378 111.048 102.884 110.594 102.884 110.036V60.4931C102.884 59.9346 102.378 59.4801 101.756 59.4801H67.1102ZM101.756 112.228H67.1102C65.8399 112.228 64.8047 111.244 64.8047 110.036V60.4931C64.8047 59.2843 65.8399 58.3008 67.1102 58.3008H101.756C103.027 58.3008 104.062 59.2843 104.062 60.4931V110.036C104.062 111.244 103.027 112.228 101.756 112.228Z" fill="#66509E"/>
<path d="M92.3117 74.1211C92.3117 75.0431 91.5095 75.7908 90.5227 75.7908H73.76C72.0809 75.7908 70.7227 77.0602 70.7227 78.6261C70.7227 80.1921 72.0809 81.4615 73.76 81.4615H92.3117C93.9886 81.4615 95.349 82.731 95.349 84.2969V87.2659L92.3117 74.1211V74.1211Z" fill="white"/>
<path d="M95.3543 87.8591C95.029 87.8591 94.7653 87.5952 94.7653 87.2697V84.3006C94.7653 83.0622 93.6664 82.0549 92.3169 82.0549H73.7653C71.7653 82.0549 70.1367 80.5184 70.1367 78.6299C70.1367 76.7413 71.7653 75.2048 73.7653 75.2048H90.5279C91.1895 75.2048 91.7279 74.7202 91.7279 74.1248C91.7279 73.7991 91.9917 73.5352 92.3169 73.5352C92.6422 73.5352 92.9059 73.7991 92.9059 74.1248C92.9059 75.3705 91.84 76.3839 90.5279 76.3839H73.7653C72.4158 76.3839 71.3169 77.3914 71.3169 78.6299C71.3169 79.8681 72.4158 80.8756 73.7653 80.8756H92.3169C94.3169 80.8756 95.9433 82.4121 95.9433 84.3006V87.2697C95.9433 87.5952 95.6796 87.8591 95.3543 87.8591V87.8591Z" fill="#66509E"/>
<path d="M75.5699 87.2461H72.1194C70.4403 87.2461 69.082 88.5155 69.082 90.0815V92.5206C69.082 94.0865 70.4403 95.356 72.1194 95.356H72.326L75.5699 87.2461V87.2461Z" fill="white"/>
<path d="M72.3313 95.9494H72.1247C70.1247 95.9494 68.4961 94.4129 68.4961 92.5243V90.0852C68.4961 88.1964 70.1247 86.6602 72.1247 86.6602H75.5752C75.9005 86.6602 76.1642 86.9241 76.1642 87.2498C76.1642 87.5753 75.9005 87.8393 75.5752 87.8393H72.1247C70.7752 87.8393 69.6763 88.8468 69.6763 90.0852V92.5243C69.6763 93.7628 70.7752 94.77 72.1247 94.77H72.3313C72.6565 94.77 72.9203 95.0342 72.9203 95.3597C72.9203 95.6854 72.6565 95.9494 72.3313 95.9494Z" fill="#66509E"/>
<path d="M98.6412 101.719V102.7C98.6412 104.266 97.2808 105.535 95.6038 105.535H95.3225C93.6456 105.535 92.2852 106.804 92.2852 108.37V111.621L98.6412 101.719V101.719Z" fill="white"/>
<path d="M92.2882 112.215C91.963 112.215 91.6992 111.951 91.6992 111.625V108.374C91.6992 106.486 93.3256 104.949 95.3256 104.949H95.6069C96.9564 104.949 98.0553 103.942 98.0553 102.704V101.722C98.0553 101.397 98.319 101.133 98.6443 101.133C98.9695 101.133 99.2333 101.397 99.2333 101.722V102.704C99.2333 104.592 97.6069 106.129 95.6069 106.129H95.3256C93.9761 106.129 92.8772 107.136 92.8772 108.374V111.625C92.8772 111.951 92.6135 112.215 92.2882 112.215Z" fill="#66509E"/>
<path d="M84.1992 68.1186V65.4571C84.1992 64.4173 85.1025 63.5742 86.2168 63.5742C87.3311 63.5742 88.2344 64.4173 88.2344 65.4571V68.1186H84.1992Z" fill="white"/>
<path d="M88.2374 68.7118C87.9122 68.7118 87.6484 68.4478 87.6484 68.1223V65.4608C87.6484 64.7476 87.0067 64.1676 86.2199 64.1676C85.4331 64.1676 84.7913 64.7476 84.7913 65.4608V68.1223C84.7913 68.4478 84.5276 68.7118 84.2023 68.7118C83.877 68.7118 83.6133 68.4478 83.6133 68.1223V65.4608C83.6133 64.0973 84.7825 62.9883 86.2199 62.9883C87.6572 62.9883 88.8265 64.0973 88.8265 65.4608V68.1223C88.8265 68.4478 88.5627 68.7118 88.2374 68.7118Z" fill="#66509E"/>
<path d="M88.2453 72.5041C87.92 72.5041 87.6562 72.2401 87.6562 71.9146V68.1483C87.6562 67.8226 87.92 67.5586 88.2453 67.5586C88.5705 67.5586 88.8343 67.8226 88.8343 68.1483V71.9146C88.8343 72.2401 88.5705 72.5041 88.2453 72.5041Z" fill="#66509E"/>
<path d="M84.2023 72.5041C83.877 72.5041 83.6133 72.2401 83.6133 71.9146V68.1483C83.6133 67.8226 83.877 67.5586 84.2023 67.5586C84.5276 67.5586 84.7913 67.8226 84.7913 68.1483V71.9146C84.7913 72.2401 84.5276 72.5041 84.2023 72.5041Z" fill="#66509E"/>
<path d="M88.2422 68.1186V65.4571C88.2422 64.4173 89.1455 63.5742 90.2598 63.5742C91.3741 63.5742 92.2774 64.4173 92.2774 65.4571V68.1186H88.2422Z" fill="white"/>
<path d="M92.2804 68.7118C91.9551 68.7118 91.6914 68.4478 91.6914 68.1223V65.4608C91.6914 64.7476 91.0497 64.1676 90.2628 64.1676C89.476 64.1676 88.8343 64.7476 88.8343 65.4608V68.1223C88.8343 68.4478 88.5705 68.7118 88.2453 68.7118C87.92 68.7118 87.6562 68.4478 87.6562 68.1223V65.4608C87.6562 64.0973 88.8255 62.9883 90.2628 62.9883C91.7002 62.9883 92.8694 64.0973 92.8694 65.4608V68.1223C92.8694 68.4478 92.6057 68.7118 92.2804 68.7118Z" fill="#66509E"/>
<path d="M92.2882 72.5041C91.963 72.5041 91.6992 72.2401 91.6992 71.9146V68.1483C91.6992 67.8226 91.963 67.5586 92.2882 67.5586C92.6135 67.5586 92.8772 67.8226 92.8772 68.1483V71.9146C92.8772 72.2401 92.6135 72.5041 92.2882 72.5041Z" fill="#66509E"/>
<path d="M88.2453 72.5041C87.92 72.5041 87.6562 72.2401 87.6562 71.9146V68.1483C87.6562 67.8226 87.92 67.5586 88.2453 67.5586C88.5705 67.5586 88.8343 67.8226 88.8343 68.1483V71.9146C88.8343 72.2401 88.5705 72.5041 88.2453 72.5041Z" fill="#66509E"/>
<path d="M98.8984 67.7267H94.8633V64.7087C94.8633 64.0823 95.4061 63.5742 96.0787 63.5742H98.8984V67.7267V67.7267Z" fill="white"/>
<path d="M98.9037 68.3202H94.8686C94.5411 68.3202 94.2773 68.056 94.2773 67.7305V64.7127C94.2773 63.7617 95.0883 62.9883 96.0839 62.9883H98.9037C99.229 62.9883 99.4927 63.2522 99.4927 63.578C99.4927 63.9037 99.229 64.1676 98.9037 64.1676H96.0839C95.7389 64.1676 95.4576 64.412 95.4576 64.7127V67.1408H98.9037C99.229 67.1408 99.4927 67.4048 99.4927 67.7305C99.4927 68.056 99.229 68.3202 98.9037 68.3202Z" fill="#66509E"/>
<path d="M98.8984 71.8926H96.0787C95.4061 71.8926 94.8633 71.3845 94.8633 70.7577V67.7344L98.8984 71.8926V71.8926Z" fill="white"/>
<path d="M98.9037 72.4858H96.0839C95.0883 72.4858 94.2773 71.7124 94.2773 70.7614V67.7381C94.2773 67.4124 94.5411 67.1484 94.8686 67.1484C95.1938 67.1484 95.4576 67.4124 95.4576 67.7381V70.7614C95.4576 71.0621 95.7389 71.3065 96.0839 71.3065H98.9037C99.229 71.3065 99.4927 71.5706 99.4927 71.8963C99.4927 72.2218 99.229 72.4858 98.9037 72.4858Z" fill="#66509E"/>
<path d="M70.7227 68.1186V65.4571C70.7227 64.4173 71.626 63.5742 72.7402 63.5742C73.8545 63.5742 74.7578 64.4173 74.7578 65.4571V65.6342L70.7227 68.1186V68.1186Z" fill="white"/>
<path d="M70.7279 68.7118C70.4005 68.7118 70.1367 68.4478 70.1367 68.1223V65.4608C70.1367 64.0973 71.3059 62.9883 72.7455 62.9883C74.1829 62.9883 75.3521 64.0973 75.3521 65.4608V65.6382C75.3521 65.9639 75.0884 66.2278 74.7631 66.2278C74.4356 66.2278 74.1719 65.9639 74.1719 65.6382V65.4608C74.1719 64.7476 73.5323 64.1676 72.7455 64.1676C71.9565 64.1676 71.3169 64.7476 71.3169 65.4608V68.1223C71.3169 68.4478 71.0532 68.7118 70.7279 68.7118Z" fill="#66509E"/>
<path d="M70.7227 68.1445V70.0276C70.7227 71.0678 71.626 71.9109 72.7402 71.9109C73.8545 71.9109 74.7578 71.0678 74.7578 70.0276V69.4105C74.7578 69.2014 74.5754 69.0322 74.3512 69.0322H73.1446C72.9205 69.0322 72.7402 69.2014 72.7402 69.4105V69.7485L70.7227 68.1445Z" fill="white"/>
<path d="M72.7455 72.5041C71.3059 72.5041 70.1367 71.3949 70.1367 70.0313V68.1483C70.1367 67.8226 70.4005 67.5586 70.7279 67.5586C71.0532 67.5586 71.3169 67.8226 71.3169 68.1483V70.0313C71.3169 70.7445 71.9565 71.3248 72.7455 71.3248C73.5323 71.3248 74.1719 70.7445 74.1719 70.0313V69.6259H73.3345V69.7522C73.3345 70.0779 73.0708 70.3419 72.7455 70.3419C72.418 70.3419 72.1543 70.0779 72.1543 69.7522V69.4142C72.1543 68.8806 72.6005 68.4463 73.1499 68.4463H74.3565C74.906 68.4463 75.3521 68.8806 75.3521 69.4142V70.0313C75.3521 71.3949 74.1829 72.5041 72.7455 72.5041V72.5041Z" fill="#66509E"/>
<path d="M77.2266 68.1186V65.4571C77.2266 64.4173 78.1299 63.5742 79.2441 63.5742C80.3584 63.5742 81.2617 64.4173 81.2617 65.4571V68.1186H77.2266Z" fill="white"/>
<path d="M81.2648 68.7118C80.9395 68.7118 80.6758 68.4478 80.6758 68.1223V65.4608C80.6758 64.7476 80.034 64.1676 79.2472 64.1676C78.4604 64.1676 77.8186 64.7476 77.8186 65.4608V68.1223C77.8186 68.4478 77.5549 68.7118 77.2296 68.7118C76.9044 68.7118 76.6406 68.4478 76.6406 68.1223V65.4608C76.6406 64.0973 77.8099 62.9883 79.2472 62.9883C80.6846 62.9883 81.8538 64.0973 81.8538 65.4608V68.1223C81.8538 68.4478 81.5901 68.7118 81.2648 68.7118Z" fill="#66509E"/>
<path d="M81.2726 72.5041C80.9473 72.5041 80.6836 72.2401 80.6836 71.9146V68.1483C80.6836 67.8226 80.9473 67.5586 81.2726 67.5586C81.5979 67.5586 81.8616 67.8226 81.8616 68.1483V71.9146C81.8616 72.2401 81.5979 72.5041 81.2726 72.5041Z" fill="#66509E"/>
<path d="M77.2296 72.5041C76.9044 72.5041 76.6406 72.2401 76.6406 71.9146V68.1483C76.6406 67.8226 76.9044 67.5586 77.2296 67.5586C77.5549 67.5586 77.8186 67.8226 77.8186 68.1483V71.9146C77.8186 72.2401 77.5549 72.5041 77.2296 72.5041Z" fill="#66509E"/>
<path d="M81.2648 69.5583H77.2296C76.9044 69.5583 76.6406 69.2941 76.6406 68.9684C76.6406 68.6429 76.9044 68.3789 77.2296 68.3789H81.2648C81.5901 68.3789 81.8538 68.6429 81.8538 68.9684C81.8538 69.2941 81.5901 69.5583 81.2648 69.5583Z" fill="#66509E"/>
<path d="M102.27 86.2761C102.019 86.4453 101.775 86.6242 101.54 86.8126C101.184 87.0983 100.731 87.2537 100.261 87.2537H91.4497C90.9816 87.2537 90.5267 87.0983 90.1706 86.8126C88.2783 85.2939 85.8168 84.375 83.1245 84.375C77.1486 84.375 72.3047 88.8963 72.3047 94.4739C72.3047 94.5671 72.3091 94.6592 72.3113 94.7519C72.3113 94.7985 72.3047 94.844 72.3047 94.8908V106.916C72.3047 109.411 74.3948 111.551 77.0673 111.596C79.7904 111.642 82.0124 109.597 82.0124 107.066V104.52C82.3772 104.555 82.7486 104.573 83.1245 104.573C85.8168 104.573 88.2783 103.654 90.1706 102.135C90.5267 101.85 90.9794 101.694 91.4497 101.694H100.261C100.731 101.694 101.184 101.85 101.54 102.135C103.434 103.654 105.896 104.573 108.586 104.573C108.962 104.573 109.333 104.555 109.7 104.52V106.916C109.7 109.41 111.79 111.55 114.461 111.596C117.184 111.642 119.406 109.597 119.406 107.066V94.8908C119.406 94.844 119.401 94.7985 119.399 94.7519C119.401 94.6592 119.406 94.5671 119.406 94.4739C119.406 89.3201 115.437 85.0664 109.801 84.4539L102.27 86.2761V86.2761Z" fill="#807DBB"/>
<path d="M114.554 112.19C114.521 112.19 114.488 112.19 114.455 112.189C111.51 112.139 109.112 109.775 109.112 106.92V105.155C106.204 105.279 103.369 104.36 101.174 102.599C100.925 102.398 100.6 102.288 100.264 102.288H91.4528C91.1165 102.288 90.7935 102.398 90.5429 102.599C88.3473 104.36 85.5122 105.279 82.6045 105.155V107.07C82.6045 108.395 82.0682 109.652 81.0946 110.609C80.0484 111.639 78.5803 112.218 77.0594 112.189C74.1144 112.139 71.7188 109.775 71.7188 106.92V94.8946C71.7188 94.8535 71.7209 94.8132 71.7231 94.773C71.7231 94.766 71.7253 94.7592 71.7253 94.7521L71.7231 94.6906C71.7209 94.6198 71.7188 94.5491 71.7188 94.4776C71.7188 88.584 76.8352 83.7891 83.1275 83.7891C85.8462 83.7891 88.4792 84.7007 90.5429 86.3563C90.7935 86.5572 91.1165 86.6677 91.4528 86.6677H100.264C100.6 86.6677 100.925 86.5572 101.174 86.3563C101.422 86.1581 101.681 85.9677 101.945 85.7904C102.213 85.6088 102.58 85.6803 102.763 85.9504C102.945 86.2209 102.873 86.5873 102.602 86.7691C102.367 86.928 102.134 87.0985 101.912 87.2763C101.453 87.6444 100.868 87.8469 100.264 87.8469H91.4528C90.8484 87.8469 90.2638 87.6444 89.8045 87.2763C87.9495 85.788 85.5781 84.9684 83.1275 84.9684C77.4858 84.9684 72.8968 89.2343 72.8968 94.4776C72.8968 94.5352 72.899 94.5921 72.9012 94.6491L72.9034 94.7389C72.9056 94.7504 72.9056 94.7616 72.9034 94.7728C72.9034 94.8018 72.9012 94.8304 72.899 94.859C72.899 94.8708 72.8968 94.8827 72.8968 94.8948V106.92C72.8968 109.136 74.7737 110.971 77.0814 111.01C78.2836 111.028 79.444 110.578 80.2682 109.768C81.0133 109.035 81.4242 108.077 81.4242 107.07V104.524C81.4242 104.358 81.4946 104.2 81.6176 104.088C81.7407 103.976 81.9056 103.921 82.0704 103.937C82.4199 103.97 82.7759 103.987 83.1275 103.987C85.5781 103.987 87.9495 103.168 89.8045 101.679C90.2638 101.311 90.8484 101.108 91.4528 101.108H100.264C100.868 101.108 101.453 101.311 101.912 101.679C103.767 103.168 106.139 103.987 108.589 103.987C108.941 103.987 109.297 103.97 109.646 103.937C109.813 103.921 109.976 103.976 110.099 104.088C110.222 104.2 110.292 104.358 110.292 104.524V106.92C110.292 109.136 112.169 110.971 114.475 111.01C114.501 111.011 114.528 111.011 114.554 111.011C115.728 111.011 116.857 110.56 117.661 109.769C118.409 109.035 118.82 108.077 118.82 107.07V94.8946C118.82 94.8816 118.818 94.8691 118.818 94.8561C118.815 94.8295 118.813 94.8029 118.813 94.7761C118.813 94.7633 118.813 94.7506 118.813 94.7383L118.815 94.6546C118.818 94.5957 118.82 94.537 118.82 94.4776C118.82 89.5833 115.002 85.6157 109.741 85.0438C109.418 85.0086 109.185 84.7176 109.22 84.3939C109.255 84.0702 109.545 83.8354 109.868 83.8715C115.738 84.5095 120 88.9702 120 94.4776C120 94.551 119.996 94.6236 119.993 94.6963V94.771C119.996 94.8119 120 94.8528 120 94.8946V107.07C120 108.395 119.464 109.653 118.49 110.61C117.464 111.617 116.035 112.19 114.554 112.19Z" fill="#66509E"/>
<path d="M77.0508 102.891C78.4881 103.797 80.1717 104.389 81.9892 104.562L77.0508 102.891V102.891Z" fill="white"/>
<path d="M81.9929 105.098C81.9731 105.098 81.9555 105.097 81.9357 105.095C80.083 104.918 78.2874 104.31 76.7401 103.335C76.4654 103.161 76.3819 102.797 76.5555 102.521C76.7313 102.246 77.094 102.163 77.3687 102.337C78.7599 103.214 80.3775 103.762 82.0478 103.921C82.3731 103.952 82.6104 104.24 82.5797 104.564C82.5511 104.869 82.294 105.098 81.9929 105.098V105.098Z" fill="#66509E"/>
<path d="M114.626 102.891C113.189 103.797 111.505 104.389 109.688 104.562L114.626 102.891Z" fill="white"/>
<path d="M109.691 105.098C109.39 105.098 109.133 104.869 109.104 104.564C109.073 104.24 109.311 103.952 109.636 103.921C111.306 103.762 112.924 103.214 114.313 102.337C114.59 102.163 114.952 102.246 115.128 102.521C115.302 102.797 115.218 103.161 114.944 103.335C113.397 104.31 111.601 104.918 109.748 105.095C109.728 105.097 109.709 105.098 109.691 105.098V105.098Z" fill="#66509E"/>
<path d="M85.6008 94.4897C85.6008 95.7719 84.4865 96.8117 83.1129 96.8117C81.7393 96.8117 80.625 95.7719 80.625 94.4897C80.625 93.2073 81.7393 92.168 83.1129 92.168C84.4865 92.168 85.6008 93.2073 85.6008 94.4897Z" fill="white"/>
<path d="M83.116 92.7614C82.0698 92.7614 81.2171 93.5387 81.2171 94.4937C81.2171 95.4488 82.0698 96.2258 83.116 96.2258C84.1621 96.2258 85.0127 95.4488 85.0127 94.4937C85.0127 93.5387 84.1621 92.7614 83.116 92.7614ZM83.116 97.4051C81.4193 97.4051 80.0391 96.0992 80.0391 94.4937C80.0391 92.8884 81.4193 91.582 83.116 91.582C84.8127 91.582 86.1929 92.8884 86.1929 94.4937C86.1929 96.0992 84.8127 97.4051 83.116 97.4051Z" fill="#66509E"/>
<path d="M111.087 94.4897C111.087 95.7721 109.973 96.8117 108.599 96.8117C107.225 96.8117 106.113 95.7721 106.113 94.4897C106.113 93.2073 107.225 92.168 108.599 92.168C109.973 92.168 111.087 93.2073 111.087 94.4897Z" fill="white"/>
<path d="M108.604 92.7611C107.558 92.7611 106.708 93.5385 106.708 94.4935C106.708 95.4486 107.558 96.2258 108.604 96.2258C109.653 96.2258 110.503 95.4486 110.503 94.4935C110.503 93.5385 109.653 92.7611 108.604 92.7611ZM108.604 97.4051C106.908 97.4051 105.527 96.0989 105.527 94.4935C105.527 92.8882 106.908 91.582 108.604 91.582C110.301 91.582 111.683 92.8882 111.683 94.4935C111.683 96.0989 110.301 97.4051 108.604 97.4051Z" fill="#66509E"/>
<path d="M84.7993 90.4004C84.6543 90.4004 84.507 90.3463 84.3927 90.2378L83.0938 89.0017L81.7971 90.2378C81.562 90.4624 81.1883 90.4531 80.9642 90.2173C80.7378 89.9815 80.7488 89.6081 80.9839 89.3837L82.6872 87.7602C82.9158 87.5435 83.274 87.5435 83.5026 87.7602L85.2059 89.3837C85.4411 89.6081 85.4521 89.9815 85.2257 90.2173C85.1114 90.3391 84.9554 90.4004 84.7993 90.4004V90.4004Z" fill="#66509E"/>
<path d="M83.0938 101.416C82.9488 101.416 82.8015 101.362 82.6872 101.253L80.9839 99.6301C80.7488 99.4054 80.7378 99.0323 80.9642 98.7964C81.1883 98.5604 81.562 98.5514 81.7971 98.776L83.0938 100.012L84.3927 98.776C84.6279 98.5514 85.0015 98.5606 85.2257 98.7964C85.4521 99.0323 85.4411 99.4054 85.2059 99.6301L83.5026 101.253C83.3883 101.362 83.2411 101.416 83.0938 101.416V101.416Z" fill="#66509E"/>
<path d="M88.1284 96.7051C87.9702 96.7051 87.8097 96.6407 87.6933 96.5134C87.4735 96.273 87.491 95.9002 87.7306 95.6805L88.9943 94.5244L87.7306 93.3686C87.491 93.1486 87.4735 92.7756 87.6933 92.5352C87.9152 92.2952 88.2867 92.2785 88.5284 92.4985L90.2669 94.0895C90.3878 94.2011 90.4581 94.3589 90.4581 94.5244C90.4581 94.6899 90.3878 94.8477 90.2669 94.9596L88.5284 96.5506C88.4141 96.6541 88.2713 96.7051 88.1284 96.7051V96.7051Z" fill="#66509E"/>
<path d="M78.0306 96.7052C77.8899 96.7052 77.7471 96.6542 77.6328 96.5506L75.8943 94.9597C75.7735 94.8478 75.7031 94.69 75.7031 94.5245C75.7031 94.359 75.7735 94.2012 75.8943 94.0895L77.6328 92.4986C77.8746 92.2786 78.246 92.295 78.4658 92.5353C78.6855 92.7757 78.6702 93.1487 78.4306 93.3687L77.1669 94.5245L78.4306 95.6805C78.6702 95.9003 78.6855 96.2731 78.4658 96.5135C78.3515 96.6405 78.191 96.7052 78.0306 96.7052V96.7052Z" fill="#66509E"/>
<path d="M110.288 90.4004C110.141 90.4004 109.996 90.3463 109.882 90.2378L108.583 89.0017L107.286 90.2378C107.051 90.4624 106.677 90.4531 106.453 90.2173C106.227 89.9815 106.236 89.6081 106.473 89.3837L108.176 87.7602C108.405 87.5435 108.763 87.5435 108.99 87.7602L110.695 89.3837C110.93 89.6081 110.939 89.9815 110.715 90.2173C110.6 90.3391 110.444 90.4004 110.288 90.4004V90.4004Z" fill="#66509E"/>
<path d="M108.583 101.416C108.438 101.416 108.291 101.362 108.176 101.253L106.473 99.6301C106.236 99.4054 106.227 99.0323 106.453 98.7964C106.677 98.5604 107.049 98.5514 107.286 98.776L108.583 100.012L109.882 98.776C110.117 98.5514 110.491 98.5606 110.715 98.7964C110.939 99.0323 110.93 99.4054 110.695 99.6301L108.99 101.253C108.877 101.362 108.73 101.416 108.583 101.416Z" fill="#66509E"/>
<path d="M113.617 96.7051C113.459 96.7051 113.298 96.6407 113.182 96.5134C112.962 96.273 112.979 95.9002 113.219 95.6805L114.483 94.5244L113.219 93.3686C112.979 93.1486 112.962 92.7756 113.182 92.5352C113.401 92.2952 113.775 92.2785 114.014 92.4985L115.755 94.0895C115.876 94.2011 115.946 94.3589 115.946 94.5244C115.946 94.6899 115.876 94.8477 115.755 94.9596L114.014 96.5506C113.903 96.6541 113.76 96.7051 113.617 96.7051V96.7051Z" fill="#66509E"/>
<path d="M103.519 96.7052C103.378 96.7052 103.235 96.6542 103.121 96.5506L101.383 94.9597C101.26 94.8478 101.191 94.69 101.191 94.5245C101.191 94.359 101.26 94.2012 101.383 94.0895L103.121 92.4986C103.363 92.2786 103.734 92.295 103.954 92.5353C104.174 92.7757 104.158 93.1487 103.917 93.3687L102.655 94.5245L103.917 95.6805C104.158 95.9003 104.174 96.2731 103.954 96.5135C103.838 96.6405 103.679 96.7052 103.519 96.7052V96.7052Z" fill="#66509E"/>
<path d="M103.797 72.4789L101.23 70.2488C100.659 69.7484 100.628 68.9093 101.164 68.3752L108.8 60.7708C109.336 60.2365 110.235 60.2093 110.806 60.7099L118.953 67.835C119.525 68.3356 119.556 69.1743 119.019 69.7088L113.712 74.9961L111.782 77.0134L103.797 72.4789V72.4789Z" fill="#807DBB"/>
<path d="M111.785 77.603C111.638 77.603 111.491 77.5487 111.376 77.4395C111.141 77.2144 111.135 76.8412 111.359 76.6058L113.289 74.5882C113.291 74.5847 113.295 74.5814 113.297 74.5779L118.605 69.2909C118.748 69.1498 118.823 68.9689 118.816 68.781C118.81 68.5911 118.722 68.4126 118.568 68.2786L110.423 61.1535C110.084 60.8586 109.533 60.8748 109.218 61.1885L101.585 68.7926C101.443 68.9337 101.368 69.1146 101.374 69.3023C101.381 69.4924 101.469 69.6709 101.623 69.8047L104.188 72.0337C104.434 72.2474 104.46 72.6199 104.247 72.8656C104.032 73.1115 103.66 73.1375 103.414 72.9241L100.847 70.694C100.445 70.341 100.214 69.8608 100.196 69.3406C100.179 68.8228 100.377 68.3313 100.752 67.9573L108.385 60.3531C109.137 59.6052 110.399 59.5663 111.199 60.2658L119.346 67.3909C119.746 67.7428 119.979 68.2228 119.994 68.7428C120.012 69.2608 119.814 69.7522 119.438 70.1263L114.135 75.4085L112.212 77.421C112.095 77.5421 111.941 77.603 111.785 77.603V77.603Z" fill="#66509E"/>
<path d="M111.507 68.4935C111.474 69.2038 110.83 69.7541 110.07 69.7225C109.307 69.691 108.718 69.0895 108.751 68.3789C108.786 67.6686 109.43 67.1183 110.191 67.1497C110.954 67.1814 111.543 67.7829 111.507 68.4935V68.4935Z" fill="white"/>
<path d="M110.133 67.7417C109.713 67.7417 109.362 68.0354 109.344 68.4108C109.337 68.5798 109.399 68.7455 109.52 68.8778C109.663 69.0332 109.871 69.1277 110.098 69.1371C110.533 69.1565 110.904 68.8554 110.922 68.469C110.931 68.2998 110.869 68.134 110.748 68.002C110.605 67.8466 110.395 67.7518 110.17 67.7426C110.157 67.742 110.146 67.7417 110.133 67.7417V67.7417ZM110.135 70.3171C110.107 70.3171 110.076 70.3167 110.047 70.3154C109.511 70.2929 109.001 70.0593 108.649 69.6738C108.315 69.3081 108.144 68.8398 108.166 68.3547C108.216 67.3226 109.135 66.5184 110.219 66.5644C110.755 66.5864 111.265 66.8204 111.618 67.2059C111.953 67.5716 112.124 68.04 112.1 68.525C112.054 69.5297 111.179 70.3171 110.135 70.3171V70.3171Z" fill="#66509E"/>
<path d="M114.167 81.7136L104.925 87.5599C104.277 87.9707 103.393 87.8122 102.954 87.2061L96.6898 78.5799C96.2503 77.9738 96.4195 77.1496 97.0678 76.7388L106.31 70.8927C106.96 70.4817 107.844 70.6399 108.283 71.2461L114.547 79.8722C114.986 80.4784 114.817 81.3028 114.167 81.7136V81.7136Z" fill="#EE445B"/>
<path d="M107.11 71.2557C106.943 71.2557 106.776 71.2994 106.631 71.3913L97.3893 77.2379C97.209 77.3519 97.0882 77.5212 97.0508 77.7146C97.0178 77.895 97.0596 78.0794 97.1717 78.2341L103.435 86.8603C103.69 87.2126 104.231 87.3047 104.616 87.062L113.857 81.2157C114.038 81.1016 114.158 80.9322 114.194 80.739C114.229 80.5585 114.187 80.3739 114.075 80.2192L107.811 71.593C107.651 71.3741 107.383 71.2557 107.11 71.2557V71.2557ZM104.141 88.3755C103.501 88.3755 102.868 88.0869 102.482 87.553L96.2178 78.9269C95.9123 78.506 95.7959 77.9965 95.8926 77.4926C95.9915 76.9757 96.2992 76.5315 96.7585 76.2412L106 70.3948C106.906 69.8214 108.145 70.0484 108.765 70.9003L115.029 79.5264C115.334 79.9475 115.449 80.457 115.352 80.9609C115.253 81.4779 114.948 81.922 114.488 82.2124L105.246 88.0587C104.908 88.2728 104.523 88.3755 104.141 88.3755V88.3755Z" fill="#66509E"/>
<path d="M102.891 77.792C103.32 78.3808 103.155 79.1814 102.524 79.5803C101.894 79.9792 101.037 79.8256 100.608 79.237C100.182 78.6482 100.346 77.8474 100.977 77.4485C101.608 77.0493 102.465 77.2034 102.891 77.792V77.792Z" fill="white"/>
<path d="M101.695 77.818C101.537 77.818 101.377 77.8597 101.238 77.9472C101.067 78.056 100.952 78.2162 100.917 78.3993C100.886 78.5698 100.926 78.7446 101.031 78.8907C101.275 79.2263 101.79 79.3136 102.157 79.0824C102.328 78.974 102.44 78.8136 102.475 78.6305C102.508 78.4597 102.469 78.2852 102.361 78.1389C102.212 77.9307 101.955 77.818 101.695 77.818V77.818ZM101.704 80.3892C101.075 80.3892 100.458 80.1068 100.078 79.5839C99.7787 79.1712 99.6644 78.6714 99.7589 78.1773C99.8578 77.6709 100.159 77.2351 100.607 76.9505C101.495 76.3894 102.711 76.6114 103.317 77.4459C103.616 77.8589 103.728 78.3584 103.634 78.8527C103.537 79.3591 103.236 79.7947 102.785 80.0793C102.456 80.289 102.078 80.3892 101.704 80.3892V80.3892Z" fill="#66509E"/>
<path d="M107.464 74.9207C107.89 75.5095 107.726 76.3102 107.095 76.7091C106.464 77.108 105.607 76.9544 105.178 76.3658C104.752 75.777 104.917 74.9763 105.547 74.5774C106.178 74.1783 107.035 74.3322 107.464 74.9207Z" fill="white"/>
<path d="M106.322 74.9467C106.164 74.9467 106.004 74.9885 105.865 75.0759C105.694 75.1847 105.582 75.345 105.546 75.528C105.513 75.6986 105.553 75.8733 105.658 76.0197C105.902 76.3548 106.417 76.4425 106.784 76.2111C106.955 76.1028 107.067 75.9425 107.102 75.7595C107.135 75.5885 107.096 75.414 106.988 75.2678C106.839 75.0595 106.582 74.9467 106.322 74.9467V74.9467ZM106.331 77.5181C105.702 77.5181 105.085 77.2355 104.705 76.7126C104.406 76.2997 104.294 75.8001 104.388 75.3058C104.485 74.7997 104.786 74.3639 105.234 74.0795C106.122 73.5184 107.338 73.7401 107.944 74.5748C108.243 74.9876 108.355 75.4872 108.261 75.9814C108.164 76.4878 107.863 76.9236 107.415 77.208C107.083 77.4177 106.705 77.5181 106.331 77.5181Z" fill="#66509E"/>
<path d="M105.997 82.1278C106.426 82.7164 106.261 83.5173 105.63 83.9162C104.999 84.3153 104.142 84.1614 103.713 83.5726C103.287 82.9839 103.452 82.1834 104.083 81.7843C104.713 81.3854 105.571 81.5392 105.997 82.1278V82.1278Z" fill="white"/>
<path d="M104.859 82.1539C104.701 82.1539 104.541 82.1957 104.402 82.2833C104.231 82.3917 104.116 82.5521 104.081 82.7352C104.05 82.906 104.09 83.0805 104.196 83.2269C104.439 83.562 104.954 83.6499 105.321 83.4185C105.492 83.3102 105.604 83.1495 105.639 82.9666C105.672 82.7959 105.633 82.6214 105.525 82.475C105.376 82.2666 105.119 82.1539 104.859 82.1539V82.1539ZM104.868 84.7251C104.239 84.7251 103.622 84.4427 103.242 83.9196C102.943 83.5069 102.828 83.0075 102.923 82.5135C103.022 82.0066 103.323 81.571 103.771 81.2866C104.659 80.7251 105.875 80.9475 106.481 81.7818C106.78 82.1948 106.892 82.6943 106.798 83.1886C106.701 83.6952 106.4 84.1306 105.949 84.4152C105.62 84.6247 105.242 84.7251 104.868 84.7251Z" fill="#66509E"/>
<path d="M110.628 79.1983C111.054 79.7867 110.89 80.5876 110.259 80.9865C109.628 81.3856 108.771 81.2317 108.342 80.643C107.916 80.0544 108.081 79.2537 108.712 78.8546C109.342 78.4557 110.199 78.6095 110.628 79.1983V79.1983Z" fill="white"/>
<path d="M109.486 79.2242C109.328 79.2242 109.168 79.266 109.029 79.3537C108.858 79.462 108.746 79.6224 108.71 79.8055C108.677 79.9763 108.717 80.1508 108.823 80.2972C109.066 80.6321 109.581 80.7203 109.948 80.4888C110.119 80.3805 110.231 80.2198 110.266 80.037C110.299 79.8662 110.26 79.6917 110.152 79.5453C110.003 79.337 109.746 79.2242 109.486 79.2242V79.2242ZM109.495 81.7954C108.869 81.7954 108.249 81.513 107.869 80.9899C107.57 80.5772 107.458 80.0778 107.552 79.5838C107.649 79.0772 107.95 78.6414 108.398 78.357C109.286 77.7954 110.502 78.0178 111.108 78.8521C111.407 79.2651 111.521 79.7649 111.425 80.2589C111.328 80.7655 111.027 81.2009 110.579 81.4855C110.247 81.6952 109.869 81.7954 109.495 81.7954Z" fill="#66509E"/>
<path d="M84.6218 42.693H36.602C34.9625 42.693 33.6328 41.3632 33.6328 39.7229V8.06755C33.6328 6.42711 34.9625 5.09766 36.602 5.09766H84.6218C86.2636 5.09766 87.5932 6.42711 87.5932 8.06755V39.7229C87.5932 41.3632 86.2636 42.693 84.6218 42.693Z" fill="white"/>
<path d="M36.6073 5.69106C35.2952 5.69106 34.2271 6.75919 34.2271 8.0715V39.7269C34.2271 41.0394 35.2952 42.1073 36.6073 42.1073H84.6271C85.9414 42.1073 87.0073 41.0394 87.0073 39.7269V8.0715C87.0073 6.75919 85.9414 5.69106 84.6271 5.69106H36.6073V5.69106ZM84.6271 43.2867H36.6073C34.6447 43.2867 33.0469 41.6897 33.0469 39.7269V8.0715C33.0469 6.10886 34.6447 4.51172 36.6073 4.51172H84.6271C86.5897 4.51172 88.1875 6.10886 88.1875 8.0715V39.7269C88.1875 41.6897 86.5897 43.2867 84.6271 43.2867Z" fill="#66509E"/>
<path d="M64.539 42.7148L66.4863 50.6329H54.6094L56.5764 42.7148H64.539V42.7148Z" fill="white"/>
<path d="M66.4329 51.2266H54.5538C54.3736 51.2266 54.2022 51.143 54.0901 51.0002C53.978 50.8569 53.9384 50.6707 53.9824 50.4945L55.9516 42.5765C56.0308 42.2602 56.3494 42.0679 56.6659 42.1466C56.9824 42.225 57.1736 42.545 57.0967 42.8608L55.3099 50.0472H65.6791L63.9121 42.8595C63.8351 42.5433 64.0286 42.2239 64.345 42.1461C64.6593 42.0683 64.9802 42.2615 65.0571 42.5778L67.0044 50.496C67.0483 50.6721 67.0088 50.858 66.8967 51.0006C66.7846 51.1433 66.6132 51.2266 66.4329 51.2266V51.2266Z" fill="#66509E"/>
<path d="M48.2227 53.3372V52.4445C48.2227 51.4719 49.0095 50.6836 49.9831 50.6836H70.7875C71.7611 50.6836 72.5479 51.4719 72.5479 52.4445V53.3372H48.2227Z" fill="#807DBB"/>
<path d="M72.5532 53.9311C72.2279 53.9311 71.9642 53.6667 71.9642 53.3412V52.4484C71.9642 51.8027 71.4389 51.277 70.7928 51.277H49.9884C49.3422 51.277 48.8169 51.8027 48.8169 52.4484V53.3412C48.8169 53.6667 48.5532 53.9311 48.2279 53.9311C47.9027 53.9311 47.6367 53.6667 47.6367 53.3412V52.4484C47.6367 51.1524 48.6917 50.0977 49.9884 50.0977H70.7928C72.0895 50.0977 73.1444 51.1524 73.1444 52.4484V53.3412C73.1444 53.6667 72.8807 53.9311 72.5532 53.9311Z" fill="#66509E"/>
<path d="M36.602 42.6848H84.6218C86.2636 42.6848 87.5932 41.3549 87.5932 39.7147V38.2617H33.6328V39.7147C33.6328 41.3549 34.9625 42.6848 36.602 42.6848V42.6848Z" fill="#807DBB"/>
<path d="M34.2271 38.8551V39.7182C34.2271 41.0307 35.2952 42.0986 36.6073 42.0986H84.6271C85.9414 42.0986 87.0073 41.0307 87.0073 39.7182V38.8551H34.2271ZM84.6271 43.278H36.6073C34.6447 43.278 33.0469 41.6811 33.0469 39.7182V38.2652C33.0469 37.9397 33.3106 37.6758 33.6381 37.6758H87.5985C87.9238 37.6758 88.1875 37.9397 88.1875 38.2652V39.7182C88.1875 41.6811 86.5897 43.278 84.6271 43.278Z" fill="#66509E"/>
<path d="M87.5859 34.4606H40.3178C39.9903 34.4606 39.7266 34.1966 39.7266 33.8707C39.7266 33.5452 39.9903 33.2812 40.3178 33.2812H87.5859C87.9112 33.2812 88.1749 33.5452 88.1749 33.8707C88.1749 34.1966 87.9112 34.4606 87.5859 34.4606Z" fill="#66509E"/>
<path d="M37.6183 34.4606H33.6381C33.3106 34.4606 33.0469 34.1966 33.0469 33.8707C33.0469 33.5452 33.3106 33.2812 33.6381 33.2812H37.6183C37.9436 33.2812 38.2073 33.5452 38.2073 33.8707C38.2073 34.1966 37.9436 34.4606 37.6183 34.4606V34.4606Z" fill="#66509E"/>
<path d="M65.4995 15.6994C65.4995 17.8979 63.7171 19.6803 61.5193 19.6803C59.3215 19.6803 57.5391 17.8979 57.5391 15.6994C57.5391 13.5009 59.3215 11.7188 61.5193 11.7188C63.7171 11.7188 65.4995 13.5009 65.4995 15.6994Z" fill="#EE445B"/>
<path d="M61.5224 12.3122C59.652 12.3122 58.1312 13.8333 58.1312 15.7029C58.1312 17.5728 59.652 19.0941 61.5224 19.0941C63.3927 19.0941 64.9136 17.5728 64.9136 15.7029C64.9136 13.8333 63.3927 12.3122 61.5224 12.3122ZM61.5224 20.2735C59.0037 20.2735 56.9531 18.2231 56.9531 15.7029C56.9531 13.1829 59.0037 11.1328 61.5224 11.1328C64.0432 11.1328 66.0938 13.1829 66.0938 15.7029C66.0938 18.2231 64.0432 20.2735 61.5224 20.2735Z" fill="#66509E"/>
<path d="M71.4841 30.1048L69.6094 21.0352L78.6775 22.9116L71.4841 30.1048V30.1048Z" fill="#807DBB"/>
<path d="M70.3717 21.7981L71.8442 28.9188L77.4926 23.2713L70.3717 21.7981ZM71.4882 30.6984C71.4333 30.6984 71.3761 30.6905 71.319 30.6738C71.1124 30.6116 70.9563 30.4406 70.9124 30.228L69.0354 21.1584C68.9959 20.9641 69.0552 20.7623 69.1959 20.6219C69.3366 20.4817 69.5366 20.4212 69.7322 20.4614L78.8025 22.3381C79.0135 22.3819 79.1849 22.5388 79.2464 22.7465C79.3102 22.9542 79.253 23.179 79.0992 23.3324L71.9058 30.5258C71.7937 30.6379 71.642 30.6984 71.4882 30.6984V30.6984Z" fill="#66509E"/>
<path d="M44.5352 11.7447C44.2869 11.7447 44.0583 11.5878 43.9748 11.3401C43.8737 11.0311 44.0407 10.6975 44.3506 10.5951C45.4759 10.2221 46.6429 9.93265 47.8122 9.73485C48.1352 9.68078 48.4385 9.89704 48.4935 10.2181C48.5462 10.5392 48.3308 10.8436 48.01 10.8979C46.8979 11.0856 45.7902 11.3603 44.7199 11.7146C44.6583 11.7351 44.5968 11.7447 44.5352 11.7447V11.7447Z" fill="#66509E"/>
<path d="M58.3324 11.5091C58.2775 11.5091 58.2204 11.5012 58.1632 11.4842C56.0929 10.8673 53.9368 10.5543 51.7544 10.5543C51.1786 10.5543 50.5984 10.5763 50.0291 10.6196C49.7061 10.644 49.4226 10.4009 49.3962 10.0761C49.372 9.7517 49.616 9.46841 49.939 9.44357C50.539 9.39786 51.15 9.375 51.7544 9.375C54.0511 9.375 56.3215 9.70445 58.5017 10.3541C58.8138 10.4471 58.9918 10.7754 58.8973 11.0877C58.8204 11.3436 58.5874 11.5091 58.3324 11.5091V11.5091Z" fill="#66509E"/>
<path d="M47.2305 13.2798C46.9602 13.2798 46.7162 13.093 46.6547 12.8183C46.5844 12.5005 46.7844 12.1853 47.1031 12.1145C48.6283 11.7741 50.1998 11.6016 51.7778 11.6016C52.4217 11.6016 53.0723 11.6308 53.7096 11.6879C54.0349 11.7172 54.2745 12.0035 54.2459 12.3279C54.2151 12.6521 53.9316 12.8923 53.6042 12.8627C53.002 12.8084 52.3866 12.7809 51.7778 12.7809C50.2877 12.7809 48.7998 12.9442 47.3602 13.2657C47.3162 13.275 47.2723 13.2798 47.2305 13.2798Z" fill="#66509E"/>
<path d="M40.6676 15.9866C40.4742 15.9866 40.283 15.8894 40.1709 15.7123C39.9951 15.4371 40.0764 15.0729 40.3533 14.8986C40.8874 14.5597 41.4434 14.2413 42.0061 13.9523C42.2962 13.803 42.6522 13.9173 42.7995 14.2068C42.9489 14.4962 42.8347 14.852 42.5467 15.0008C42.0149 15.274 41.4896 15.5749 40.9841 15.8951C40.8852 15.9571 40.7775 15.9866 40.6676 15.9866V15.9866Z" fill="#66509E"/>
<path d="M46.5265 15.7626C46.2716 15.7626 46.0386 15.5965 45.9617 15.3398C45.8694 15.0272 46.0496 14.6993 46.3617 14.6072C48.1155 14.0903 49.9419 13.8281 51.7881 13.8281C52.9925 13.8281 54.1968 13.9407 55.3705 14.1624C55.6892 14.2231 55.9001 14.5314 55.8408 14.8514C55.7793 15.1714 55.4716 15.3815 55.1507 15.3213C54.0496 15.113 52.9177 15.0075 51.7881 15.0075C50.054 15.0075 48.3397 15.2534 46.6935 15.7385C46.6386 15.7549 46.5837 15.7626 46.5265 15.7626Z" fill="#66509E"/>
<path d="M43.07 19.679C42.8744 19.679 42.6832 19.5814 42.5711 19.4031C42.3975 19.1273 42.481 18.7633 42.7557 18.5902C42.9645 18.4581 43.1799 18.3297 43.3931 18.2084C45.9338 16.7611 48.8327 15.9961 51.7733 15.9961C52.9184 15.9961 54.0612 16.1113 55.1755 16.3376C55.4942 16.4027 55.6986 16.7141 55.6348 17.0332C55.5689 17.3521 55.259 17.5581 54.9381 17.4932C53.903 17.2825 52.8392 17.1754 51.7733 17.1754C49.037 17.1754 46.3403 17.8871 43.9777 19.2332C43.7777 19.346 43.5799 19.4655 43.3843 19.5884C43.2854 19.6497 43.1777 19.679 43.07 19.679V19.679Z" fill="#66509E"/>
<path d="M53.8039 24.4911C53.6456 24.4911 53.4896 24.428 53.3731 24.3036C52.0258 22.8588 50.9577 21.206 50.2017 19.3909C50.0764 19.0902 50.2192 18.7451 50.5203 18.6196C50.8192 18.4946 51.1665 18.6366 51.2918 18.9372C51.9929 20.6227 52.9841 22.1574 54.2346 23.4992C54.4566 23.7372 54.4434 24.1106 54.2061 24.3326C54.0918 24.4385 53.9489 24.4911 53.8039 24.4911V24.4911Z" fill="#66509E"/>
<path d="M65.4554 29.5885C61.7938 29.5885 58.3257 28.4149 55.4268 26.1945C55.1675 25.9964 55.1191 25.6265 55.3169 25.3679C55.5147 25.1092 55.8839 25.0604 56.1433 25.2582C58.8356 27.3197 62.0554 28.4092 65.4554 28.4092C66.7894 28.4092 68.1125 28.2382 69.3872 27.9006C69.7015 27.8171 70.0246 28.0052 70.1081 28.3202C70.1916 28.6349 70.0048 28.9575 69.6883 29.0408C68.3147 29.4044 66.8905 29.5885 65.4554 29.5885V29.5885Z" fill="#66509E"/>
<path d="M59.9318 25.6881C59.8482 25.6881 59.7647 25.6707 59.6856 25.6338C57.0966 24.4415 54.9647 22.5101 53.5186 20.0485C53.3537 19.7676 53.4482 19.4061 53.7296 19.2413C54.0087 19.0767 54.3713 19.1705 54.5362 19.4512C55.8592 21.7041 57.8109 23.4716 60.1779 24.5628C60.4746 24.6991 60.6043 25.0492 60.468 25.3452C60.3669 25.5608 60.1537 25.6881 59.9318 25.6881Z" fill="#66509E"/>
<path d="M65.4516 26.9433C64.012 26.9433 62.59 26.7229 61.2296 26.2881C60.9197 26.189 60.7483 25.8572 60.8494 25.547C60.9483 25.2369 61.2801 25.0657 61.59 25.1648C62.834 25.5624 64.1329 25.764 65.4516 25.764C66.2494 25.764 67.045 25.6897 67.8208 25.5433C68.1417 25.4831 68.4494 25.6932 68.5109 26.013C68.5702 26.333 68.3592 26.6415 68.0406 26.702C67.1922 26.8622 66.3219 26.9433 65.4516 26.9433Z" fill="#66509E"/>
<path d="M65.4523 24.2405C65.127 24.2405 64.8633 23.9763 64.8633 23.6508C64.8633 23.3253 65.127 23.0609 65.4523 23.0609C65.8984 23.0609 66.3446 23.0317 66.782 22.9739C67.105 22.9313 67.4017 23.1581 67.4435 23.4812C67.4875 23.8038 67.2611 24.1003 66.938 24.1429C66.4479 24.2075 65.949 24.2405 65.4523 24.2405Z" fill="#66509E"/>
<path d="M63.3509 24.0487C63.3136 24.0487 63.2718 24.0449 63.2322 24.0368C61.6828 23.7192 60.2454 23.0887 58.9575 22.1621C58.6916 21.972 58.6322 21.6034 58.8212 21.339C59.0125 21.0748 59.3817 21.0146 59.6454 21.2047C60.7971 22.0335 62.085 22.5977 63.4696 22.8814C63.7883 22.9467 63.9949 23.2583 63.9289 23.5775C63.8718 23.8564 63.6256 24.0487 63.3509 24.0487V24.0487Z" fill="#66509E"/>
<path d="M39.2985 36.0903H38.5886C38.0524 36.0903 37.6172 35.6549 37.6172 35.1182V33.0817C37.6172 32.5448 38.0524 32.1094 38.5886 32.1094H39.2985C39.8348 32.1094 40.2699 32.5448 40.2699 33.0817V35.1182C40.2699 35.6549 39.8348 36.0903 39.2985 36.0903Z" fill="white"/>
<path d="M38.5917 32.6442C38.3807 32.6442 38.2093 32.8156 38.2093 33.0266V35.0631C38.2093 35.2739 38.3807 35.4455 38.5917 35.4455H39.3016C39.5126 35.4455 39.684 35.2739 39.684 35.0631V33.0266C39.684 32.8156 39.5126 32.6442 39.3016 32.6442H38.5917ZM39.3016 36.6248H38.5917C37.7302 36.6248 37.0312 35.9242 37.0312 35.0631V33.0266C37.0312 32.1653 37.7302 31.4648 38.5917 31.4648H39.3016C40.1631 31.4648 40.8642 32.1653 40.8642 33.0266V35.0631C40.8642 35.9242 40.1631 36.6248 39.3016 36.6248Z" fill="#66509E"/>
</g>
<defs>
<clipPath id="clip0_165_9646">
<rect width="120" height="120" fill="white"/>
</clipPath>
</defs>
</svg>
