<svg width="180" height="100" viewBox="0 0 180 100" fill="none" xmlns="http://www.w3.org/2000/svg">
<path d="M80.0713 51.7337C80.0713 58.4957 74.7839 63.4784 68.2952 63.4784C61.8064 63.4784 56.519 58.4957 56.519 51.7337C56.519 44.9241 61.8064 39.989 68.2952 39.989C74.7839 39.989 80.0713 44.9241 80.0713 51.7337ZM74.9162 51.7337C74.9162 47.5082 71.8518 44.617 68.2952 44.617C64.7385 44.617 61.6741 47.5082 61.6741 51.7337C61.6741 55.9169 64.7385 58.8504 68.2952 58.8504C71.8518 58.8504 74.9162 55.9116 74.9162 51.7337Z" fill="#BFBFBF"/>
<path d="M105.478 51.7337C105.478 58.4957 100.19 63.4784 93.7014 63.4784C87.2126 63.4784 81.9253 58.4957 81.9253 51.7337C81.9253 44.9294 87.2126 39.989 93.7014 39.989C100.19 39.989 105.478 44.9241 105.478 51.7337ZM100.323 51.7337C100.323 47.5082 97.2581 44.617 93.7014 44.617C90.1448 44.617 87.0803 47.5082 87.0803 51.7337C87.0803 55.9169 90.1448 58.8504 93.7014 58.8504C97.2581 58.8504 100.323 55.9116 100.323 51.7337Z" fill="#BFBFBF"/>
<path d="M129.824 40.6986V61.784C129.824 70.4575 124.711 73.9999 118.667 73.9999C112.977 73.9999 109.553 70.1927 108.261 67.0791L112.75 65.2099C113.549 67.1215 115.507 69.3773 118.661 69.3773C122.53 69.3773 124.928 66.9891 124.928 62.4935V60.8044H124.748C123.594 62.2288 121.371 63.4731 118.566 63.4731C112.697 63.4731 107.319 58.358 107.319 51.7761C107.319 45.1465 112.697 39.989 118.566 39.989C121.366 39.989 123.589 41.2334 124.748 42.6154H124.928V40.7039H129.824V40.6986ZM125.293 51.7761C125.293 47.6405 122.536 44.617 119.027 44.617C115.47 44.617 112.49 47.6405 112.49 51.7761C112.49 55.8693 115.47 58.8504 119.027 58.8504C122.536 58.8504 125.293 55.8693 125.293 51.7761Z" fill="#BFBFBF"/>
<path d="M137.893 28.3391V62.7578H132.865V28.3391H137.893Z" fill="#BFBFBF"/>
<path d="M157.488 55.5989L161.489 58.2676C160.198 60.1792 157.086 63.4728 151.709 63.4728C145.04 63.4728 140.06 58.3153 140.06 51.7281C140.06 44.7438 145.082 39.9834 151.132 39.9834C157.224 39.9834 160.203 44.8338 161.177 47.4549L161.712 48.7893L146.019 55.2918C147.221 57.6481 149.089 58.8501 151.709 58.8501C154.334 58.8501 156.154 57.5581 157.488 55.5989ZM145.172 51.3733L155.662 47.0154C155.085 45.5486 153.349 44.5267 151.306 44.5267C148.687 44.5267 145.04 46.8407 145.172 51.3733Z" fill="#BFBFBF"/>
<path d="M37.4872 48.6785V43.6957H54.2701C54.4342 44.5641 54.5189 45.5914 54.5189 46.7034C54.5189 50.4418 53.4974 55.0644 50.2054 58.358C47.0033 61.694 42.9121 63.4732 37.4925 63.4732C27.447 63.4732 19 55.2868 19 45.2366C19 35.1863 27.447 27 37.4925 27C43.0497 27 47.0086 29.1816 49.9831 32.0251L46.4688 35.5411C44.3358 33.5395 41.4461 31.9828 37.4872 31.9828C30.1516 31.9828 24.4144 37.8975 24.4144 45.2366C24.4144 52.5757 30.1516 58.4904 37.4872 58.4904C42.2453 58.4904 44.9551 56.5789 46.6911 54.842C48.0989 53.4335 49.0251 51.4214 49.3903 48.6732L37.4872 48.6785Z" fill="#BFBFBF"/>
</svg>
