<svg width="48" height="48" viewBox="0 0 48 48" fill="none" xmlns="http://www.w3.org/2000/svg">
<path d="M0.400391 6.41223H46.5692C46.9737 6.41223 47.302 6.74055 47.302 7.14508V46.719C47.302 47.1242 46.9737 47.4518 46.5692 47.4518H6.26319C3.02472 47.4518 0.400391 44.8267 0.400391 41.589V6.41223Z" fill="#EDEAF3"/>
<path d="M0.400391 6.41223H42.9042V41.5883H4.79749C2.36956 41.5883 0.400391 39.6206 0.400391 37.1912V6.41223Z" fill="white"/>
<path d="M1.09927 6.96036V41.5875C1.09927 44.5174 3.48323 46.9007 6.41243 46.9007H46.7184C46.8196 46.9007 46.9017 46.8186 46.9017 46.7174V7.14357C46.9017 7.04244 46.8196 6.96036 46.7184 6.96036H1.09927ZM46.7184 47.9999H6.41243C2.87643 47.9999 0 45.1235 0 41.5875V6.41072C0 6.10732 0.246237 5.86108 0.549637 5.86108H46.7184C47.4264 5.86108 48.0009 6.43637 48.0009 7.14357V46.7174C48.0009 47.4246 47.4264 47.9999 46.7184 47.9999Z" fill="#674EA0"/>
<path d="M0.400391 41.5896C0.400391 38.3519 3.02473 35.7268 6.26319 35.7268V0.550781C3.02473 0.550781 0.400391 3.17511 0.400391 6.41357V41.5896Z" fill="#EDEAF3"/>
<path d="M0.400391 32.7947C0.400391 29.557 3.02473 26.9319 6.26319 26.9319V0.550781C3.02473 0.550781 0.400391 3.17511 0.400391 6.41357V32.7947Z" fill="white"/>
<path d="M5.86281 1.12714C3.19084 1.40342 1.09928 3.66864 1.09928 6.41243V38.0027C2.15752 36.4417 3.88338 35.3695 5.86281 35.2002V1.12714ZM0.549639 42.1388C0.246238 42.1388 0 41.8926 0 41.5892V6.41243C0 2.87643 2.87644 0 6.41245 0C6.71659 0 6.96209 0.246237 6.96209 0.549637V35.7264C6.96209 36.0298 6.71659 36.276 6.41245 36.276C3.48324 36.276 1.09928 38.6593 1.09928 41.5892C1.09928 41.8926 0.853772 42.1388 0.549639 42.1388Z" fill="#674EA0"/>
<path d="M31.2968 15.9308H22.5004C22.0849 22.023 18.8369 27.2064 18.8369 27.2064L26.8983 39.382L34.9596 27.2064C34.9596 27.2064 31.7131 22.023 31.2968 15.9308Z" fill="#DE7885"/>
<path d="M28.3068 15.9308H22.5005C22.0849 22.023 18.8369 27.2064 18.8369 27.2064L26.8983 39.382L31.9703 27.2064C31.9703 27.2064 28.0979 22.5118 28.3068 15.9308Z" fill="#FFBAC3"/>
<path d="M19.4343 27.1895L26.8464 38.3852L34.2591 27.1895C33.5732 26.0103 31.22 21.644 30.7378 16.4789H22.9557C22.4735 21.644 20.1218 26.0103 19.4343 27.1895ZM26.8464 39.9301C26.6624 39.9301 26.4902 39.8378 26.3883 39.6839L18.327 27.5083C18.2075 27.3288 18.2046 27.0957 18.3197 26.9132C18.3519 26.8627 21.4988 21.7686 21.8996 15.8919C21.9194 15.6039 22.1591 15.3796 22.4486 15.3796H31.2442C31.5337 15.3796 31.774 15.6039 31.7931 15.8919C32.1947 21.7789 35.3416 26.8619 35.3738 26.9125C35.4881 27.0957 35.4852 27.3288 35.3657 27.5083L27.3044 39.6839C27.204 39.8378 27.0318 39.9301 26.8464 39.9301Z" fill="#674EA0"/>
<path d="M24.9974 28.376C23.9956 27.3742 23.9956 25.7502 24.9974 24.7484C25.9985 23.7458 27.6232 23.7458 28.6243 24.7484C29.6261 25.7502 29.6261 27.3742 28.6243 28.376C27.6232 29.3771 25.9992 29.3771 24.9974 28.376Z" fill="white"/>
<path d="M28.6707 24.7433C28.3915 24.464 28.0617 24.2706 27.7121 24.1467C28.0316 25.0496 27.8382 26.0932 27.1163 26.8158C26.3944 27.5376 25.3509 27.7311 24.4473 27.4116C24.5711 27.7611 24.7639 28.0909 25.0438 28.3709C26.0456 29.372 27.6696 29.372 28.6707 28.3709C29.6725 27.3691 29.6725 25.7451 28.6707 24.7433Z" fill="#EDEAF3"/>
<path d="M26.7611 24.5447C25.6501 24.5447 24.7458 25.449 24.7458 26.56C24.7458 27.6718 25.6501 28.5754 26.7611 28.5754C27.8728 28.5754 28.7764 27.6718 28.7764 26.56C28.7764 25.449 27.8728 24.5447 26.7611 24.5447ZM26.7611 29.6747C25.0448 29.6747 23.6465 28.2778 23.6465 26.56C23.6465 24.8422 25.0448 23.4454 26.7611 23.4454C28.4796 23.4454 29.8757 24.8422 29.8757 26.56C29.8757 28.2778 28.4796 29.6747 26.7611 29.6747Z" fill="#674EA0"/>
<path d="M26.7996 39.9397C26.497 39.9397 26.25 39.6935 26.25 39.3901V29.1302C26.25 28.8268 26.497 28.5806 26.7996 28.5806C27.1038 28.5806 27.3493 28.8268 27.3493 29.1302V39.3901C27.3493 39.6935 27.1038 39.9397 26.7996 39.9397Z" fill="#674EA0"/>
<path d="M31.2325 15.9258H22.4361L20.2383 10.7959H33.4296L31.2325 15.9258Z" fill="#DE7885"/>
<path d="M28.3004 15.9258H22.4361L20.2383 10.7959H29.0325L28.3004 15.9258Z" fill="#FFBAC3"/>
<path d="M22.7482 15.3748H30.8198L32.5457 11.3441H21.0216L22.7482 15.3748ZM31.1811 16.4741H22.3855C22.1656 16.4741 21.9663 16.3429 21.8798 16.1407L19.6834 11.0107C19.6102 10.8414 19.6277 10.6465 19.7296 10.4918C19.8307 10.3379 20.0037 10.2449 20.1876 10.2449H33.3789C33.5643 10.2449 33.7366 10.3379 33.8377 10.4918C33.9396 10.6465 33.9579 10.8414 33.8853 11.0107L31.6875 16.1407C31.601 16.3429 31.401 16.4741 31.1811 16.4741Z" fill="#674EA0"/>
<path d="M43.0148 42.1289H10.7694C10.4667 42.1289 10.2197 41.8827 10.2197 41.5793C10.2197 41.2759 10.4667 41.0297 10.7694 41.0297H43.0148C43.3189 41.0297 43.5644 41.2759 43.5644 41.5793C43.5644 41.8827 43.3189 42.1289 43.0148 42.1289Z" fill="#674EA0"/>
<path d="M10.6572 42.8332C9.97272 42.8332 9.41797 42.2777 9.41797 41.5933C9.41797 40.9088 9.97272 40.3533 10.6572 40.3533C11.3424 40.3533 11.8979 40.9088 11.8979 41.5933C11.8979 42.2777 11.3424 42.8332 10.6572 42.8332Z" fill="#674EA0"/>
<path d="M42.9207 42.8325C43.6059 42.8325 44.1614 42.277 44.1614 41.5925C44.1614 40.908 43.6059 40.3525 42.9207 40.3525C42.2362 40.3525 41.6807 40.908 41.6807 41.5925C41.6807 42.277 42.2362 42.8325 42.9207 42.8325Z" fill="#674EA0"/>
<path d="M26.8921 42.1202C17.6999 42.1202 10.2197 34.6407 10.2197 25.4478C10.2197 25.1444 10.4667 24.8982 10.7694 24.8982C11.0735 24.8982 11.319 25.1444 11.319 25.4478C11.319 34.0354 18.306 41.0209 26.8921 41.0209C35.4796 41.0209 42.4651 34.0354 42.4651 25.4478C42.4651 25.1444 42.7121 24.8982 43.0148 24.8982C43.3189 24.8982 43.5644 25.1444 43.5644 25.4478C43.5644 34.6407 36.0849 42.1202 26.8921 42.1202Z" fill="#674EA0"/>
<path d="M29.0436 39.3765H24.6465V43.7736H29.0436V39.3765Z" fill="white"/>
<path d="M25.1461 43.2225H28.444V39.9247H25.1461V43.2225ZM28.9936 44.3218H24.5965C24.2938 44.3218 24.0469 44.0756 24.0469 43.7722V39.3751C24.0469 39.0717 24.2938 38.8254 24.5965 38.8254H28.9936C29.2977 38.8254 29.5432 39.0717 29.5432 39.3751V43.7722C29.5432 44.0756 29.2977 44.3218 28.9936 44.3218Z" fill="#674EA0"/>
<path d="M38.5754 4.03018H27.8026C27.4992 4.03018 27.2529 3.78394 27.2529 3.48054C27.2529 3.17715 27.4992 2.93091 27.8026 2.93091H38.5754C38.8781 2.93091 39.1251 3.17715 39.1251 3.48054C39.1251 3.78394 38.8781 4.03018 38.5754 4.03018Z" fill="#674EA0"/>
<path d="M24.8778 4.03018H23.1922C22.8895 4.03018 22.6426 3.78394 22.6426 3.48054C22.6426 3.17715 22.8895 2.93091 23.1922 2.93091H24.8778C25.1812 2.93091 25.4274 3.17715 25.4274 3.48054C25.4274 3.78394 25.1812 4.03018 24.8778 4.03018Z" fill="#674EA0"/>
<path d="M12.899 14.2747H9.9676C9.66347 14.2747 9.41797 14.0284 9.41797 13.7251C9.41797 13.4217 9.66347 13.1754 9.9676 13.1754H12.899C13.2017 13.1754 13.4486 13.4217 13.4486 13.7251C13.4486 14.0284 13.2017 14.2747 12.899 14.2747Z" fill="#674EA0"/>
<path d="M11.3709 15.7536C11.0668 15.7536 10.8213 15.5073 10.8213 15.2039V12.2725C10.8213 11.9691 11.0668 11.7229 11.3709 11.7229C11.6736 11.7229 11.9206 11.9691 11.9206 12.2725V15.2039C11.9206 15.5073 11.6736 15.7536 11.3709 15.7536Z" fill="#674EA0"/>
<path d="M16.5064 21.6142H13.575C13.2709 21.6142 13.0254 21.3679 13.0254 21.0645C13.0254 20.7611 13.2709 20.5149 13.575 20.5149H16.5064C16.8091 20.5149 17.056 20.7611 17.056 21.0645C17.056 21.3679 16.8091 21.6142 16.5064 21.6142Z" fill="#674EA0"/>
<path d="M15.1785 23.0675C14.8744 23.0675 14.6289 22.8213 14.6289 22.5179V19.5865C14.6289 19.2831 14.8744 19.0369 15.1785 19.0369C15.4812 19.0369 15.7282 19.2831 15.7282 19.5865V22.5179C15.7282 22.8213 15.4812 23.0675 15.1785 23.0675Z" fill="#674EA0"/>
<path d="M39.9517 17.2055H37.0203C36.7169 17.2055 36.4707 16.9592 36.4707 16.6558C36.4707 16.3524 36.7169 16.1062 37.0203 16.1062H39.9517C40.2551 16.1062 40.5014 16.3524 40.5014 16.6558C40.5014 16.9592 40.2551 17.2055 39.9517 17.2055Z" fill="#674EA0"/>
<path d="M38.6239 18.6837C38.3205 18.6837 38.0742 18.4375 38.0742 18.1341V15.2027C38.0742 14.8993 38.3205 14.6531 38.6239 14.6531C38.9273 14.6531 39.1735 14.8993 39.1735 15.2027V18.1341C39.1735 18.4375 38.9273 18.6837 38.6239 18.6837Z" fill="#674EA0"/>
</svg>
