<svg width="53" height="53" viewBox="0 0 53 53" fill="none" xmlns="http://www.w3.org/2000/svg">
<path d="M49.592 49.5918C50.3323 48.8511 50.7488 47.8471 50.7502 46.7997L50.7496 13.2498H2.44963V46.7999C2.45106 47.8472 2.86755 48.8512 3.60782 49.5918C4.34859 50.3322 5.35258 50.7487 6.4 50.7501H46.7998C47.8472 50.7487 48.8512 50.3322 49.5919 49.5919C49.5919 49.5919 49.592 49.5919 49.592 49.5918ZM49.592 49.5918L49.7687 49.7686L49.592 49.5918ZM46.8008 0.75H46.8004L2.58391 2.58391L2.40713 2.40713C2.40713 2.40713 2.40713 2.40713 2.40713 2.40713C1.34822 3.46604 0.7522 4.90201 0.75 6.39959V6.39995L0.75 46.8004L0.75 46.8008C0.752242 48.2984 1.34821 49.7343 2.40713 50.7932C3.46604 51.8521 4.90201 52.4482 6.39959 52.4504H6.39995H46.8004H46.8008C48.2984 52.4481 49.7343 51.8522 50.7932 50.7932C51.8521 49.7343 52.4482 48.2984 52.4504 46.8008V46.8004V6.39995V6.39958C52.4481 4.90201 51.8522 3.46605 50.7932 2.40713C49.7343 1.34822 48.2984 0.7522 46.8008 0.75ZM39.2004 6.25005H45.6004C46.1252 6.25005 46.5504 6.67526 46.5504 7.20005C46.5504 7.72483 46.1252 8.15005 45.6004 8.15005H39.2004C38.6756 8.15005 38.2504 7.72483 38.2504 7.20005C38.2504 6.67526 38.6756 6.25005 39.2004 6.25005ZM20.0004 6.25005C20.3846 6.25005 20.731 6.48158 20.878 6.83639L20.878 6.83645C21.0251 7.19169 20.9438 7.60022 20.6722 7.87187C20.4006 8.14351 19.9921 8.22473 19.6368 8.07769C19.2819 7.93067 19.0504 7.58428 19.0504 7.20008C19.0504 6.6753 19.4756 6.25005 20.0004 6.25005ZM13.6004 6.25005C13.9846 6.25005 14.331 6.48158 14.478 6.83639L14.478 6.83645C14.6251 7.19168 14.5438 7.60022 14.2722 7.87187C14.0006 8.14351 13.5921 8.22473 13.2368 8.07769C12.8819 7.93067 12.6504 7.58428 12.6504 7.20008C12.6504 6.6753 13.0756 6.25005 13.6004 6.25005ZM7.20041 6.25005C7.5846 6.25005 7.93098 6.48158 8.078 6.83639L8.07802 6.83645C8.22506 7.19169 8.14385 7.60022 7.8722 7.87187C7.60056 8.14351 7.19206 8.22473 6.83679 8.07769C6.48194 7.93067 6.25037 7.58428 6.25037 7.20008C6.25037 6.6753 6.67563 6.25005 7.20041 6.25005Z" fill="#66509E" stroke="#66509E" stroke-width="0.5"/>
</svg>
