<svg width="120" height="120" viewBox="0 0 120 120" fill="none" xmlns="http://www.w3.org/2000/svg">
<path d="M25.9577 12.6006C25.7662 12.6006 25.5778 12.5106 25.4589 12.3418C25.2654 12.0668 25.3316 11.6866 25.6069 11.4931C27.4756 10.1779 29.4402 8.95826 31.4452 7.86705C31.7404 7.70639 32.1111 7.81574 32.2717 8.11097C32.4324 8.40677 32.3227 8.77658 32.0278 8.9378C30.0632 10.0063 28.139 11.2015 26.3079 12.4899C26.2013 12.5647 26.0788 12.6006 25.9577 12.6006V12.6006ZM15.814 21.6365C15.6696 21.6365 15.525 21.5852 15.4083 21.4817C15.1577 21.2577 15.1358 20.8725 15.3596 20.6213C16.8792 18.9174 18.5152 17.2828 20.2212 15.7629C20.4727 15.5392 20.8577 15.5616 21.0817 15.8128C21.3057 16.0641 21.283 16.4493 21.0318 16.673C19.3602 18.1618 17.7576 19.7633 16.2688 21.4324C16.1482 21.5672 15.9814 21.6365 15.814 21.6365V21.6365ZM7.99666 32.7471C7.89825 32.7471 7.79899 32.7236 7.70647 32.6734C7.41068 32.513 7.30105 32.1429 7.46198 31.8474C8.55096 29.8411 9.7703 27.8756 11.0861 26.0058C11.2798 25.7305 11.6597 25.6643 11.9353 25.8581C12.2104 26.0518 12.2766 26.4317 12.0828 26.707C10.7939 28.5387 9.59984 30.4638 8.53273 32.4289C8.42198 32.6319 8.21255 32.7471 7.99666 32.7471V32.7471ZM2.94208 45.3589C2.88909 45.3589 2.83582 45.3522 2.7817 45.3376C2.45703 45.2493 2.26526 44.9145 2.35357 44.5898C2.95329 42.3827 3.68787 40.1888 4.5374 38.0698C4.66301 37.7574 5.0174 37.6055 5.32946 37.7308C5.6418 37.8561 5.79348 38.2108 5.66843 38.5231C4.83628 40.5987 4.11684 42.7472 3.52946 44.9092C3.456 45.1806 3.2104 45.3589 2.94208 45.3589V45.3589ZM0.902919 58.7883C0.895349 58.7883 0.887498 58.7883 0.879928 58.788C0.54376 58.7754 0.28105 58.493 0.293386 58.1566C0.342732 56.829 0.436937 55.4835 0.574601 54.1579C0.672451 53.2099 0.794694 52.2533 0.936564 51.3146C0.987031 50.9821 1.29684 50.7536 1.63077 50.8035C1.96329 50.854 2.19208 51.1643 2.14133 51.4971C2.00198 52.417 1.88255 53.3543 1.78666 54.2835C1.65208 55.5825 1.55955 56.9008 1.51133 58.2017C1.49927 58.53 1.22871 58.7883 0.902919 58.7883V58.7883ZM1.96554 72.3312C1.6804 72.3312 1.42554 72.1296 1.36862 71.8394C0.927592 69.5995 0.613573 67.308 0.434694 65.0291C0.408339 64.6935 0.659274 64.4002 0.994601 64.3739C1.33049 64.3475 1.62348 64.5984 1.64955 64.9338C1.82451 67.1661 2.13236 69.4102 2.56413 71.6039C2.62918 71.9341 2.41413 72.2546 2.08413 72.3194C2.04404 72.3272 2.00451 72.3312 1.96554 72.3312V72.3312Z" fill="#66509E"/>
<path d="M86.9621 113.376C86.7418 113.376 86.5287 113.255 86.4207 113.048C86.266 112.748 86.3832 112.381 86.6818 112.226C88.6685 111.199 90.6182 110.044 92.4757 108.795C92.7547 108.607 93.1335 108.682 93.3213 108.961C93.5094 109.24 93.4349 109.619 93.1556 109.806C91.2592 111.082 89.2696 112.26 87.2414 113.309C87.1522 113.353 87.0564 113.376 86.9621 113.376V113.376ZM40.7167 116.754C40.6511 116.754 40.5844 116.743 40.5191 116.721C38.3577 115.981 36.2162 115.106 34.1551 114.122C33.8518 113.976 33.7234 113.611 33.868 113.309C34.0133 113.006 34.3775 112.877 34.6808 113.023C36.6995 113.987 38.7965 114.845 40.9138 115.568C41.2321 115.678 41.4017 116.023 41.2929 116.342C41.2065 116.595 40.9694 116.754 40.7167 116.754V116.754ZM74.257 118.182C73.9839 118.182 73.7358 117.996 73.666 117.722C73.5841 117.394 73.7826 117.063 74.109 116.982C76.2777 116.438 78.4393 115.762 80.5329 114.968C80.848 114.848 81.1994 115.008 81.3182 115.322C81.4374 115.636 81.279 115.989 80.9641 116.107C78.8263 116.917 76.6197 117.61 74.4053 118.165C74.3557 118.176 74.3061 118.182 74.257 118.182ZM53.9922 119.645C53.9711 119.645 53.9504 119.645 53.9299 119.643L53.7491 119.623C51.5299 119.393 49.3068 119.039 47.1407 118.568C46.8121 118.496 46.6037 118.17 46.6752 117.842C46.7465 117.514 47.0706 117.307 47.3997 117.377C49.5216 117.837 51.7004 118.187 53.8747 118.411L54.0527 118.428C54.3872 118.462 54.6311 118.762 54.5975 119.096C54.5652 119.41 54.3008 119.645 53.9922 119.645ZM60.7881 119.939C60.4559 119.939 60.1839 119.673 60.1792 119.339C60.1744 119.003 60.4436 118.725 60.7803 118.72C63.0205 118.689 65.28 118.526 67.4952 118.238C67.8289 118.196 68.1348 118.431 68.1779 118.765C68.2217 119.098 67.9867 119.404 67.6525 119.446C65.391 119.74 63.0844 119.906 60.7971 119.939C60.794 119.939 60.7912 119.939 60.7881 119.939Z" fill="#66509E"/>
<path d="M98.3603 16.0701C98.2196 16.0701 98.0783 16.0219 97.9633 15.9232C96.264 14.4639 94.4637 13.0886 92.6118 11.8365C92.3329 11.6484 92.26 11.2696 92.4484 10.9906C92.6368 10.7122 93.0156 10.6387 93.2946 10.8271C95.1848 12.1051 97.0232 13.5086 98.7574 14.9988C99.0125 15.2181 99.0422 15.6028 98.8224 15.8579C98.7021 15.9984 98.5314 16.0701 98.3603 16.0701V16.0701ZM107.584 26.0439C107.396 26.0439 107.211 25.9578 107.091 25.7946C105.77 23.9885 104.33 22.24 102.81 20.5971C102.583 20.35 102.597 19.9645 102.844 19.7357C103.091 19.5075 103.477 19.5227 103.706 19.7697C105.256 21.4466 106.726 23.2317 108.075 25.0749C108.273 25.3466 108.215 25.7276 107.943 25.9264C107.834 26.006 107.708 26.0439 107.584 26.0439ZM114.296 37.8529C114.058 37.8529 113.833 37.7136 113.735 37.4817C112.861 35.4243 111.856 33.3942 110.75 31.4472C110.584 31.1548 110.685 30.7828 110.978 30.6165C111.27 30.4502 111.643 30.5523 111.809 30.845C112.938 32.8323 113.964 34.9051 114.856 37.0054C114.988 37.3152 114.843 37.6727 114.534 37.8044C114.456 37.8375 114.375 37.8529 114.296 37.8529V37.8529ZM118.125 50.8822C117.834 50.8822 117.576 50.6725 117.526 50.3758C117.147 48.1718 116.636 45.9658 116.005 43.8193C115.91 43.4963 116.095 43.1576 116.417 43.0628C116.74 42.9678 117.079 43.1526 117.174 43.4753C117.818 45.6672 118.341 47.9195 118.727 50.1698C118.783 50.5014 118.56 50.8166 118.229 50.8732C118.194 50.8791 118.16 50.8822 118.125 50.8822ZM118.861 64.443C118.849 64.443 118.836 64.4425 118.823 64.4416C118.488 64.4212 118.232 64.1327 118.252 63.7968C118.325 62.6083 118.362 61.4038 118.362 60.2164C118.362 59.1681 118.333 58.1074 118.276 57.0633C118.258 56.7274 118.516 56.44 118.852 56.4221C119.19 56.4036 119.475 56.6615 119.494 56.9977C119.551 58.0631 119.58 59.1465 119.58 60.2164C119.58 61.4282 119.543 62.6576 119.469 63.8705C119.449 64.1941 119.181 64.443 118.861 64.443V64.443ZM116.5 77.8219C116.443 77.8219 116.384 77.8138 116.326 77.7964C116.003 77.7005 115.82 77.361 115.916 77.0385C116.554 74.8985 117.074 72.6936 117.463 70.4851C117.521 70.1537 117.837 69.9322 118.168 69.9905C118.5 70.0491 118.721 70.3648 118.663 70.6965C118.266 72.9507 117.735 75.2015 117.084 77.3862C117.005 77.6509 116.763 77.8219 116.5 77.8219V77.8219Z" fill="#66509E"/>
<path d="M16.6991 55.7995C19.1694 31.9285 40.523 14.5801 64.3943 17.0507C88.2648 19.5208 105.613 40.8746 103.143 64.7454C100.672 88.6164 79.3186 105.965 55.4478 103.494C31.5774 101.024 14.229 79.6703 16.6991 55.7995V55.7995Z" fill="#EDEAF3"/>
<path d="M112.361 79.0548C108.254 79.0918 104.71 79.4835 101.037 81.8109C99.7959 82.5968 98.2435 82.6663 96.9417 81.9853C91.8179 79.3032 85.4383 80.4937 80.2595 85.8614C83.5015 79.322 82.4055 66.8454 87.686 63.2151C88.0463 62.9678 88.5378 63.0516 88.8016 63.3999C90.4589 65.5831 91.7338 66.7144 94.8016 66.5356L97.8989 67.0088L102.702 65.6818C103.589 64.7294 104.36 63.4015 104.995 61.4471C104.09 58.0265 102.33 56.7805 99.863 53.2419C92.1316 52.2085 88.5524 52.1734 82.6034 54.3609C82.184 54.5154 81.8226 54.7946 81.57 55.1636C76.3715 62.7612 64.6847 77.4012 61.443 88.5598C61.3488 88.8842 61.2005 89.1917 61.0023 89.4648C59.3102 91.7956 59.8662 93.071 61.11 94.7664C61.2403 94.9447 61.3446 95.141 61.4349 95.3428C62.7157 98.2094 65.4255 100.105 68.2516 101.316C75.139 103.828 93.3897 107.839 102.172 104.315C102.548 104.165 102.952 104.163 103.31 104.288L112.361 79.0548V79.0548Z" fill="white"/>
<path d="M92.9353 106.328C89.9465 106.328 86.9373 106.046 84.3839 105.702C77.8506 104.825 71.4505 103.165 68.007 101.909C67.9963 101.905 67.9857 101.901 67.9756 101.896C64.4263 100.374 62.0263 98.2591 60.8429 95.6113C60.7568 95.4189 60.6741 95.2712 60.583 95.1464C59.3507 93.467 58.4925 91.8548 60.4733 89.1268C60.6284 88.9131 60.7459 88.6717 60.8218 88.4096C63.4683 79.3002 71.5313 68.1038 77.4191 59.9284C78.8218 57.9798 80.0339 56.297 81.0312 54.8393C81.3556 54.3649 81.814 54.0086 82.3573 53.8089C88.3245 51.6144 91.9733 51.5973 99.9082 52.658C100.078 52.6804 100.23 52.7732 100.327 52.9134C101.058 53.9615 101.736 54.8183 102.334 55.5739C103.758 57.3739 104.883 58.7954 105.548 61.3109C105.578 61.4242 105.575 61.5436 105.539 61.6552C104.916 63.5732 104.122 65.0331 103.111 66.1171C103.035 66.1995 102.937 66.2592 102.828 66.2889L98.0255 67.6157C97.9428 67.6386 97.8561 67.6437 97.7712 67.6308L94.7367 67.1673C91.5578 67.3361 90.1178 66.2085 88.2808 63.788C88.2116 63.6969 88.0859 63.6747 87.9954 63.737C85.0624 65.7531 84.1854 71.0214 83.3373 76.1163C82.9063 78.7078 82.4639 81.3629 81.7444 83.6642C86.5781 79.7808 92.3129 78.913 97.1886 81.4653C98.2865 82.04 99.6222 81.9829 100.675 81.3158C104.335 78.9966 107.844 78.5054 112.319 78.4653C112.655 78.4684 112.931 78.7322 112.934 79.0689C112.937 79.4054 112.667 79.6807 112.33 79.6835C108.07 79.7222 104.743 80.1809 101.327 82.3454C99.9076 83.244 98.1057 83.3205 96.6236 82.545C91.5685 79.8988 85.4524 81.3394 80.6625 86.3043C80.4536 86.5204 80.118 86.5521 79.8724 86.3788C79.6271 86.2058 79.5446 85.8798 79.6778 85.6103C80.9479 83.0477 81.5518 79.4225 82.1353 75.9161C83.0255 70.5702 83.9459 65.0421 87.3054 62.7327C87.9331 62.3012 88.7883 62.4408 89.2512 63.0512C90.8992 65.2224 92.0249 66.1042 94.7308 65.9469C94.7731 65.9446 94.8155 65.9466 94.8578 65.953L97.8267 66.4067L102.334 65.1615C103.138 64.2537 103.791 63.0363 104.324 61.4497C103.718 59.2872 102.731 58.0398 101.379 56.3303C100.812 55.614 100.175 54.8087 99.4826 53.8305C91.8337 52.8184 88.4824 52.8551 82.7779 54.9526C82.474 55.0647 82.2177 55.2632 82.0366 55.5273C81.0312 56.9973 79.8155 58.6857 78.4077 60.6405C72.5717 68.7439 64.58 79.8422 61.9921 88.7494C61.8766 89.147 61.6972 89.5151 61.4597 89.8426C59.9998 91.8531 60.3923 92.8263 61.5657 94.4258C61.7073 94.6193 61.8351 94.8447 61.9551 95.1142C63.0079 97.4699 65.1901 99.3725 68.4402 100.77C75.7013 103.414 93.5246 107.133 101.909 103.77C102.412 103.568 102.968 103.555 103.476 103.733C103.793 103.845 103.96 104.192 103.849 104.51C103.737 104.827 103.39 104.995 103.072 104.883C102.843 104.803 102.591 104.809 102.362 104.901C99.7184 105.962 96.3402 106.328 92.9353 106.328V106.328Z" fill="#66509E"/>
<path d="M102.764 65.8691C102.331 64.9189 101.74 64.4555 100.828 64.0161C100.579 63.8961 100.286 63.8959 100.035 64.0142C99.0079 64.5006 98.1844 65.097 97.825 66.3875C97.7566 66.6309 97.8003 66.8947 97.9324 67.1098C98.4393 67.9332 98.9465 68.4127 99.8008 68.7657C99.9149 68.8131 100.04 68.8369 100.163 68.8285C101.157 68.7598 102.433 67.5017 102.793 66.5204C102.871 66.309 102.858 66.0744 102.764 65.8691V65.8691Z" fill="white"/>
<path d="M100.454 64.5598C100.408 64.5598 100.362 64.5696 100.319 64.5895C99.3732 65.037 98.7278 65.5254 98.4348 66.5757C98.4138 66.6511 98.4292 66.7403 98.4746 66.8149C98.9372 67.5657 99.3513 67.9352 100.057 68.2274C100.089 68.2403 100.121 68.247 100.145 68.2451C100.815 68.1988 101.934 67.181 102.245 66.3349C102.266 66.2774 102.262 66.2084 102.233 66.1462C101.9 65.4144 101.485 65.0216 100.587 64.5895C100.546 64.5696 100.5 64.5598 100.454 64.5598V64.5598ZM100.138 69.4638C99.955 69.4638 99.7674 69.4263 99.591 69.3531C98.6532 68.9651 98.0285 68.415 97.4369 67.4536C97.2135 67.0899 97.1487 66.6506 97.2611 66.2482C97.7019 64.6686 98.741 63.9881 99.7988 63.488C100.219 63.2892 100.699 63.2906 101.116 63.4916C102.075 63.9534 102.821 64.4956 103.342 65.6412C103.503 65.9931 103.52 66.3991 103.388 66.7552C102.955 67.9353 101.48 69.3738 100.229 69.4608C100.199 69.463 100.169 69.4638 100.138 69.4638Z" fill="#66509E"/>
<path d="M101.431 64.9487C101.361 64.9487 101.29 64.9363 101.22 64.9103C100.904 64.7931 100.743 64.4426 100.86 64.1272C101.272 63.0166 101.441 62.058 101.603 61.1314C100.757 59.2047 98.4486 55.7704 98.4245 55.735C98.2363 55.4561 98.3101 55.0776 98.5891 54.8894C98.8683 54.701 99.2468 54.775 99.4349 55.0543C99.5378 55.2071 101.97 58.8239 102.797 60.8261C102.841 60.9329 102.854 61.0501 102.834 61.1642L102.805 61.3268C102.634 62.3118 102.456 63.3304 102.003 64.5511C101.912 64.7967 101.679 64.9487 101.431 64.9487V64.9487Z" fill="#66509E"/>
<path d="M98.9826 65.1074C98.9599 65.1074 98.9366 65.1063 98.9139 65.1038C98.5794 65.0662 98.3386 64.7648 98.3758 64.4303L98.7392 61.1886L95.3778 56.2039C95.1894 55.9246 95.2631 55.5461 95.5421 55.358C95.8211 55.1699 96.1999 55.2439 96.3877 55.5226L99.8747 60.6932C99.9558 60.8132 99.9911 60.9579 99.9748 61.1017L99.5871 64.566C99.552 64.8773 99.2885 65.1074 98.9826 65.1074V65.1074Z" fill="#66509E"/>
<path d="M92.568 57.6285C92.5727 57.6338 92.5772 57.638 92.5809 57.6417C92.5764 57.6375 92.5722 57.633 92.568 57.6285ZM97.9657 65.6912C96.7795 65.6912 95.2991 65.205 94.3267 64.1267C94.2084 63.9958 94.1529 63.8203 94.1742 63.6453L94.4924 61.0263C93.6659 59.502 92.7466 57.8618 92.5626 57.6229C92.3428 57.3835 92.3493 57.0117 92.5809 56.7801C92.8189 56.5421 93.2047 56.5421 93.4424 56.7801C93.6446 56.982 94.389 58.2725 95.6568 60.617C95.7168 60.728 95.741 60.855 95.7255 60.9804L95.4196 63.5018C96.3667 64.3855 97.7428 64.5815 98.4695 64.4248C98.7981 64.3535 99.1223 64.563 99.1932 64.8919C99.2641 65.221 99.0553 65.5451 98.7264 65.6161C98.4951 65.6657 98.238 65.6912 97.9657 65.6912V65.6912Z" fill="#66509E"/>
<path d="M93.3246 64.7782C92.5951 64.7782 91.9154 64.5082 91.2969 64.2222C91.2451 64.1981 91.1963 64.167 91.1531 64.1291C90.4261 63.4972 90.4499 62.762 90.4802 61.8315C90.4844 61.7019 90.4889 61.5643 90.4917 61.4176C90.4984 61.0812 90.7816 60.8134 91.113 60.8204C91.4497 60.8272 91.7169 61.1056 91.7102 61.442C91.7074 61.5943 91.7024 61.737 91.6979 61.871C91.6715 62.6964 91.685 62.942 91.8958 63.1562C92.9495 63.6346 93.6072 63.7512 94.4113 63.1742C94.685 62.9779 95.0654 63.041 95.2617 63.3141C95.4574 63.5877 95.3952 63.9685 95.1215 64.1645C94.4952 64.6136 93.8943 64.7779 93.3246 64.7782V64.7782Z" fill="#66509E"/>
<path d="M85.6237 62.6179C85.5536 62.6179 85.4821 62.6059 85.4129 62.5801C84.2855 62.1649 83.5621 61.4692 82.9164 60.179C82.7653 59.8784 82.8873 59.5122 83.1881 59.3614C83.489 59.2108 83.8546 59.3328 84.0057 59.6334C84.5833 60.7868 85.1339 61.1788 85.834 61.4367C86.1497 61.5531 86.3115 61.9033 86.1954 62.219C86.1049 62.4654 85.8713 62.6179 85.6237 62.6179Z" fill="#66509E"/>
<path d="M93.2939 96.1654C89.3008 96.1654 84.7716 94.2739 82.9719 91.8518C82.7712 91.5815 82.8273 91.2002 83.0975 90.9992C83.3675 90.7984 83.7488 90.8548 83.9496 91.1248C85.3178 92.9657 89.2747 94.9466 93.2919 94.9466C93.3026 94.9466 93.3124 94.9466 93.323 94.9466C95.3835 94.9412 98.2304 94.4049 100.088 91.879C100.287 91.6079 100.669 91.5498 100.94 91.7492C101.211 91.9482 101.269 92.3296 101.07 92.601C98.9112 95.5359 95.667 96.1595 93.3256 96.1654C93.3152 96.1654 93.3048 96.1654 93.2939 96.1654V96.1654Z" fill="#66509E"/>
<path d="M111.588 100.197C111.497 100.197 111.405 100.177 111.318 100.134C109.107 99.0419 108.237 97.3431 107.135 95.1932C106.497 93.9475 105.774 92.5358 104.646 90.9646C104.449 90.6915 104.512 90.3105 104.786 90.1145C105.059 89.918 105.439 89.9808 105.635 90.2539C106.818 91.8991 107.562 93.354 108.22 94.6375C109.258 96.6638 110.008 98.1276 111.858 99.0414C112.16 99.1902 112.283 99.5558 112.135 99.8575C112.029 100.073 111.812 100.197 111.588 100.197Z" fill="#66509E"/>
<path d="M71.0973 92.8485C70.7605 92.8485 70.4883 92.5757 70.4883 92.2393C70.4883 91.9026 70.7605 91.63 71.0973 91.63C73.2256 91.63 75.5451 90.3047 77.4603 87.9939C77.6751 87.7348 78.0587 87.6989 78.3183 87.9137C78.5768 88.1285 78.6127 88.5126 78.3982 88.7714C76.2508 91.3626 73.5895 92.8485 71.0973 92.8485V92.8485Z" fill="#66509E"/>
<path d="M43.6701 21.3312L34.9073 9.96094L34.1901 10.5865C25.4133 18.2451 20.2 29.4197 19.8874 41.2448L19.8633 42.1641H33.0294L33.8943 42.1159C33.9162 27.6096 43.6701 21.3312 43.6701 21.3312V21.3312Z" fill="white"/>
<path d="M99.9807 41.2641C99.6729 29.6415 94.604 18.5933 86.073 10.9534L85.357 10.3125L76.5608 21.6334L77.1675 22.1914C78.411 23.3364 79.5443 24.5905 80.5348 25.9195C80.5839 25.9846 80.5867 26.051 80.5794 26.0953C80.5735 26.1393 80.5516 26.2024 80.4874 26.2509C80.421 26.2997 80.3537 26.3017 80.31 26.296C80.2662 26.2893 80.2034 26.268 80.1544 26.2024C78.9703 24.6155 77.6158 23.1671 76.1285 21.8973L76.0432 21.8339C72.4289 18.7854 68.0635 16.8231 63.416 16.1589L63.1802 16.1241C62.9705 16.096 62.7597 16.0739 62.5494 16.052L62.474 16.0439C62.2382 16.0203 62.0013 15.9985 61.7301 15.9789C61.5689 15.9671 61.408 15.9553 61.2462 15.9469C60.8153 15.9245 60.3824 15.9085 59.9478 15.9085C46.2395 15.9085 35.0324 27.0399 34.4338 41.2501L34.3945 42.1834H49.8757L49.9539 41.374C50.47 36.0337 54.7662 32.0073 59.947 32.0073C63.2343 32.0073 66.3218 33.6895 68.2051 36.5075L68.6686 37.1998L88.6634 25.8547C88.7335 25.8146 88.7994 25.8208 88.8431 25.8326C88.8863 25.8446 88.9469 25.8735 88.987 25.9442C89.0512 26.058 89.0111 26.2032 88.8973 26.2677L68.8912 37.6195L69.192 38.3499C69.5885 39.3116 69.84 40.329 69.9412 41.374L70.0194 42.1834H85.5045L85.4655 41.2503C85.3497 38.4746 84.8195 35.7545 83.8906 33.1644C83.8629 33.0878 83.8797 33.0233 83.8987 32.9827C83.9178 32.942 83.9571 32.8882 84.033 32.8607C84.1556 32.8161 84.293 32.8806 84.3367 33.004C85.2916 35.665 85.8319 38.4634 85.9418 41.3221L85.9752 42.1834H100.005L99.9807 41.2641V41.2641Z" fill="white"/>
<path d="M80.2636 25.7437C80.3119 25.8088 80.3147 25.8752 80.3077 25.9195C80.3051 25.9394 80.2973 25.9638 80.2858 25.9885C81.1449 26.8905 81.9013 27.8987 82.5577 28.9896L88.3917 25.679C88.4623 25.6391 88.5277 25.6448 88.5714 25.6568C88.6149 25.6686 88.6751 25.698 88.7152 25.7687C88.7794 25.8822 88.7399 26.0272 88.6255 26.0922L82.796 29.3998C84.9307 33.152 85.9258 37.7502 85.8865 42.0077H99.7331L99.709 41.0883C99.4014 29.4657 94.332 18.4178 85.801 10.7777L85.0855 10.1367L76.2891 21.4579L76.8955 22.0156C78.1395 23.1609 79.2728 24.4148 80.2636 25.7437Z" fill="#807DBB"/>
<path d="M59.9404 32.4609C55.1306 32.4609 51.052 36.2003 50.4532 41.159L50.332 42.1622H69.55L69.4289 41.159C68.83 36.2003 64.7508 32.4609 59.9404 32.4609Z" fill="#EE445B"/>
<path d="M84.2738 9.42218C77.2185 3.79452 68.7977 0.820312 59.9208 0.820312C51.227 0.820312 42.9481 3.68125 35.9789 9.09414L35.2734 9.64171L44.034 21.01C44.034 21.01 58.9737 8.26171 75.4661 20.7397L76.1738 21.2887L84.9655 9.97396L84.2738 9.42218Z" fill="#EE445B"/>
<path d="M85.2741 42.9958H33.7147C33.3786 42.9958 33.1055 42.723 33.1055 42.3866C33.1055 42.0501 33.3786 41.7773 33.7147 41.7773H85.2741C85.6105 41.7773 85.8836 42.0501 85.8836 42.3866C85.8836 42.723 85.6105 42.9958 85.2741 42.9958Z" fill="#66509E"/>
<path d="M100.224 43.022H85.7187C85.3822 43.022 85.1097 42.7492 85.1097 42.4127C85.1097 42.0763 85.3822 41.8035 85.7187 41.8035H99.6112C99.2955 19.3693 81.6202 1.2185 59.9389 1.2185C38.2573 1.2185 20.5814 19.3693 20.266 41.8035H33.5565C33.8697 26.9975 45.5843 15.053 59.9389 15.053C66.0019 15.053 71.9231 17.2374 76.611 21.2038C76.8678 21.4211 76.8998 21.8055 76.6825 22.0623C76.4655 22.3192 76.0808 22.3514 75.8237 22.1341C71.356 18.3538 65.7143 16.2718 59.9389 16.2718C46.0598 16.2718 34.7686 27.9984 34.7686 42.4127C34.7686 42.7492 34.4958 43.022 34.1596 43.022H19.6522C19.3161 43.022 19.043 42.7492 19.043 42.4127C19.043 31.0881 23.2946 20.4401 31.0135 12.4307C38.7384 4.41449 49.0107 0 59.9389 0C70.8667 0 81.139 4.41449 88.8639 12.4307C96.5832 20.4401 100.834 31.0881 100.834 42.4127C100.834 42.7492 100.561 43.022 100.224 43.022Z" fill="#66509E"/>
<path d="M76.3119 22.1322C76.1813 22.1322 76.0498 22.0904 75.9388 22.0038C75.673 21.7974 75.6247 21.4145 75.8314 21.1489L84.8429 9.55184C85.0487 9.28632 85.4316 9.2381 85.6977 9.44446C85.9635 9.65109 86.0112 10.0341 85.8051 10.2996L76.7933 21.8964C76.6733 22.0512 76.4936 22.1322 76.3119 22.1322V22.1322Z" fill="#66509E"/>
<path d="M43.948 21.9415C43.7652 21.9415 43.5849 21.8599 43.4647 21.704L34.4041 9.94627C34.1986 9.67935 34.2482 9.29692 34.5151 9.09141C34.7812 8.88617 35.1642 8.9358 35.3694 9.20215L44.4305 20.9602C44.6355 21.2268 44.5859 21.6093 44.3195 21.8148C44.2085 21.9 44.0778 21.9415 43.948 21.9415V21.9415Z" fill="#66509E"/>
<path d="M85.7196 43.017C85.3832 43.017 85.1101 42.7442 85.1101 42.4078C85.1101 39.2668 84.579 36.1944 83.5321 33.2763C83.4183 32.9595 83.5832 32.6107 83.8997 32.4969C84.2162 32.3833 84.5653 32.5479 84.6791 32.8647C85.7737 35.9152 86.3286 39.126 86.3286 42.4078C86.3286 42.7442 86.0555 43.017 85.7196 43.017V43.017Z" fill="#66509E"/>
<path d="M34.1252 43.0276C33.7881 43.0276 33.5156 42.7548 33.5156 42.4183C33.5156 35.1143 36.2574 28.2465 41.2368 23.0798C46.2216 17.9072 52.851 15.0586 59.9044 15.0586C64.0612 15.0586 68.0395 16.0321 71.7283 17.9518C75.2439 19.7815 78.3771 22.4585 80.79 25.6935C80.991 25.9632 80.9355 26.3448 80.6658 26.5461C80.3958 26.7474 80.0139 26.6913 79.8132 26.4219C75.0042 19.9747 67.7481 16.2774 59.9044 16.2774C46.0253 16.2774 34.7341 28.004 34.7341 42.4183C34.7341 42.7548 34.4613 43.0276 34.1252 43.0276V43.0276Z" fill="#66509E"/>
<path d="M69.7365 43.0359C69.4 43.0359 69.1269 42.7631 69.1269 42.4266C69.1269 37.1514 65.001 32.8591 59.9287 32.8591C54.857 32.8591 50.7305 37.1514 50.7305 42.4266C50.7305 42.7631 50.458 43.0359 50.1213 43.0359C49.7848 43.0359 49.5117 42.7631 49.5117 42.4266C49.5117 36.4793 54.1847 31.6406 59.9287 31.6406C65.6727 31.6406 70.3454 36.4793 70.3454 42.4266C70.3454 42.7631 70.0726 43.0359 69.7365 43.0359V43.0359Z" fill="#66509E"/>
<path d="M68.555 40.0073C67.6984 40.0073 66.8669 39.5593 66.4141 38.7613C65.7445 37.5807 66.1586 36.0804 67.3393 35.4103L87.5663 23.9335C88.7478 23.2645 90.2475 23.6775 90.9176 24.8581C91.5871 26.0391 91.1733 27.5396 89.9926 28.2097L69.7654 39.6866C69.3824 39.9038 68.966 40.0073 68.555 40.0073V40.0073Z" fill="#EE445B"/>
<path d="M88.7397 24.1873C88.4305 24.1873 88.1176 24.2644 87.8302 24.427L67.6037 35.9038C66.7172 36.4071 66.4048 37.5375 66.9078 38.4246C67.2356 39.0025 67.8527 39.3614 68.5186 39.3614C68.8354 39.3614 69.15 39.2781 69.4284 39.12L89.6554 27.6431C90.5419 27.1402 90.8543 26.0094 90.3513 25.1226C90.0112 24.5237 89.3846 24.1873 88.7397 24.1873V24.1873ZM68.5186 40.5799C67.4147 40.5799 66.3917 39.9844 65.8483 39.0258C65.0133 37.5544 65.5315 35.6787 67.002 34.844L87.2291 23.3669C88.7013 22.5333 90.577 23.0515 91.4108 24.5212C92.2458 25.9926 91.7276 27.8686 90.2571 28.703L70.0298 40.1801C69.568 40.4417 69.0457 40.5799 68.5186 40.5799Z" fill="#66509E"/>
<path d="M58.2422 60.6828L62.9079 51.9141L58.2422 60.6828Z" fill="white"/>
<path d="M58.2063 61.3153C58.1096 61.3153 58.0117 61.2923 57.9209 61.2435C57.6237 61.0856 57.5112 60.7169 57.6691 60.4195L62.3345 51.6513C62.4924 51.3541 62.8616 51.2417 63.1583 51.3996C63.4554 51.5577 63.5684 51.9264 63.41 52.2236L58.7446 60.992C58.635 61.1978 58.4239 61.3153 58.2063 61.3153Z" fill="#66509E"/>
<path d="M64.3183 54.0669C63.0975 54.8007 61.5131 54.4059 60.7788 53.1852C60.0457 51.9644 60.4399 50.38 61.6609 49.6463C62.8814 48.9125 64.4657 49.3073 65.1998 50.5281C65.9335 51.7488 65.5385 53.3329 64.3183 54.0669V54.0669Z" fill="white"/>
<path d="M63.0101 49.8515C62.6568 49.8515 62.3097 49.9474 61.9988 50.1339C61.5482 50.405 61.2295 50.8354 61.1024 51.3459C60.9752 51.8565 61.0548 52.3858 61.3256 52.8367C61.885 53.7675 63.0976 54.0695 64.0279 53.5101C64.479 53.239 64.7975 52.8086 64.9245 52.2983C65.0518 51.7878 64.9727 51.2582 64.7019 50.8076C64.4308 50.3565 64.0001 50.038 63.4898 49.911C63.3306 49.8714 63.1699 49.8515 63.0101 49.8515V49.8515ZM63.0188 55.0096C61.936 55.0096 60.8787 54.4583 60.281 53.4644C59.8427 52.7346 59.714 51.8775 59.9201 51.0512C60.1259 50.225 60.6415 49.5283 61.371 49.0897C62.1011 48.651 62.9582 48.5228 63.7842 48.7286C64.6108 48.9344 65.3072 49.4497 65.746 50.1796C66.6519 51.6863 66.1626 53.6489 64.6559 54.5545C64.1434 54.8629 63.5776 55.0096 63.0188 55.0096V55.0096Z" fill="#66509E"/>
<path d="M35.6872 61.2494L32.1094 55.2539L35.6872 61.2494V61.2494Z" fill="white"/>
<path d="M35.7115 61.8238C35.5043 61.8238 35.3018 61.7178 35.188 61.5266L31.6096 55.5311C31.4372 55.242 31.5316 54.8677 31.8207 54.6955C32.1098 54.5231 32.4835 54.6176 32.6565 54.9064L36.2344 60.9022C36.4065 61.191 36.3123 61.5653 36.0232 61.7374C35.9254 61.7957 35.8177 61.8238 35.7115 61.8238V61.8238Z" fill="#66509E"/>
<path d="M34.689 55.1375C34.689 56.5615 33.5347 57.7164 32.1101 57.7164C30.6858 57.7164 29.5312 56.5615 29.5312 55.1375C29.5312 53.7132 30.6858 52.5586 32.1101 52.5586C33.5347 52.5586 34.689 53.7132 34.689 55.1375Z" fill="white"/>
<path d="M32.1337 53.1328C31.0476 53.1328 30.1641 54.016 30.1641 55.1022C30.1641 56.1881 31.0476 57.0718 32.1337 57.0718C33.2196 57.0718 34.1031 56.1881 34.1031 55.1022C34.1031 54.016 33.2196 53.1328 32.1337 53.1328ZM32.1337 58.29C30.3755 58.29 28.9453 56.8601 28.9453 55.1022C28.9453 53.3442 30.3755 51.9141 32.1337 51.9141C33.8914 51.9141 35.3216 53.3442 35.3216 55.1022C35.3216 56.8601 33.8914 58.29 32.1337 58.29Z" fill="#66509E"/>
<path d="M23.9884 109.624C23.652 109.624 23.3789 109.351 23.3789 109.015V93.7147C23.3789 93.3783 23.652 93.1055 23.9884 93.1055C24.3243 93.1055 24.5974 93.3783 24.5974 93.7147V109.015C24.5974 109.351 24.3243 109.624 23.9884 109.624V109.624Z" fill="#66509E"/>
<path d="M14.2027 109.624C13.8668 109.624 13.5938 109.351 13.5938 109.015V93.7147C13.5938 93.3783 13.8668 93.1055 14.2027 93.1055C14.5392 93.1055 14.8123 93.3783 14.8123 93.7147V109.015C14.8123 109.351 14.5392 109.624 14.2027 109.624V109.624Z" fill="#66509E"/>
<path d="M23.9718 102H14.2027C13.8668 102 13.5938 101.727 13.5938 101.391C13.5938 101.054 13.8668 100.781 14.2027 100.781H23.9718C24.3077 100.781 24.5808 101.054 24.5808 101.391C24.5808 101.727 24.3077 102 23.9718 102Z" fill="#66509E"/>
<path d="M37.0336 109.624H30.6719C29.397 109.624 28.3594 108.587 28.3594 107.312V95.4183C28.3594 94.1429 29.397 93.1055 30.6719 93.1055H37.0336C38.309 93.1055 39.3467 94.1429 39.3467 95.4183V98.2114C39.3467 98.5481 39.0741 98.8206 38.7371 98.8206C38.401 98.8206 38.1279 98.5481 38.1279 98.2114V95.4183C38.1279 94.8146 37.6372 94.324 37.0336 94.324H30.6719C30.0688 94.324 29.5776 94.8146 29.5776 95.4183V107.312C29.5776 107.915 30.0688 108.406 30.6719 108.406H37.0336C37.6372 108.406 38.1279 107.915 38.1279 107.312V105.096C38.1279 105.056 38.0951 105.023 38.0553 105.023H34.4948C34.1583 105.023 33.8858 104.75 33.8858 104.414C33.8858 104.077 34.1583 103.804 34.4948 103.804H38.0553C38.7671 103.804 39.3467 104.384 39.3467 105.096V107.312C39.3467 108.587 38.309 109.624 37.0336 109.624Z" fill="#66509E"/>
<path d="M53.4605 109.624C53.1241 109.624 52.8516 109.351 52.8516 109.015V93.7147C52.8516 93.3783 53.1241 93.1055 53.4605 93.1055C53.797 93.1055 54.0701 93.3783 54.0701 93.7147V109.015C54.0701 109.351 53.797 109.624 53.4605 109.624V109.624Z" fill="#66509E"/>
<path d="M43.6759 109.624C43.3395 109.624 43.0664 109.351 43.0664 109.015V93.7147C43.0664 93.3783 43.3395 93.1055 43.6759 93.1055C44.0124 93.1055 44.2855 93.3783 44.2855 93.7147V109.015C44.2855 109.351 44.0124 109.624 43.6759 109.624V109.624Z" fill="#66509E"/>
<path d="M53.4444 102H43.6759C43.3395 102 43.0664 101.727 43.0664 101.391C43.0664 101.054 43.3395 100.781 43.6759 100.781H53.4444C53.7809 100.781 54.054 101.054 54.054 101.391C54.054 101.727 53.7809 102 53.4444 102Z" fill="#66509E"/>
<path d="M1.58203 77.9575V86.9191L9.34306 91.3997L17.1041 86.9191V77.9575L9.34306 73.4766L1.58203 77.9575V77.9575Z" fill="white"/>
<path d="M2.2146 86.5317L9.36609 90.6608L16.5182 86.5317V78.2739L9.36609 74.1448L2.2146 78.2739V86.5317V86.5317ZM9.36609 91.9738C9.26095 91.9738 9.15581 91.9463 9.06161 91.8919L1.30058 87.411C1.11189 87.3025 0.996094 87.1012 0.996094 86.8836V77.922C0.996094 77.7042 1.11189 77.5034 1.30058 77.3943L9.06161 72.9134C9.25002 72.8049 9.48217 72.8049 9.67086 72.9134L17.4316 77.3943C17.6203 77.5034 17.7364 77.7042 17.7364 77.922V86.8836C17.7364 87.1012 17.6203 87.3025 17.4316 87.411L9.67086 91.8919C9.57665 91.9463 9.47123 91.9738 9.36609 91.9738Z" fill="#66509E"/>
<path d="M19.6289 77.9575V86.9191L27.3897 91.3997L35.151 86.9191V77.9575L27.3897 73.4766L19.6289 77.9575V77.9575Z" fill="#807DBB"/>
<path d="M20.2618 86.5318L27.4132 90.6609L34.5647 86.5318V78.274L27.4132 74.1449L20.2618 78.274V86.5318ZM27.4132 91.9739C27.3081 91.9739 27.2027 91.9464 27.1085 91.892L19.348 87.4111C19.159 87.3026 19.043 87.1013 19.043 86.8837V77.9221C19.043 77.7043 19.159 77.5035 19.348 77.3944L27.1085 72.9135C27.2972 72.8047 27.5293 72.805 27.7177 72.9135L35.4788 77.3944C35.6675 77.5035 35.7835 77.7043 35.7835 77.9221V86.8837C35.7835 87.1013 35.6675 87.3026 35.4788 87.4111L27.7177 91.892C27.6235 91.9464 27.5184 91.9739 27.4132 91.9739Z" fill="#66509E"/>
<path d="M29.8242 63.133V72.0949L37.5855 76.5758L45.346 72.0949V63.133L37.5855 58.6523L29.8242 63.133V63.133Z" fill="white"/>
<path d="M30.3982 71.7663L37.55 75.8954L44.7012 71.7663V63.5082L37.55 59.3794L30.3982 63.5082V71.7663ZM37.55 77.2084C37.4448 77.2084 37.3397 77.1812 37.2449 77.1268L29.4839 72.6458C29.2958 72.5368 29.1797 72.336 29.1797 72.1182V63.1566C29.1797 62.939 29.2958 62.7377 29.4839 62.6289L37.2449 58.148C37.4339 58.0392 37.666 58.0392 37.8545 58.148L45.6152 62.6289C45.8036 62.7377 45.9197 62.939 45.9197 63.1566V72.1182C45.9197 72.336 45.8036 72.5368 45.6152 72.6458L37.8545 77.1268C37.7602 77.1812 37.6551 77.2084 37.55 77.2084Z" fill="#66509E"/>
<path d="M47.4609 63.133V72.0949L55.2222 76.5758L62.983 72.0949V63.133L55.2222 58.6523L47.4609 63.133V63.133Z" fill="#807DBB"/>
<path d="M48.0941 71.7663L55.2458 75.8954L62.3968 71.7663V63.5082L55.2458 59.3794L48.0941 63.5082V71.7663ZM55.2458 77.2084C55.1401 77.2084 55.035 77.1812 54.9408 77.1268L47.18 72.6458C46.9911 72.5368 46.875 72.336 46.875 72.1182V63.1566C46.875 62.939 46.9911 62.7377 47.18 62.6289L54.9408 58.148C55.1292 58.0392 55.3619 58.0392 55.5503 58.148L63.3111 62.6289C63.4995 62.7377 63.6156 62.939 63.6156 63.1566V72.1182C63.6156 72.336 63.4995 72.5368 63.3111 72.6458L55.5503 77.1268C55.4561 77.1812 55.351 77.2084 55.2458 77.2084Z" fill="#66509E"/>
</svg>
