<svg width="60" height="60" viewBox="0 0 60 60" fill="none" xmlns="http://www.w3.org/2000/svg">
<path d="M26.8302 11.352C27.4602 12.3101 28.3593 13.6076 29.6624 13.6076H30.3318C31.559 13.6076 32.5162 12.3514 33.1349 11.4279C33.8952 10.2936 34.3865 8.97918 34.5571 7.62449C34.7709 5.93043 34.799 3.96262 33.7715 2.51043C32.9118 1.29637 31.4896 0.557617 30.0018 0.557617C28.4924 0.557617 27.0965 1.32355 26.2349 2.55449C25.1887 4.04887 25.2374 5.88449 25.4455 7.62449C25.604 8.93887 26.0962 10.2336 26.8302 11.352Z" fill="#F59833"/>
<path d="M28.3435 24.1434C28.3435 24.1434 28.9622 19.169 28.9641 19.1606C29.071 18.3056 27.7575 17.6222 28.2713 16.7353C28.5544 16.245 28.8188 15.4481 29.4994 15.4481H30.5007C31.17 15.4481 31.4466 16.2469 31.7288 16.7353C32.2472 17.6325 30.9291 18.3047 31.036 19.1606L31.6566 24.1472L34.1654 15.0815C37.5713 16.6547 39.9357 20.1037 39.9357 24.1069V29.1628C39.9357 31.3725 38.4675 32.8697 37.1372 34.4447V56.714C37.1372 60.0131 32.2322 60.4847 31.8 57.1912L30 41.3325C30 41.3325 28.201 57.1753 28.1991 57.1912C27.8325 60.419 22.8619 60.0665 22.8619 56.8443V34.4447C21.5138 32.8481 20.0635 31.394 20.0635 29.1628V24.4434C20.0635 20.4084 22.396 16.7531 25.845 15.104L28.3435 24.1434Z" fill="#F59833"/>
<path d="M13.6825 28.0878H6.38973C6.46098 27.9181 6.54067 27.7559 6.60348 27.5797C6.92411 26.6684 5.78973 25.9559 5.0988 26.63C4.10411 27.6003 3.00161 28.4619 1.79598 29.1575C1.18098 29.5128 1.14911 30.3866 1.76317 30.7437C2.98192 31.4534 4.08348 32.3581 5.09411 33.3603C5.78411 34.0447 6.92317 33.3509 6.61473 32.4303C6.5463 32.225 6.4563 32.0337 6.37473 31.8378H13.6825C14.7185 31.8378 15.5575 30.9987 15.5575 29.9628C15.5575 28.9269 14.7175 28.0878 13.6825 28.0878Z" fill="#F59833"/>
<path d="M15.0081 18.2443L9.85093 13.0871C10.0216 13.0177 10.1931 12.9596 10.3609 12.879C11.2319 12.4618 10.9337 11.1549 9.96811 11.1427C8.57874 11.1249 7.18936 10.9552 5.84593 10.5943C5.15968 10.4105 4.51936 11.0058 4.70124 11.693C5.06124 13.0562 5.19999 14.4755 5.20655 15.8987C5.2103 16.8699 6.50593 17.1858 6.93999 16.3168C7.03561 16.1246 7.1078 15.9258 7.18936 15.729L12.3569 20.8965C13.0891 21.6287 14.2759 21.6287 15.0081 20.8965C15.7403 20.1633 15.7403 18.9765 15.0081 18.2443Z" fill="#F59833"/>
<path d="M15.0081 41.755L9.85093 46.9122C10.0216 46.9816 10.1931 47.0397 10.3609 47.1204C11.2319 47.5375 10.9337 48.8444 9.96811 48.8566C8.57874 48.8744 7.18936 49.0441 5.84593 49.405C5.15968 49.5888 4.51936 48.9935 4.70124 48.3063C5.06124 46.9432 5.19999 45.5238 5.20655 44.1007C5.2103 43.1294 6.50593 42.8135 6.93999 43.6825C7.03561 43.8747 7.1078 44.0735 7.18936 44.2704L12.3569 39.1029C13.0891 38.3707 14.2759 38.3707 15.0081 39.1029C15.7403 39.836 15.7403 41.0229 15.0081 41.755Z" fill="#F59833"/>
<path d="M46.3173 28.0878H53.6102C53.5389 27.9181 53.4592 27.7559 53.3964 27.5797C53.0758 26.6684 54.2102 25.9559 54.9011 26.63C55.8958 27.6003 56.9983 28.4619 58.2039 29.1575C58.8189 29.5128 58.8508 30.3866 58.2367 30.7437C57.018 31.4534 55.9164 32.3581 54.9058 33.3603C54.2158 34.0447 53.0767 33.3509 53.3852 32.4303C53.4536 32.2259 53.5427 32.0347 53.6242 31.8387H46.3164C45.2805 31.8387 44.4414 30.9997 44.4414 29.9637C44.4423 28.9269 45.2823 28.0878 46.3173 28.0878Z" fill="#F59833"/>
<path d="M44.9915 18.2443L50.1487 13.0871C49.9781 13.0177 49.8065 12.9596 49.6387 12.879C48.7678 12.4618 49.0659 11.1549 50.0315 11.1427C51.4209 11.1249 52.8103 10.9552 54.1537 10.5943C54.84 10.4105 55.4803 11.0058 55.2984 11.693C54.9384 13.0562 54.7996 14.4755 54.7931 15.8987C54.7893 16.8699 53.4937 17.1858 53.0596 16.3168C52.964 16.1246 52.8918 15.9258 52.8103 15.729L47.6428 20.8965C46.9106 21.6287 45.7237 21.6287 44.9915 20.8965C44.2593 20.1633 44.2593 18.9765 44.9915 18.2443Z" fill="#F59833"/>
<path d="M44.9915 41.755L50.1487 46.9122C49.9781 46.9816 49.8065 47.0397 49.6387 47.1204C48.7678 47.5375 49.0659 48.8444 50.0315 48.8566C51.4209 48.8744 52.8103 49.0441 54.1537 49.405C54.84 49.5888 55.4803 48.9935 55.2984 48.3063C54.9384 46.9432 54.7996 45.5238 54.7931 44.1007C54.7893 43.1294 53.4937 42.8135 53.0596 43.6825C52.964 43.8747 52.8918 44.0735 52.8103 44.2704L47.6428 39.1029C46.9106 38.3707 45.7237 38.3707 44.9915 39.1029C44.2593 39.836 44.2593 41.0229 44.9915 41.755Z" fill="#F59833"/>
</svg>
