<svg width="120" height="120" viewBox="0 0 120 120" fill="none" xmlns="http://www.w3.org/2000/svg">
<path d="M117.158 84.5789C117.089 84.5789 117.019 84.5652 116.95 84.5402C116.641 84.4263 116.481 84.0825 116.595 83.7728C117.394 81.6096 118.075 79.3736 118.617 77.1284C118.697 76.8074 119.02 76.6093 119.341 76.6867C119.662 76.7641 119.858 77.0874 119.781 77.4085C119.227 79.6992 118.533 81.9808 117.718 84.1873C117.629 84.4286 117.401 84.5789 117.158 84.5789ZM110.802 97.0594C110.689 97.0594 110.572 97.0275 110.472 96.9592C110.197 96.777 110.122 96.4058 110.306 96.1303C111.586 94.2085 112.765 92.1933 113.813 90.1349C113.963 89.8411 114.323 89.7227 114.616 89.873C114.912 90.0233 115.029 90.3831 114.878 90.6791C113.81 92.7762 112.608 94.8347 111.301 96.7929C111.185 96.966 110.996 97.0594 110.802 97.0594ZM101.731 107.73C101.571 107.73 101.41 107.666 101.293 107.541C101.068 107.297 101.082 106.919 101.323 106.694C103.015 105.12 104.629 103.431 106.123 101.675C106.337 101.422 106.715 101.393 106.966 101.607C107.218 101.821 107.248 102.199 107.034 102.449C105.511 104.241 103.864 105.963 102.138 107.57C102.022 107.677 101.876 107.73 101.731 107.73Z" fill="#674EA0"/>
<path d="M53.7801 3.87726C53.4795 3.87726 53.2222 3.65252 53.1858 3.3474C53.1493 3.01905 53.3839 2.72258 53.7118 2.68455C56.0093 2.41973 58.3478 2.28516 60.659 2.28516C60.6613 2.28516 60.6636 2.28516 60.6658 2.28516L60.7865 2.28538C61.119 2.28698 61.3854 2.55612 61.3831 2.88652C61.3808 3.21601 61.1144 3.4822 60.7842 3.4822H60.782L60.6658 3.48197C60.6636 3.48197 60.6613 3.48197 60.659 3.48197C58.3934 3.48197 56.1004 3.61358 53.8484 3.87316C53.8256 3.8759 53.8028 3.87726 53.7801 3.87726ZM74.697 5.11984C74.6514 5.11984 74.6059 5.11461 74.5603 5.10345C72.322 4.57426 70.0199 4.16827 67.7178 3.8973C67.3899 3.85859 67.1554 3.56121 67.1941 3.23309C67.2328 2.90497 67.5288 2.67111 67.859 2.70869C70.2066 2.98535 72.552 3.39908 74.8359 3.9392C75.1569 4.01502 75.355 4.33745 75.2799 4.6592C75.2138 4.93426 74.9679 5.11984 74.697 5.11984ZM40.1497 7.09814C39.9061 7.09814 39.6761 6.94694 39.5873 6.70421C39.4734 6.39385 39.6351 6.05047 39.9448 5.9373C42.1581 5.13191 44.4419 4.4488 46.7326 3.90709C47.056 3.83127 47.377 4.03028 47.4522 4.35157C47.5296 4.67309 47.3292 4.99552 47.0082 5.0718C44.7607 5.60258 42.5224 6.27248 40.3546 7.0617C40.2863 7.08652 40.218 7.09814 40.1497 7.09814ZM87.8583 9.91187C87.7672 9.91187 87.6738 9.89115 87.5896 9.84766C85.5288 8.80979 83.3862 7.88258 81.2139 7.09267C80.9042 6.97973 80.7425 6.63635 80.8564 6.32554C80.9702 6.0154 81.3118 5.85533 81.6237 5.96804C83.8393 6.77434 86.0275 7.72 88.1269 8.77905C88.423 8.92797 88.5414 9.28774 88.3934 9.58284C88.2863 9.79142 88.0769 9.91187 87.8583 9.91187Z" fill="#674EA0"/>
<path d="M1.39675 74.1432C1.11212 74.1432 0.85937 73.936 0.806998 73.6468C0.403962 71.331 0.132994 68.9629 0.000926046 66.6085C-0.0172903 66.2783 0.235461 65.9959 0.563355 65.9777C0.893526 65.9572 1.17588 66.2123 1.19409 66.5401C1.32389 68.8491 1.5903 71.1716 1.9865 73.4396C2.04343 73.7652 1.82711 74.0771 1.5015 74.1341C1.46506 74.1386 1.43091 74.1432 1.39675 74.1432ZM5.41573 87.5595C5.18575 87.5595 4.96487 87.4229 4.86696 87.1974C3.92882 85.0365 3.11136 82.7982 2.43736 80.5417C2.34172 80.2252 2.52161 79.8927 2.83812 79.7971C3.15463 79.7014 3.48935 79.8836 3.58271 80.2001C4.24533 82.4088 5.04685 84.6039 5.96449 86.7215C6.09656 87.0244 5.95766 87.3773 5.65482 87.5094C5.5774 87.5436 5.49542 87.5595 5.41573 87.5595ZM12.4472 99.6711C12.2651 99.6711 12.0852 99.5891 11.969 99.432C10.555 97.5398 9.24115 95.5519 8.06165 93.5231C7.89542 93.2362 7.99334 92.8696 8.27797 92.7033C8.56487 92.5394 8.9292 92.635 9.09542 92.9219C10.2522 94.9121 11.541 96.8612 12.9277 98.7147C13.1235 98.9811 13.0711 99.3546 12.8047 99.5527C12.6977 99.6324 12.5725 99.6711 12.4472 99.6711ZM22.0563 109.863C21.922 109.863 21.7854 109.815 21.6715 109.722C19.8749 108.212 18.1444 106.575 16.5231 104.856C16.2977 104.617 16.3091 104.237 16.5482 104.011C16.7895 103.783 17.1675 103.795 17.3952 104.036C18.9823 105.719 20.681 107.324 22.4434 108.807C22.6962 109.018 22.7281 109.396 22.5163 109.649C22.3979 109.79 22.2271 109.863 22.0563 109.863ZM33.7626 117.555C33.6715 117.555 33.5804 117.534 33.4939 117.491C31.3876 116.439 29.3224 115.248 27.355 113.955C27.0772 113.773 27.0021 113.402 27.182 113.126C27.3641 112.851 27.7353 112.773 28.0108 112.955C29.9417 114.224 31.966 115.389 34.029 116.421C34.325 116.569 34.4457 116.926 34.2977 117.222C34.193 117.432 33.9812 117.555 33.7626 117.555Z" fill="#674EA0"/>
<path d="M15.8874 58.4476C18.4514 33.6907 40.5956 15.6984 65.3538 18.2606C90.1098 20.8225 108.103 42.9687 105.541 67.7258C102.977 92.4818 80.8332 110.475 56.0749 107.913C31.3189 105.352 13.3257 83.2051 15.8874 58.4476Z" fill="#EDEAF3"/>
<path d="M56.14 49.049C58.1347 47.9444 60.6462 48.6644 61.7506 50.6575C62.855 52.6504 62.1354 55.1617 60.1407 56.2665L60.1612 56.2563L44.8094 65.2768C44.1627 65.6571 43.466 65.9462 42.7396 66.1398L30.2523 69.4438C27.9206 70.0586 25.4591 69.9812 23.173 69.2184C18.6713 67.7178 10.9476 65.1447 6.80563 63.7648C5.12062 63.2024 3.98438 61.6267 3.98438 59.8506V55.9473C3.98438 51.3898 7.67773 47.6953 12.2364 47.6953H21.5517C22.8701 47.6953 24.1703 48.0116 25.343 48.6173L36.5711 54.4228C37.9077 55.0114 38.7411 55.9805 39.0553 57.0961L39.1965 57.0476L56.1605 49.0388L56.14 49.049Z" fill="white"/>
<path d="M12.2493 48.2769C8.02766 48.2769 4.59616 51.7102 4.59616 55.9305V59.8338C4.59616 61.3548 5.5639 62.6983 7.00755 63.1788L23.3749 68.6345C25.5563 69.3632 27.8857 69.4361 30.1104 68.8486L42.6 65.5446C43.274 65.3647 43.9184 65.096 44.5195 64.7431L59.8303 55.7467C59.8417 55.7397 59.8531 55.7333 59.8622 55.7271C59.8645 55.7269 59.8645 55.7267 59.8645 55.7265C61.5654 54.7833 62.1825 52.632 61.2398 50.9306C60.2971 49.2294 58.1453 48.613 56.4444 49.5557C56.4193 49.5689 56.3965 49.5805 56.3715 49.5901L39.4668 57.5718C39.4463 57.5813 39.4258 57.5895 39.403 57.597L39.2618 57.6455C39.1047 57.6986 38.9362 57.6852 38.7905 57.6091C38.6447 57.5328 38.5354 57.3999 38.4922 57.2418C38.2098 56.2397 37.4652 55.4484 36.3427 54.9536L25.0804 49.1321C23.9988 48.5724 22.7829 48.2769 21.5647 48.2769H12.2493ZM27.0956 70.438C25.7112 70.438 24.329 70.2148 22.9946 69.7708L6.62728 64.315C4.69635 63.6706 3.39844 61.8695 3.39844 59.8338V55.9305C3.39844 51.0503 7.36959 47.0801 12.2493 47.0801H21.5647C22.9741 47.0801 24.3791 47.4221 25.6292 48.069L36.8573 53.8745C38.0322 54.3907 38.9248 55.2333 39.4075 56.2761L55.9024 48.4875C58.1749 47.2556 61.0303 48.0849 62.2872 50.3504C63.5442 52.6201 62.729 55.4881 60.4702 56.7584L45.1252 65.7746C44.4307 66.1844 43.6838 66.4941 42.9051 66.7013L30.4178 70.0053C29.3248 70.2922 28.2091 70.438 27.0956 70.438Z" fill="#674EA0"/>
<path d="M35.0484 62.9775C34.4541 62.9775 33.8598 62.8636 33.2928 62.6359L20.7941 56.8046C20.4958 56.6648 20.366 56.3089 20.5049 56.0093C20.6461 55.7098 21.0013 55.5807 21.3019 55.7203L33.7687 61.5384C35.5425 62.2465 37.601 61.3653 38.3228 59.5596C38.637 58.777 38.6939 57.9798 38.489 57.2546C38.4002 56.9367 38.5846 56.6058 38.9011 56.5161C39.2199 56.4278 39.5501 56.6118 39.6412 56.9296C39.9167 57.9113 39.8461 58.9742 39.434 60.0036C38.9649 61.1763 38.0678 62.094 36.9087 62.5926C36.3099 62.8477 35.6791 62.9775 35.0484 62.9775Z" fill="#674EA0"/>
<path d="M33.3984 30.8919C33.6079 26.0493 34.5529 23.4417 36.6273 20.6309C37.6428 19.2555 39.2413 17.6914 40.9013 17.6953C42.2607 17.6987 43.8819 17.7037 45.7559 17.706C47.4933 17.7083 49.1305 19.374 50.162 20.8399C52.1362 23.6457 53.0379 26.1711 53.2428 30.8926V31.0784C53.2428 34.31 48.8003 36.9297 43.3218 36.9297C37.8409 36.9297 33.3984 34.31 33.3984 31.0784V30.8919Z" fill="#EE445B"/>
<path d="M34.0079 30.9171V31.0906C34.0079 33.9381 38.2774 36.3435 43.3324 36.3435C48.3852 36.3435 52.6546 33.9381 52.6546 31.0906V30.9048C52.4656 26.5422 51.7165 24.086 49.6831 21.1964C49.0751 20.3314 47.4766 18.3189 45.7666 18.3167C44.3002 18.3148 42.9886 18.3114 41.8364 18.3085L40.9097 18.306C40.9074 18.306 40.9051 18.306 40.9051 18.306C39.2816 18.306 37.7172 20.1886 37.1207 20.9986C35.019 23.8455 34.2038 26.4423 34.0079 30.9171ZM43.3324 37.5401C37.4326 37.5401 32.8125 34.7073 32.8125 31.0906V30.9044C32.8125 30.8955 32.8125 30.8868 32.8125 30.8782C33.0174 26.126 33.8941 23.3544 36.1575 20.2877C37.0341 19.1002 38.8171 17.1094 40.9051 17.1094C40.9074 17.1094 40.9097 17.1094 40.9119 17.1094L41.8387 17.1117C42.9909 17.1146 44.3024 17.1183 45.7689 17.1198C47.9548 17.1228 49.7742 19.2441 50.6622 20.5079C52.8186 23.573 53.652 26.287 53.8501 30.8791L53.8523 31.0906C53.8523 34.7073 49.23 37.5401 43.3324 37.5401Z" fill="#674EA0"/>
<path d="M48.0638 15.5901C48.0638 18.3751 45.8824 20.633 43.1932 20.633C40.5017 20.633 38.3203 18.3751 38.3203 15.5901C38.3203 12.8048 40.5017 10.5469 43.1932 10.5469C45.8824 10.5469 48.0638 12.8048 48.0638 15.5901Z" fill="white"/>
<path d="M43.2038 11.1573C40.8471 11.1573 38.9298 13.1513 38.9298 15.6023C38.9298 18.0533 40.8471 20.0473 43.2038 20.0473C45.5583 20.0473 47.4756 18.0533 47.4756 15.6023C47.4756 13.1513 45.5583 11.1573 43.2038 11.1573ZM43.2038 21.2439C40.1867 21.2439 37.7344 18.7132 37.7344 15.6023C37.7344 12.4916 40.1867 9.96094 43.2038 9.96094C46.2186 9.96094 48.6733 12.4916 48.6733 15.6023C48.6733 18.7132 46.2186 21.2439 43.2038 21.2439Z" fill="#674EA0"/>
<path d="M34.5514 30.8919C34.3419 26.0493 33.397 23.4417 31.3226 20.6309C30.307 19.2555 28.7086 17.6914 27.0509 17.6953C25.6892 17.6987 24.0679 17.7037 22.1939 17.706C20.4566 17.7083 18.8194 19.374 17.7879 20.8399C15.8137 23.6457 14.912 26.1711 14.707 30.8926V31.0784C14.707 34.31 19.1495 36.9297 24.6281 36.9297C30.1089 36.9297 34.5514 34.31 34.5514 31.0784V30.8919Z" fill="#EE445B"/>
<path d="M27.0683 18.306C27.0683 18.306 27.0661 18.306 27.0638 18.306L26.137 18.3085C24.9849 18.3114 23.6733 18.3148 22.2069 18.3167C20.4991 18.3189 18.8983 20.3314 18.2904 21.1964C16.257 24.086 15.5078 26.5422 15.3188 30.931V31.0906C15.3188 33.9381 19.5883 36.3435 24.641 36.3435C29.696 36.3435 33.9655 33.9381 33.9655 31.0906V30.9171C33.7697 26.4423 32.9545 23.8455 30.8528 20.9988C30.2562 20.1886 28.6919 18.306 27.0683 18.306ZM24.641 37.5401C18.7435 37.5401 14.1211 34.7073 14.1211 31.0906V30.9048C14.3215 26.287 15.1549 23.573 17.3112 20.5079C18.1993 19.2441 20.0186 17.1228 22.2069 17.1198C23.671 17.1183 24.9826 17.1146 26.1348 17.1117L27.0615 17.1094C27.0638 17.1094 27.0661 17.1094 27.0683 17.1094C29.1587 17.1094 30.9393 19.1002 31.816 20.2879C34.0793 23.3544 34.956 26.1258 35.1609 30.8782V31.0906C35.1609 34.7073 30.5408 37.5401 24.641 37.5401Z" fill="#674EA0"/>
<path d="M19.9219 15.5901C19.9219 18.3751 22.1033 20.633 24.7947 20.633C27.4839 20.633 29.6653 18.3751 29.6653 15.5901C29.6653 12.8048 27.4839 10.5469 24.7947 10.5469C22.1033 10.5469 19.9219 12.8048 19.9219 15.5901Z" fill="white"/>
<path d="M24.8054 11.1573C22.4487 11.1573 20.5314 13.1513 20.5314 15.6023C20.5314 18.0533 22.4487 20.0473 24.8054 20.0473C27.1598 20.0473 29.0771 18.0533 29.0771 15.6023C29.0771 13.1513 27.1598 11.1573 24.8054 11.1573ZM24.8054 21.2439C21.7883 21.2439 19.3359 18.7132 19.3359 15.6023C19.3359 12.4916 21.7883 9.96094 24.8054 9.96094C27.8202 9.96094 30.2748 12.4916 30.2748 15.6023C30.2748 18.7132 27.8202 21.2439 24.8054 21.2439Z" fill="#674EA0"/>
<path d="M20.5664 36.4623C20.8465 30.0058 22.1034 26.5285 24.87 22.781C26.2248 20.9473 28.3562 18.8617 30.5672 18.8672C32.382 18.8715 34.5429 18.8784 37.0408 18.8813C39.3588 18.8843 41.5425 21.1051 42.9156 23.0597C45.5478 26.8011 46.7524 30.1681 47.0233 36.4635V36.711C47.0233 41.0198 41.1008 44.5128 33.7937 44.5128C26.489 44.5128 20.5664 41.0198 20.5664 36.711V36.4623Z" fill="#807DBB"/>
<path d="M21.1196 36.4878V36.7234C21.1196 40.6953 26.7849 43.9269 33.7481 43.9269C40.7135 43.9269 46.3788 40.6953 46.3788 36.7234V36.4759C46.1261 30.6071 45.115 27.3049 42.3803 23.4162C41.5515 22.2374 39.3678 19.4951 36.9951 19.4922C35.1371 19.4894 33.468 19.4853 31.9879 19.4815L30.5192 19.4781C30.5169 19.4781 30.5147 19.4781 30.5124 19.4781C28.2604 19.4781 26.1223 22.0443 25.3071 23.1491C22.4767 26.9818 21.3815 30.4737 21.1196 36.4878ZM33.7481 45.1234C26.1245 45.1234 19.9219 41.3552 19.9219 36.7234V36.4746C19.9219 36.4661 19.9219 36.4573 19.9219 36.4488C20.1951 30.1572 21.3519 26.4909 24.3439 22.4382C25.4915 20.8846 27.8164 18.2812 30.5124 18.2812C30.5169 18.2812 30.5192 18.2812 30.5238 18.2812L31.9902 18.2849C33.4703 18.2888 35.1393 18.2931 36.9974 18.2954C39.8232 18.299 42.1982 21.074 43.3594 22.7279C46.2103 26.7796 47.3124 30.3705 47.5765 36.45V36.7234C47.5765 41.3552 41.3739 45.1234 33.7481 45.1234Z" fill="#674EA0"/>
<path d="M40.1194 16.0698C40.1194 19.7834 37.2116 22.7941 33.6253 22.7941C30.0367 22.7941 27.1289 19.7834 27.1289 16.0698C27.1289 12.356 30.0367 9.3457 33.6253 9.3457C37.2116 9.3457 40.1194 12.356 40.1194 16.0698Z" fill="white"/>
<path d="M33.5774 9.95658C30.3257 9.95658 27.6798 12.7043 27.6798 16.0823C27.6798 19.4603 30.3257 22.2082 33.5774 22.2082C36.829 22.2082 39.4726 19.4603 39.4726 16.0823C39.4726 12.7043 36.829 9.95658 33.5774 9.95658ZM33.5774 23.405C29.6654 23.405 26.4844 20.1199 26.4844 16.0823C26.4844 12.0444 29.6654 8.75977 33.5774 8.75977C37.487 8.75977 40.6703 12.0444 40.6703 16.0823C40.6703 20.1199 37.487 23.405 33.5774 23.405Z" fill="#674EA0"/>
<path d="M85.7817 95.6485C85.4515 95.6485 85.1829 95.3798 85.1829 95.0497V80.702C85.1829 80.4948 85.0144 80.3286 84.8094 80.3286H73.1965C72.8663 80.3286 72.5977 80.0599 72.5977 79.7297C72.5977 79.3996 72.8663 79.1309 73.1965 79.1309H84.8094C85.6747 79.1309 86.3783 79.8345 86.3783 80.702V95.0497C86.3783 95.3798 86.1119 95.6485 85.7817 95.6485Z" fill="#674EA0"/>
<path d="M46.4755 95.6485C46.1453 95.6485 45.8789 95.3798 45.8789 95.0497V80.6997C45.8789 79.8345 46.5825 79.1309 47.4478 79.1309H59.0607C59.3909 79.1309 59.6596 79.3996 59.6596 79.7297C59.6596 80.0599 59.3909 80.3263 59.0607 80.3263H47.4478C47.2429 80.3263 47.0744 80.4948 47.0744 80.6997V95.0497C47.0744 95.3798 46.8079 95.6485 46.4755 95.6485Z" fill="#674EA0"/>
<path d="M65.9895 95.6327C65.6593 95.6327 65.3906 95.364 65.3906 95.0338V89.134C65.3906 88.8038 65.6593 88.5352 65.9895 88.5352C66.3197 88.5352 66.5883 88.8038 66.5883 89.134V95.0338C66.5883 95.364 66.3197 95.6327 65.9895 95.6327Z" fill="#674EA0"/>
<path d="M41.0156 101.378V98.343C41.0156 96.5191 42.4957 95.0391 44.3196 95.0391H49.9781C49.9781 95.5605 50.2376 96.0364 50.6521 96.3552C51.1894 96.7719 51.5469 97.4573 51.5469 98.3317V101.344L41.0156 101.378Z" fill="white"/>
<path d="M40.9677 101.99C40.6375 101.99 40.3711 101.721 40.3711 101.391V98.356C40.3711 96.2042 42.1199 94.4531 44.2717 94.4531H49.9301C50.2625 94.4531 50.529 94.7218 50.529 95.052C50.529 95.373 50.6906 95.6804 50.9684 95.8968C51.6857 96.4501 52.0978 97.3427 52.0978 98.3446V101.357C52.0978 101.687 51.8292 101.956 51.499 101.956C51.1688 101.956 50.9001 101.687 50.9001 101.357V98.3446C50.9001 97.707 50.6656 97.1742 50.2375 96.8417C49.8322 96.5298 49.5476 96.1131 49.4178 95.6508H44.2717C42.7802 95.6508 41.5665 96.8645 41.5665 98.356V101.391C41.5665 101.721 41.2978 101.99 40.9677 101.99Z" fill="#674EA0"/>
<path d="M44.3719 109.424C43.7025 109.451 43.0603 109.59 42.4592 109.82C40.1047 110.726 38.6133 113.063 38.6133 115.583C38.6133 116.187 39.1006 116.676 39.704 116.676H52.7423C53.3457 116.676 53.833 116.187 53.833 115.583C53.833 113.063 52.3393 110.726 49.9871 109.82C49.386 109.59 48.7438 109.451 48.0744 109.424H44.3719Z" fill="#807DBB"/>
<path d="M52.7552 117.257H39.7169C38.7856 117.257 38.0273 116.501 38.0273 115.568C38.0273 112.762 39.726 110.221 42.2558 109.247C42.9344 108.987 43.6402 108.839 44.3598 108.809C44.69 108.791 44.9678 109.053 44.9814 109.383C44.9951 109.713 44.7378 109.991 44.4076 110.005C43.8201 110.03 43.2418 110.151 42.6862 110.365C40.6141 111.162 39.2228 113.252 39.2228 115.568C39.2228 115.841 39.4459 116.062 39.7169 116.062H52.7552C53.0262 116.062 53.2471 115.841 53.2471 115.568C53.2471 113.254 51.8558 111.162 49.786 110.365C49.2304 110.151 48.652 110.03 48.0623 110.005C47.7321 109.991 47.4771 109.713 47.4907 109.383C47.5021 109.053 47.7799 108.791 48.1124 108.809C48.8296 108.839 49.5378 108.987 50.2163 109.247C52.7438 110.221 54.4448 112.762 54.4448 115.568C54.4448 116.501 53.6865 117.257 52.7552 117.257Z" fill="#674EA0"/>
<path d="M48.0658 107.607V109.75C48.0658 110.743 47.262 111.547 46.2692 111.547C45.2765 111.547 44.4727 110.743 44.4727 109.75V107.619L48.0658 107.607Z" fill="white"/>
<path d="M46.2822 112.156C44.9615 112.156 43.8867 111.081 43.8867 109.761V107.629C43.8867 107.299 44.1554 107.031 44.4856 107.031C44.8158 107.031 45.0822 107.299 45.0822 107.629V109.761C45.0822 110.421 45.6218 110.961 46.2822 110.961C46.9425 110.961 47.4799 110.421 47.4799 109.761V107.618C47.4799 107.288 47.7486 107.021 48.0787 107.021C48.4089 107.021 48.6776 107.288 48.6776 107.618V109.761C48.6776 111.081 47.6028 112.156 46.2822 112.156Z" fill="#674EA0"/>
<path d="M50.2761 100.79V100.346C50.2761 98.5108 48.7891 97.7344 46.9516 97.7344H45.5808C43.7432 97.7344 42.254 98.5108 42.254 100.346V100.792C41.341 100.804 40.6055 101.548 40.6055 102.462C40.6055 103.377 41.341 104.121 42.254 104.133V104.269C42.254 106.278 43.8821 107.904 45.8882 107.904H46.6419C48.6502 107.904 50.2761 106.278 50.2761 104.269V104.135C51.2005 104.135 51.9497 103.386 51.9497 102.462C51.9497 101.539 51.2005 100.79 50.2761 100.79Z" fill="white"/>
<path d="M45.5937 98.3146C44.5736 98.3146 42.8658 98.5764 42.8658 100.327V100.774C42.8658 101.102 42.6017 101.368 42.2761 101.373C41.6909 101.379 41.2173 101.86 41.2173 102.443C41.2173 103.028 41.6909 103.509 42.2761 103.515C42.6017 103.52 42.8658 103.786 42.8658 104.114V104.251C42.8658 105.924 44.2275 107.286 45.9011 107.286H46.6548C48.3284 107.286 49.6924 105.924 49.6924 104.251V104.116C49.6924 103.784 49.9588 103.518 50.289 103.518C50.881 103.518 51.3637 103.035 51.3637 102.443C51.3637 101.853 50.881 101.37 50.289 101.37C49.9588 101.37 49.6924 101.104 49.6924 100.772V100.327C49.6924 98.5764 47.9823 98.3146 46.9645 98.3146H45.5937ZM46.6548 108.484H45.9011C43.6947 108.484 41.8776 106.787 41.6863 104.631C40.7277 104.362 40.0195 103.479 40.0195 102.443C40.0195 101.414 40.7209 100.535 41.6681 100.261C41.7023 98.3214 43.1983 97.1191 45.5937 97.1191H46.9645C49.3531 97.1191 50.8491 98.3169 50.8878 100.255C51.851 100.516 52.5592 101.4 52.5592 102.443C52.5592 103.495 51.8419 104.381 50.8696 104.638C50.6738 106.792 48.859 108.484 46.6548 108.484Z" fill="#674EA0"/>
<path d="M80.8594 101.378V98.343C80.8594 96.5191 82.3394 95.0391 84.1634 95.0391H89.8241C89.8241 95.5605 90.0837 96.0364 90.4958 96.3552C91.0332 96.7719 91.3907 97.4573 91.3907 98.3317V101.344L80.8594 101.378Z" fill="white"/>
<path d="M80.8114 101.99C80.4813 101.99 80.2148 101.721 80.2148 101.391V98.356C80.2148 96.2042 81.9636 94.4531 84.1154 94.4531H89.7761C90.1063 94.4531 90.3727 94.7218 90.3727 95.052C90.3727 95.373 90.5344 95.6804 90.8145 95.8968C91.5317 96.4501 91.9416 97.3427 91.9416 98.3446V101.357C91.9416 101.687 91.6752 101.956 91.3427 101.956C91.0126 101.956 90.7462 101.687 90.7462 101.357V98.3446C90.7462 97.707 90.5093 97.1742 90.0813 96.8417C89.6759 96.5298 89.3936 96.1131 89.2615 95.6508H84.1154C82.6239 95.6508 81.4103 96.8645 81.4103 98.356V101.391C81.4103 101.721 81.1439 101.99 80.8114 101.99Z" fill="#674EA0"/>
<path d="M84.2157 109.424C83.5462 109.451 82.9041 109.59 82.3029 109.82C79.9485 110.726 78.457 113.063 78.457 115.583C78.457 116.187 78.9466 116.676 79.5477 116.676H92.5861C93.1895 116.676 93.6768 116.187 93.6768 115.583C93.6768 113.063 92.1853 110.726 89.8308 109.82C89.2297 109.59 88.5876 109.451 87.9181 109.424H84.2157Z" fill="#EE445B"/>
<path d="M92.599 117.257H79.5607C78.6293 117.257 77.8711 116.501 77.8711 115.568C77.8711 112.762 79.5698 110.221 82.0996 109.247C82.7781 108.987 83.484 108.839 84.2035 108.809C84.5337 108.791 84.8115 109.053 84.8252 109.383C84.8388 109.713 84.5838 109.991 84.2536 110.005C83.6639 110.03 83.0855 110.151 82.5299 110.365C80.4601 111.162 79.0688 113.252 79.0688 115.568C79.0688 115.841 79.2897 116.062 79.5607 116.062H92.599C92.87 116.062 93.0908 115.841 93.0908 115.568C93.0908 113.254 91.6996 111.162 89.6297 110.365C89.0741 110.151 88.4958 110.03 87.906 110.005C87.5781 109.991 87.3208 109.713 87.3345 109.383C87.3481 109.053 87.6237 108.791 87.9561 108.809C88.6756 108.839 89.3815 108.987 90.0601 109.247C92.5899 110.221 94.2886 112.762 94.2886 115.568C94.2886 116.501 93.5303 117.257 92.599 117.257Z" fill="#674EA0"/>
<path d="M87.9096 107.607V109.75C87.9096 110.743 87.1058 111.547 86.113 111.547C85.1202 111.547 84.3164 110.743 84.3164 109.75V107.619L87.9096 107.607Z" fill="white"/>
<path d="M86.1259 112.156C84.8052 112.156 83.7305 111.081 83.7305 109.761V107.629C83.7305 107.299 83.9992 107.031 84.3293 107.031C84.6595 107.031 84.9282 107.299 84.9282 107.629V109.761C84.9282 110.421 85.4656 110.961 86.1259 110.961C86.7863 110.961 87.3236 110.421 87.3236 109.761V107.618C87.3236 107.288 87.5923 107.021 87.9225 107.021C88.2527 107.021 88.5214 107.288 88.5214 107.618V109.761C88.5214 111.081 87.4466 112.156 86.1259 112.156Z" fill="#674EA0"/>
<path d="M90.1221 100.79V100.346C90.1221 98.5108 88.6329 97.7344 86.7953 97.7344H85.4246C83.587 97.7344 82.0978 98.5108 82.0978 100.346V100.792C81.187 100.804 80.4492 101.548 80.4492 102.462C80.4492 103.377 81.187 104.121 82.0978 104.133V104.269C82.0978 106.278 83.7259 107.904 85.7319 107.904H86.4856C88.494 107.904 90.1221 106.278 90.1221 104.269V104.135C91.0443 104.135 91.7934 103.386 91.7934 102.462C91.7934 101.539 91.0443 100.79 90.1221 100.79Z" fill="white"/>
<path d="M85.4352 98.3146C84.4151 98.3146 82.7073 98.5764 82.7073 100.327V100.774C82.7073 101.102 82.4432 101.368 82.1175 101.373C81.5346 101.379 81.0587 101.86 81.0587 102.443C81.0587 103.028 81.5346 103.509 82.1175 103.515C82.4432 103.52 82.7073 103.786 82.7073 104.114V104.251C82.7073 105.924 84.069 107.286 85.7426 107.286H86.4963C88.1722 107.286 89.5339 105.924 89.5339 104.251V104.116C89.5339 103.784 89.8003 103.518 90.1327 103.518C90.7225 103.518 91.2052 103.035 91.2052 102.443C91.2052 101.853 90.7225 101.37 90.1327 101.37C89.8003 101.37 89.5339 101.104 89.5339 100.772V100.327C89.5339 98.5764 87.8238 98.3146 86.806 98.3146H85.4352ZM86.4963 108.484H85.7426C83.5361 108.484 81.7191 106.787 81.5278 104.631C80.5692 104.362 79.8633 103.479 79.8633 102.443C79.8633 101.414 80.5623 100.535 81.5119 100.261C81.5437 98.3214 83.042 97.1191 85.4352 97.1191H86.806C89.1969 97.1191 90.6929 98.3169 90.7293 100.255C91.6925 100.516 92.4007 101.4 92.4007 102.443C92.4007 103.495 91.6834 104.381 90.7134 104.638C90.5153 106.792 88.7005 108.484 86.4963 108.484Z" fill="#674EA0"/>
<path d="M60.9375 101.378V98.343C60.9375 96.5191 62.4176 95.0391 64.2415 95.0391H69.9022C69.9022 95.5605 70.1595 96.0364 70.5739 96.3552C71.1113 96.7719 71.4688 97.4573 71.4688 98.3317V101.344L60.9375 101.378Z" fill="white"/>
<path d="M60.8896 101.99C60.5594 101.99 60.293 101.721 60.293 101.391V98.356C60.293 96.2042 62.0417 94.4531 64.1935 94.4531H69.8543C70.1844 94.4531 70.4508 94.7218 70.4508 95.052C70.4508 95.373 70.6125 95.6804 70.8903 95.8968C71.6076 96.4501 72.0197 97.3427 72.0197 98.3446V101.357C72.0197 101.687 71.751 101.956 71.4209 101.956C71.0907 101.956 70.8243 101.687 70.8243 101.357V98.3446C70.8243 97.707 70.5875 97.1742 70.1594 96.8417C69.7541 96.5298 69.4717 96.1131 69.3396 95.6508H64.1935C62.7021 95.6508 61.4884 96.8645 61.4884 98.356V101.391C61.4884 101.721 61.2197 101.99 60.8896 101.99Z" fill="#674EA0"/>
<path d="M64.2938 109.424C63.6243 109.451 62.9822 109.59 62.3811 109.82C60.0266 110.726 58.5352 113.063 58.5352 115.583C58.5352 116.187 59.0224 116.676 59.6259 116.676H72.6642C73.2676 116.676 73.7549 116.187 73.7549 115.583C73.7549 113.063 72.2634 110.726 69.909 109.82C69.3078 109.59 68.6657 109.451 67.9963 109.424H64.2938Z" fill="white"/>
<path d="M72.6771 117.257H59.6388C58.7075 117.257 57.9492 116.501 57.9492 115.568C57.9492 112.762 59.6479 110.221 62.1777 109.247C62.8562 108.987 63.5621 108.839 64.2817 108.809C64.6118 108.791 64.8896 109.053 64.9033 109.383C64.917 109.713 64.6597 109.991 64.3295 110.005C63.742 110.03 63.1636 110.151 62.608 110.365C60.5382 111.162 59.1469 113.252 59.1469 115.568C59.1469 115.841 59.3678 116.062 59.6388 116.062H72.6771C72.9481 116.062 73.1689 115.841 73.1689 115.568C73.1689 113.254 71.7777 111.162 69.7079 110.365C69.1523 110.151 68.5739 110.03 67.9841 110.005C67.654 109.991 67.3989 109.713 67.4126 109.383C67.4263 109.053 67.7018 108.791 68.0342 108.809C68.7538 108.839 69.4597 108.987 70.1382 109.247C72.6657 110.221 74.3667 112.762 74.3667 115.568C74.3667 116.501 73.6084 117.257 72.6771 117.257Z" fill="#674EA0"/>
<path d="M67.9877 107.607V109.75C67.9877 110.743 67.1839 111.547 66.1911 111.547C65.1983 111.547 64.3945 110.743 64.3945 109.75V107.619L67.9877 107.607Z" fill="white"/>
<path d="M66.204 112.156C64.8834 112.156 63.8086 111.081 63.8086 109.761V107.629C63.8086 107.299 64.0773 107.031 64.4074 107.031C64.7376 107.031 65.004 107.299 65.004 107.629V109.761C65.004 110.421 65.5437 110.961 66.204 110.961C66.8644 110.961 67.4018 110.421 67.4018 109.761V107.618C67.4018 107.288 67.6705 107.021 68.0006 107.021C68.3308 107.021 68.5995 107.288 68.5995 107.618V109.761C68.5995 111.081 67.5247 112.156 66.204 112.156Z" fill="#674EA0"/>
<path d="M70.1979 100.79V100.346C70.1979 98.5108 68.711 97.7344 66.8735 97.7344H65.5027C63.6651 97.7344 62.1759 98.5108 62.1759 100.346V100.792C61.2628 100.804 60.5273 101.548 60.5273 102.462C60.5273 103.377 61.2628 104.121 62.1759 104.133V104.269C62.1759 106.278 63.804 107.904 65.8101 107.904H66.5638C68.5721 107.904 70.1979 106.278 70.1979 104.269V104.135C71.1224 104.135 71.8716 103.386 71.8716 102.462C71.8716 101.539 71.1224 100.79 70.1979 100.79Z" fill="white"/>
<path d="M65.5133 98.3146C64.4932 98.3146 62.7854 98.5764 62.7854 100.327V100.774C62.7854 101.102 62.5213 101.368 62.1957 101.373C61.6105 101.379 61.1369 101.86 61.1369 102.443C61.1369 103.028 61.6105 103.509 62.1957 103.515C62.5213 103.52 62.7854 103.786 62.7854 104.114V104.251C62.7854 105.924 64.1471 107.286 65.8207 107.286H66.5744C68.2503 107.286 69.612 105.924 69.612 104.251V104.116C69.612 103.784 69.8784 103.518 70.2086 103.518C70.8006 103.518 71.2833 103.035 71.2833 102.443C71.2833 101.853 70.8006 101.37 70.2086 101.37C69.8784 101.37 69.612 101.104 69.612 100.772V100.327C69.612 98.5764 67.9019 98.3146 66.8841 98.3146H65.5133ZM66.5744 108.484H65.8207C63.6143 108.484 61.7972 106.787 61.6059 104.631C60.6473 104.362 59.9414 103.479 59.9414 102.443C59.9414 101.414 60.6405 100.535 61.59 100.261C61.6219 98.3214 63.1202 97.1191 65.5133 97.1191H66.8841C69.275 97.1191 70.7687 98.3169 70.8074 100.255C71.7706 100.516 72.4788 101.4 72.4788 102.443C72.4788 103.495 71.7615 104.381 70.7892 104.638C70.5934 106.792 68.7786 108.484 66.5744 108.484Z" fill="#674EA0"/>
<path d="M60.9375 68.0655V65.0325C60.9375 63.2063 62.4176 61.7285 64.2415 61.7285H69.9022C69.9022 62.25 70.1595 62.7259 70.5739 63.0446C71.1113 63.4613 71.4688 64.1445 71.4688 65.0211V68.0336L60.9375 68.0655Z" fill="white"/>
<path d="M60.8896 68.648C60.5594 68.648 60.293 68.3816 60.293 68.0492V65.0161C60.293 62.8643 62.0417 61.1133 64.1935 61.1133H69.8543C70.1844 61.1133 70.4508 61.3797 70.4508 61.7121C70.4508 62.0309 70.6125 62.3383 70.8903 62.5547C71.6076 63.1103 72.0197 64.0028 72.0197 65.0047V68.0173C72.0197 68.3474 71.751 68.6161 71.4209 68.6161C71.0907 68.6161 70.8243 68.3474 70.8243 68.0173V65.0047C70.8243 64.3672 70.5875 63.8321 70.1594 63.5019C69.7541 63.1877 69.4717 62.771 69.3396 62.3087H64.1935C62.7021 62.3087 61.4884 63.5224 61.4884 65.0161V68.0492C61.4884 68.3816 61.2197 68.648 60.8896 68.648Z" fill="#674EA0"/>
<path d="M64.2938 76.084C63.6243 76.1113 62.9822 76.2502 62.3811 76.4825C60.0266 77.3887 58.5352 79.7227 58.5352 82.2457V87.8722C58.5352 88.5872 59.1158 89.1678 59.8308 89.1678H72.4593C73.1765 89.1678 73.7549 88.5872 73.7549 87.8722V82.2457C73.7549 79.7227 72.2634 77.3887 69.909 76.4825C69.3078 76.2502 68.6657 76.1113 67.9963 76.084H64.2938Z" fill="#EE445B"/>
<path d="M72.4722 89.7758H59.8437C58.7986 89.7758 57.9492 88.9265 57.9492 87.8836V82.257C57.9492 79.4494 59.6479 76.9105 62.1777 75.9359C62.854 75.6741 63.5621 75.5283 64.2817 75.4987C64.6118 75.4828 64.8896 75.7424 64.9033 76.0726C64.917 76.4027 64.6597 76.6805 64.3295 76.6942C63.742 76.717 63.1636 76.8376 62.608 77.0517C60.5382 77.8487 59.1469 79.9413 59.1469 82.257V87.8836C59.1469 88.2661 59.4589 88.5803 59.8437 88.5803H72.4722C72.857 88.5803 73.1689 88.2661 73.1689 87.8836V82.257C73.1689 79.9413 71.7777 77.8487 69.7079 77.0517C69.1523 76.8376 68.5739 76.717 67.9841 76.6942C67.654 76.6805 67.3989 76.4027 67.4126 76.0726C67.4263 75.7424 67.7018 75.4828 68.0342 75.4987C68.7538 75.5283 69.4619 75.6741 70.1382 75.9359C72.6657 76.9105 74.3667 79.4494 74.3667 82.257V87.8836C74.3667 88.9265 73.5173 89.7758 72.4722 89.7758Z" fill="#674EA0"/>
<path d="M67.9877 74.2676V76.4103C67.9877 77.4008 67.1839 78.2069 66.1911 78.2069C65.1983 78.2069 64.3945 77.4008 64.3945 76.4103V74.2767L67.9877 74.2676Z" fill="white"/>
<path d="M66.204 78.8164C64.8834 78.8164 63.8086 77.7439 63.8086 76.4232V74.2896C63.8086 73.9594 64.0773 73.6908 64.4074 73.6908C64.7376 73.6908 65.004 73.9594 65.004 74.2896V76.4232C65.004 77.0835 65.5437 77.6209 66.204 77.6209C66.8644 77.6209 67.4018 77.0835 67.4018 76.4232V74.2805C67.4018 73.9503 67.6705 73.6816 68.0006 73.6816C68.3308 73.6816 68.5995 73.9503 68.5995 74.2805V76.4232C68.5995 77.7439 67.5247 78.8164 66.204 78.8164Z" fill="#674EA0"/>
<path d="M70.1979 67.4464V67.0024C70.1979 65.1648 68.711 64.3359 66.8735 64.3359H65.5027C63.6651 64.3359 62.1759 65.1648 62.1759 67.0024V67.4487C61.2628 67.46 60.5273 68.2024 60.5273 69.1177C60.5273 70.0331 61.2628 70.7754 62.1759 70.7891V70.9234C62.1759 72.9318 63.804 74.5599 65.8101 74.5599H66.5638C68.5721 74.5599 70.1979 72.9318 70.1979 70.9234V70.7891C71.1224 70.7891 71.8716 70.0422 71.8716 69.1177C71.8716 68.1955 71.1224 67.4464 70.1979 67.4464Z" fill="white"/>
<path d="M65.5133 64.9454C64.6936 64.9454 62.7854 65.1481 62.7854 67.013V67.4593C62.7854 67.7849 62.5213 68.0513 62.1957 68.0559C61.6105 68.065 61.1369 68.5454 61.1369 69.1284C61.1369 69.7113 61.6105 70.1918 62.1957 70.2009C62.5213 70.2054 62.7854 70.4718 62.7854 70.7997V70.9341C62.7854 72.61 64.1471 73.9716 65.8207 73.9716H66.5744C68.2503 73.9716 69.612 72.61 69.612 70.9341V70.7997C69.612 70.4696 69.8784 70.2009 70.2086 70.2009C70.8006 70.2009 71.2833 69.7204 71.2833 69.1284C71.2833 68.5363 70.8006 68.0559 70.2086 68.0559C69.8784 68.0559 69.612 67.7872 69.612 67.457V67.013C69.612 65.1481 67.7038 64.9454 66.8841 64.9454H65.5133ZM66.5744 75.1671H65.8207C63.6143 75.1671 61.7972 73.4707 61.6059 71.3143C60.6473 71.0479 59.9414 70.1644 59.9414 69.1284C59.9414 68.0991 60.6405 67.2202 61.59 66.947C61.6219 64.9728 63.1179 63.75 65.5133 63.75H66.8841C69.275 63.75 70.771 64.9682 70.8074 66.9379C71.7706 67.202 72.4788 68.0832 72.4788 69.1284C72.4788 70.1804 71.7615 71.0661 70.7892 71.3234C70.5934 73.4752 68.7786 75.1671 66.5744 75.1671Z" fill="#674EA0"/>
<path d="M70.8837 33.9056C67.056 32.6981 64.0071 30.085 62.5657 26.7862C62.4245 26.4631 62.4268 26.0983 62.568 25.7755C64.5718 21.1906 69.6814 17.9297 75.6746 17.9297C81.6678 17.9297 86.7775 21.1906 88.7812 25.7755C88.9224 26.0988 88.9247 26.4636 88.7835 26.7871C87.3262 30.121 84.2272 32.7544 80.3403 33.9443L70.8837 33.9056Z" fill="white"/>
<path d="M80.3518 34.5554C80.0967 34.5554 79.8576 34.3897 79.7802 34.1319C79.6823 33.8161 79.8599 33.4814 80.1764 33.3848C83.9085 32.242 86.8504 29.7548 88.2463 26.5601C88.3214 26.3888 88.3214 26.1994 88.244 26.0272C86.288 21.549 81.2398 18.5406 75.6861 18.5406C70.1324 18.5406 65.0842 21.549 63.126 26.0275C63.0508 26.1994 63.0508 26.3886 63.126 26.5596C64.5036 29.7145 67.4022 32.1889 71.0751 33.3475C71.3916 33.4468 71.5669 33.7828 71.4667 34.098C71.3666 34.4131 71.0318 34.5889 70.7153 34.4887C66.7123 33.2261 63.5472 30.5105 62.0284 27.0385C61.8235 26.5651 61.8235 26.022 62.0307 25.5482C64.1757 20.6407 69.6633 17.3438 75.6861 17.3438C81.7089 17.3438 87.1965 20.6407 89.3415 25.5479C89.5487 26.0222 89.5487 26.5658 89.3415 27.0389C87.8068 30.554 84.5939 33.2842 80.5271 34.5288C80.4679 34.5468 80.4087 34.5554 80.3518 34.5554Z" fill="#674EA0"/>
<path d="M71.696 37.5093C71.6095 35.2835 70.8421 33.0338 69.428 31.319C68.2599 29.904 67.5586 28.084 67.5586 26.0989C67.5586 21.4141 71.4637 17.6508 76.1658 17.9459C80.2508 18.2021 83.5503 21.6017 83.7301 25.7304C83.8212 27.8246 83.1313 29.7528 81.929 31.2452C80.4785 33.0475 79.5928 35.1863 79.5928 37.5093H71.696Z" fill="#EE445B"/>
<path d="M71.7089 38.1201C71.3878 38.1201 71.1237 37.8674 71.11 37.5449C71.0281 35.3799 70.2493 33.2538 68.9787 31.7123C67.6854 30.1439 66.9727 28.1544 66.9727 26.1115C66.9727 23.6853 67.9837 21.3458 69.7438 19.6923C71.5062 18.0375 73.8038 17.2105 76.2152 17.3612C80.5802 17.6352 84.1484 21.3055 84.3419 25.7173C84.4353 27.8682 83.7476 29.9692 82.4087 31.6333C80.9651 33.4246 80.2045 35.4608 80.2045 37.5219C80.2045 37.8523 79.9358 38.1201 79.6057 38.1201C79.2755 38.1201 79.0068 37.8523 79.0068 37.5219C79.0068 35.1848 79.8607 32.8891 81.4774 30.8825C82.6341 29.4453 83.2262 27.6296 83.1465 25.7692C82.9802 21.9602 79.904 18.7917 76.1423 18.5556C74.0611 18.4251 72.0801 19.1387 70.5635 20.5646C69.0425 21.993 68.1704 24.0145 68.1704 26.1115C68.1704 27.8775 68.7852 29.5962 69.9032 30.9513C71.3582 32.716 72.2121 35.0416 72.3055 37.4987C72.3191 37.8291 72.0618 38.1069 71.7317 38.1199C71.7226 38.1199 71.7157 38.1201 71.7089 38.1201Z" fill="#674EA0"/>
<path d="M75.5626 42.5167H75.7949C77.9126 42.5167 79.6317 40.7987 79.6317 38.6794C79.6317 38.6642 79.6477 37.5293 79.6317 37.5293H71.7258C71.7099 37.5293 71.7258 38.6642 71.7258 38.6794V38.6803C71.7258 40.7991 73.4427 42.5167 75.5626 42.5167Z" fill="#807DBB"/>
<path d="M72.3301 38.1106C72.3324 38.2452 72.3323 38.4121 72.3346 38.6202C72.3346 38.6228 72.3369 38.6599 72.3369 38.6624C72.3369 40.4487 73.7897 41.9012 75.5749 41.9012H75.8071C77.5923 41.9012 79.0451 40.4485 79.0451 38.6624C79.0451 38.6599 79.0451 38.6228 79.0451 38.6202C79.0473 38.4121 79.0496 38.2452 79.0519 38.1106H72.3301ZM75.8071 43.0978H75.5749C73.1293 43.0978 71.1392 41.1086 71.1392 38.6633C71.1232 37.2829 71.1232 37.2829 71.3122 37.0919C71.4238 36.978 71.5786 36.9141 71.738 36.9141H79.6439C79.8033 36.9141 79.9582 36.978 80.0697 37.0919C80.2587 37.2829 80.2587 37.2829 80.2428 38.6346C80.2428 41.1081 78.2527 43.0978 75.8071 43.0978Z" fill="#674EA0"/>
<path d="M94.878 14.4622C93.0859 15.0253 91.6992 16.6864 91.6992 19.111V25.1752L112.901 25.2412V19.1319C112.901 15.4582 109.922 12.4805 106.25 12.4805H94.3497C94.3497 14.6758 96.1303 16.4557 98.3254 16.4557H102.743L94.878 14.4622Z" fill="#EE445B"/>
<path d="M92.311 24.562L112.317 24.6242V19.1151C112.317 15.7774 109.601 13.062 106.262 13.062H95.0139C95.2962 14.6396 96.6806 15.8405 98.3383 15.8405H102.756C103.086 15.8405 103.352 16.1083 103.352 16.4389C103.352 16.7693 103.086 17.0373 102.756 17.0373H98.3383C96.8287 17.0373 95.4875 16.3027 94.6541 15.1729C93.1968 15.8168 92.311 17.28 92.311 19.0942V24.562ZM112.914 25.8228H112.911L91.7099 25.7565C91.3797 25.7556 91.1133 25.4881 91.1133 25.1584V19.0942C91.1133 16.8228 92.2313 14.975 94.0757 14.1206C93.8753 13.6067 93.7638 13.0479 93.7638 12.4636C93.7638 12.1332 94.0325 11.8652 94.3626 11.8652H106.262C110.261 11.8652 113.513 15.1175 113.513 19.1151V25.2246C113.513 25.3833 113.449 25.5359 113.337 25.6484C113.226 25.7602 113.073 25.8228 112.914 25.8228Z" fill="#674EA0"/>
<path d="M91.9332 66.1745V52.9435V62.2717C91.9332 65.3457 89.4421 67.839 86.3659 67.839C83.2919 67.839 80.8008 65.3457 80.8008 62.2717V58.5007H86.4C86.4 58.5007 86.5776 62.085 86.482 62.1783V55.0186L88.9025 47.85C91.0839 44.5144 94.438 42.6233 98.6778 42.4512H105.914C112.698 42.7267 118.11 48.3218 118.11 55.1707V65.8216L91.9332 66.1745Z" fill="#807DBB"/>
<path d="M86.3788 68.4479C82.9814 68.4479 80.2148 65.6835 80.2148 62.2839V58.5129C80.2148 58.1825 80.4835 57.9145 80.8137 57.9145H85.8961V55.0309C85.8961 54.9657 85.9074 54.9013 85.9279 54.8394L88.3484 47.671C88.3644 47.623 88.3871 47.5772 88.4145 47.5346C90.7234 44.0043 94.2687 42.0442 98.6657 41.8659L105.927 41.8652C113.111 42.1565 118.722 48.0064 118.722 55.1832V65.8338C118.722 66.164 118.453 66.4327 118.123 66.4327C117.793 66.4327 117.524 66.164 117.524 65.8338V55.1832C117.524 48.6506 112.419 43.326 105.904 43.0614L98.6907 43.062C94.7469 43.2223 91.5477 44.9734 89.4573 48.1269L87.0938 55.1292V60.337C87.1712 62.3613 87.0961 62.4365 86.9184 62.6141C86.7477 62.7849 86.4904 62.8372 86.2672 62.7439C86.0418 62.6528 85.8961 62.4342 85.8961 62.1906V60.4987C85.8824 60.0683 85.8619 59.5902 85.8414 59.112H81.4126V62.2839C81.4126 65.0232 83.6395 67.2524 86.3788 67.2524C89.1203 67.2524 91.3473 65.0232 91.3473 62.2839V52.9558C91.3473 52.6254 91.616 52.3574 91.9462 52.3574C92.2763 52.3574 92.545 52.6254 92.545 52.9558V66.1868C92.545 66.5169 92.2763 66.7833 91.9462 66.7833C91.616 66.7833 91.3473 66.5169 91.3473 66.1868V65.9295C90.2247 67.4573 88.4167 68.4479 86.3788 68.4479Z" fill="#674EA0"/>
<path d="M75.6575 15.3484C75.3273 15.3484 75.0586 15.0806 75.0586 14.7502V12.4636C75.0586 12.133 75.3273 11.8652 75.6575 11.8652C75.9876 11.8652 76.2563 12.133 76.2563 12.4636V14.7502C76.2563 15.0806 75.9876 15.3484 75.6575 15.3484Z" fill="#674EA0"/>
<path d="M69.1302 16.4957C68.9776 16.4957 68.8251 16.4371 68.7067 16.3206L67.09 14.703C66.8554 14.4696 66.8554 14.0907 67.09 13.857C67.3245 13.6232 67.7025 13.6232 67.937 13.857L69.5537 15.4744C69.786 15.7078 69.786 16.0869 69.5537 16.3206C69.4376 16.4371 69.2828 16.4957 69.1302 16.4957Z" fill="#674EA0"/>
<path d="M82.2205 16.4957C82.068 16.4957 81.9131 16.4372 81.797 16.3206C81.5625 16.087 81.5625 15.7079 81.797 15.4745L83.4137 13.8569C83.6482 13.6232 84.0262 13.6232 84.2608 13.8569C84.493 14.0907 84.493 14.4696 84.2608 14.703L82.6441 16.3206C82.5256 16.4372 82.3731 16.4957 82.2205 16.4957Z" fill="#674EA0"/>
<path d="M75.6575 38.1057C75.3273 38.1057 75.0586 37.8379 75.0586 37.5073V31.5945C75.0586 31.2641 75.3273 30.9961 75.6575 30.9961C75.9876 30.9961 76.2563 31.2641 76.2563 31.5945V37.5073C76.2563 37.8379 75.9876 38.1057 75.6575 38.1057Z" fill="#674EA0"/>
<path d="M71.1294 23.5535C70.6466 24.353 70.3711 25.2902 70.3711 26.2912C70.3711 29.2265 72.7506 31.6062 75.6857 31.6062C78.6208 31.6062 81.0003 29.2265 81.0003 26.2912C81.0003 23.3558 78.6208 20.9766 75.6857 20.9766C75.2941 20.9766 74.9138 21.0187 74.5472 21.0991L74.299 21.158L71.1294 23.5535Z" fill="white"/>
<path d="M75.6986 32.2171C72.4379 32.2171 69.7852 29.5644 69.7852 26.3036C69.7852 25.2275 70.0766 24.1739 70.6299 23.2572C70.8007 22.9742 71.1673 22.8833 71.4497 23.0536C71.7343 23.2239 71.8254 23.5917 71.6546 23.8747C71.2151 24.605 70.9829 25.445 70.9829 26.3036C70.9829 28.9045 73.0983 31.0203 75.6986 31.0203C78.299 31.0203 80.4144 28.9045 80.4144 26.3036C80.4144 23.7028 78.299 21.587 75.6986 21.587C75.3571 21.587 75.0155 21.6239 74.6876 21.6958L74.4531 21.7523C74.132 21.8302 73.8087 21.6323 73.7313 21.311C73.6538 20.9897 73.8519 20.6666 74.173 20.5892L74.4189 20.5298C74.8447 20.4364 75.2705 20.3906 75.6986 20.3906C78.9594 20.3906 81.6121 23.0431 81.6121 26.3036C81.6121 29.5644 78.9594 32.2171 75.6986 32.2171Z" fill="#674EA0"/>
<path d="M102.257 66.3864C101.927 66.3864 101.66 66.12 101.66 65.7876V45.6861C101.66 45.3557 101.927 45.0879 102.257 45.0879C102.589 45.0879 102.856 45.3557 102.856 45.6861V65.7876C102.856 66.12 102.589 66.3864 102.257 66.3864Z" fill="#674EA0"/>
<path d="M112.511 66.3855C112.18 66.3855 111.914 66.1191 111.914 65.789V52.9519C111.914 52.6215 112.18 52.3535 112.511 52.3535C112.843 52.3535 113.11 52.6215 113.11 52.9519V65.789C113.11 66.1191 112.843 66.3855 112.511 66.3855Z" fill="#674EA0"/>
<path d="M98.6719 37.7637V42.0755C98.6719 44.074 100.291 45.6935 102.288 45.6935C104.287 45.6935 105.906 44.074 105.906 42.0755V37.7842L98.6719 37.7637Z" fill="white"/>
<path d="M102.301 46.2748C99.9759 46.2748 98.0859 44.3833 98.0859 42.0584V37.7466C98.0859 37.4162 98.3523 37.1484 98.6848 37.1484C99.015 37.1484 99.2814 37.4162 99.2814 37.7466V42.0584C99.2814 43.7236 100.636 45.0782 102.301 45.0782C103.968 45.0782 105.322 43.7236 105.322 42.0584V37.7671C105.322 37.4365 105.589 37.1687 105.919 37.1687C106.251 37.1687 106.518 37.4365 106.518 37.7671V42.0584C106.518 44.3833 104.626 46.2748 102.301 46.2748Z" fill="#674EA0"/>
<path d="M94.2444 24.024V23.1303C94.2444 19.4328 97.2432 16.4355 100.941 16.4355H103.701C107.399 16.4355 110.395 19.4328 110.395 23.1303V24.0267C112.233 24.0522 113.715 25.5467 113.715 27.3895C113.715 29.2318 112.233 30.7269 110.395 30.7527V31.0268C110.395 35.0677 107.121 38.3436 103.079 38.3436H101.561C97.521 38.3436 94.2444 35.0677 94.2444 31.0268V30.7547C92.3863 30.7547 90.8789 29.2478 90.8789 27.3895C90.8789 25.531 92.3863 24.024 94.2444 24.024Z" fill="white"/>
<path d="M100.952 17.0462C97.5886 17.0462 94.8539 19.7809 94.8539 23.1425V24.0363C94.8539 24.3666 94.5852 24.6347 94.255 24.6347C92.7294 24.6347 91.4884 25.8759 91.4884 27.4017C91.4884 28.9273 92.7294 30.1688 94.255 30.1688C94.5852 30.1688 94.8539 30.4366 94.8539 30.767V31.0391C94.8539 34.7436 97.8687 37.7577 101.571 37.7577H103.09C106.795 37.7577 109.809 34.7436 109.809 31.0391V30.7649C109.809 30.4375 110.071 30.1711 110.399 30.1665C111.902 30.1455 113.127 28.9052 113.127 27.4017C113.127 25.8984 111.902 24.6581 110.399 24.6374C110.071 24.6326 109.809 24.3662 109.809 24.039V23.1425C109.809 19.7809 107.075 17.0462 103.712 17.0462H100.952ZM103.09 38.9543H101.571C97.3017 38.9543 93.811 35.5558 93.663 31.321C91.7571 31.0338 90.293 29.3857 90.293 27.4017C90.293 25.4193 91.7548 23.7723 93.6584 23.4829V23.1425C93.6584 19.1213 96.9283 15.8496 100.952 15.8496H103.712C107.733 15.8496 111.005 19.1213 111.005 23.1425V23.4934C112.881 23.8047 114.323 25.448 114.323 27.4017C114.323 29.3572 112.879 31.0019 111 31.3109C110.857 35.5499 107.364 38.9543 103.09 38.9543Z" fill="#674EA0"/>
<path d="M102.296 34.1993C101.082 34.1993 99.9389 33.7261 99.0804 32.8672C98.8482 32.6333 98.8482 32.2547 99.0804 32.0213C99.315 31.7872 99.693 31.7872 99.9275 32.0213C100.561 32.6541 101.401 33.0024 102.296 33.0024C103.193 33.0024 104.033 32.6541 104.666 32.0213C104.901 31.7872 105.279 31.7872 105.513 32.0213C105.745 32.2547 105.745 32.6333 105.513 32.8672C104.652 33.7261 103.512 34.1993 102.296 34.1993Z" fill="#674EA0"/>
<path d="M80.8008 54.9937V58.5086H86.4V54.5215L80.8008 54.9937Z" fill="white"/>
<path d="M86.4129 59.0906H80.8137C80.4835 59.0906 80.2148 58.8219 80.2148 58.4915V54.9767C80.2148 54.6461 80.4835 54.3783 80.8137 54.3783C81.1439 54.3783 81.4126 54.6461 81.4126 54.9767V57.8931H85.8141V54.5047C85.8141 54.174 86.0805 53.9062 86.4129 53.9062C86.7431 53.9062 87.0095 54.174 87.0095 54.5047V58.4915C87.0095 58.8219 86.7431 59.0906 86.4129 59.0906Z" fill="#674EA0"/>
<path d="M87.5071 46.9789L87.5003 41.3464C87.5003 40.6936 86.9697 40.1653 86.3185 40.166C85.665 40.1669 85.1367 40.6963 85.1367 41.3492L85.1458 45.8051L87.5071 46.9789Z" fill="white"/>
<path d="M87.52 47.5898C87.1899 47.5898 86.9212 47.3225 86.9212 46.9921L86.9143 41.3594C86.9143 41.2038 86.8551 41.0572 86.7436 40.9472C86.6343 40.8372 86.4863 40.7769 86.3314 40.7769C86.1743 40.7771 86.0286 40.8379 85.9193 40.9481C85.8077 41.0583 85.7485 41.2047 85.7485 41.3607L85.7553 45.8164C85.7576 46.1471 85.4889 46.4153 85.1588 46.4157C84.8286 46.4157 84.5599 46.1486 84.5599 45.8185L84.5508 41.3625C84.5508 40.8869 84.7352 40.4397 85.0722 40.1031C85.4069 39.7663 85.8532 39.581 86.3291 39.5801H86.3314C86.8073 39.5801 87.2536 39.7647 87.5884 40.0999C87.9254 40.436 88.1121 40.8825 88.1121 41.3582L88.1189 46.9909C88.1189 47.3213 87.8502 47.5896 87.52 47.5898Z" fill="#674EA0"/>
<path d="M78.1055 47.8702V50.2185C78.1055 52.0916 79.0299 53.7488 80.4463 54.7598C81.3594 55.4109 82.4751 55.7938 83.6819 55.7938C86.7605 55.7938 89.2561 53.2975 89.2561 50.2185V48.8817C89.2561 48.2261 88.8804 47.6282 88.2884 47.3438L78.1055 47.8702Z" fill="white"/>
<path d="M83.6363 56.3753C82.3406 56.3753 81.1019 55.9796 80.0522 55.2302C78.431 54.0723 77.4609 52.1926 77.4609 50.2018V47.8535C77.4609 47.5229 77.7296 47.2551 78.0598 47.2551C78.39 47.2551 78.6587 47.5229 78.6587 47.8535V50.2018C78.6587 51.8067 79.4397 53.3225 80.749 54.2561C81.5938 54.8597 82.5911 55.1787 83.6363 55.1787C86.3801 55.1787 88.6116 52.9461 88.6116 50.2018V48.865C88.6116 48.4419 88.3657 48.0496 87.9854 47.866C87.6871 47.723 87.5619 47.3655 87.7053 47.0675C87.8488 46.7701 88.2063 46.6444 88.5023 46.7879C89.297 47.1693 89.8093 47.9849 89.8093 48.865V50.2018C89.8093 53.606 87.0404 56.3753 83.6363 56.3753Z" fill="#674EA0"/>
<path d="M85.1399 48.2629V48.6068C85.1057 49.2521 84.5729 49.7651 83.9194 49.7658C83.5573 49.7662 83.234 49.61 83.0131 49.3614C82.7968 49.1207 82.4438 49.0859 82.166 49.2498C81.9862 49.3557 81.7767 49.4167 81.5512 49.4169C81.2051 49.4174 80.8909 49.2733 80.6678 49.041C80.456 48.8217 80.1372 48.7598 79.8731 48.9087C79.6476 49.0362 79.3744 49.0934 79.0875 49.0494C78.5114 48.962 78.0492 48.3681 78.0492 47.7875L78.0469 44.8508C78.0446 44.2253 78.5501 43.6189 79.174 43.5686C79.4837 43.5435 79.7706 43.6335 79.9983 43.8006C80.2465 43.9819 80.5744 43.986 80.8203 43.8038C81.023 43.6535 81.2734 43.5645 81.5467 43.5645C81.8336 43.5643 82.0977 43.6633 82.305 43.8298C82.56 44.0331 82.9015 44.0322 83.1566 43.8291C83.3638 43.6635 83.6256 43.565 83.9125 43.5645C84.5888 43.5636 85.1353 44.1105 85.1376 44.7864V45.7985L85.1399 48.2629Z" fill="white"/>
<path d="M83.9323 50.3766C83.4154 50.3766 82.9236 50.1567 82.5797 49.773C82.5615 49.7518 82.516 49.7586 82.4841 49.7773C82.2063 49.9408 81.8898 50.0276 81.5664 50.0278H81.5642C81.0632 50.0278 80.5964 49.829 80.248 49.4679C80.2389 49.4583 80.2071 49.4271 80.1797 49.4426C79.8245 49.643 79.4192 49.7151 79.0093 49.6532C78.1577 49.5236 77.4655 48.6925 77.4632 47.8004L77.4609 44.8639C77.4587 43.9021 78.2124 43.0591 79.1391 42.9847C79.5763 42.9498 80.0135 43.0721 80.3664 43.3305C80.3869 43.3465 80.4325 43.3693 80.478 43.3349C80.7922 43.1019 81.1657 42.9785 81.5596 42.9785H81.5619C81.9695 42.9785 82.3725 43.119 82.6913 43.3743C82.7277 43.4034 82.7596 43.4027 82.7983 43.3738C83.1148 43.1197 83.5156 42.9792 83.9255 42.9785C84.4036 42.9915 84.8681 43.1668 85.2143 43.5107C85.5581 43.8543 85.7471 44.3115 85.7471 44.7983V45.8112C85.7471 46.1416 85.4807 46.4093 85.1505 46.4093C84.8203 46.4093 84.5516 46.1416 84.5516 45.8112V44.799C84.5516 44.6323 84.4856 44.4754 84.3672 44.3575C84.2511 44.24 84.094 44.1753 83.9277 44.1753H83.9255C83.7478 44.1756 83.6203 44.248 83.5429 44.3092C83.0716 44.6847 82.4158 44.6852 81.9444 44.3094C81.8693 44.2484 81.7395 44.1753 81.5596 44.1753C81.4207 44.171 81.2978 44.2175 81.1885 44.2971C80.7353 44.6332 80.1205 44.6326 79.6583 44.2962C79.5718 44.2332 79.4306 44.1619 79.2348 44.1774C78.9387 44.2015 78.6564 44.5344 78.6564 44.8628L78.6609 47.7995C78.6609 48.0975 78.9228 48.4295 79.1892 48.4703C79.3327 48.4919 79.4716 48.4676 79.5923 48.3999C80.0932 48.1176 80.7034 48.2139 81.111 48.6386C81.2317 48.7627 81.3911 48.831 81.5642 48.831C81.6757 48.8307 81.7805 48.8025 81.8761 48.7465C82.4044 48.4359 83.0738 48.5315 83.4701 48.9746C83.5907 49.1069 83.7524 49.18 83.9323 49.18C84.2647 49.1796 84.538 48.92 84.5539 48.5885V48.2754C84.5539 47.9447 84.8226 47.6772 85.1528 47.6772C85.4829 47.6772 85.7516 47.9447 85.7516 48.2754V48.6192C85.6993 49.617 84.9023 50.3755 83.9323 50.3766Z" fill="#674EA0"/>
<path d="M88.2588 47.3429L85.335 45.8951C84.8546 45.6563 84.2694 45.8418 84.0121 46.3148L83.9096 46.5008C83.6409 46.9999 83.8367 47.6232 84.3445 47.8755L86.8902 49.1376L88.2588 47.3429Z" fill="white"/>
<path d="M86.9034 49.7211C86.8146 49.7211 86.7235 49.7011 86.6393 49.6587L84.0935 48.3963C83.6996 48.2014 83.4104 47.8639 83.2784 47.4461C83.1463 47.0285 83.1896 46.5861 83.3968 46.2003L83.4992 46.0139C83.9114 45.2549 84.8404 44.9598 85.6146 45.3439L88.5383 46.7915C88.8343 46.9381 88.955 47.297 88.8093 47.5932C88.6636 47.889 88.3038 48.0108 88.0078 47.8637L85.0841 46.4164C84.8882 46.3197 84.6537 46.3939 84.5512 46.5852L84.4488 46.7714C84.3964 46.8684 84.3873 46.9798 84.4192 47.0852C84.4533 47.1904 84.5262 47.2751 84.6241 47.3243L87.1698 48.5867C87.4658 48.7333 87.5865 49.0924 87.4408 49.3884C87.336 49.5991 87.1243 49.7211 86.9034 49.7211Z" fill="#674EA0"/>
<path d="M71.8006 21.6438C70.9102 22.5332 70.9102 23.9757 71.8006 24.8653C72.6909 25.755 74.1322 25.755 75.0226 24.8653C75.9106 23.9757 75.9106 22.5332 75.0226 21.6438C74.1322 20.7542 72.6909 20.7542 71.8006 21.6438Z" fill="white"/>
<path d="M71.8129 21.656H71.8175H71.8129ZM73.4251 21.587C72.9765 21.587 72.553 21.7619 72.2364 22.0793V22.0795C71.9199 22.3965 71.7446 22.8182 71.7446 23.2668C71.7446 23.7153 71.9199 24.1373 72.2364 24.454C72.553 24.7716 72.9765 24.9463 73.4251 24.9463C73.8736 24.9463 74.2949 24.7716 74.6114 24.4542C75.2672 23.7996 75.2672 22.7342 74.6114 22.0793C74.2949 21.7619 73.8736 21.587 73.4251 21.587ZM73.4251 26.1429C72.6554 26.1429 71.9336 25.8439 71.3894 25.3004C70.8474 24.7571 70.5469 24.035 70.5469 23.2668C70.5469 22.4985 70.8474 21.7764 71.3894 21.2331C71.3894 21.2331 71.3894 21.2334 71.3894 21.2329C71.9336 20.6896 72.6554 20.3906 73.4251 20.3906C74.1924 20.3906 74.9142 20.6896 75.4585 21.2331C76.5788 22.3543 76.5788 24.1792 75.4585 25.3004C74.9142 25.8439 74.1924 26.1429 73.4251 26.1429Z" fill="#674EA0"/>
</svg>
