<svg width="34" height="34" viewBox="0 0 34 34" fill="none" xmlns="http://www.w3.org/2000/svg">
<path opacity="0.1" fill-rule="evenodd" clip-rule="evenodd" d="M0 17C0 7.61116 7.61116 0 17 0C26.3888 0 34 7.61116 34 17C34 26.3888 26.3888 34 17 34C7.61116 34 0 26.3888 0 17Z" fill="white"/>
<path fill-rule="evenodd" clip-rule="evenodd" d="M17.0011 7.93359C14.5387 7.93359 14.2297 7.94436 13.2626 7.98837C12.2974 8.03257 11.6385 8.18539 11.062 8.4096C10.4657 8.64118 9.95983 8.95096 9.45587 9.45511C8.95153 9.95907 8.64175 10.4649 8.40941 11.0611C8.18463 11.6377 8.03163 12.2968 7.98818 13.2616C7.94493 14.2288 7.93359 14.538 7.93359 17.0004C7.93359 19.4627 7.94455 19.7708 7.98837 20.7379C8.03276 21.7032 8.18557 22.362 8.4096 22.9385C8.64137 23.5348 8.95115 24.0407 9.4553 24.5447C9.95907 25.049 10.4649 25.3595 11.0609 25.5911C11.6377 25.8153 12.2968 25.9681 13.2618 26.0123C14.2289 26.0563 14.5378 26.0671 17 26.0671C19.4625 26.0671 19.7706 26.0563 20.7378 26.0123C21.703 25.9681 22.3626 25.8153 22.9395 25.5911C23.5356 25.3595 24.0407 25.049 24.5445 24.5447C25.0488 24.0407 25.3586 23.5348 25.5909 22.9387C25.8138 22.362 25.9668 21.703 26.0122 20.7381C26.0556 19.771 26.0669 19.4627 26.0669 17.0004C26.0669 14.538 26.0556 14.2289 26.0122 13.2618C25.9668 12.2966 25.8138 11.6377 25.5909 11.0612C25.3586 10.4649 25.0488 9.95907 24.5445 9.45511C24.0401 8.95077 23.5358 8.64099 22.9389 8.4096C22.3609 8.18539 21.7017 8.03257 20.7364 7.98837C19.7693 7.94436 19.4614 7.93359 16.9983 7.93359H17.0011ZM16.1877 9.56747C16.4291 9.5671 16.6985 9.56747 17.0011 9.56747C19.4219 9.56747 19.7088 9.57616 20.6648 9.61961C21.5488 9.66003 22.0286 9.80774 22.3482 9.93184C22.7713 10.0962 23.073 10.2926 23.3901 10.61C23.7075 10.9273 23.9039 11.2295 24.0686 11.6526C24.1927 11.9719 24.3406 12.4516 24.3808 13.3357C24.4243 14.2914 24.4337 14.5786 24.4337 16.9983C24.4337 19.4179 24.4243 19.7051 24.3808 20.6608C24.3404 21.5449 24.1927 22.0246 24.0686 22.3439C23.9043 22.767 23.7075 23.0683 23.3901 23.3854C23.0728 23.7027 22.7715 23.8992 22.3482 24.0635C22.029 24.1882 21.5488 24.3355 20.6648 24.3759C19.709 24.4194 19.4219 24.4288 17.0011 24.4288C14.5801 24.4288 14.2931 24.4194 13.3373 24.3759C12.4533 24.3351 11.9736 24.1874 11.6538 24.0633C11.2306 23.899 10.9284 23.7026 10.6111 23.3852C10.2937 23.0679 10.0973 22.7664 9.93259 22.3431C9.80849 22.0239 9.66058 21.5441 9.62035 20.6601C9.57691 19.7043 9.56822 19.4172 9.56822 16.996C9.56822 14.5748 9.57691 14.2892 9.62035 13.3334C9.66077 12.4494 9.80849 11.9696 9.93259 11.65C10.0969 11.2269 10.2937 10.9247 10.6111 10.6073C10.9284 10.29 11.2306 10.0935 11.6538 9.92882C11.9734 9.80415 12.4533 9.65682 13.3373 9.61621C14.1738 9.57843 14.4979 9.5671 16.1877 9.56521V9.56747ZM21.8408 11.0729C21.2402 11.0729 20.7528 11.5597 20.7528 12.1606C20.7528 12.7612 21.2402 13.2486 21.8408 13.2486C22.4415 13.2486 22.9289 12.7612 22.9289 12.1606C22.9289 11.5599 22.4415 11.0729 21.8408 11.0729ZM17.0011 12.3442C14.4298 12.3442 12.345 14.429 12.345 17.0003C12.345 19.5717 14.4298 21.6555 17.0011 21.6555C19.5725 21.6555 21.6565 19.5717 21.6565 17.0003C21.6565 14.429 19.5725 12.3442 17.0011 12.3442ZM17.0011 13.9781C18.6701 13.9781 20.0233 15.3311 20.0233 17.0003C20.0233 18.6694 18.6701 20.0226 17.0011 20.0226C15.3319 20.0226 13.9788 18.6694 13.9788 17.0003C13.9788 15.3311 15.3319 13.9781 17.0011 13.9781Z" fill="white"/>
</svg>
