<svg width="24" height="24" viewBox="0 0 24 24" fill="none" xmlns="http://www.w3.org/2000/svg">
<path d="M4.5 11.5C4.5 11.2239 4.72386 11 5 11H6.5C6.77614 11 7 11.2239 7 11.5V21H4.5V11.5Z" fill="#3E4551"/>
<path d="M8.5 8.5C8.5 8.22386 8.72386 8 9 8H10.5C10.7761 8 11 8.22386 11 8.5V21H8.5V8.5Z" fill="#3E4551"/>
<path d="M12.5 14.5C12.5 14.2239 12.7239 14 13 14H14.5C14.7761 14 15 14.2239 15 14.5V21H12.5V14.5Z" fill="#3E4551"/>
<path d="M16.5 14.5C16.5 14.2239 16.7239 14 17 14H18.5C18.7761 14 19 14.2239 19 14.5V21H16.5V14.5Z" fill="#3E4551"/>
<rect x="4.5" y="20" width="14" height="1" fill="#3E4551"/>
<path d="M5.5 7.5L9.5 4.5L14 10.5L18.5 8.5" stroke="#4176BC" stroke-width="0.9"/>
<circle cx="9.5" cy="4.5" r="1.05" fill="white" stroke="#4176BC" stroke-width="0.9"/>
<circle cx="5.5" cy="7.5" r="1.05" fill="white" stroke="#4176BC" stroke-width="0.9"/>
<circle cx="18.5" cy="8.5" r="1.05" fill="white" stroke="#4176BC" stroke-width="0.9"/>
<circle cx="14" cy="10.5" r="1.05" fill="white" stroke="#4176BC" stroke-width="0.9"/>
</svg>
