<svg width="28" height="28" viewBox="0 0 28 28" fill="none" xmlns="http://www.w3.org/2000/svg">
<rect width="28" height="28" rx="2" fill="#FF2D20"/>
<g clip-path="url(#clip0_248_6)">
<path d="M23.29 8.92571C23.2969 8.95044 23.3004 8.97595 23.3005 9.00157V12.9839C23.3005 13.0351 23.2865 13.0853 23.26 13.1295C23.2335 13.1737 23.1954 13.2104 23.1496 13.2358L19.6938 15.1602V18.9746C19.6938 19.0784 19.6367 19.1742 19.5437 19.2264L12.3299 23.2429C12.3134 23.252 12.2954 23.2578 12.2774 23.264C12.2706 23.2662 12.2643 23.2702 12.2571 23.272C12.2067 23.2848 12.1537 23.2848 12.1033 23.272C12.095 23.2698 12.0875 23.2654 12.0796 23.2625C12.0631 23.2567 12.0459 23.2516 12.0301 23.2429L4.81785 19.2264C4.77203 19.201 4.73396 19.1643 4.70748 19.1201C4.68099 19.0759 4.66703 19.0257 4.66699 18.9746V7.02744C4.66699 7.00131 4.67074 6.9759 4.6775 6.95122C4.67975 6.94287 4.685 6.93525 4.68801 6.9269C4.69364 6.91166 4.69889 6.89605 4.70715 6.8819C4.71277 6.87246 4.72103 6.86484 4.72779 6.85613C4.73642 6.84451 4.7443 6.83253 4.75443 6.82237C4.76306 6.81402 4.77432 6.80785 4.78408 6.80059C4.79496 6.79188 4.80471 6.78245 4.8171 6.77555H4.81747L8.42378 4.76731C8.46945 4.74189 8.52121 4.72852 8.57389 4.72852C8.62657 4.72852 8.67833 4.74189 8.724 4.76731L12.3303 6.77555H12.3311C12.3431 6.78281 12.3532 6.79188 12.3641 6.80023C12.3738 6.80749 12.3847 6.81402 12.3933 6.82201C12.4039 6.83253 12.4114 6.84451 12.4204 6.85613C12.4267 6.86484 12.4354 6.87246 12.4406 6.8819C12.4493 6.89641 12.4541 6.91166 12.4601 6.9269C12.4631 6.93525 12.4684 6.94287 12.4707 6.95158C12.4776 6.97632 12.4811 7.00182 12.4812 7.02744V14.4895L15.4863 12.8159V9.00121C15.4863 8.9758 15.49 8.95003 15.4968 8.92571C15.4994 8.917 15.5043 8.90938 15.5073 8.90103C15.5133 8.88579 15.5186 8.87018 15.5268 8.85602C15.5325 8.84659 15.5407 8.83896 15.5471 8.83025C15.5561 8.81864 15.5636 8.80666 15.5741 8.7965C15.5827 8.78815 15.5936 8.78198 15.6034 8.77472C15.6146 8.76601 15.6244 8.75657 15.6364 8.74968H15.6368L19.2435 6.74143C19.2891 6.71598 19.3409 6.70259 19.3936 6.70259C19.4463 6.70259 19.498 6.71598 19.5437 6.74143L23.15 8.74968C23.1627 8.75694 23.1725 8.76601 23.1838 8.77436C23.1931 8.78162 23.204 8.78815 23.2127 8.79613C23.2232 8.80666 23.2307 8.81864 23.2397 8.83025C23.2464 8.83896 23.2547 8.84659 23.2599 8.85602C23.2686 8.87018 23.2734 8.88579 23.2794 8.90103C23.2828 8.90938 23.2877 8.917 23.29 8.92571ZM22.6993 12.8159V9.50426L21.4373 10.207L19.6938 11.1779V14.4895L22.6997 12.8159H22.6993ZM19.093 18.8065V15.4927L17.378 16.44L12.4808 19.1433V22.4883L19.093 18.8065ZM5.26817 7.53014V18.8065L11.8796 22.488V19.1437L8.42566 17.253L8.42453 17.2523L8.42303 17.2516C8.4114 17.2451 8.40164 17.2356 8.39076 17.2276C8.38138 17.2204 8.37049 17.2146 8.36224 17.2066L8.36149 17.2055C8.35173 17.1964 8.34498 17.1852 8.33672 17.175C8.32922 17.1652 8.32021 17.1569 8.3142 17.1467L8.31383 17.1456C8.30708 17.1347 8.30295 17.1217 8.29807 17.1093C8.29319 17.0984 8.28681 17.0883 8.28381 17.0766V17.0763C8.28006 17.0625 8.2793 17.048 8.2778 17.0338C8.2763 17.0229 8.2733 17.012 8.2733 17.0012V9.20374L6.53019 8.23246L5.26817 7.5305V7.53014ZM8.57426 5.35457L5.56951 7.02744L8.57351 8.70031L11.5779 7.02708L8.57351 5.35457H8.57426ZM10.1369 15.7947L11.88 14.8241V7.53014L10.618 8.23282L8.87448 9.20374V16.4977L10.1369 15.7947ZM19.3936 7.3287L16.3892 9.00157L19.3936 10.6744L22.3976 9.00121L19.3936 7.3287ZM19.093 11.1779L17.3495 10.207L16.0875 9.50426V12.8159L17.8306 13.7864L19.093 14.4895V11.1779ZM12.1798 18.6406L16.5866 16.2074L18.7894 14.9915L15.7873 13.3197L12.3307 15.2444L9.18032 16.9986L12.1798 18.6406Z" fill="white"/>
</g>
<defs>
<clipPath id="clip0_248_6">
<rect width="18.6667" height="18.6667" fill="white" transform="translate(4.66699 4.66675)"/>
</clipPath>
</defs>
</svg>
