<svg width="34" height="34" viewBox="0 0 34 34" fill="none" xmlns="http://www.w3.org/2000/svg">
<path opacity="0.1" fill-rule="evenodd" clip-rule="evenodd" d="M0 17C0 7.61116 7.61116 0 17 0C26.3888 0 34 7.61116 34 17C34 26.3888 26.3888 34 17 34C7.61116 34 0 26.3888 0 17Z" fill="white"/>
<g clip-path="url(#clip0_174_13172)">
<path d="M24.6462 24.6493V24.6487H24.65V19.0374C24.65 16.2923 24.059 14.1777 20.8498 14.1777C19.3071 14.1777 18.2718 15.0243 17.8491 15.8269H17.8045V14.434H14.7617V24.6487H17.9301V19.5907C17.9301 18.259 18.1825 16.9713 19.8318 16.9713C21.4567 16.9713 21.481 18.4911 21.481 19.6762V24.6493H24.6462Z" fill="white"/>
<path d="M9.60156 14.4355H12.7738V24.6502H9.60156V14.4355Z" fill="white"/>
<path d="M11.1869 9.34961C10.1726 9.34961 9.34961 10.1726 9.34961 11.1869C9.34961 12.2011 10.1726 13.0414 11.1869 13.0414C12.2011 13.0414 13.0242 12.2011 13.0242 11.1869C13.0235 10.1726 12.2005 9.34961 11.1869 9.34961V9.34961Z" fill="white"/>
</g>
<defs>
<clipPath id="clip0_174_13172">
<rect width="15.3" height="15.3" fill="white" transform="translate(9.34961 9.34961)"/>
</clipPath>
</defs>
</svg>
