<svg width="120" height="120" viewBox="0 0 120 120" fill="none" xmlns="http://www.w3.org/2000/svg">
<g clip-path="url(#clip0_165_8808)">
<path d="M12.6625 83.8814C12.4511 83.8814 12.2477 83.7646 12.1511 83.5632C11.233 81.6787 10.4175 79.7236 9.72892 77.7485C9.62624 77.4525 9.78127 77.1283 10.0793 77.0236C10.3752 76.921 10.6994 77.078 10.8021 77.374C11.4766 79.3069 12.2739 81.2196 13.1719 83.0639C13.3108 83.3458 13.192 83.6861 12.9101 83.825C12.8296 83.8632 12.745 83.8814 12.6625 83.8814V83.8814ZM19.3732 94.3592C19.2081 94.3592 19.045 94.2867 18.9323 94.1498L18.8477 94.0471C17.5531 92.4525 16.337 90.7713 15.2336 89.0538C15.0645 88.7881 15.143 88.4377 15.4068 88.2666C15.6705 88.0975 16.0229 88.174 16.192 88.4397C17.2712 90.123 18.4611 91.7679 19.7316 93.3303L19.8121 93.429C20.0115 93.6726 19.9752 94.031 19.7316 94.2303C19.6269 94.3169 19.5001 94.3592 19.3732 94.3592ZM28.2907 103.027C28.1699 103.027 28.0491 102.989 27.9464 102.91C26.2893 101.638 24.6887 100.252 23.1846 98.7908C22.9591 98.5713 22.9551 98.2129 23.1746 97.9874C23.394 97.7619 23.7524 97.7559 23.9779 97.9753C25.4497 99.4069 27.0182 100.764 28.639 102.008C28.8866 102.199 28.935 102.556 28.7437 102.806C28.6309 102.95 28.4618 103.027 28.2907 103.027ZM38.9799 109.389C38.9014 109.389 38.8229 109.373 38.7484 109.341C36.8356 108.489 34.9551 107.515 33.1571 106.444C32.8873 106.283 32.7987 105.934 32.9598 105.665C33.1189 105.395 33.4692 105.306 33.739 105.467C35.4987 106.514 37.339 107.469 39.2115 108.302C39.4974 108.429 39.6262 108.765 39.4994 109.051C39.4048 109.265 39.1974 109.389 38.9799 109.389V109.389ZM50.8611 113.084C50.8249 113.084 50.7907 113.08 50.7544 113.074C48.6927 112.687 46.635 112.178 44.6417 111.558C44.3417 111.465 44.1746 111.147 44.2692 110.847C44.3618 110.547 44.6799 110.38 44.9799 110.473C46.9309 111.079 48.9444 111.578 50.9638 111.957C51.2739 112.013 51.4772 112.311 51.4189 112.619C51.3665 112.893 51.1289 113.084 50.8611 113.084V113.084ZM69.4692 113.31C69.1954 113.31 68.9538 113.112 68.9074 112.832C68.8571 112.522 69.0665 112.23 69.3766 112.18C71.3981 111.848 73.4215 111.393 75.3907 110.827C75.6927 110.74 76.0068 110.916 76.0954 111.218C76.1819 111.52 76.0068 111.834 75.7048 111.92C73.6934 112.498 71.6256 112.963 69.5618 113.301C69.5296 113.308 69.4994 113.31 69.4692 113.31ZM60.8376 114.012C59.5692 114.012 58.2786 113.966 57.0021 113.877C56.688 113.855 56.4524 113.581 56.4746 113.269C56.4967 112.955 56.7705 112.72 57.0806 112.742C58.3329 112.83 59.5954 112.875 60.8376 112.875C61.639 112.875 62.4484 112.857 63.2457 112.82C63.5638 112.806 63.8256 113.048 63.8397 113.362C63.8538 113.676 63.6121 113.942 63.2981 113.956C62.4826 113.994 61.6551 114.012 60.8376 114.012V114.012Z" fill="#66509E"/>
<path d="M113.805 53.4881C113.525 53.4881 113.279 53.2795 113.243 52.993C112.977 50.9599 112.589 48.9225 112.087 46.9385C112.011 46.6338 112.196 46.3248 112.5 46.2479C112.804 46.1711 113.114 46.3554 113.191 46.6598C113.702 48.6871 114.099 50.7686 114.371 52.8462C114.411 53.1575 114.191 53.443 113.879 53.4835C113.855 53.4867 113.831 53.4881 113.805 53.4881V53.4881ZM113.972 65.9283C113.952 65.9283 113.934 65.9262 113.913 65.9242C113.601 65.894 113.374 65.6142 113.406 65.3021C113.591 63.484 113.684 61.6437 113.684 59.8296C113.684 59.6001 113.684 59.3705 113.68 59.142C113.676 58.8281 113.928 58.57 114.242 58.566C114.244 58.566 114.248 58.566 114.25 58.566C114.56 58.566 114.813 58.8156 114.817 59.1271C114.822 59.3605 114.822 59.596 114.822 59.8296C114.822 61.682 114.727 63.5625 114.538 65.4169C114.507 65.7108 114.26 65.9283 113.972 65.9283V65.9283ZM111.282 78.0752C111.22 78.0752 111.157 78.0652 111.095 78.043C110.799 77.9403 110.642 77.6162 110.744 77.3202C111.417 75.3853 111.983 73.39 112.426 71.3887C112.492 71.0826 112.796 70.8873 113.104 70.9558C113.41 71.0242 113.603 71.3283 113.535 71.6343C113.084 73.6799 112.506 75.7175 111.82 77.6927C111.737 77.9283 111.518 78.0752 111.282 78.0752V78.0752Z" fill="#66509E"/>
<path d="M65.3274 7.25166C65.3113 7.25166 65.2952 7.25126 65.2791 7.24965C63.767 7.12059 62.2388 7.05515 60.7348 7.05515C60.1932 7.05555 59.6536 7.06361 59.116 7.07991C58.7999 7.08736 58.5401 6.84294 58.5301 6.52904C58.52 6.21515 58.7677 5.9528 59.0818 5.94314C59.6294 5.92643 60.1831 5.91797 60.7308 5.91797C60.7328 5.91797 60.7328 5.91797 60.7348 5.91797C62.271 5.91797 63.8314 5.98461 65.3757 6.11649C65.6878 6.14327 65.9214 6.41851 65.8932 6.73139C65.869 7.02777 65.6193 7.25166 65.3274 7.25166V7.25166ZM46.7959 8.90971C46.5462 8.90971 46.3167 8.7432 46.2482 8.48971C46.1657 8.18669 46.3448 7.87421 46.6469 7.79206C48.6663 7.24461 50.7401 6.81112 52.8099 6.50347C53.12 6.45716 53.4099 6.67159 53.4563 6.98226C53.5026 7.29293 53.2891 7.58206 52.9771 7.62837C50.9516 7.92958 48.922 8.35401 46.9448 8.88978C46.8945 8.90347 46.8442 8.90971 46.7959 8.90971V8.90971ZM77.5207 9.72555C77.4623 9.72555 77.4019 9.71649 77.3435 9.69716C75.4026 9.06173 73.3952 8.5328 71.3818 8.12488C71.0757 8.06267 70.8764 7.76267 70.9388 7.45481C71.0012 7.14716 71.3012 6.94824 71.6093 7.01025C73.665 7.42683 75.7126 7.96703 77.6979 8.61636C77.9959 8.71401 78.1589 9.03515 78.0603 9.33354C77.9818 9.57334 77.7603 9.72555 77.5207 9.72555ZM35.2529 13.5442C35.0516 13.5442 34.8563 13.4369 34.7516 13.2474C34.6026 12.9718 34.7032 12.6263 34.9791 12.4763C36.8193 11.4748 38.7361 10.572 40.6771 9.7926C40.969 9.67562 41.2992 9.81716 41.416 10.1083C41.5328 10.3996 41.3918 10.7309 41.0999 10.8478C39.1992 11.6109 37.3247 12.4946 35.5247 13.4749C35.4381 13.5219 35.3435 13.5442 35.2529 13.5442V13.5442ZM25.0891 20.7225C24.9341 20.7225 24.7791 20.6586 24.6663 20.5334C24.4569 20.2996 24.4771 19.94 24.7106 19.7304C26.271 18.3319 27.9261 17.0109 29.6334 15.8047C29.8912 15.6235 30.2455 15.6845 30.4267 15.9412C30.6079 16.1975 30.5475 16.5525 30.2898 16.7335C28.6187 17.9145 26.9959 19.2078 25.4697 20.5773C25.361 20.6745 25.224 20.7225 25.0891 20.7225V20.7225Z" fill="#66509E"/>
<path d="M20.9579 55.8312C23.2331 33.8428 42.9042 17.8621 64.8928 20.1377C86.8814 22.4134 102.862 42.0834 100.585 64.0732C98.3096 86.0618 78.6405 102.042 56.6519 99.7651C34.6633 97.4899 18.6827 77.8208 20.9579 55.8312V55.8312Z" fill="#EDEAF3"/>
<path d="M11.1191 66.5982L7.47879 66.6626L8.79154 60.5761L2.34053 58.5663L5.86201 53.2553L0.556641 49.3601L5.86201 45.4649L2.34053 40.1537L8.79154 38.1445L7.47879 32.0577L14.2962 32.1767L15.3513 26.0489L21.7117 28.2814L25.0076 22.8516L30.1459 26.9287L35.2821 22.8516L38.5781 28.2814L44.9385 26.0489L45.9936 32.1767L52.811 32.0577L51.4983 38.1445L57.9493 40.1537L54.4278 45.4649L59.7331 49.3601L54.4278 53.2553L57.9493 58.5663L51.4983 60.5761L52.811 66.6626L49.0399 66.5962L11.1191 66.5982V66.5982Z" fill="white"/>
<path d="M52.8224 67.2133C52.8183 67.2133 52.8163 67.2133 52.8123 67.2133L49.0411 67.1469C48.727 67.1429 48.4774 66.8831 48.4814 66.569C48.4875 66.259 48.7411 66.0113 49.0512 66.0113C49.0532 66.0113 49.0573 66.0113 49.0613 66.0113L52.1156 66.0637L50.9539 60.6778C50.8915 60.3899 51.0606 60.1039 51.3405 60.0154L57.0687 58.2317L53.966 53.5523C53.7968 53.2992 53.8572 52.9593 54.1029 52.7797L58.7841 49.343L54.1029 45.9063C53.8572 45.7265 53.7968 45.3864 53.966 45.1335L57.0687 40.4539L51.3405 38.6702C51.0606 38.5827 50.8915 38.2951 50.9539 38.0074L52.1156 32.6217L46.015 32.728C45.7371 32.7349 45.4935 32.5327 45.4452 32.2561L44.5049 26.7911L38.7787 28.8008C38.525 28.89 38.2432 28.7894 38.1042 28.5594L35.1425 23.6807L30.5096 27.3572C30.3022 27.5213 30.0103 27.5213 29.8029 27.3572L25.17 23.6807L22.2103 28.5594C22.0693 28.7894 21.7895 28.89 21.5358 28.8008L15.8076 26.7911L14.8673 32.2561C14.819 32.5327 14.5814 32.7355 14.2975 32.728L8.19685 32.6217L9.35859 38.0074C9.42101 38.2951 9.25188 38.5827 8.97201 38.6702L3.24584 40.4539L6.34852 45.1335C6.51564 45.3864 6.45523 45.7265 6.2096 45.9063L1.52839 49.343L6.2096 52.7797C6.45523 52.9593 6.51564 53.2992 6.34852 53.5523L3.24584 58.2317L8.97201 60.0154C9.25188 60.1039 9.42101 60.3899 9.35859 60.6778L8.19685 66.0637L11.1203 66.0133C11.1244 66.0133 11.1284 66.0133 11.1304 66.0133C11.4405 66.0133 11.6942 66.261 11.7002 66.5711C11.7042 66.8852 11.4546 67.1449 11.1405 67.1509L7.5002 67.2133C7.32705 67.2174 7.16195 67.1409 7.05121 67.006C6.94047 66.8731 6.89819 66.6959 6.93443 66.5248L8.13644 60.9476L2.18275 59.0922C2.01141 59.0388 1.87671 58.9084 1.81611 58.7398C1.75591 58.5711 1.78007 58.3841 1.87872 58.2351L5.1002 53.3755L0.231745 49.8013C0.0847651 49.6941 0 49.5238 0 49.343C0 49.1618 0.0847651 48.9917 0.231745 48.8847L5.1002 45.3103L1.87872 40.4509C1.78007 40.3017 1.75591 40.1147 1.81611 39.946C1.87671 39.7774 2.01141 39.647 2.18275 39.5936L8.13644 37.739L6.93443 32.1604C6.89819 31.9907 6.94047 31.8137 7.05121 31.6796C7.16195 31.5455 7.32705 31.468 7.5002 31.4721L13.8304 31.5826L14.8029 25.9351C14.8311 25.7702 14.9297 25.6263 15.0747 25.5415C15.2177 25.4566 15.3928 25.4396 15.5499 25.4952L21.4754 27.5753L24.5317 22.5393C24.6163 22.3998 24.7572 22.3033 24.9183 22.2745C25.0794 22.2457 25.2445 22.2874 25.3713 22.3891L30.1572 26.1856L34.9411 22.3891C35.068 22.2874 35.2331 22.2457 35.3942 22.2745C35.5552 22.3033 35.6962 22.3998 35.7807 22.5393L38.8371 27.5753L44.7626 25.4952C44.9197 25.4398 45.0948 25.4566 45.2398 25.5415C45.3828 25.6263 45.4834 25.7702 45.5116 25.9351L46.4841 31.5826L52.8123 31.4721C52.8163 31.4721 52.8183 31.4721 52.8224 31.4721C52.9935 31.4721 53.1546 31.5482 53.2613 31.6796C53.372 31.8137 53.4143 31.9907 53.3781 32.1604L52.176 37.739L58.1297 39.5936C58.3009 39.647 58.4358 39.7774 58.4962 39.946C58.5566 40.1147 58.5324 40.3017 58.4338 40.4509L55.2123 45.3103L60.0807 48.8847C60.2277 48.9917 60.3143 49.1618 60.3143 49.343C60.3143 49.5238 60.2277 49.6941 60.0807 49.8013L55.2123 53.3757L58.4338 58.2351C58.5324 58.3841 58.5566 58.5711 58.4962 58.7398C58.4358 58.9084 58.3009 59.0388 58.1297 59.0922L52.176 60.9476L53.3781 66.5248C53.4143 66.6959 53.372 66.8731 53.2613 67.006C53.1546 67.1368 52.9935 67.2133 52.8224 67.2133V67.2133Z" fill="#66509E"/>
<path d="M45.6405 78.7415L45.6264 68.8737C45.6224 66.6569 44.5492 64.5065 42.5781 63.2059C41.3036 62.3643 39.7411 61.875 38.068 61.875H22.6311C20.9579 61.875 19.3955 62.3643 18.121 63.2059C16.1499 64.5065 15.0767 66.6569 15.0727 68.8737L15.0586 78.7415H45.6405V78.7415Z" fill="white"/>
<path d="M45.6243 79.3517C45.3123 79.3517 45.0565 79.098 45.0565 78.7839L45.0404 68.9161C45.0384 66.8181 43.9935 64.8752 42.2478 63.7235C41.0237 62.9141 39.572 62.4852 38.0518 62.4852H22.6149C21.0948 62.4852 19.6431 62.9141 18.419 63.7235C16.6733 64.8752 15.6284 66.8181 15.6243 68.9161L15.6102 78.7839C15.6102 79.098 15.3545 79.3517 15.0425 79.3517H15.0404C14.7263 79.3517 14.4727 79.096 14.4727 78.7839L14.4888 68.9141C14.4928 66.4336 15.727 64.1383 17.7908 62.7732C19.2042 61.8409 20.8713 61.3477 22.6149 61.3477H38.0518C39.7955 61.3477 41.4626 61.8409 42.876 62.7732C44.9398 64.1383 46.174 66.4336 46.178 68.9141L46.1941 78.7839C46.1941 79.096 45.9404 79.3517 45.6264 79.3517H45.6243V79.3517Z" fill="#66509E"/>
<path d="M16.775 43.6231H15.275C14.9609 43.6231 14.7072 43.3689 14.7072 43.0546C14.7072 42.7405 14.9609 42.486 15.275 42.486H16.775C17.4173 42.486 17.9387 42.0342 17.9387 41.4787V41.4493C17.9387 40.8938 17.4173 40.4417 16.775 40.4417H16.481C15.2106 40.4417 14.1797 39.4795 14.1797 38.297C14.1797 37.1146 15.2106 36.1523 16.481 36.1523H17.8038C18.1179 36.1523 18.3736 36.4068 18.3736 36.7209C18.3736 37.035 18.1179 37.2895 17.8038 37.2895H16.481C15.8387 37.2895 15.3153 37.7415 15.3153 38.297C15.3153 38.8525 15.8387 39.3046 16.481 39.3046H16.775C18.0434 39.3046 19.0763 40.2666 19.0763 41.4493V41.4787C19.0763 42.6611 18.0434 43.6231 16.775 43.6231V43.6231Z" fill="#EE445B"/>
<path d="M16.6245 37.2518C16.3104 37.2518 16.0547 36.9971 16.0547 36.683V35.0803C16.0547 34.7664 16.3104 34.5117 16.6245 34.5117C16.9386 34.5117 17.1923 34.7664 17.1923 35.0803V36.683C17.1923 36.9971 16.9386 37.2518 16.6245 37.2518Z" fill="#EE445B"/>
<path d="M16.6245 45.2076C16.3104 45.2076 16.0547 44.9532 16.0547 44.6391V43.0489C16.0547 42.735 16.3104 42.4805 16.6245 42.4805C16.9386 42.4805 17.1923 42.735 17.1923 43.0489V44.6391C17.1923 44.9532 16.9386 45.2076 16.6245 45.2076Z" fill="#EE445B"/>
<path d="M12.3805 56.6896H10.8805C10.5664 56.6896 10.3127 56.4351 10.3127 56.121C10.3127 55.8071 10.5664 55.5524 10.8805 55.5524H12.3805C13.0227 55.5524 13.5442 55.1004 13.5442 54.5449V54.5157C13.5442 53.9602 13.0227 53.5081 12.3805 53.5081H12.0865C10.816 53.5081 9.78516 52.5459 9.78516 51.3632C9.78516 50.1808 10.816 49.2188 12.0865 49.2188H13.4093C13.7234 49.2188 13.9791 49.4732 13.9791 49.7873C13.9791 50.1014 13.7234 50.3559 13.4093 50.3559H12.0865C11.4442 50.3559 10.9227 50.8079 10.9227 51.3632C10.9227 51.9187 11.4442 52.3708 12.0865 52.3708H12.3805C13.6489 52.3708 14.6818 53.333 14.6818 54.5157V54.5449C14.6818 55.7273 13.6489 56.6896 12.3805 56.6896V56.6896Z" fill="#66509E"/>
<path d="M12.23 50.3262C11.9159 50.3262 11.6602 50.0715 11.6602 49.7577V48.1467C11.6602 47.8326 11.9159 47.5781 12.23 47.5781C12.544 47.5781 12.7977 47.8326 12.7977 48.1467V49.7577C12.7977 50.0715 12.544 50.3262 12.23 50.3262Z" fill="#66509E"/>
<path d="M12.23 58.2779C11.9159 58.2779 11.6602 58.0234 11.6602 57.7095V56.1155C11.6602 55.8014 11.9159 55.5469 12.23 55.5469C12.544 55.5469 12.7977 55.8014 12.7977 56.1155V57.7095C12.7977 58.0234 12.544 58.2779 12.23 58.2779Z" fill="#66509E"/>
<path d="M45.4879 43.6231H43.9879C43.6738 43.6231 43.4181 43.3689 43.4181 43.0546C43.4181 42.7405 43.6738 42.486 43.9879 42.486H45.4879C46.1282 42.486 46.6517 42.0342 46.6517 41.4786V41.4493C46.6517 40.8938 46.1282 40.4417 45.4879 40.4417H45.192C43.9235 40.4417 42.8906 39.4795 42.8906 38.297C42.8906 37.1146 43.9235 36.1523 45.192 36.1523H46.5168C46.8309 36.1523 47.0846 36.4068 47.0846 36.7209C47.0846 37.035 46.8309 37.2895 46.5168 37.2895H45.192C44.5497 37.2895 44.0282 37.7415 44.0282 38.297C44.0282 38.8525 44.5497 39.3046 45.192 39.3046H45.4879C46.7564 39.3046 47.7893 40.2666 47.7893 41.4493V41.4786C47.7893 42.6611 46.7564 43.6231 45.4879 43.6231Z" fill="#EE445B"/>
<path d="M45.3627 37.2639C45.0486 37.2639 44.7949 37.0092 44.7949 36.6953V35.0803C44.7949 34.7664 45.0486 34.5117 45.3627 34.5117C45.6768 34.5117 45.9325 34.7664 45.9325 35.0803V36.6953C45.9325 37.0092 45.6768 37.2639 45.3627 37.2639V37.2639Z" fill="#EE445B"/>
<path d="M45.3627 45.2076C45.0486 45.2076 44.7949 44.9532 44.7949 44.6391V43.0489C44.7949 42.735 45.0486 42.4805 45.3627 42.4805C45.6768 42.4805 45.9325 42.735 45.9325 43.0489V44.6391C45.9325 44.9532 45.6768 45.2076 45.3627 45.2076Z" fill="#EE445B"/>
<path d="M30.0485 37.5882H28.5485C28.2344 37.5882 27.9787 37.3335 27.9787 37.0196C27.9787 36.7053 28.2344 36.4508 28.5485 36.4508H30.0485C30.6908 36.4508 31.2122 35.9988 31.2122 35.4433V35.4141C31.2122 34.8584 30.6908 34.4066 30.0485 34.4066H29.7525C28.4841 34.4066 27.4512 33.4446 27.4512 32.2619C27.4512 31.0794 28.4841 30.1172 29.7525 30.1172H31.0773C31.3914 30.1172 31.6471 30.3717 31.6471 30.686C31.6471 30.9999 31.3914 31.2544 31.0773 31.2544H29.7525C29.1122 31.2544 28.5888 31.7064 28.5888 32.2619C28.5888 32.8172 29.1122 33.2694 29.7525 33.2694H30.0485C31.3169 33.2694 32.3498 34.2314 32.3498 35.4141V35.4433C32.3498 36.6258 31.3169 37.5882 30.0485 37.5882Z" fill="#66509E"/>
<path d="M29.896 31.2682C29.5819 31.2682 29.3262 31.0135 29.3262 30.6996V29.1037C29.3262 28.7895 29.5819 28.5352 29.896 28.5352C30.2101 28.5352 30.4638 28.7895 30.4638 29.1037V30.6996C30.4638 31.0135 30.2101 31.2682 29.896 31.2682Z" fill="#66509E"/>
<path d="M29.896 39.1793C29.5819 39.1793 29.3262 38.9248 29.3262 38.6107V37.0141C29.3262 36.7 29.5819 36.4453 29.896 36.4453C30.2101 36.4453 30.4638 36.7 30.4638 37.0141V38.6107C30.4638 38.9248 30.2101 39.1793 29.896 39.1793Z" fill="#66509E"/>
<path d="M45.6203 72.0911C42.3103 70.875 39.1009 72.2461 39.1009 72.2461L30.1573 73.873L21.6083 72.2119C18.8338 71.0139 16.0391 71.7388 15.0586 72.069L15.0626 68.8757C15.0666 66.6589 16.1418 64.5086 18.1089 63.2099C19.3834 62.3683 20.9499 61.875 22.621 61.875H24.8378C25.5445 63.9448 27.6405 65.7609 30.1109 65.7609C32.5834 65.7609 34.6754 63.9488 35.3841 61.875H38.0579C39.7291 61.875 41.2955 62.3683 42.568 63.2099C44.5391 64.5086 45.6123 66.6589 45.6163 68.8757L45.6203 72.0911Z" fill="#807DBB"/>
<path d="M21.7905 71.7087L30.1744 73.3376L38.953 71.7409C39.408 71.5577 42.0919 70.5732 45.0637 71.3584L45.0617 68.9201C45.0577 66.8181 44.0127 64.8772 42.2691 63.7255C41.0409 62.9141 39.5892 62.4852 38.0711 62.4852H35.7879C34.9382 64.4745 32.808 66.3712 30.1241 66.3712C27.4382 66.3712 25.308 64.4745 24.4603 62.4852H22.6342C21.116 62.4852 19.6644 62.9141 18.4362 63.7255C16.6905 64.8792 15.6476 66.8201 15.6436 68.9201L15.6416 71.3524C17.0228 71.004 19.3926 70.694 21.7905 71.7087V71.7087ZM30.1704 74.4832C30.1342 74.4832 30.0979 74.4812 30.0617 74.4732L21.5147 72.8141C21.4724 72.8061 21.4342 72.794 21.3959 72.7779C18.7483 71.6342 16.0241 72.3913 15.253 72.649C15.0798 72.7074 14.8885 72.6792 14.7395 72.5725C14.5905 72.4658 14.502 72.2926 14.502 72.1094L14.506 68.9181C14.51 66.4376 15.7462 64.1403 17.81 62.7772C19.2234 61.843 20.8926 61.3477 22.6342 61.3477H24.8509C25.0946 61.3477 25.312 61.5027 25.3905 61.7342C25.9825 63.4738 27.7986 65.2336 30.1241 65.2336C32.4476 65.2336 34.2657 63.4738 34.8597 61.7322C34.9382 61.5027 35.1556 61.3477 35.3973 61.3477H38.0711C39.8127 61.3477 41.4798 61.843 42.8952 62.7772C44.959 64.1383 46.1932 66.4336 46.1973 68.9181L46.2013 72.1336C46.2013 72.3188 46.1107 72.494 45.9597 72.6007C45.8067 72.7054 45.6113 72.7316 45.4362 72.6671C42.3758 71.5416 39.3657 72.798 39.3355 72.8121C39.2973 72.8282 39.257 72.8403 39.2147 72.8483L30.2731 74.4752C30.2389 74.4812 30.2046 74.4832 30.1704 74.4832V74.4832Z" fill="#66509E"/>
<path d="M49.9118 56.6896H48.4098C48.0977 56.6896 47.842 56.4351 47.842 56.121C47.842 55.8071 48.0977 55.5524 48.4098 55.5524H49.9118C50.552 55.5524 51.0755 55.1004 51.0755 54.5449V54.5157C51.0755 53.9602 50.552 53.5081 49.9118 53.5081H49.6158C48.3473 53.5081 47.3145 52.5459 47.3145 51.3632C47.3145 50.1808 48.3473 49.2188 49.6158 49.2188H50.9406C51.2547 49.2188 51.5084 49.4732 51.5084 49.7873C51.5084 50.1014 51.2547 50.3559 50.9406 50.3559H49.6158C48.9735 50.3559 48.452 50.8079 48.452 51.3632C48.452 51.9187 48.9735 52.3708 49.6158 52.3708H49.9118C51.1802 52.3708 52.2131 53.333 52.2131 54.5157V54.5449C52.2131 55.7273 51.1802 56.6896 49.9118 56.6896V56.6896Z" fill="#66509E"/>
<path d="M49.7572 50.3262C49.4431 50.3262 49.1895 50.0715 49.1895 49.7577V48.1467C49.1895 47.8326 49.4431 47.5781 49.7572 47.5781C50.0713 47.5781 50.327 47.8326 50.327 48.1467V49.7577C50.327 50.0715 50.0713 50.3262 49.7572 50.3262Z" fill="#66509E"/>
<path d="M49.7572 58.2902C49.4431 58.2902 49.1895 58.0357 49.1895 57.7218V56.1155C49.1895 55.8014 49.4431 55.5469 49.7572 55.5469C50.0713 55.5469 50.327 55.8014 50.327 56.1155V57.7218C50.327 58.0357 50.0713 58.2902 49.7572 58.2902Z" fill="#66509E"/>
<path d="M20.8754 77.528L23.2633 76.3119L30.3566 72.6998L34.2123 70.7086C36.27 69.6737 38.8391 70.7629 39.2922 72.8609C39.5841 74.22 38.8693 75.5931 37.5284 76.2475L37.4157 76.3039L30.3224 79.775L23.219 83.2401C19.5244 85.0441 15.0526 82.6059 15.0586 78.7925L20.8754 77.528V77.528Z" fill="white"/>
<path d="M20.5814 84.3905C19.3753 84.3905 18.1753 84.0603 17.1364 83.412C15.4411 82.3509 14.4706 80.6597 14.4727 78.7731C14.4727 78.459 14.7284 78.2053 15.0425 78.2053C15.3566 78.2053 15.6102 78.459 15.6102 78.7731C15.6082 80.261 16.3834 81.5999 17.7384 82.4476C19.2928 83.4201 21.2921 83.5207 22.9532 82.7093L30.0566 79.2442L37.2626 75.7187C38.372 75.1751 38.9579 74.0677 38.7203 72.9624C38.5532 72.1932 38.0156 71.5409 37.2425 71.1724C36.3646 70.7516 35.3196 70.7597 34.4519 71.1966L30.6022 73.1858L21.117 78.014C20.8371 78.157 20.4948 78.0462 20.3519 77.7664C20.2109 77.4865 20.3217 77.1442 20.6015 77.0013L30.0827 72.1731L33.9344 70.1838C35.1223 69.5879 36.5398 69.5738 37.7337 70.1456C38.827 70.6691 39.5901 71.6073 39.8317 72.7228C40.1821 74.3496 39.3505 75.9644 37.7619 76.7395L30.5559 80.265L23.4505 83.7301C22.5485 84.1711 21.5639 84.3905 20.5814 84.3905V84.3905Z" fill="#66509E"/>
<path d="M45.6264 78.7925C45.6324 82.6059 41.1606 85.0441 37.466 83.2401L23.1566 76.2475C21.8157 75.5931 21.1009 74.22 21.3928 72.8609C21.8459 70.7629 24.415 69.6737 26.4727 70.7086L40.1438 77.7072L45.6264 78.7925V78.7925Z" fill="white"/>
<path d="M40.1011 84.391C39.1186 84.391 38.134 84.1716 37.23 83.7306L22.9206 76.74C21.332 75.9648 20.5005 74.3501 20.8508 72.7232C21.0924 71.6078 21.8555 70.6695 22.9488 70.146C24.1428 69.5742 25.5602 69.5883 26.7421 70.1803L40.4152 77.183C40.6951 77.3259 40.8058 77.6682 40.6629 77.9481C40.5199 78.2279 40.1777 78.3387 39.8978 78.1957L26.2267 71.195C25.3629 70.7601 24.3179 70.7521 23.4401 71.1729C22.6669 71.5414 22.1293 72.1937 21.9622 72.9628C21.7246 74.0682 22.3085 75.1756 23.4179 75.7192L37.7293 82.7098C39.3904 83.5212 41.3877 83.4205 42.9441 82.4481C44.2991 81.6004 45.0743 80.2615 45.0723 78.7736C45.0723 78.4595 45.326 78.2058 45.6401 78.2058C45.9542 78.2058 46.2079 78.4595 46.2099 78.7736C46.2119 80.6601 45.2414 82.3514 43.5461 83.4125C42.5072 84.0608 41.3072 84.391 40.1011 84.391V84.391Z" fill="#66509E"/>
<path d="M38.1495 52.6762C40.022 51.051 40.9099 47.4566 40.0522 45.6445L37.2132 46.8C36.9112 48.4716 37.3663 50.4973 38.1495 52.6762Z" fill="#EE445B"/>
<path d="M37.7093 47.2459C37.5724 48.4016 37.7838 49.821 38.3657 51.6398C39.5114 50.1595 40.0167 47.8567 39.6926 46.4389L37.7093 47.2459V47.2459ZM38.1322 53.2859C38.0838 53.2859 38.0355 53.2799 37.9892 53.2674C37.808 53.2201 37.661 53.0862 37.5966 52.9096C36.6563 50.2878 36.3503 48.3273 36.6362 46.7405C36.6704 46.5486 36.8013 46.3882 36.9825 46.3145L39.8214 45.1592C40.1013 45.0456 40.4214 45.1698 40.5503 45.4427C41.5348 47.5247 40.502 51.4129 38.5046 53.1468C38.3999 53.2376 38.2671 53.2859 38.1322 53.2859Z" fill="#66509E"/>
<path d="M37.5865 48.3694C37.9972 49.3505 38.2248 50.4293 38.2248 51.5619C38.2248 51.9382 38.1986 52.3089 38.1503 52.6719C37.6147 56.6768 34.2181 59.7642 30.1087 59.7642C25.9509 59.7642 22.5241 56.6017 22.0509 52.5263C20.3516 43.2501 27.3603 43.964 37.5865 48.3694V48.3694Z" fill="white"/>
<path d="M26.5292 45.8335C25.2708 45.8335 24.3125 46.1023 23.638 46.6387C22.4339 47.5981 22.0937 49.5572 22.6252 52.4611C22.6272 52.4734 22.6292 52.4859 22.6292 52.498C23.0762 56.3372 26.2977 59.2315 30.1232 59.2315C33.8823 59.2315 37.0977 56.3954 37.601 52.6335C37.6474 52.293 37.6695 51.9449 37.6695 51.599C37.6695 50.6442 37.4984 49.716 37.1601 48.8364C32.4688 46.831 28.9494 45.8335 26.5292 45.8335V45.8335ZM30.1232 60.369C25.7259 60.369 22.0232 57.0513 21.5037 52.6478C20.8856 49.262 21.3527 47.0054 22.9292 45.7494C25.3111 43.8533 30.0447 44.5319 37.8266 47.8842C37.9615 47.9424 38.0682 48.0511 38.1245 48.187C38.5776 49.2682 38.8071 50.4163 38.8071 51.599C38.8071 51.9952 38.7809 52.3939 38.7286 52.7843C38.1487 57.1085 34.45 60.369 30.1232 60.369V60.369Z" fill="#66509E"/>
<path d="M22.0627 52.7094C20.1801 50.1406 20.5164 47.4733 21.1747 45.8593C21.1788 45.8486 21.1828 45.838 21.1868 45.8273C22.1211 43.5795 24.209 41.8488 26.77 41.2604C30.0056 40.5169 33.8412 41.2006 36.517 42.6507C38.0432 43.4776 39.5412 43.1363 40.3043 42.6704C40.3043 42.6704 41.017 48.7135 35.2184 48.9497C30.1204 49.1573 27.1566 45.9352 23.6392 48.4242C22.407 49.2964 21.9378 51.0902 22.0546 52.507C22.0566 52.5298 22.0586 52.5493 22.0606 52.565L22.0627 52.7094V52.7094Z" fill="#EE445B"/>
<path d="M29.5803 41.5052C28.646 41.5052 27.736 41.6 26.8843 41.7955C24.5125 42.3406 22.5736 43.9219 21.6997 46.0261L21.6877 46.0565C21.3655 46.8482 20.834 48.6563 21.6071 50.7079C21.8487 49.632 22.3883 48.5842 23.2984 47.9407C25.6038 46.3088 27.746 46.9104 30.0132 47.5479C31.5051 47.9677 33.1964 48.4436 35.1836 48.3623C36.6776 48.3015 37.8252 47.8163 38.5924 46.9207C39.5105 45.8475 39.7158 44.3963 39.744 43.5097C38.7877 43.8047 37.5111 43.8236 36.2326 43.1314C34.2856 42.0756 31.8695 41.5052 29.5803 41.5052V41.5052ZM22.0501 53.2589C21.8749 53.2589 21.7038 53.1784 21.591 53.0264C19.2856 49.8806 20.1554 46.8025 20.6346 45.625L20.6487 45.5924C21.6655 43.1471 23.9004 41.3141 26.6306 40.6871C29.8219 39.954 33.8024 40.521 36.7742 42.1316C38.1454 42.8739 39.444 42.5022 39.9937 42.166C40.1608 42.0649 40.3662 42.0552 40.5393 42.1398C40.7145 42.2246 40.8333 42.3921 40.8554 42.5846C40.8695 42.7076 41.1917 45.625 39.4622 47.6534C38.4816 48.8032 37.0561 49.4242 35.2299 49.4987C33.0635 49.5867 31.2796 49.0853 29.7051 48.6428C27.5346 48.0323 25.8192 47.5501 23.9548 48.8693C22.8897 49.6225 22.5111 51.2487 22.6098 52.4411C22.6098 52.4576 22.6118 52.4715 22.6138 52.4828C22.6179 52.5259 22.6179 52.5683 22.6138 52.6096C22.642 52.8106 22.5615 53.0206 22.3863 53.1488C22.2856 53.2231 22.1669 53.2589 22.0501 53.2589Z" fill="#66509E"/>
<path d="M31.8489 56.8014H28.7241C28.408 56.8014 28.1543 56.5469 28.1543 56.2327C28.1543 55.9188 28.408 55.6641 28.7241 55.6641H31.8489C32.165 55.6641 32.4187 55.9188 32.4187 56.2327C32.4187 56.5469 32.165 56.8014 31.8489 56.8014Z" fill="#66509E"/>
<path d="M30.1145 66.3419C27.2897 66.3419 24.8515 64.5822 24.189 62.0634C24.1085 61.7594 24.2897 61.4493 24.5937 61.3688C24.8958 61.2903 25.2078 61.4695 25.2884 61.7735C25.8199 63.793 27.8052 65.2044 30.1145 65.2044C32.426 65.2044 34.4132 63.793 34.9427 61.7715C35.0233 61.4675 35.3354 61.2862 35.6374 61.3668C35.9414 61.4473 36.1226 61.7574 36.0441 62.0614C35.3817 64.5822 32.9434 66.3419 30.1145 66.3419Z" fill="#66509E"/>
<path d="M45.628 72.8164C45.5535 72.8164 45.477 72.8003 45.4025 72.7681C42.2535 71.411 39.3663 72.7459 39.3381 72.76C39.0562 72.8949 38.7159 72.7741 38.581 72.4922C38.4461 72.2083 38.5649 71.8701 38.8468 71.7332C38.9837 71.6687 42.2153 70.1566 45.8535 71.7251C46.1414 71.8479 46.2743 72.1842 46.1515 72.4721C46.0589 72.6875 45.8495 72.8164 45.628 72.8164V72.8164Z" fill="#66509E"/>
<path d="M21.6102 72.8176C21.5337 72.8176 21.4592 72.8035 21.3847 72.7713C18.2156 71.4042 15.3444 72.7371 15.3142 72.7512C15.0323 72.8861 14.6921 72.7653 14.5572 72.4814C14.4223 72.1975 14.5431 71.8592 14.827 71.7243C14.9619 71.6599 18.1974 70.1599 21.8357 71.7283C22.1236 71.8512 22.2565 72.1854 22.1317 72.4753C22.039 72.6908 21.8296 72.8176 21.6102 72.8176V72.8176Z" fill="#66509E"/>
<path d="M64.3652 71.3385L73.1458 61.4062L94.8243 80.5318L64.3652 71.3385V71.3385Z" fill="#807DBB"/>
<path d="M94.8072 81.0825C94.6744 81.0825 94.5395 81.0362 94.4328 80.9416L73.1791 62.1926L64.773 71.6979C64.5656 71.9335 64.2052 71.9536 63.9717 71.7463C63.7361 71.5389 63.714 71.1785 63.9213 70.9429L72.7039 61.0127C72.9113 60.7771 73.2697 60.755 73.5052 60.9624L95.1838 80.0879C95.4193 80.2953 95.4415 80.6557 95.2341 80.8912C95.1213 81.0181 94.9663 81.0825 94.8072 81.0825Z" fill="#66509E"/>
<path d="M68.2324 73.3892L70.8237 70.3711C73.7532 72.7429 77.47 73.0832 79.4331 71.1483L79.6727 71.0637L91.6908 81.6765L88.0888 84.1751L68.2324 73.3892Z" fill="white"/>
<path d="M69.1345 73.268L88.0647 83.5485L90.7828 81.6639L79.6163 71.8042C77.5043 73.6223 73.8982 73.3626 70.9163 71.1901L69.1345 73.268ZM88.1009 84.7847C88.0063 84.7847 87.9137 84.7626 87.8291 84.7163L67.9727 73.9304C67.8217 73.8478 67.717 73.7029 67.6848 73.5337C67.6546 73.3646 67.7009 73.1915 67.8137 73.0606L70.4049 70.0425C70.6043 69.8089 70.9546 69.7767 71.1942 69.97C72.5251 71.0472 74.0734 71.7156 75.5553 71.8485C76.9788 71.9794 78.219 71.6008 79.0465 70.7854C79.1049 70.727 79.1774 70.6807 79.2559 70.6525L79.4955 70.57C79.6908 70.5015 79.9063 70.5438 80.0613 70.6787L92.0794 81.2915C92.2103 81.4082 92.2808 81.5774 92.2707 81.7505C92.2586 81.9257 92.17 82.0847 92.0271 82.1854L88.4251 84.6841C88.3264 84.7505 88.2137 84.7847 88.1009 84.7847V84.7847Z" fill="#66509E"/>
<path d="M52.998 80.5295L57.196 68.8477L88.09 79.8993L52.998 80.5295V80.5295Z" fill="white"/>
<path d="M52.9806 81.1393C52.9182 81.1393 52.8518 81.1292 52.7893 81.1071C52.4934 81.0004 52.3403 80.6742 52.445 80.3782L56.645 68.6963C56.7497 68.4024 57.0759 68.2474 57.3699 68.3541L88.2638 79.4057C88.5598 79.5125 88.7128 79.8366 88.6081 80.1326C88.5014 80.4286 88.1752 80.5836 87.8813 80.4769L57.5229 69.6165L53.5162 80.7628C53.4336 80.9963 53.2142 81.1393 52.9806 81.1393Z" fill="#66509E"/>
<path d="M56.8066 80.7378L57.7952 77.8727C60.8637 78.8009 64.0167 77.5868 65.0979 75.056L65.2711 74.8828L84.5697 81.7989L56.8066 80.7378Z" fill="white"/>
<path d="M84.5528 82.3498C84.4884 82.3498 84.4239 82.3398 84.3595 82.3176L65.4716 75.5465C64.2414 78.015 61.2112 79.2431 58.1427 78.5405L57.3273 80.9062C57.2246 81.2022 56.9005 81.3592 56.6045 81.2586C56.3065 81.1559 56.1495 80.8317 56.2521 80.5337L57.2407 77.6707C57.3414 77.3807 57.6515 77.2237 57.9434 77.3123C60.7461 78.1579 63.589 77.0868 64.5575 74.8156C64.5857 74.7472 64.628 74.6868 64.6783 74.6344L64.8535 74.4613C65.0085 74.3082 65.2401 74.2559 65.4454 74.3304L84.7441 81.2465C85.0401 81.3532 85.1931 81.6774 85.0884 81.9733C85.0038 82.2069 84.7864 82.3498 84.5528 82.3498V82.3498Z" fill="#66509E"/>
<path d="M98.337 107.67H50.3027V80.8366H83.6954L98.2786 80.6836L98.337 107.67Z" fill="#807DBB"/>
<path d="M50.8544 107.084H97.749L97.6926 81.2413L83.6832 81.3862H50.8544V107.084V107.084ZM98.3188 108.221H50.2846C49.9705 108.221 49.7168 107.965 49.7168 107.651V80.8185C49.7168 80.5044 49.9705 80.2487 50.2846 80.2487H83.6772L98.2544 80.0977C98.4094 80.0997 98.5524 80.156 98.6591 80.2607C98.7678 80.3675 98.8282 80.5144 98.8282 80.6654L98.8866 107.651C98.8886 107.802 98.8282 107.947 98.7215 108.054C98.6148 108.161 98.4698 108.221 98.3188 108.221V108.221Z" fill="#66509E"/>
<path d="M58.9643 104.658H94.3502L94.1529 83.6133L83.8784 83.9515H58.9643V83.9616C58.8213 86.4784 56.5562 88.5019 53.7213 88.6509V99.622L53.7012 99.775C56.5482 99.926 58.8213 101.956 58.9643 104.482V104.658V104.658Z" fill="white"/>
<path d="M59.5095 104.072H93.7881L93.6008 84.1835L83.9102 84.5036C83.9042 84.5036 83.8961 84.5036 83.8901 84.5036H59.4854C59.0928 86.9056 56.9867 88.7982 54.3028 89.1526V99.2419C57.0491 99.6103 59.1894 101.588 59.5095 104.072ZM94.3619 105.21H58.976C58.6619 105.21 58.4062 104.954 58.4062 104.64C58.4062 104.612 58.4082 104.581 58.4142 104.553C58.4102 104.535 58.4082 104.515 58.4082 104.497C58.2814 102.256 56.2498 100.462 53.6827 100.325C53.5257 100.317 53.3787 100.245 53.278 100.122C53.1753 100.001 53.129 99.8439 53.1491 99.6868L53.1652 99.568V88.6331C53.1652 88.3311 53.4008 88.0815 53.7028 88.0654C56.2579 87.9305 58.2793 86.1466 58.4062 83.9157C58.4223 83.6137 58.6699 83.366 58.976 83.366H83.882L94.1465 83.0278C94.2975 83.0217 94.4465 83.0801 94.5572 83.1848C94.6679 83.2915 94.7324 83.4365 94.7324 83.5915L94.9317 104.636C94.9337 104.787 94.8733 104.934 94.7666 105.041C94.6599 105.149 94.5149 105.21 94.3619 105.21V105.21Z" fill="#66509E"/>
<path d="M62.9736 93.7583C62.9736 95.3147 61.7112 96.5771 60.1528 96.5771C58.5964 96.5771 57.334 95.3147 57.334 93.7583C57.334 92.1999 58.5964 90.9375 60.1528 90.9375C61.7112 90.9375 62.9736 92.1999 62.9736 93.7583Z" fill="#EE445B"/>
<path d="M60.1659 91.4871C58.9257 91.4871 57.9149 92.4979 57.9149 93.7402C57.9149 94.9804 58.9257 95.9912 60.1659 95.9912C61.4082 95.9912 62.419 94.9804 62.419 93.7402C62.419 92.4979 61.4082 91.4871 60.1659 91.4871ZM60.1659 97.1287C58.2975 97.1287 56.7773 95.6086 56.7773 93.7402C56.7773 91.8717 58.2975 90.3516 60.1659 90.3516C62.0344 90.3516 63.5545 91.8717 63.5545 93.7402C63.5545 95.6086 62.0344 97.1287 60.1659 97.1287Z" fill="#66509E"/>
<path d="M79.0468 88.0738C82.5079 90.6571 83.1582 95.4772 80.4985 98.8396C77.8408 102.202 72.8777 102.832 69.4166 100.251C65.9556 97.6678 65.3052 92.8477 67.965 89.4852C70.6227 86.1228 75.5837 85.4906 79.0468 88.0738Z" fill="white"/>
<path d="M74.2219 87.0913C72.0172 87.0913 69.8367 88.0497 68.3931 89.8739C67.2112 91.3698 66.6937 93.2242 66.9394 95.0947C67.187 96.9853 68.1817 98.6685 69.7401 99.8302C71.0709 100.825 72.6454 101.306 74.2078 101.306C76.4125 101.306 78.5931 100.348 80.0367 98.5215C81.2186 97.0255 81.736 95.1732 81.4904 93.3027C81.2427 91.4121 80.2481 89.7289 78.6897 88.5651C77.3568 87.5725 75.7843 87.0913 74.2219 87.0913ZM74.2038 102.44C72.4058 102.44 70.5937 101.886 69.0595 100.742C67.2535 99.3933 66.0998 97.4403 65.8119 95.2416C65.526 93.0651 66.126 90.9088 67.5011 89.1692C70.3441 85.5732 75.6696 84.8926 79.3682 87.6551C81.1763 89.002 82.33 90.9571 82.6179 93.1557C82.9038 95.3322 82.3038 97.4886 80.9286 99.2282C79.2635 101.334 76.7468 102.44 74.2038 102.44Z" fill="#66509E"/>
<path d="M76.8817 92.4717V91.7167C76.8817 90.9636 76.2535 90.3516 75.4763 90.3516H72.9776C72.2004 90.3516 71.5723 90.9636 71.5723 91.7167V92.8381C71.5723 93.5912 72.2004 94.2032 72.9776 94.2032H75.4763C76.2535 94.2032 76.8817 94.8133 76.8817 95.5683V96.6898C76.8817 97.4428 76.2535 98.0529 75.4763 98.0529H72.9776C72.2004 98.0529 71.5723 97.4428 71.5723 96.6898V95.9106L76.8817 92.4717V92.4717Z" fill="white"/>
<path d="M75.4895 98.6045H72.9908C71.9015 98.6045 71.0156 97.7368 71.0156 96.6717V95.8925C71.0156 95.5784 71.2713 95.3227 71.5854 95.3227C71.8995 95.3227 72.1532 95.5784 72.1532 95.8925V96.6717C72.1532 97.1106 72.5297 97.467 72.9908 97.467H75.4895C75.9505 97.467 76.327 97.1106 76.327 96.6717V95.5502C76.327 95.1113 75.9505 94.7529 75.4895 94.7529H72.9908C71.9015 94.7529 71.0156 93.8871 71.0156 92.82V91.6985C71.0156 90.6334 71.9015 89.7656 72.9908 89.7656H75.4895C76.5787 89.7656 77.4626 90.6334 77.4626 91.6985V92.4535C77.4626 92.7676 77.2089 93.0213 76.8948 93.0213C76.5807 93.0213 76.327 92.7676 76.327 92.4535V91.6985C76.327 91.2596 75.9505 90.9032 75.4895 90.9032H72.9908C72.5297 90.9032 72.1532 91.2596 72.1532 91.6985V92.82C72.1532 93.2589 72.5297 93.6153 72.9908 93.6153H75.4895C76.5787 93.6153 77.4626 94.4831 77.4626 95.5502V96.6717C77.4626 97.7368 76.5787 98.6045 75.4895 98.6045Z" fill="#66509E"/>
<path d="M74.2201 100.397C73.906 100.397 73.6523 100.141 73.6523 99.8273V98.0092C73.6523 97.6951 73.906 97.4414 74.2201 97.4414C74.5342 97.4414 74.7899 97.6951 74.7899 98.0092V99.8273C74.7899 100.141 74.5342 100.397 74.2201 100.397Z" fill="#66509E"/>
<path d="M74.2201 90.9049C73.906 90.9049 73.6523 90.6492 73.6523 90.3351V88.517C73.6523 88.2029 73.906 87.9492 74.2201 87.9492C74.5342 87.9492 74.7899 88.2029 74.7899 88.517V90.3351C74.7899 90.6492 74.5342 90.9049 74.2201 90.9049Z" fill="#66509E"/>
<path d="M104.585 78.1076V72.176C104.585 68.1452 101.385 64.8633 97.455 64.8633H90.3034C86.3711 64.8633 83.1738 68.1452 83.1738 72.176V78.1076H86.6128V72.6874C86.6128 70.4264 88.4067 68.5861 90.6114 68.5861H97.147C99.3517 68.5861 101.144 70.4264 101.144 72.6874V78.1076H104.585V78.1076Z" fill="#EE445B"/>
<path d="M101.727 77.5216H104.03V72.1579C104.03 68.4391 101.086 65.4129 97.4682 65.4129H90.3165C86.6984 65.4129 83.7548 68.4391 83.7548 72.1579V77.5216H86.0581V72.6693C86.0581 70.0941 88.1058 68.0002 90.6246 68.0002H97.1601C99.6769 68.0002 101.727 70.0941 101.727 72.6693V77.5216V77.5216ZM104.598 78.6592H101.157C100.843 78.6592 100.589 78.4035 100.589 78.0894V72.6693C100.589 70.7223 99.0507 69.1377 97.1601 69.1377H90.6246C88.734 69.1377 87.1957 70.7223 87.1957 72.6693V78.0894C87.1957 78.4035 86.94 78.6592 86.6259 78.6592H83.187C82.8729 78.6592 82.6172 78.4035 82.6172 78.0894V72.1579C82.6172 67.8129 86.0702 64.2773 90.3165 64.2773H97.4682C101.712 64.2773 105.166 67.8129 105.166 72.1579V78.0894C105.166 78.4035 104.912 78.6592 104.598 78.6592Z" fill="#66509E"/>
<path d="M82.478 107.898H105.296C107.016 107.898 108.409 106.505 108.409 104.785V81.2182C108.409 79.4988 107.016 78.1055 105.296 78.1055H82.478C80.7605 78.1055 79.3652 79.4988 79.3652 81.2182V104.785C79.3652 106.505 80.7605 107.898 82.478 107.898V107.898Z" fill="white"/>
<path d="M82.4598 78.6571C81.0585 78.6571 79.9169 79.7967 79.9169 81.2001V104.767C79.9169 106.169 81.0585 107.31 82.4598 107.31H105.278C106.681 107.31 107.823 106.169 107.823 104.767V81.2001C107.823 79.7967 106.681 78.6571 105.278 78.6571H82.4598V78.6571ZM105.278 108.448H82.4598C80.4303 108.448 78.7793 106.797 78.7793 104.767V81.2001C78.7793 79.1705 80.4303 77.5195 82.4598 77.5195H105.278C107.307 77.5195 108.961 79.1705 108.961 81.2001V104.767C108.961 106.797 107.307 108.448 105.278 108.448Z" fill="#66509E"/>
<path d="M89.6191 90.3747C89.6191 87.9666 91.5218 86.0156 93.8695 86.0156C96.2171 86.0156 98.1198 87.9666 98.1198 90.3747C98.1198 92.3458 96.8433 94.0089 95.0936 94.5485L96.2071 100.043H91.5319L92.6453 94.5485C90.8957 94.0089 89.6191 92.3458 89.6191 90.3747V90.3747Z" fill="#807DBB"/>
<path d="M92.2397 99.4592H95.5236L94.5491 94.6451C94.4907 94.3592 94.6598 94.0753 94.9397 93.9887C96.484 93.5136 97.5632 92.0196 97.5632 90.3585C97.5632 88.2686 95.9122 86.5673 93.8826 86.5673C91.8531 86.5673 90.2001 88.2686 90.2001 90.3585C90.2001 92.0196 91.2793 93.5136 92.8256 93.9887C93.1055 94.0753 93.2726 94.3592 93.2162 94.6451L92.2397 99.4592V99.4592ZM96.2202 100.597H91.545C91.3739 100.597 91.2128 100.52 91.1041 100.387C90.9954 100.255 90.9531 100.081 90.9873 99.9143L92.0041 94.8948C90.2504 94.1317 89.0625 92.3357 89.0625 90.3585C89.0625 87.6404 91.2249 85.4297 93.8826 85.4297C96.5383 85.4297 98.7008 87.6404 98.7008 90.3585C98.7008 92.3357 97.5149 94.1317 95.7612 94.8948L96.7779 99.9143C96.8122 100.081 96.7679 100.255 96.6612 100.387C96.5524 100.52 96.3914 100.597 96.2202 100.597V100.597Z" fill="#66509E"/>
<path d="M108.391 82.8759H79.3491C79.033 82.8759 78.7793 82.6222 78.7793 82.3081C78.7793 81.994 79.033 81.7383 79.3491 81.7383H108.391C108.705 81.7383 108.961 81.994 108.961 82.3081C108.961 82.6222 108.705 82.8759 108.391 82.8759Z" fill="#66509E"/>
<path d="M108.391 104.263H79.3491C79.033 104.263 78.7793 104.007 78.7793 103.693C78.7793 103.379 79.033 103.125 79.3491 103.125H108.391C108.705 103.125 108.961 103.379 108.961 103.693C108.961 104.007 108.705 104.263 108.391 104.263Z" fill="#66509E"/>
<path d="M69.7002 54.4036C70.0827 54.7858 70.6122 55.0222 71.1941 55.0222H108.36C109.526 55.0222 110.47 54.0767 110.47 52.9105V16.233C110.47 15.0666 109.526 14.1211 108.36 14.1211H71.1941C70.0283 14.1211 69.082 15.0666 69.082 16.233V26.0889L69.7002 54.4036V54.4036Z" fill="white"/>
<path d="M108.371 55.632H71.2053C70.4885 55.632 69.816 55.3531 69.3106 54.847C69.0871 54.6249 69.0871 54.2649 69.3106 54.0428C69.5321 53.8205 69.8925 53.8207 70.114 54.043C70.4059 54.3344 70.7925 54.4948 71.2053 54.4948H108.371C109.221 54.4948 109.913 53.8024 109.913 52.9517V16.2742C109.913 15.4233 109.221 14.7311 108.371 14.7311H71.2053C70.3536 14.7311 69.663 15.4233 69.663 16.2742V26.1301C69.663 26.4442 69.4073 26.6987 69.0932 26.6987C68.7791 26.6987 68.5254 26.4442 68.5254 26.1301V16.2742C68.5254 14.7962 69.7274 13.5938 71.2053 13.5938H108.371C109.849 13.5938 111.051 14.7962 111.051 16.2742V52.9517C111.051 54.4294 109.849 55.632 108.371 55.632V55.632Z" fill="#66509E"/>
<path d="M107.178 26.0742H72.3926V51.0693H107.178V26.0742Z" fill="white"/>
<path d="M107.192 51.6791H72.4057C72.0916 51.6791 71.8359 51.4244 71.8359 51.1103C71.8359 50.7964 72.0916 50.5417 72.4057 50.5417H106.622V26.6839H72.4057C72.0916 26.6839 71.8359 26.4294 71.8359 26.1153C71.8359 25.8012 72.0916 25.5469 72.4057 25.5469H107.192C107.506 25.5469 107.759 25.8012 107.759 26.1153V51.1103C107.759 51.4244 107.506 51.6791 107.192 51.6791Z" fill="#66509E"/>
<path d="M91.0058 51.0994H106.008C106.481 51.0994 106.783 50.5928 106.556 50.1764L103.264 44.117C103.068 43.7584 102.694 43.5352 102.285 43.5352H94.7287C94.3219 43.5352 93.9454 43.7584 93.7501 44.117L90.4582 50.1764C90.2307 50.5928 90.5327 51.0994 91.0058 51.0994V51.0994Z" fill="#EE445B"/>
<path d="M94.7117 44.0864C94.5123 44.0864 94.3291 44.1955 94.2325 44.3711L90.9405 50.4307C90.9365 50.439 90.9244 50.4587 90.9405 50.4861C90.9586 50.5134 90.9808 50.5134 90.9888 50.5134H105.991C106.001 50.5134 106.023 50.5134 106.039 50.4861C106.055 50.4587 106.043 50.439 106.039 50.4307L102.747 44.3711C102.651 44.1955 102.467 44.0864 102.268 44.0864H94.7117V44.0864ZM105.991 51.6508H90.9888C90.564 51.6508 90.1815 51.4328 89.964 51.0673C89.7466 50.7021 89.7385 50.261 89.9419 49.8877L93.2338 43.8281C93.5298 43.2861 94.0955 42.9492 94.7117 42.9492H102.268C102.884 42.9492 103.452 43.2861 103.746 43.8281L107.04 49.8877C107.241 50.261 107.233 50.7021 107.016 51.0673C106.798 51.4328 106.416 51.6508 105.991 51.6508Z" fill="#66509E"/>
<path d="M73.6044 51.0994H88.6064C89.0796 51.0994 89.3796 50.5928 89.1541 50.1764L85.8621 44.117C85.6668 43.7584 85.2903 43.5352 84.8836 43.5352H77.3272C76.9185 43.5352 76.544 43.7584 76.3487 44.117L73.0547 50.1764C72.8292 50.5928 73.1312 51.0994 73.6044 51.0994V51.0994Z" fill="#EE445B"/>
<path d="M77.3096 44.0864C77.1103 44.0864 76.927 44.1955 76.8304 44.3711L73.5384 50.4307C73.5324 50.439 73.5223 50.4587 73.5384 50.4861C73.5546 50.5134 73.5767 50.5134 73.5868 50.5134H88.5888C88.5968 50.5134 88.619 50.5134 88.6351 50.4861C88.6532 50.4587 88.6411 50.439 88.6371 50.4307L85.3431 44.3711C85.2485 44.1955 85.0653 44.0864 84.866 44.0864H77.3096V44.0864ZM88.5888 51.6508H73.5868C73.1619 51.6508 72.7794 51.4328 72.5619 51.0673C72.3445 50.7021 72.3364 50.261 72.5378 49.8877L75.8317 43.8281C76.1257 43.2861 76.6935 42.9492 77.3096 42.9492H84.866C85.4821 42.9492 86.0478 43.2861 86.3438 43.8281L89.6358 49.8877C89.8391 50.261 89.8311 50.7021 89.6136 51.0673C89.3962 51.4328 89.0136 51.6508 88.5888 51.6508V51.6508Z" fill="#66509E"/>
<path d="M82.9785 43.5408H97.9805C98.4537 43.5408 98.7557 43.034 98.5282 42.6178L95.2362 36.5574C95.0409 36.1994 94.6664 35.9766 94.2577 35.9766H86.7013C86.2946 35.9766 85.9181 36.1994 85.7248 36.5574L82.4308 42.6188C82.2033 43.0346 82.5053 43.5408 82.9785 43.5408Z" fill="#EE445B"/>
<path d="M86.6846 36.528C86.4853 36.528 86.302 36.6367 86.2074 36.8119L82.9134 42.8733C82.9074 42.8816 82.8973 42.9009 82.9134 42.9279C82.9296 42.9551 82.9517 42.9551 82.9618 42.9551H97.9638C97.9738 42.9551 97.996 42.9551 98.0121 42.9277C98.0282 42.9001 98.0181 42.8806 98.0121 42.8723L94.7181 36.8117C94.6235 36.6367 94.4403 36.528 94.241 36.528H86.6846V36.528ZM97.9638 44.0922H82.9618C82.5369 44.0922 82.1544 43.8742 81.9369 43.5093C81.7195 43.1441 81.7114 42.7034 81.9128 42.3301L85.2087 36.2689C85.5027 35.7271 86.0685 35.3906 86.6846 35.3906H94.241C94.8591 35.3906 95.4249 35.7271 95.7188 36.2689L99.0128 42.3291C99.2141 42.7026 99.2061 43.1435 98.9886 43.5089C98.7712 43.8742 98.3886 44.0922 97.9638 44.0922V44.0922Z" fill="#66509E"/>
<path d="M85.9863 20.0819C85.9863 22.1767 87.6836 23.8748 89.7776 23.8748C91.8736 23.8748 93.5709 22.1767 93.5709 20.0819C93.5709 17.9872 91.8736 16.2891 89.7776 16.2891C87.6836 16.2891 85.9863 17.9872 85.9863 20.0819Z" fill="#807DBB"/>
<path d="M89.7908 16.8403C88.0129 16.8403 86.5673 18.2867 86.5673 20.0646C86.5673 21.8425 88.0129 23.2889 89.7908 23.2889C91.5686 23.2889 93.0163 21.8425 93.0163 20.0646C93.0163 18.2867 91.5686 16.8403 89.7908 16.8403V16.8403ZM89.7908 24.4261C87.3867 24.4261 85.4297 22.4694 85.4297 20.0646C85.4297 17.6598 87.3867 15.7031 89.7908 15.7031C92.1968 15.7031 94.1539 17.6598 94.1539 20.0646C94.1539 22.4694 92.1968 24.4261 89.7908 24.4261Z" fill="#66509E"/>
<path d="M97.5352 21.5738H106.263C106.769 21.5738 107.177 21.1648 107.177 20.6605V18.6672C107.177 18.1628 106.769 17.7539 106.263 17.7539H97.5352C97.0318 17.7539 96.6211 18.1628 96.6211 18.6672V20.6605C96.6211 21.1648 97.0318 21.5738 97.5352 21.5738V21.5738Z" fill="#807DBB"/>
<path d="M97.5463 18.3051C97.3571 18.3051 97.202 18.4598 97.202 18.6498V20.6429C97.202 20.8332 97.3571 20.9878 97.5463 20.9878H106.275C106.466 20.9878 106.619 20.8332 106.619 20.6429V18.6498C106.619 18.4598 106.466 18.3051 106.275 18.3051H97.5463V18.3051ZM106.275 22.1252H97.5463C96.7289 22.1252 96.0645 21.4604 96.0645 20.6429V18.6498C96.0645 17.8326 96.7289 17.168 97.5463 17.168H106.275C107.092 17.168 107.756 17.8326 107.756 18.6498V20.6429C107.756 21.4604 107.092 22.1252 106.275 22.1252Z" fill="#66509E"/>
<path d="M73.3892 21.5738H81.9503C82.5 21.5738 82.9469 21.1272 82.9469 20.5759V18.7518C82.9469 18.2007 82.5 17.7539 81.9503 17.7539H73.3892C72.8396 17.7539 72.3926 18.2007 72.3926 18.7518V20.5759C72.3926 21.1272 72.8396 21.5738 73.3892 21.5738Z" fill="#807DBB"/>
<path d="M73.4024 18.3051C73.1668 18.3051 72.9735 18.4976 72.9735 18.7344V20.5586C72.9735 20.7954 73.1668 20.9878 73.4024 20.9878H81.9635C82.199 20.9878 82.3923 20.7954 82.3923 20.5586V18.7344C82.3923 18.4976 82.199 18.3051 81.9635 18.3051H73.4024V18.3051ZM81.9635 22.1252H73.4024C72.5386 22.1252 71.8359 21.4223 71.8359 20.5586V18.7344C71.8359 17.8707 72.5386 17.168 73.4024 17.168H81.9635C82.8272 17.168 83.5299 17.8707 83.5299 18.7344V20.5586C83.5299 21.4223 82.8272 22.1252 81.9635 22.1252Z" fill="#66509E"/>
<path d="M68.3178 29.6484H63.8379V56.0666H68.3178V29.6484Z" fill="#807DBB"/>
<path d="M64.4188 55.4806H67.7611V30.1997H64.4188V55.4806ZM68.3289 56.618H63.849C63.5349 56.618 63.2812 56.3633 63.2812 56.0492V29.6309C63.2812 29.317 63.5349 29.0625 63.849 29.0625H68.3289C68.643 29.0625 68.8987 29.317 68.8987 29.6309V56.0492C68.8987 56.3633 68.643 56.618 68.3289 56.618Z" fill="#66509E"/>
<path d="M68.3203 29.6261V56.0442L72.5425 51.0693V26.0742L68.3203 29.6261Z" fill="white"/>
<path d="M68.3315 56.6541C68.267 56.6541 68.2006 56.6428 68.1362 56.6192C67.9127 56.5371 67.7637 56.3239 67.7637 56.0853V29.6669C67.7637 29.353 68.0174 29.0986 68.3315 29.0986C68.6456 29.0986 68.9013 29.353 68.9013 29.6669V54.5365L71.9858 50.9015V26.1153C71.9858 25.8012 72.2395 25.5469 72.5536 25.5469C72.8677 25.5469 73.1234 25.8012 73.1234 26.1153V51.1103C73.1234 51.2452 73.0751 51.3757 72.9885 51.4784L68.7664 56.4531C68.6556 56.5832 68.4966 56.6541 68.3315 56.6541V56.6541Z" fill="#66509E"/>
<path d="M72.3889 26.0742L68.3178 29.6261H63.8379L68.7849 26.0835L72.3889 26.0742Z" fill="white"/>
<path d="M65.6214 29.0986H68.1181L70.8785 26.6879L68.9798 26.6927L65.6214 29.0986V29.0986ZM68.3295 30.2357H63.8496C63.6019 30.2357 63.3845 30.0763 63.308 29.8411C63.2335 29.6057 63.3181 29.3486 63.5194 29.2049L68.4664 25.6622C68.561 25.5934 68.6778 25.5561 68.7946 25.5557L72.3986 25.5469H72.4006C72.6362 25.5469 72.8496 25.6932 72.9322 25.9151C73.0167 26.137 72.9523 26.3877 72.7751 26.5437L68.704 30.0954C68.6013 30.186 68.4684 30.2357 68.3295 30.2357V30.2357Z" fill="#66509E"/>
<path d="M112.413 12.0117H98.3492L91.3184 23.9602L98.3492 35.9084H112.413L119.444 23.9602L112.413 12.0117V12.0117Z" fill="#EE445B"/>
<path d="M98.6258 35.3813H112.104L118.834 23.9446L112.104 12.508H98.6258L91.8949 23.9446L98.6258 35.3813V35.3813ZM112.398 36.4047H98.3338C98.1526 36.4047 97.9835 36.3089 97.8929 36.1524L90.862 24.2042C90.7674 24.0439 90.7674 23.8454 90.862 23.6851L97.8929 11.7367C97.9835 11.5804 98.1526 11.4844 98.3338 11.4844H112.398C112.579 11.4844 112.746 11.5804 112.838 11.7367L119.869 23.6851C119.964 23.8454 119.964 24.0439 119.869 24.2042L112.838 36.1526C112.746 36.3089 112.579 36.4047 112.398 36.4047V36.4047Z" fill="#66509E"/>
<path d="M111.42 18.5549C111.42 17.8464 110.868 17.2259 110.151 17.2077C109.417 17.1888 108.815 17.7725 108.815 18.4951V16.6007C108.815 15.8924 108.263 15.2718 107.548 15.2537C106.813 15.2348 106.211 15.8185 106.211 16.5411V16.0547C106.211 15.3461 105.66 14.7258 104.943 14.7075C104.208 14.6887 103.608 15.2724 103.608 15.9951V17.6577C103.608 16.9353 103.006 16.3516 102.271 16.3704C101.554 16.3887 101.002 17.0092 101.002 17.7173V26.2718L99.3938 22.855C99.0897 22.2129 98.3246 21.8813 97.6683 22.164C96.9938 22.4543 96.6978 23.2347 97.0079 23.8895C97.0079 23.8895 98.2964 28.193 100.348 30.8225C100.348 30.8225 101.268 31.7984 101.836 32.1628C102.817 32.7948 103.99 33.1597 105.249 33.153C108.684 33.1353 111.42 30.2835 111.42 26.8859V18.5549V18.5549Z" fill="white"/>
<path d="M100.794 30.4928C101.053 30.7658 101.75 31.4651 102.157 31.7262C103.071 32.3149 104.132 32.6258 105.229 32.6258C105.239 32.6258 105.249 32.6258 105.259 32.6256C108.348 32.6097 110.863 30.0532 110.863 26.9272V18.5963C110.863 18.1769 110.543 17.8275 110.15 17.8175C109.949 17.8108 109.755 17.8865 109.612 18.0263C109.473 18.1624 109.397 18.3436 109.397 18.5365C109.397 18.8504 109.141 19.1051 108.827 19.1051C108.513 19.1051 108.259 18.8504 108.259 18.5365V16.642C108.259 16.2226 107.939 15.8735 107.547 15.8634C107.343 15.856 107.152 15.9323 107.009 16.072C106.87 16.2081 106.792 16.3895 106.792 16.5824C106.792 16.8963 106.538 17.151 106.224 17.151C105.91 17.151 105.656 16.8963 105.656 16.5824V16.096C105.656 15.6766 105.336 15.3273 104.941 15.3172C104.74 15.3116 104.549 15.3863 104.406 15.5262C104.265 15.6621 104.188 15.8433 104.188 16.0362V17.6991C104.188 18.0132 103.935 18.2679 103.62 18.2679C103.306 18.2679 103.051 18.0132 103.051 17.6991C103.051 17.5062 102.974 17.325 102.835 17.1889C102.692 17.0491 102.501 16.9748 102.298 16.9801C101.905 16.9902 101.585 17.3395 101.585 17.7587V26.2978C101.587 26.386 101.569 26.4746 101.53 26.5567C101.456 26.7104 101.319 26.8235 101.154 26.8646C100.985 26.9075 100.804 26.869 100.667 26.7611C100.592 26.7029 100.534 26.6276 100.496 26.543L98.8909 23.1389C98.7097 22.756 98.2687 22.5714 97.9063 22.7276C97.7211 22.8069 97.5822 22.9519 97.5117 23.1361C97.4432 23.3173 97.4513 23.5132 97.5339 23.6884C97.5459 23.714 97.556 23.7406 97.5641 23.7675C97.5781 23.8096 98.8406 27.978 100.794 30.4928V30.4928ZM105.229 33.7632C103.912 33.7632 102.638 33.3897 101.541 32.6822C100.933 32.2916 100.047 31.3589 99.9479 31.254C99.9359 31.2412 99.9238 31.2279 99.9137 31.214C97.8983 28.6332 96.6278 24.5969 96.4869 24.1322C96.2896 23.6862 96.2755 23.1915 96.4486 22.7336C96.6278 22.2585 96.9862 21.8854 97.4553 21.6832C98.3755 21.2872 99.4808 21.7227 99.9198 22.6539L100.447 23.7728V17.7587C100.447 16.7282 101.265 15.8689 102.269 15.8433C102.543 15.8365 102.809 15.887 103.053 15.9901C103.063 15.5053 103.26 15.053 103.61 14.712C103.975 14.3562 104.456 14.1663 104.971 14.1804C105.598 14.1963 106.151 14.5374 106.479 15.0424C106.8 14.8271 107.178 14.717 107.575 14.7265C108.579 14.7522 109.397 15.6114 109.397 16.642V16.8271C109.641 16.7244 109.904 16.6732 110.178 16.6805C111.183 16.7063 112 17.5654 112 18.5963V26.9272C112 30.6772 108.978 33.7436 105.265 33.763C105.253 33.7632 105.241 33.7632 105.229 33.7632Z" fill="#66509E"/>
<path d="M103.607 23.292C103.293 23.292 103.037 23.0375 103.037 22.7234V17.5022C103.037 17.1883 103.293 16.9336 103.607 16.9336C103.921 16.9336 104.175 17.1883 104.175 17.5022V22.7234C104.175 23.0375 103.921 23.292 103.607 23.292Z" fill="#66509E"/>
<path d="M106.212 23.2651C105.898 23.2651 105.645 23.0106 105.645 22.6966V16.3889C105.645 16.0748 105.898 15.8203 106.212 15.8203C106.526 15.8203 106.78 16.0748 106.78 16.3889V22.6966C106.78 23.0106 106.526 23.2651 106.212 23.2651Z" fill="#66509E"/>
<path d="M108.82 23.2563C108.506 23.2563 108.252 23.0018 108.252 22.6877V16.5061C108.252 16.192 108.506 15.9375 108.82 15.9375C109.134 15.9375 109.39 16.192 109.39 16.5061V22.6877C109.39 23.0018 109.134 23.2563 108.82 23.2563Z" fill="#66509E"/>
</g>
<defs>
<clipPath id="clip0_165_8808">
<rect width="120" height="120" fill="white"/>
</clipPath>
</defs>
</svg>
