<svg width="19" height="25" viewBox="0 0 19 25" fill="none" xmlns="http://www.w3.org/2000/svg">
<path d="M9.00973 1.11794C8.8933 1.00151 8.69937 0.962765 8.54417 1.04044C8.389 1.11794 8.3115 1.31187 8.35024 1.46705C9.20364 5.38453 5.01452 8.83665 5.67381 11.862C3.92825 11.1251 3.88953 7.78933 3.88953 7.75057C3.88953 7.55664 3.7731 7.40146 3.57918 7.36271C3.424 7.32396 3.23007 7.40146 3.15257 7.55664C1.17438 11.6293 0.825256 14.7713 2.02777 16.9432C3.30777 19.1928 5.79028 19.4257 5.90654 19.4257C6.13921 19.4257 6.29439 19.2705 6.33314 19.0766C6.37189 18.8826 6.17796 18.6887 5.98404 18.65C5.94529 18.65 3.77316 18.4173 2.72584 16.5555C1.7562 14.8489 1.95012 12.4052 3.30765 9.22477C3.57908 10.66 4.27729 12.6769 6.29425 12.7933C6.44943 12.7933 6.56568 12.7158 6.64336 12.5994C6.72086 12.483 6.72086 12.328 6.68211 12.2115C5.44087 9.76796 9.28087 6.47119 9.28087 2.51461C11.1814 4.84193 11.8409 7.32421 11.3366 10.1169C11.2978 10.3108 11.4141 10.466 11.5693 10.5435C11.7245 10.621 11.9184 10.5435 12.0348 10.3883C13.0434 8.91441 13.5088 7.2078 13.4313 5.34604C15.5257 7.82856 14.4009 11.0091 13.7027 12.9872C13.3536 13.9181 13.1597 14.4611 13.3923 14.8102C13.4698 14.9654 13.5863 15.0429 13.7414 15.0817C15.7196 15.5472 16.767 13.3361 17.31 11.7847C17.6978 12.9483 17.6978 14.0343 17.31 15.0429C16.7669 16.5168 15.4482 17.7581 13.4312 18.6502C13.2373 18.7277 13.1598 18.9606 13.2373 19.1545C13.3148 19.3097 13.4312 19.3872 13.5864 19.3872C13.6252 19.3872 13.7028 19.3872 13.7416 19.3484C15.9137 18.3399 17.3877 16.9436 18.0082 15.2757C18.5512 13.8018 18.396 12.1339 17.5426 10.3884C17.4651 10.2332 17.31 10.1557 17.1548 10.1557C16.9996 10.1557 16.8444 10.2722 16.8057 10.4272C16.0687 13.1424 15.1378 14.4224 14.013 14.2672C14.0517 14.0345 14.2069 13.5302 14.3621 13.1424C15.1378 10.9315 16.6117 6.82007 13.1209 3.94967C13.0044 3.83324 12.8105 3.83324 12.6942 3.91092C12.5391 3.98842 12.4616 4.1436 12.5003 4.29878C12.6942 5.69521 12.5778 6.97521 12.2289 8.10001C12.1903 5.6559 11.143 3.28995 9.00978 1.11761L9.00973 1.11794Z" fill="white" stroke="white"/>
<path d="M3.61813 23.7704C4.19993 24.5074 5.28597 24.5849 6.02293 24.0031L9.47509 21.1327L12.9272 24.0031C13.6254 24.5849 14.7115 24.5074 15.332 23.7704C15.9139 23.0335 15.8363 21.9861 15.0994 21.3656L12.1515 18.8831C12.5006 18.5727 12.7721 18.2236 12.9273 17.8358C13.1212 17.254 13.0824 16.5946 12.7721 15.9353C12.6946 15.7801 12.5394 15.7026 12.3842 15.7026C11.8799 15.7413 12.0739 16.517 11.5698 17.0214L11.4923 15.7414C11.6862 14.5001 10.8328 13.6856 10.0958 12.9487C9.97941 12.8322 9.82441 12.716 9.70798 12.5608C9.59155 12.4444 9.39762 12.4056 9.24243 12.4833C9.08725 12.5608 9.00975 12.7547 9.0485 12.9099C9.28118 13.9185 8.35031 14.8881 8.11762 15.8578C7.96244 15.5087 7.96244 15.0433 7.96244 15.0433C7.96244 14.8494 7.84601 14.6942 7.65208 14.6555C7.45815 14.6167 7.30298 14.6942 7.22548 14.8494C6.64367 16.0519 6.17816 17.6033 7.03155 18.6506L3.85102 21.3271C3.11388 21.9474 3.03639 23.0335 3.61816 23.7704L3.61813 23.7704ZM4.35509 21.9474L7.65205 19.1935C8.0399 19.3874 8.38901 19.4261 8.42777 19.4261C8.66045 19.4261 8.81563 19.271 8.85438 19.077C8.89312 18.8831 8.73795 18.6892 8.50527 18.6504C7.69083 18.5729 7.10884 17.8747 7.53563 16.3619C7.88473 16.9824 8.66043 17.3315 8.93206 16.9049C9.00956 16.7885 9.00956 16.6335 8.97081 16.5171C8.66045 15.9353 9.63028 14.8879 9.86297 13.7631C11.2594 15.1596 10.5612 15.0819 10.8715 17.5644C10.8715 17.7583 11.0267 17.8747 11.1819 17.9135C11.6862 17.991 12.0353 17.7583 12.268 17.4479C12.268 17.4867 12.2292 17.5254 12.2292 17.5644C12.074 18.0299 11.6474 18.4178 10.988 18.6892C10.794 18.7667 10.7165 18.9995 10.794 19.1934C10.8715 19.3486 10.988 19.4261 11.1432 19.4261C11.1819 19.4261 11.2596 19.4261 11.2983 19.3874C11.3758 19.3486 11.4148 19.3099 11.4923 19.3099L14.6728 21.9473C15.0606 22.2964 15.1383 22.8395 14.7892 23.2661C14.4789 23.654 13.8971 23.7317 13.4704 23.3825C11.6862 21.9086 9.82437 20.357 9.70793 20.2795C9.5915 20.202 9.4365 20.202 9.28133 20.2795C9.28133 20.2795 9.24258 20.2795 9.24258 20.3182L5.51901 23.4213C5.13115 23.7704 4.54936 23.6927 4.23901 23.3049C3.88973 22.8783 3.96723 22.2964 4.35508 21.9474L4.35509 21.9474Z" fill="white" stroke="white"/>
</svg>
