<svg width="72" height="72" viewBox="0 0 72 72" fill="none" xmlns="http://www.w3.org/2000/svg">
<path d="M46.4519 25.0017L43.8147 21.6045C43.1698 20.7736 41.8297 20.0933 40.7417 20.015C40.6891 20.0113 40.641 20 40.5866 20H30.0567C28.9393 20 27.4985 20.7478 26.8554 21.6616L24.4868 25.027C23.8433 25.9408 23.8764 27.412 24.5598 28.2959L34.1805 40.7415C34.5233 41.1846 34.975 41.4059 35.4281 41.4059C35.8784 41.4059 36.3296 41.1864 36.6725 40.7465L46.4483 28.2091C47.1358 27.328 47.1371 25.8849 46.4519 25.0019L46.4519 25.0017ZM44.334 25.5872H40.8715L41.8307 22.5197C41.9881 22.6262 42.1232 22.7396 42.2098 22.8507L44.334 25.5872ZM35.6403 23.6634L36.8724 25.5872H34.3069L35.6403 23.6634ZM38.1074 27.6189L35.5972 35.6473L32.9981 27.6189H38.1074ZM30.8626 27.6189L33.9311 37.0968L26.6043 27.6189H30.8626ZM40.2366 27.6189H44.3322L37.4946 36.3883L40.2366 27.6189ZM39.8547 22.0317L38.9205 25.0181L37.008 22.0317H39.8547ZM34.2984 22.0317L32.1792 25.0906L31.1896 22.0317H34.2984ZM28.5166 22.8312C28.6382 22.6584 28.8808 22.4757 29.1502 22.3278L30.205 25.5872H26.577L28.5166 22.8312Z" fill="#66509E"/>
<path d="M14.8383 43.9012L11.5657 43.4237L10.1023 40.4446C9.89463 40.0215 9.62163 39.8102 9.34952 39.8102C9.07695 39.8102 8.8044 40.0215 8.59715 40.4446L7.13327 43.4237L3.86037 43.9012C2.93023 44.0368 2.72161 44.6808 3.39507 45.3393L5.76369 47.6582L5.20452 50.9325C5.08933 51.6055 5.34284 52 5.80768 52C5.985 52 6.19271 51.9429 6.42219 51.8213L9.34959 50.2758L12.2765 51.8213C12.5065 51.9429 12.7137 52 12.8906 52C13.3554 52 13.6094 51.6055 13.4942 50.9325L12.935 47.6582L15.3032 45.3393C15.9766 44.6813 15.7685 44.0368 14.8383 43.9012H14.8383Z" fill="#66509E"/>
<path d="M26.5204 34.7573L23.2479 34.2798L21.7845 31.3007C21.5768 30.8776 21.3038 30.6663 21.0316 30.6663C20.7591 30.6663 20.4865 30.8776 20.2793 31.3007L18.8154 34.2798L15.5425 34.7573C14.6124 34.8929 14.4037 35.5369 15.0772 36.1959L17.4458 38.5142L16.8866 41.7885C16.7715 42.462 17.025 42.8565 17.4898 42.8565C17.6671 42.8565 17.8748 42.7994 18.1043 42.6779L21.0317 41.1319L23.9587 42.6779C24.1886 42.7994 24.3958 42.8565 24.5727 42.8565C25.0375 42.8565 25.2915 42.462 25.1763 41.7885L24.6171 38.5142L26.9853 36.1959C27.6588 35.5374 27.4506 34.8929 26.5205 34.7573H26.5204Z" fill="#66509E"/>
<path d="M67.1531 43.9012L63.8802 43.4237L62.4168 40.4446C62.2096 40.0215 61.9366 39.8102 61.6644 39.8102C61.3923 39.8102 61.1193 40.0215 60.9116 40.4446L59.4482 43.4237L56.1753 43.9012C55.2452 44.0368 55.0375 44.6808 55.7105 45.3393L58.0786 47.6582L57.5194 50.9325C57.4047 51.6055 57.6587 52 58.1235 52C58.3008 52 58.5081 51.9429 58.7376 51.8213L61.6645 50.2758L64.5919 51.8213C64.8218 51.9429 65.0295 52 65.2064 52C65.6713 52 65.9248 51.6055 65.8091 50.9325L65.2499 47.6582L67.6186 45.3393C68.2925 44.6813 68.0834 44.0368 67.1533 43.9012H67.1531Z" fill="#66509E"/>
<path d="M53.5688 38.5142L55.9374 36.1959C56.6108 35.5369 56.4022 34.8929 55.4721 34.7573L52.1992 34.2798L50.7353 31.3007C50.5281 30.8776 50.255 30.6663 49.9829 30.6663C49.7108 30.6663 49.4378 30.8776 49.2301 31.3007L47.7667 34.2798L44.4942 34.7573C43.564 34.8929 43.3563 35.5369 44.0293 36.1959L46.3975 38.5142L45.8383 41.7885C45.7231 42.462 45.9771 42.8565 46.4419 42.8565C46.6192 42.8565 46.8265 42.7994 47.056 42.6779L49.9829 41.1319L52.9103 42.6779C53.1402 42.7994 53.3479 42.8565 53.5248 42.8565C53.9896 42.8565 54.2432 42.462 54.1275 41.7885L53.5688 38.5142Z" fill="#66509E"/>
</svg>
