<svg width="120" height="120" viewBox="0 0 120 120" fill="none" xmlns="http://www.w3.org/2000/svg">
<path d="M25.5505 21.0917C25.4033 21.0917 25.2562 21.03 25.1522 20.9095C24.9594 20.6885 24.9822 20.3534 25.2029 20.1609C26.7758 18.7894 28.4477 17.498 30.1678 16.3229C30.4114 16.1577 30.7412 16.2199 30.9061 16.4619C31.071 16.7039 31.0076 17.034 30.7665 17.1992C29.0794 18.351 27.4431 19.6167 25.9006 20.961C25.7991 21.0488 25.6748 21.0917 25.5505 21.0917V21.0917ZM17.2215 30.284C17.115 30.284 17.0059 30.252 16.9145 30.1858C16.6761 30.0161 16.6177 29.6845 16.7877 29.4458C17.9953 27.7467 19.3196 26.101 20.72 24.5547C20.9179 24.3375 21.2528 24.321 21.471 24.5176C21.6866 24.7145 21.7044 25.0502 21.5065 25.2673C20.134 26.7827 18.8376 28.3954 17.6528 30.0607C17.5513 30.2063 17.3864 30.284 17.2215 30.284ZM11.2824 41.1748C11.2164 41.1748 11.1505 41.1626 11.0871 41.137C10.8131 41.0279 10.6811 40.7192 10.7902 40.4472C11.564 38.5099 12.4646 36.5993 13.4617 34.7681C13.6038 34.5109 13.926 34.416 14.1822 34.5563C14.441 34.6966 14.5348 35.019 14.3953 35.276C13.416 37.0704 12.5357 38.943 11.7746 40.8414C11.6934 41.0487 11.493 41.1748 11.2824 41.1748Z" fill="#66509E"/>
<path d="M30.6847 104.278C30.5832 104.278 30.4792 104.248 30.3878 104.187C28.6627 103.017 26.9857 101.732 25.4077 100.365C25.187 100.173 25.1616 99.8384 25.3544 99.6169C25.5473 99.3954 25.8821 99.3713 26.1029 99.5628C27.6504 100.902 29.2919 102.162 30.9815 103.308C31.2251 103.472 31.2885 103.802 31.1236 104.045C31.0221 104.196 30.8547 104.278 30.6847 104.278V104.278ZM41.7079 109.969C41.647 109.969 41.5836 109.956 41.5227 109.934C39.5692 109.205 37.6386 108.35 35.784 107.392C35.5227 107.258 35.4213 106.938 35.5557 106.677C35.6902 106.417 36.0098 106.315 36.2711 106.45C38.0876 107.388 39.9802 108.226 41.8957 108.942C42.1697 109.043 42.3092 109.35 42.2052 109.624C42.1265 109.837 41.9236 109.969 41.7079 109.969ZM53.7663 112.899C53.746 112.899 53.7231 112.897 53.7029 112.894C51.6251 112.643 49.5472 112.268 47.5253 111.775C47.2411 111.707 47.0661 111.42 47.1346 111.136C47.2031 110.852 47.4897 110.677 47.7764 110.745C49.7553 111.225 51.7925 111.595 53.8297 111.841C54.1215 111.877 54.327 112.141 54.294 112.433C54.261 112.701 54.0327 112.899 53.7663 112.899V112.899ZM60.1367 113.282H59.9667C59.6724 113.282 59.4365 113.044 59.4365 112.75C59.439 112.458 59.6749 112.222 59.9667 112.222H60.1367C62.1257 112.222 64.1375 112.105 66.1113 111.877C66.4005 111.844 66.6644 112.052 66.6974 112.344C66.7329 112.633 66.5248 112.897 66.2331 112.932C64.2187 113.163 62.1663 113.282 60.1367 113.282V113.282Z" fill="#66509E"/>
<path d="M97.6947 24.0045C97.5577 24.0045 97.4182 23.9508 97.3142 23.8437C95.8858 22.3738 94.3586 20.9771 92.7755 19.6929C92.5471 19.5082 92.5116 19.1741 92.6968 18.9463C92.882 18.7187 93.2169 18.684 93.4427 18.8686C95.0588 20.1793 96.6165 21.6045 98.0753 23.1039C98.2808 23.3142 98.2757 23.6501 98.0651 23.8544C97.9611 23.9546 97.8292 24.0045 97.6947 24.0045ZM105.255 33.843C105.072 33.843 104.897 33.7509 104.798 33.5842C103.753 31.8352 102.589 30.1235 101.338 28.4971C101.16 28.2647 101.203 27.9316 101.437 27.753C101.668 27.5744 102.003 27.618 102.18 27.8501C103.456 29.5096 104.644 31.2558 105.709 33.0403C105.859 33.2917 105.778 33.6175 105.526 33.7679C105.44 33.8187 105.346 33.843 105.255 33.843ZM110.306 45.172C110.08 45.172 109.87 45.0258 109.799 44.7983C109.195 42.8466 108.467 40.9101 107.632 39.0421C107.513 38.7744 107.635 38.4609 107.901 38.3414C108.17 38.2219 108.482 38.3421 108.601 38.6098C109.454 40.5163 110.197 42.4929 110.814 44.4845C110.9 44.7645 110.742 45.0619 110.463 45.1481C110.41 45.1644 110.357 45.172 110.306 45.172Z" fill="#66509E"/>
<path d="M21.9445 56.238C24.1238 35.1842 42.9585 19.8831 64.013 22.0621C85.065 24.2406 100.368 43.0748 98.1889 64.1286C96.0096 85.1824 77.175 100.484 56.1204 98.3047C35.0684 96.1257 19.7678 77.2921 21.9445 56.238V56.238Z" fill="#EDEAF3"/>
<path d="M84.4106 21.0923C84.4106 28.0274 78.7886 33.6494 71.855 33.6494C64.9189 33.6494 59.2969 28.0274 59.2969 21.0923C59.2969 14.1574 64.9189 8.53516 71.855 8.53516C78.7886 8.53516 84.4106 14.1574 84.4106 21.0923V21.0923Z" fill="white"/>
<path d="M54.4023 34.1472H46.1773C45.883 34.1472 45.6445 33.9094 45.6445 33.6167C45.6445 33.3237 45.883 33.0859 46.1773 33.0859H54.4023C54.694 33.0859 54.9325 33.3237 54.9325 33.6167C54.9325 33.9094 54.694 34.1472 54.4023 34.1472V34.1472Z" fill="#66509E"/>
<path d="M49.4781 33.6108C49.4781 35.4215 48.0091 36.8894 46.2003 36.8894C44.3888 36.8894 42.9199 35.4215 42.9199 33.6108C42.9199 31.7999 44.3888 30.332 46.2003 30.332C48.0091 30.332 49.4781 31.7999 49.4781 33.6108V33.6108Z" fill="#EE445B"/>
<path d="M46.1739 30.8659C44.6567 30.8659 43.4237 32.0986 43.4237 33.614C43.4237 35.1293 44.6567 36.3621 46.1739 36.3621C47.6884 36.3621 48.9214 35.1293 48.9214 33.614C48.9214 32.0986 47.6884 30.8659 46.1739 30.8659ZM46.1739 37.4233C44.0732 37.4233 42.3633 35.7144 42.3633 33.614C42.3633 31.5136 44.0732 29.8047 46.1739 29.8047C48.2719 29.8047 49.9819 31.5136 49.9819 33.614C49.9819 35.7144 48.2719 37.4233 46.1739 37.4233Z" fill="#66509E"/>
<path d="M44.9577 24.494H37.4736C37.1818 24.494 36.9434 24.2563 36.9434 23.9633C36.9434 23.6703 37.1818 23.4326 37.4736 23.4326H44.425V19.2024C44.425 18.9093 44.6634 18.6719 44.9577 18.6719H50.6051C50.8968 18.6719 51.1353 18.9093 51.1353 19.2024C51.1353 19.4954 50.8968 19.7328 50.6051 19.7328H45.488V23.9633C45.488 24.2563 45.2495 24.494 44.9577 24.494Z" fill="#66509E"/>
<path d="M38.1234 23.7433C38.1234 25.7351 36.5074 27.3499 34.5158 27.3499C32.5243 27.3499 30.9082 25.7351 30.9082 23.7433C30.9082 21.7515 32.5243 20.1367 34.5158 20.1367C36.5074 20.1367 38.1234 21.7515 38.1234 23.7433Z" fill="#EE445B"/>
<path d="M34.5187 20.6706C32.8215 20.6706 31.4439 22.0502 31.4439 23.7465C31.4439 25.4424 32.8215 26.8223 34.5187 26.8223C36.2134 26.8223 37.5935 25.4424 37.5935 23.7465C37.5935 22.0502 36.2134 20.6706 34.5187 20.6706ZM34.5187 27.8833C32.2379 27.8833 30.3809 26.0277 30.3809 23.7465C30.3809 21.4652 32.2379 19.6094 34.5187 19.6094C36.7995 19.6094 38.6565 21.4652 38.6565 23.7465C38.6565 26.0277 36.7995 27.8833 34.5187 27.8833Z" fill="#66509E"/>
<path d="M53.9165 10.0651H40.6962C40.4045 10.0651 40.166 9.82742 40.166 9.53439C40.166 9.24162 40.4045 9.00391 40.6962 9.00391H53.9165C54.2083 9.00391 54.4468 9.24162 54.4468 9.53439C54.4468 9.82742 54.2083 10.0651 53.9165 10.0651V10.0651Z" fill="#66509E"/>
<path d="M43.9702 9.52856C43.9702 11.3395 42.5013 12.8074 40.6899 12.8074C38.881 12.8074 37.4121 11.3395 37.4121 9.52856C37.4121 7.71791 38.881 6.25 40.6899 6.25C42.5013 6.25 43.9702 7.71791 43.9702 9.52856V9.52856Z" fill="white"/>
<path d="M40.6928 6.78414C39.1782 6.78414 37.9452 8.01661 37.9452 9.53196C37.9452 11.0473 39.1782 12.28 40.6928 12.28C42.2074 12.28 43.4404 11.0473 43.4404 9.53196C43.4404 8.01661 42.2074 6.78414 40.6928 6.78414ZM40.6928 13.3413C38.5922 13.3413 36.8848 11.6323 36.8848 9.53196C36.8848 7.43183 38.5922 5.72266 40.6928 5.72266C42.7934 5.72266 44.5034 7.43183 44.5034 9.53196C44.5034 11.6323 42.7934 13.3413 40.6928 13.3413Z" fill="#66509E"/>
<path d="M65.3652 15.1938C68.605 11.6118 74.1356 11.3348 77.7178 14.5745C81.3001 17.8145 81.5766 23.3449 78.3369 26.9272C75.0971 30.5094 69.5665 30.7867 65.9842 27.5467C62.402 24.3067 62.1255 18.7763 65.3652 15.1938V15.1938ZM53.317 24.5708C53.3525 25.3091 53.9817 25.8774 54.72 25.8403L57.4802 25.7018C57.7923 25.6861 58.0739 25.8804 58.183 26.1747C58.4696 26.9424 58.8248 27.6898 59.2434 28.4083C59.4007 28.6797 59.3728 29.02 59.1622 29.2526L57.3102 31.3015C56.813 31.8492 56.8561 32.6956 57.4041 33.191L61.2274 36.6492C61.7753 37.1447 62.6227 37.1023 63.1174 36.5543L64.9694 34.506C65.18 34.2731 65.5174 34.2114 65.8016 34.3416C66.5601 34.6866 67.339 34.9631 68.1305 35.1717C68.435 35.2513 68.6557 35.5116 68.6709 35.8255L68.8104 38.5847C68.8485 39.3227 69.4751 39.891 70.2134 39.854L75.361 39.5957C76.0992 39.5589 76.6675 38.9305 76.632 38.1925L76.4925 35.4332C76.4773 35.1194 76.6726 34.8383 76.9669 34.7285C77.7331 34.442 78.4815 34.0889 79.1995 33.67C79.4709 33.5117 79.8109 33.5391 80.0443 33.7497L82.0916 35.6027C82.6396 36.0984 83.487 36.0558 83.9817 35.5081L87.4396 31.6846C87.9369 31.1366 87.8937 30.2905 87.3457 29.7948L85.2959 27.942C85.065 27.7314 85.0016 27.3955 85.1335 27.1099C85.4785 26.3531 85.755 25.574 85.9631 24.7814C86.0417 24.4775 86.303 24.2562 86.6176 24.2408L89.3753 24.1022C90.1136 24.0652 90.6819 23.437 90.6464 22.6988L90.3876 17.5504C90.3496 16.8122 89.7204 16.2439 88.9846 16.2812L86.2244 16.4195C85.9098 16.4352 85.6282 16.2408 85.5191 15.9466C85.2324 15.1789 84.8798 14.4317 84.4612 13.713C84.3039 13.4418 84.3293 13.1013 84.5398 12.8684L86.3944 10.82C86.8891 10.2721 86.846 9.42596 86.298 8.93023L82.4747 5.47205C81.9267 4.97658 81.0819 5.01894 80.5872 5.56693L78.7326 7.61556C78.5221 7.8482 78.1872 7.90985 77.9005 7.7797C77.1445 7.43442 76.3656 7.15814 75.5715 6.9496C75.2696 6.86994 75.0464 6.60964 75.0312 6.29581L74.8942 3.53658C74.8561 2.79856 74.2269 2.23053 73.4912 2.26732L68.3411 2.52558C67.6028 2.56262 67.0345 3.19078 67.0726 3.92905L67.2096 6.68803C67.2274 7.00161 67.032 7.28296 66.7377 7.39281C65.969 7.67924 65.2231 8.03264 64.5052 8.4515C64.2337 8.60956 63.8937 8.58216 63.6603 8.37159L61.6104 6.51856C61.0625 6.02283 60.2176 6.06545 59.7204 6.61345L56.2625 10.4367C55.7677 10.9847 55.8109 11.8308 56.3589 12.3265L58.4062 14.179C58.6396 14.3901 58.7005 14.726 58.5711 15.0114C58.2261 15.7682 57.9496 16.5473 57.7415 17.3399C57.6603 17.6438 57.4016 17.865 57.087 17.8808L54.3267 18.019C53.5885 18.0561 53.0227 18.6842 53.0582 19.4225L53.317 24.5708Z" fill="#807DBB"/>
<path d="M65.7622 15.5532C62.7254 18.9127 62.9867 24.1179 66.3457 27.1564C69.7047 30.1947 74.9106 29.9339 77.9474 26.5744C79.4189 24.9472 80.1698 22.844 80.0607 20.6523C79.9491 18.4609 78.9926 16.4432 77.3664 14.9712C75.7377 13.4995 73.6345 12.7503 71.4451 12.8592C69.2531 12.969 67.2362 13.926 65.7622 15.5532V15.5532ZM71.851 30.3358C69.6311 30.3358 67.4062 29.546 65.6328 27.9437C61.84 24.5124 61.5457 18.6347 64.9757 14.8413C66.6375 13.0038 68.9157 11.9233 71.3918 11.7992C73.8654 11.6749 76.24 12.5223 78.0793 14.1843C79.9161 15.8462 80.9969 18.1247 81.1212 20.5991C81.243 23.0739 80.3981 25.449 78.7364 27.2866C76.9072 29.3081 74.3829 30.3358 71.851 30.3358V30.3358ZM65.4983 33.7465C65.6759 33.7465 65.8561 33.7843 66.026 33.862C66.7491 34.191 67.5026 34.4599 68.2687 34.6616C68.8015 34.8014 69.1795 35.2596 69.2049 35.8018L69.3444 38.5613C69.3673 39.006 69.7478 39.351 70.1918 39.3272L75.3394 39.0689C75.555 39.058 75.7529 38.9641 75.8975 38.804C76.0421 38.6442 76.1157 38.4377 76.1055 38.2223L75.966 35.4631C75.9406 34.9212 76.2679 34.4272 76.7829 34.2347C77.5263 33.9574 78.2518 33.6141 78.9368 33.2145C79.4112 32.937 79.9998 32.9951 80.4032 33.3591L82.4531 35.2124C82.7829 35.511 83.2928 35.4851 83.5922 35.1551L87.0501 31.3318C87.1948 31.172 87.2683 30.9655 87.2582 30.7501C87.248 30.5347 87.1542 30.3361 86.9943 30.1917L84.9444 28.3387C84.541 27.9749 84.4243 27.3936 84.6527 26.8928C84.9825 26.1713 85.2514 25.4168 85.4544 24.6496C85.5939 24.1171 86.0531 23.7409 86.5935 23.7137L89.3537 23.5755C89.7977 23.5531 90.1402 23.1733 90.1199 22.7286L89.8611 17.58C89.851 17.3644 89.7546 17.1662 89.5948 17.0219C89.4349 16.8773 89.2294 16.8035 89.0138 16.8141L86.2535 16.9524C85.7131 16.9788 85.2184 16.6515 85.0256 16.1355C84.7491 15.3924 84.4066 14.6683 84.0057 13.9833C83.7292 13.5079 83.7876 12.918 84.1504 12.5157L86.0049 10.4673C86.3017 10.137 86.2764 9.62578 85.9466 9.32692L82.1233 5.86899C81.7935 5.57013 81.281 5.59601 80.9842 5.92608L79.1296 7.9747C78.7668 8.37707 78.1859 8.49403 77.6835 8.26544C76.963 7.93665 76.207 7.66772 75.4408 7.46629C74.9081 7.32599 74.5326 6.86756 74.5047 6.32565L74.3677 3.56641C74.3575 3.35102 74.2611 3.15288 74.1013 3.00827C73.9415 2.86341 73.736 2.79009 73.5203 2.80049L68.3728 3.05876C67.9263 3.08109 67.5838 3.46113 67.6066 3.90586L67.7436 6.66485C67.7715 7.2065 67.4442 7.70045 66.9267 7.89301C66.1859 8.17005 65.4603 8.51331 64.7753 8.91314C64.3009 9.19043 63.7098 9.13233 63.3064 8.76853L61.259 6.91525C61.0992 6.77064 60.8912 6.69808 60.678 6.70798C60.4624 6.71889 60.2645 6.81276 60.1199 6.97259L56.6594 10.7958C56.3626 11.1259 56.388 11.6374 56.7178 11.9362L58.7677 13.789C59.1685 14.1528 59.2852 14.7338 59.0569 15.2346C58.7296 15.9556 58.4607 16.7101 58.2577 17.4783C58.1182 18.0106 57.659 18.3868 57.1186 18.4139L54.3584 18.5525C53.9144 18.5745 53.5694 18.9546 53.5922 19.3993L53.851 24.5476C53.8738 24.9924 54.2544 25.3369 54.6983 25.3133L57.4561 25.1753C57.999 25.1471 58.4912 25.4762 58.684 25.9922C58.963 26.7355 59.3055 27.4594 59.7038 28.1443C59.9829 28.62 59.9246 29.2096 59.5592 29.612L57.7072 31.6604C57.5626 31.8205 57.489 32.027 57.4992 32.2424C57.5093 32.458 57.6032 32.6561 57.7656 32.8008L61.5863 36.2587C61.9186 36.5573 62.4286 36.5317 62.7279 36.2013L64.5799 34.153C64.821 33.8876 65.1558 33.7465 65.4983 33.7465V33.7465ZM70.1487 40.3894C69.1618 40.3894 68.3347 39.6118 68.284 38.6143L68.147 35.8553C68.1419 35.7774 68.0835 35.7099 67.9998 35.6881C67.1753 35.4712 66.3635 35.1817 65.5871 34.8276C65.5085 34.792 65.4197 34.807 65.3664 34.8651L63.5144 36.9135C62.8243 37.6776 61.6396 37.7367 60.8759 37.0459L57.0527 33.588C56.6823 33.2528 56.4641 32.7942 56.4387 32.2956C56.4134 31.7971 56.5859 31.3186 56.9207 30.9485L58.7728 28.8999C58.826 28.842 58.8311 28.7532 58.788 28.6786C58.3592 27.9421 57.9888 27.163 57.6895 26.3634C57.6616 26.2827 57.588 26.233 57.5093 26.235L54.7516 26.3735C53.7191 26.4243 52.8413 25.6299 52.7905 24.6009L52.5317 19.4523C52.5064 18.9538 52.6789 18.4751 53.0138 18.1049C53.3487 17.7348 53.8053 17.5174 54.3051 17.4925L57.0654 17.354C57.1415 17.3502 57.21 17.2913 57.2303 17.2081C57.4484 16.3821 57.7377 15.57 58.0928 14.7947C58.1284 14.7163 58.1131 14.6285 58.0548 14.576L56.0049 12.7232C55.2413 12.0321 55.1829 10.8481 55.873 10.084L59.3309 6.26071C59.6658 5.89056 60.125 5.67288 60.6248 5.64802C61.1246 5.62189 61.6015 5.79339 61.9719 6.12827L64.0193 7.9813C64.0776 8.03356 64.1664 8.03965 64.24 7.99652C64.9783 7.56599 65.7571 7.19686 66.5563 6.89876C66.6375 6.86882 66.6882 6.79601 66.6831 6.71813L66.5461 3.95889C66.4954 2.92963 67.2895 2.05056 68.3195 1.9988L73.4671 1.74054C73.9668 1.71643 74.4438 1.88616 74.8142 2.22104C75.1846 2.55567 75.4028 3.01487 75.4282 3.51339L75.5651 6.27238C75.5702 6.35052 75.6286 6.418 75.7123 6.43982C76.5368 6.65648 77.3487 6.94595 78.125 7.30011C78.2036 7.33563 78.2899 7.32066 78.3432 7.26282L80.1952 5.21445C80.8878 4.4498 82.0726 4.39068 82.8362 5.08176L86.6594 8.53969C87.4231 9.23102 87.4814 10.4153 86.7914 11.1792L84.9394 13.2278C84.8861 13.2857 84.8785 13.3747 84.9241 13.4488C85.3529 14.1858 85.7233 14.9649 86.0201 15.7643C86.0506 15.8447 86.1216 15.8942 86.2003 15.8927L88.9605 15.7544C89.4603 15.7298 89.9373 15.9 90.3077 16.2347C90.6781 16.5695 90.8962 17.0285 90.9216 17.527L91.1778 22.6756C91.2311 23.7046 90.4345 24.5837 89.407 24.6354L86.6468 24.7739C86.5681 24.7777 86.5022 24.8364 86.4793 24.9196C86.2637 25.7449 85.9745 26.5567 85.6193 27.333C85.5838 27.4117 85.599 27.4994 85.6573 27.5517L87.7047 29.4045C88.0751 29.7394 88.2933 30.198 88.3186 30.6968C88.344 31.1953 88.1715 31.6738 87.8366 32.044L84.3787 35.867C83.6886 36.6314 82.5038 36.6905 81.7402 35.9997L79.6928 34.1464C79.6345 34.0941 79.5457 34.088 79.4696 34.1312C78.7339 34.5614 77.955 34.9306 77.1559 35.2287C77.0747 35.2588 77.0239 35.3317 77.0265 35.4098L77.166 38.169C77.1914 38.6673 77.0188 39.146 76.684 39.5162C76.3491 39.8863 75.8899 40.1038 75.3926 40.1289L70.2451 40.3869C70.2121 40.3887 70.1816 40.3894 70.1487 40.3894V40.3894Z" fill="#66509E"/>
<path d="M50.4532 70.844L50.4253 66.2795L31.5348 55.1367L31.5957 65.7262C31.5982 66.027 31.3496 66.2724 31.0426 66.2744L25.8823 66.3036C25.5728 66.3053 25.3267 66.5504 25.3293 66.8521L25.3496 70.4356C25.3521 70.737 25.1035 70.982 24.7965 70.9836L20.6155 71.0077V70.9793H13.7454C13.2405 70.9793 12.832 71.3791 12.832 71.873V78.3355H12.8447L12.8878 85.6472C12.8929 86.1492 13.3115 86.5541 13.824 86.5511L27.2955 86.4671L50.4532 70.844V70.844Z" fill="white"/>
<path d="M13.8218 87.0852C13.4362 87.0852 13.0734 86.9394 12.7994 86.6732C12.5178 86.4023 12.363 86.0402 12.3605 85.6531L12.3174 78.4561C12.3098 78.4188 12.3047 78.3793 12.3047 78.3389V71.8764C12.3047 71.091 12.9516 70.4519 13.7482 70.4519H20.6184C20.6768 70.4519 20.7351 70.4616 20.7884 70.4796L24.7943 70.4562C24.807 70.4562 24.8222 70.4514 24.8222 70.4415L24.7994 66.8583C24.7994 66.569 24.911 66.2966 25.1191 66.0918C25.322 65.8901 25.5935 65.7783 25.8802 65.7765L31.043 65.7471C31.0531 65.7471 31.0683 65.743 31.0683 65.7331L31.0049 55.1434C31.0049 54.9524 31.1064 54.7753 31.2713 54.6802C31.4387 54.5848 31.6417 54.5858 31.8066 54.6832L50.6971 65.8257C50.8594 65.9206 50.9584 66.0931 50.9584 66.2796L50.9863 70.8441C50.9888 71.1374 50.7529 71.3761 50.4586 71.3779H50.4561C50.1643 71.3779 49.9258 71.1425 49.9258 70.8507L49.9005 66.5871L32.073 56.0727L32.1288 65.7263C32.1313 66.0155 32.0197 66.2877 31.8117 66.4927C31.6087 66.6946 31.3372 66.8068 31.0506 66.8085L25.8878 66.8375C25.8776 66.8377 25.8624 66.842 25.8624 66.8519L25.8827 70.4357C25.8852 70.7257 25.7711 70.9981 25.5656 71.2026C25.3601 71.4043 25.0886 71.5162 24.8019 71.5177L20.621 71.5416C20.5575 71.5431 20.5043 71.5322 20.4485 71.5134H13.7482C13.5377 71.5134 13.3652 71.6763 13.3652 71.8764V78.2245C13.3753 78.2605 13.3778 78.2976 13.3778 78.3359L13.4235 85.6473C13.4235 85.7467 13.4641 85.8401 13.5377 85.9106C13.6112 85.9837 13.7127 86.024 13.8218 86.024L27.2958 85.9398H27.2983C27.5901 85.9398 27.8286 86.1752 27.8311 86.467C27.8311 86.7602 27.5952 86.9992 27.3034 87.001L13.8294 87.0852C13.8269 87.0852 13.8243 87.0852 13.8218 87.0852V87.0852Z" fill="#66509E"/>
<path d="M54.9615 94.8029H31.7074C30.7687 94.8029 30 94.1321 30 93.3132V74.6147C30 73.7955 30.7687 73.125 31.7074 73.125H54.9615C55.9002 73.125 56.6689 73.7955 56.6689 74.6147V93.3132C56.6689 94.1321 55.9002 94.8029 54.9615 94.8029Z" fill="white"/>
<path d="M31.7103 73.6589C31.0735 73.6589 30.5331 74.0983 30.5331 74.6179V93.3163C30.5331 93.8359 31.0735 94.2753 31.7103 94.2753H54.9644C55.6037 94.2753 56.1416 93.8359 56.1416 93.3163V74.6179C56.1416 74.0983 55.6037 73.6589 54.9644 73.6589H31.7103V73.6589ZM54.9644 95.3363H31.7103C30.4773 95.3363 29.4727 94.4301 29.4727 93.3163V74.6179C29.4727 73.5041 30.4773 72.5977 31.7103 72.5977H54.9644C56.1999 72.5977 57.202 73.5041 57.202 74.6179V93.3163C57.202 94.4301 56.1999 95.3363 54.9644 95.3363Z" fill="#66509E"/>
<path d="M30.3081 54.2834L52.6438 67.6387C53.6662 68.2498 55.0134 67.9309 55.6375 66.9301C56.2641 65.9292 55.9368 64.61 54.9144 63.9983L32.5787 50.6426C31.5563 50.0317 30.2091 50.3503 29.585 51.3511C28.9609 52.3522 29.2857 53.6715 30.3081 54.2834V54.2834Z" fill="#EE445B"/>
<path d="M30.5544 53.8315L52.8902 67.187C53.669 67.6526 54.6889 67.4128 55.1633 66.653C55.3866 66.2942 55.4551 65.8695 55.3561 65.457C55.2546 65.0367 54.9933 64.6815 54.6179 64.4572L32.2821 51.1017C31.5033 50.6364 30.4834 50.8759 30.009 51.6357C29.7857 51.9947 29.7172 52.4197 29.8162 52.8322C29.9177 53.2526 30.1815 53.6075 30.5544 53.8315ZM53.7477 68.4844C53.2682 68.4844 52.7836 68.3596 52.3472 68.098L30.0115 54.7425C29.39 54.3709 28.9536 53.781 28.7861 53.0813C28.6187 52.3897 28.7329 51.6768 29.1083 51.074C29.8872 49.8271 31.554 49.4311 32.8276 50.1909L55.1633 63.5464C55.7849 63.9183 56.2187 64.5085 56.3887 65.2082C56.5536 65.8997 56.4394 66.6126 56.0639 67.2149C55.554 68.0323 54.661 68.4844 53.7477 68.4844V68.4844Z" fill="#66509E"/>
<path d="M43.5668 88.682L37.998 85.5343V79.2773L43.5668 82.4255V88.682Z" fill="#EE445B"/>
<path d="M38.5312 85.2278L43.0394 87.776V82.7385L38.5312 80.1901V85.2278V85.2278ZM43.5696 89.216C43.4808 89.216 43.3895 89.1931 43.3083 89.1472L37.7396 85.9996C37.5722 85.9055 37.4707 85.7289 37.4707 85.5376V79.2806C37.4707 79.0918 37.5696 78.9175 37.732 78.8222C37.8969 78.7273 38.0973 78.7258 38.2622 78.8189L43.831 81.9668C43.9984 82.0609 44.0999 82.2372 44.0999 82.4288V88.6852C44.0999 88.874 44.0009 89.0485 43.836 89.1437C43.7548 89.1916 43.6635 89.216 43.5696 89.216V89.216Z" fill="#66509E"/>
<path d="M37.998 79.2627L43.4805 76.0547L49.138 79.2627L43.653 82.4702L37.998 79.2627V79.2627Z" fill="#EE445B"/>
<path d="M39.0665 79.2588L43.6534 81.861L48.0804 79.2727L43.491 76.6703L39.0665 79.2588ZM43.6584 83.0041C43.5671 83.0041 43.4783 82.9811 43.3971 82.9351L37.7396 79.7271C37.5747 79.6337 37.4732 79.4592 37.4707 79.2692C37.4707 79.0794 37.5696 78.9033 37.7346 78.8074L43.2195 75.5999C43.3819 75.5045 43.5849 75.503 43.7472 75.5964L49.4047 78.8041C49.5696 78.8978 49.6711 79.0723 49.6737 79.2621C49.6737 79.4518 49.5747 79.6282 49.4098 79.7238L43.9274 82.9316C43.8436 82.98 43.7498 83.0041 43.6584 83.0041Z" fill="#66509E"/>
<path d="M49.165 83.9213V85.4755L43.5938 88.6234V82.3669L49.165 79.2188V83.9213Z" fill="#EE445B"/>
<path d="M44.0976 82.6802V87.7177L48.6058 85.1693V80.1318L44.0976 82.6802ZM43.5673 89.1577C43.476 89.1577 43.3821 89.1336 43.301 89.0856C43.1361 88.9902 43.0371 88.8159 43.0371 88.6272V82.3704C43.0371 82.1792 43.1411 82.0028 43.306 81.9087L48.8773 78.7605C49.0396 78.6672 49.2426 78.6685 49.405 78.7638C49.5673 78.8592 49.6688 79.0335 49.6688 79.2223V85.479C49.6688 85.6703 49.5648 85.8466 49.3999 85.941L43.8287 89.0889C43.7475 89.1348 43.6587 89.1577 43.5673 89.1577V89.1577Z" fill="#66509E"/>
<path d="M56.6718 91.1787H30.0029C29.7111 91.1787 29.4727 90.9409 29.4727 90.6479C29.4727 90.3549 29.7111 90.1172 30.0029 90.1172H56.6718C56.9661 90.1172 57.202 90.3549 57.202 90.6479C57.202 90.9409 56.9661 91.1787 56.6718 91.1787Z" fill="#66509E"/>
<path d="M22.5924 69.2582H18.3226C18.0309 69.2582 17.7924 69.0205 17.7924 68.7275C17.7924 68.4345 18.0309 68.1967 18.3226 68.1967H22.5924C22.8537 68.1967 23.0693 67.9824 23.0693 67.719V67.6777C23.0693 67.4143 22.8537 67.1999 22.5924 67.1999H19.1243C18.2567 67.1999 17.5488 66.4934 17.5488 65.625V63.519C17.5488 63.2257 17.7873 62.9883 18.0816 62.9883C18.3734 62.9883 18.6118 63.2257 18.6118 63.519V65.625C18.6118 65.9084 18.8402 66.139 19.1243 66.139H22.5924C23.4397 66.139 24.1298 66.8293 24.1298 67.6777V67.719C24.1298 68.5676 23.4397 69.2582 22.5924 69.2582V69.2582Z" fill="#66509E"/>
<path d="M19.4755 69.2646H16.497C16.2027 69.2646 15.9668 69.0269 15.9668 68.7339C15.9668 68.4408 16.2027 68.2031 16.497 68.2031H19.4755C19.7698 68.2031 20.0082 68.4408 20.0082 68.7339C20.0082 69.0269 19.7698 69.2646 19.4755 69.2646Z" fill="#66509E"/>
<path d="M0.527344 79.4626H6.30409C8.52396 79.3025 10.3151 81.2032 10.0791 83.4208C9.87618 85.3339 8.15102 86.7463 6.18485 86.7463H1.54214C0.981466 86.7463 0.527344 86.302 0.527344 85.7533V79.4626Z" fill="#807DBB"/>
<path d="M1.06047 79.9963V85.7563C1.06047 86.0112 1.27611 86.2185 1.54503 86.2185H6.18774C7.90529 86.2185 9.38436 84.9665 9.55433 83.3679C9.65074 82.4531 9.34376 81.5535 8.71205 80.8994C8.09556 80.2606 7.23044 79.9303 6.34503 79.995C6.33235 79.9958 6.31966 79.9963 6.30698 79.9963H1.06047ZM6.18774 87.28H1.54503C0.692347 87.28 0 86.5963 0 85.7563V79.4658C0 79.1728 0.235941 78.935 0.530233 78.935H6.28668C7.48161 78.8546 8.64355 79.3011 9.47569 80.1617C10.3256 81.0425 10.7391 82.2517 10.6097 83.4796C10.3814 85.6462 8.47865 87.28 6.18774 87.28Z" fill="#66509E"/>
<path d="M1.41022 45.5273C0.923116 45.5273 0.527344 45.9153 0.527344 46.393V79.462H5.20557V50.9832C5.20557 50.5052 5.60388 50.1175 6.09098 50.1175H19.7248C20.2119 50.1175 20.6077 50.5052 20.6077 50.9832V53.2101H25.2884V53.201H25.3823V50.1084V47.3464V46.393C25.3823 45.9153 24.9865 45.5273 24.4994 45.5273H1.41022V45.5273Z" fill="white"/>
<path d="M1.06047 78.9346H4.67822V50.9866C4.67822 50.2168 5.31501 49.5902 6.09387 49.5902H19.7277C20.5066 49.5902 21.1408 50.2168 21.1408 50.9866V52.683H24.855V46.3964C24.855 46.2119 24.6977 46.0615 24.5023 46.0615H1.41311C1.2203 46.0615 1.06047 46.2119 1.06047 46.3964V78.9346V78.9346ZM5.20846 79.9961H0.530233C0.235941 79.9961 0 79.7584 0 79.4654V46.3964C0 45.6266 0.63425 45 1.41311 45H24.5023C25.2812 45 25.9154 45.6266 25.9154 46.3964V53.2044C25.9154 53.4967 25.6795 53.7336 25.3877 53.7351C25.3573 53.7412 25.3243 53.7443 25.2913 53.7443H20.6106C20.3188 53.7443 20.0803 53.5068 20.0803 53.2135V50.9866C20.0803 50.8019 19.9205 50.6517 19.7277 50.6517H6.09387C5.89852 50.6517 5.74123 50.8019 5.74123 50.9866V79.4654C5.74123 79.7584 5.50275 79.9961 5.20846 79.9961Z" fill="#66509E"/>
<path d="M16.6353 53.2031C16.1077 53.2031 15.6738 53.6354 15.6738 54.1644V57.7733H15.6764V61.1863L16.818 62.5948L17.4624 63.3884C17.706 63.6911 18.3504 63.6911 18.5964 63.3884L19.2383 62.5948L20.451 61.1026V57.7733H24.4189C24.9466 57.7733 25.3778 57.341 25.3778 56.812V53.2031H16.6353Z" fill="#EE445B"/>
<path d="M16.2095 61.0017L17.8763 63.0574C17.9296 63.0998 18.1325 63.0998 18.1934 63.0513L19.9211 60.918V57.7767C19.9211 57.4836 20.1596 57.2459 20.4539 57.2459H24.4217C24.6577 57.2459 24.8505 57.0529 24.8505 56.8154V53.737H16.6382C16.4023 53.737 16.2095 53.9303 16.2095 54.1678V61.0017ZM18.031 64.1494C17.6277 64.1494 17.27 63.9951 17.0518 63.7259L15.2657 61.5241C15.1896 61.4297 15.1465 61.3115 15.1465 61.1897V54.1678C15.1465 53.345 15.8163 52.6758 16.6382 52.6758H25.3807C25.675 52.6758 25.9135 52.9135 25.9135 53.2065V56.8154C25.9135 57.6381 25.2437 58.3074 24.4217 58.3074H20.9841V61.1062C20.9841 61.2277 20.941 61.3457 20.8649 61.4403L19.0103 63.7257C18.7921 63.9951 18.4344 64.1494 18.031 64.1494Z" fill="#66509E"/>
<path d="M2.68234 50.2802H0.706014C0.411468 50.2802 0.175781 50.0425 0.175781 49.7495C0.175781 49.4565 0.411468 49.2188 0.706014 49.2188H2.68234C2.97409 49.2188 3.21257 49.4565 3.21257 49.7495C3.21257 50.0425 2.97409 50.2802 2.68234 50.2802Z" fill="#66509E"/>
<path d="M2.77048 57.663H0.794158C0.502403 57.663 0.263672 57.4253 0.263672 57.1323C0.263672 56.839 0.502403 56.6016 0.794158 56.6016H2.77048C3.06477 56.6016 3.30071 56.839 3.30071 57.1323C3.30071 57.4253 3.06477 57.663 2.77048 57.663Z" fill="#66509E"/>
<path d="M2.82882 65.0459H0.852498C0.558206 65.0459 0.322266 64.8081 0.322266 64.5151C0.322266 64.2221 0.558206 63.9844 0.852498 63.9844H2.82882C3.12057 63.9844 3.35905 64.2221 3.35905 64.5151C3.35905 64.8081 3.12057 65.0459 2.82882 65.0459Z" fill="#66509E"/>
<path d="M2.91671 72.2524H0.940135C0.648634 72.2524 0.410156 72.0149 0.410156 71.7221C0.410156 71.4289 0.648634 71.1914 0.940135 71.1914H2.91671C3.20847 71.1914 3.44694 71.4289 3.44694 71.7221C3.44694 72.0149 3.20847 72.2524 2.91671 72.2524Z" fill="#66509E"/>
<path d="M39.9931 99.9475C39.6988 99.9475 39.4629 99.7101 39.4629 99.417V94.8081C39.4629 94.5148 39.6988 94.2773 39.9931 94.2773C40.2849 94.2773 40.5234 94.5148 40.5234 94.8081V99.417C40.5234 99.7101 40.2849 99.9475 39.9931 99.9475Z" fill="#66509E"/>
<path d="M46.6728 99.9475C46.3785 99.9475 46.1426 99.7101 46.1426 99.417V94.8081C46.1426 94.5148 46.3785 94.2773 46.6728 94.2773C46.9646 94.2773 47.203 94.5148 47.203 94.8081V99.417C47.203 99.7101 46.9646 99.9475 46.6728 99.9475Z" fill="#66509E"/>
<path d="M50.0385 99.9089H36.6533C36.3615 99.9089 36.123 99.6714 36.123 99.3784C36.123 99.0851 36.3615 98.8477 36.6533 98.8477H50.0385C50.3328 98.8477 50.5687 99.0851 50.5687 99.3784C50.5687 99.6714 50.3328 99.9089 50.0385 99.9089Z" fill="#66509E"/>
<path d="M111.269 108.636H73.3869C72.4812 108.636 71.748 107.903 71.748 106.997V85.0183C71.748 84.1129 72.4812 83.3789 73.3869 83.3789H111.269C112.175 83.3789 112.908 84.1129 112.908 85.0183V106.997C112.908 107.903 112.175 108.636 111.269 108.636Z" fill="white"/>
<path d="M73.3898 83.9125C72.7784 83.9125 72.2812 84.41 72.2812 85.0215V107C72.2812 107.611 72.7784 108.109 73.3898 108.109H111.272C111.884 108.109 112.381 107.611 112.381 107V85.0215C112.381 84.41 111.884 83.9125 111.272 83.9125H73.3898ZM111.272 109.169H73.3898C72.1924 109.169 71.2207 108.197 71.2207 107V85.0215C71.2207 83.825 72.1924 82.8516 73.3898 82.8516H111.272C112.467 82.8516 113.441 83.825 113.441 85.0215V107C113.441 108.197 112.467 109.169 111.272 109.169Z" fill="#66509E"/>
<path d="M112.135 89.5961H71.8121C71.5178 89.5961 71.2793 89.3589 71.2793 89.0656C71.2793 88.7726 71.5178 88.5352 71.8121 88.5352H112.135C112.429 88.5352 112.665 88.7726 112.665 89.0656C112.665 89.3589 112.429 89.5961 112.135 89.5961Z" fill="#66509E"/>
<path d="M76.3702 86.2786C76.3702 86.9743 75.8019 87.538 75.0992 87.538C74.3989 87.538 73.8281 86.9743 73.8281 86.2786C73.8281 85.5832 74.3989 85.0195 75.0992 85.0195C75.8019 85.0195 76.3702 85.5832 76.3702 86.2786Z" fill="white"/>
<path d="M75.102 85.5534C74.6936 85.5534 74.3638 85.8802 74.3638 86.282C74.3638 86.6839 74.6936 87.0109 75.102 87.0109C75.5105 87.0109 75.8428 86.6839 75.8428 86.282C75.8428 85.8802 75.5105 85.5534 75.102 85.5534ZM75.102 88.0722C74.1101 88.0722 73.3008 87.2692 73.3008 86.282C73.3008 85.2951 74.1101 84.4922 75.102 84.4922C76.0965 84.4922 76.9033 85.2951 76.9033 86.282C76.9033 87.2692 76.0965 88.0722 75.102 88.0722Z" fill="#66509E"/>
<path d="M81.2309 86.2786C81.2309 86.9743 80.6627 87.538 79.9624 87.538C79.2597 87.538 78.6914 86.9743 78.6914 86.2786C78.6914 85.5832 79.2597 85.0195 79.9624 85.0195C80.6627 85.0195 81.2309 85.5832 81.2309 86.2786Z" fill="white"/>
<path d="M79.9653 85.5534C79.5569 85.5534 79.2245 85.8802 79.2245 86.282C79.2245 86.6839 79.5569 87.0109 79.9653 87.0109C80.3713 87.0109 80.7036 86.6839 80.7036 86.282C80.7036 85.8802 80.3713 85.5534 79.9653 85.5534ZM79.9653 88.0722C78.9708 88.0722 78.1641 87.2692 78.1641 86.282C78.1641 85.2951 78.9708 84.4922 79.9653 84.4922C80.9573 84.4922 81.7666 85.2951 81.7666 86.282C81.7666 87.2692 80.9573 88.0722 79.9653 88.0722Z" fill="#66509E"/>
<path d="M86.0649 86.2786C86.0649 86.9743 85.4966 87.538 84.7964 87.538C84.0937 87.538 83.5254 86.9743 83.5254 86.2786C83.5254 85.5832 84.0937 85.0195 84.7964 85.0195C85.4966 85.0195 86.0649 85.5832 86.0649 86.2786Z" fill="white"/>
<path d="M84.7993 85.5534C84.3909 85.5534 84.0585 85.8802 84.0585 86.282C84.0585 86.6839 84.3909 87.0109 84.7993 87.0109C85.2052 87.0109 85.5376 86.6839 85.5376 86.282C85.5376 85.8802 85.2052 85.5534 84.7993 85.5534ZM84.7993 88.0722C83.8048 88.0722 82.998 87.2692 82.998 86.282C82.998 85.2951 83.8048 84.4922 84.7993 84.4922C85.7913 84.4922 86.6006 85.2951 86.6006 86.282C86.6006 87.2692 85.7913 88.0722 84.7993 88.0722Z" fill="#66509E"/>
<path d="M84.1992 105.552H108.892V91.6992L84.1992 105.552Z" fill="white"/>
<path d="M108.895 106.086H84.2021C83.9104 106.086 83.6719 105.848 83.6719 105.555C83.6719 105.262 83.9104 105.024 84.2021 105.024H108.362V91.7024C108.362 91.4091 108.6 91.1719 108.895 91.1719C109.186 91.1719 109.425 91.4091 109.425 91.7024V105.555C109.425 105.848 109.186 106.086 108.895 106.086V106.086Z" fill="#66509E"/>
<path d="M104.281 91.6992H101.338V105.552H104.281V91.6992Z" fill="#EE445B"/>
<path d="M101.871 105.024H103.753V92.2331H101.871V105.024ZM104.284 106.086H101.341C101.046 106.086 100.811 105.848 100.811 105.555V91.7024C100.811 91.4091 101.046 91.1719 101.341 91.1719H104.284C104.578 91.1719 104.814 91.4091 104.814 91.7024V105.555C104.814 105.848 104.578 106.086 104.284 106.086Z" fill="#66509E"/>
<path d="M97.4253 95.332H94.4824V105.532H97.4253V95.332Z" fill="#EE445B"/>
<path d="M95.0181 105.005H96.9005V95.8662H95.0181V105.005ZM97.4308 106.066H94.4878C94.1936 106.066 93.9551 105.829 93.9551 105.536V95.3354C93.9551 95.0424 94.1936 94.8047 94.4878 94.8047H97.4308C97.7225 94.8047 97.961 95.0424 97.961 95.3354V105.536C97.961 105.829 97.7225 106.066 97.4308 106.066Z" fill="#66509E"/>
<path d="M90.5992 99.8438H87.6562V105.549H90.5992V99.8438Z" fill="#EE445B"/>
<path d="M88.1919 105.022H90.0744V100.378H88.1919V105.022ZM90.6046 106.084H87.6617C87.3674 106.084 87.1289 105.846 87.1289 105.553V99.8471C87.1289 99.5541 87.3674 99.3164 87.6617 99.3164H90.6046C90.8963 99.3164 91.1348 99.5541 91.1348 99.8471V105.553C91.1348 105.846 90.8963 106.084 90.6046 106.084Z" fill="#66509E"/>
<path d="M81.8205 97.9426L78.0176 95.2148L81.8205 97.9426Z" fill="white"/>
<path d="M81.8249 98.4766C81.7183 98.4766 81.6092 98.4444 81.5179 98.3772L77.7124 95.6499C77.4739 95.4789 77.4181 95.1473 77.5906 94.9091C77.7606 94.6709 78.0929 94.6161 78.3314 94.7871L82.1344 97.5146C82.3728 97.6856 82.4287 98.0172 82.2562 98.2554C82.1547 98.3997 81.9898 98.4766 81.8249 98.4766V98.4766Z" fill="#66509E"/>
<path d="M82.0574 99.6094L78.252 102.475L82.0574 99.6094Z" fill="white"/>
<path d="M78.2557 103.009C78.0933 103.009 77.936 102.936 77.832 102.797C77.6544 102.563 77.7026 102.231 77.936 102.054L81.744 99.1887C81.9774 99.0126 82.3098 99.0593 82.4874 99.2935C82.6624 99.5276 82.6168 99.8602 82.3808 100.037L78.5753 102.902C78.4789 102.974 78.3673 103.009 78.2557 103.009Z" fill="#66509E"/>
<path d="M80.8301 98.6357C80.8301 99.7487 81.7409 100.651 82.8622 100.651C83.9861 100.651 84.8944 99.7487 84.8944 98.6357C84.8944 97.5233 83.9861 96.6211 82.8622 96.6211C81.7409 96.6211 80.8301 97.5233 80.8301 98.6357Z" fill="#EE445B"/>
<path d="M82.8651 97.155C82.038 97.155 81.3632 97.8209 81.3632 98.6394C81.3632 99.4578 82.038 100.124 82.8651 100.124C83.6947 100.124 84.367 99.4578 84.367 98.6394C84.367 97.8209 83.6947 97.155 82.8651 97.155ZM82.8651 101.185C81.452 101.185 80.3027 100.043 80.3027 98.6394C80.3027 97.2357 81.452 96.0938 82.8651 96.0938C84.2782 96.0938 85.43 97.2357 85.43 98.6394C85.43 100.043 84.2782 101.185 82.8651 101.185Z" fill="#66509E"/>
<path d="M74.9707 94.4756C74.9707 95.5885 75.8815 96.4907 77.0028 96.4907C78.1242 96.4907 79.035 95.5885 79.035 94.4756C79.035 93.3628 78.1242 92.4609 77.0028 92.4609C75.8815 92.4609 74.9707 93.3628 74.9707 94.4756Z" fill="#EE445B"/>
<path d="M77.0057 92.9948C76.1787 92.9948 75.5038 93.6608 75.5038 94.479C75.5038 95.2974 76.1787 95.9634 77.0057 95.9634C77.8328 95.9634 78.5076 95.2974 78.5076 94.479C78.5076 93.6608 77.8328 92.9948 77.0057 92.9948ZM77.0057 97.0246C75.5926 97.0246 74.4434 95.8824 74.4434 94.479C74.4434 93.0755 75.5926 91.9336 77.0057 91.9336C78.4188 91.9336 79.5681 93.0755 79.5681 94.479C79.5681 95.8824 78.4188 97.0246 77.0057 97.0246Z" fill="#66509E"/>
<path d="M74.9707 103.147C74.9707 104.26 75.8815 105.163 77.0028 105.163C78.1242 105.163 79.035 104.26 79.035 103.147C79.035 102.035 78.1242 101.133 77.0028 101.133C75.8815 101.133 74.9707 102.035 74.9707 103.147Z" fill="#EE445B"/>
<path d="M77.0057 101.608C76.1787 101.608 75.5038 102.274 75.5038 103.092C75.5038 103.911 76.1787 104.577 77.0057 104.577C77.8328 104.577 78.5076 103.911 78.5076 103.092C78.5076 102.274 77.8328 101.608 77.0057 101.608ZM77.0057 105.638C75.5926 105.638 74.4434 104.496 74.4434 103.092C74.4434 101.689 75.5926 100.547 77.0057 100.547C78.4188 100.547 79.5681 101.689 79.5681 103.092C79.5681 104.496 78.4188 105.638 77.0057 105.638Z" fill="#66509E"/>
<path d="M117.645 68.5247V59.7122V58.4729V53.4336C117.645 52.9178 117.295 52.5 116.864 52.5H95.5913H95.5507C94.9926 52.5 94.541 53.0383 94.541 53.7025V68.5247H117.645V68.5247Z" fill="white"/>
<path d="M117.648 69.0588C117.357 69.0588 117.118 68.8211 117.118 68.5281V53.437C117.118 53.2061 116.986 53.0339 116.867 53.0339H95.5536C95.2923 53.0339 95.0741 53.3419 95.0741 53.7059V68.5281C95.0741 68.8211 94.8357 69.0588 94.5439 69.0588C94.2496 69.0588 94.0137 68.8211 94.0137 68.5281V53.7059C94.0137 52.7502 94.7037 51.9727 95.5536 51.9727H116.867C117.59 51.9727 118.179 52.6295 118.179 53.437V68.5281C118.179 68.8211 117.943 69.0588 117.648 69.0588V69.0588Z" fill="#66509E"/>
<path d="M119.247 68.7175V69.5076C119.247 70.3088 118.595 70.963 117.796 70.963H94.8814C94.0823 70.963 93.4277 70.3088 93.4277 69.5076V68.7175C93.4277 67.9197 94.0823 67.2656 94.8814 67.2656H102.584V68.7363H110.096V67.2656H117.796C118.595 67.2656 119.247 67.9197 119.247 68.7175V68.7175Z" fill="#807DBB"/>
<path d="M94.8843 67.7995C94.3744 67.7995 93.9609 68.2128 93.9609 68.7207V69.5107C93.9609 70.0207 94.3744 70.4354 94.8843 70.4354H117.798C118.308 70.4354 118.719 70.0207 118.719 69.5107V68.7207C118.719 68.2128 118.308 67.7995 117.798 67.7995H110.629V68.7395C110.629 69.0325 110.393 69.2702 110.099 69.2702H102.587C102.295 69.2702 102.056 69.0325 102.056 68.7395V67.7995H94.8843V67.7995ZM117.798 71.4967H94.8843C93.7909 71.4967 92.9004 70.6059 92.9004 69.5107V68.7207C92.9004 67.6275 93.7909 66.7383 94.8843 66.7383H102.587C102.881 66.7383 103.117 66.976 103.117 67.2688V68.2087H109.568V67.2688C109.568 66.976 109.807 66.7383 110.099 66.7383H117.798C118.892 66.7383 119.782 67.6275 119.782 68.7207V69.5107C119.782 70.6059 118.892 71.4967 117.798 71.4967Z" fill="#66509E"/>
<path d="M113.338 65.3605H98.0302C97.7385 65.3605 97.5 65.123 97.5 64.83C97.5 64.5367 97.7385 64.2992 98.0302 64.2992H112.808L112.849 54.786C112.849 54.494 113.087 54.2578 113.379 54.2578H113.382C113.676 54.2588 113.912 54.4973 113.909 54.7903L113.869 64.8323C113.866 65.1243 113.63 65.3605 113.338 65.3605V65.3605Z" fill="#66509E"/>
<path d="M108.636 65.3653C108.344 65.3653 108.105 65.1279 108.105 64.8348V55.9602C108.105 55.6672 108.344 55.4297 108.636 55.4297C108.93 55.4297 109.166 55.6672 109.166 55.9602V64.8348C109.166 65.1279 108.93 65.3653 108.636 65.3653Z" fill="#66509E"/>
<path d="M104.388 65.3534C104.096 65.3534 103.857 65.116 103.857 64.8229V58.5383C103.857 58.2455 104.096 58.0078 104.388 58.0078C104.682 58.0078 104.918 58.2455 104.918 58.5383V64.8229C104.918 65.116 104.682 65.3534 104.388 65.3534Z" fill="#66509E"/>
<path d="M100.169 65.3889C99.8772 65.3889 99.6387 65.1514 99.6387 64.8584V61.7612C99.6387 61.4679 99.8772 61.2305 100.169 61.2305C100.463 61.2305 100.702 61.4679 100.702 61.7612V64.8584C100.702 65.1514 100.463 65.3889 100.169 65.3889Z" fill="#66509E"/>
<path d="M92.7861 83.9107C92.4918 83.9107 92.2559 83.6732 92.2559 83.3802V76.8784C92.2559 76.5851 92.4918 76.3477 92.7861 76.3477C93.0804 76.3477 93.3163 76.5851 93.3163 76.8784V83.3802C93.3163 83.6732 93.0804 83.9107 92.7861 83.9107Z" fill="#66509E"/>
<path d="M106.817 77.4546H77.9058C77.6115 77.4546 77.373 77.2172 77.373 76.9244V70.9604C77.373 70.6671 77.6115 70.4297 77.9058 70.4297C78.1976 70.4297 78.436 70.6671 78.436 70.9604V76.3937H106.285V70.9604C106.285 70.6671 106.523 70.4297 106.817 70.4297C107.109 70.4297 107.348 70.6671 107.348 70.9604V76.9244C107.348 77.2172 107.109 77.4546 106.817 77.4546Z" fill="#66509E"/>
<path d="M89.2275 68.5247V59.7122V58.4729V53.4336C89.2275 52.9178 88.8774 52.5 88.4435 52.5H67.1734H67.1302C66.5746 52.5 66.123 53.0383 66.123 53.7025V68.5247H89.2275V68.5247Z" fill="white"/>
<path d="M89.2329 69.0588C88.9412 69.0588 88.7027 68.8211 88.7027 68.5281V53.437C88.7027 53.2061 88.5682 53.0339 88.449 53.0339H67.1357C66.8769 53.0339 66.6587 53.3419 66.6587 53.7059V68.5281C66.6587 68.8211 66.4202 69.0588 66.1285 69.0588C65.8342 69.0588 65.5957 68.8211 65.5957 68.5281V53.7059C65.5957 52.7502 66.2883 51.9727 67.1357 51.9727H88.449C89.1746 51.9727 89.7631 52.6295 89.7631 53.437V68.5281C89.7631 68.8211 89.5272 69.0588 89.2329 69.0588V69.0588Z" fill="#66509E"/>
<path d="M90.8288 68.7175V69.5076C90.8288 70.3088 90.1742 70.963 89.3776 70.963H66.4609C65.6643 70.963 65.0098 70.3088 65.0098 69.5076V68.7175C65.0098 67.9197 65.6643 67.2656 66.4609 67.2656H74.1658V68.7363H81.6778V67.2656H89.3776C90.1742 67.2656 90.8288 67.9197 90.8288 68.7175V68.7175Z" fill="#807DBB"/>
<path d="M66.4345 67.7995C65.9271 67.7995 65.5136 68.2128 65.5136 68.7207V69.5107C65.5136 70.0207 65.9271 70.4354 66.4345 70.4354H89.3512C89.8586 70.4354 90.2721 70.0207 90.2721 69.5107V68.7207C90.2721 68.2128 89.8586 67.7995 89.3512 67.7995H82.1817V68.7395C82.1817 69.0325 81.9432 69.2702 81.6514 69.2702H74.1394C73.8451 69.2702 73.6092 69.0325 73.6092 68.7395V67.7995H66.4345V67.7995ZM89.3512 71.4967H66.4345C65.3411 71.4967 64.4531 70.6059 64.4531 69.5107V68.7207C64.4531 67.6275 65.3411 66.7383 66.4345 66.7383H74.1394C74.4337 66.7383 74.6696 66.976 74.6696 67.2688V68.2087H81.1212V67.2688C81.1212 66.976 81.3571 66.7383 81.6514 66.7383H89.3512C90.4447 66.7383 91.3326 67.6275 91.3326 68.7207V69.5107C91.3326 70.6059 90.4447 71.4967 89.3512 71.4967Z" fill="#66509E"/>
<path d="M84.8887 65.3605H69.583C69.2887 65.3605 69.0527 65.123 69.0527 64.83C69.0527 64.5367 69.2887 64.2992 69.583 64.2992H84.361L84.4016 54.786C84.4016 54.494 84.64 54.2578 84.9318 54.2578H84.9343C85.2261 54.2588 85.462 54.4973 85.462 54.7903L85.4189 64.8323C85.4189 65.1243 85.1804 65.3605 84.8887 65.3605V65.3605Z" fill="#66509E"/>
<path d="M80.2177 65.3653C79.9234 65.3653 79.6875 65.1279 79.6875 64.8348V55.9602C79.6875 55.6672 79.9234 55.4297 80.2177 55.4297C80.5095 55.4297 80.748 55.6672 80.748 55.9602V64.8348C80.748 65.1279 80.5095 65.3653 80.2177 65.3653Z" fill="#66509E"/>
<path d="M75.9404 65.3534C75.6461 65.3534 75.4102 65.116 75.4102 64.8229V58.5383C75.4102 58.2455 75.6461 58.0078 75.9404 58.0078C76.2321 58.0078 76.4706 58.2455 76.4706 58.5383V64.8229C76.4706 65.116 76.2321 65.3534 75.9404 65.3534Z" fill="#66509E"/>
<path d="M71.7216 65.3889C71.4299 65.3889 71.1914 65.1514 71.1914 64.8584V61.7612C71.1914 61.4679 71.4299 61.2305 71.7216 61.2305C72.0159 61.2305 72.2519 61.4679 72.2519 61.7612V64.8584C72.2519 65.1514 72.0159 65.3889 71.7216 65.3889Z" fill="#66509E"/>
</svg>
