<svg width="176" height="46" viewBox="0 0 176 46" fill="none" xmlns="http://www.w3.org/2000/svg">
<g clip-path="url(#clip0_1414_2317)">
<path d="M29.458 36.215L33.079 18.042L24.027 18.086L20.663 36.173L11.37 36.22L14.991 18.043C12.4685 18.0428 10.0239 18.9166 8.07305 20.5157C6.12223 22.1148 4.78574 24.3405 4.291 26.814C2.491 35.819 0.5 45.392 0.5 45.392L32.151 45.254C34.5529 45.2437 36.853 44.2823 38.5477 42.5802C40.2425 40.8781 41.194 38.5739 41.194 36.172L29.458 36.215Z" fill="#444444"/>
<path d="M50.238 0H14.065C10.4673 0 7.01703 1.42917 4.4731 3.9731C1.92917 6.51703 0.5 9.96734 0.5 13.565L0.5 22.608C0.5 19.0103 1.92917 15.56 4.4731 13.0161C7.01703 10.4722 10.4673 9.043 14.065 9.043H48.437C49.0001 9.0208 49.5606 9.13112 50.0733 9.36508C50.586 9.59904 51.0366 9.9501 51.3889 10.39C51.7412 10.8299 51.9852 11.3464 52.1014 11.8979C52.2177 12.4493 52.2028 13.0203 52.058 13.565C51.7785 14.8108 51.0953 15.9294 50.1147 16.7469C49.134 17.5645 47.9107 18.0352 46.635 18.086H42.113L40.313 27.13H44.835C52.326 27.13 59.61 21.056 61.102 13.565C62.594 6.074 57.729 0 50.238 0Z" fill="#FF8A45"/>
<path d="M83.76 15.252C83.8029 15.9955 83.6544 16.7376 83.3286 17.4073C83.0027 18.077 82.5105 18.6519 81.899 19.077C80.2708 20.0269 78.4057 20.4931 76.522 20.421H74.865V25.91H70.936V10.493H76.829C78.6369 10.3854 80.4361 10.8173 81.998 11.734C82.5721 12.1168 83.0365 12.6425 83.3455 13.2594C83.6545 13.8763 83.7974 14.5631 83.76 15.252ZM74.86 17.733H76.213C77.1535 17.8383 78.1017 17.6196 78.901 17.113C79.1934 16.924 79.4323 16.6631 79.595 16.3553C79.7577 16.0475 79.8386 15.7031 79.83 15.355C79.8434 15.0424 79.7851 14.7308 79.6596 14.4442C79.5341 14.1575 79.3448 13.9033 79.106 13.701C78.3903 13.2756 77.5558 13.0941 76.728 13.184H74.973V17.733H74.86Z" fill="#444444"/>
<path d="M93.3968 10.495H89.4678V25.797H93.3968V10.495Z" fill="#444444"/>
<path d="M111.468 25.798H97.7148V23.73L106.607 13.183H97.9218V10.498H111.26V12.564L102.368 23.11H111.468V25.798Z" fill="#444444"/>
<path d="M134.038 18.146C134.087 19.2324 133.909 20.3171 133.517 21.3315C133.125 22.3458 132.527 23.2678 131.76 24.039C129.822 25.3528 127.535 26.0551 125.194 26.0551C122.853 26.0551 120.566 25.3528 118.628 24.039C117.861 23.2678 117.263 22.3458 116.871 21.3315C116.479 20.3171 116.302 19.2324 116.35 18.146C116.302 17.0596 116.479 15.9749 116.871 14.9606C117.263 13.9462 117.861 13.0243 118.628 12.253C120.522 10.8037 122.867 10.0705 125.249 10.183C128.143 10.183 130.311 10.907 131.763 12.251C132.568 12.9939 133.192 13.9117 133.587 14.9338C133.981 15.9558 134.136 17.0548 134.038 18.146ZM120.493 18.146C120.39 19.5174 120.794 20.8789 121.63 21.971C122.088 22.431 122.638 22.7886 123.244 23.0203C123.85 23.252 124.498 23.3524 125.146 23.315C128.246 23.315 129.902 21.558 129.902 18.146C129.902 14.734 128.351 12.977 125.249 12.977C124.6 12.9305 123.949 13.0267 123.342 13.2589C122.735 13.4911 122.185 13.8536 121.733 14.321C121.276 14.84 120.93 15.4471 120.717 16.105C120.504 16.7629 120.427 17.4576 120.493 18.146Z" fill="#444444"/>
<path d="M157.68 25.798H152.618L144.553 14.218H144.453C144.599 15.6609 144.668 17.1107 144.66 18.561V25.798H141.141V10.498H146.104L154.169 21.973H154.269C154.169 20.009 154.062 18.561 154.062 17.733V10.498H157.578L157.68 25.798Z" fill="#444444"/>
<path d="M175.503 25.798H164.746V10.498H175.503V13.183H168.782V16.598H175.089V19.283H168.782V23.212H175.503V25.798Z" fill="#444444"/>
<path d="M73.314 32.791H70.936V43.957H73.314V32.791Z" fill="#FF8A45"/>
<path d="M88.5139 43.957H85.5139L80.6539 35.478H80.5539C80.6539 36.926 80.6539 38.064 80.6539 38.684V43.958H78.5859V32.791H81.5859L86.4459 41.165C86.3459 39.717 86.3459 38.684 86.3459 38.065V32.791H88.5179L88.5139 43.957Z" fill="#FF8A45"/>
<path d="M98.8878 43.957H96.5098V32.791H102.922V34.755H98.8898V37.655H102.715V39.618H98.8898V43.961L98.8878 43.957Z" fill="#FF8A45"/>
<path d="M119.35 38.375C119.447 39.9066 118.968 41.4191 118.006 42.615C116.918 43.565 115.522 44.0885 114.077 44.0885C112.632 44.0885 111.236 43.565 110.148 42.615C109.158 41.4346 108.676 39.91 108.808 38.375C108.711 36.8434 109.19 35.3309 110.152 34.135C111.248 33.2007 112.641 32.6875 114.081 32.6875C115.521 32.6875 116.914 33.2007 118.01 34.135C118.972 35.3309 119.451 36.8434 119.354 38.375H119.35ZM111.186 38.375C111.105 39.3608 111.36 40.345 111.91 41.167C112.168 41.4878 112.502 41.7402 112.88 41.902C113.259 42.0638 113.672 42.1301 114.082 42.095C115.943 42.095 116.874 40.8544 116.874 38.373C116.874 35.8917 115.942 34.6507 114.078 34.65C113.668 34.6146 113.255 34.6807 112.876 34.8426C112.497 35.0044 112.164 35.257 111.906 35.578C111.402 36.4228 111.152 37.3948 111.185 38.378L111.186 38.375Z" fill="#FF8A45"/>
<path d="M130.154 43.957H127.774V34.757H124.774V32.791H133.148V34.755H130.148L130.154 43.957Z" fill="#FF8A45"/>
<path d="M145.233 43.957H138.821V32.791H145.233V34.755H141.201V37.237H144.923V39.203H141.201V42.103H145.233V43.957Z" fill="#FF8A45"/>
<path d="M158.137 34.549C157.737 34.5574 157.344 34.6544 156.987 34.833C156.629 35.0117 156.316 35.2675 156.069 35.582C155.53 36.4094 155.275 37.3899 155.343 38.375C155.343 40.857 156.273 42.0977 158.135 42.097C159.132 42.0905 160.117 41.8794 161.03 41.477V43.441C160.054 43.8621 158.99 44.0395 157.93 43.958C157.24 44.0199 156.545 43.9214 155.899 43.6702C155.253 43.419 154.675 43.0219 154.208 42.51C153.289 41.2965 152.847 39.7886 152.964 38.271C152.959 37.2387 153.17 36.2169 153.584 35.271C153.976 34.4327 154.629 33.7438 155.445 33.307C156.287 32.8032 157.256 32.5519 158.237 32.583C159.358 32.5868 160.46 32.8711 161.443 33.41L160.719 35.374C160.325 35.1581 159.909 34.9848 159.478 34.857C158.963 34.757 158.55 34.651 158.136 34.547" fill="#FF8A45"/>
<path d="M174.99 43.957H172.612V39.203H168.166V44.063H165.785V32.791H168.163V37.134H172.609V32.791H174.987L174.99 43.957Z" fill="#FF8A45"/>
</g>
<defs>
<clipPath id="clip0_1414_2317">
<rect width="175" height="45.392" fill="white" transform="translate(0.5)"/>
</clipPath>
</defs>
</svg>
