<svg width="180" height="100" viewBox="0 0 180 100" fill="none" xmlns="http://www.w3.org/2000/svg">
<g clip-path="url(#clip0_1414_2071)">
<path d="M102.025 42.8968C104.668 42.8968 106.712 43.4903 108.155 44.6773C109.597 45.8652 110.333 47.6052 110.36 49.8991H106.678C106.651 47.1737 105.073 45.8111 101.944 45.8111C100.649 45.8111 99.6233 46.0739 98.8687 46.6C98.1131 47.1257 97.7358 47.8346 97.7358 48.7248C97.7358 49.3192 97.8767 49.8044 98.1607 50.1817C98.4442 50.5599 98.8145 50.8699 99.2733 51.1125C99.7312 51.3564 100.271 51.5515 100.892 51.6994C101.513 51.8491 102.173 51.99 102.873 52.1247C103.791 52.314 104.736 52.5236 105.707 52.7521C106.678 52.9815 107.548 53.3253 108.316 53.7841C109.086 54.2429 109.719 54.8637 110.218 55.6465C110.718 56.4293 110.967 57.4675 110.967 58.7628C110.967 59.7077 110.751 60.5636 110.319 61.3323C109.887 62.1019 109.294 62.7562 108.539 63.296C107.784 63.8362 106.886 64.254 105.848 64.5508C104.81 64.848 103.683 64.9955 102.47 64.9955C99.5568 64.9955 97.3167 64.3623 95.7532 63.0934C94.2409 61.8681 93.4497 60.1378 93.3735 57.906H97.1392C97.1872 59.2705 97.6522 60.3069 98.5455 61.0091C99.489 61.7515 100.825 62.1217 102.55 62.1217C103.98 62.1217 105.08 61.8589 105.849 61.3323C106.617 60.8062 107.002 60.0308 107.002 59.005C107.002 58.3578 106.853 57.8387 106.557 57.4468C106.26 57.0567 105.862 56.7327 105.362 56.476C104.863 56.2198 104.291 56.0168 103.643 55.8684C102.995 55.7205 102.321 55.5787 101.62 55.4435C100.697 55.2805 99.7801 55.0914 98.8687 54.8765C97.9511 54.6616 97.1216 54.3305 96.3798 53.8858C95.6383 53.4398 95.0307 52.8261 94.5596 52.0441C94.0868 51.2613 93.8508 50.2368 93.8508 48.9683C93.8508 48.0772 94.0467 47.2609 94.4377 46.519C94.8286 45.7772 95.3821 45.1365 96.0971 44.5968C96.8112 44.057 97.668 43.6383 98.6661 43.342C99.6647 43.0448 100.784 42.8968 102.025 42.8968ZM82.4004 42.8968C85.6637 42.8968 88.058 43.9632 89.5827 46.0933C91.1065 48.2256 91.8695 51.2344 91.8695 55.1199H76.2901C76.3434 56.1458 76.5323 57.0827 76.8568 57.9325C77.1804 58.7831 77.6185 59.5113 78.1715 60.1189C78.7057 60.7119 79.3521 61.1932 80.0735 61.5348C80.7876 61.8725 81.5766 62.0412 82.4404 62.0412C83.7895 62.0412 84.9421 61.7308 85.9002 61.1104C86.8569 60.4896 87.7009 59.3761 87.9294 57.906H91.8682C91.4046 60.4799 90.2695 62.1288 88.53 63.2753C86.7895 64.4218 84.7193 64.9959 82.3189 64.9959C79.1084 64.9959 76.6547 64.0176 74.9556 62.061C73.2557 60.1048 72.4055 57.4006 72.4055 53.9457C72.4055 52.3818 72.6345 50.9241 73.0933 49.575C73.552 48.2256 74.2191 47.0522 75.0965 46.0532C75.9681 45.0586 77.0447 44.2646 78.2525 43.7259C79.4795 43.1733 80.8625 42.8968 82.3999 42.8968H82.4004ZM52.9649 42.8968C54.5297 42.8968 55.939 43.1667 57.1938 43.7061C58.4477 44.2459 59.5132 45.008 60.3902 45.9929C61.2664 46.9778 61.9414 48.145 62.4129 49.494C62.8849 50.8435 63.1218 52.3268 63.1218 53.9457C63.1218 55.5651 62.8849 57.0559 62.4129 58.419C61.9405 59.7812 61.2668 60.9479 60.3898 61.9201C59.5136 62.8909 58.4407 63.6464 57.1731 64.1862C55.9051 64.7251 54.4887 64.9959 52.9253 64.9959C51.3878 64.9959 49.9978 64.7251 48.7571 64.1858C47.516 63.6464 46.4571 62.8905 45.5805 61.9201C44.7043 60.9479 44.0364 59.7812 43.5781 58.419C43.1193 57.0567 42.8899 55.5651 42.8899 53.9457C42.8899 52.3268 43.1259 50.8435 43.5988 49.4945C44.0699 48.145 44.7373 46.9778 45.6012 45.9929C46.4641 45.008 47.523 44.2459 48.7774 43.7061C50.0317 43.1667 51.4279 42.8968 52.9645 42.8968H52.9649ZM133.864 42.8968C135.833 42.8968 137.371 43.194 138.476 43.7871C139.583 44.381 140.405 45.1361 140.945 46.0532C141.484 46.9712 141.815 47.9896 141.936 49.1092C142.056 50.1913 142.117 51.279 142.119 52.3677V58.0742C142.119 59.2885 142.152 60.409 142.22 61.4336C142.282 62.4284 142.424 63.4166 142.645 64.3887H139.165C139.1 64.0196 139.046 63.6486 139.003 63.2762C138.949 62.8301 138.908 62.2569 138.881 61.5555C137.992 62.7434 136.966 63.5861 135.807 64.085C134.646 64.5842 133.311 64.8343 131.8 64.8343C129.48 64.8343 127.694 64.247 126.439 63.0732C125.185 61.8994 124.558 60.3817 124.558 58.5193C124.558 57.3865 124.781 56.4355 125.226 55.6663C125.665 54.9035 126.274 54.2523 127.006 53.7634C127.747 53.265 128.604 52.8732 129.575 52.5896C130.557 52.3045 131.557 52.0882 132.569 51.9424C133.594 51.7945 134.62 51.6796 135.645 51.599C136.669 51.518 137.613 51.4233 138.477 51.315V50.5864C138.477 49.0225 138.113 47.8143 137.385 46.9642C136.656 46.1144 135.483 45.6895 133.864 45.6895C132.408 45.6895 131.235 46.0471 130.344 46.7616C129.454 47.4771 129.009 48.536 129.009 49.9391H125.327C125.327 48.86 125.535 47.8887 125.953 47.0254C126.367 46.1671 126.969 45.4131 127.715 44.8195C128.469 44.212 129.367 43.74 130.405 43.4027C131.443 43.065 132.596 42.8964 133.864 42.8964V42.8968ZM118.845 38.4451V43.5035H123.377V46.5794H118.845V56.9819C118.845 57.7101 118.865 58.3644 118.906 58.9447C118.946 59.525 119.048 60.0101 119.209 60.4016C119.371 60.7934 119.621 61.0897 119.958 61.2927C120.295 61.4948 120.759 61.596 121.353 61.596C121.65 61.596 121.967 61.5899 122.304 61.5753C122.642 61.5621 123.026 61.5014 123.457 61.3931V64.3887C122.352 64.6313 121.327 64.7524 120.382 64.7524C119.573 64.7524 118.838 64.652 118.177 64.4491C117.516 64.247 116.963 63.9172 116.518 63.4584C116.073 62.9983 115.729 62.3789 115.487 61.596C115.243 60.8141 115.123 59.8556 115.123 58.7223V46.5794H111.278V43.5035H115.123V38.4447H118.845V38.4451ZM155.309 43.2609C156.091 43.2609 156.873 43.342 157.656 43.5031V46.7814C157.225 46.7058 156.794 46.6382 156.361 46.5789C155.972 46.5264 155.58 46.4995 155.188 46.4983C154.055 46.4983 153.13 46.6943 152.416 47.0852C151.71 47.4682 151.128 48.0439 150.736 48.7451C150.333 49.4597 150.049 50.3301 149.887 51.356C149.725 52.3818 149.645 53.5283 149.645 54.7959V64.3883H145.922V43.5035H149.442V46.5794C150.251 45.3113 151.141 44.4418 152.112 43.9694C153.084 43.4974 154.149 43.2605 155.308 43.2605V43.2609L155.309 43.2609ZM69.615 35.0043V64.3883H65.8929V35.0039H69.615V35.0043ZM30.9944 35.0043C32.2347 35.0043 33.53 35.0585 34.879 35.1659C36.2276 35.2738 37.5493 35.6511 38.8446 36.2992C40.139 37.0006 41.116 38.019 41.7782 39.3552C42.4386 40.6906 42.7693 42.195 42.7693 43.8681C42.7693 45.6486 42.4109 47.1658 41.6968 48.4206C40.9817 49.6754 40.0175 50.6682 38.8041 51.396C37.9676 51.8825 36.8757 52.2401 35.5262 52.4686C34.1772 52.6979 32.5851 52.8133 30.7522 52.8133H26.058V64.3883H22.0928V35.0039H30.9944V35.0043ZM138.476 54.1892C137.694 54.297 136.723 54.3851 135.563 54.452C134.43 54.5157 133.306 54.6852 132.204 54.9584C131.125 55.2278 130.208 55.6395 129.453 56.1929C128.698 56.7455 128.32 57.5485 128.32 58.6012C128.32 59.6262 128.705 60.4685 129.473 61.1302C130.243 61.792 131.3 62.1217 132.649 62.1217C133.404 62.1217 134.133 62.0284 134.835 61.8382C135.531 61.6529 136.17 61.2984 136.695 60.8062C137.235 60.3078 137.667 59.6196 137.991 58.7421C138.315 57.8655 138.476 56.7389 138.476 55.363V54.1892H138.476ZM52.9649 45.8916C52.02 45.8916 51.1646 46.081 50.3963 46.4578C49.6262 46.8365 48.9724 47.3758 48.4335 48.0772C47.8937 48.7786 47.4755 49.6226 47.1787 50.607C46.8815 51.592 46.734 52.6918 46.734 53.9061C46.734 55.1199 46.8754 56.2264 47.1589 57.2245C47.4416 58.223 47.8528 59.0798 48.393 59.7948C48.9319 60.5099 49.5862 61.0629 50.3553 61.4543C51.1245 61.8452 51.98 62.0412 52.9239 62.0412C53.8961 62.0412 54.7784 61.8452 55.5753 61.4543C56.361 61.0708 57.0466 60.5096 57.5777 59.8151C58.1166 59.1142 58.5349 58.271 58.8316 57.2844C59.1288 56.3012 59.2768 55.2005 59.2768 53.9862C59.2768 52.7719 59.128 51.6734 58.8316 50.6881C58.5345 49.7031 58.1105 48.853 57.5579 48.1379C57.0045 47.4229 56.3436 46.8699 55.5753 46.4785C54.8061 46.0876 53.9362 45.8916 52.9645 45.8916H52.9653H52.9649ZM82.2388 45.8916C80.6472 45.8916 79.3382 46.398 78.3128 47.4093C77.2878 48.421 76.6406 49.9796 76.3711 52.0842H87.903C87.6868 49.9796 87.0665 48.421 86.0415 47.4093C85.0165 46.398 83.7485 45.8916 82.2379 45.8916H82.2388ZM31.156 38.2409H26.058V49.5759H31.1569C32.1814 49.5759 33.1121 49.5284 33.9482 49.4341C34.7848 49.3395 35.4311 49.1845 35.8908 48.9688C36.8074 48.51 37.5022 47.8218 37.9737 46.9038C38.4466 45.9872 38.6826 44.9754 38.6826 43.8685C38.6826 42.7625 38.4466 41.7569 37.9737 40.853C37.5013 39.9496 36.8074 39.2676 35.8908 38.8093C35.4311 38.5662 34.7848 38.4117 33.9482 38.3443C33.1121 38.2765 32.1814 38.2422 31.1569 38.2422L31.156 38.2409Z" fill="#BFBFBF"/>
</g>
<defs>
<clipPath id="clip0_1414_2071">
<rect width="135.747" height="30" fill="white" transform="translate(22 35)"/>
</clipPath>
</defs>
</svg>
