<svg width="24" height="24" viewBox="0 0 24 24" fill="none" xmlns="http://www.w3.org/2000/svg">
<path d="M12.6523 12.0525L14.1651 11.648L12.6523 11.2437V12.0525Z" fill="#085AA4"/>
<path d="M12.0703 12.0525V11.2437L10.5576 11.648L12.0703 12.0525Z" fill="#085AA4"/>
<path d="M19.1221 13.4866H21.6181V14.4756H19.1221V13.4866Z" fill="#085AA4"/>
<path d="M18.5406 4H6.07812V14.4726H18.5379V4H18.5406ZM7.93984 12.483C8.05328 12.3695 8.23662 12.3695 8.35007 12.483C8.46351 12.5964 8.46351 12.7798 8.35007 12.8932L7.81771 13.4285C7.7624 13.4838 7.68968 13.5129 7.6112 13.5129C7.53271 13.5129 7.45986 13.4809 7.40468 13.4285L6.86938 12.8932C6.75594 12.7798 6.75594 12.5964 6.86938 12.483C6.98282 12.3695 7.16616 12.3695 7.27961 12.483L7.31738 12.5207V7.4588L7.27961 7.49657C7.22148 7.55469 7.14876 7.58094 7.07309 7.58094C6.99742 7.58094 6.9247 7.55188 6.86657 7.49657C6.75314 7.38313 6.75314 7.19978 6.86657 7.08634L7.40188 6.55104C7.45719 6.49572 7.52991 6.46666 7.60839 6.46666C7.68687 6.46666 7.75973 6.49867 7.81491 6.55104L8.34726 7.08634C8.4607 7.19978 8.4607 7.38312 8.34726 7.49657C8.23383 7.61001 8.05048 7.61 7.93703 7.49657L7.89927 7.4588V12.5207L7.93984 12.483ZM15.579 11.6743C15.579 11.8344 15.4482 11.9652 15.2881 11.9652C15.2765 11.9652 15.2678 11.9594 15.2591 11.9594L12.4372 12.7159C12.4139 12.7216 12.3878 12.7246 12.3615 12.7246C12.3354 12.7246 12.3121 12.7216 12.2859 12.7159L9.35927 11.9304C9.15851 11.8664 9.14404 11.6859 9.14404 11.6482V8.33172C9.14404 8.12815 9.35351 8.05248 9.35927 8.04953L12.2859 7.26405C12.3353 7.2524 12.3876 7.2524 12.4372 7.26405L15.3638 8.04953C15.3725 8.05248 15.5936 8.1165 15.579 8.33172L15.579 11.6743ZM16.2539 5.48677L15.7186 6.02207C15.6605 6.08019 15.5878 6.10644 15.5121 6.10644C15.4364 6.10644 15.3637 6.07738 15.3056 6.02207C15.1921 5.90863 15.1921 5.72528 15.3056 5.61184L15.3434 5.57407H9.37969L9.41746 5.61184C9.5309 5.72528 9.5309 5.90862 9.41746 6.02207C9.35934 6.08019 9.28662 6.10644 9.21095 6.10644C9.13528 6.10644 9.06256 6.07738 9.00443 6.02207L8.46913 5.48677C8.41382 5.43145 8.38475 5.35873 8.38475 5.28025C8.38475 5.20177 8.41676 5.12891 8.46913 5.07373L9.00443 4.54138C9.11787 4.42794 9.30122 4.42794 9.41466 4.54138C9.5281 4.65482 9.5281 4.83816 9.41466 4.95161L9.37689 4.98938H15.3433L15.3055 4.95161C15.1921 4.83817 15.1921 4.65482 15.3055 4.54138C15.419 4.42794 15.6023 4.42794 15.7158 4.54138L16.2511 5.07373C16.3064 5.12905 16.3354 5.20177 16.3354 5.28025C16.3352 5.35873 16.309 5.43146 16.2537 5.48677H16.2539Z" fill="#085AA4"/>
<path d="M21.6186 8.73584H19.1226V12.9016H21.6186V8.73584Z" fill="#085AA4"/>
<path d="M12.3617 7.84863L10.5581 8.33158L12.3297 8.80582C12.3414 8.80582 12.3501 8.80006 12.3588 8.80006C12.3675 8.80006 12.3791 8.80582 12.3878 8.80582L14.1595 8.33158L12.3617 7.84863Z" fill="#085AA4"/>
<path d="M9.72607 11.27L12.0708 10.6416V9.33835L9.72607 8.70996V11.27Z" fill="#085AA4"/>
<path d="M21.6186 4.92527C21.6186 4.4162 21.2055 4.00024 20.6935 4.00024H19.1198L19.1196 8.1543H21.6186L21.6186 4.92527Z" fill="#085AA4"/>
<path d="M12.6523 10.6416L14.997 11.27V8.70996L12.6523 9.33835V10.6416Z" fill="#085AA4"/>
<path d="M15.8 19.6538H8.6206C8.2831 19.6538 8.00977 19.9273 8.00977 20.2646V20.5148L16.4111 20.515V20.2648C16.4111 19.9273 16.1377 19.6538 15.8002 19.6538L15.8 19.6538Z" fill="#085AA4"/>
<path d="M3 15.0603V16.7562C3 17.2653 3.41304 17.6785 3.92222 17.6785H20.6962C21.2052 17.6785 21.6184 17.2654 21.6184 16.7562V15.0603H3ZM12.6641 16.6603H11.9572C11.7972 16.6603 11.6664 16.5295 11.6664 16.3695C11.6664 16.2094 11.7972 16.0786 11.9572 16.0786H12.6641C12.8242 16.0786 12.955 16.2094 12.955 16.3695C12.955 16.5294 12.8242 16.6603 12.6641 16.6603Z" fill="#085AA4"/>
<path d="M9.8335 18.2605H14.59V19.0721H9.8335V18.2605Z" fill="#085AA4"/>
<path d="M5.496 4H3.92503C3.41314 4 3 4.41599 3 4.92517V14.4758H5.49603L5.496 4Z" fill="#085AA4"/>
</svg>
