<svg width="120" height="120" viewBox="0 0 120 120" fill="none" xmlns="http://www.w3.org/2000/svg">
<g clip-path="url(#clip0_165_9229)">
<path d="M14.2348 58.1493C16.7168 34.1764 38.1609 16.7541 62.1324 19.2353C86.1056 21.7163 103.528 43.1607 101.048 67.1321C98.5656 91.1054 77.1216 108.527 53.1485 106.045C29.1768 103.565 11.7547 82.121 14.2352 58.1493H14.2348Z" fill="#EDEAF3"/>
<path d="M24.1179 16.0649C23.9334 16.0649 23.7522 15.9791 23.6366 15.8179C23.4459 15.5521 23.5068 15.1822 23.7722 14.9918C25.5432 13.7208 27.4052 12.5396 29.3076 11.4813C29.5933 11.3218 29.9535 11.425 30.1126 11.7107C30.2712 11.9964 30.1687 12.3565 29.883 12.5157C28.0203 13.5522 26.1969 14.7088 24.4626 15.9535C24.3581 16.0285 24.2375 16.0649 24.1179 16.0649V16.0649ZM14.5258 24.7674C14.3872 24.7674 14.248 24.7192 14.1356 24.6206C13.8898 24.4053 13.8653 24.0312 14.0806 23.7854C15.5141 22.1491 17.0599 20.5767 18.675 19.1118C18.9167 18.8919 19.2909 18.9099 19.5108 19.1524C19.7303 19.3945 19.7126 19.7687 19.4701 19.9882C17.8885 21.423 16.3748 22.9634 14.9711 24.5655C14.8538 24.699 14.69 24.7674 14.5258 24.7674V24.7674ZM7.16872 35.4243C7.07499 35.4243 6.97999 35.4017 6.89153 35.3549C6.60285 35.2012 6.49339 34.8427 6.64673 34.5541C7.66933 32.6318 8.81514 30.7477 10.0527 28.9552C10.2388 28.6858 10.6078 28.6186 10.8765 28.8041C11.1454 28.9895 11.2129 29.3585 11.0271 29.6275C9.81548 31.383 8.69326 33.2278 7.69197 35.1101C7.58581 35.31 7.38073 35.4243 7.16872 35.4243V35.4243ZM2.44555 47.483C2.39577 47.483 2.34497 47.4771 2.29417 47.4636C1.97829 47.3801 1.78956 47.0564 1.87284 46.7402C2.42951 44.6327 3.11396 42.5364 3.90788 40.5088C4.02749 40.2048 4.37019 40.0554 4.67522 40.1737C4.97963 40.2929 5.12967 40.6363 5.01045 40.941C4.23289 42.9257 3.56282 44.9787 3.01763 47.0423C2.94788 47.3077 2.70804 47.483 2.44555 47.483ZM0.592707 60.3028C0.586809 60.3028 0.580911 60.3028 0.57462 60.3028C0.247962 60.2933 -0.00925937 60.0203 0.000255698 59.6937C0.0415401 58.288 0.136612 56.8637 0.282091 55.4601C0.361042 54.695 0.456665 53.9223 0.566442 53.1635C0.613309 52.8398 0.91441 52.615 1.23682 52.6623C1.56057 52.709 1.785 53.0092 1.73813 53.3326C1.63071 54.0761 1.53698 54.8326 1.45968 55.582C1.31711 56.9571 1.2244 58.3516 1.18406 59.7287C1.17423 60.0492 0.911501 60.3028 0.592707 60.3028V60.3028ZM1.70503 73.2065C1.42948 73.2065 1.1828 73.0131 1.12547 72.733C0.688644 70.5993 0.37213 68.4165 0.185053 66.2458C0.157215 65.9201 0.398395 65.6333 0.72403 65.6052C1.04841 65.5763 1.33677 65.8182 1.36492 66.1442C1.54783 68.2696 1.85742 70.4063 2.28537 72.4954C2.35087 72.8159 2.14414 73.1288 1.82432 73.1943C1.78406 73.2025 1.74434 73.2065 1.70503 73.2065V73.2065Z" fill="#66509E"/>
<path d="M103.395 94.0632C103.28 94.0632 103.162 94.0294 103.059 93.958C102.79 93.7719 102.723 93.403 102.91 93.134C104.125 91.381 105.25 89.538 106.255 87.6569C106.409 87.3686 106.767 87.2598 107.056 87.4135C107.344 87.5674 107.453 87.9263 107.299 88.2146C106.273 90.1356 105.124 92.0177 103.883 93.8086C103.768 93.9744 103.583 94.0632 103.395 94.0632ZM94.8463 103.791C94.6845 103.791 94.5236 103.726 94.407 103.596C94.1877 103.354 94.2061 102.979 94.4492 102.76C96.0334 101.328 97.5498 99.7903 98.9561 98.1904C99.1724 97.9446 99.5462 97.921 99.7916 98.1366C100.037 98.3525 100.062 98.7267 99.8453 98.9721C98.4096 100.606 96.8608 102.176 95.2425 103.639C95.1297 103.74 94.9875 103.791 94.8463 103.791V103.791ZM84.3093 111.325C84.1013 111.325 83.8991 111.215 83.791 111.02C83.6327 110.734 83.7359 110.374 84.0219 110.215C85.8867 109.182 87.7127 108.028 89.4489 106.786C89.7146 106.596 90.0845 106.658 90.2746 106.924C90.4646 107.19 90.4033 107.56 90.1373 107.75C88.3643 109.018 86.5 110.196 84.5957 111.251C84.5049 111.301 84.4063 111.325 84.3093 111.325V111.325ZM40.3312 115.857C40.2733 115.857 40.2146 115.849 40.1563 115.831C38.0744 115.188 36.0082 114.416 34.0154 113.537C33.7162 113.405 33.5806 113.055 33.7127 112.756C33.8447 112.457 34.1943 112.322 34.4932 112.454C36.4443 113.315 38.4672 114.07 40.5059 114.7C40.8182 114.796 40.9931 115.127 40.8965 115.44C40.8182 115.694 40.5839 115.857 40.3312 115.857ZM72.3339 116.258C72.0753 116.258 71.8382 116.087 71.7644 115.826C71.6756 115.511 71.8585 115.184 72.173 115.096C74.2254 114.516 76.2657 113.81 78.2382 112.997C78.54 112.873 78.8866 113.017 79.0108 113.319C79.1354 113.622 78.9915 113.968 78.6891 114.092C76.675 114.922 74.5908 115.643 72.4951 116.235C72.4414 116.25 72.3873 116.258 72.3339 116.258V116.258ZM53.0649 118.231C53.0508 118.231 53.037 118.231 53.0229 118.23C52.3906 118.185 51.7533 118.13 51.1284 118.066C49.5878 117.906 48.0374 117.682 46.521 117.4C46.1998 117.34 45.9875 117.031 46.0475 116.71C46.1074 116.388 46.4165 116.176 46.7376 116.236C48.2229 116.512 49.7412 116.732 51.2507 116.888C51.8624 116.951 52.4866 117.006 53.1058 117.049C53.4318 117.072 53.6776 117.355 53.655 117.681C53.6327 117.993 53.3729 118.231 53.0649 118.231V118.231ZM59.5498 118.317C59.2349 118.317 58.9732 118.069 58.9591 117.751C58.9443 117.424 59.1976 117.148 59.5242 117.133C61.655 117.039 63.8024 116.819 65.9073 116.48C66.2306 116.428 66.5338 116.648 66.5862 116.97C66.638 117.293 66.4184 117.597 66.0957 117.649C63.9462 117.995 61.753 118.22 59.5767 118.316C59.5678 118.316 59.5587 118.317 59.5498 118.317V118.317Z" fill="#66509E"/>
<path d="M87.3405 14.3604C87.2314 14.3604 87.1206 14.3303 87.022 14.2671C85.2239 13.1157 83.3415 12.058 81.4261 11.1239C81.1324 10.9804 81.0106 10.6262 81.1538 10.3323C81.2973 10.0387 81.6518 9.9168 81.9454 10.06C83.9015 11.0141 85.8242 12.0944 87.6603 13.27C87.9359 13.4463 88.0162 13.8123 87.8399 14.0875C87.7269 14.2642 87.5358 14.3604 87.3405 14.3604ZM97.3762 22.5482C97.2219 22.5482 97.0682 22.4883 96.9519 22.369C95.4628 20.8395 93.8707 19.3808 92.2193 18.0331C91.966 17.8263 91.9284 17.4531 92.1351 17.2002C92.3418 16.9469 92.7147 16.9089 92.968 17.1157C94.6541 18.4918 96.2799 19.9814 97.8003 21.5433C98.0283 21.7772 98.0233 22.1521 97.7891 22.3801C97.674 22.4922 97.525 22.5482 97.3762 22.5482V22.5482ZM105.296 32.7959C105.096 32.7959 104.9 32.6943 104.789 32.5101C103.686 30.6862 102.465 28.9047 101.16 27.2162C100.96 26.9574 101.008 26.5856 101.266 26.386C101.525 26.1858 101.897 26.2337 102.097 26.4921C103.429 28.2163 104.676 30.035 105.802 31.8978C105.971 32.1777 105.881 32.5413 105.602 32.7107C105.506 32.7684 105.401 32.7959 105.296 32.7959V32.7959ZM110.684 44.5721C110.435 44.5721 110.203 44.4129 110.121 44.1629C109.463 42.1363 108.679 40.1249 107.79 38.1838C107.654 37.8863 107.785 37.535 108.082 37.3991C108.379 37.2625 108.73 37.3935 108.867 37.6911C109.774 39.6733 110.575 41.7277 111.247 43.7972C111.348 44.1082 111.178 44.442 110.867 44.5429C110.806 44.5626 110.745 44.5721 110.684 44.5721V44.5721Z" fill="#66509E"/>
<path d="M96.7639 84.1374H112.623C113.175 84.1374 113.623 83.6997 113.623 83.1597V60.1155L102.473 53.3803L91.8478 46.9621C91.526 46.7678 91.12 46.7678 90.7983 46.9621L80.1731 53.3803L69.0234 60.1155V83.1597C69.0234 83.6997 69.471 84.1374 70.0224 84.1374H96.7639Z" fill="white"/>
<path d="M75.8226 55.9455L91.3344 46.5755L106.846 55.9455L115.652 61.2649C116.038 61.4982 116.483 61.6218 116.937 61.6218C119.402 61.6218 120.319 58.4563 118.221 57.1892L108.447 51.2849L92.6192 41.7239C91.8315 41.2483 90.8373 41.2483 90.0497 41.7239L74.2224 51.2849L64.4475 57.1892C62.3491 58.4563 63.2669 61.6218 65.7322 61.6218C66.1857 61.6218 66.6306 61.4982 67.0166 61.2649L75.8226 55.9455V55.9455Z" fill="#807DBB"/>
<path d="M91.3135 45.9919C91.4194 45.9919 91.5256 46.0205 91.6196 46.0771L115.937 60.7669C116.231 60.9444 116.57 61.0382 116.916 61.0382C117.963 61.0382 118.535 60.3203 118.706 59.7059C118.88 59.0804 118.759 58.2266 117.894 57.7043L92.2923 42.239C91.6884 41.8747 90.9388 41.8747 90.3352 42.239L64.7326 57.7043C63.8689 58.2266 63.7464 59.0804 63.9214 59.7059C64.0924 60.3203 64.6635 61.0382 65.7113 61.0382C66.0573 61.0382 66.3955 60.9444 66.6897 60.7669L75.496 55.4471L75.8018 55.954L75.496 55.4471L91.0076 46.0771C91.1015 46.0205 91.2077 45.9919 91.3135 45.9919V45.9919ZM116.916 62.2223C116.354 62.2223 115.804 62.0693 115.325 61.7803L91.3135 47.2754L67.3017 61.7803C66.8231 62.0693 66.2729 62.2223 65.7113 62.2223C64.3028 62.2223 63.1527 61.3589 62.7804 60.0234C62.4152 58.7115 62.941 57.4035 64.1206 56.6909L89.7231 41.2256C90.7041 40.6331 91.9234 40.6331 92.9043 41.2256L118.507 56.6909C119.686 57.4035 120.212 58.7115 119.846 60.0234C119.474 61.3589 118.324 62.2223 116.916 62.2223Z" fill="#66509E"/>
<path d="M112.6 84.7368H96.7407C96.4134 84.7368 96.1483 84.4717 96.1483 84.1448C96.1483 83.8177 96.4134 83.553 96.7407 83.553H112.6C112.825 83.553 113.007 83.3797 113.007 83.1671V60.4566L91.5183 47.476C91.3858 47.3957 91.2139 47.3957 91.0812 47.476L69.5923 60.4566V83.1671C69.5923 83.3797 69.7748 83.553 69.9993 83.553H83.2833C83.6103 83.553 83.8757 83.8177 83.8757 84.1448C83.8757 84.4717 83.6103 84.7368 83.2833 84.7368H69.9993C69.1221 84.7368 68.4082 84.0327 68.4082 83.1671V60.1228C68.4082 59.9157 68.517 59.7234 68.6942 59.6162L90.4691 46.4625C90.9813 46.1533 91.6179 46.153 92.1303 46.4625L113.905 59.6162C114.083 59.7234 114.191 59.9157 114.191 60.1228V83.1671C114.191 84.0327 113.478 84.7368 112.6 84.7368Z" fill="#66509E"/>
<path d="M84.7234 84.7385H73.7464C73.4193 84.7385 73.1543 84.4734 73.1543 84.1464C73.1543 83.8194 73.4193 83.5547 73.7464 83.5547H84.7234C85.0507 83.5547 85.3155 83.8194 85.3155 84.1464C85.3155 84.4734 85.0507 84.7385 84.7234 84.7385Z" fill="#66509E"/>
<path d="M82.0782 75.6456H82.0802L82.0753 75.6364C81.9609 75.276 80.9124 73.4801 80.9124 73.4801L80.1474 72.2128C79.8915 71.7885 79.32 71.7885 79.0638 72.2128L78.2991 73.4801C78.2991 73.4801 77.2502 75.276 77.1365 75.6364L77.1316 75.6456H77.1333C76.9714 76.1636 76.9354 76.7449 77.0963 77.3546C77.3702 78.3933 78.186 79.1944 79.1657 79.3683C80.8037 79.6591 82.2195 78.2908 82.2195 76.5623C82.2195 76.241 82.1683 75.9336 82.0782 75.6456V75.6456Z" fill="#EE445B"/>
<path d="M104.56 68.149H77.3995C77.0289 68.149 76.7285 67.8486 76.7285 67.4776V61.433C76.7285 61.0621 77.0289 60.7617 77.3995 60.7617H104.56C104.931 60.7617 105.231 61.0621 105.231 61.433V67.4776C105.231 67.8486 104.931 68.149 104.56 68.149Z" fill="#807DBB"/>
<path d="M77.7055 75.8279C77.7055 75.8282 77.7055 75.8283 77.7055 75.8286C77.5633 76.282 77.5535 76.7467 77.6757 77.2097C77.8903 78.0242 78.5338 78.6598 79.276 78.7915C79.8333 78.8908 80.3834 78.741 80.8258 78.3705C81.3396 77.9397 81.6345 77.2827 81.6345 76.5684C81.6345 76.3213 81.5964 76.0746 81.522 75.8338C81.5204 75.8295 81.5191 75.8253 81.5178 75.821C81.4503 75.6215 80.8894 74.6084 80.4087 73.7849L79.6478 72.5245C79.6239 72.4848 79.602 72.4852 79.5777 72.5245L78.8126 73.7922C78.3363 74.6087 77.775 75.6218 77.7075 75.8224C77.7068 75.8243 77.7061 75.826 77.7055 75.8279V75.8279ZM79.6177 80.0062C79.4365 80.0062 79.253 79.9898 79.0695 79.957C77.8628 79.743 76.8661 78.783 76.5309 77.5117C76.3549 76.8453 76.3655 76.1759 76.5613 75.5209C76.5698 75.4842 76.5816 75.4478 76.597 75.4128C76.7619 74.9743 77.4827 73.7224 77.795 73.188L78.5643 71.9131C78.7927 71.5344 79.1846 71.3086 79.6128 71.3086C80.0407 71.3086 80.433 71.5344 80.6613 71.9128L81.4264 73.1805C81.7514 73.7368 82.5037 75.0438 82.641 75.4472C82.6442 75.4563 82.6472 75.4655 82.6498 75.475H82.6501C82.7619 75.8318 82.8186 76.1998 82.8186 76.5684C82.8186 77.6339 82.3693 78.6211 81.5859 79.2778C81.0158 79.7555 80.3317 80.0062 79.6177 80.0062V80.0062Z" fill="#66509E"/>
<path d="M79.4238 60.7617V63.3256C79.4238 64.3642 80.2921 65.2141 81.3533 65.2141C82.4143 65.2141 83.2822 64.3642 83.2822 63.3256V62.65C83.2822 61.6113 84.1505 60.7617 85.2115 60.7617C86.2725 60.7617 87.1407 61.6113 87.1407 62.65V63.3256C87.1407 64.3642 88.0087 65.2141 89.0699 65.2141C90.1309 65.2141 90.9989 64.3642 90.9989 63.3256V62.798V60.7617H79.4238V60.7617Z" fill="#EE445B"/>
<path d="M91.0341 98.5187C92.8795 98.5187 94.3759 97.0227 94.3759 95.1776V82.6216L94.3713 81.5957C94.3709 81.5193 94.3402 81.444 94.2812 81.3748L91.3808 77.9813C91.1872 77.7549 90.8369 77.7565 90.6452 77.9843L87.774 81.4014C87.7157 81.4712 87.6852 81.5465 87.6855 81.6229L87.6898 82.6491L87.6931 95.1782C87.6937 97.023 89.1895 98.5187 91.0341 98.5187V98.5187Z" fill="#EE445B"/>
<path d="M88.2837 81.7276L88.2877 82.6525L88.291 95.1843C88.2913 96.6997 89.5245 97.9327 91.04 97.9327C92.556 97.9327 93.7893 96.6993 93.7893 95.1836V82.6276L93.7857 81.7056L91.0209 78.4707L88.2837 81.7276V81.7276ZM91.04 99.1168C88.8719 99.1168 87.1078 97.3528 87.1071 95.1846L87.1039 82.6551L87.0996 81.6315C87.0986 81.4134 87.1769 81.2043 87.3266 81.0264L90.1979 77.6096C90.401 77.3678 90.6992 77.2279 91.0154 77.2266C91.3299 77.2337 91.6308 77.3622 91.8365 77.6027L94.7368 80.9962C94.8879 81.1732 94.9682 81.3815 94.9692 81.5988L94.9731 82.625L94.9735 95.1836C94.9735 97.3524 93.209 99.1168 91.04 99.1168V99.1168Z" fill="#66509E"/>
<path d="M77.4057 61.3597C77.3622 61.3597 77.3264 61.3954 77.3264 61.4392V67.4838C77.3264 67.5277 77.3622 67.5631 77.4057 67.5631H104.566C104.61 67.5631 104.645 67.5277 104.645 67.4838V61.4392C104.645 61.3954 104.61 61.3597 104.566 61.3597H77.4057V61.3597ZM104.566 68.7469H77.4057C76.7092 68.7469 76.1426 68.1804 76.1426 67.4838V61.4392C76.1426 60.7427 76.7092 60.1758 77.4057 60.1758H104.566C105.263 60.1758 105.829 60.7427 105.829 61.4392V67.4838C105.829 68.1804 105.263 68.7469 104.566 68.7469Z" fill="#66509E"/>
<path d="M91.0025 78.4376C90.6755 78.4376 90.4102 78.1725 90.4102 77.8459V75.3071C90.4102 73.7856 91.6182 72.5477 93.1028 72.5477H105.282C106.431 72.5477 107.367 71.5739 107.367 70.377V67.143C107.367 65.9894 106.465 65.0512 105.358 65.0512C105.031 65.0512 104.766 64.7859 104.766 64.4592C104.766 64.1322 105.031 63.8672 105.358 63.8672C107.118 63.8672 108.55 65.3367 108.55 67.143V70.377C108.55 72.2265 107.084 73.7315 105.282 73.7315H93.1028C92.2712 73.7315 91.5943 74.4382 91.5943 75.3071V77.8459C91.5943 78.1725 91.3292 78.4376 91.0025 78.4376Z" fill="#66509E"/>
<path d="M89.076 65.8121C87.6858 65.8121 86.5548 64.6998 86.5548 63.3318V62.6561C86.5548 61.9416 85.9548 61.3597 85.2176 61.3597C84.4801 61.3597 83.8805 61.9416 83.8805 62.6561V63.3318C83.8805 64.6998 82.7494 65.8121 81.3591 65.8121C79.9692 65.8121 78.8379 64.6998 78.8379 63.3318V60.7679C78.8379 60.4413 79.1032 60.1758 79.4299 60.1758C79.7569 60.1758 80.0223 60.4413 80.0223 60.7679V63.3318C80.0223 64.0471 80.6219 64.6283 81.3591 64.6283C82.0967 64.6283 82.6967 64.0471 82.6967 63.3318V62.6561C82.6967 61.2888 83.8274 60.1758 85.2176 60.1758C86.6078 60.1758 87.7389 61.2888 87.7389 62.6561V63.3318C87.7389 64.0471 88.3388 64.6283 89.076 64.6283C89.8136 64.6283 90.4133 64.0471 90.4133 63.3318V60.7679C90.4133 60.4413 90.6783 60.1758 91.0053 60.1758C91.332 60.1758 91.5974 60.4413 91.5974 60.7679V63.3318C91.5974 64.6998 90.4663 65.8121 89.076 65.8121Z" fill="#66509E"/>
<path d="M74.5825 1.99219H66.942H58.9066H35.1707C34.9633 1.99219 34.7948 2.16063 34.7948 2.36839V34.0499L31.515 37.3644C31.4872 37.3926 31.4872 37.4385 31.515 37.4667L34.7948 40.7812V50.4585C34.7948 50.6053 34.9128 50.7245 35.0582 50.7245H42.5258C42.6939 50.7245 42.8303 50.5869 42.8303 50.4168V48.9011L48.4636 54.5938C48.4914 54.622 48.5366 54.622 48.5649 54.5938L54.1455 48.9542C54.1733 48.926 54.1733 48.8805 54.1455 48.8523L50.8653 45.5375V26.3582H74.5825C74.8004 26.3582 74.977 26.1816 74.977 25.9637V2.3871C74.977 2.16881 74.8004 1.99219 74.5825 1.99219V1.99219Z" fill="#EE445B"/>
<path d="M48.434 54.5307L31.4857 37.4036C31.4579 37.3754 31.4579 37.3296 31.4857 37.3013L37.0664 31.6618C37.0942 31.6336 37.1397 31.6336 37.1676 31.6618L54.1158 48.7892C54.1437 48.8174 54.1437 48.8629 54.1158 48.8912L48.5352 54.5307C48.5074 54.5592 48.4622 54.5592 48.434 54.5307Z" fill="#EE445B"/>
<path d="M32.2731 37.3521L48.49 53.7396L53.339 48.8396L37.1221 32.452L32.2731 37.3521V37.3521ZM48.49 55.143C48.3118 55.143 48.1443 55.0735 48.0188 54.9467V54.9464L31.0703 37.8193C30.8151 37.5614 30.8151 37.142 31.0703 36.8845L36.6509 31.2449C36.9019 30.9913 37.3423 30.9913 37.5935 31.2449L54.5418 48.372C54.797 48.6299 54.797 49.0492 54.5418 49.3071L48.9612 54.9464C48.8357 55.0735 48.6686 55.143 48.49 55.143V55.143Z" fill="#66509E"/>
<path d="M50.8442 46.0854C50.5172 46.0854 50.2525 45.8206 50.2525 45.4936V26.9065H42.8092C42.4822 26.9065 42.2168 26.6414 42.2168 26.3147C42.2168 25.9874 42.4822 25.7227 42.8092 25.7227H50.8442C51.1709 25.7227 51.4363 25.9874 51.4363 26.3147V45.4936C51.4363 45.8206 51.1709 46.0854 50.8442 46.0854V46.0854Z" fill="#66509E"/>
<path d="M42.8166 37.972C42.4896 37.972 42.2242 37.7069 42.2242 37.38V26.9065H35.3733V34.0061C35.3733 34.3331 35.1082 34.5982 34.7815 34.5982C34.4541 34.5982 34.1895 34.3331 34.1895 34.0061V26.3147C34.1895 25.9874 34.4541 25.7227 34.7815 25.7227H42.8166C43.1432 25.7227 43.4086 25.9874 43.4086 26.3147V37.38C43.4086 37.7069 43.1432 37.972 42.8166 37.972Z" fill="#66509E"/>
<path d="M35.3733 9.46755H58.3011V2.53146H35.3733V9.46755V9.46755ZM58.8929 10.6514H34.7815C34.4541 10.6514 34.1895 10.3863 34.1895 10.0593V2.31521C34.1895 1.78181 34.6232 1.34766 35.157 1.34766H58.8929C59.2199 1.34766 59.485 1.61243 59.485 1.9394V10.0593C59.485 10.3863 59.2199 10.6514 58.8929 10.6514Z" fill="#66509E"/>
<path d="M48.4473 18.7963H34.7815C34.4541 18.7963 34.1895 18.5312 34.1895 18.2041V10.0842C34.1895 9.75727 34.4541 9.49219 34.7815 9.49219H58.8929C59.2199 9.49219 59.485 9.75727 59.485 10.0842C59.485 10.4113 59.2199 10.6763 58.8929 10.6763H35.3733V17.6124H48.4473C48.7743 17.6124 49.039 17.8772 49.039 18.2041C49.039 18.5312 48.7743 18.7963 48.4473 18.7963Z" fill="#66509E"/>
<path d="M56.4643 26.8819H34.7815C34.4541 26.8819 34.1895 26.6168 34.1895 26.2902V18.1699C34.1895 17.8429 34.4541 17.5781 34.7815 17.5781C35.1082 17.5781 35.3733 17.8429 35.3733 18.1699V25.6981H56.4643C56.7913 25.6981 57.0564 25.9629 57.0564 26.2902C57.0564 26.6168 56.7913 26.8819 56.4643 26.8819Z" fill="#66509E"/>
<path d="M74.5607 2.53146H74.5627H74.5607ZM74.5607 26.8974H67.8671C67.5401 26.8974 67.2753 26.6324 67.2753 26.3057C67.2753 25.9784 67.5401 25.7136 67.8671 25.7136H74.3635V2.53146H66.9202C66.5931 2.53146 66.3281 2.26637 66.3281 1.9394C66.3281 1.61243 66.5931 1.34766 66.9202 1.34766H74.5607C75.1046 1.34766 75.5473 1.78999 75.5473 2.33384V25.9109C75.5473 26.4551 75.1046 26.8974 74.5607 26.8974V26.8974Z" fill="#66509E"/>
<path d="M66.928 11.4407C66.6009 11.4407 66.3359 11.1756 66.3359 10.8487V2.53146H58.8925C58.5656 2.53146 58.3008 2.26637 58.3008 1.9394C58.3008 1.61243 58.5656 1.34766 58.8925 1.34766H66.928C67.2549 1.34766 67.5197 1.61243 67.5197 1.9394V10.8487C67.5197 11.1756 67.2549 11.4407 66.928 11.4407V11.4407Z" fill="#66509E"/>
<path d="M62.9473 20.1562L70.1357 42.2283C70.6469 43.7978 69.7347 45.4744 68.1396 45.8977C66.6242 46.3001 65.0662 45.4138 64.6366 43.9059C62.8569 37.6589 58.654 23.3784 58.0957 21.5979L62.9473 20.1562V20.1562Z" fill="white"/>
<path d="M58.0957 21.5979L62.9473 20.1562L63.9545 23.249L59.044 24.7575L58.0957 21.5979Z" fill="#807DBB"/>
<path d="M59.0388 25.3106C58.783 25.3106 58.5467 25.1431 58.4714 24.885C58.3793 24.5714 58.5588 24.2424 58.8728 24.1504C59.8138 23.8741 60.9595 23.5173 62.0677 23.1723C62.6745 22.9832 63.2607 22.801 63.7761 22.6431C64.089 22.5477 64.42 22.7237 64.515 23.0363C64.611 23.3489 64.4347 23.6798 64.1224 23.7755C63.6087 23.9328 63.0245 24.1143 62.4193 24.3031C61.3066 24.649 60.1568 25.0074 59.2059 25.2863C59.1503 25.3024 59.0939 25.3106 59.0388 25.3106V25.3106Z" fill="#66509E"/>
<path d="M67.419 46.5909C65.9076 46.5912 64.5055 45.5889 64.0737 44.0745C62.3315 37.9595 58.1103 23.6096 57.537 21.7813C57.4393 21.4693 57.6129 21.1372 57.9249 21.0392C58.2368 20.9412 58.5691 21.1149 58.6667 21.4271C59.2414 23.2593 63.4688 37.6293 65.2122 43.7502C65.5514 44.9396 66.7998 45.6492 67.9943 45.3321C68.6068 45.1696 69.111 44.7735 69.4141 44.2164C69.7168 43.6594 69.7758 43.0211 69.5792 42.4183L62.3905 20.3462C62.2889 20.0352 62.4593 19.701 62.7703 19.5998C63.0806 19.4979 63.4151 19.6686 63.5163 19.9796L70.705 42.0519C71.0032 42.9671 70.9137 43.9366 70.454 44.7823C69.994 45.6276 69.2283 46.2292 68.2981 46.4763C68.0052 46.5539 67.7099 46.5909 67.419 46.5909Z" fill="#66509E"/>
<path d="M65.3131 12.4555C65.0104 12.1226 64.5447 11.9916 64.113 12.1174L51.5536 15.7779C51.0199 15.9365 50.7145 16.5027 50.8711 17.042L52.3806 22.2291C52.5372 22.7687 53.0972 23.0774 53.6313 22.9189C55.3151 22.4194 64.5481 19.6334 68.4871 18.4447C69.3151 18.1947 69.5969 17.1675 69.0149 16.5276L65.3131 12.4555V12.4555Z" fill="#807DBB"/>
<path d="M64.4457 12.6676C64.3919 12.6676 64.3372 12.6751 64.2841 12.6905L51.7251 16.351C51.5059 16.4163 51.3795 16.6544 51.4453 16.8815L52.9545 22.0687C52.9866 22.1787 53.0587 22.2694 53.1576 22.3235C53.2536 22.3757 53.3641 22.3874 53.4686 22.3563C55.1485 21.8582 64.4159 19.0624 68.3221 17.8831C68.5171 17.8238 68.6603 17.6777 68.7146 17.4811C68.7693 17.2839 68.7212 17.083 68.5826 16.9307L64.8808 12.8586C64.7687 12.7354 64.6091 12.6676 64.4457 12.6676V12.6676ZM53.3506 23.5578C53.0879 23.5578 52.8277 23.492 52.5908 23.3629C52.213 23.1568 51.9388 22.8147 51.8176 22.3996L50.3087 17.2121C50.0613 16.3619 50.5469 15.4664 51.3909 15.2154L63.9531 11.5542C64.5973 11.3661 65.3054 11.5657 65.7566 12.062L69.4588 16.1342C69.87 16.5869 70.0184 17.2082 69.8556 17.797C69.693 18.3841 69.2478 18.8402 68.6642 19.0165C64.7569 20.1958 55.4879 22.9926 53.8051 23.4913C53.6553 23.5359 53.5027 23.5578 53.3506 23.5578V23.5578Z" fill="#66509E"/>
<path d="M16.3642 69.6784C16.3642 69.8386 16.494 69.969 16.6545 69.969H35.6774C35.8377 69.969 35.9681 69.8386 35.9681 69.6784V61.642C35.9681 61.4814 35.8377 61.3517 35.6774 61.3517H25.7866C25.996 61.3517 26.166 61.1816 26.166 60.9723V53.1138C26.166 52.9044 25.996 52.7344 25.7866 52.7344H6.94192C6.7322 52.7344 6.5625 52.9044 6.5625 53.1138V60.9723C6.5625 61.1816 6.7322 61.3517 6.94192 61.3517H6.5625V69.969H16.3642V69.6784V69.6784Z" fill="#807DBB"/>
<path d="M16.3279 96.0938H6.59852C6.57823 96.0938 6.5625 96.1101 6.5625 96.1301V104.675C6.5625 104.695 6.57823 104.711 6.59852 104.711H16.3279C16.3478 104.711 16.3642 104.695 16.3642 104.675V96.1301C16.3642 96.1101 16.3478 96.0938 16.3279 96.0938Z" fill="#807DBB"/>
<path d="M26.166 70.0195H6.5625V87.2542H22.1939V78.6368H38.2214L39.3256 70.0195H26.166V70.0195Z" fill="#807DBB"/>
<path d="M6.5625 95.9302H22.1939V87.2461L6.5625 87.3129V95.9302V95.9302Z" fill="#807DBB"/>
<path d="M7.13114 86.6639H15.749V79.2308H7.13114V86.6639ZM16.3411 87.848H6.5394C6.21235 87.848 5.94727 87.5829 5.94727 87.256V78.6386C5.94727 78.312 6.21235 78.0469 6.5394 78.0469H16.3411C16.6682 78.0469 16.9329 78.312 16.9329 78.6386V87.256C16.9329 87.5829 16.6682 87.848 16.3411 87.848Z" fill="#66509E"/>
<path d="M7.13114 69.3788H15.749V61.9455H7.13114V69.3788ZM16.3411 70.5629H6.5394C6.21235 70.5629 5.94727 70.2978 5.94727 69.9711V61.3538C5.94727 61.0268 6.21235 60.7617 6.5394 60.7617H16.3411C16.6682 60.7617 16.9329 61.0268 16.9329 61.3538V69.9711C16.9329 70.2978 16.6682 70.5629 16.3411 70.5629Z" fill="#66509E"/>
<path d="M7.13114 104.125H15.749V96.6919H7.13114V104.125ZM16.3048 105.309H6.57542C6.22879 105.309 5.94727 105.027 5.94727 104.681V96.1362C5.94727 95.7899 6.22879 95.5078 6.57542 95.5078H16.3048C16.6514 95.5078 16.9329 95.7899 16.9329 96.1362V104.681C16.9329 105.027 16.6514 105.309 16.3048 105.309Z" fill="#66509E"/>
<path d="M7.13115 78.0509H25.5508V70.6175H7.13115V78.0509V78.0509ZM26.1429 79.2347H6.5394C6.21235 79.2347 5.94727 78.9697 5.94727 78.6426V70.0253C5.94727 69.6987 6.21235 69.4336 6.5394 69.4336H26.1429C26.4699 69.4336 26.7349 69.6987 26.7349 70.0253V78.6426C26.7349 78.9697 26.4699 79.2347 26.1429 79.2347Z" fill="#66509E"/>
<path d="M16.9456 69.3788H35.3656V61.9455H16.9456V69.3788V69.3788ZM35.667 70.5629H16.6441C16.1576 70.5629 15.7617 70.1671 15.7617 69.6805V61.6441C15.7617 61.1576 16.1576 60.7617 16.6441 60.7617H35.667C36.1536 60.7617 36.5494 61.1576 36.5494 61.6441V69.6805C36.5494 70.1671 36.1536 70.5629 35.667 70.5629Z" fill="#66509E"/>
<path d="M7.13115 60.7657H25.5508V53.3326H7.13115V60.7657V60.7657ZM25.7635 61.9495H6.91883C6.38307 61.9495 5.94727 61.5138 5.94727 60.9784V53.1199C5.94727 52.5842 6.38307 52.1484 6.91883 52.1484H25.7635C26.2992 52.1484 26.7349 52.5842 26.7349 53.1199V60.9784C26.7349 61.5138 26.2992 61.9495 25.7635 61.9495Z" fill="#66509E"/>
<path d="M38.2236 79.2347H26.1682C25.8416 79.2347 25.5762 78.9697 25.5762 78.6426V70.0253C25.5762 69.6987 25.8416 69.4336 26.1682 69.4336H39.3278C39.6548 69.4336 39.9196 69.6987 39.9196 70.0253C39.9196 70.3523 39.6548 70.6175 39.3278 70.6175H26.7603V78.0509H38.2236C38.5503 78.0509 38.8153 78.3159 38.8153 78.6426C38.8153 78.9697 38.5503 79.2347 38.2236 79.2347V79.2347Z" fill="#66509E"/>
<path d="M22.1835 87.848H16.3538C16.0268 87.848 15.7617 87.5829 15.7617 87.256V78.6386C15.7617 78.312 16.0268 78.0469 16.3538 78.0469C16.6808 78.0469 16.9456 78.312 16.9456 78.6386V86.6639H22.1835C22.5104 86.6639 22.7752 86.9289 22.7752 87.256C22.7752 87.5829 22.5104 87.848 22.1835 87.848Z" fill="#66509E"/>
<path d="M22.1708 96.5202H6.5394C6.21235 96.5202 5.94727 96.2551 5.94727 95.9281V87.3108C5.94727 86.9838 6.21235 86.7188 6.5394 86.7188C6.86637 86.7188 7.13114 86.9838 7.13114 87.3108V95.336H22.1708C22.4977 95.336 22.7625 95.6011 22.7625 95.9281C22.7625 96.2551 22.4977 96.5202 22.1708 96.5202Z" fill="#66509E"/>
<path d="M49.5033 81.6211L28.296 81.6214C27.7157 81.6214 27.2766 82.2191 27.3779 82.8698L31.2763 107.884C31.3552 108.391 31.7422 108.76 32.1937 108.76H47.2953L49.5033 81.6211V81.6211Z" fill="#EE445B"/>
<path d="M42.4743 101.461H36.1843C35.4094 101.461 34.7754 100.82 34.7754 100.037C34.7754 99.2538 35.4094 98.6133 36.1843 98.6133H41.5303L42.4743 101.461Z" fill="#807DBB"/>
<path d="M34.7903 100.619C34.7877 100.619 34.7855 100.619 34.7828 100.619C28.9955 100.545 24.2871 95.7279 24.2871 89.882V87.9934C24.2871 86.1274 25.7917 84.6094 27.6416 84.6094C27.9686 84.6094 28.234 84.8748 28.234 85.2014C28.234 85.5284 27.9686 85.7935 27.6416 85.7935C26.4447 85.7935 25.4709 86.7804 25.4709 87.9934V89.882C25.4709 95.0835 29.6547 99.3689 34.7982 99.4351C35.1249 99.4393 35.3867 99.7077 35.3824 100.035C35.3778 100.359 35.1141 100.619 34.7903 100.619Z" fill="#66509E"/>
<path d="M39.4663 102.058H36.1905C35.0869 102.058 34.1895 101.154 34.1895 100.043C34.1895 98.9314 35.0869 98.0273 36.1905 98.0273H39.1475C39.4742 98.0273 39.7393 98.292 39.7393 98.6191C39.7393 98.9461 39.4742 99.2112 39.1475 99.2112H36.1905C35.7399 99.2112 35.3736 99.5843 35.3736 100.043C35.3736 100.501 35.7399 100.875 36.1905 100.875H39.4663C39.7933 100.875 40.0584 101.14 40.0584 101.467C40.0584 101.794 39.7933 102.058 39.4663 102.058V102.058Z" fill="#66509E"/>
<path d="M27.9869 86.7128C27.9869 87.6267 28.8176 88.5378 29.7216 88.5378C30.6259 88.5378 31.3657 87.7902 31.3657 86.876V86.282C31.3657 85.3681 32.1059 84.6204 33.0099 84.6204C33.9142 84.6204 34.6541 85.3681 34.6541 86.282V91.78C34.6541 92.6938 35.3939 93.4418 36.2985 93.4418C37.2025 93.4418 37.9424 92.6938 37.9424 91.78V91.1859V81.6211H28.3182C27.8159 81.6211 27.4263 82.0601 27.4866 82.5592L27.9869 86.7128V86.7128Z" fill="white"/>
<path d="M36.2959 94.0394C35.0627 94.0394 34.0594 93.0283 34.0594 91.7858V86.2878C34.0594 85.698 33.5876 85.218 33.0073 85.218C32.427 85.218 31.9549 85.698 31.9549 86.2878V86.8818C31.9549 88.1243 30.9519 89.1354 29.719 89.1354C28.501 89.1354 27.3926 87.9837 27.3926 86.7186C27.3926 86.3917 27.6573 86.1269 27.9843 86.1269C28.3114 86.1269 28.5765 86.3917 28.5765 86.7186C28.5765 87.3179 29.1636 87.9516 29.719 87.9516C30.2992 87.9516 30.7711 87.4716 30.7711 86.8818V86.2878C30.7711 85.0449 31.7743 84.0341 33.0073 84.0341C34.2403 84.0341 35.2435 85.0449 35.2435 86.2878V91.7858C35.2435 92.3756 35.7154 92.8556 36.2959 92.8556C36.8759 92.8556 37.3477 92.3756 37.3477 91.7858V81.6269C37.3477 81.2999 37.6128 81.0352 37.9398 81.0352C38.2668 81.0352 38.5319 81.2999 38.5319 81.6269V91.7858C38.5319 93.0283 37.5286 94.0394 36.2959 94.0394V94.0394Z" fill="#66509E"/>
<path d="M41.8833 109.358H32.1998C31.4538 109.358 30.8217 108.779 30.6975 107.98L26.7991 82.9666C26.7195 82.4542 26.8604 81.9421 27.1858 81.562C27.4725 81.2274 27.8791 81.0355 28.3021 81.0355L39.0203 81.0352C39.3473 81.0352 39.6124 81.2999 39.6124 81.6269C39.6124 81.9539 39.3473 82.219 39.0203 82.219L28.3021 82.2193C28.2025 82.2193 28.1291 82.2806 28.0848 82.3323C27.9862 82.4473 27.9426 82.6168 27.9688 82.7845L31.8673 107.798C31.9004 108.013 32.0436 108.174 32.1998 108.174H41.8833C42.21 108.174 42.4754 108.439 42.4754 108.766C42.4754 109.093 42.21 109.358 41.8833 109.358Z" fill="#66509E"/>
<path d="M40.049 82.219H37.2132C36.8862 82.219 36.6211 81.9539 36.6211 81.6269C36.6211 81.2999 36.8862 81.0352 37.2132 81.0352H40.049C40.376 81.0352 40.6411 81.2999 40.6411 81.6269C40.6411 81.9539 40.376 82.219 40.049 82.219V82.219Z" fill="#66509E"/>
<path d="M42.8908 109.348H40.055C39.7283 109.348 39.4629 109.083 39.4629 108.756C39.4629 108.429 39.7283 108.164 40.055 108.164H42.8908C43.2178 108.164 43.4829 108.429 43.4829 108.756C43.4829 109.083 43.2178 109.348 42.8908 109.348Z" fill="#66509E"/>
<path d="M52.1106 104.547C52.202 104.529 52.2915 104.507 52.3773 104.476L52.413 104.523L52.1106 104.547V104.547ZM62.1827 94.6335C62.1211 94.6332 62.0667 94.5916 62.0497 94.5316L61.6555 93.1287C60.7404 89.4153 57.4523 89.337 57.4523 89.337L44.1709 89.1214C42.9379 89.1014 41.913 90.0441 41.8937 91.2161C41.8743 92.3878 42.8675 93.3636 44.1008 93.3832L44.1083 93.393L42.0539 93.5405C41.1289 93.6067 40.4409 94.5419 40.5245 95.6188C40.608 96.6961 41.4333 97.5235 42.3583 97.4572L46.898 97.1319L46.9481 97.1994L46.1519 97.2614L43.087 97.4999C42.1607 97.5716 41.4707 98.529 41.5546 99.6273C41.6381 100.725 42.4645 101.565 43.3908 101.493L44.3538 101.418C43.5405 101.678 42.974 102.477 43.0421 103.371C43.1214 104.411 44.029 105.197 45.0585 105.117L46.1522 105.032C45.2548 105.21 44.6024 106.04 44.6738 106.983L44.681 107.075C44.758 108.09 45.6434 108.857 46.6486 108.778L53.0415 108.282C53.6781 108.232 54.2144 107.853 54.5034 107.325L54.5041 107.327L55.604 107.337C59.2859 107.549 61.3698 105.346 61.7961 104.842C61.8514 104.777 61.932 104.741 62.0172 104.743H66.4861V94.646L62.1827 94.6335V94.6335Z" fill="white"/>
<path d="M53.5373 103.289C53.7959 103.31 54.0609 103.293 54.3267 103.232C55.7579 102.909 56.6668 101.461 56.3466 100.015L55.5298 96.6557C55.5003 96.5895 54.9207 94.2926 54.9207 94.2926L49.9512 94.043L50.619 102.938L53.5373 103.289Z" fill="#EE445B"/>
<path d="M54.716 106.195C54.6387 105.18 53.7533 104.413 52.7487 104.491L52.1059 104.541C53.0282 104.361 53.6999 103.509 53.6258 102.541C53.5522 101.567 52.7504 100.825 51.8035 100.799C52.5878 100.58 53.1393 99.7127 53.0643 98.7255C52.9807 97.6274 52.1541 96.7877 51.2274 96.8598L46.1472 97.2549L43.0823 97.4935C42.156 97.5652 41.466 98.5226 41.5499 99.6209C41.6334 100.719 42.4598 101.559 43.3861 101.487L44.349 101.412C43.5358 101.671 42.9693 102.47 43.0374 103.364C43.1167 104.405 44.0243 105.191 45.0538 105.111L46.1475 105.026C45.2501 105.203 44.5977 106.033 44.6691 106.976L44.6763 107.068C44.7533 108.084 45.6387 108.851 46.6439 108.772L53.0368 108.275C54.0414 108.197 54.8002 107.302 54.7228 106.287L54.716 106.195V106.195Z" fill="white"/>
<path d="M50.4894 96.8501C51.414 96.7839 52.1021 95.8489 52.0189 94.7719C51.9353 93.6942 51.1099 92.8672 50.185 92.9334L45.1136 93.2968L42.0539 93.5159C41.1289 93.5822 40.4409 94.5173 40.5245 95.5942C40.608 96.6716 41.4333 97.4989 42.3583 97.4327L50.4894 96.8501V96.8501Z" fill="white"/>
<path d="M52.88 105.071C52.8486 105.071 52.8168 105.072 52.7849 105.075L46.3921 105.572C45.71 105.625 45.1975 106.231 45.2503 106.925L45.2574 107.017C45.283 107.354 45.4383 107.66 45.6955 107.881C45.9468 108.096 46.2644 108.201 46.5884 108.176L52.9815 107.679C53.6641 107.626 54.1762 107.018 54.1234 106.326L54.1166 106.233C54.0907 105.896 53.935 105.59 53.6782 105.369C53.4514 105.175 53.171 105.071 52.88 105.071V105.071ZM46.4917 109.364C45.9184 109.364 45.3685 109.16 44.9249 108.78C44.4278 108.353 44.1267 107.759 44.0766 107.107L44.0697 107.015C43.9675 105.672 44.9681 104.495 46.3004 104.391L52.6933 103.894C53.3325 103.844 53.957 104.049 54.4485 104.471C54.9459 104.897 55.2473 105.491 55.2968 106.143C55.2968 106.144 55.2968 106.144 55.2968 106.144L55.304 106.236C55.4062 107.578 54.4056 108.755 53.073 108.859L46.6804 109.356C46.6172 109.361 46.5543 109.364 46.4917 109.364V109.364Z" fill="#66509E"/>
<path d="M51.7655 101.379C51.7327 101.379 51.6996 101.381 51.6672 101.383L44.8231 101.915C44.1157 101.97 43.5846 102.6 43.6393 103.318C43.6658 103.667 43.8271 103.985 44.0935 104.214C44.3539 104.437 44.6833 104.545 45.0197 104.52L51.8631 103.987C52.5712 103.932 53.1023 103.303 53.0476 102.585C53.0207 102.235 52.8592 101.917 52.5931 101.689C52.3579 101.487 52.067 101.379 51.7655 101.379V101.379ZM44.9192 105.707C44.3353 105.707 43.7747 105.5 43.3231 105.112C42.8163 104.678 42.5096 104.073 42.4585 103.408C42.3546 102.04 43.3739 100.84 44.7314 100.735L51.5751 100.203C52.2274 100.152 52.8624 100.361 53.3634 100.79C53.87 101.224 54.1773 101.83 54.2278 102.495C54.3323 103.863 53.3123 105.062 51.9552 105.167L45.1111 105.7C45.0473 105.705 44.983 105.707 44.9192 105.707V105.707Z" fill="#66509E"/>
<path d="M48.8301 84.725L47.5506 85.0144L42.1457 86.2356C41.8662 86.2991 41.5975 85.9783 41.6342 85.6267L43.0074 72.5839L43.55 67.4321C43.8439 64.6398 47.4773 63.8188 48.9199 66.2185L51.5821 70.6461L58.4045 81.9918C58.5474 82.2296 58.4622 82.5481 58.2424 82.5979L53.245 83.7274L51.1473 84.2015L48.8301 84.725V84.725Z" fill="white"/>
<path d="M51.2799 97.4561L43.134 98.0892C42.5407 98.1354 42.0882 98.8188 42.1462 99.582C42.179 100.014 42.3661 100.406 42.6583 100.656C42.8048 100.781 43.0413 100.926 43.3467 100.902L51.4919 100.269C52.0859 100.223 52.5384 99.5394 52.4804 98.7762C52.4473 98.3444 52.2609 97.9526 51.9679 97.7019C51.8218 97.5768 51.5849 97.4336 51.2799 97.4561V97.4561ZM43.2828 102.088C42.7828 102.088 42.2926 101.902 41.888 101.555C41.3582 101.102 41.0223 100.415 40.9656 99.6714C40.8572 98.2458 41.7887 97.0066 43.0427 96.909L51.1878 96.2756C51.7422 96.2324 52.2917 96.4201 52.7386 96.8031C53.268 97.2566 53.6039 97.9434 53.6606 98.6865C53.769 100.112 52.8375 101.352 51.5836 101.449L43.4384 102.083C43.3867 102.087 43.3346 102.088 43.2828 102.088V102.088Z" fill="#66509E"/>
<path d="M49.9673 89.1369L47.7491 78.2473C47.6268 77.6942 47.9742 77.1408 48.5214 77.0169C49.0686 76.8934 49.6164 77.2447 49.739 77.7977L52.2101 89.2679L49.9673 89.1369Z" fill="#807DBB"/>
<path d="M66.4931 95.2436C66.4927 95.2436 66.4921 95.2436 66.4915 95.2436L62.1881 95.2311C61.8633 95.2294 61.5757 95.0103 61.4875 94.698L61.0927 93.2946C60.2975 90.0676 57.559 89.9388 57.443 89.9346L44.1687 89.7193C44.1592 89.7189 44.1491 89.7189 44.1396 89.7189C43.2428 89.7189 42.5068 90.392 42.4931 91.2314C42.4862 91.6348 42.6484 92.0191 42.9495 92.3153C43.2591 92.6188 43.6736 92.79 44.1176 92.7969C44.4446 92.8025 44.7054 93.0719 44.6998 93.3985C44.6949 93.7255 44.4243 93.9794 44.0986 93.9811C43.3496 93.969 42.6471 93.6774 42.1202 93.1597C41.5852 92.6344 41.2971 91.9427 41.3089 91.2121C41.3339 89.7108 42.6222 88.5135 44.1881 88.5355L57.4695 88.7511C58.7677 88.7822 61.4279 89.7082 62.2375 92.9926L62.5347 94.0482L66.495 94.0597C66.8221 94.0607 67.0858 94.3264 67.0852 94.6534C67.0845 94.9801 66.8194 95.2436 66.4931 95.2436V95.2436Z" fill="#66509E"/>
<path d="M62.0111 105.306C62.0144 105.306 62.017 105.306 62.0196 105.306H62.0111ZM56.0888 107.914C55.9217 107.914 55.752 107.909 55.5783 107.9L54.4924 107.889C54.1658 107.886 53.903 107.619 53.9063 107.292C53.9092 106.967 54.1736 106.705 54.4977 106.705C54.4997 106.705 54.5016 106.705 54.5036 106.705L55.6032 106.716C55.613 106.716 55.6225 106.716 55.632 106.717C59.052 106.911 60.9859 104.847 61.3381 104.431C61.5078 104.23 61.7568 104.115 62.0206 104.121H66.4796C66.8067 104.121 67.0718 104.387 67.0718 104.713C67.0718 105.04 66.8067 105.306 66.4796 105.306H62.1452C61.5711 105.942 59.5154 107.914 56.0888 107.914V107.914Z" fill="#66509E"/>
<path d="M50.2328 93.5301L42.1018 94.112C41.7928 94.1343 41.5782 94.3129 41.4524 94.4587C41.2093 94.7412 41.0884 95.1406 41.1202 95.5547C41.1781 96.2981 41.7273 96.8909 42.3216 96.8482L50.4527 96.266C50.7617 96.2438 50.9764 96.0652 51.1021 95.9194C51.3452 95.6369 51.4662 95.2375 51.4343 94.8233C51.3764 94.0799 50.8265 93.4865 50.2328 93.5301V93.5301ZM42.2601 98.0343C41.07 98.0343 40.0448 96.9947 39.9403 95.6464C39.8836 94.9204 40.1077 94.2057 40.5553 93.6864C40.9399 93.2391 41.4592 92.9711 42.0172 92.9312L50.1483 92.3489C51.4029 92.2598 52.5054 93.3286 52.6143 94.7316C52.671 95.458 52.4468 96.172 51.9993 96.6916C51.6146 97.1389 51.0953 97.4069 50.5369 97.4469L42.4062 98.0288C42.3574 98.0323 42.3082 98.0343 42.2601 98.0343V98.0343Z" fill="#66509E"/>
<path d="M59.1959 100.426C59.1484 100.426 59.1002 100.42 59.0524 100.408C55.5016 99.5223 54.6091 96.1695 54.3941 94.8569L51.8254 94.6987C51.499 94.6787 51.2506 94.3979 51.2707 94.0712C51.291 93.7449 51.573 93.4961 51.8981 93.5168L54.9564 93.7056C55.2572 93.7242 55.4961 93.9654 55.5112 94.2665C55.5203 94.4322 55.7766 98.371 59.3388 99.2593C59.656 99.3386 59.8489 99.6596 59.7697 99.9769C59.7028 100.246 59.4613 100.426 59.1959 100.426V100.426Z" fill="#66509E"/>
<path d="M57.9027 82.3032C57.9027 82.3032 57.9031 82.3035 57.9031 82.3038L57.9027 82.3032ZM42.0793 86.8425C41.8487 86.8425 41.6216 86.755 41.4362 86.5898C41.1587 86.3431 41.0112 85.9529 41.0515 85.5715L42.967 67.3769C43.1285 65.8419 44.1989 64.636 45.6933 64.3045C47.1767 63.9755 48.6452 64.6099 49.4332 65.9205L58.9172 81.693C59.095 81.9892 59.1226 82.3503 58.9905 82.6599C58.8752 82.93 58.6524 83.1204 58.3788 83.1819L51.2835 84.7855C50.9647 84.8575 50.6475 84.6574 50.5754 84.3389C50.5036 84.0197 50.7035 83.7026 51.0226 83.6305L57.7825 82.103L48.4185 66.5306C47.7858 65.4782 46.7284 65.2878 45.9499 65.4604C45.1625 65.6351 44.2746 66.2629 44.1446 67.5011L42.2369 85.6161L48.7051 84.1544C49.024 84.082 49.3411 84.2822 49.4133 84.601C49.4853 84.9201 49.2855 85.237 48.9663 85.3091L42.2818 86.8196C42.2147 86.8349 42.1469 86.8425 42.0793 86.8425V86.8425Z" fill="#66509E"/>
<path d="M52.1876 89.8075C51.9148 89.8075 51.6694 89.6178 51.6097 89.3406L49.1382 77.8701C49.1137 77.759 49.0455 77.6613 48.9465 77.5988C48.8508 77.5379 48.7385 77.5182 48.6303 77.5424C48.4026 77.5939 48.2539 77.834 48.3053 78.067L50.5258 88.9667C50.591 89.2869 50.384 89.5998 50.0638 89.665C49.7431 89.7295 49.4308 89.5234 49.3656 89.2034L47.1474 78.3131C46.9563 77.451 47.5039 76.5831 48.3695 76.3874C48.787 76.2928 49.2171 76.3685 49.5808 76.5991C49.9475 76.8317 50.2014 77.1934 50.2952 77.6175L52.767 89.0909C52.8361 89.4104 52.6327 89.7253 52.3132 89.7941C52.2709 89.8036 52.2289 89.8075 52.1876 89.8075Z" fill="#66509E"/>
<path d="M53.7419 103.919C53.6554 103.919 53.5695 103.916 53.4834 103.909C53.1574 103.882 52.9149 103.597 52.9414 103.271C52.9676 102.945 53.2547 102.704 53.579 102.728C53.7829 102.745 53.989 102.73 54.1904 102.685C55.3081 102.432 56.0139 101.305 55.7629 100.173L54.9487 96.8258C54.8714 96.5079 55.0663 96.1875 55.3838 96.1105C55.7019 96.0338 56.0217 96.2277 56.0987 96.5456L56.9162 99.905C57.31 101.684 56.2032 103.444 54.4513 103.84C54.2173 103.893 53.9801 103.919 53.7419 103.919V103.919Z" fill="#66509E"/>
<path d="M42.5122 51.2642H35.0442C34.5731 51.2642 34.1895 50.8796 34.1895 50.4064V40.7288C34.1895 40.4018 34.4541 40.1367 34.7815 40.1367C35.1082 40.1367 35.3733 40.4018 35.3733 40.7288V50.08H42.2242V48.8488C42.2242 48.5221 42.4896 48.2569 42.8166 48.2569C43.1432 48.2569 43.4086 48.5221 43.4086 48.8488V50.3648C43.4086 50.8608 43.0062 51.2642 42.5122 51.2642Z" fill="#66509E"/>
</g>
<defs>
<clipPath id="clip0_165_9229">
<rect width="120" height="120" fill="white"/>
</clipPath>
</defs>
</svg>
