<svg width="24" height="24" viewBox="0 0 24 24" fill="none" xmlns="http://www.w3.org/2000/svg">
<circle cx="12" cy="12" r="12" fill="#FF6760"/>
<path d="M8.24523 7.20499L11.935 10.8948L15.6096 7.22017C15.674 7.15163 15.7516 7.0968 15.8377 7.05896C15.9238 7.02113 16.0166 7.00107 16.1107 7C16.312 7 16.5051 7.07999 16.6475 7.22237C16.7899 7.36475 16.8699 7.55786 16.8699 7.75921C16.8716 7.85229 16.8544 7.94475 16.8191 8.03092C16.7839 8.11709 16.7314 8.19514 16.6649 8.26029L12.9523 11.9349L16.6649 15.6474C16.79 15.7698 16.8634 15.9356 16.8699 16.1105C16.8699 16.3119 16.7899 16.505 16.6475 16.6474C16.5051 16.7898 16.312 16.8698 16.1107 16.8698C16.0139 16.8738 15.9174 16.8576 15.8272 16.8223C15.737 16.787 15.6551 16.7334 15.5868 16.6648L11.935 12.975L8.25282 16.6572C8.18867 16.7234 8.11204 16.7763 8.02734 16.8128C7.94264 16.8493 7.85155 16.8687 7.75934 16.8698C7.55798 16.8698 7.36487 16.7898 7.22249 16.6474C7.08011 16.505 7.00012 16.3119 7.00012 16.1105C6.99835 16.0175 7.01562 15.925 7.05087 15.8388C7.08612 15.7527 7.13861 15.6746 7.20511 15.6095L10.9177 11.9349L7.20511 8.22233C7.07998 8.09991 7.00661 7.93414 7.00012 7.75921C7.00012 7.55786 7.08011 7.36475 7.22249 7.22237C7.36487 7.07999 7.55798 7 7.75934 7C7.94155 7.00228 8.11616 7.07592 8.24523 7.20499Z" fill="white"/>
</svg>
