<svg width="120" height="120" viewBox="0 0 120 120" fill="none" xmlns="http://www.w3.org/2000/svg">
<path d="M41.9165 112.813C41.8623 112.813 41.8079 112.805 41.7537 112.789C39.7533 112.193 37.7664 111.477 35.8521 110.658C35.5653 110.536 35.4307 110.203 35.5531 109.916C35.6775 109.627 36.0086 109.492 36.2977 109.617C38.172 110.417 40.1163 111.12 42.0768 111.704C42.3778 111.792 42.5484 112.107 42.4581 112.408C42.386 112.653 42.1613 112.813 41.9165 112.813V112.813ZM72.5686 113.016C72.3236 113.016 72.0949 112.854 72.0246 112.605C71.9385 112.304 72.1131 111.991 72.4141 111.904C74.3785 111.344 76.3312 110.664 78.2173 109.884C78.5064 109.763 78.8395 109.902 78.9579 110.191C79.0781 110.48 78.9399 110.811 78.6507 110.931C76.7243 111.728 74.7296 112.422 72.725 112.994C72.6728 113.01 72.6206 113.016 72.5686 113.016V113.016ZM54.1252 114.987C54.1129 114.987 54.1011 114.987 54.0888 114.987C53.3684 114.94 52.638 114.878 51.9198 114.804C50.5633 114.664 49.1965 114.473 47.8603 114.234C47.5533 114.18 47.3464 113.885 47.4006 113.578C47.4569 113.269 47.7497 113.064 48.0589 113.118C49.3691 113.351 50.7076 113.54 52.036 113.676C52.7404 113.751 53.4549 113.809 54.1611 113.855C54.4741 113.875 54.7109 114.144 54.6909 114.457C54.6708 114.758 54.422 114.987 54.1252 114.987V114.987ZM60.3357 115.035C60.0347 115.035 59.7838 114.8 59.77 114.497C59.7537 114.184 59.9947 113.917 60.3076 113.903C62.3484 113.801 64.4032 113.582 66.4181 113.249C66.727 113.199 67.0181 113.407 67.0703 113.716C67.1205 114.025 66.9116 114.316 66.6026 114.369C64.5457 114.708 62.4467 114.932 60.3638 115.035C60.3537 115.035 60.3437 115.035 60.3357 115.035V115.035Z" fill="#66509E"/>
<path d="M100.068 26.1857C99.9032 26.1857 99.7387 26.1134 99.6263 25.9748L99.5601 25.8915C98.29 24.3279 96.9233 22.8235 95.5005 21.4196C95.278 21.1997 95.2758 20.8409 95.4945 20.6181C95.7152 20.3952 96.0744 20.3926 96.2972 20.6125C97.748 22.0455 99.1429 23.581 100.439 25.1765L100.509 25.2628C100.706 25.5064 100.668 25.8632 100.425 26.0599C100.319 26.1445 100.194 26.1857 100.068 26.1857V26.1857ZM106.74 36.6393C106.531 36.6393 106.329 36.5225 106.23 36.3213C105.336 34.4904 104.324 32.6874 103.222 30.9622C103.054 30.6985 103.13 30.3482 103.395 30.1796C103.658 30.0112 104.009 30.0885 104.177 30.3522C105.303 32.1134 106.337 33.9544 107.25 35.8238C107.386 36.1049 107.27 36.4445 106.989 36.5817C106.909 36.6211 106.824 36.6393 106.74 36.6393V36.6393ZM110.868 48.3313C110.609 48.3313 110.376 48.1531 110.316 47.8904C109.862 45.8998 109.286 43.914 108.608 41.9884C108.504 41.6932 108.658 41.3695 108.954 41.2651C109.249 41.161 109.571 41.3157 109.676 41.6109C110.37 43.5776 110.958 45.6054 111.422 47.6384C111.492 47.9434 111.299 48.2472 110.994 48.317C110.952 48.3267 110.91 48.3313 110.868 48.3313Z" fill="#66509E"/>
<path d="M52.0635 6.21599C51.7763 6.21599 51.5295 5.99827 51.5014 5.70649C51.4693 5.39485 51.6961 5.11693 52.0071 5.08522C53.8434 4.8992 55.7114 4.80469 57.5578 4.80469C57.7964 4.80469 58.0372 4.80629 58.276 4.8097C58.589 4.81352 58.8399 5.07077 58.8361 5.38362C58.832 5.69405 58.577 5.94288 58.268 5.94288C58.266 5.94288 58.264 5.94288 58.2601 5.94288C58.0272 5.93987 57.7924 5.93827 57.5578 5.93827C55.7498 5.93827 53.9197 6.03077 52.1215 6.21298C52.1014 6.21499 52.0835 6.21599 52.0635 6.21599V6.21599ZM70.5732 7.49305C70.5288 7.49305 70.4847 7.48803 70.4385 7.477C68.4599 6.9976 66.4272 6.62496 64.3924 6.3687C64.0833 6.32977 63.8626 6.04623 63.9009 5.73579C63.9409 5.42516 64.224 5.20562 64.5349 5.24435C66.61 5.50562 68.6867 5.88609 70.7054 6.37552C71.0104 6.44917 71.1973 6.75539 71.123 7.0596C71.0606 7.31907 70.828 7.49305 70.5732 7.49305ZM39.9529 8.86542C39.7183 8.86542 39.4976 8.71753 39.4173 8.48215C39.3148 8.18596 39.4735 7.86368 39.7705 7.76235C41.7429 7.0871 43.7757 6.519 45.8126 6.07352C46.1177 6.00689 46.4207 6.20034 46.4867 6.50616C46.5529 6.81178 46.3603 7.11378 46.0532 7.18081C44.0608 7.61706 42.068 8.17372 40.1355 8.83472C40.0755 8.85559 40.0131 8.86542 39.9529 8.86542V8.86542ZM28.7558 14.1902C28.565 14.1902 28.3805 14.0955 28.274 13.9233C28.1076 13.6578 28.1877 13.308 28.4548 13.1425C30.2245 12.0384 32.0767 11.0246 33.9589 10.1294C34.2419 9.99479 34.5792 10.1152 34.7134 10.3977C34.8479 10.6805 34.7277 11.0184 34.4445 11.1528C32.6006 12.0298 30.7886 13.0229 29.0546 14.1041C28.9605 14.1623 28.8581 14.1902 28.7558 14.1902V14.1902ZM19.0412 21.9023C18.8967 21.9023 18.7504 21.8467 18.6399 21.7359C18.4191 21.5142 18.4191 21.1554 18.6419 20.9343C19.3362 20.2415 20.0588 19.5581 20.789 18.9025C21.612 18.1664 22.4648 17.4458 23.3275 16.7607C23.5723 16.5661 23.9295 16.607 24.1241 16.852C24.319 17.0971 24.2767 17.4537 24.0318 17.6481C23.1872 18.3193 22.3502 19.0255 21.5456 19.7465C20.8294 20.3886 20.1228 21.0583 19.4425 21.7367C19.3322 21.8471 19.1857 21.9023 19.0412 21.9023V21.9023ZM11.3155 31.598C11.2131 31.598 11.1088 31.5701 11.0144 31.5117C10.7498 31.3458 10.6693 30.9962 10.8359 30.7309C11.9395 28.9636 13.1598 27.2407 14.4601 25.6094C14.6546 25.3648 15.01 25.3243 15.2546 25.5195C15.4994 25.7146 15.5397 26.0712 15.3449 26.316C14.0726 27.9135 12.8789 29.6009 11.7951 31.3317C11.6887 31.5035 11.5043 31.598 11.3155 31.598ZM5.98388 42.7927C5.92348 42.7927 5.86147 42.7827 5.80107 42.762C5.50428 42.6605 5.34555 42.338 5.44789 42.042C6.12415 40.069 6.9208 38.1143 7.81799 36.2322C7.95224 35.9497 8.29157 35.8297 8.57431 35.9642C8.85525 36.0988 8.97565 36.4369 8.8414 36.7195C7.96448 38.5628 7.18167 40.4774 6.51946 42.4096C6.4392 42.6448 6.21846 42.7927 5.98388 42.7927ZM3.321 54.9049C3.30094 54.9049 3.28268 54.9037 3.26261 54.9017C2.94977 54.8696 2.72502 54.5908 2.75692 54.2796C2.97184 52.2029 3.30676 50.1185 3.75445 48.0842C3.82268 47.7785 4.12368 47.5853 4.4287 47.6523C4.73552 47.7195 4.92836 48.0219 4.86194 48.3276C4.42247 50.3202 4.09538 52.362 3.88468 54.3962C3.85478 54.6878 3.60776 54.9049 3.321 54.9049V54.9049Z" fill="#66509E"/>
<path d="M16.7449 55.7331C19.0809 33.1587 39.2742 16.7524 61.8495 19.0888C84.4247 21.425 100.829 41.6189 98.4934 64.1933C96.1576 86.7686 75.9643 103.173 53.3891 100.837C30.8138 98.5017 14.4091 78.3084 16.7449 55.7331V55.7331Z" fill="#EDEAF3"/>
<path d="M87.9006 39.8438V57.9734C87.9006 58.8945 87.1542 59.6401 86.2329 59.6401H66.4931L66.0938 49.6701V39.8438H87.9006V39.8438Z" fill="#EE445B"/>
<path d="M86.2126 60.2474H66.4728C66.1698 60.2474 65.919 60.0066 65.9071 59.7036L65.5078 49.7321C65.5078 49.7245 65.5078 49.7171 65.5078 49.7095V39.8831C65.5078 39.5703 65.7607 39.3164 66.0735 39.3164C66.3867 39.3164 66.6396 39.5703 66.6396 39.8831V49.698L67.0186 59.1136H86.2126C86.8186 59.1136 87.3123 58.6198 87.3123 58.0127V39.8831C87.3123 39.5703 87.5671 39.3164 87.8804 39.3164C88.1932 39.3164 88.4461 39.5703 88.4461 39.8831V58.0127C88.4461 59.244 87.4447 60.2474 86.2126 60.2474V60.2474Z" fill="#66509E"/>
<path d="M88.1563 41.0427H65.7474C65.1936 41.0427 64.7461 40.5946 64.7461 40.0422V34.7505C64.7461 34.1981 65.1936 33.75 65.7474 33.75H88.1563C88.7102 33.75 89.1575 34.1981 89.1575 34.7505V40.0422C89.1575 40.5946 88.7102 41.0427 88.1563 41.0427Z" fill="#EE445B"/>
<path d="M65.7858 34.2974C65.5452 34.2974 65.3503 34.4921 65.3503 34.7313V40.0229C65.3503 40.2621 65.5452 40.4568 65.7858 40.4568H88.1947C88.4333 40.4568 88.6279 40.2621 88.6279 40.0229V34.7313C88.6279 34.4921 88.4333 34.2974 88.1947 34.2974H65.7858ZM88.1947 41.5901H65.7858C64.9211 41.5901 64.2188 40.887 64.2188 40.0229V34.7313C64.2188 33.8672 64.9211 33.1641 65.7858 33.1641H88.1947C89.0593 33.1641 89.7617 33.8672 89.7617 34.7313V40.0229C89.7617 40.887 89.0593 41.5901 88.1947 41.5901Z" fill="#66509E"/>
<path d="M66.845 54.2405L70.2021 54.2016C71.6668 54.1847 73.1317 54.0697 74.5826 53.8576L79.0414 53.2058C80.0428 53.0596 80.729 52.1206 80.5667 51.1219L80.5647 51.1171C80.406 50.1468 79.4989 49.4832 78.5257 49.6255L72.618 50.4888L64.3685 49.5007C62.5685 49.2852 62.3377 46.7194 64.0838 46.2392C64.0976 46.2354 64.1118 46.2316 64.1237 46.2284L66.0782 45.7195V41.7188L60.907 43.0652C58.9083 43.5858 57.1366 44.722 55.8343 46.2966C55.4187 46.7975 55.0735 47.3521 54.7807 47.9327L54.7286 48.0384L54.7266 56.6921C55.7939 56.799 56.8434 57.0673 57.8369 57.4901L60.8548 58.7748C62.2916 59.3866 63.8407 59.6937 65.404 59.6756L68.6648 59.6375C70.1319 59.6214 71.5946 59.507 73.0454 59.2943L77.5045 58.6422C78.5078 58.4959 79.1939 57.5569 79.0296 56.5582V56.5536C78.9854 56.2843 78.8831 56.0389 78.7384 55.8276L66.845 54.2405V54.2405Z" fill="white"/>
<path d="M65.2517 60.2244C63.6503 60.2244 62.0911 59.9053 60.6142 59.2772L57.5982 57.9923C56.659 57.5924 55.6677 57.3383 54.6523 57.237C54.3616 57.2081 54.1406 56.9643 54.1406 56.6729L54.1426 48.0191C54.1426 47.9306 54.1647 47.8433 54.205 47.7642L54.2572 47.6585C54.5881 47.0021 54.9654 46.4159 55.3788 45.9161C56.7734 44.2309 58.6296 43.0491 60.7466 42.4977L65.9181 41.1512C66.0885 41.1068 66.267 41.1438 66.4075 41.2511C66.5462 41.3585 66.6264 41.524 66.6264 41.6994V45.7004C66.6264 45.9582 66.4537 46.1838 66.2028 46.2486L64.2164 46.7667C63.5961 46.9369 63.4097 47.4552 63.4418 47.8832C63.4737 48.3111 63.7487 48.8386 64.4171 48.9189L72.5923 49.8981L78.4256 49.0455C79.696 48.8595 80.9 49.7394 81.1065 51.0062C81.2109 51.6454 81.0604 52.2803 80.6811 52.799C80.3018 53.3177 79.7422 53.6545 79.1058 53.7476L74.6472 54.3993C73.1761 54.6145 71.6751 54.7321 70.1901 54.7493L66.8329 54.788C66.5159 54.7933 66.263 54.5408 66.259 54.228C66.255 53.9149 66.5058 53.6583 66.8189 53.6547L70.1781 53.6157C71.6131 53.5993 73.0617 53.4857 74.4824 53.2778L78.9415 52.626C79.2744 52.5773 79.5676 52.4011 79.7662 52.1298C79.9649 51.8583 80.0432 51.5262 79.9888 51.1945C79.8804 50.5288 79.2523 50.0701 78.5903 50.167L72.6824 51.0305C72.6323 51.0377 72.5821 51.0383 72.5319 51.0325L64.2824 50.0442C63.0162 49.8925 62.3801 48.8922 62.3121 47.9679C62.2296 46.8817 62.8757 45.9598 63.9154 45.6735L63.9636 45.6608L65.4947 45.2623V42.4329L61.0318 43.5947C59.1475 44.0856 57.494 45.1381 56.2537 46.6387C55.8965 47.0697 55.5674 47.5796 55.2764 48.1541L55.2744 56.1719C56.2256 56.3111 57.1547 56.572 58.0418 56.9495L61.0597 58.2345C62.4325 58.8193 63.8851 59.1066 65.3781 59.0898L68.641 59.0523C70.0757 59.0356 71.5246 58.9218 72.9455 58.7141L77.4064 58.0624C77.7375 58.0138 78.0303 57.8374 78.2289 57.5663C78.4276 57.2948 78.5078 56.9627 78.4517 56.6308C78.4216 56.4456 78.3553 56.2782 78.253 56.1287C78.0764 55.8705 78.1426 55.5179 78.3995 55.3409C78.6583 55.1641 79.0117 55.2301 79.1883 55.4882C79.3848 55.7757 79.5134 56.0968 79.5696 56.4426C79.6757 57.0817 79.5232 57.7166 79.1442 58.2353C78.7649 58.7543 78.2048 59.091 77.5687 59.1839L73.1099 59.8351C71.6392 60.0498 70.14 60.1682 68.6532 60.1862L65.3923 60.2224C65.3462 60.2244 65.298 60.2244 65.2517 60.2244Z" fill="#66509E"/>
<path d="M45.7617 44.8242H53.8246C54.4549 44.8242 54.9644 45.2721 54.9644 45.8248V58.5187C54.9644 59.0713 54.4549 59.5188 53.8246 59.5188H45.7617V44.8242V44.8242Z" fill="white"/>
<path d="M53.8065 60.0674H45.7437C45.4308 60.0674 45.1758 59.8126 45.1758 59.4996C45.1758 59.1865 45.4308 58.9333 45.7437 58.9333H53.8065C54.1176 58.9333 54.3805 58.7346 54.3805 58.4994V45.8055C54.3805 45.5705 54.1176 45.3717 53.8065 45.3717H45.7437C45.4308 45.3717 45.1758 45.118 45.1758 44.805C45.1758 44.4921 45.4308 44.2383 45.7437 44.2383H53.8065C54.7477 44.2383 55.5144 44.9414 55.5144 45.8055V58.4994C55.5144 59.3631 54.7477 60.0674 53.8065 60.0674Z" fill="#66509E"/>
<path d="M66.5625 57.0586L69.2715 57.0273C70.7362 57.0104 72.2013 56.8956 73.6519 56.6833L78.1108 56.0316C79.1121 55.8853 79.7984 54.9463 79.6359 53.9474L79.6339 53.9428C79.5857 53.6426 79.4633 53.3715 79.2927 53.1445C79.2927 53.1445 73.2747 54.171 70.1705 54.2067L67.0642 54.2428L66.5625 57.0586V57.0586Z" fill="white"/>
<path d="M66.6013 57.606C66.2921 57.606 66.0392 57.3566 66.0352 57.046C66.0312 56.7329 66.282 56.4765 66.5953 56.4726L69.3021 56.4415C70.7391 56.4249 72.1877 56.3109 73.6084 56.1034L78.0673 55.4516C78.4004 55.4029 78.6934 55.2267 78.8923 54.9552C79.0909 54.6841 79.1692 54.352 79.115 54.0201C79.0988 53.9247 79.0747 53.8342 79.0387 53.7486C77.6479 53.9769 72.9081 54.723 70.2151 54.7543L67.1088 54.79C67.1068 54.79 67.1048 54.79 67.103 54.79C66.7937 54.7902 66.5409 54.5408 66.5369 54.23C66.5329 53.9171 66.7837 53.6603 67.0969 53.6569L70.2031 53.6207C73.2272 53.5858 79.175 52.5769 79.2352 52.5666C79.4441 52.5313 79.6546 52.6142 79.781 52.7823C80.0138 53.0884 80.1705 53.451 80.2325 53.832C80.3369 54.4708 80.1864 55.1057 79.8071 55.6244C79.4258 56.1431 78.8682 56.4801 78.2319 56.5732L73.7732 57.2249C72.3021 57.4399 70.8031 57.5575 69.3161 57.5747L66.6071 57.606C66.6051 57.606 66.6031 57.606 66.6013 57.606V57.606Z" fill="#66509E"/>
<path d="M58.9873 26.3126V21.5069C58.9873 21.0522 58.6203 20.6836 58.1645 20.6836H53.5835L50.3906 20.689L58.9873 26.3126V26.3126Z" fill="#807DBB"/>
<path d="M58.969 26.86C58.6562 26.86 58.4033 26.6064 58.4033 26.2933V21.4877C58.4033 21.3462 58.2888 21.231 58.1463 21.231H53.5652L50.3724 21.2365C50.0593 21.2365 49.8065 20.9834 49.8047 20.6706C49.8047 20.3577 50.0573 20.1035 50.3704 20.1029L53.5652 20.0977H58.1463C58.9129 20.0977 59.5371 20.7211 59.5371 21.4877V26.2933C59.5371 26.6064 59.2823 26.86 58.969 26.86V26.86Z" fill="#66509E"/>
<path d="M42.4813 20.8008H33.4031C32.9476 20.8008 32.5781 21.1694 32.5781 21.6239V33.1497C32.5781 33.6043 32.9476 33.9729 33.4031 33.9729H58.0992C58.5547 33.9729 58.9239 33.6043 58.9239 33.1497V29.4538L42.4813 20.8008V20.8008Z" fill="#807DBB"/>
<path d="M58.0812 34.5205H33.383C32.6163 34.5205 31.9922 33.897 31.9922 33.1307V21.6049C31.9922 20.8385 32.6163 20.2148 33.383 20.2148H42.4613C42.7741 20.2148 43.027 20.4687 43.027 20.7817C43.027 21.0946 42.7741 21.3484 42.4613 21.3484H33.383C33.2403 21.3484 33.126 21.4634 33.126 21.6049V33.1307C33.126 33.272 33.2403 33.3871 33.383 33.3871H58.0812C58.2216 33.3871 58.3362 33.272 58.3362 33.1307V29.4348C58.3362 29.1217 58.5911 28.8681 58.9039 28.8681C59.2171 28.8681 59.47 29.1217 59.47 29.4348V33.1307C59.47 33.897 58.8457 34.5205 58.0812 34.5205V34.5205Z" fill="#66509E"/>
<path d="M37.5188 20.7966C37.5188 23.5245 35.3074 25.736 32.5781 25.736V29.029C35.3074 29.029 37.5188 31.2408 37.5188 33.9687H53.9835C53.9835 32.5526 54.7922 31.0178 55.7476 30.1172L57.7081 25.6038C55.6292 25.02 53.9835 22.9473 53.9835 20.6836L37.5188 20.7966V20.7966Z" fill="white"/>
<path d="M38.0363 33.3827H53.4317C53.6102 31.9512 54.4232 30.5886 55.2519 29.7689L56.9253 25.9169C55.0513 25.1264 53.6544 23.2594 53.4296 21.2348L38.0363 21.3402C37.7737 23.9266 35.7108 25.9891 33.126 26.2548V28.472C35.7108 28.7375 37.7717 30.7979 38.0363 33.3827V33.3827ZM53.9634 34.5161H37.4987C37.1855 34.5161 36.9327 34.2625 36.9327 33.9494C36.9327 31.5382 34.9701 29.5765 32.5581 29.5765C32.245 29.5765 31.9922 29.323 31.9922 29.0098V25.7168C31.9922 25.4037 32.245 25.1501 32.5581 25.1501C34.9701 25.1501 36.9327 23.1884 36.9327 20.7773C36.9327 20.4657 37.1835 20.2126 37.4947 20.2104L53.9594 20.0977C53.9614 20.0977 53.9634 20.0977 53.9634 20.0977C54.1139 20.0977 54.2564 20.1569 54.3628 20.2622C54.4711 20.3688 54.5313 20.5132 54.5313 20.6643C54.5313 22.6279 55.9543 24.5086 57.8406 25.0389C57.9969 25.0833 58.1293 25.1934 58.1995 25.3415C58.2698 25.4892 58.2718 25.6602 58.2076 25.8103L56.247 30.3237C56.2169 30.3942 56.1708 30.4576 56.1166 30.5104C55.1817 31.3905 54.5313 32.8048 54.5313 33.9494C54.5313 34.2625 54.2767 34.5161 53.9634 34.5161V34.5161Z" fill="#66509E"/>
<path d="M47.8044 26.3153V25.7078C47.8044 25.1012 47.3125 24.6094 46.7065 24.6094H44.75C44.144 24.6094 43.6523 25.1012 43.6523 25.7078V26.6106C43.6523 27.2175 44.144 27.7091 44.75 27.7091H46.7065C47.3125 27.7091 47.8044 28.2007 47.8044 28.8074V29.7102C47.8044 30.317 47.3125 30.8086 46.7065 30.8086H44.75C44.144 30.8086 43.6523 30.317 43.6523 29.7102V29.0831L47.8044 26.3153Z" fill="white"/>
<path d="M46.7449 31.3561H44.7883C43.8713 31.3561 43.125 30.6092 43.125 29.6909V29.0638C43.125 28.751 43.3778 28.4971 43.6907 28.4971C44.0039 28.4971 44.2568 28.751 44.2568 29.0638V29.6909C44.2568 29.9841 44.4954 30.2227 44.7883 30.2227H46.7449C47.038 30.2227 47.2766 29.9841 47.2766 29.6909V28.7881C47.2766 28.4949 47.038 28.2565 46.7449 28.2565H44.7883C43.8713 28.2565 43.125 27.5095 43.125 26.5914V25.6886C43.125 24.7705 43.8713 24.0234 44.7883 24.0234H46.7449C47.6621 24.0234 48.4104 24.7705 48.4104 25.6886V26.296C48.4104 26.6091 48.1556 26.8629 47.8427 26.8629C47.5295 26.8629 47.2766 26.6091 47.2766 26.296V25.6886C47.2766 25.3954 47.038 25.157 46.7449 25.157H44.7883C44.4954 25.157 44.2568 25.3954 44.2568 25.6886V26.5914C44.2568 26.8846 44.4954 27.1232 44.7883 27.1232H46.7449C47.6621 27.1232 48.4104 27.8701 48.4104 28.7881V29.6909C48.4104 30.6092 47.6621 31.3561 46.7449 31.3561Z" fill="#66509E"/>
<path d="M45.7437 32.8316C45.4308 32.8316 45.1758 32.578 45.1758 32.2649V30.8011C45.1758 30.488 45.4308 30.2344 45.7437 30.2344C46.0569 30.2344 46.3098 30.488 46.3098 30.8011V32.2649C46.3098 32.578 46.0569 32.8316 45.7437 32.8316Z" fill="#66509E"/>
<path d="M45.7437 25.1556C45.4308 25.1556 45.1758 24.9018 45.1758 24.5888V23.1255C45.1758 22.8124 45.4308 22.5586 45.7437 22.5586C46.0569 22.5586 46.3098 22.8124 46.3098 23.1255V24.5888C46.3098 24.9018 46.0569 25.1556 45.7437 25.1556Z" fill="#66509E"/>
<path d="M61.5702 22.16C61.5702 23.6104 60.5811 24.8745 59.1744 25.2238L55.4478 26.1483C54.3682 26.4162 53.71 27.5082 53.9791 28.5878C54.2458 29.6674 55.3376 30.3254 56.4172 30.0575L62.4815 28.5531C64.5684 28.0356 66.4246 26.8751 67.7992 25.2527C68.2364 24.7364 68.6019 24.1637 68.9147 23.5633L68.9709 23.4537H71.405V14.5189H69.5889C68.5316 14.5189 67.4879 14.2615 66.5528 13.7688L63.5611 12.1942C61.9254 11.3333 60.0471 11.0502 58.2311 11.3899L54.1798 12.1482C53.0478 12.3597 52.2552 13.4126 52.3998 14.5858L61.5702 22.16V22.16Z" fill="white"/>
<path d="M55.9135 30.6632C54.7556 30.6632 53.7001 29.877 53.4093 28.7037C53.2425 28.0349 53.3469 27.341 53.7021 26.7506C54.0573 26.1602 54.6232 25.7436 55.2916 25.5775L59.0178 24.6532C60.1757 24.3658 60.9846 23.3322 60.9846 22.1394C60.9846 21.8264 61.2374 21.5725 61.5502 21.5725C61.8635 21.5725 62.1163 21.8264 62.1163 22.1394C62.1163 23.8543 60.9543 25.3403 59.2907 25.7533L55.5645 26.6778C55.1892 26.7709 54.872 27.0044 54.6733 27.3355C54.4747 27.6668 54.4147 28.0555 54.5088 28.4308C54.6994 29.2054 55.4882 29.6792 56.2606 29.4869L62.3248 27.9825C64.2976 27.4931 66.0332 26.4155 67.3476 24.8659C67.7268 24.4164 68.078 23.8836 68.391 23.2816L68.4472 23.1721C68.5456 22.9844 68.7384 22.8664 68.9509 22.8664H70.8193V15.0652H69.569C68.4231 15.0652 67.2815 14.7831 66.268 14.2497L63.276 12.6751C61.7611 11.8774 59.9991 11.6113 58.3155 11.9264L54.2642 12.6845C53.4171 12.8428 52.8372 13.6387 52.9415 14.4963C52.9799 14.8072 52.7591 15.0897 52.4479 15.1277C52.1389 15.1658 51.8561 14.9448 51.8178 14.6342C51.6392 13.1844 52.6225 11.8385 54.0553 11.5706L58.1068 10.8123C60.0412 10.4507 62.0642 10.7559 63.8038 11.6719L66.7957 13.2466C67.6486 13.6949 68.6058 13.9317 69.569 13.9317H71.385C71.6983 13.9317 71.9509 14.1855 71.9509 14.4984V23.4331C71.9509 23.5834 71.8929 23.7275 71.7864 23.8339C71.68 23.94 71.5355 23.9998 71.385 23.9998H69.292C68.967 24.598 68.6038 25.1348 68.2106 25.5986C66.7436 27.3309 64.8031 28.5357 62.5977 29.0826L56.5335 30.587C56.3268 30.6386 56.1183 30.6632 55.9135 30.6632V30.6632Z" fill="#66509E"/>
<path d="M50.8008 16.8055C50.8008 15.7461 51.5553 14.8371 52.5966 14.6423L59.4536 13.3594L50.8008 16.8055V16.8055Z" fill="white"/>
<path d="M50.7809 17.3532C50.4677 17.3532 50.2148 17.0996 50.2148 16.7868C50.2148 15.4553 51.164 14.3113 52.4724 14.0663L59.3314 12.7832C59.6385 12.7256 59.9334 12.9285 59.9914 13.2361C60.0496 13.5437 59.847 13.8399 59.5381 13.8975L52.6811 15.1804C51.9087 15.3249 51.3486 16.0005 51.3486 16.7868C51.3486 17.0996 51.0938 17.3532 50.7809 17.3532V17.3532Z" fill="#66509E"/>
<path d="M58.7696 16.8164H52.9121C51.3872 16.8164 49.8619 16.9183 48.3511 17.1214L43.7034 17.7459C42.6601 17.8862 41.9337 18.8546 42.092 19.8957V19.9005C42.2465 20.9119 43.1838 21.6132 44.197 21.4771L50.3535 20.6498L58.9 20.6444L59.139 25.1845C59.139 25.1845 61.7595 24.5993 61.5348 22.1207L58.7696 16.8164V16.8164Z" fill="white"/>
<path d="M59.1784 25.7905C59.054 25.7905 58.9334 25.7506 58.8351 25.6752C58.7028 25.5742 58.6203 25.4201 58.6123 25.2537L58.4018 21.2508L50.431 21.2558L44.3106 22.078C43.0005 22.2545 41.7704 21.3333 41.5717 20.0251C41.4714 19.3653 41.6357 18.7125 42.0331 18.1824C42.4304 17.6524 43.0103 17.3117 43.6665 17.2236L48.3142 16.5991C49.8453 16.3932 51.4063 16.2891 52.9514 16.2891H58.809C59.122 16.2891 59.3771 16.5427 59.3771 16.8558C59.3771 17.1688 59.122 17.4224 58.809 17.4224H52.9514C51.4565 17.4224 49.9476 17.5234 48.4647 17.7224L43.817 18.3469C43.4658 18.3943 43.153 18.5773 42.9401 18.8622C42.7256 19.147 42.6391 19.4978 42.6912 19.8497C42.7998 20.5555 43.4578 21.0491 44.1601 20.9548L50.3167 20.1275C50.3428 20.124 50.3668 20.1222 50.3929 20.1222L58.9394 20.117C59.2404 20.117 59.4892 20.353 59.5055 20.654L59.7042 24.424C60.316 24.1133 61.1227 23.462 61.0105 22.211C60.9824 21.8994 61.2112 21.6238 61.522 21.5956C61.8353 21.5673 62.1102 21.797 62.1383 22.1087C62.3528 24.4615 60.3762 25.5371 59.3008 25.7769C59.2605 25.7861 59.2183 25.7905 59.1784 25.7905V25.7905Z" fill="#66509E"/>
<path d="M88.7746 26.5915H72.4903C71.8382 26.5915 71.3086 26.14 71.3086 25.583V12.7863C71.3086 12.229 71.8382 11.7773 72.4903 11.7773H88.7746V26.5915V26.5915Z" fill="white"/>
<path d="M88.8154 27.1392H72.5311C71.5659 27.1392 70.7812 26.4324 70.7812 25.5637V12.7671C70.7812 11.8982 71.5659 11.1914 72.5311 11.1914H88.8154C89.1286 11.1914 89.3835 11.4453 89.3835 11.7581C89.3835 12.0713 89.1286 12.3248 88.8154 12.3248H72.5311C72.1982 12.3248 71.915 12.5273 71.915 12.7671V25.5637C71.915 25.8031 72.1982 26.0056 72.5311 26.0056H88.8154C89.1286 26.0056 89.3835 26.2594 89.3835 26.5723C89.3835 26.8853 89.1286 27.1392 88.8154 27.1392V27.1392Z" fill="#66509E"/>
<path d="M95.7654 73.1386L93.6744 64.1647C93.2632 62.3968 94.1442 60.5406 95.8316 59.8323C96.2891 59.6396 96.7948 59.5312 97.3226 59.5312H115.628C116.155 59.5312 116.661 59.6396 117.119 59.8323C118.806 60.5406 119.685 62.3968 119.274 64.1647L117.185 73.1386C117.143 73.3232 117.107 73.5098 117.097 73.6985C116.99 75.4965 115.471 76.9353 113.629 76.9353H112.858L95.7654 73.1386V73.1386Z" fill="#807DBB"/>
<path d="M113.612 77.4811H112.841C112.528 77.4811 112.275 77.2283 112.275 76.9152C112.275 76.6002 112.528 76.3473 112.841 76.3473H113.612C115.149 76.3473 116.423 75.1614 116.514 73.6443C116.528 73.3935 116.576 73.1627 116.616 72.9901L118.705 64.0162C119.064 62.4771 118.297 60.9299 116.883 60.3339C116.479 60.1654 116.052 60.0791 115.61 60.0791H97.3055C96.864 60.0791 96.4366 60.1654 96.0334 60.3339C94.6185 60.9299 93.8522 62.4771 94.2112 64.0162L96.3001 72.9901C96.3704 73.2931 96.1819 73.5982 95.8769 73.6704C95.5717 73.7406 95.2667 73.552 95.1964 73.247L93.1055 64.2731C92.6221 62.1941 93.6696 60.0992 95.5938 59.2885C96.1376 59.0611 96.7135 58.9453 97.3055 58.9453H115.61C116.202 58.9453 116.779 59.0611 117.322 59.2885C119.247 60.0992 120.294 62.1941 119.811 64.2731L117.72 73.247C117.676 73.4396 117.651 73.5821 117.645 73.7125C117.521 75.8256 115.749 77.4811 113.612 77.4811V77.4811Z" fill="#66509E"/>
<path d="M112.356 71.0214H112.167C111.415 71.0214 110.801 70.4074 110.801 69.6549V65.5853C110.801 64.8328 111.415 64.2188 112.167 64.2188H112.356C113.106 64.2188 113.723 64.8328 113.723 65.5853V69.6549C113.723 70.4074 113.106 71.0214 112.356 71.0214V71.0214Z" fill="white"/>
<path d="M112.206 64.8232C111.764 64.8232 111.405 65.1824 111.405 65.6238V69.6934C111.405 70.1349 111.764 70.4941 112.206 70.4941H112.395C112.836 70.4941 113.193 70.1349 113.193 69.6934V65.6238C113.193 65.1824 112.836 64.8232 112.395 64.8232H112.206V64.8232ZM112.395 71.6259H112.206C111.14 71.6259 110.273 70.759 110.273 69.6934V65.6238C110.273 64.5583 111.14 63.6914 112.206 63.6914H112.395C113.46 63.6914 114.327 64.5583 114.327 65.6238V69.6934C114.327 70.759 113.46 71.6259 112.395 71.6259V71.6259Z" fill="#66509E"/>
<path d="M106.555 71.0214H106.365C105.614 71.0214 105 70.4074 105 69.6569V65.5853C105 64.8328 105.614 64.2188 106.365 64.2188H106.555C107.306 64.2188 107.92 64.8328 107.92 65.5853V69.6569C107.92 70.4074 107.306 71.0214 106.555 71.0214Z" fill="white"/>
<path d="M106.405 64.7666C105.965 64.7666 105.606 65.1238 105.606 65.5652V69.6368C105.606 70.0763 105.965 70.4355 106.405 70.4355H106.596C107.035 70.4355 107.394 70.0763 107.394 69.6368V65.5652C107.394 65.1238 107.035 64.7666 106.596 64.7666H106.405ZM106.596 71.5693H106.405C105.339 71.5693 104.473 70.7004 104.473 69.6368V65.5652C104.473 64.4997 105.339 63.6328 106.405 63.6328H106.596C107.661 63.6328 108.528 64.4997 108.528 65.5652V69.6368C108.528 70.7004 107.661 71.5693 106.596 71.5693Z" fill="#66509E"/>
<path d="M100.813 71.0214H100.625C99.8739 71.0214 99.2578 70.4074 99.2578 69.6569V65.5853C99.2578 64.8328 99.8739 64.2188 100.625 64.2188H100.813C101.566 64.2188 102.18 64.8328 102.18 65.5853V69.6569C102.18 70.4074 101.566 71.0214 100.813 71.0214Z" fill="white"/>
<path d="M100.604 64.7666C100.163 64.7666 99.8055 65.1238 99.8055 65.5652V69.6368C99.8055 70.0763 100.163 70.4355 100.604 70.4355H100.793C101.234 70.4355 101.593 70.0763 101.593 69.6368V65.5652C101.593 65.1238 101.234 64.7666 100.793 64.7666H100.604ZM100.793 71.5693H100.604C99.5386 71.5693 98.6719 70.7004 98.6719 69.6368V65.5652C98.6719 64.4997 99.5386 63.6328 100.604 63.6328H100.793C101.858 63.6328 102.727 64.4997 102.727 65.5652V69.6368C102.727 70.7004 101.858 71.5693 100.793 71.5693Z" fill="#66509E"/>
<path d="M112.671 59.8326C112.518 59.8326 112.366 59.7704 112.255 59.65L108.382 55.4469C107.871 54.8915 107.17 54.5805 106.41 54.571C106.398 54.571 106.386 54.5708 106.374 54.5708C105.627 54.5708 104.931 54.864 104.415 55.3988L100.291 59.66C100.073 59.8847 99.7155 59.8908 99.4887 59.672C99.264 59.4553 99.2582 59.0959 99.4767 58.871L103.601 54.6108C104.335 53.8522 105.364 53.4234 106.424 53.4379C107.499 53.4509 108.491 53.8918 109.215 54.6786L113.088 58.881C113.301 59.1112 113.285 59.4694 113.056 59.6821C112.946 59.7824 112.809 59.8326 112.671 59.8326V59.8326Z" fill="#66509E"/>
<path d="M83.7744 98.2748C84.1414 98.3651 84.5249 98.4153 84.92 98.4153H105.019C107.608 98.4153 109.741 96.3243 109.891 93.7136C109.907 93.4387 112.951 79.8594 112.951 79.8594C113.529 77.2909 112.293 74.5919 109.923 73.5605C109.279 73.2815 108.571 73.125 107.829 73.125H82.1106C81.3684 73.125 80.6598 73.2815 80.0159 73.5605C78.6933 74.1364 77.7262 75.228 77.2266 76.5283L83.7744 98.2748V98.2748Z" fill="white"/>
<path d="M110.438 93.7257C110.438 93.7277 110.438 93.7297 110.438 93.7317C110.438 93.7297 110.438 93.7277 110.438 93.7257ZM105 98.9611H84.901C84.4676 98.9611 84.0362 98.909 83.6188 98.8046C83.3137 98.7284 83.1293 98.4213 83.2056 98.1183C83.2798 97.8133 83.5887 97.6287 83.8917 97.7049C84.2208 97.7852 84.5601 97.8274 84.901 97.8274H105C107.282 97.8274 109.172 95.9973 109.306 93.6595C109.32 93.3946 110.986 85.9297 112.381 79.715C112.912 77.3511 111.777 74.9732 109.678 74.0621C109.086 73.8033 108.456 73.6728 107.81 73.6728H82.0917C81.4457 73.6728 80.8154 73.8033 80.2235 74.0621C79.0857 74.5558 78.2027 75.4969 77.7374 76.711C77.6248 77.0039 77.2977 77.1484 77.0049 77.0381C76.7117 76.9257 76.5673 76.5966 76.6776 76.3056C77.2536 74.8046 78.3532 73.6387 79.7701 73.0207C80.5084 72.7016 81.289 72.5391 82.0917 72.5391H107.81C108.612 72.5391 109.393 72.7016 110.131 73.0207C112.726 74.1504 114.136 77.0702 113.486 79.9618C112.305 85.2314 110.528 93.1979 110.436 93.7478C110.258 96.6735 107.874 98.9611 105 98.9611Z" fill="#66509E"/>
<path d="M101.102 107.479H93.3198C93.0068 107.479 92.7539 107.227 92.7539 106.914C92.7539 106.6 93.0068 106.348 93.3198 106.348H101.102C101.415 106.348 101.668 106.6 101.668 106.914C101.668 107.227 101.415 107.479 101.102 107.479Z" fill="#66509E"/>
<path d="M86.2985 107.526H84.7315C82.0466 107.526 79.8633 105.357 79.8633 102.69C79.8633 100.067 81.9944 97.8516 84.5166 97.8516H105.627C105.94 97.8516 106.195 98.1064 106.195 98.4195C106.195 98.7325 105.94 98.9853 105.627 98.9853H84.5166C82.6403 98.9853 80.9969 100.715 80.9969 102.69C80.9969 104.73 82.6726 106.394 84.7315 106.394H86.2985C86.6118 106.394 86.8664 106.647 86.8664 106.96C86.8664 107.273 86.6118 107.526 86.2985 107.526V107.526Z" fill="#66509E"/>
<path d="M93.3119 106.954C93.3119 108.875 91.7447 110.432 89.8103 110.432C87.876 110.432 86.3086 108.875 86.3086 106.954C86.3086 105.034 87.876 103.477 89.8103 103.477C91.7447 103.477 93.3119 105.034 93.3119 106.954Z" fill="white"/>
<path d="M89.79 104.024C88.1726 104.024 86.8562 105.329 86.8562 106.934C86.8562 108.539 88.1726 109.844 89.79 109.844C91.4074 109.844 92.7258 108.539 92.7258 106.934C92.7258 105.329 91.4074 104.024 89.79 104.024V104.024ZM89.79 110.978C87.5465 110.978 85.7227 109.164 85.7227 106.934C85.7227 104.705 87.5465 102.891 89.79 102.891C92.0335 102.891 93.8576 104.705 93.8576 106.934C93.8576 109.164 92.0335 110.978 89.79 110.978Z" fill="#66509E"/>
<path d="M108.077 106.954C108.077 108.875 106.51 110.432 104.576 110.432C102.641 110.432 101.074 108.875 101.074 106.954C101.074 105.034 102.641 103.477 104.576 103.477C106.51 103.477 108.077 105.034 108.077 106.954Z" fill="white"/>
<path d="M104.558 104.024C102.939 104.024 101.622 105.329 101.622 106.934C101.622 108.539 102.939 109.844 104.558 109.844C106.175 109.844 107.492 108.539 107.492 106.934C107.492 105.329 106.175 104.024 104.558 104.024V104.024ZM104.558 110.978C102.314 110.978 100.488 109.164 100.488 106.934C100.488 104.705 102.314 102.891 104.558 102.891C106.802 102.891 108.625 104.705 108.625 106.934C108.625 109.164 106.802 110.978 104.558 110.978Z" fill="#66509E"/>
<path d="M105.705 92.9502H91.5618C91.2489 92.9502 90.9961 92.6973 90.9961 92.3843C90.9961 92.0713 91.2489 91.8164 91.5618 91.8164H105.705C106.018 91.8164 106.271 92.0713 106.271 92.3843C106.271 92.6973 106.018 92.9502 105.705 92.9502Z" fill="#66509E"/>
<path d="M105.694 85.9775H91.3864C91.0732 85.9775 90.8203 85.7227 90.8203 85.4096C90.8203 85.0966 91.0732 84.8438 91.3864 84.8438H105.694C106.007 84.8438 106.26 85.0966 106.26 85.4096C106.26 85.7227 106.007 85.9775 105.694 85.9775Z" fill="#66509E"/>
<path d="M105.73 78.9463H84.5911C84.2783 78.9463 84.0234 78.6934 84.0234 78.3804C84.0234 78.0674 84.2783 77.8125 84.5911 77.8125H105.73C106.043 77.8125 106.295 78.0674 106.295 78.3804C106.295 78.6934 106.043 78.9463 105.73 78.9463Z" fill="#66509E"/>
<path d="M76.4442 76.858C76.1751 76.858 75.9363 76.6654 75.8861 76.3924C75.5894 74.763 75.2741 73.0373 75.0032 71.5543C74.8005 70.4386 75.1015 69.2988 75.83 68.4259C76.5706 67.5389 77.6601 67.0312 78.8199 67.0312H84.2221C84.535 67.0312 84.7898 67.2841 84.7898 67.5971C84.7898 67.9102 84.535 68.165 84.2221 68.165H78.8199C77.9974 68.165 77.2248 68.5242 76.7009 69.1503C76.1872 69.7664 75.9765 70.567 76.1191 71.3516C76.39 72.8326 76.7029 74.5603 77.0019 76.1898C77.0581 76.4968 76.8534 76.7918 76.5466 76.848C76.5122 76.854 76.4761 76.858 76.4442 76.858V76.858Z" fill="#66509E"/>
<path d="M79.7005 98.875L77.4249 97.669C76.4757 97.1653 75.3379 97.1573 74.3828 97.6449L72.0873 98.8168C69.6793 100.045 66.8918 98.0102 67.3716 95.3714L67.8271 92.855C68.0175 91.8075 67.6746 90.7339 66.9098 89.9854L65.0737 88.1874C63.1493 86.3011 64.245 83.0503 66.9299 82.6851L69.4884 82.3379C70.554 82.1914 71.4791 81.5372 71.9629 80.5861L73.1246 78.3045C74.3406 75.9085 77.8064 75.9366 78.9863 78.3486L80.1099 80.6503C80.5794 81.6075 81.4947 82.2757 82.558 82.4383L85.1107 82.8235C87.7896 83.2309 88.8329 86.4978 86.8784 88.354L85.0162 90.1239C84.2396 90.8623 83.8806 91.9299 84.0532 92.9794L84.4704 95.5018C84.908 98.1486 82.0884 100.141 79.7005 98.875V98.875Z" fill="#EE445B"/>
<path d="M75.9181 96.6988C76.5422 96.6988 77.164 96.8493 77.7279 97.1483L80.0057 98.3563C80.9406 98.8519 82.0144 98.7797 82.8731 98.1616C83.7141 97.5556 84.1174 96.5904 83.9487 95.575L83.5313 93.0526C83.3286 91.8165 83.75 90.5603 84.663 89.6934L86.5275 87.9255C87.28 87.2111 87.5446 86.1958 87.2356 85.2125C86.9206 84.2152 86.1099 83.5248 85.0644 83.3663L82.5121 82.979C81.2637 82.7884 80.1901 82.0038 79.6403 80.88L78.5146 78.5784C78.057 77.6432 77.156 77.0794 76.1025 77.0713C76.0947 77.0713 76.0887 77.0713 76.0804 77.0713C75.0372 77.0713 74.1362 77.6192 73.6664 78.5422L72.5067 80.8238C71.9386 81.9416 70.8532 82.7101 69.6028 82.8787L67.0443 83.2279C65.9948 83.3703 65.1741 84.0486 64.845 85.0399C64.5199 86.0192 64.7687 87.0366 65.5094 87.763L67.3453 89.561C68.2445 90.4419 68.6477 91.7041 68.4229 92.9382L67.9676 95.4526C67.7828 96.464 68.1701 97.4372 69.0008 98.0533C69.8517 98.6854 70.9234 98.7757 71.8664 98.2921L74.1622 97.1202C74.7141 96.8392 75.3161 96.6988 75.9181 96.6988V96.6988ZM81.286 99.8111C80.6677 99.8111 80.0477 99.6606 79.4737 99.3576L77.1964 98.1496C76.4115 97.7342 75.4704 97.7262 74.6778 98.1295L72.3823 99.3014C71.0657 99.9757 69.5105 99.8452 68.3246 98.9643C67.1589 98.0974 66.5928 96.6747 66.8517 95.2499L67.3072 92.7355C67.4639 91.8727 67.1808 90.9877 66.5527 90.3717L64.7166 88.5737C63.6753 87.5523 63.3119 86.0633 63.7674 84.6847C64.2291 83.2921 65.4269 82.3028 66.8918 82.1041L69.4503 81.757C70.3313 81.6366 71.0958 81.0968 71.4952 80.3101L72.6572 78.0285C73.3192 76.7262 74.6398 75.9295 76.1125 75.9376C77.5814 75.9496 78.8918 76.7703 79.5339 78.0807L80.6579 80.3804C81.045 81.173 81.8015 81.7248 82.6804 81.8573L85.2349 82.2446C86.6958 82.4673 87.8758 83.4727 88.3152 84.8713C88.7507 86.258 88.3654 87.7429 87.3081 88.7463L85.4436 90.5162C84.8035 91.1242 84.5085 92.0031 84.651 92.868L85.0686 95.3904C85.3032 96.8172 84.7174 98.2319 83.5353 99.0807C82.8632 99.5643 82.0764 99.8111 81.286 99.8111V99.8111Z" fill="#66509E"/>
<path d="M81.2141 89.6631H77.7826V93.0805C77.7826 94.0558 76.9922 94.8464 76.0167 94.8464C75.0415 94.8464 74.2489 94.0558 74.2489 93.0805V89.6631H70.7895C69.8143 89.6631 69.0234 88.8725 69.0234 87.8972C69.0234 86.922 69.8143 86.1313 70.7895 86.1313H74.2489V82.6859C74.2489 81.7106 75.0415 80.918 76.0167 80.918C76.9922 80.918 77.7826 81.7106 77.7826 82.6859V86.1313H81.2141C82.1893 86.1313 82.9802 86.922 82.9802 87.8972C82.9802 88.8725 82.1893 89.6631 81.2141 89.6631Z" fill="white"/>
<path d="M70.7715 86.6772C70.1091 86.6772 69.5715 87.215 69.5715 87.8772C69.5715 88.5394 70.1091 89.0772 70.7715 89.0772H74.2308C74.5459 89.0772 74.7987 89.33 74.7987 89.6431V93.0605C74.7987 93.7227 75.3367 94.2605 75.9987 94.2605C76.6589 94.2605 77.1969 93.7227 77.1969 93.0605V89.6431C77.1969 89.33 77.4515 89.0772 77.7646 89.0772H81.196C81.8562 89.0772 82.396 88.5394 82.396 87.8772C82.396 87.217 81.8562 86.6772 81.196 86.6772H77.7646C77.4515 86.6772 77.1969 86.4243 77.1969 86.1113V82.6658C77.1969 82.0036 76.6589 81.4658 75.9987 81.4658C75.3367 81.4658 74.7987 82.0036 74.7987 82.6658V86.1113C74.7987 86.4243 74.5459 86.6772 74.2308 86.6772H70.7715ZM75.9987 95.3942C74.7126 95.3942 73.6649 94.3467 73.6649 93.0605V90.211H70.7715C69.485 90.211 68.4375 89.1635 68.4375 87.8772C68.4375 86.5909 69.485 85.5434 70.7715 85.5434H73.6649V82.6658C73.6649 81.3795 74.7126 80.332 75.9987 80.332C77.285 80.332 78.3305 81.3795 78.3305 82.6658V85.5434H81.196C82.4823 85.5434 83.5278 86.5909 83.5278 87.8772C83.5278 89.1635 82.4823 90.211 81.196 90.211H78.3305V93.0605C78.3305 94.3467 77.285 95.3942 75.9987 95.3942Z" fill="#66509E"/>
<path d="M37.4179 58.1836H7.92358C7.40806 58.1836 6.91421 58.3883 6.54899 58.7527L3.85401 61.4483C3.63127 61.671 3.7898 62.0543 4.10685 62.0543H33.6012C34.1149 62.0543 34.6085 61.8496 34.9739 61.4844L37.6687 58.7902C37.8935 58.5665 37.7351 58.1836 37.4179 58.1836Z" fill="#807DBB"/>
<path d="M4.59672 61.526H33.5813C33.9488 61.526 34.2937 61.3835 34.5528 61.1246L36.8866 58.7898H7.90375C7.53672 58.7898 7.18957 58.9329 6.9305 59.193L4.59672 61.526V61.526ZM33.5813 62.6597H4.08702C3.71177 62.6597 3.37686 62.437 3.23418 62.0918C3.09171 61.7447 3.17017 61.3514 3.43485 61.0865L6.13003 58.3913C6.60341 57.9173 7.23371 57.6562 7.90375 57.6562H37.3981C37.7713 57.6562 38.1064 57.8798 38.2489 58.2255C38.3936 58.5715 38.3153 58.966 38.0502 59.2303L35.3555 61.9253C34.8819 62.3989 34.2518 62.6597 33.5813 62.6597V62.6597Z" fill="#66509E"/>
<path d="M26.5126 101.03H2.45439C1.36295 101.03 0.503889 100.097 0.592184 99.0096L3.5964 61.9922L33.9855 62.1688L34.7462 69.9949L26.5126 101.03V101.03Z" fill="white"/>
<path d="M26.494 101.576H2.43581C1.75755 101.576 1.10538 101.291 0.645846 100.792C0.186515 100.294 -0.0464617 99.6196 0.0077189 98.9434L3.01173 61.926C3.03581 61.633 3.28264 61.4062 3.57782 61.4062H3.57962L33.9689 61.5808C34.2599 61.5828 34.5029 61.8036 34.531 62.0925L35.2913 69.9206C35.3214 70.2317 35.0947 70.5086 34.7818 70.5387C34.4706 70.5688 34.1937 70.342 34.1636 70.031L33.4514 62.7126L4.09956 62.542L1.13748 99.0357C1.10939 99.4029 1.22979 99.7521 1.47862 100.023C1.72745 100.294 2.06879 100.442 2.43581 100.442H26.494C26.8071 100.442 27.0599 100.697 27.0599 101.01C27.0599 101.323 26.8071 101.576 26.494 101.576V101.576Z" fill="#66509E"/>
<path d="M15.5238 67.2922C15.5238 68.4079 14.6188 69.3129 13.5053 69.3129C12.3894 69.3129 11.4844 68.4079 11.4844 67.2922C11.4844 66.1785 12.3894 65.2734 13.5053 65.2734C14.6188 65.2734 15.5238 66.1785 15.5238 67.2922Z" fill="#EE445B"/>
<path d="M13.4851 65.8799C12.6824 65.8799 12.0322 66.53 12.0322 67.3307C12.0322 68.1314 12.6824 68.7836 13.4851 68.7836C14.2857 68.7836 14.9357 68.1314 14.9357 67.3307C14.9357 66.53 14.2857 65.8799 13.4851 65.8799ZM13.4851 69.9173C12.0583 69.9173 10.8984 68.7575 10.8984 67.3307C10.8984 65.906 12.0583 64.7461 13.4851 64.7461C14.9096 64.7461 16.0697 65.906 16.0697 67.3307C16.0697 68.7575 14.9096 69.9173 13.4851 69.9173Z" fill="#66509E"/>
<path d="M28.0023 67.2922C28.0023 68.4079 27.0993 69.3129 25.9834 69.3129C24.8679 69.3129 23.9648 68.4079 23.9648 67.2922C23.9648 66.1785 24.8679 65.2734 25.9834 65.2734C27.0993 65.2734 28.0023 66.1785 28.0023 67.2922Z" fill="#EE445B"/>
<path d="M26.0241 65.8799C25.2235 65.8799 24.5713 66.53 24.5713 67.3307C24.5713 68.1314 25.2235 68.7836 26.0241 68.7836C26.8248 68.7836 27.477 68.1314 27.477 67.3307C27.477 66.53 26.8248 65.8799 26.0241 65.8799ZM26.0241 69.9173C24.5974 69.9173 23.4375 68.7575 23.4375 67.3307C23.4375 65.906 24.5974 64.7461 26.0241 64.7461C27.4509 64.7461 28.6107 65.906 28.6107 67.3307C28.6107 68.7575 27.4509 69.9173 26.0241 69.9173Z" fill="#66509E"/>
<path d="M26.0948 66.0286C25.7818 66.0286 25.529 65.7757 25.529 65.4627V56.2432C25.529 53.0919 22.9644 50.5281 19.8139 50.5281H19.7978C16.6473 50.5281 14.0828 53.0919 14.0828 56.2432V65.4627C14.0828 65.7757 13.83 66.0286 13.5169 66.0286C13.2039 66.0286 12.9492 65.7757 12.9492 65.4627V56.2432C12.9492 52.4668 16.0213 49.3945 19.7978 49.3945H19.8139C23.5905 49.3945 26.6629 52.4668 26.6629 56.2432V65.4627C26.6629 65.7757 26.4079 66.0286 26.0948 66.0286Z" fill="#66509E"/>
<path d="M29.4935 58.7563C29.1804 58.7563 28.9276 58.5025 28.9276 58.1896V56.7119C28.9276 53.5606 26.363 50.9967 23.2127 50.9967H23.1965C20.046 50.9967 17.4814 53.5606 17.4814 56.7119V58.1896C17.4814 58.5025 17.2286 58.7563 16.9155 58.7563C16.6025 58.7563 16.3477 58.5025 16.3477 58.1896V56.7119C16.3477 52.9355 19.4199 49.8633 23.1965 49.8633H23.2127C26.9871 49.8633 30.0616 52.9355 30.0616 56.7119V58.1896C30.0616 58.5025 29.8065 58.7563 29.4935 58.7563V58.7563Z" fill="#66509E"/>
<path d="M39.0834 68.1213L37.7106 58.3594L33.6914 62.5849L34.3855 70.5213C34.3855 70.5213 35.9971 67.5253 39.0834 68.1213V68.1213Z" fill="white"/>
<path d="M34.2594 62.7702L34.8054 69.003C35.626 68.1783 36.8583 67.4197 38.4032 67.4619L37.2935 59.5796L34.2594 62.7702ZM34.3678 71.0699C34.3299 71.0699 34.2915 71.0659 34.2536 71.0579C34.0066 71.0077 33.8242 70.801 33.8021 70.5522L33.1076 62.6137C33.0935 62.4512 33.1499 62.2927 33.2621 62.1743L37.2815 57.9494C37.432 57.7918 37.6588 57.7343 37.8656 57.8005C38.0721 57.8669 38.2226 58.0459 38.2527 58.2612L39.6273 68.0238C39.6534 68.2044 39.5892 68.387 39.4567 68.5134C39.3243 68.6398 39.1377 68.694 38.9591 68.6599C36.3125 68.1482 34.8797 70.7448 34.8654 70.7709C34.7651 70.9575 34.5725 71.0699 34.3678 71.0699V71.0699Z" fill="#66509E"/>
<path d="M45.9117 73.7745C45.6167 73.7745 45.3681 73.5457 45.348 73.2447C45.1955 70.9551 43.2187 69.1611 40.8468 69.1611C38.4769 69.1611 36.5003 70.9551 36.3478 73.2447C36.3257 73.5578 36.0568 73.7926 35.7438 73.7725C35.4328 73.7524 35.196 73.4815 35.216 73.1705C35.4089 70.2869 37.8809 68.0273 40.8468 68.0273C43.8129 68.0273 46.2869 70.2869 46.4778 73.1705C46.4998 73.4815 46.2629 73.7524 45.95 73.7725C45.9378 73.7745 45.9259 73.7745 45.9117 73.7745V73.7745Z" fill="#66509E"/>
<path d="M26.4844 76.8249V102.816C26.4844 103.576 27.1004 104.192 27.859 104.192H49.2824C49.9125 104.192 50.5165 103.941 50.96 103.496L53.7314 100.719C53.9881 100.462 54.1327 100.113 54.1327 99.7473V73.6523L26.4844 76.8249V76.8249Z" fill="#EE445B"/>
<path d="M49.3207 104.738H27.8973C26.8279 104.738 25.957 103.867 25.957 102.796V76.8049C25.957 76.4918 26.2097 76.239 26.5227 76.239C26.8358 76.239 27.0886 76.4918 27.0886 76.8049V102.796C27.0886 103.243 27.4518 103.604 27.8973 103.604H49.3207C49.8023 103.604 50.256 103.418 50.597 103.074L53.3684 100.299C53.5209 100.147 53.605 99.944 53.605 99.7273V73.6323C53.605 73.3193 53.8578 73.0664 54.1711 73.0664C54.4839 73.0664 54.7388 73.3193 54.7388 73.6323V99.7273C54.7388 100.245 54.5361 100.733 54.1711 101.1L51.3996 103.875C50.8458 104.433 50.1075 104.738 49.3207 104.738V104.738Z" fill="#66509E"/>
<path d="M50.2534 104.345C49.9403 104.345 49.6875 104.093 49.6875 103.779V77.2671C49.6875 76.9541 49.9403 76.6992 50.2534 76.6992C50.5664 76.6992 50.8193 76.9541 50.8193 77.2671V103.779C50.8193 104.093 50.5664 104.345 50.2534 104.345Z" fill="#66509E"/>
<path d="M26.6423 76.1415L29.2428 73.5408C29.4715 73.312 29.7808 73.1836 30.1059 73.1836H53.56C54.0356 73.1836 54.2742 73.7595 53.9371 74.0946L51.3384 76.6933C51.1097 76.9221 50.7988 77.0505 50.4756 77.0505L27.0196 77.0545C26.544 77.0545 26.305 76.4786 26.6423 76.1415V76.1415Z" fill="white"/>
<path d="M30.1453 73.79C29.9707 73.79 29.8059 73.8563 29.6835 73.9807L27.137 76.5251L50.515 76.5231C50.6897 76.5231 50.8541 76.4549 50.9765 76.3325L53.5192 73.79H30.1453ZM27.059 77.6589C26.6113 77.6589 26.2119 77.392 26.0414 76.9807C25.8708 76.5673 25.9631 76.0957 26.2804 75.7807L28.8808 73.18C29.2182 72.8409 29.6677 72.6562 30.1453 72.6562H53.5994C54.0449 72.6562 54.4441 72.9231 54.6146 73.3345C54.7872 73.7479 54.6929 74.2195 54.376 74.5345L51.7792 77.1332C51.4422 77.4703 50.9925 77.6569 50.515 77.6569L27.059 77.6589Z" fill="#66509E"/>
<path d="M35.6801 81.7668C35.6801 82.8805 34.7751 83.7856 33.6616 83.7856C32.5456 83.7856 31.6406 82.8805 31.6406 81.7668C31.6406 80.6511 32.5456 79.7461 33.6616 79.7461C34.7751 79.7461 35.6801 80.6511 35.6801 81.7668Z" fill="white"/>
<path d="M33.7001 80.2939C32.8994 80.2939 32.2473 80.9461 32.2473 81.7468C32.2473 82.5474 32.8994 83.1976 33.7001 83.1976C34.5008 83.1976 35.1507 82.5474 35.1507 81.7468C35.1507 80.9461 34.5008 80.2939 33.7001 80.2939ZM33.7001 84.3314C32.2734 84.3314 31.1133 83.1715 31.1133 81.7468C31.1133 80.32 32.2734 79.1602 33.7001 79.1602C35.1247 79.1602 36.2847 80.32 36.2847 81.7468C36.2847 83.1715 35.1247 84.3314 33.7001 84.3314Z" fill="#66509E"/>
<path d="M45.5238 81.7668C45.5238 82.8805 44.6188 83.7856 43.5033 83.7856C42.3894 83.7856 41.4844 82.8805 41.4844 81.7668C41.4844 80.6511 42.3894 79.7461 43.5033 79.7461C44.6188 79.7461 45.5238 80.6511 45.5238 81.7668Z" fill="white"/>
<path d="M43.4831 80.2939C42.6824 80.2939 42.032 80.9461 42.032 81.7468C42.032 82.5474 42.6824 83.1976 43.4831 83.1976C44.2857 83.1976 44.9359 82.5474 44.9359 81.7468C44.9359 80.9461 44.2857 80.2939 43.4831 80.2939ZM43.4831 84.3314C42.0581 84.3314 40.8984 83.1715 40.8984 81.7468C40.8984 80.32 42.0581 79.1602 43.4831 79.1602C44.9098 79.1602 46.0697 80.32 46.0697 81.7468C46.0697 83.1715 44.9098 84.3314 43.4831 84.3314V84.3314Z" fill="#66509E"/>
<path d="M43.5443 80.5278C43.2314 80.5278 42.9786 80.273 42.9786 79.9599V73.0609C42.9786 70.6529 41.0178 68.6924 38.6078 68.6924C36.1998 68.6924 34.2392 70.6529 34.2392 73.0609V79.9599C34.2392 80.273 33.9864 80.5278 33.6736 80.5278C33.3603 80.5278 33.1055 80.273 33.1055 79.9599V73.0609C33.1055 70.0268 35.5737 67.5586 38.6078 67.5586C41.6419 67.5586 44.1104 70.0268 44.1104 73.0609V79.9599C44.1104 80.273 43.8575 80.5278 43.5443 80.5278V80.5278Z" fill="#66509E"/>
</svg>
