<svg width="60" height="60" viewBox="0 0 60 60" fill="none" xmlns="http://www.w3.org/2000/svg">
<path d="M9.59 39.6025C11.25 41.0875 13.1325 42.265 15.15 43.15L25.76 36.4875C27.955 35.1025 30.895 35.43 32.7325 37.2775L36.3 40.845C41.6475 36.9025 45 30.595 45 23.75C45 12.0325 35.4675 2.5 23.75 2.5C12.0325 2.5 2.5 12.0325 2.5 23.75C2.5 29.7975 5.0825 35.575 9.59 39.6025ZM24.7 25.625H22.8C19.8775 25.625 17.5 23.2475 17.5 20.325C17.5 17.6975 19.395 15.535 21.875 15.095V13.125C21.875 12.09 22.715 11.25 23.75 11.25C24.785 11.25 25.625 12.09 25.625 13.125V15H28.125C29.16 15 30 15.84 30 16.875C30 17.91 29.16 18.75 28.125 18.75H22.8C21.945 18.75 21.25 19.445 21.25 20.3C21.25 21.18 21.945 21.875 22.8 21.875H24.7C27.6225 21.875 30 24.2525 30 27.175C30 29.8025 28.105 31.965 25.625 32.405V34.3725C25.625 35.4075 24.785 36.2475 23.75 36.2475C22.715 36.2475 21.875 35.4075 21.875 34.3725V32.5H19.375C18.34 32.5 17.5 31.66 17.5 30.625C17.5 29.59 18.34 28.75 19.375 28.75H24.7C25.555 28.75 26.25 28.055 26.25 27.2C26.25 26.32 25.555 25.625 24.7 25.625Z" fill="#ED2A65"/>
<path d="M57.4991 30H47.4991C46.4891 30 45.5741 30.61 45.1891 31.5425C44.8016 32.4775 45.0166 33.5525 45.7316 34.2675L48.9641 37.5L38.7491 47.715L30.5166 39.4825C29.6991 38.66 28.4141 38.5175 27.4341 39.125L1.18409 55.375C0.0090903 56.1025 -0.35091 57.6425 0.37409 58.815C0.84659 59.58 1.66409 60 2.50159 60C2.95159 60 3.40409 59.88 3.81409 59.625L28.3791 44.4175L36.9791 53.0175C37.9566 53.995 39.5366 53.995 40.5141 53.0175L52.4991 41.035L55.7316 44.2675C56.2091 44.745 56.8491 45 57.4991 45C57.8216 45 58.1466 44.9375 58.4566 44.81C59.3916 44.4225 59.9991 43.51 59.9991 42.5V32.5C59.9991 31.12 58.8816 30 57.4991 30Z" fill="#ED2A65"/>
</svg>
