<svg width="60" height="60" viewBox="0 0 60 60" fill="none" xmlns="http://www.w3.org/2000/svg">
<path d="M55.5331 53.1627C53.9127 48.3768 51.8956 42.3047 44.0627 42.3047H39.8212C41.0877 41.2915 42.2367 40.1389 43.1424 38.7891H44.0627C48.9088 38.7891 52.8518 34.8461 52.8518 30C52.8518 27.4555 52.8518 25.513 52.8518 22.9688C52.8518 10.3688 42.6002 0 30.0002 0C17.1131 0 6.97462 10.7126 7.1504 23.2657C7.14829 27.1366 7.14864 25.7292 7.14864 30C7.14864 34.8461 11.0916 38.7891 15.9377 38.7891H16.858C17.7637 40.1389 18.9127 41.2915 20.1792 42.3047H15.9377C8.10477 42.3047 6.08774 48.3768 4.46728 53.1611C3.32142 56.5427 5.97724 60 9.51419 60H50.4863C54.0352 60 56.6754 56.5303 55.5331 53.1627ZM14.3575 21.2109H12.4221C11.8579 21.2109 11.3245 21.3233 10.8145 21.4882C11.6224 10.914 20.2904 3.51562 30.0002 3.51562C40.1703 3.51562 48.5125 11.5298 49.2623 21.5118C48.7304 21.3308 48.1706 21.2109 47.5783 21.2109H45.6429C44.7554 13.3225 38.1221 7.03125 30.0002 7.03125C21.8783 7.03125 15.245 13.3225 14.3575 21.2109ZM30.0002 55.3119L22.9683 45.8203H37.032L30.0002 55.3119ZM30.0002 42.3047C23.2161 42.3047 17.6955 36.7841 17.6955 30V28.2422H22.969C25.8541 28.2422 28.3968 26.826 30.0002 24.6723C31.6036 26.826 34.1463 28.2422 37.0315 28.2422H42.3049V30C42.3049 31.8943 41.8388 33.6688 41.0707 35.2734H33.5158C32.5442 35.2734 31.758 36.0596 31.758 37.0312C31.758 38.0029 32.5442 38.7773 33.5158 38.7773H38.5843C36.365 40.9452 33.3398 42.3047 30.0002 42.3047Z" fill="#6650A0"/>
</svg>
