<svg width="72" height="72" viewBox="0 0 72 72" fill="none" xmlns="http://www.w3.org/2000/svg">
<path d="M60.4092 31.3249C60.4092 44.9794 49.3409 56.048 35.686 56.048C22.0341 56.048 10.9629 44.9794 10.9629 31.3249C10.9629 17.6712 22.0341 6.60205 35.686 6.60205C49.3409 6.60205 60.4092 17.6712 60.4092 31.3249Z" fill="white"/>
<path d="M11.804 31.3183C11.804 18.1525 22.5139 7.4412 35.6793 7.4412C48.8476 7.4412 59.5575 18.1526 59.5575 31.3183C59.5575 44.4843 48.8476 55.1959 35.6793 55.1959C22.5139 55.1959 11.804 44.4843 11.804 31.3183ZM10.1113 31.3183C10.1113 45.4174 21.5805 56.8875 35.6793 56.8875C49.7781 56.8875 61.2502 45.4174 61.2502 31.3183C61.2502 17.2194 49.7781 5.75 35.6793 5.75C21.5805 5.75 10.1113 17.2194 10.1113 31.3183Z" fill="#674EA0" stroke="#66509E" stroke-width="0.5"/>
<path d="M53.0578 48.8902C53.2618 48.2216 53.3071 47.8035 53.3071 47.8035C52.6839 46.776 51.6697 46.0128 50.4657 45.7074C48.0662 45.0994 44.2247 44.6351 42.0716 44.0161C40.9271 43.6872 40.1396 42.6407 40.1396 41.4548V39.4225C40.1396 39.1508 40.2727 38.9029 40.4823 38.7301C41.7827 37.6669 42.7855 36.0396 43.3777 34.4705C43.5164 34.0965 43.6241 33.7365 43.6694 33.42C43.6694 33.42 44.7233 33.43 44.8762 32.4605C45.3465 29.4967 45.6865 29.3684 45.6865 28.0664C45.6865 26.766 45.2106 26.4563 44.6383 26.7929C44.7346 26.4589 44.9102 25.7637 44.9301 24.7963C45.0604 18.8088 40.5758 15.209 35.2471 15.209C29.9154 15.209 25.5244 18.9343 25.564 24.7963C25.5697 25.7637 25.7596 26.4589 25.8531 26.7929C25.2808 26.4563 24.8048 26.766 24.8048 28.0664C24.8048 29.3684 25.1448 29.4967 25.6179 32.4605C25.7709 33.43 26.8219 33.42 26.8219 33.42C26.8417 33.5518 26.8644 33.6827 26.8899 33.8136C27.244 35.6238 28.2327 37.5726 29.6775 38.7293C29.8956 38.904 30.0345 39.1562 30.0345 39.435V41.4548C30.0345 42.6376 29.2582 43.6838 28.1194 44.0119C25.9663 44.6314 22.6716 45.2748 20.2665 45.8841C19.2098 46.1519 18.3032 46.7697 17.6743 47.6089C17.6743 47.6089 17.6772 47.8681 17.7395 48.3058C22.2467 53.0598 28.6152 56.0298 35.6805 56.0298C42.4569 56.0298 48.5902 53.3031 53.0578 48.8902Z" fill="white"/>
<path d="M18.3294 48.0895C22.9216 52.8619 29.086 55.4877 35.7038 55.4877C42.0411 55.4877 48.0186 53.0529 52.5513 48.6272C52.6307 48.3518 52.6788 48.1326 52.7072 47.9873C52.149 47.1674 51.3161 46.5852 50.3416 46.3385C49.2396 46.0595 47.792 45.8045 46.3897 45.558C44.7749 45.2742 43.1063 44.9804 41.9306 44.6424C40.5396 44.243 39.568 42.9543 39.568 41.5086V39.4763C39.568 39.0354 39.7719 38.6153 40.1289 38.3232C41.2365 37.4178 42.2252 35.9566 42.8428 34.3143C42.9788 33.9503 43.0666 33.6386 43.1035 33.3882C43.146 33.0933 43.4066 32.8786 43.6984 32.878C43.8202 32.8761 44.2451 32.8375 44.3103 32.4208C44.5426 30.9692 44.7409 30.1856 44.8882 29.6136C45.0384 29.0198 45.1149 28.7215 45.1149 28.1201C45.1149 27.6549 45.0469 27.4317 45.0044 27.3388C44.993 27.3444 44.9789 27.3515 44.9647 27.3602C44.7523 27.4835 44.4888 27.4668 44.2961 27.3175C44.1035 27.1685 44.0214 26.9169 44.0893 26.6829C44.2536 26.1084 44.3443 25.4871 44.3585 24.837C44.4123 22.3151 43.6049 20.1266 42.0213 18.5087C40.3498 16.7997 37.9532 15.8585 35.2703 15.8585C32.6668 15.8585 30.3155 16.7854 28.6412 18.4691C27.0152 20.1048 26.1653 22.31 26.1823 24.8466C26.1879 25.7656 26.3721 26.4081 26.4514 26.6826C26.5165 26.9169 26.4344 27.1682 26.2418 27.3175C26.0491 27.4668 25.7856 27.4838 25.576 27.3602C25.5619 27.3512 25.5477 27.3444 25.5364 27.3385C25.4939 27.4314 25.423 27.6544 25.423 28.1201C25.423 28.7209 25.4995 29.0187 25.6525 29.6122C25.797 30.1842 25.9981 30.968 26.2276 32.4208C26.2984 32.8701 26.78 32.8769 26.8395 32.878C27.1512 32.8863 27.3919 33.0927 27.4344 33.3871C27.4543 33.5097 27.4741 33.6313 27.4968 33.7531C27.8566 35.5829 28.8424 37.3322 30.0748 38.3178C30.443 38.6139 30.6555 39.0405 30.6555 39.4887V41.5086C30.6555 42.9534 29.6895 44.2401 28.307 44.6381C27.0322 45.005 25.3579 45.3815 23.7375 45.7455C22.6014 46.0002 21.4286 46.264 20.4371 46.5155C19.6013 46.7269 18.8534 47.1991 18.3067 47.8538C18.3095 47.9184 18.318 47.9975 18.3294 48.0895ZM35.7038 56.6793C28.6894 56.6793 22.1651 53.8702 17.3294 48.7694C17.2443 48.6791 17.1904 48.5649 17.1735 48.4422C17.1083 47.981 17.1027 47.702 17.1027 47.6717C17.0998 47.5399 17.1423 47.4107 17.2217 47.3053C17.9383 46.347 18.9753 45.6563 20.1424 45.3605C21.151 45.105 22.3323 44.8398 23.4768 44.5829C25.0802 44.2228 26.7375 43.8503 27.9783 43.4934C28.8509 43.2415 29.4628 42.425 29.4628 41.5086V39.4887C29.4628 39.3726 29.3779 39.2879 29.3296 39.2476C27.8906 38.0969 26.7432 36.086 26.3296 33.9976C25.7998 33.8531 25.1879 33.4636 25.0519 32.6078C24.8281 31.2091 24.6383 30.4561 24.4967 29.9066C24.338 29.2827 24.2332 28.8708 24.2332 28.1201C24.2332 27.1487 24.4683 26.5416 24.9556 26.2631C24.9981 26.2387 25.0519 26.213 25.1114 26.1905C25.0463 25.8294 24.9925 25.377 24.9896 24.854C24.9726 21.9933 25.9415 19.4951 27.7971 17.6294C29.6951 15.7191 32.3496 14.667 35.2703 14.667C38.2733 14.667 40.9759 15.7356 42.874 17.6756C44.6871 19.5277 45.6106 22.0131 45.5483 24.863C45.5398 25.3175 45.4973 25.7605 45.4237 26.1886C45.4859 26.2115 45.5398 26.2381 45.5823 26.2631C46.0696 26.5413 46.3047 27.1487 46.3047 28.1201C46.3047 28.8711 46.1998 29.2836 46.0412 29.9077C45.9024 30.4573 45.7098 31.2103 45.4888 32.6078C45.35 33.4718 44.7268 33.8602 44.1941 34.0019C44.1347 34.2259 44.0581 34.4681 43.959 34.7339C43.2677 36.5668 42.1459 38.2108 40.8824 39.2451C40.8371 39.2825 40.7606 39.3632 40.7606 39.4763V41.5086C40.7606 42.4259 41.3754 43.2438 42.2592 43.4973C43.3754 43.8177 45.0129 44.1061 46.5965 44.3846C48.0186 44.6351 49.4889 44.8937 50.6335 45.1837C51.9819 45.5251 53.1208 46.3651 53.8404 47.5478C53.9084 47.6606 53.9366 47.7929 53.9225 47.9238C53.9197 47.9431 53.8658 48.4048 53.6505 49.1173C53.6222 49.2119 53.5683 49.2981 53.4976 49.3675C48.7269 54.0826 42.4094 56.6793 35.7038 56.6793Z" fill="#674EA0"/>
<path d="M35.9163 44.3423L39.007 51.5755C39.0353 51.6429 39.0977 51.6887 39.1714 51.6964L47.013 52.4551C47.1886 52.472 47.2594 52.6905 47.1263 52.8066L41.1912 57.9765C41.1346 58.0244 41.1091 58.0994 41.126 58.1708L42.8258 65.8481C42.8627 66.0209 42.6758 66.1569 42.5256 66.0634L35.7661 62.0271C35.7039 61.9896 35.6245 61.989 35.5622 62.0262L28.7716 66.0124C28.6187 66.1031 28.4345 65.9671 28.4741 65.7943L30.2306 58.1298C30.2476 58.0584 30.2249 57.9839 30.1683 57.9348L24.2729 52.7202C24.1397 52.6035 24.2134 52.3856 24.389 52.3692L32.2335 51.67C32.3071 51.6632 32.3723 51.6176 32.4006 51.5502L35.5452 44.341C35.616 44.1792 35.8455 44.1803 35.9163 44.3423Z" fill="#66509E"/>
<path d="M35.6539 61.3958C35.7984 61.3958 35.94 61.4343 36.0675 61.5116L42.0393 65.0769L40.5379 58.2931C40.4727 58.007 40.5719 57.7109 40.7928 57.5197L46.0338 52.9536L39.1072 52.2827C38.8154 52.2538 38.5633 52.0694 38.45 51.8011L35.719 45.41L32.9399 51.7821C32.8238 52.0479 32.5716 52.2309 32.2798 52.257L25.3476 52.8748L30.5546 57.4823C30.7755 57.6789 30.869 57.9766 30.8038 58.2605L29.2514 65.0316L35.2516 61.5062C35.3763 61.4326 35.515 61.3958 35.6539 61.3958ZM42.6229 66.6832C42.4812 66.6832 42.3368 66.6435 42.2121 66.567L35.6539 62.6522L29.0644 66.5217C28.7897 66.6803 28.4469 66.6633 28.189 66.4735C27.9341 66.2865 27.8151 65.9636 27.8859 65.6548L29.5914 58.2189L23.8716 53.1601C23.6337 52.9502 23.543 52.6193 23.6422 52.3173C23.7385 52.0147 24.0076 51.7997 24.3249 51.77L31.9399 51.0909L34.9938 44.0961C35.1212 43.8051 35.4074 43.6182 35.7219 43.6182C36.0448 43.6196 36.3309 43.8094 36.4556 44.1014C36.4556 44.1017 39.4557 51.1195 39.4557 51.1195L47.0622 51.8561C47.3794 51.8867 47.6485 52.1025 47.7449 52.4054C47.8412 52.7082 47.7505 53.0397 47.5098 53.2491L41.7504 58.2653L43.3991 65.7143C43.47 66.0259 43.3453 66.346 43.0875 66.533C42.9487 66.6322 42.7843 66.6832 42.6229 66.6832Z" fill="#674EA0"/>
<path d="M20.1427 41.4302L22.6612 47.3235C22.6867 47.3782 22.7377 47.4165 22.7972 47.4221L29.1855 48.0406C29.3271 48.0545 29.3866 48.2321 29.2761 48.3267L24.4403 52.539C24.395 52.5784 24.3752 52.6396 24.3893 52.6974L25.7746 58.9536C25.8058 59.0936 25.6528 59.203 25.5282 59.1293L20.0209 55.8394C19.9699 55.8091 19.9076 55.8083 19.8537 55.8388L14.3239 59.0871C14.1992 59.1599 14.0491 59.0494 14.0802 58.9094L15.5137 52.664C15.525 52.6056 15.5052 52.545 15.4627 52.505L10.658 48.2567C10.5503 48.1615 10.607 47.9836 10.7515 47.9709L17.1454 47.4003C17.2049 47.3958 17.2559 47.3581 17.2786 47.3032L19.8424 41.4294C19.8991 41.2979 20.086 41.2984 20.1427 41.4302Z" fill="#66509E"/>
<path d="M19.9329 55.2739C20.066 55.2739 20.202 55.3102 20.321 55.3822L24.9698 58.1582L23.8026 52.8798C23.7403 52.6084 23.8338 52.3251 24.0463 52.1421L28.1229 48.5905L22.7346 48.0683C22.4599 48.0429 22.219 47.8686 22.1086 47.6139L19.9839 42.6373L17.8195 47.5947C17.7062 47.853 17.4625 48.025 17.1877 48.0477L11.7966 48.5284L15.8506 52.1124C16.0573 52.2965 16.148 52.5795 16.0885 52.8509L14.8788 58.1202L19.5476 55.3788C19.6665 55.3087 19.7997 55.2739 19.9329 55.2739ZM25.6072 59.8018C25.474 59.8018 25.3381 59.7662 25.2163 59.6939L19.93 56.5357L14.6182 59.6545C14.3548 59.808 14.029 59.791 13.7853 59.6117C13.5389 59.4324 13.4255 59.1256 13.4935 58.8301L14.8676 52.8348L10.2583 48.7561C10.0289 48.5553 9.94387 48.2389 10.0374 47.9505C10.1337 47.6621 10.3886 47.4581 10.6918 47.4309L16.8308 46.8836L19.2897 41.2446C19.4116 40.9673 19.6949 40.7899 19.9895 40.7891C20.2926 40.7899 20.5674 40.9709 20.6864 41.25L23.1029 46.9074L29.2362 47.5012C29.5393 47.5303 29.7943 47.7357 29.8878 48.0247C29.9785 48.3139 29.8906 48.6295 29.664 48.829L25.0208 52.873L26.3495 58.8786C26.4146 59.1723 26.2985 59.4792 26.0548 59.6576C25.9217 59.7534 25.7659 59.8018 25.6072 59.8018Z" fill="#674EA0"/>
<path d="M51.3461 42.385L53.655 47.7911C53.6776 47.8415 53.7259 47.8763 53.7796 47.882L59.641 48.4495C59.7713 48.4617 59.8223 48.6249 59.7232 48.7115L55.2896 52.5754C55.2471 52.6116 55.2301 52.6674 55.2414 52.7213L56.5106 58.4602C56.5389 58.5892 56.4001 58.6888 56.2868 58.6214L51.2356 55.6032C51.1875 55.5755 51.128 55.5749 51.0798 55.6027L46.0061 58.5829C45.8927 58.6497 45.7539 58.5484 45.7822 58.4192L47.0967 52.6907C47.108 52.6368 47.091 52.5808 47.0514 52.5445L42.6434 48.6472C42.5442 48.5594 42.598 48.3965 42.7311 48.3855L48.5953 47.8622C48.6492 47.8571 48.6973 47.8234 48.7172 47.7724L51.0714 42.3841C51.1224 42.2634 51.2951 42.264 51.3461 42.385Z" fill="#66509E"/>
<path d="M51.1498 54.9801C51.2829 54.9801 51.4133 55.0147 51.5322 55.0838L55.6995 57.5739L54.6513 52.8435C54.5946 52.5763 54.6853 52.3012 54.8864 52.1222L58.5466 48.9363L53.7165 48.4683C53.4444 48.4417 53.2122 48.2706 53.1045 48.0221L51.198 43.5611L49.2574 48.0042C49.1497 48.2521 48.9146 48.4221 48.6454 48.4488L43.8068 48.8805L47.4386 52.0919C47.6454 52.273 47.7333 52.5525 47.6709 52.8206L46.5887 57.5399L50.773 55.0827C50.8892 55.0143 51.0195 54.9801 51.1498 54.9801ZM56.3567 59.2324C56.2264 59.2324 56.0933 59.1975 55.9743 59.127L51.1498 56.2434L46.2998 59.0901C46.0448 59.2406 45.7247 59.225 45.4839 59.0494C45.2431 58.874 45.1298 58.5726 45.1949 58.2819L46.45 52.8087L42.243 49.087C42.0192 48.8876 41.9342 48.5762 42.0277 48.2929C42.124 48.0099 42.3762 47.8105 42.6736 47.7852L48.2715 47.2861L50.518 42.1395C50.637 41.867 50.909 41.6902 51.2036 41.6919C51.5039 41.6927 51.7702 41.8707 51.8864 42.1455L54.0932 47.3079L59.6911 47.8502C59.9858 47.8771 60.2379 48.0779 60.3286 48.3618C60.422 48.6457 60.3342 48.9564 60.1104 49.1533L55.8723 52.8444L57.0849 58.325C57.15 58.6159 57.0367 58.9162 56.7958 59.0907C56.6655 59.1848 56.5097 59.2324 56.3567 59.2324Z" fill="#674EA0"/>
<path d="M35.1477 41.0626C32.6689 41.0626 30.1787 40.1416 28.3515 38.3155C28.1192 38.0829 28.1192 37.7058 28.3515 37.4729C28.5838 37.2401 28.9634 37.2403 29.1957 37.4727C32.6094 40.8872 37.9013 40.3764 40.7003 37.7571C40.9411 37.5324 41.3179 37.5449 41.5417 37.7851C41.7683 38.0254 41.7542 38.4024 41.5133 38.6271C39.7739 40.2552 37.4679 41.0626 35.1477 41.0626Z" fill="#674EA0"/>
<path d="M45.0526 27.1826L45.4634 22.8731C45.7807 19.7439 44.3189 16.6687 41.602 14.9236C41.3499 14.7616 41.0468 14.6094 40.8796 14.5275C37.0325 12.6193 32.4799 13.1791 32.4799 13.1791C31.1485 13.2612 29.9331 13.944 29.2051 15.0202L28.4345 16.1559C26.4514 16.5098 25.0434 18.218 25.1426 20.1561L25.8679 26.8293L27.5761 23.117C27.6583 22.9953 27.7801 22.8717 27.9217 22.7533C28.8141 22.0006 29.5649 21.1034 30.0747 20.0714L30.4601 19.2895L31.0947 19.5739C34.0211 20.8833 37.262 21.2737 40.4717 20.9502C40.9986 20.8977 41.3981 20.9949 41.4944 21.3683C43.1602 27.8722 45.0526 27.1826 45.0526 27.1826Z" fill="#66509E"/>
<path d="M40.7005 20.3395C41.7204 20.3395 41.9895 20.9415 42.0603 21.218C43.0179 24.9515 43.9953 26.0983 44.5136 26.4499L44.8621 22.8141C45.1596 19.8667 43.7828 17.0357 41.2699 15.4221C41.0405 15.2731 40.7345 15.1227 40.607 15.0584C36.9724 13.256 32.587 13.7626 32.5445 13.768C31.366 13.8413 30.3121 14.4326 29.6889 15.3522L28.9183 16.4876C28.8276 16.6207 28.6889 16.7114 28.5302 16.74C26.8503 17.0391 25.6463 18.4941 25.7284 20.1237L26.2185 24.6204L27.0259 22.8657C27.0401 22.8353 27.0542 22.8067 27.0741 22.7792C27.1817 22.6195 27.3319 22.4611 27.5273 22.2948C28.4084 21.5554 29.0798 20.7178 29.5302 19.8053L29.9155 19.0234C30.0572 18.7358 30.3999 18.612 30.6946 18.7432L31.3291 19.0276C34.0034 20.2245 37.1423 20.6834 40.403 20.3548C40.5079 20.3444 40.607 20.3395 40.7005 20.3395ZM44.8791 27.7959C44.6752 27.7959 44.3975 27.7505 44.0803 27.5822C42.8451 26.9307 41.7799 24.9023 40.9158 21.552C40.8676 21.5379 40.7544 21.5172 40.522 21.5404C37.0545 21.8897 33.706 21.3968 30.8419 20.1152L30.7314 20.0653L30.5982 20.3316C30.077 21.3929 29.3008 22.36 28.2951 23.2065C28.1818 23.3017 28.1166 23.3725 28.0826 23.4169L26.4027 27.0754C26.2893 27.3188 26.0315 27.4584 25.7653 27.4148C25.4989 27.3717 25.2978 27.1576 25.2666 26.8916L24.5414 20.218C24.4309 18.0412 25.9324 16.1213 28.0684 15.6193L28.7001 14.6839C29.5302 13.4603 30.9268 12.6747 32.4368 12.5821C32.5926 12.5617 37.1735 12.0263 41.1368 13.9912C41.2954 14.0705 41.6269 14.2354 41.9158 14.4195C44.8054 16.2768 46.3891 19.5381 46.0463 22.9305L45.6355 27.2363C45.6157 27.465 45.4627 27.6607 45.2474 27.7398C45.2049 27.7547 45.0746 27.7959 44.8791 27.7959Z" fill="#674EA0"/>
</svg>
