<svg width="72" height="72" viewBox="0 0 72 72" fill="none" xmlns="http://www.w3.org/2000/svg">
<path d="M38.6206 36.0538C41.8104 36.0538 44.8696 34.787 47.1248 32.5313C49.3805 30.2757 50.6477 27.2169 50.6477 24.0271C50.6477 20.8373 49.3805 17.7781 47.1248 15.5224C44.8696 13.2672 41.8104 12 38.6206 12C35.4308 12 32.3716 13.2672 30.1164 15.5224C27.8607 17.7781 26.5939 20.8373 26.5939 24.0271C26.5951 27.2165 27.8624 30.2748 30.1176 32.5301C32.3729 34.7853 35.4312 36.0525 38.6206 36.0538ZM34.5658 22.8747H37.4687V18.1287C37.4687 17.4923 37.9846 16.9764 38.6206 16.9764C38.9264 16.9764 39.2193 17.0978 39.4354 17.3139C39.6512 17.5301 39.7725 17.823 39.7725 18.1288V24.027C39.7725 24.3324 39.6512 24.6253 39.4354 24.8414C39.2193 25.0576 38.9264 25.1789 38.6206 25.1789H34.5654H34.5658C33.9293 25.1789 33.4135 24.663 33.4135 24.027C33.4135 23.3906 33.9294 22.8747 34.5658 22.8747L34.5658 22.8747ZM55.0251 41.3067L47.7258 49.0024C46.3573 50.4352 44.5328 51.3477 42.5649 51.5827L31.1601 52.8962L24.9806 42.2289L27.6071 40.2472L27.6075 40.2476C29.2882 38.9772 31.3854 38.385 33.4824 38.5887L41.0858 39.303C41.866 39.383 42.5848 39.7631 43.0903 40.363L50.993 36.0546V36.0542C51.936 35.5367 53.0702 35.5033 54.0422 35.965C55.0141 36.4267 55.7048 37.327 55.8997 38.3849C56.0941 39.4428 55.7687 40.53 55.025 41.3075L55.0251 41.3067ZM30.3034 56.0296C30.4456 56.2984 30.4862 56.609 30.4187 56.9055C30.3255 57.1892 30.1386 57.4331 29.8887 57.5966L25.1653 60.3155V60.3151C24.9974 60.414 24.8073 60.4694 24.6125 60.4767C24.195 60.4823 23.8073 60.2621 23.5988 59.9005L16.1613 46.9755C15.9986 46.7139 15.9568 46.3949 16.046 46.1C16.1094 45.8014 16.3043 45.5475 16.5759 45.4089L21.276 42.69H21.2764C21.5383 42.5345 21.8517 42.4907 22.1466 42.569C22.4411 42.647 22.6923 42.8398 22.8429 43.105L30.3034 56.0296Z" fill="#66509E"/>
</svg>
