<svg width="40" height="49" viewBox="0 0 40 49" fill="none" xmlns="http://www.w3.org/2000/svg">
<path d="M22.6206 24.0538C25.8104 24.0538 28.8696 22.787 31.1248 20.5313C33.3805 18.2757 34.6477 15.2169 34.6477 12.0271C34.6477 8.83728 33.3805 5.7781 31.1248 3.52245C28.8696 1.2672 25.8104 0 22.6206 0C19.4308 0 16.3716 1.2672 14.1164 3.52245C11.8607 5.7781 10.5939 8.83728 10.5939 12.0271C10.5951 15.2165 11.8624 18.2748 14.1176 20.5301C16.3729 22.7853 19.4312 24.0525 22.6206 24.0538ZM18.5658 10.8747H21.4687V6.12874C21.4687 5.49231 21.9846 4.97643 22.6206 4.97643C22.9264 4.97643 23.2193 5.09777 23.4354 5.31393C23.6512 5.53009 23.7725 5.82299 23.7725 6.12875V12.027C23.7725 12.3324 23.6512 12.6253 23.4354 12.8414C23.2193 13.0576 22.9264 13.1789 22.6206 13.1789H18.5654H18.5658C17.9293 13.1789 17.4135 12.663 17.4135 12.027C17.4135 11.3906 17.9294 10.8747 18.5658 10.8747L18.5658 10.8747ZM39.0251 29.3067L31.7258 37.0024C30.3573 38.4352 28.5328 39.3477 26.5649 39.5827L15.1601 40.8962L8.98063 30.2289L11.6071 28.2472L11.6075 28.2476C13.2882 26.9772 15.3854 26.385 17.4824 26.5887L25.0858 27.303C25.866 27.383 26.5848 27.7631 27.0903 28.363L34.993 24.0546V24.0542C35.936 23.5367 37.0702 23.5033 38.0422 23.965C39.0141 24.4267 39.7048 25.327 39.8997 26.3849C40.0941 27.4428 39.7687 28.53 39.025 29.3075L39.0251 29.3067ZM14.3034 44.0296C14.4456 44.2984 14.4862 44.609 14.4187 44.9055C14.3255 45.1892 14.1386 45.4331 13.8887 45.5966L9.16534 48.3155V48.3151C8.99739 48.414 8.80734 48.4694 8.61248 48.4767C8.19502 48.4823 7.8073 48.2621 7.59877 47.9005L0.161273 34.9755C-0.00144735 34.7139 -0.0432376 34.3949 0.0459601 34.1C0.109443 33.8014 0.304306 33.5475 0.575911 33.4089L5.27597 30.69H5.27637C5.53834 30.5345 5.85173 30.4907 6.14663 30.569C6.44114 30.647 6.69226 30.8398 6.84293 31.105L14.3034 44.0296Z" fill="#66509E"/>
</svg>
