<svg width="48" height="48" viewBox="0 0 48 48" fill="none" xmlns="http://www.w3.org/2000/svg">
<path d="M0.546431 17.6046C0.24534 17.6046 0.000976562 17.3602 0.000976562 17.0591V7.09624C0.000976562 6.79442 0.24534 6.55078 0.546431 6.55078C0.848249 6.55078 1.09189 6.79442 1.09189 7.09624V17.0591C1.09189 17.3602 0.848249 17.6046 0.546431 17.6046Z" fill="#674EA0"/>
<path d="M0.546431 22.1882C0.24534 22.1882 0.000976562 21.9431 0.000976562 21.6427V19.9693C0.000976562 19.6682 0.24534 19.4238 0.546431 19.4238C0.848249 19.4238 1.09189 19.6682 1.09189 19.9693V21.6427C1.09189 21.9431 0.848249 22.1882 0.546431 22.1882Z" fill="#674EA0"/>
<path d="M47.0933 22.6987C46.7922 22.6987 46.5479 22.4543 46.5479 22.1532V15.1001C46.5479 14.7998 46.7922 14.5547 47.0933 14.5547C47.3951 14.5547 47.6388 14.7998 47.6388 15.1001V22.1532C47.6388 22.4543 47.3951 22.6987 47.0933 22.6987Z" fill="#674EA0"/>
<path d="M47.0933 27.28C46.7922 27.28 46.5479 27.0349 46.5479 26.7345V25.0611C46.5479 24.76 46.7922 24.5156 47.0933 24.5156C47.3951 24.5156 47.6388 24.76 47.6388 25.0611V26.7345C47.6388 27.0349 47.3951 27.28 47.0933 27.28Z" fill="#674EA0"/>
<path d="M44.1728 6.36328H3.44629V38.3669H44.1728V6.36328Z" fill="#EDEAF3"/>
<path d="M41.991 6.36328H3.44629V36.1851H40.5365C41.3401 36.1851 41.991 35.5335 41.991 34.7306V6.36328Z" fill="white"/>
<path d="M3.99814 37.822H43.6338V6.90927H3.99814V37.822ZM44.1792 38.9129H3.45268C3.15159 38.9129 2.90723 38.6693 2.90723 38.3675V6.36381C2.90723 6.06272 3.15159 5.81836 3.45268 5.81836H44.1792C44.4803 5.81836 44.7247 6.06272 44.7247 6.36381V38.3675C44.7247 38.6693 44.4803 38.9129 44.1792 38.9129Z" fill="#674EA0"/>
<path d="M42.7183 0.544922H4.90083C4.0972 0.544922 3.44629 1.19583 3.44629 1.99947V6.3631H44.1728V1.99947C44.1728 1.19583 43.5219 0.544922 42.7183 0.544922Z" fill="#EDEAF3"/>
<path d="M39.8092 0.544922H4.90083C4.0972 0.544922 3.44629 1.19583 3.44629 1.99947V3.45401H39.8092V0.544922Z" fill="white"/>
<path d="M3.99814 5.81818H43.6338V2C43.6338 1.49818 43.2258 1.09091 42.7247 1.09091H4.90723C4.40614 1.09091 3.99814 1.49818 3.99814 2V5.81818ZM44.1792 6.90909H3.45268C3.15159 6.90909 2.90723 6.66473 2.90723 6.36364V2C2.90723 0.896727 3.80395 0 4.90723 0H42.7247C43.828 0 44.7247 0.896727 44.7247 2V6.36364C44.7247 6.66473 44.4803 6.90909 44.1792 6.90909Z" fill="#674EA0"/>
<path d="M34.0095 10.7285H8.55637C8.15492 10.7285 7.8291 11.0543 7.8291 11.4558V15.8194C7.8291 16.2216 8.15492 16.5467 8.55637 16.5467H34.0095V10.7285Z" fill="#DE7885"/>
<path d="M31.8276 10.7285H8.55637C8.15492 10.7285 7.8291 11.0543 7.8291 11.4558V14.3649H31.1004C31.5018 14.3649 31.8276 14.0398 31.8276 13.6376V10.7285Z" fill="#FFBAC3"/>
<path d="M8.53933 11.2745C8.43969 11.2745 8.35751 11.356 8.35751 11.4563V15.82C8.35751 15.921 8.43969 16.0018 8.53933 16.0018H33.447V11.2745H8.53933ZM33.9924 17.0927H8.53933C7.83824 17.0927 7.2666 16.5218 7.2666 15.82V11.4563C7.2666 10.7552 7.83824 10.1836 8.53933 10.1836H33.9924C34.2935 10.1836 34.5379 10.428 34.5379 10.729V16.5472C34.5379 16.849 34.2935 17.0927 33.9924 17.0927Z" fill="#674EA0"/>
<path d="M39.0997 10.7285H34.0088V16.5467H39.0997C39.5012 16.5467 39.827 16.2216 39.827 15.8194V11.4558C39.827 11.0543 39.5012 10.7285 39.0997 10.7285Z" fill="#DE7885"/>
<path d="M37.6452 10.7285H34.0088V14.3649H36.9179C37.3193 14.3649 37.6452 14.0398 37.6452 13.6376V10.7285Z" fill="#FFBAC3"/>
<path d="M34.5372 16.0018H39.0827C39.183 16.0018 39.2645 15.921 39.2645 15.82V11.4563C39.2645 11.356 39.183 11.2745 39.0827 11.2745H34.5372V16.0018ZM39.0827 17.0927H33.9917C33.6907 17.0927 33.4463 16.849 33.4463 16.5472V10.729C33.4463 10.428 33.6907 10.1836 33.9917 10.1836H39.0827C39.7845 10.1836 40.3554 10.7552 40.3554 11.4563V15.82C40.3554 16.5218 39.7845 17.0927 39.0827 17.0927Z" fill="#674EA0"/>
<path d="M39.8277 3.99803C39.6822 3.99803 39.544 3.93985 39.4422 3.83803C39.3404 3.73694 39.2822 3.59149 39.2822 3.45258C39.2822 3.30712 39.3404 3.16894 39.4422 3.06785C39.6531 2.85621 40.0168 2.86421 40.2131 3.06785C40.315 3.16894 40.3731 3.30712 40.3731 3.45258C40.3731 3.59803 40.315 3.73694 40.2131 3.83803C40.1113 3.93985 39.9731 3.99803 39.8277 3.99803Z" fill="#674EA0"/>
<path d="M35.626 3.45756C35.626 3.15284 35.8732 2.91211 36.1714 2.91211C36.4696 2.91211 36.7169 3.15284 36.7169 3.45756C36.7169 3.75647 36.4696 4.00302 36.1714 4.00302C35.8732 4.00302 35.626 3.75647 35.626 3.45756Z" fill="#674EA0"/>
<path d="M32.5386 4.00088C32.3932 4.00088 32.255 3.9427 32.1532 3.84088C32.0513 3.73979 31.9932 3.60088 31.9932 3.45542C31.9932 3.30997 32.0513 3.17179 32.1532 3.0707C32.3495 2.86706 32.7277 2.86706 32.9241 3.0707C33.0259 3.17179 33.0841 3.30997 33.0841 3.45542C33.0841 3.60088 33.0259 3.73979 32.9241 3.84088C32.8223 3.9427 32.6841 4.00088 32.5386 4.00088Z" fill="#674EA0"/>
<path d="M27.4546 46.9126C27.315 46.9126 27.1754 46.8603 27.0692 46.7534L24.8874 44.5715C24.6743 44.3584 24.6743 44.013 24.8874 43.7999C25.1004 43.5875 25.4452 43.5875 25.6583 43.7999L27.8401 45.9817C28.0532 46.1948 28.0532 46.5403 27.8401 46.7534C27.7339 46.8603 27.5943 46.9126 27.4546 46.9126Z" fill="#674EA0"/>
<path d="M25.2728 46.9126C25.1332 46.9126 24.9935 46.8603 24.8874 46.7534C24.6743 46.5403 24.6743 46.1948 24.8874 45.9817L27.0692 43.7999C27.2823 43.5875 27.627 43.5875 27.8401 43.7999C28.0532 44.013 28.0532 44.3584 27.8401 44.5715L25.6583 46.7534C25.5521 46.8603 25.4124 46.9126 25.2728 46.9126Z" fill="#674EA0"/>
<path d="M38.3765 44.0009C38.2369 44.0009 38.098 43.9478 37.991 43.8416L35.8092 41.6598C35.5961 41.446 35.5961 41.1012 35.8092 40.8889C36.0223 40.6751 36.3678 40.6751 36.5809 40.8889L38.7627 43.0707C38.9758 43.2831 38.9758 43.6278 38.7627 43.8416C38.6558 43.9478 38.5161 44.0009 38.3765 44.0009Z" fill="#674EA0"/>
<path d="M36.1947 44.0009C36.0551 44.0009 35.9161 43.9478 35.8092 43.8416C35.5961 43.6278 35.5961 43.2831 35.8092 43.0707L37.991 40.8889C38.2041 40.6751 38.5496 40.6751 38.7627 40.8889C38.9758 41.1012 38.9758 41.446 38.7627 41.6598L36.5809 43.8416C36.474 43.9478 36.3343 44.0009 36.1947 44.0009Z" fill="#674EA0"/>
<path d="M44.9156 47.6392C44.7759 47.6392 44.637 47.5868 44.5301 47.4799L42.3483 45.2981C42.1352 45.085 42.1352 44.7396 42.3483 44.5265C42.5614 44.3141 42.9068 44.3141 43.1199 44.5265L45.3017 46.7083C45.5148 46.9214 45.5148 47.2668 45.3017 47.4799C45.1948 47.5868 45.0552 47.6392 44.9156 47.6392Z" fill="#674EA0"/>
<path d="M42.7337 47.6392C42.5941 47.6392 42.4552 47.5868 42.3483 47.4799C42.1352 47.2668 42.1352 46.9214 42.3483 46.7083L44.5301 44.5265C44.7432 44.3141 45.0887 44.3141 45.3017 44.5265C45.5148 44.7396 45.5148 45.085 45.3017 45.2981L43.1199 47.4799C43.013 47.5868 42.8734 47.6392 42.7337 47.6392Z" fill="#674EA0"/>
<path d="M8.83719 29.8652C8.70846 29.9801 8.57828 30.0929 8.46191 30.2194C8.54555 30.2427 8.63282 30.2565 8.715 30.2849C8.74919 30.1416 8.79137 30.0027 8.83719 29.8652Z" fill="white"/>
<path d="M12.2006 47.0978C15.0115 47.0978 17.2915 44.8186 17.2915 42.0069C17.2915 40.5815 16.7038 39.2942 15.7598 38.3706C16.7038 37.4462 17.2915 36.1597 17.2915 34.7335C17.2915 31.9226 15.0115 29.6426 12.2006 29.6426C9.80057 29.6426 7.79329 31.3058 7.25584 33.54C6.75184 33.3735 6.21439 33.2797 5.65439 33.2797C2.84202 33.2797 0.563477 35.5589 0.563477 38.3706C0.563477 41.1822 2.84202 43.4615 5.65439 43.4615C6.21439 43.4615 6.75184 43.3677 7.25584 43.1997C7.79329 45.4353 9.80057 47.0978 12.2006 47.0978Z" fill="white"/>
<path d="M7.23879 42.6489C7.33043 42.6489 7.42207 42.6736 7.50352 42.7187C7.63734 42.7922 7.73334 42.9187 7.76898 43.0678C8.26207 45.1158 10.0773 46.5471 12.1835 46.5471C14.6897 46.5471 16.729 44.5085 16.729 42.0016C16.729 40.7711 16.2432 39.6183 15.361 38.7551C15.2563 38.6518 15.1973 38.5114 15.1973 38.3645C15.1973 38.2176 15.2563 38.078 15.361 37.9747C16.2432 37.1122 16.729 35.9587 16.729 34.7282C16.729 32.222 14.6897 30.1827 12.1835 30.1827C10.0773 30.1827 8.26207 31.614 7.76898 33.6634C7.73334 33.8118 7.63734 33.9376 7.50352 34.0111C7.37043 34.0853 7.21116 34.1005 7.06716 34.0525C6.59879 33.8976 6.11807 33.8191 5.63734 33.8191C3.13043 33.8191 1.09189 35.8583 1.09189 38.3645C1.09189 40.8707 3.13043 42.91 5.63734 42.91C6.11952 42.91 6.60025 42.8314 7.06716 42.6773L7.23879 42.6489ZM12.1835 47.638C9.76098 47.638 7.64898 46.1122 6.86716 43.8634C6.46134 43.9551 6.05043 44.0009 5.63734 44.0009C2.52898 44.0009 0.000976562 41.4729 0.000976562 38.3645C0.000976562 35.2569 2.52898 32.7282 5.63734 32.7282C6.0497 32.7282 6.46134 32.774 6.86716 32.8663C7.64898 30.6183 9.76098 29.0918 12.1835 29.0918C15.2912 29.0918 17.8199 31.6205 17.8199 34.7282C17.8199 36.0758 17.3501 37.3485 16.4875 38.3645C17.3501 39.3805 17.8199 40.6547 17.8199 42.0016C17.8199 45.1093 15.2912 47.638 12.1835 47.638Z" fill="#674EA0"/>
<path d="M14.1963 34.7305C14.1963 35.8352 13.3003 36.7305 12.1963 36.7305C11.0916 36.7305 10.1963 35.8352 10.1963 34.7305C10.1963 33.6257 11.0916 32.7305 12.1963 32.7305C13.3003 32.7305 14.1963 33.6257 14.1963 34.7305Z" fill="#EDEAF3"/>
<path d="M14.1963 42.002C14.1963 43.1067 13.3003 44.002 12.1963 44.002C11.0916 44.002 10.1963 43.1067 10.1963 42.002C10.1963 40.8972 11.0916 40.002 12.1963 40.002C13.3003 40.002 14.1963 40.8972 14.1963 42.002Z" fill="#EDEAF3"/>
<path d="M7.65723 38.3691C7.65723 39.4731 6.76195 40.3691 5.65723 40.3691C4.5525 40.3691 3.65723 39.4731 3.65723 38.3691C3.65723 37.2644 4.5525 36.3691 5.65723 36.3691C6.76195 36.3691 7.65723 37.2644 7.65723 38.3691Z" fill="#EDEAF3"/>
<path d="M12.2027 33.2765C11.4005 33.2765 10.7481 33.9288 10.7481 34.731C10.7481 35.5332 11.4005 36.1855 12.2027 36.1855C13.0049 36.1855 13.6572 35.5332 13.6572 34.731C13.6572 33.9288 13.0049 33.2765 12.2027 33.2765ZM12.2027 37.2765C10.799 37.2765 9.65723 36.1346 9.65723 34.731C9.65723 33.3274 10.799 32.1855 12.2027 32.1855C13.6056 32.1855 14.7481 33.3274 14.7481 34.731C14.7481 36.1346 13.6056 37.2765 12.2027 37.2765Z" fill="#674EA0"/>
<path d="M12.2027 40.5479C11.4005 40.5479 10.7481 41.201 10.7481 42.0025C10.7481 42.8039 11.4005 43.457 12.2027 43.457C13.0049 43.457 13.6572 42.8039 13.6572 42.0025C13.6572 41.201 13.0049 40.5479 12.2027 40.5479ZM12.2027 44.5479C10.799 44.5479 9.65723 43.4054 9.65723 42.0025C9.65723 40.5989 10.799 39.457 12.2027 39.457C13.6056 39.457 14.7481 40.5989 14.7481 42.0025C14.7481 43.4054 13.6056 44.5479 12.2027 44.5479Z" fill="#674EA0"/>
<path d="M5.64018 36.9151C4.838 36.9151 4.18564 37.5675 4.18564 38.3697C4.18564 39.1719 4.838 39.8242 5.64018 39.8242C6.44236 39.8242 7.09473 39.1719 7.09473 38.3697C7.09473 37.5675 6.44236 36.9151 5.64018 36.9151ZM5.64018 40.9151C4.23654 40.9151 3.09473 39.7733 3.09473 38.3697C3.09473 36.966 4.23654 35.8242 5.64018 35.8242C7.04309 35.8242 8.18564 36.966 8.18564 38.3697C8.18564 39.7733 7.04309 40.9151 5.64018 40.9151Z" fill="#674EA0"/>
<path d="M47.0963 38.9132H15.7574C15.4563 38.9132 15.2119 38.6695 15.2119 38.3677C15.2119 38.0674 15.4563 37.8223 15.7574 37.8223H47.0963C47.3981 37.8223 47.6417 38.0674 47.6417 38.3677C47.6417 38.6695 47.3981 38.9132 47.0963 38.9132Z" fill="#674EA0"/>
<path d="M45.6444 38.3699V29.6426H42.0081V34.7335H38.3717V29.6426H34.7354V38.3699H45.6444Z" fill="white"/>
<path d="M35.2638 30.1827V37.8198L45.0819 37.8191V30.1827H42.5365V34.7289C42.5365 35.0307 42.2929 35.2743 41.991 35.2743H38.3547C38.0529 35.2743 37.8092 35.0307 37.8092 34.7289V30.1827H35.2638ZM45.6274 38.3645H45.6347H45.6274ZM34.7183 38.9107C34.5736 38.9107 34.4347 38.8532 34.3321 38.7514C34.2303 38.6489 34.1729 38.51 34.1729 38.3653V29.6373C34.1729 29.3369 34.4165 29.0918 34.7183 29.0918H38.3547C38.6558 29.0918 38.9001 29.3369 38.9001 29.6373V34.1834H41.4456V29.6373C41.4456 29.3369 41.6899 29.0918 41.991 29.0918H45.6274C45.9292 29.0918 46.1729 29.3369 46.1729 29.6373V38.3645C46.1729 38.6663 45.9292 38.91 45.6274 38.91L34.7183 38.9107Z" fill="#674EA0"/>
<path d="M39.829 20.7315H29.9839C29.6828 20.7315 29.4385 20.4879 29.4385 20.1861C29.4385 19.885 29.6828 19.6406 29.9839 19.6406H39.829C40.1301 19.6406 40.3745 19.885 40.3745 20.1861C40.3745 20.4879 40.1301 20.7315 39.829 20.7315Z" fill="#674EA0"/>
<path d="M27.0699 20.7315H16.3433C16.0422 20.7315 15.7979 20.4879 15.7979 20.1861C15.7979 19.885 16.0422 19.6406 16.3433 19.6406H27.0699C27.3709 19.6406 27.6153 19.885 27.6153 20.1861C27.6153 20.4879 27.3709 20.7315 27.0699 20.7315Z" fill="#674EA0"/>
<path d="M13.4208 20.7315H7.81206C7.51097 20.7315 7.2666 20.4879 7.2666 20.1861C7.2666 19.885 7.51097 19.6406 7.81206 19.6406H13.4208C13.7219 19.6406 13.9662 19.885 13.9662 20.1861C13.9662 20.4879 13.7219 20.7315 13.4208 20.7315Z" fill="#674EA0"/>
<path d="M36.9002 24.3643H31.4136C31.1125 24.3643 30.8682 24.1193 30.8682 23.8189C30.8682 23.5171 31.1125 23.2734 31.4136 23.2734H36.9002C37.2013 23.2734 37.4456 23.5171 37.4456 23.8189C37.4456 24.1193 37.2013 24.3643 36.9002 24.3643Z" fill="#674EA0"/>
<path d="M28.5023 24.3643H22.7183C22.4165 24.3643 22.1729 24.1193 22.1729 23.8189C22.1729 23.5171 22.4165 23.2734 22.7183 23.2734H28.5023C28.8034 23.2734 29.0478 23.5171 29.0478 23.8189C29.0478 24.1193 28.8034 24.3643 28.5023 24.3643Z" fill="#674EA0"/>
<path d="M19.8106 24.3643H7.81206C7.51097 24.3643 7.2666 24.1193 7.2666 23.8189C7.2666 23.5171 7.51097 23.2734 7.81206 23.2734H19.8106C20.1117 23.2734 20.3561 23.5171 20.3561 23.8189C20.3561 24.1193 20.1117 24.3643 19.8106 24.3643Z" fill="#674EA0"/>
<path d="M31.8156 28.003H26.7261C26.425 28.003 26.1807 27.7579 26.1807 27.4576C26.1807 27.1557 26.425 26.9121 26.7261 26.9121H31.8156C32.1167 26.9121 32.361 27.1557 32.361 27.4576C32.361 27.7579 32.1167 28.003 31.8156 28.003Z" fill="#674EA0"/>
<path d="M23.8105 28.003H18.148C17.8469 28.003 17.6025 27.7579 17.6025 27.4576C17.6025 27.1557 17.8469 26.9121 18.148 26.9121H23.8105C24.1116 26.9121 24.356 27.1557 24.356 27.4576C24.356 27.7579 24.1116 28.003 23.8105 28.003Z" fill="#674EA0"/>
<path d="M15.239 28.003H7.81206C7.51097 28.003 7.2666 27.7579 7.2666 27.4576C7.2666 27.1557 7.51097 26.9121 7.81206 26.9121H15.239C15.5401 26.9121 15.7844 27.1557 15.7844 27.4576C15.7844 27.7579 15.5401 28.003 15.239 28.003Z" fill="#674EA0"/>
<path d="M31.8283 31.6417H28.5308C28.2297 31.6417 27.9854 31.3966 27.9854 31.0962C27.9854 30.7944 28.2297 30.5508 28.5308 30.5508H31.8283C32.1293 30.5508 32.3737 30.7944 32.3737 31.0962C32.3737 31.3966 32.1293 31.6417 31.8283 31.6417Z" fill="#674EA0"/>
<path d="M25.614 31.6417H19.4605C19.1594 31.6417 18.915 31.3966 18.915 31.0962C18.915 30.7944 19.1594 30.5508 19.4605 30.5508H25.614C25.915 30.5508 26.1594 30.7944 26.1594 31.0962C26.1594 31.3966 25.915 31.6417 25.614 31.6417Z" fill="#674EA0"/>
<path d="M31.8246 35.2745H26.0464C25.7453 35.2745 25.501 35.0294 25.501 34.729C25.501 34.4272 25.7453 34.1836 26.0464 34.1836H31.8246C32.1257 34.1836 32.3701 34.4272 32.3701 34.729C32.3701 35.0294 32.1257 35.2745 31.8246 35.2745Z" fill="#674EA0"/>
<path d="M23.1325 35.2745H20.1871C19.886 35.2745 19.6416 35.0294 19.6416 34.729C19.6416 34.4272 19.886 34.1836 20.1871 34.1836H23.1325C23.4336 34.1836 23.678 34.4272 23.678 34.729C23.678 35.0294 23.4336 35.2745 23.1325 35.2745Z" fill="#674EA0"/>
</svg>
