<svg width="120" height="120" viewBox="0 0 120 120" fill="none" xmlns="http://www.w3.org/2000/svg">
<path d="M19.1847 55.951C21.6051 32.5615 42.5288 15.5627 65.9178 17.9835C89.3073 20.404 106.306 41.3274 103.885 64.7169C101.465 88.1059 80.5415 105.106 57.1522 102.684C33.7625 100.264 16.7639 79.3406 19.1847 55.951V55.951Z" fill="#EDEAF3"/>
<path d="M42.5289 115.427C42.4669 115.427 42.404 115.415 42.3421 115.395C40.2289 114.661 38.136 113.793 36.1216 112.817C35.8394 112.681 35.7208 112.342 35.8577 112.059C35.995 111.776 36.3347 111.659 36.6174 111.795C38.5918 112.751 40.6438 113.6 42.7157 114.32C43.0123 114.422 43.1691 114.747 43.0662 115.044C42.9843 115.278 42.7645 115.427 42.5289 115.427V115.427ZM75.3867 116.961C75.1313 116.961 74.8994 116.788 74.8352 116.529C74.7596 116.225 74.946 115.917 75.2506 115.842C77.3784 115.315 79.4999 114.659 81.5555 113.89C81.8494 113.778 82.1772 113.929 82.2874 114.222C82.3974 114.517 82.2482 114.844 81.954 114.954C79.8574 115.739 77.6935 116.41 75.5233 116.944C75.4779 116.956 75.4316 116.961 75.3867 116.961V116.961ZM55.5238 118.317C55.504 118.317 55.4843 118.315 55.464 118.312C53.2321 118.081 50.9962 117.715 48.8196 117.232C48.5128 117.164 48.3196 116.861 48.3877 116.554C48.4557 116.247 48.7606 116.054 49.066 116.122C51.2008 116.595 53.3933 116.954 55.5823 117.183C55.8952 117.215 56.1213 117.495 56.0889 117.807C56.0582 118.1 55.8113 118.317 55.5238 118.317V118.317ZM62.1828 118.632C61.8711 118.632 61.6174 118.381 61.6143 118.068C61.6111 117.756 61.8628 117.498 62.1769 117.495C64.3747 117.473 66.5901 117.322 68.7623 117.049C69.073 117.01 69.3582 117.229 69.3977 117.542C69.4369 117.854 69.2164 118.137 68.9047 118.176C66.6891 118.456 64.4299 118.61 62.1884 118.632C62.1865 118.632 62.1843 118.632 62.1828 118.632V118.632Z" fill="#66509E"/>
<path d="M119.274 59.106C118.968 59.106 118.715 58.8624 118.706 58.5546C118.64 56.3599 118.445 54.1477 118.127 51.9797C118.081 51.669 118.296 51.3802 118.607 51.3346C118.917 51.2875 119.206 51.5036 119.251 51.8143C119.577 54.0255 119.776 56.2819 119.843 58.5204C119.852 58.8343 119.605 59.0963 119.291 59.1058C119.286 59.106 119.28 59.106 119.274 59.106V59.106ZM118.152 72.3699C118.114 72.3699 118.077 72.3663 118.039 72.3587C117.731 72.2968 117.532 71.997 117.594 71.689C117.955 69.896 118.234 68.058 118.423 66.227C118.46 65.8685 118.494 65.5107 118.525 65.1531C118.551 64.8402 118.825 64.6085 119.139 64.6348C119.452 64.6614 119.684 64.9365 119.658 65.2494C119.627 65.6136 119.592 65.9785 119.554 66.3441C119.361 68.2109 119.077 70.0848 118.708 71.9133C118.654 72.1833 118.417 72.3699 118.152 72.3699ZM114.035 85.0292C113.956 85.0292 113.875 85.0121 113.798 84.9755C113.513 84.8438 113.388 84.5073 113.519 84.2219C114.434 82.2292 115.242 80.1609 115.92 78.0743C116.018 77.7755 116.338 77.6126 116.637 77.7092C116.935 77.8063 117.099 78.1273 117.002 78.4255C116.31 80.5541 115.486 82.6638 114.552 84.6975C114.456 84.9048 114.251 85.0292 114.035 85.0292V85.0292Z" fill="#66509E"/>
<path d="M101.759 19.4482C101.616 19.4482 101.473 19.3945 101.362 19.287C99.7885 17.7565 98.1102 16.3021 96.3739 14.9645C96.1253 14.7728 96.079 14.4158 96.2702 14.167C96.4622 13.9184 96.819 13.8716 97.068 14.0636C98.8387 15.4277 100.55 16.9109 102.156 18.4721C102.38 18.6909 102.386 19.0509 102.166 19.276C102.055 19.3904 101.907 19.4482 101.759 19.4482ZM110.175 29.7611C109.988 29.7611 109.804 29.6687 109.696 29.4992C108.513 27.6521 107.21 25.8536 105.822 24.1536C105.624 23.9104 105.66 23.5521 105.904 23.3536C106.147 23.155 106.505 23.1916 106.704 23.4345C108.118 25.1684 109.447 27.0023 110.653 28.8858C110.822 29.1502 110.746 29.5019 110.481 29.6714C110.386 29.7321 110.28 29.7611 110.175 29.7611V29.7611ZM116.016 41.7211C115.782 41.7211 115.562 41.5748 115.479 41.3411C114.751 39.2743 113.894 37.2258 112.93 35.2528C112.792 34.9709 112.909 34.6306 113.191 34.4926C113.474 34.3548 113.814 34.4719 113.952 34.7543C114.935 36.766 115.81 38.855 116.552 40.9636C116.656 41.2597 116.501 41.5843 116.205 41.6884C116.142 41.7106 116.078 41.7211 116.016 41.7211V41.7211Z" fill="#66509E"/>
<path d="M27.7887 14.0332C27.6118 14.0332 27.4382 13.9512 27.327 13.7971C27.1431 13.5422 27.2011 13.1868 27.456 13.0034C29.2718 11.6946 31.1823 10.4785 33.1336 9.38852C33.4079 9.23559 33.7543 9.33388 33.9072 9.60779C34.0604 9.88193 33.9621 10.2283 33.6882 10.3812C31.775 11.4502 29.9014 12.6427 28.1204 13.9258C28.0199 13.9985 27.9038 14.0332 27.7887 14.0332V14.0332ZM17.9514 23C17.8187 23 17.6855 22.9539 17.5779 22.8602C17.3411 22.6539 17.3162 22.2946 17.5226 22.0578C18.9918 20.3717 20.5753 18.7527 22.2292 17.2449C22.4611 17.0334 22.8206 17.0502 23.0321 17.2819C23.2438 17.5141 23.2272 17.8736 22.9953 18.0851C21.3731 19.5636 19.8206 21.1517 18.3801 22.8049C18.2677 22.9339 18.1097 23 17.9514 23ZM10.4226 33.9778C10.3333 33.9778 10.2423 33.9566 10.1579 33.9117C9.88014 33.7653 9.7738 33.4214 9.92014 33.1439C10.9628 31.1663 12.1333 29.2273 13.4004 27.3802C13.5779 27.121 13.9321 27.0551 14.1911 27.2329C14.4499 27.4105 14.516 27.7644 14.3382 28.0234C13.0962 29.8341 11.9484 31.7356 10.9258 33.6741C10.8243 33.8673 10.6267 33.9778 10.4226 33.9778V33.9778ZM5.62356 46.3953C5.57673 46.3953 5.52868 46.3892 5.48112 46.3768C5.17721 46.2985 4.99429 45.9885 5.07258 45.6844C5.63258 43.5158 6.32526 41.3585 7.13136 39.2727C7.24453 38.9795 7.5738 38.8344 7.86697 38.9471C8.15941 39.06 8.30526 39.3895 8.19209 39.6822C7.40185 41.7275 6.72282 43.8424 6.1738 45.9688C6.10746 46.2249 5.87673 46.3953 5.62356 46.3953V46.3953ZM3.7916 59.5783C3.46356 59.5705 3.21526 59.31 3.22282 58.9961C3.26014 57.4488 3.36039 55.8797 3.52039 54.3327C3.59087 53.6517 3.67429 52.9634 3.76819 52.2873C3.81112 51.9763 4.09843 51.7575 4.40917 51.8024C4.72039 51.8453 4.93746 52.1327 4.89453 52.4436C4.80258 53.1068 4.72063 53.7817 4.6516 54.4495C4.49453 55.9671 4.39624 57.5061 4.35965 59.0234C4.35234 59.3329 4.09917 59.5783 3.7916 59.5783V59.5783Z" fill="#66509E"/>
<path d="M26.965 61.5195C26.6511 61.5195 26.3965 61.2649 26.3965 60.951V48.0881C26.3965 47.7739 26.6511 47.5195 26.965 47.5195C27.2794 47.5195 27.534 47.7739 27.534 48.0881V60.951C27.534 61.2649 27.2794 61.5195 26.965 61.5195Z" fill="#66509E"/>
<path d="M22.971 49.7436C22.8254 49.7436 22.68 49.6882 22.5691 49.5772C20.3676 47.3758 20.3676 43.7938 22.5691 41.5926C22.7913 41.3702 23.151 41.3702 23.373 41.5926C23.5954 41.8143 23.5954 42.1743 23.373 42.3963C21.6149 44.1543 21.6149 47.0151 23.373 48.7731C23.5954 48.9951 23.5954 49.3553 23.373 49.5772C23.262 49.6882 23.1166 49.7436 22.971 49.7436V49.7436Z" fill="#66509E"/>
<path d="M30.9784 49.7436C30.833 49.7436 30.6874 49.6882 30.5764 49.5772C30.3547 49.3553 30.3547 48.9951 30.5764 48.7731C32.3345 47.0151 32.3345 44.1543 30.5764 42.3963C30.3547 42.1743 30.3547 41.8143 30.5764 41.5926C30.7986 41.3702 31.1586 41.3702 31.3806 41.5926C33.5818 43.7938 33.5818 47.3758 31.3806 49.5772C31.2699 49.6882 31.124 49.7436 30.9784 49.7436Z" fill="#66509E"/>
<path d="M20.5964 52.1284C20.451 52.1284 20.3052 52.0728 20.1944 51.9619C18.4886 50.256 17.5488 47.988 17.5488 45.576C17.5488 43.1636 18.4886 40.8955 20.1944 39.1899C20.4161 38.9679 20.7764 38.9679 20.9986 39.1899C21.2203 39.4121 21.2203 39.7721 20.9986 39.994C19.5074 41.4848 18.6861 43.4672 18.6861 45.576C18.6861 47.6843 19.5074 49.6667 20.9986 51.1577C21.2203 51.3799 21.2203 51.7397 20.9986 51.9619C20.8874 52.0728 20.742 52.1284 20.5964 52.1284Z" fill="#66509E"/>
<path d="M33.3814 52.1284C33.2356 52.1284 33.0904 52.0728 32.979 51.9619C32.757 51.7397 32.757 51.3799 32.979 51.1577C34.4702 49.6667 35.2914 47.6843 35.2914 45.576C35.2914 43.4672 34.4702 41.4848 32.979 39.994C32.757 39.7721 32.757 39.4121 32.979 39.1899C33.2012 38.9679 33.5612 38.9679 33.7831 39.1899C35.489 40.8955 36.4285 43.1636 36.4285 45.576C36.4285 47.988 35.489 50.256 33.7831 51.9619C33.6724 52.0728 33.5268 52.1284 33.3814 52.1284Z" fill="#66509E"/>
<path d="M29.432 45.6241C29.432 46.9719 28.3388 48.0646 26.991 48.0646C25.6432 48.0646 24.5508 46.9719 24.5508 45.6241C24.5508 44.2763 25.6432 43.1836 26.991 43.1836C28.3388 43.1836 29.432 44.2763 29.432 45.6241Z" fill="white"/>
<path d="M26.9736 43.7933C25.9414 43.7933 25.1017 44.6331 25.1017 45.6653C25.1017 46.6975 25.9414 47.5372 26.9736 47.5372C28.0058 47.5372 28.8456 46.6975 28.8456 45.6653C28.8456 44.6331 28.0058 43.7933 26.9736 43.7933ZM26.9736 48.6745C25.3146 48.6745 23.9648 47.3243 23.9648 45.6653C23.9648 44.006 25.3146 42.6562 26.9736 42.6562C28.6326 42.6562 29.9829 44.006 29.9829 45.6653C29.9829 47.3243 28.6326 48.6745 26.9736 48.6745Z" fill="#66509E"/>
<path d="M16.6682 83.2884C16.6126 77.6008 21.178 72.9445 26.8658 72.8887C32.5536 72.833 37.2099 77.3984 37.2653 83.0862C37.3211 88.773 32.7555 93.4291 27.068 93.4852C21.3804 93.5416 16.724 88.9755 16.6682 83.2884ZM2.53527 88.9535L6.43332 88.9145C6.87649 88.9121 7.26161 89.1999 7.3999 89.6218C7.76625 90.7367 8.22503 91.8096 8.76746 92.8316C8.97527 93.2218 8.91698 93.7023 8.60649 94.0194L5.87649 96.8023C5.14673 97.5462 5.1582 98.7438 5.90259 99.473L11.0977 104.566C11.8428 105.297 13.0382 105.285 13.7682 104.541L16.4982 101.756C16.8084 101.439 17.2862 101.373 17.6819 101.573C18.714 102.095 19.7953 102.532 20.9177 102.875C21.3411 103.007 21.6384 103.385 21.6428 103.829L21.6811 107.727C21.6916 108.771 22.5453 109.607 23.5877 109.597L30.8633 109.527C31.9062 109.517 32.7436 108.661 32.7333 107.619L32.6948 103.722C32.6909 103.278 32.9804 102.893 33.4016 102.754C34.5165 102.388 35.5892 101.929 36.6109 101.388C37.0026 101.178 37.4811 101.236 37.7977 101.549L40.5821 104.278C41.3265 105.007 42.5221 104.995 43.2523 104.251L48.3462 99.056C49.0767 98.3121 49.0648 97.1169 48.3201 96.3852L45.5362 93.656C45.2197 93.3462 45.1516 92.8684 45.3521 92.4733C45.8743 91.4413 46.3119 90.3584 46.656 89.2365C46.7862 88.8121 47.1655 88.5145 47.6089 88.5121L51.507 88.473C52.5499 88.4633 53.387 87.6096 53.3767 86.5657L53.3055 79.2906C53.2955 78.2479 52.4414 77.4106 51.3989 77.4208L47.5001 77.4591C47.0575 77.4635 46.6719 77.174 46.5336 76.753C46.1672 75.6377 45.7087 74.5648 45.1662 73.5433C44.9582 73.1516 45.0167 72.6728 45.327 72.3565L48.0572 69.5723C48.7872 68.8277 48.7755 67.6318 48.0309 66.9018L42.8358 61.8079C42.0911 61.0774 40.8958 61.0891 40.1653 61.834L37.4355 64.6179C37.1248 64.9345 36.6475 65.0023 36.2521 64.8021C35.2199 64.2799 34.1382 63.8423 33.016 63.4979C32.5923 63.3679 32.295 62.9884 32.2909 62.5455L32.2526 58.6472C32.2423 57.604 31.3887 56.7672 30.3458 56.7774L23.0701 56.8487C22.0277 56.8589 21.1901 57.7128 21.2006 58.7555L21.2387 62.6538C21.2433 63.0969 20.9536 63.4823 20.5326 63.6204C19.4172 63.9867 18.3443 64.4455 17.3231 64.9879C16.9311 65.1957 16.4523 65.1374 16.136 64.827L13.3514 62.0969C12.607 61.3669 11.4116 61.3787 10.6811 62.1233L5.58722 67.3182C4.85698 68.063 4.86868 69.2584 5.61356 69.9889L8.39746 72.7187C8.71405 73.0291 8.78186 73.5065 8.58161 73.9021C8.05917 74.9343 7.62186 76.016 7.27771 77.1382C7.14747 77.5616 6.76795 77.8589 6.32503 77.8633L2.42649 77.9016C1.38356 77.9118 0.54649 78.7655 0.556734 79.8082L0.627953 87.0828C0.638197 88.1267 1.4921 88.9633 2.53527 88.9535V88.9535Z" fill="#807DBB"/>
<path d="M26.9813 73.498C26.9489 73.498 26.916 73.4983 26.8833 73.4985C21.5182 73.5515 17.196 77.959 17.2487 83.3242C17.2743 85.9242 18.3106 88.3559 20.166 90.1754C22.0218 91.9951 24.4794 92.9876 27.074 92.9583C29.6733 92.9339 32.1069 91.8973 33.9262 90.0415C35.746 88.1851 36.7343 85.7315 36.7087 83.1332C36.6833 80.5344 35.6472 78.1005 33.7913 76.2807C31.9591 74.4841 29.544 73.498 26.9813 73.498V73.498ZM26.9755 94.0976C24.1135 94.0976 21.4165 92.9949 19.3699 90.9878C17.2974 88.9559 16.1401 86.2388 16.1116 83.3351C16.0528 77.3434 20.8799 72.4202 26.8721 72.3615C29.7708 72.329 32.5148 73.4368 34.5874 75.4688C36.6604 77.5012 37.8172 80.2193 37.8457 83.122C37.8743 86.0241 36.7706 88.7656 34.7384 90.839C32.706 92.9098 29.9882 94.0683 27.0852 94.0949C27.0491 94.0949 27.0118 94.0976 26.9755 94.0976V94.0976ZM17.2221 100.931C17.4684 100.931 17.7174 100.988 17.9504 101.107C18.9574 101.617 20.016 102.044 21.0965 102.375C21.7635 102.578 22.2165 103.178 22.2233 103.866L22.2616 107.763C22.265 108.117 22.4055 108.446 22.6572 108.692C22.9091 108.939 23.2413 109.075 23.5945 109.07L30.8696 109C31.5972 108.992 32.1838 108.395 32.1765 107.666L32.1382 103.768C32.1316 103.08 32.5726 102.473 33.2357 102.256C34.3087 101.902 35.3589 101.456 36.3562 100.927C36.973 100.597 37.7169 100.702 38.2077 101.183L40.9918 103.912C41.5118 104.422 42.3489 104.414 42.8584 103.895L47.9523 98.6998C48.1994 98.4485 48.333 98.1144 48.3296 97.7632C48.3265 97.4095 48.1857 97.0802 47.934 96.8339L45.1499 94.1024C44.6591 93.6217 44.5416 92.8805 44.8567 92.2559C45.3665 91.2485 45.793 90.19 46.1245 89.112C46.3294 88.4437 46.9284 87.99 47.615 87.9851L51.5138 87.9461C51.8662 87.9412 52.1957 87.8022 52.4428 87.551C52.6896 87.2973 52.824 86.9656 52.8201 86.612L52.7487 79.3376C52.7421 78.61 52.1452 78.0288 51.416 78.0307L47.5179 78.0693C46.8218 78.0693 46.2216 77.6298 46.0055 76.9717C45.653 75.8988 45.2055 74.8488 44.6757 73.8512C44.3487 73.2341 44.4516 72.4902 44.933 71.9995L47.6628 69.2156C48.1728 68.6961 48.1645 67.8585 47.6445 67.3488L42.4494 62.2551C41.9304 61.7456 41.0928 61.7539 40.583 62.2734L37.8533 65.0576C37.3718 65.5481 36.6299 65.6661 36.0069 65.3507C34.9994 64.8407 33.9406 64.4141 32.8611 64.0829C32.194 63.8781 31.7411 63.2793 31.7343 62.5922L31.696 58.6941C31.6887 57.9666 31.0869 57.3873 30.3633 57.3873L23.0879 57.4588C22.3599 57.4656 21.7738 58.0637 21.7811 58.7912L21.8191 62.6898C21.8262 63.3763 21.3848 63.9841 20.7216 64.202C19.6489 64.5544 18.5989 65.0017 17.6011 65.5312C16.9845 65.8588 16.2406 65.7554 15.7499 65.2744L12.9657 62.5441C12.4462 62.0351 11.6089 62.0432 11.0989 62.5627L6.00524 67.7578C5.49573 68.2773 5.50402 69.1146 6.02353 69.6244L8.80744 72.3544C9.29817 72.8351 9.41622 73.5773 9.10085 74.2002C8.59085 75.2078 8.16426 76.2663 7.83305 77.3463C7.62817 78.0134 7.02939 78.4663 6.34256 78.4732L2.44402 78.5115C1.71646 78.5185 1.13012 79.1163 1.13743 79.8442L1.2089 87.1193C1.21207 87.4729 1.35256 87.8022 1.60451 88.0485C1.85622 88.2949 2.1828 88.4266 2.54134 88.4266L6.43987 88.3876C7.11987 88.3924 7.73402 88.8217 7.95207 89.4851C8.30451 90.5583 8.75183 91.6095 9.28134 92.6073C9.6089 93.2217 9.50548 93.9681 9.02426 94.4583L6.29451 97.2412C5.78524 97.7607 5.79304 98.5998 6.31256 99.1071L11.5079 104.202C11.7594 104.449 12.0884 104.573 12.4448 104.58C12.7974 104.575 13.1277 104.436 13.374 104.183L16.1043 101.4C16.4057 101.092 16.8091 100.931 17.2221 100.931V100.931ZM23.5801 110.207C22.9335 110.207 22.3238 109.958 21.8611 109.505C21.3923 109.046 21.1308 108.431 21.1245 107.775L21.0862 103.875C21.0843 103.688 20.9548 103.519 20.7628 103.461C19.6208 103.112 18.5018 102.661 17.4372 102.122C17.2582 102.031 17.0487 102.061 16.916 102.195L14.1865 104.98C13.7267 105.449 13.1118 105.71 12.4562 105.717C11.8008 105.71 11.1801 105.473 10.7116 105.014L5.5167 99.9193C4.54939 98.9705 4.53402 97.4144 5.48256 96.4461L8.21231 93.6607C8.345 93.5266 8.37109 93.3168 8.27695 93.1388C7.71719 92.0854 7.24451 90.9754 6.87158 89.8412C6.80914 89.6512 6.63524 89.5268 6.45109 89.5268L2.55256 89.5632C1.89743 89.5656 1.2767 89.3193 0.808167 88.8607C0.33963 88.4022 0.0779229 87.7876 0.0713375 87.1315L0.000117982 79.8554C-0.0130527 78.5005 1.07817 77.3878 2.4328 77.3741L6.33109 77.3361C6.52036 77.3344 6.68695 77.2044 6.74597 77.0127C7.09622 75.871 7.54719 74.752 8.08622 73.6868C8.17695 73.5078 8.1467 73.2988 8.01134 73.1663L5.22719 70.4361C4.25987 69.4873 4.24475 67.9288 5.19304 66.9617L10.2872 61.7666C11.2362 60.799 12.7943 60.7837 13.7616 61.7322L16.5457 64.4624C16.6813 64.5951 16.8911 64.6212 17.0682 64.5268C18.1228 63.9671 19.2328 63.4944 20.3667 63.1217C20.5574 63.0593 20.6838 62.89 20.6823 62.701L20.6438 58.8024C20.6374 58.1461 20.8869 57.5268 21.3467 57.058C21.806 56.5895 22.4204 56.328 23.0767 56.3215L30.3521 56.2502C30.3601 56.2502 30.3682 56.25 30.3762 56.25C31.7201 56.25 32.8196 57.3363 32.833 58.6829L32.8713 62.5815C32.8735 62.7705 33.003 62.9371 33.1945 62.9959C34.336 63.3459 35.455 63.7968 36.5206 64.3361C36.6991 64.4261 36.9087 64.3963 37.0416 64.2612L39.7711 61.4771C40.7199 60.5102 42.2784 60.4949 43.2457 61.4432L48.4408 66.5371C49.4082 67.4859 49.4233 69.0446 48.475 70.0117L45.745 72.7956C45.6123 72.931 45.5865 73.1407 45.6804 73.3178C46.2401 74.3724 46.713 75.4824 47.086 76.6166C47.1482 76.8073 47.3155 76.9373 47.5067 76.932L51.4048 76.8937C51.4128 76.8937 51.4216 76.8937 51.4294 76.8937C52.7733 76.8937 53.8726 77.98 53.886 79.3266L53.9572 86.6022C53.9635 87.2583 53.7145 87.8778 53.2547 88.3461C52.7955 88.8144 52.1808 89.0754 51.5245 89.0827L47.6265 89.1217C47.4372 89.1241 47.2704 89.2537 47.2118 89.4437C46.8611 90.5851 46.4104 91.7046 45.8716 92.7705C45.7808 92.9485 45.8109 93.1583 45.946 93.2924L48.7304 96.0217C49.1987 96.4802 49.4604 97.0949 49.4667 97.751C49.473 98.4071 49.224 99.0266 48.7643 99.4949L43.6701 104.69C42.7218 105.658 41.163 105.673 40.1957 104.724L37.4118 101.995C37.2765 101.863 37.0665 101.836 36.8896 101.931C35.8348 102.49 34.725 102.963 33.5906 103.336C33.4001 103.397 33.2733 103.568 33.2752 103.756L33.3138 107.656C33.3269 109.01 32.2355 110.122 30.8811 110.136L23.6055 110.207C23.5969 110.207 23.5884 110.207 23.5801 110.207V110.207Z" fill="#66509E"/>
<path d="M42.8301 83.2108C42.8301 91.9845 35.7345 99.0966 26.9813 99.0966C18.2282 99.0966 11.1328 91.9845 11.1328 83.2108C11.1328 74.4367 18.2282 67.3242 26.9813 67.3242C35.7345 67.3242 42.8301 74.4367 42.8301 83.2108Z" fill="white"/>
<path d="M26.9639 67.8754C18.5386 67.8754 11.6837 74.7468 11.6837 83.1932C11.6837 91.64 18.5386 98.5107 26.9639 98.5107C35.3896 98.5107 42.2442 91.64 42.2442 83.1932C42.2442 74.7468 35.3896 67.8754 26.9639 67.8754ZM26.9639 99.6473C17.9115 99.6473 10.5469 92.2671 10.5469 83.1932C10.5469 74.12 17.9115 66.7383 26.9639 66.7383C36.0169 66.7383 43.3813 74.12 43.3813 83.1932C43.3813 92.2671 36.0169 99.6473 26.9639 99.6473V99.6473Z" fill="#66509E"/>
<path d="M11.0719 82.7684L18.638 79.1004V91.1533V82.7684H23.1766V93.7094H27.7151V73.125H33.8115V93.7094V77.7513L38.8515 82.0611V88.2387V83.9313H42.5978L42.6675 83.9362C42.2912 92.3755 35.3466 99.0996 26.8349 99.0996C18.0817 99.0996 10.9863 91.9874 10.9863 83.2138C10.9863 83.064 10.988 82.9148 10.9919 82.7662L11.0719 82.7684V82.7684Z" fill="#EE445B"/>
<path d="M11.5668 83.1488C11.5668 83.1644 11.5668 83.1803 11.5668 83.1964C11.5668 91.6432 18.4216 98.5139 26.847 98.5139C34.8433 98.5139 41.4221 92.3993 42.0743 84.4822L39.4321 84.4847V88.2213C39.4321 88.5359 39.1775 88.7895 38.8636 88.7895C38.5494 88.7895 38.2948 88.5359 38.2948 88.2213V82.3056L34.3921 78.9683V93.692C34.3921 94.0044 34.1372 94.2603 33.8236 94.2603C33.5092 94.2603 33.2548 94.0044 33.2548 93.692V73.6761H28.296V93.692C28.296 94.0044 28.0416 94.2603 27.7272 94.2603H23.1887C22.8746 94.2603 22.6202 94.0044 22.6202 93.692V83.3195H19.2187V91.1359C19.2187 91.4505 18.9641 91.7042 18.6502 91.7042C18.336 91.7042 18.0814 91.4505 18.0814 91.1359V79.9903L11.5668 83.1488V83.1488ZM26.847 99.6505C17.7943 99.6505 10.4297 92.2703 10.4297 83.1964C10.4297 83.0412 10.4316 82.8869 10.436 82.7327C10.4443 82.4412 10.6702 82.2074 10.9533 82.1825L18.4019 78.5713C18.578 78.4859 18.7855 78.4966 18.9519 78.6013C19.1177 78.7052 19.2187 78.8871 19.2187 79.083V82.1825H23.1887C23.5029 82.1825 23.7575 82.4369 23.7575 82.751V93.1239H27.1587V73.1076C27.1587 72.7935 27.4136 72.5391 27.7272 72.5391H33.8236C34.1372 72.5391 34.3921 72.7935 34.3921 73.1076V77.4722L39.2326 81.6115C39.3592 81.7195 39.4321 81.8776 39.4321 82.0437V83.3456L42.7053 83.3505C43.019 83.3652 43.2616 83.6286 43.2477 83.9432C42.8551 92.7505 35.6509 99.6505 26.847 99.6505V99.6505Z" fill="#66509E"/>
<path d="M61.0619 46.0798L57.3311 44.7586L55.0111 43.9368L47.4426 41.2561C45.7999 40.6742 43.9967 41.5349 43.4148 43.1776C43.1636 43.8871 43.1824 44.7088 43.4989 45.4856L61.9858 52.0334L61.0619 46.0798Z" fill="white"/>
<path d="M61.9692 52.5841C61.9063 52.5841 61.8421 52.5734 61.7797 52.5512L43.2926 46.0034C43.1394 45.9493 43.017 45.8324 42.9555 45.6819C42.5916 44.7898 42.5585 43.8266 42.8621 42.9695C43.548 41.0341 45.6802 40.0168 47.6158 40.702L61.2353 45.5259C61.5314 45.6307 61.6858 45.9556 61.5812 46.2517C61.4763 46.5478 61.1512 46.7024 60.8555 46.5978L47.2363 41.7739C45.8912 41.2978 44.4102 42.0044 43.9341 43.3493C43.749 43.8715 43.747 44.4566 43.9253 45.021L62.159 51.4795C62.4551 51.5844 62.6099 51.9093 62.5053 52.2054C62.4226 52.4385 62.2034 52.5841 61.9692 52.5841V52.5841Z" fill="#66509E"/>
<path d="M103.411 40.9119H87.8095C84.2578 37.7448 77.8415 38.0582 74.2346 39.758L62.0854 45.3363C60.512 46.0863 59.8446 47.9697 60.5954 49.5424C60.9588 50.3043 61.5876 50.8536 62.3181 51.1326L62.2295 51.0938L45.97 45.3348C44.3676 44.7675 42.61 45.6065 42.0425 47.2077C41.4756 48.8094 42.3134 50.5677 43.9154 51.1351L61.5651 57.3865C62.8571 57.8441 64.2429 57.9692 65.5961 57.7509L86.3254 54.4065H106.402L103.411 40.9119V40.9119Z" fill="white"/>
<path d="M64.2799 58.408C63.2872 58.408 62.296 58.2392 61.3574 57.907L43.7077 51.6558C41.8133 50.9846 40.8177 48.8973 41.4886 47.0026C41.814 46.0848 42.4767 45.3487 43.3555 44.9297C44.2343 44.5102 45.2235 44.4585 46.1416 44.7836L60.0323 49.7036C59.6335 48.8234 59.5911 47.8397 59.915 46.9256C60.2469 45.9878 60.9247 45.2356 61.8225 44.8078L73.9799 39.226C77.9408 37.3592 84.375 37.269 88.0035 40.328H103.394C103.707 40.328 103.962 40.5826 103.962 40.8968C103.962 41.2107 103.707 41.4653 103.394 41.4653H87.7916C87.6518 41.4653 87.5172 41.4139 87.413 41.3209C83.9813 38.2607 77.685 38.7365 74.4589 40.2573L62.3043 45.8375C61.6882 46.1314 61.2174 46.6539 60.9869 47.3051C60.7564 47.9568 60.7928 48.659 61.0906 49.2824C61.3582 49.8436 61.8113 50.2836 62.3755 50.5334L62.4011 50.5426C62.4138 50.547 62.4262 50.5521 62.4384 50.5573L62.5272 50.5958C62.8106 50.7192 62.9433 51.0463 62.8264 51.3321C62.7096 51.6185 62.3857 51.758 62.0972 51.6485C62.0503 51.6304 62.004 51.6117 61.9582 51.5919L45.7618 45.8558C45.1301 45.6319 44.4494 45.6673 43.8452 45.956C43.2401 46.2441 42.784 46.7509 42.5604 47.3824C42.0991 48.6858 42.7838 50.1221 44.0872 50.5836L61.7367 56.8348C62.9352 57.2597 64.2325 57.3768 65.4874 57.1743L86.2169 53.8297C86.2467 53.8248 86.2769 53.8224 86.3074 53.8224H106.384C106.698 53.8224 106.953 54.077 106.953 54.3909C106.953 54.7051 106.698 54.9597 106.384 54.9597H86.3528L65.6686 58.297C65.2091 58.3712 64.744 58.408 64.2799 58.408V58.408Z" fill="#66509E"/>
<path d="M75.4798 45.9375L64.7984 51.0312C63.9866 51.4185 63.093 51.4285 62.3145 51.1314L75.4798 45.9375V45.9375Z" fill="white"/>
<path d="M63.4543 51.8926C63.0064 51.8926 62.5569 51.8101 62.1238 51.645C61.8304 51.5331 61.6835 51.2045 61.7952 50.9111C61.9069 50.6179 62.2362 50.4701 62.5291 50.5826C63.1969 50.8375 63.9201 50.8082 64.5652 50.5004L75.2474 45.407C75.5306 45.2721 75.8699 45.3918 76.005 45.6753C76.1404 45.9587 76.0199 46.2982 75.7364 46.4333L65.0547 51.5267C64.5447 51.7701 64.0006 51.8926 63.4543 51.8926V51.8926Z" fill="#66509E"/>
<path d="M105.324 43.4804C103.851 43.4804 102.656 42.2858 102.656 40.8123C102.656 39.3387 103.851 38.1445 105.324 38.1445C106.798 38.1445 107.992 39.3387 107.992 40.8123C107.992 42.2858 106.798 43.4804 105.324 43.4804Z" fill="#807DBB"/>
<path d="M105.336 38.7543C104.179 38.7543 103.237 39.6957 103.237 40.8535C103.237 42.0111 104.179 42.953 105.336 42.953C106.494 42.953 107.435 42.0111 107.435 40.8535C107.435 39.6957 106.494 38.7543 105.336 38.7543ZM105.336 44.0901C103.551 44.0901 102.1 42.6382 102.1 40.8535C102.1 39.0691 103.551 37.6172 105.336 37.6172C107.121 37.6172 108.573 39.0691 108.573 40.8535C108.573 42.6382 107.121 44.0901 105.336 44.0901Z" fill="#EE445B"/>
<path d="M90.6857 41.3909C90.3716 41.3909 90.1172 41.1365 90.1172 40.8224V35.4541C90.1172 33.3836 91.8018 31.6992 93.8723 31.6992H95.845C96.1589 31.6992 96.4135 31.9536 96.4135 32.2678C96.4135 32.5817 96.1589 32.8363 95.845 32.8363H93.8723C92.4291 32.8363 91.2543 34.0104 91.2543 35.4541V40.8224C91.2543 41.1365 90.9996 41.3909 90.6857 41.3909Z" fill="#66509E"/>
<path d="M98.4686 34.9259C96.9949 34.9259 95.8008 33.7316 95.8008 32.2581C95.8008 30.7845 96.9949 29.5898 98.4686 29.5898C99.942 29.5898 101.137 30.7845 101.137 32.2581C101.137 33.7316 99.942 34.9259 98.4686 34.9259Z" fill="#807DBB"/>
<path d="M98.4512 30.1412C97.2936 30.1412 96.3519 31.0827 96.3519 32.2405C96.3519 33.3981 97.2936 34.3398 98.4512 34.3398C99.6088 34.3398 100.551 33.3981 100.551 32.2405C100.551 31.0827 99.6088 30.1412 98.4512 30.1412ZM98.4512 35.4768C96.6668 35.4768 95.2148 34.0249 95.2148 32.2405C95.2148 30.4561 96.6668 29.0039 98.4512 29.0039C100.236 29.0039 101.688 30.4561 101.688 32.2405C101.688 34.0249 100.236 35.4768 98.4512 35.4768Z" fill="#66509E"/>
<path d="M95.9002 61.0587H91.2858C90.4943 61.0587 89.7558 60.7458 89.205 60.1775C88.6545 59.6092 88.3653 58.8604 88.3902 58.0697L88.5038 54.5163C88.5133 54.2024 88.7762 53.9451 89.0899 53.966C89.4038 53.976 89.6499 54.2385 89.6402 54.5524L89.527 58.106C89.5119 58.5863 89.6872 59.0412 90.0219 59.3865C90.3565 59.7316 90.805 59.9216 91.2858 59.9216H95.9002C96.2141 59.9216 96.4687 60.176 96.4687 60.4902C96.4687 60.8043 96.2141 61.0587 95.9002 61.0587V61.0587Z" fill="#66509E"/>
<path d="M98.2047 63.1679C96.7313 63.1679 95.5371 61.9732 95.5371 60.4998C95.5371 59.0264 96.7313 57.832 98.2047 57.832C99.6783 57.832 100.873 59.0264 100.873 60.4998C100.873 61.9732 99.6783 63.1679 98.2047 63.1679Z" fill="#807DBB"/>
<path d="M98.2171 58.3832C97.0595 58.3832 96.118 59.3249 96.118 60.4824C96.118 61.64 97.0595 62.5817 98.2171 62.5817C99.3746 62.5817 100.317 61.64 100.317 60.4824C100.317 59.3249 99.3746 58.3832 98.2171 58.3832ZM98.2171 63.719C96.4324 63.719 94.9805 62.2668 94.9805 60.4824C94.9805 58.698 96.4324 57.2461 98.2171 57.2461C100.002 57.2461 101.454 58.698 101.454 60.4824C101.454 62.2668 100.002 63.719 98.2171 63.719Z" fill="#66509E"/>
<path d="M95.256 54.5637C94.9421 54.5637 94.6875 54.3095 94.6875 53.9952V51.3942C94.6875 49.1286 96.5312 47.2852 98.7968 47.2852H110.532C110.846 47.2852 111.1 47.5398 111.1 47.8539C111.1 48.1678 110.846 48.4225 110.532 48.4225H98.7968C97.158 48.4225 95.8248 49.7556 95.8248 51.3942V53.9952C95.8248 54.3095 95.5702 54.5637 95.256 54.5637V54.5637Z" fill="#66509E"/>
<path d="M112.736 50.5119C111.263 50.5119 110.068 49.3175 110.068 47.8438C110.068 46.3704 111.263 45.1758 112.736 45.1758C114.209 45.1758 115.404 46.3704 115.404 47.8438C115.404 49.3175 114.209 50.5119 112.736 50.5119Z" fill="#807DBB"/>
<path d="M112.719 45.7858C111.561 45.7858 110.62 46.7275 110.62 47.8853C110.62 49.0428 111.561 49.9845 112.719 49.9845C113.877 49.9845 114.818 49.0428 114.818 47.8853C114.818 46.7275 113.877 45.7858 112.719 45.7858V45.7858ZM112.719 51.1216C110.934 51.1216 109.482 49.6697 109.482 47.8853C109.482 46.1004 110.934 44.6484 112.719 44.6484C114.504 44.6484 115.956 46.1004 115.956 47.8853C115.956 49.6697 114.504 51.1216 112.719 51.1216V51.1216Z" fill="#66509E"/>
<path d="M105.324 57.2502C103.851 57.2502 102.656 56.0555 102.656 54.5821C102.656 53.1085 103.851 51.9141 105.324 51.9141C106.798 51.9141 107.992 53.1085 107.992 54.5821C107.992 56.0555 106.798 57.2502 105.324 57.2502Z" fill="#EE445B"/>
<path d="M105.336 52.4652C104.179 52.4652 103.237 53.4067 103.237 54.5645C103.237 55.722 104.179 56.664 105.336 56.664C106.494 56.664 107.435 55.722 107.435 54.5645C107.435 53.4067 106.494 52.4652 105.336 52.4652ZM105.336 57.8011C103.551 57.8011 102.1 56.3491 102.1 54.5645C102.1 52.7801 103.551 51.3281 105.336 51.3281C107.121 51.3281 108.573 52.7801 108.573 54.5645C108.573 56.3491 107.121 57.8011 105.336 57.8011Z" fill="#66509E"/>
<path d="M55.5309 11.8783C55.5309 8.10101 52.4695 5.03906 48.6917 5.03906H39.728C39.728 5.59565 39.8846 6.16931 40.1505 6.70223C38.6244 7.18199 37.4707 8.62272 37.4707 10.6871V17.2183L41.9609 16.6461L55.5309 17.2186V11.8783V11.8783Z" fill="#807DBB"/>
<path d="M41.9435 16.0604C41.9516 16.0604 41.9594 16.0604 41.9674 16.0609L54.945 16.6082V11.8609C54.945 8.40337 52.1321 5.5902 48.6743 5.5902H40.3421C40.4011 5.86752 40.5023 6.15142 40.6418 6.43142C40.7162 6.58044 40.7214 6.75434 40.656 6.90752C40.5911 7.06069 40.4621 7.17752 40.3033 7.22752C38.896 7.6702 38.0218 8.98922 38.0218 10.67V16.5553L41.8716 16.0651C41.8953 16.0619 41.9194 16.0604 41.9435 16.0604V16.0604ZM55.5135 17.7697C55.506 17.7697 55.4977 17.7697 55.4896 17.7692L41.9674 17.199L37.525 17.7648C37.3631 17.7863 37.1999 17.7356 37.0772 17.6278C36.9548 17.5197 36.8848 17.3643 36.8848 17.2012V10.67C36.8848 8.73971 37.8472 7.11654 39.3843 6.37215C39.2248 5.91825 39.1418 5.45971 39.1418 5.02166C39.1418 4.70776 39.3965 4.45312 39.7106 4.45312H48.6743C52.7589 4.45312 56.0821 7.7763 56.0821 11.8609V17.2012C56.0821 17.3563 56.0192 17.5043 55.9072 17.6117C55.8011 17.7131 55.6599 17.7697 55.5135 17.7697V17.7697Z" fill="#66509E"/>
<path d="M40.1319 14.5571V13.8503C40.1319 10.9257 42.5027 8.55469 45.4275 8.55469H47.6117C50.5361 8.55469 52.9066 10.9257 52.9066 13.8503V14.5591C54.3592 14.5793 55.5309 15.7613 55.5309 17.2188C55.5309 18.6762 54.3592 19.8583 52.9066 19.8786V20.5874C52.9066 23.512 50.5361 25.8822 47.6117 25.8822H45.4275C42.5027 25.8822 40.1319 23.512 40.1319 20.5874V19.8805C38.6619 19.8805 37.4707 18.6888 37.4707 17.2188C37.4707 15.7486 38.6619 14.5571 40.1319 14.5571V14.5571Z" fill="white"/>
<path d="M45.4101 9.10582C42.8035 9.10582 40.6833 11.2263 40.6833 13.8327V14.5395C40.6833 14.8536 40.4287 15.108 40.1145 15.108C38.9606 15.108 38.0218 16.0468 38.0218 17.2012C38.0218 18.3551 38.9606 19.2944 40.1145 19.2944C40.4287 19.2944 40.6833 19.549 40.6833 19.8629V20.5697C40.6833 23.1758 42.8035 25.2961 45.4101 25.2961H47.5943C50.2004 25.2961 52.3206 23.1758 52.3206 20.5697V19.8609C52.3206 19.55 52.5701 19.2968 52.8813 19.2924C54.0192 19.2768 54.945 18.3385 54.945 17.2012C54.945 16.0639 54.0192 15.1258 52.8813 15.1102C52.5701 15.1056 52.3206 14.8524 52.3206 14.5417V13.8327C52.3206 11.2263 50.2004 9.10582 47.5943 9.10582H45.4101V9.10582ZM47.5943 26.4331H45.4101C42.1765 26.4331 39.5462 23.8029 39.5462 20.5697V20.3814C38.035 20.1119 36.8848 18.7885 36.8848 17.2012C36.8848 15.6139 38.035 14.2902 39.5462 14.0212V13.8327C39.5462 10.5992 42.1765 7.96875 45.4101 7.96875H47.5943C50.8272 7.96875 53.4577 10.5992 53.4577 13.8327V14.0302C54.9474 14.3166 56.0821 15.6366 56.0821 17.2012C56.0821 18.7656 54.9474 20.0861 53.4577 20.3724V20.5697C53.4577 23.8029 50.8272 26.4331 47.5943 26.4331Z" fill="#66509E"/>
<path d="M73.2853 8.77286C73.2853 4.99555 70.2234 1.93359 66.4461 1.93359H57.4824C57.4824 2.49018 57.6388 3.06408 57.9044 3.59676C56.3785 4.07652 55.2246 5.51701 55.2246 7.58189V14.1126L59.7151 13.5409L73.2853 14.1129V8.77286Z" fill="#EE445B"/>
<path d="M59.6975 12.9547C59.7055 12.9547 59.714 12.955 59.7216 12.9555L72.6994 13.5025V8.75546C72.6994 5.29766 69.8865 2.48473 66.4287 2.48473H58.0962C58.1555 2.76205 58.2565 3.04571 58.3957 3.32546C58.4701 3.47473 58.4755 3.64839 58.4104 3.80156C58.3453 3.95473 58.2165 4.0718 58.0577 4.1218C56.6501 4.56424 55.7757 5.88327 55.7757 7.56449V13.4499L59.6257 12.9594C59.6499 12.9564 59.6735 12.9547 59.6975 12.9547ZM73.2679 14.664C73.2599 14.664 73.2518 14.6638 73.2438 14.6638L59.7218 14.0935L55.2789 14.6594C55.1175 14.6816 54.9543 14.6301 54.8316 14.5218C54.7089 14.414 54.6387 14.2586 54.6387 14.0952V7.56449C54.6387 5.634 55.6011 4.01083 57.1382 3.26644C56.9792 2.81253 56.8965 2.35424 56.8965 1.91619C56.8965 1.60205 57.1509 1.34766 57.465 1.34766H66.4287C70.5133 1.34766 73.8365 4.67083 73.8365 8.75546V14.0955C73.8365 14.2503 73.7733 14.3989 73.6616 14.5062C73.5555 14.6077 73.414 14.664 73.2679 14.664V14.664Z" fill="#66509E"/>
<path d="M57.8863 11.4512V10.7446C57.8863 7.81995 60.2571 5.44922 63.1817 5.44922H65.3661C68.2902 5.44922 70.6607 7.81995 70.6607 10.7446V11.4534C72.1134 11.4736 73.2853 12.6558 73.2853 14.1129C73.2853 15.5707 72.1134 16.7526 70.6607 16.7729V17.4817C70.6607 20.4063 68.2902 22.7768 65.3661 22.7768H63.1817C60.2571 22.7768 57.8863 20.4063 57.8863 17.4817V16.7748C56.4166 16.7748 55.2246 15.5831 55.2246 14.1129C55.2246 12.6431 56.4166 11.4512 57.8863 11.4512V11.4512Z" fill="white"/>
<path d="M63.1643 6.00035C60.5577 6.00035 58.4375 8.1206 58.4375 10.7272V11.4338C58.4375 11.7479 58.1828 12.0023 57.8689 12.0023C56.7148 12.0023 55.7757 12.9416 55.7757 14.0957C55.7757 15.2499 56.7148 16.1886 57.8689 16.1886C58.1828 16.1886 58.4375 16.4433 58.4375 16.7574V17.4643C58.4375 20.0706 60.5577 22.1908 63.1643 22.1908H65.3487C67.9548 22.1908 70.0748 20.0706 70.0748 17.4643V16.7555C70.0748 16.4445 70.3245 16.1913 70.6353 16.1869C71.7735 16.1711 72.6994 15.233 72.6994 14.0957C72.6994 12.9584 71.7735 12.0204 70.6357 12.0045C70.3245 12.0001 70.0748 11.7469 70.0748 11.436V10.7272C70.0748 8.1206 67.9548 6.00035 65.3487 6.00035H63.1643V6.00035ZM65.3487 23.3279H63.1643C59.9306 23.3279 57.3001 20.6977 57.3001 17.4643V17.276C55.7894 17.0065 54.6387 15.6828 54.6387 14.0957C54.6387 12.5086 55.7894 11.1847 57.3001 10.9155V10.7272C57.3001 7.49377 59.9306 4.86328 63.1643 4.86328H65.3487C68.5816 4.86328 71.2118 7.49377 71.2118 10.7272V10.9245C72.7018 11.2108 73.8365 12.5311 73.8365 14.0957C73.8365 15.6601 72.7018 16.9806 71.2118 17.2667V17.4643C71.2118 20.6977 68.5816 23.3279 65.3487 23.3279Z" fill="#66509E"/>
<path d="M78.9263 26.7979H77.5729C75.3105 26.7979 73.4766 24.9638 73.4766 22.7016V21.1314V18.9275V12.1592C73.4766 8.42111 76.5624 5.39062 80.369 5.39062H82.6127C86.4188 5.39062 89.5049 8.42111 89.5049 12.1592V22.7016C89.5049 24.9638 87.6707 26.7979 85.4088 26.7979H84.3956H78.9263V26.7979Z" fill="#EE445B"/>
<path d="M80.3809 6.00035C76.8938 6.00035 74.057 8.78206 74.057 12.2006V22.7428C74.057 24.6879 75.6397 26.2706 77.5848 26.2706H85.4207C87.3655 26.2706 88.9482 24.6879 88.9482 22.7428V12.2006C88.9482 8.78206 86.1116 6.00035 82.6248 6.00035H80.3809V6.00035ZM85.4207 27.4077H77.5848C75.0129 27.4077 72.9199 25.315 72.9199 22.7428V12.2006C72.9199 8.15474 76.2668 4.86328 80.3809 4.86328H82.6248C86.7385 4.86328 90.0853 8.15474 90.0853 12.2006V22.7428C90.0853 25.315 87.9926 27.4077 85.4207 27.4077Z" fill="#66509E"/>
<path d="M81.4905 8.26172V9.64465C81.4905 12.3395 79.2661 14.5242 76.5217 14.5242H75.7205C74.4814 14.5242 73.4766 15.5107 73.4766 16.7276C73.4766 17.9446 74.4814 18.9315 75.7205 18.9315V20.1905C75.7205 22.7988 77.8734 24.9129 80.529 24.9129H82.4527C85.1083 24.9129 87.2605 22.7988 87.2605 20.1905V18.9315C88.5 18.9315 89.5049 17.9446 89.5049 16.7276C89.5049 15.5107 88.5 14.5242 87.2605 14.5242H82.7727V11.5334C82.7727 10.2746 82.2878 9.12733 81.4905 8.26172V8.26172Z" fill="white"/>
<path d="M75.7324 15.1339C74.8089 15.1339 74.0575 15.8676 74.0575 16.769C74.0575 17.6707 74.8089 18.4042 75.7324 18.4042C76.0465 18.4042 76.3009 18.6585 76.3009 18.9727V20.2317C76.3009 22.5222 78.2033 24.3856 80.5409 24.3856H82.4646C84.8021 24.3856 86.7038 22.5222 86.7038 20.2317V18.9727C86.7038 18.6585 86.9582 18.4042 87.2724 18.4042C88.1965 18.4042 88.9482 17.6707 88.9482 16.769C88.9482 15.8676 88.1965 15.1339 87.2724 15.1339H82.7846C82.4709 15.1339 82.2163 14.8795 82.2163 14.5654V11.5744C82.2163 11.1515 82.1533 10.7351 82.0316 10.3373C81.7036 13.0354 79.3631 15.1339 76.5336 15.1339H75.7324V15.1339ZM82.4646 25.5227H80.5409C77.576 25.5227 75.1641 23.149 75.1641 20.2317V19.4844C73.8848 19.2244 72.9199 18.1056 72.9199 16.769C72.9199 15.2403 74.1821 13.9968 75.7324 13.9968H76.5336C78.9599 13.9968 80.9338 12.0629 80.9338 9.68586V8.30294C80.9338 8.06855 81.0775 7.8583 81.2958 7.77318C81.5136 7.6883 81.7621 7.74538 81.9209 7.91781C82.8443 8.92099 83.3531 10.2195 83.3531 11.5744V13.9968H87.2724C88.8233 13.9968 90.0853 15.2403 90.0853 16.769C90.0853 18.1056 89.1204 19.2244 87.8411 19.4846V20.2317C87.8411 23.149 85.4289 25.5227 82.4646 25.5227Z" fill="#66509E"/>
<path d="M82.3085 22.7765C82.3085 18.9995 79.2468 15.9375 75.4695 15.9375H66.5054C66.5054 16.4943 66.6624 17.068 66.9278 17.6007C65.4022 18.0804 64.248 19.5212 64.248 21.586V28.1168L68.7388 27.5446L82.3085 28.1168V22.7765Z" fill="#807DBB"/>
<path d="M68.7509 26.9586C68.7585 26.9586 68.7668 26.9589 68.7743 26.9591L81.7521 27.5064V22.7594C81.7521 19.3018 78.9395 16.4886 75.4816 16.4886H67.149C67.2082 16.766 67.3092 17.0496 67.449 17.3296C67.5231 17.4784 67.5287 17.6525 67.4634 17.8055C67.3982 17.9589 67.2692 18.0757 67.1104 18.1257C65.7029 18.5681 64.8287 19.8872 64.8287 21.5684V27.454L68.6787 26.9633C68.7026 26.9601 68.7268 26.9586 68.7509 26.9586V26.9586ZM82.3207 28.6681C82.3129 28.6681 82.3048 28.6679 82.297 28.6674L68.7746 28.0972L64.3319 28.6633C64.1699 28.6852 64.0068 28.6338 63.8841 28.526C63.7617 28.4181 63.6914 28.2625 63.6914 28.0994V21.5684C63.6914 19.6381 64.6543 18.0145 66.1912 17.2703C66.0316 16.8164 65.9492 16.3579 65.9492 15.9201C65.9492 15.606 66.2038 15.3516 66.5175 15.3516H75.4816C79.566 15.3516 82.8892 18.6745 82.8892 22.7594V28.0996C82.8892 28.2545 82.826 28.4025 82.7143 28.5101C82.6082 28.6118 82.4673 28.6681 82.3207 28.6681Z" fill="#66509E"/>
<path d="M66.9095 25.4553V24.7485C66.9095 21.8239 69.2805 19.4531 72.2049 19.4531H74.389C77.3137 19.4531 79.6839 21.8239 79.6839 24.7485V25.4573C81.1371 25.4775 82.309 26.6595 82.309 28.117C82.309 29.5746 81.1371 30.7565 79.6839 30.7768V31.4858C79.6839 34.4102 77.3137 36.7807 74.389 36.7807H72.2049C69.2805 36.7807 66.9095 34.4102 66.9095 31.4858V30.7787C65.4395 30.7787 64.248 29.587 64.248 28.117C64.248 26.647 65.4395 25.4553 66.9095 25.4553Z" fill="white"/>
<path d="M72.217 20.0045C69.6109 20.0045 67.4907 22.125 67.4907 24.7313V25.4382C67.4907 25.7523 67.236 26.0069 66.9216 26.0069C65.7675 26.0069 64.8287 26.9457 64.8287 28.0999C64.8287 29.254 65.7675 30.193 66.9216 30.193C67.236 30.193 67.4907 30.4474 67.4907 30.7616V31.4687C67.4907 34.0747 69.6109 36.1947 72.217 36.1947H74.4012C77.0075 36.1947 79.1275 34.0747 79.1275 31.4687V30.7596C79.1275 30.4489 79.3777 30.1955 79.6882 30.1911C80.8265 30.1752 81.7526 29.2369 81.7526 28.0999C81.7526 26.9628 80.8265 26.0245 79.6882 26.0087C79.3777 26.0043 79.1275 25.7511 79.1275 25.4401V24.7313C79.1275 22.125 77.0075 20.0045 74.4012 20.0045H72.217V20.0045ZM74.4012 37.3321H72.217C68.9838 37.3321 66.3531 34.7016 66.3531 31.4687V31.2799C64.8421 31.0108 63.6914 29.6872 63.6914 28.0999C63.6914 26.5126 64.8421 25.1891 66.3531 24.9199V24.7313C66.3531 21.4979 68.9838 18.8672 72.217 18.8672H74.4012C77.6343 18.8672 80.2651 21.4979 80.2651 24.7313V24.9287C81.7548 25.2152 82.8895 26.5357 82.8895 28.0999C82.8895 29.6643 81.7548 30.9845 80.2651 31.2711V31.4687C80.2651 34.7016 77.6343 37.3321 74.4012 37.3321Z" fill="#66509E"/>
<path d="M53.0479 37.5204H47.5984C47.5825 37.5204 47.5667 37.5204 47.5506 37.5201C45.7567 37.4913 44.984 35.1804 46.4252 34.1306C47.136 33.6133 47.5984 32.7843 47.5984 31.8538V29.6501V22.8818C47.5984 19.1438 50.6842 16.1133 54.4906 16.1133H56.7347C60.5406 16.1133 63.6267 19.1438 63.6267 22.8818V31.8538C63.6267 32.7843 64.0894 33.6133 64.7999 34.1306C66.2411 35.1804 65.4682 37.4913 63.6743 37.5201C63.6584 37.5204 63.6425 37.5204 63.6267 37.5204H58.5174H53.0479V37.5204Z" fill="#EE445B"/>
<path d="M54.503 16.6644C51.0162 16.6644 48.1794 19.4459 48.1794 22.8647V31.8364C48.1794 32.9086 47.6533 33.9317 46.7723 34.5732C46.2321 34.9661 46.1845 35.5632 46.3201 35.991C46.4621 36.4395 46.8657 36.923 47.5721 36.9339L47.6108 36.9342L63.6804 36.9339C64.3843 36.923 64.7877 36.4395 64.9299 35.991C65.0652 35.5632 65.0177 34.9661 64.4774 34.5732C63.5965 33.9312 63.0706 32.9083 63.0706 31.8364V22.8647C63.0706 19.4459 60.234 16.6644 56.7472 16.6644H54.503V16.6644ZM63.6391 38.0715H47.5565C46.4745 38.0539 45.5645 37.3722 45.236 36.3342C44.9157 35.3227 45.2557 34.2705 46.103 33.6534C46.6911 33.2254 47.0423 32.5461 47.0423 31.8364V22.8647C47.0423 18.8188 50.3891 15.5273 54.503 15.5273H56.7472C60.8608 15.5273 64.2077 18.8188 64.2077 22.8647V31.8364C64.2077 32.5461 64.5589 33.2251 65.1469 33.6537C65.9938 34.2705 66.3343 35.3227 66.014 36.3342C65.6852 37.3722 64.7755 38.0539 63.6957 38.0715H63.6391V38.0715Z" fill="#66509E"/>
<path d="M55.6211 18.9844V20.3673C55.6211 23.0619 53.3967 25.2468 50.6523 25.2468H49.8511C48.6121 25.2468 47.6074 26.2332 47.6074 27.4502C47.6074 28.6671 48.6121 29.6541 49.8511 29.6541V30.9132C49.8511 33.5212 52.004 35.6351 54.6596 35.6351H56.5828C59.2389 35.6351 61.3911 33.5212 61.3911 30.9132V29.6541C62.6306 29.6541 63.6355 28.6671 63.6355 27.4502C63.6355 26.2332 62.6306 25.2468 61.3911 25.2468H56.9035V22.2558C56.9035 20.9973 56.4184 19.85 55.6211 18.9844V18.9844Z" fill="white"/>
<path d="M49.8632 25.798C48.9398 25.798 48.1883 26.5312 48.1883 27.4329C48.1883 28.3346 48.9398 29.0683 49.8632 29.0683C50.1774 29.0683 50.4318 29.3227 50.4318 29.6368V30.8958C50.4318 33.1863 52.334 35.0495 54.6718 35.0495H56.5949C58.9327 35.0495 60.8347 33.1863 60.8347 30.8958V29.6368C60.8347 29.3227 61.0893 29.0683 61.4032 29.0683C62.3271 29.0683 63.0791 28.3346 63.0791 27.4329C63.0791 26.5312 62.3271 25.798 61.4032 25.798H56.9154C56.6018 25.798 56.3471 25.5434 56.3471 25.2295V22.2385C56.3471 21.8156 56.2842 21.399 56.1625 21.0014C55.8344 23.6992 53.494 25.798 50.6644 25.798H49.8632V25.798ZM56.5949 36.1866H54.6718C51.7066 36.1866 49.2949 33.8131 49.2949 30.8958V30.1485C48.0157 29.8885 47.0508 28.7697 47.0508 27.4329C47.0508 25.9041 48.3125 24.6607 49.8632 24.6607H50.6644C53.0908 24.6607 55.0647 22.7268 55.0647 20.35V18.9668C55.0647 18.7327 55.2083 18.5224 55.4266 18.4373C55.6447 18.3524 55.893 18.4092 56.0518 18.5817C56.9752 19.5851 57.4842 20.8836 57.4842 22.2385V24.6607H61.4032C62.9542 24.6607 64.2161 25.9041 64.2161 27.4329C64.2161 28.7697 63.2513 29.8885 61.972 30.1485V30.8958C61.972 33.8131 59.5598 36.1866 56.5949 36.1866V36.1866Z" fill="#66509E"/>
<path d="M89.2619 95.1562H89.1909H81.799H81.728C76.6256 95.1562 72.4512 99.1684 72.4512 104.071V106.693C72.4512 108.812 74.1826 110.529 76.318 110.529H94.6717C96.8073 110.529 98.5387 108.812 98.5387 106.693V105.281V104.071C98.5387 99.1684 94.3643 95.1562 89.2619 95.1562Z" fill="white"/>
<path d="M81.7401 95.7069C76.9387 95.7069 73.0318 99.4508 73.0318 104.053V106.675C73.0318 108.478 74.5114 109.943 76.3301 109.943H94.6838C96.5023 109.943 97.9823 108.478 97.9823 106.675V104.053C97.9823 99.4508 94.0755 95.7069 89.274 95.7069H81.7401V95.7069ZM94.6838 111.083H76.3301C73.8848 111.083 71.8945 109.104 71.8945 106.675V104.053C71.8945 98.824 76.3111 94.5703 81.7401 94.5703H89.274C94.7028 94.5703 99.1194 98.824 99.1194 104.053V106.675C99.1194 109.104 97.1299 111.083 94.6838 111.083V111.083Z" fill="#66509E"/>
<path d="M89.2012 93.75V95.3841C89.2012 96.7671 87.5219 97.8963 85.4697 97.8963C83.4175 97.8963 81.7383 96.7671 81.7383 95.3841V93.75H89.2012V93.75Z" fill="white"/>
<path d="M85.4816 98.447C83.1104 98.447 81.1816 97.0665 81.1816 95.3665V93.7324C81.1816 93.418 81.4363 93.1641 81.7502 93.1641C82.0643 93.1641 82.319 93.418 82.319 93.7324V95.3665C82.319 96.4202 83.7672 97.3104 85.4816 97.3104C87.1958 97.3104 88.6446 96.4202 88.6446 95.3665V93.7324C88.6446 93.418 88.899 93.1641 89.2131 93.1641C89.527 93.1641 89.7816 93.418 89.7816 93.7324V95.3665C89.7816 97.0665 87.8526 98.447 85.4816 98.447V98.447Z" fill="#66509E"/>
<path d="M96.7818 83.5145V75.3411C96.7818 72.756 95.3957 70.9713 93.4852 70.3711H87.627V83.5145H96.7818V83.5145Z" fill="#EE445B"/>
<path d="M88.1781 82.9291H96.1959V75.3237C96.1959 73.1869 95.1186 71.5088 93.3776 70.9225H88.1781V82.9291V82.9291ZM96.7644 84.0654H87.6096C87.2959 84.0654 87.041 83.8117 87.041 83.4971V70.3537C87.041 70.0398 87.2959 69.7852 87.6096 69.7852H93.4678C93.5254 69.7852 93.5832 69.7942 93.6381 69.8113C95.9171 70.5273 97.3332 72.6393 97.3332 75.3237V83.4971C97.3332 83.8117 97.0786 84.0654 96.7644 84.0654V84.0654Z" fill="#66509E"/>
<path d="M89.4426 73.1981C91.7831 73.1981 93.9587 70.6029 93.9587 68.2617H82.7397C78.0116 68.2617 74.1797 72.0939 74.1797 76.8217V83.5044L89.4426 73.1981Z" fill="#EE445B"/>
<path d="M74.1623 84.1139C73.8481 84.1139 73.5938 83.8602 73.5938 83.5456V76.8629C73.5938 71.8293 77.6886 67.7344 82.7223 67.7344H93.9413C94.2552 67.7344 94.5098 67.989 94.5098 68.3029C94.5098 71.0812 91.9913 73.808 89.4252 73.808C89.1111 73.808 88.8567 73.5534 88.8567 73.2393C88.8567 72.9251 89.1111 72.6707 89.4252 72.6707C91.1725 72.6707 93.012 70.808 93.3257 68.8714H82.7223C78.3155 68.8714 74.7306 72.4563 74.7306 76.8629V83.5456C74.7306 83.8602 74.4762 84.1139 74.1623 84.1139V84.1139Z" fill="#66509E"/>
<path d="M93.3679 80.2492V79.3553C93.3679 75.655 90.3687 72.6562 86.6687 72.6562H83.9057C80.206 72.6562 77.2067 75.655 77.2067 79.3553V80.2519C75.3687 80.277 73.8867 81.7731 73.8867 83.6167C73.8867 85.4606 75.3687 86.9558 77.2067 86.9826V87.2558C77.2067 91.2997 80.4843 94.578 84.5277 94.578H86.0465C90.0899 94.578 93.3679 91.2997 93.3679 87.2558V86.985C95.2277 86.985 96.735 85.4753 96.735 83.6167C96.735 81.7567 95.2277 80.2492 93.3679 80.2492V80.2492Z" fill="white"/>
<path d="M83.8883 73.266C80.5076 73.266 77.7579 76.0162 77.7579 79.3967V80.2931C77.7579 80.6038 77.5076 80.8572 77.1969 80.8616C75.6757 80.8826 74.4379 82.1367 74.4379 83.6579C74.4379 85.1799 75.6757 86.4335 77.1969 86.4555C77.5076 86.4579 77.7579 86.7116 77.7579 87.0238V87.297C77.7579 91.0216 80.7869 94.0506 84.5103 94.0506H86.0291C89.7527 94.0506 92.782 91.0216 92.782 87.297V87.0262C92.782 86.7116 93.0366 86.4579 93.3505 86.4579C94.8935 86.4579 96.1491 85.2018 96.1491 83.6579C96.1491 82.1145 94.8935 80.8592 93.3505 80.8592C93.0366 80.8592 92.782 80.6045 92.782 80.2906V79.3967C92.782 76.0162 90.0318 73.266 86.6513 73.266H83.8883V73.266ZM86.0291 95.1872H84.5103C80.2425 95.1872 76.7554 91.7799 76.6242 87.5433C74.7474 87.2482 73.3008 85.6092 73.3008 83.6579C73.3008 81.7089 74.7454 80.0711 76.6208 79.7726V79.3967C76.6208 75.3892 79.8808 72.1289 83.8883 72.1289H86.6513C90.6586 72.1289 93.9191 75.3892 93.9191 79.3967V79.7628C95.8205 80.0392 97.2861 81.6804 97.2861 83.6579C97.2861 85.636 95.8186 87.2799 93.9149 87.5531C93.7791 91.785 90.294 95.1872 86.0291 95.1872V95.1872Z" fill="#66509E"/>
<path d="M87.984 88.9453C86.5018 90.4282 84.0994 90.4282 82.6172 88.9453H87.984Z" fill="white"/>
<path d="M85.3121 90.6088C84.1467 90.6088 83.0511 90.1553 82.2272 89.331C82.005 89.1088 82.005 88.7478 82.2272 88.5258C82.4491 88.3039 82.8091 88.3039 83.0313 88.5258C83.6406 89.1356 84.4509 89.4722 85.3121 89.4722C86.174 89.4722 86.984 89.1356 87.5933 88.5258C87.8152 88.3039 88.1755 88.3039 88.3974 88.5258C88.6196 88.7478 88.6196 89.1088 88.3977 89.331C87.5733 90.1553 86.4777 90.6088 85.3121 90.6088Z" fill="#66509E"/>
<path d="M113.201 91.8395H100.998C100.684 91.8395 100.43 91.5858 100.43 91.2712C100.43 90.9565 100.684 90.7031 100.998 90.7031H113.201C113.515 90.7031 113.77 90.9565 113.77 91.2712C113.77 91.5858 113.515 91.8395 113.201 91.8395V91.8395Z" fill="#66509E"/>
<path d="M110.127 95.1875C109.973 95.1875 109.82 95.1265 109.708 95.0045C109.495 94.7731 109.51 94.4143 109.741 94.1997L112.908 91.2826L109.724 88.3509C109.493 88.1362 109.479 87.7777 109.691 87.546C109.904 87.3143 110.263 87.3021 110.495 87.5143L114.115 90.8484C114.232 90.9584 114.307 91.117 114.307 91.2753C114.307 91.4338 114.25 91.5948 114.133 91.7021L110.511 95.0362C110.402 95.1389 110.264 95.1875 110.127 95.1875V95.1875Z" fill="#66509E"/>
<path d="M69.6067 91.8395H57.4045C57.0908 91.8395 56.8359 91.5858 56.8359 91.2712C56.8359 90.9565 57.0908 90.7031 57.4045 90.7031H69.6067C69.9206 90.7031 70.1752 90.9565 70.1752 91.2712C70.1752 91.5858 69.9206 91.8395 69.6067 91.8395Z" fill="#66509E"/>
<path d="M60.4979 95.1875C60.3603 95.1875 60.222 95.1389 60.1127 95.0362L56.4923 91.7021C56.3749 91.5923 56.3086 91.4411 56.3086 91.2826C56.3093 91.1216 56.3762 90.9704 56.4942 90.8631L60.1298 87.5143C60.3605 87.3021 60.7205 87.3143 60.9332 87.546C61.1457 87.7777 61.1315 88.1362 60.9003 88.3509L57.7169 91.2826L60.8832 94.1997C61.1142 94.4143 61.1291 94.7731 60.9164 95.0045C60.8042 95.1265 60.6513 95.1875 60.4979 95.1875V95.1875Z" fill="#66509E"/>
<path d="M100.471 80.9568C100.325 80.9568 100.18 80.9012 100.069 80.7902C99.8469 80.5683 99.8469 80.2083 100.069 79.9861L108.697 71.3581C108.919 71.1359 109.28 71.1359 109.501 71.3581C109.723 71.58 109.723 71.94 109.501 72.162L100.873 80.7902C100.762 80.9012 100.616 80.9568 100.471 80.9568V80.9568Z" fill="#66509E"/>
<path d="M109.283 76.8954C109.276 76.8954 109.268 76.8951 109.26 76.8946C108.946 76.8819 108.702 76.6171 108.715 76.3034L108.891 72.001L104.566 72.1783C104.248 72.1944 103.988 71.9471 103.975 71.6334C103.962 71.3197 104.206 71.0549 104.52 71.0422L109.439 70.8405C109.598 70.8329 109.763 70.8936 109.875 71.0061C109.988 71.1185 110.059 71.2722 110.053 71.431L109.851 76.3497C109.839 76.6556 109.587 76.8954 109.283 76.8954V76.8954Z" fill="#66509E"/>
<path d="M70.1343 80.9568C69.989 80.9568 69.8434 80.9012 69.7324 80.7902L61.1043 72.162C60.8819 71.94 60.8819 71.58 61.1043 71.3581C61.3258 71.1359 61.686 71.1359 61.908 71.3581L70.5365 79.9861C70.7587 80.2083 70.7587 80.5683 70.5365 80.7902C70.4255 80.9012 70.2797 80.9568 70.1343 80.9568V80.9568Z" fill="#66509E"/>
<path d="M61.3266 76.9187C61.023 76.9187 60.7715 76.6794 60.7588 76.3736L60.5571 71.4548C60.5505 71.296 60.6103 71.1302 60.7227 71.018C60.8347 70.9055 60.9874 70.8326 61.1476 70.8404L66.0664 71.0424C66.3801 71.0548 66.624 71.3197 66.6113 71.6333C66.5981 71.9472 66.3345 72.1948 66.0196 72.1782L61.7176 72.0019L61.8947 76.327C61.9079 76.6407 61.664 76.9055 61.3501 76.9182C61.3425 76.9185 61.334 76.9187 61.3266 76.9187V76.9187Z" fill="#66509E"/>
<path d="M61.5058 111.614C61.3609 111.614 61.2151 111.558 61.1043 111.449C60.8819 111.227 60.8819 110.866 61.1043 110.644L67.4597 104.288C67.6814 104.066 68.0414 104.066 68.2634 104.288C68.4855 104.51 68.4855 104.87 68.2634 105.092L61.908 111.449C61.7973 111.558 61.6514 111.614 61.5058 111.614V111.614Z" fill="#66509E"/>
<path d="M61.148 111.992C60.9963 111.992 60.8414 111.933 60.7346 111.826C60.6221 111.714 60.5509 111.56 60.557 111.402L60.7587 106.482C60.7716 106.17 61.0343 105.921 61.3502 105.938C61.6638 105.951 61.9077 106.216 61.8951 106.529L61.7187 110.831L66.0438 110.655C66.3572 110.636 66.6219 110.885 66.6353 111.199C66.648 111.514 66.4041 111.777 66.0902 111.79L61.1711 111.992C61.1633 111.992 61.1555 111.992 61.148 111.992V111.992Z" fill="#66509E"/>
<path d="M109.111 111.614C108.966 111.614 108.82 111.558 108.71 111.449L102.354 105.092C102.132 104.87 102.132 104.51 102.354 104.288C102.576 104.066 102.936 104.066 103.158 104.288L109.514 110.644C109.736 110.866 109.736 111.227 109.514 111.449C109.403 111.558 109.257 111.614 109.111 111.614V111.614Z" fill="#66509E"/>
<path d="M109.485 111.994C109.477 111.994 109.469 111.994 109.462 111.994L104.52 111.79C104.206 111.777 103.962 111.514 103.975 111.199C103.988 110.885 104.251 110.638 104.566 110.655L108.891 110.831L108.715 106.529C108.702 106.216 108.946 105.951 109.26 105.938C109.576 105.921 109.838 106.17 109.851 106.482L110.053 111.402C110.059 111.56 109.999 111.714 109.887 111.826C109.78 111.933 109.635 111.994 109.485 111.994V111.994Z" fill="#66509E"/>
</svg>
