<svg width="28" height="28" viewBox="0 0 28 28" fill="none" xmlns="http://www.w3.org/2000/svg">
<circle cx="19.9043" cy="8.5" r="6.5" fill="#F04784"/>
<path d="M18.4154 4.91079C18.0309 4.92829 17.7684 4.98925 17.5388 5.07851C17.3014 5.17069 17.1001 5.29436 16.8991 5.49505C16.6984 5.69573 16.5748 5.89699 16.4826 6.13472C16.3933 6.36428 16.3324 6.6268 16.3148 7.01124C16.2971 7.39627 16.293 7.51937 16.293 8.50003C16.293 9.48068 16.2971 9.60378 16.3148 9.98881C16.3324 10.3733 16.3933 10.6358 16.4826 10.8653C16.5748 11.1028 16.6981 11.3043 16.8991 11.505C17.0998 11.7057 17.3011 11.8291 17.5388 11.9215C17.7687 12.0108 18.0309 12.0718 18.4154 12.0893C18.8007 12.1068 18.9235 12.1111 19.9042 12.1111C20.8852 12.1111 21.008 12.1071 21.3931 12.0893C21.7775 12.0718 22.0401 12.0108 22.2696 11.9215C22.5071 11.8291 22.7083 11.7057 22.9093 11.505C23.11 11.3043 23.2334 11.1028 23.3259 10.8653C23.4151 10.6358 23.4764 10.3733 23.4936 9.98881C23.5111 9.60349 23.5152 9.48069 23.5152 8.50003C23.5152 7.51937 23.5111 7.39627 23.4936 7.01124C23.4761 6.6268 23.4151 6.36428 23.3259 6.13472C23.2334 5.89728 23.11 5.69602 22.9093 5.49505C22.7086 5.29436 22.5071 5.17069 22.2699 5.07851C22.0401 4.98925 21.7775 4.928 21.3934 4.91079C21.0083 4.89329 20.8852 4.88892 19.9045 4.88892C18.9235 4.88892 18.8007 4.893 18.4154 4.91079H18.4154ZM18.4451 11.4394C18.0931 11.4233 17.9017 11.3647 17.7745 11.3151C17.6059 11.2495 17.4857 11.1713 17.3591 11.045C17.2328 10.9187 17.1544 10.7985 17.089 10.6299C17.0394 10.5028 16.9808 10.3114 16.9648 9.95934C16.9473 9.57869 16.9438 9.46435 16.9438 8.50002C16.9438 7.5357 16.9475 7.42165 16.9648 7.04071C16.9808 6.68864 17.0397 6.49758 17.089 6.37011C17.1547 6.20152 17.2328 6.08134 17.3591 5.95475C17.4854 5.82845 17.6056 5.74998 17.7745 5.68464C17.9017 5.63506 18.0931 5.57643 18.4451 5.56038C18.8258 5.54288 18.9402 5.53938 19.9042 5.53938C20.8686 5.53938 20.9826 5.54317 21.3636 5.56038C21.7157 5.57643 21.9068 5.63535 22.0342 5.68464C22.2028 5.74998 22.323 5.82845 22.4496 5.95475C22.5759 6.08105 22.6541 6.20152 22.7197 6.37011C22.7693 6.49729 22.8279 6.68864 22.844 7.04071C22.8615 7.42165 22.865 7.5357 22.865 8.50002C22.865 9.46405 22.8615 9.5784 22.844 9.95934C22.8279 10.3114 22.769 10.5028 22.7197 10.6299C22.6541 10.7985 22.5759 10.9187 22.4496 11.045C22.3233 11.1713 22.2028 11.2495 22.0342 11.3151C21.907 11.3647 21.7157 11.4233 21.3636 11.4394C20.9829 11.4569 20.8686 11.4604 19.9042 11.4604C18.9402 11.4604 18.8258 11.4569 18.4451 11.4394ZM21.3986 6.57225C21.3986 6.81144 21.5926 7.0057 21.8321 7.0057C22.0713 7.0057 22.2655 6.81144 22.2655 6.57225C22.2655 6.33306 22.0716 6.13909 21.8321 6.13909C21.5926 6.13909 21.3986 6.33306 21.3986 6.57225ZM18.0499 8.50002C18.0499 9.52415 18.8801 10.3543 19.9042 10.3543C20.9284 10.3543 21.7586 9.52414 21.7586 8.50002C21.7586 7.4759 20.9284 6.64576 19.9042 6.64576C18.8801 6.64576 18.0499 7.47591 18.0499 8.50002ZM18.7007 8.50002C18.7007 7.83526 19.2394 7.29622 19.9042 7.29622C20.569 7.29622 21.1081 7.83526 21.1081 8.50002C21.1081 9.16478 20.569 9.70382 19.9042 9.70382C19.2394 9.70382 18.7007 9.16478 18.7007 8.50002Z" fill="white"/>
<circle cx="10.5" cy="17.5" r="9.5" fill="#276F9D"/>
<path d="M13.4021 12.2241L12.0211 12.2219C10.4696 12.2219 9.46699 13.2415 9.46699 14.8197V16.0174H8.07847C7.95849 16.0174 7.86133 16.1138 7.86133 16.2327V17.9681C7.86133 18.087 7.9586 18.1833 8.07847 18.1833H9.46699V22.5622C9.46699 22.6812 9.56415 22.7775 9.68413 22.7775H11.4958C11.6157 22.7775 11.7129 22.6811 11.7129 22.5622V18.1833H13.3364C13.4564 18.1833 13.5535 18.087 13.5535 17.9681L13.5542 16.2327C13.5542 16.1756 13.5313 16.1209 13.4906 16.0805C13.45 16.0401 13.3946 16.0174 13.3369 16.0174H11.7129V15.0021C11.7129 14.5141 11.8302 14.2663 12.4716 14.2663L13.4019 14.266C13.5217 14.266 13.6189 14.1696 13.6189 14.0507V12.4394C13.6189 12.3206 13.5219 12.2243 13.4021 12.2241Z" fill="white"/>
</svg>
