<svg width="120" height="120" viewBox="0 0 120 120" fill="none" xmlns="http://www.w3.org/2000/svg">
<path d="M100.403 20.4384C100.252 20.4384 100.102 20.3804 99.9889 20.2642C98.4098 18.6417 96.7178 17.0968 94.9604 15.6718C94.7119 15.4715 94.6742 15.109 94.8751 14.862C95.0759 14.6149 95.4374 14.5763 95.686 14.7773C97.4784 16.2304 99.2031 17.806 100.815 19.4609C101.038 19.6886 101.033 20.0531 100.805 20.2753C100.692 20.3842 100.546 20.4384 100.403 20.4384V20.4384ZM108.765 31.3306C108.57 31.3306 108.379 31.2304 108.271 31.0497C107.114 29.1063 105.826 27.2102 104.447 25.4142C104.254 25.1619 104.302 24.8001 104.553 24.6063C104.806 24.4127 105.168 24.4602 105.361 24.7125C106.767 26.5441 108.08 28.4779 109.26 30.4597C109.423 30.7331 109.333 31.0866 109.062 31.2495C108.969 31.3047 108.866 31.3306 108.765 31.3306V31.3306ZM114.359 43.8711C114.113 43.8711 113.884 43.7127 113.806 43.4659C113.136 41.3061 112.33 39.1622 111.406 37.0943C111.278 36.8041 111.409 36.4635 111.698 36.3339C111.989 36.2044 112.33 36.3349 112.458 36.6254C113.4 38.7344 114.223 40.9213 114.909 43.1245C115.001 43.428 114.833 43.7508 114.529 43.8452C114.472 43.8628 114.414 43.8711 114.359 43.8711V43.8711ZM116.839 57.3738C116.538 57.3738 116.284 57.1391 116.264 56.8341C116.124 54.5739 115.845 52.3002 115.436 50.0762C115.378 49.7634 115.584 49.4631 115.898 49.4056C116.209 49.3489 116.51 49.5553 116.568 49.8681C116.985 52.137 117.268 54.4564 117.414 56.762C117.434 57.0796 117.193 57.3528 116.874 57.3726C116.864 57.3733 116.852 57.3738 116.839 57.3738V57.3738Z" fill="#66509E"/>
<path d="M31.0544 9.86896C30.851 9.86896 30.6527 9.75975 30.5473 9.56745C30.3966 9.28804 30.4996 8.93833 30.7808 8.78695C32.8117 7.68486 34.928 6.69398 37.072 5.84143C37.3682 5.72444 37.7021 5.86854 37.8201 6.16402C37.9381 6.4595 37.7925 6.7944 37.4962 6.91214C35.395 7.74762 33.3188 8.71892 31.328 9.79917C31.2427 9.84636 31.1473 9.86896 31.0544 9.86896V9.86896ZM19.8452 17.7767C19.687 17.7767 19.5314 17.7154 19.4209 17.5911C19.2075 17.3544 19.2151 17.0012 19.4536 16.789L19.4761 16.7675L19.5289 16.7203C21.2259 15.1992 23.0259 13.7642 24.8812 12.454C25.1397 12.2707 25.4987 12.3325 25.682 12.5921C25.8653 12.8519 25.805 13.2114 25.5439 13.3949C23.7264 14.6792 21.9615 16.0864 20.2996 17.5768L20.2469 17.6248C20.1339 17.7257 19.9883 17.7767 19.8452 17.7767V17.7767ZM10.7799 28.115C10.6695 28.115 10.554 28.0821 10.4561 28.0136C10.1925 27.8338 10.1272 27.4751 10.3054 27.213C11.6134 25.3115 13.0469 23.4671 14.5707 21.7309C14.7816 21.4919 15.1456 21.4678 15.3841 21.6777C15.6226 21.8875 15.6477 22.2513 15.4368 22.4903C13.9431 24.1926 12.5372 26.0012 11.2569 27.8652C11.1439 28.0276 10.9632 28.115 10.7799 28.115V28.115ZM4.40335 40.2754C4.33556 40.2754 4.26527 40.2631 4.19749 40.2375C3.90125 40.1243 3.75063 39.7914 3.8636 39.4941C4.68703 37.3367 5.64854 35.206 6.7205 33.1618C6.86862 32.8801 7.21757 32.7721 7.49874 32.919C7.77992 33.0671 7.88787 33.4151 7.73975 33.6967C6.69038 35.7011 5.74895 37.7893 4.94059 39.9046C4.85272 40.1343 4.63431 40.2754 4.40335 40.2754ZM1.05941 53.5961C1.03431 53.5961 1.01172 53.5946 0.986611 53.5914C0.670293 53.5507 0.446862 53.2623 0.487029 52.9467C0.783264 50.6536 1.21757 48.3571 1.77741 46.1203C1.85523 45.8122 2.16904 45.6247 2.47782 45.702C2.78661 45.7793 2.97238 46.0924 2.89456 46.4009C2.34477 48.5936 1.9205 50.8457 1.62929 53.0938C1.59163 53.3843 1.34561 53.5961 1.05941 53.5961V53.5961ZM0.903766 67.3309C0.612552 67.3309 0.361506 67.1115 0.331381 66.816C0.11046 64.7536 0 62.6514 0 60.5677C0 60.3375 0 60.1073 0.00251046 59.8773C0.00753138 59.5592 0.248536 59.2994 0.584937 59.3082C0.903766 59.3117 1.15983 59.5726 1.15481 59.8906C1.1523 60.1163 1.14979 60.3423 1.14979 60.5677C1.14979 62.6107 1.26025 64.6718 1.47615 66.694C1.5113 67.01 1.28033 67.2937 0.964017 67.3276C0.943933 67.3296 0.923849 67.3309 0.903766 67.3309ZM3.97908 80.7141C3.7431 80.7141 3.52218 80.5678 3.43682 80.3333C2.65607 78.1608 1.99582 75.9182 1.47866 73.6673C1.40837 73.3575 1.60167 73.0482 1.91046 72.9772C2.22176 72.9059 2.53054 73.0992 2.60084 73.4095C3.10795 75.6154 3.75314 77.8138 4.52134 79.9429C4.62929 80.2419 4.47364 80.5723 4.17489 80.68C4.10962 80.7031 4.04435 80.7141 3.97908 80.7141V80.7141Z" fill="#66509E"/>
<path d="M88.9787 110.771C88.7854 110.771 88.5946 110.674 88.4866 110.495C88.3209 110.224 88.4063 109.87 88.6799 109.705C90.6105 108.53 92.4933 107.224 94.2782 105.826C94.5268 105.63 94.8908 105.673 95.0866 105.924C95.2824 106.175 95.2372 106.536 94.9887 106.732C93.1686 108.158 91.2481 109.489 89.2774 110.689C89.1845 110.744 89.0816 110.771 88.9787 110.771V110.771ZM29.9176 111.615C29.8222 111.615 29.7243 111.592 29.6339 111.54C27.6306 110.397 25.6724 109.117 23.8172 107.741C23.5611 107.553 23.5084 107.192 23.6967 106.935C23.8875 106.679 24.2465 106.627 24.5025 106.818C26.3226 108.166 28.2406 109.418 30.2038 110.541C30.4799 110.699 30.5753 111.05 30.4197 111.326C30.3117 111.512 30.1184 111.615 29.9176 111.615V111.615ZM76.4866 116.478C76.2431 116.478 76.0172 116.322 75.9393 116.076C75.8414 115.775 76.0096 115.451 76.3109 115.353C78.4674 114.663 80.6038 113.837 82.6624 112.895C82.9511 112.762 83.2925 112.89 83.4255 113.182C83.5586 113.47 83.4306 113.812 83.1419 113.945C81.0406 114.904 78.8615 115.745 76.6624 116.45C76.6046 116.468 76.5444 116.478 76.4866 116.478V116.478ZM42.5728 116.95C42.5201 116.95 42.4674 116.942 42.4147 116.927C40.1904 116.289 37.9862 115.511 35.8624 114.618C35.5686 114.492 35.4306 114.156 35.5561 113.862C35.6791 113.568 36.0155 113.433 36.3092 113.556C38.3929 114.432 40.5519 115.195 42.731 115.82C43.0372 115.908 43.213 116.227 43.1251 116.533C43.0523 116.787 42.8239 116.95 42.5728 116.95V116.95ZM63.0029 119.084C62.7042 119.084 62.4531 118.853 62.4306 118.549C62.408 118.233 62.6465 117.956 62.9628 117.934C65.2222 117.771 67.4942 117.469 69.7134 117.04C70.0272 116.98 70.3285 117.183 70.3887 117.497C70.449 117.808 70.2456 118.11 69.9318 118.172C67.6674 118.609 65.3502 118.915 63.0456 119.081C63.0331 119.084 63.018 119.084 63.0029 119.084ZM56.1268 119.171C56.1193 119.171 56.1092 119.171 56.0992 119.171C54.9695 119.119 53.8297 119.036 52.7101 118.918C51.5377 118.797 50.3527 118.639 49.1904 118.448C48.8766 118.398 48.6657 118.102 48.7159 117.788C48.7686 117.474 49.0624 117.261 49.3787 117.314C50.5159 117.5 51.6783 117.655 52.828 117.773C53.9251 117.886 55.0448 117.971 56.1519 118.022C56.4707 118.037 56.7167 118.305 56.7017 118.624C56.6866 118.933 56.4331 119.171 56.1268 119.171Z" fill="#66509E"/>
<path d="M16.5472 56.1103C18.9597 32.8026 39.8091 15.8636 63.1162 18.2756C86.4234 20.6879 103.364 41.5378 100.951 64.8454C98.5388 88.154 77.6895 105.092 54.3823 102.68C31.0727 100.267 14.1346 79.4179 16.5472 56.1103V56.1103Z" fill="#EDEAF3"/>
<path d="M119.285 68.0754V68.0426C119.285 65.6069 118.178 63.3033 116.275 61.782L116.1 61.6406H65.8301V92.9292C65.8301 96.5948 67.9037 99.9485 71.1824 101.588C71.1824 101.588 92.7799 101.841 99.7891 96.6196C106.798 91.3928 119.285 68.0754 119.285 68.0754V68.0754Z" fill="white"/>
<path d="M119.36 72.9454V67.207L113.975 69.244L112.198 69.9279L109.597 70.9112L108.626 76.1631L103.778 78.893L103.293 84.9444L98.2524 94.191H94.3461L89.9804 96.2317L86.6516 97.9589L83.2775 99.3296H75.2214L70.8984 101.885H94.8306C99.5629 101.885 103.986 99.538 106.64 95.6166L117.131 80.1844C118.582 78.0492 119.36 75.5269 119.36 72.9454V72.9454Z" fill="white"/>
<path d="M80.2801 61.872L72.7035 54.375L67.3587 59.6404L65.127 61.8358L80.2801 61.872Z" fill="white"/>
<path d="M80.2694 62.4381C80.1238 62.4381 79.9782 62.3826 79.8652 62.2717L72.6928 55.1746L65.5204 62.2368C65.2945 62.4594 64.928 62.4569 64.707 62.23C64.4836 62.0033 64.4861 61.6385 64.7121 61.4153L72.2886 53.9548C72.5121 53.7336 72.8736 53.7338 73.097 53.9555L80.6761 61.4527C80.902 61.6764 80.9045 62.0409 80.6786 62.2674C80.5681 62.3811 80.42 62.4381 80.2694 62.4381Z" fill="#66509E"/>
<path d="M88.418 60.8974L100.546 49.043L112.802 61.1514L88.418 60.8974Z" fill="white"/>
<path d="M112.792 61.7172C112.647 61.7172 112.499 61.6622 112.388 61.551L100.534 49.8405L88.8099 61.299C88.584 61.5212 88.2174 61.5171 87.9965 61.2894C87.7731 61.0622 87.7781 60.6975 88.0066 60.475L100.132 48.6209C100.358 48.4017 100.717 48.4022 100.94 48.6234L113.197 60.7319C113.422 60.9553 113.425 61.3198 113.202 61.5463C113.089 61.6602 112.94 61.7172 112.792 61.7172V61.7172Z" fill="#66509E"/>
<path d="M99.4336 61.8676L107.884 53.5547L109.626 55.2711L110.525 56.1565L114.175 59.7525L116.367 61.9123L99.4336 61.8676Z" fill="white"/>
<path d="M116.356 62.4782C116.211 62.4782 116.065 62.4229 115.952 62.3125L107.873 54.353L99.8274 62.268C99.6014 62.4915 99.2349 62.4882 99.0115 62.2615C98.7906 62.0346 98.7931 61.67 99.019 61.4471L107.469 53.1342C107.695 52.9136 108.054 52.9136 108.278 53.1345L116.76 61.4918C116.989 61.715 116.991 62.0797 116.768 62.3062C116.655 62.4209 116.507 62.4782 116.356 62.4782V62.4782Z" fill="#66509E"/>
<path d="M99.4336 61.8676L107.884 53.5547L109.626 55.2711L110.525 56.1565L114.175 59.7525L116.367 61.9123L99.4336 61.8676Z" fill="white"/>
<path d="M116.356 62.4782C116.211 62.4782 116.065 62.4229 115.952 62.3125L107.873 54.353L99.8274 62.268C99.6014 62.4915 99.2349 62.4882 99.0115 62.2615C98.7906 62.0346 98.7931 61.67 99.019 61.4471L107.469 53.1342C107.695 52.9136 108.054 52.9136 108.278 53.1345L116.76 61.4918C116.989 61.715 116.991 62.0797 116.768 62.3062C116.655 62.4209 116.507 62.4782 116.356 62.4782V62.4782Z" fill="#66509E"/>
<path d="M79.9409 61.5394L72.7007 54.375L67.356 59.6404L67.1777 59.8159C67.1777 59.8167 68.4279 61.0573 68.4279 61.0573L70.2731 59.2232L72.0104 60.9489L73.8204 59.1481L75.279 60.5967L76.4815 61.863L79.0095 61.869C79.3058 61.7648 79.6196 61.6536 79.9409 61.5394V61.5394Z" fill="white"/>
<path d="M76.7196 61.2778L78.8636 61.283L72.6878 55.1746L67.9857 59.8081L68.4175 60.2357L69.856 58.805C70.082 58.5818 70.4435 58.5818 70.6669 58.805L72 60.127L73.4058 58.7299C73.6293 58.5067 73.9933 58.5067 74.2167 58.7299L75.6753 60.1784L76.7196 61.2778V61.2778ZM78.9966 62.4351L76.4711 62.4291C76.3129 62.4286 76.1623 62.364 76.0544 62.2498L74.8518 60.9835L73.81 59.95L72.4041 61.3476C72.1807 61.5705 71.8167 61.5705 71.5933 61.3476L70.2627 60.0253L68.8217 61.456C68.5983 61.6794 68.2343 61.6794 68.0108 61.456L66.7631 60.2173C66.6627 60.1167 66.6 59.9806 66.5924 59.836C66.5849 59.6716 66.6452 59.5112 66.7631 59.3954L72.2862 53.9548C72.5096 53.7336 72.8711 53.7338 73.0945 53.9555L80.3372 61.1201C80.4778 61.2594 80.538 61.4615 80.4929 61.6548C80.4502 61.8484 80.3121 62.006 80.1238 62.0723C79.8025 62.1868 79.4862 62.298 79.1874 62.4027C79.1272 62.424 79.0619 62.4351 78.9966 62.4351V62.4351Z" fill="#66509E"/>
<path d="M72.1875 65.8375L86.0804 52.0333L87.1674 50.9535L89.3239 48.8086L106.586 65.9651L72.1875 65.8375V65.8375Z" fill="white"/>
<path d="M106.575 66.5311C106.427 66.5311 106.281 66.4751 106.168 66.3637L89.3129 49.6104L72.5832 66.2359C72.3572 66.4598 71.9932 66.4588 71.7698 66.2331C71.5438 66.0077 71.5463 65.6429 71.7723 65.4187L88.9087 48.39C89.1321 48.1669 89.4961 48.1669 89.7196 48.39L106.981 65.5465C107.205 65.7707 107.207 66.1352 106.984 66.3612C106.871 66.4744 106.723 66.5311 106.575 66.5311V66.5311Z" fill="#66509E"/>
<path d="M114.176 59.7525L110.526 56.1565L109.627 55.2708L107.885 53.5547L102.422 58.9281L104.849 60.8785L106.567 59.1731L108.698 61.2927L110.744 59.2615L112.916 61.4202L114.384 59.9601C114.387 59.9594 114.176 59.7525 114.176 59.7525V59.7525Z" fill="white"/>
<path d="M110.734 58.6756C110.879 58.6756 111.027 58.7313 111.138 58.843L112.905 60.5983L113.558 59.9511L107.874 54.353L103.278 58.8749L104.799 60.097L106.15 58.7544C106.373 58.5312 106.737 58.5312 106.96 58.7544L108.688 60.4708L110.327 58.843C110.44 58.7313 110.585 58.6756 110.734 58.6756V58.6756ZM112.905 61.9861C112.76 61.9861 112.611 61.9301 112.498 61.8187L110.734 60.0633L109.094 61.6911C108.868 61.9143 108.507 61.9143 108.283 61.6911L106.556 59.975L105.246 61.2769C105.037 61.4835 104.709 61.5008 104.478 61.3173L102.052 59.3669C101.924 59.264 101.844 59.1114 101.837 58.9472C101.829 58.7828 101.892 58.6231 102.007 58.5076L107.47 53.1342C107.696 52.9136 108.055 52.9136 108.278 53.1345L114.57 59.3323L114.78 59.5392C114.914 59.6697 114.974 59.8562 114.944 60.0395C114.924 60.1693 114.861 60.286 114.765 60.3726L113.312 61.8187C113.199 61.9301 113.053 61.9861 112.905 61.9861V61.9861Z" fill="#66509E"/>
<path d="M85.6143 55.2602L87.4495 57.0848L91.0244 53.5335L94.0319 56.5217L95.6411 55.0797L89.3298 48.8086L87.1733 50.9535L86.0863 52.0333L84.3164 53.7924L85.6143 55.2602V55.2602Z" fill="white"/>
<path d="M86.0244 54.8547L87.4403 56.2626L90.6085 53.115C90.8344 52.8918 91.1959 52.8918 91.4219 53.115L94.0428 55.7198L94.7934 55.0478L89.3206 49.6104L85.098 53.8076L86.0244 54.8547ZM87.4403 57.6506C87.2947 57.6506 87.1466 57.5946 87.0361 57.4832L85.1985 55.6588C85.1909 55.6503 85.1834 55.6413 85.1734 55.632L83.8755 54.1641C83.6721 53.9356 83.6847 53.589 83.9006 53.3738L88.9165 48.39C89.1399 48.1669 89.5039 48.1669 89.7273 48.39L96.0361 54.6609C96.1491 54.7729 96.2118 54.926 96.2068 55.0844C96.2018 55.2431 96.134 55.3927 96.016 55.4984L94.4068 56.9404C94.1784 57.144 93.8319 57.1355 93.616 56.9201L91.0152 54.3353L87.847 57.4832C87.734 57.5946 87.5884 57.6506 87.4403 57.6506V57.6506Z" fill="#66509E"/>
<path d="M102.317 53.7255L103.783 52.2689C103.788 52.2564 100.537 49.043 100.537 49.043L98.2324 51.2954L98.25 51.3139L99.8994 52.9533L100.72 52.1394L102.317 53.7255V53.7255Z" fill="white"/>
<path d="M100.731 51.5531C100.877 51.5531 101.025 51.6091 101.135 51.7206L102.328 52.9035L102.983 52.2503L100.545 49.8405L99.0641 51.2883L99.9101 52.1313L100.324 51.7206C100.437 51.6091 100.583 51.5531 100.731 51.5531V51.5531ZM102.328 54.2913C102.18 54.2913 102.034 54.2355 101.921 54.1238L100.731 52.9409L100.317 53.3519C100.091 53.575 99.7293 53.575 99.5059 53.3519L97.854 51.7123C97.7461 51.6036 97.6758 51.4462 97.6758 51.292C97.6758 51.1379 97.7285 50.981 97.839 50.8733L100.144 48.6209C100.37 48.4017 100.728 48.4022 100.952 48.6234L104.203 51.8366C104.384 52.014 104.426 52.2884 104.308 52.5126C104.283 52.5651 104.241 52.6253 104.198 52.6673L102.732 54.1238C102.621 54.2355 102.473 54.2913 102.328 54.2913V54.2913Z" fill="#66509E"/>
<path d="M82.2198 88.7627L80.0684 88.5117L80.8742 81.5625L83.0257 81.8115L82.2198 88.7627V88.7627Z" fill="white"/>
<path d="M80.7254 87.9973L81.7346 88.1128L82.4049 82.3073L81.3982 82.1908L80.7254 87.9973ZM82.2392 89.3278C82.2166 89.3278 82.194 89.3253 82.1739 89.3228L80.0224 89.0743C79.7061 89.0366 79.4802 88.7529 79.5153 88.4366L80.3212 81.4867C80.3563 81.1703 80.6425 80.9434 80.9588 80.9805L83.1103 81.2293C83.2609 81.2469 83.399 81.3242 83.4944 81.444C83.5898 81.5637 83.6325 81.7161 83.6149 81.8677L82.8116 88.8182C82.794 88.9688 82.7162 89.1069 82.5957 89.2023C82.4952 89.2851 82.3672 89.3278 82.2392 89.3278V89.3278Z" fill="#66509E"/>
<path d="M81.5208 85.3126C80.3108 85.1728 79.4447 84.079 79.5853 82.8699L80.1627 77.8711L84.5434 78.378L83.9635 83.3768C83.8229 84.5858 82.7309 85.4527 81.5208 85.3126Z" fill="#EE445B"/>
<path d="M80.6891 78.4999L80.177 82.9263C80.074 83.818 80.7142 84.6274 81.6054 84.7308C82.0372 84.7808 82.464 84.6598 82.8054 84.3897C83.1468 84.1193 83.3602 83.7327 83.4104 83.3009L83.9226 78.8742L80.6891 78.4999V78.4999ZM81.7987 85.8939C81.6908 85.8939 81.5828 85.8877 81.4749 85.8751C79.951 85.6986 78.8565 84.3166 79.0322 82.794L79.6121 77.7952C79.6473 77.4791 79.9335 77.2522 80.2498 77.2891L84.628 77.7962C84.7811 77.8138 84.9192 77.8908 85.0146 78.0106C85.1075 78.1303 85.1502 78.2827 85.1351 78.4346L84.5552 83.4332C84.4698 84.1708 84.1033 84.8313 83.5209 85.2924C83.0238 85.6856 82.4238 85.8939 81.7987 85.8939Z" fill="#66509E"/>
<path d="M77.5643 96.158L75.8496 94.8375L80.1224 89.2969L81.8371 90.6199L77.5643 96.158Z" fill="white"/>
<path d="M76.6468 94.7226L77.4501 95.3429L81.02 90.7134L80.2167 90.0958L76.6468 94.7226V94.7226ZM77.5531 96.7259C77.4301 96.7259 77.307 96.686 77.2016 96.6054L75.487 95.2824C75.3665 95.1895 75.2886 95.0515 75.2685 94.9011C75.2485 94.7502 75.2911 94.5971 75.384 94.4766L79.6568 88.936C79.8501 88.6824 80.2116 88.6372 80.4627 88.8305L82.1773 90.1536C82.3003 90.2464 82.3782 90.3845 82.3983 90.5351C82.4183 90.6883 82.3757 90.8414 82.2828 90.9619L78.01 96.5028C77.897 96.6481 77.7263 96.7259 77.5531 96.7259Z" fill="#66509E"/>
<path d="M82.9556 90.1589C82.7749 91.2485 81.7456 91.984 80.656 91.8033C79.5665 91.6225 78.8309 90.5932 79.0117 89.5037C79.1924 88.4141 80.2217 87.6786 81.3113 87.8593C82.3983 88.0401 83.1364 89.0694 82.9556 90.1589Z" fill="#EE445B"/>
<path d="M81.0026 88.3979C80.3198 88.3979 79.7148 88.8924 79.5993 89.5878C79.5365 89.9644 79.6244 90.341 79.8453 90.6497C80.0662 90.9585 80.3951 91.1644 80.7692 91.2246C81.1457 91.2899 81.5223 91.1995 81.8311 90.9786C82.1399 90.7577 82.3457 90.4313 82.406 90.0548C82.5365 89.2815 82.0093 88.546 81.2361 88.418C81.1583 88.4054 81.0805 88.3979 81.0026 88.3979V88.3979ZM81.0077 92.397C80.8671 92.397 80.724 92.387 80.5809 92.3619C79.9031 92.2489 79.3106 91.8799 78.9089 91.32C78.5097 90.7602 78.3516 90.0799 78.462 89.3995C78.6955 87.9987 80.0236 87.0498 81.4244 87.2807C82.1022 87.3937 82.6972 87.7652 83.0989 88.3251C83.498 88.8824 83.6562 89.5652 83.5432 90.2431C83.4303 90.9209 83.0612 91.5159 82.5014 91.9175C82.0595 92.2313 81.5424 92.397 81.0077 92.397V92.397Z" fill="#66509E"/>
<path d="M78.9109 99.2058L73.6816 95.5283L75.5344 92.9297L78.2582 94.8477C79.6415 95.8192 79.9678 97.7224 78.9888 99.0979L78.9109 99.2058V99.2058Z" fill="#EE445B"/>
<path d="M74.5061 95.3811L78.7613 98.3763C78.9772 97.9242 79.0475 97.4171 78.9622 96.9125C78.8492 96.2623 78.4902 95.6924 77.9454 95.3083L75.6885 93.7217L74.5061 95.3811ZM78.9295 99.7744C78.8141 99.7744 78.6986 99.7393 78.5982 99.669L73.3689 95.9889C73.2434 95.9008 73.158 95.7655 73.1329 95.6148C73.1078 95.464 73.1429 95.3083 73.2333 95.1828L75.0835 92.587C75.2668 92.3284 75.6258 92.2656 75.8844 92.4489L78.6082 94.3669C79.4065 94.9267 79.9337 95.7627 80.0969 96.7192C80.2601 97.6732 80.0392 98.6322 79.4768 99.423L79.399 99.5334C79.286 99.6891 79.1078 99.7744 78.9295 99.7744V99.7744Z" fill="#66509E"/>
<path d="M88.6412 62.6538C88.4278 64.3159 86.9014 65.4931 85.227 65.2825C83.555 65.0718 82.37 63.5535 82.5834 61.8913C82.7943 60.2289 84.3232 59.0522 85.9952 59.2626C86.4269 59.3168 86.8236 59.4579 87.1751 59.6658C87.8679 60.0768 88.3726 60.7491 88.5709 61.5291C88.6638 61.8863 88.6889 62.2661 88.6412 62.6538V62.6538Z" fill="white"/>
<path d="M85.5992 59.8042C84.3716 59.8042 83.3022 60.7135 83.144 61.9539C83.0612 62.6018 83.2369 63.2433 83.6386 63.7609C84.0428 64.2838 84.6302 64.6177 85.2904 64.7008C86.6436 64.8731 87.8888 63.9158 88.0595 62.5707C88.0997 62.2637 88.0796 61.9574 88.0043 61.6609C87.8461 61.0333 87.4319 60.4833 86.872 60.1509C86.5783 59.9766 86.257 59.8669 85.913 59.8238C85.8076 59.8105 85.7047 59.8042 85.5992 59.8042ZM85.6043 65.8725C85.4536 65.8725 85.3005 65.8627 85.1474 65.8436C84.1808 65.7221 83.3223 65.2331 82.7273 64.4666C82.1373 63.7057 81.8813 62.7618 82.0018 61.8083C82.2528 59.8341 84.0729 58.432 86.0586 58.681C86.5582 58.7438 87.0302 58.9052 87.4595 59.16C88.2804 59.6473 88.8854 60.4549 89.1214 61.3765C89.2319 61.8143 89.2595 62.2647 89.2017 62.7163C88.9708 64.5374 87.4043 65.8725 85.6043 65.8725V65.8725Z" fill="#66509E"/>
<path d="M86.9779 77.4454L87.7938 71.046C88.0498 69.0447 86.6314 67.2135 84.618 66.9467C82.5871 66.6776 80.7218 68.1035 80.4657 70.1237L79.6875 75.9369L86.9779 77.4454Z" fill="#EE445B"/>
<path d="M86.9964 78.0119C86.9738 78.0119 86.9487 78.0106 86.9236 78.0073C86.6073 77.9672 86.3863 77.6787 86.4265 77.3632L87.2424 70.9637C87.4558 69.2827 86.2533 67.7323 84.5612 67.5081C83.7278 67.3969 82.9018 67.6186 82.2365 68.1302C81.5788 68.6368 81.1596 69.3673 81.0541 70.187L80.2784 76.0035C80.2357 76.3188 79.9445 76.5375 79.6307 76.4981C79.3144 76.4559 79.0935 76.1664 79.1361 75.8509L79.9119 70.0381C80.055 68.9155 80.6324 67.9125 81.5336 67.2176C82.4449 66.5175 83.5721 66.2147 84.7119 66.3663C87.0315 66.6734 88.6784 68.8015 88.3847 71.1093L87.5688 77.5088C87.5311 77.7997 87.2826 78.0119 86.9964 78.0119V78.0119Z" fill="#66509E"/>
<path d="M87.757 78.8677L91.3394 80.0815C92.5846 80.5038 93.4683 81.6076 93.6014 82.9078L94.4348 91.2187L90.4758 91.176L89.68 84.0189L82.603 81.9603C80.4942 81.3465 79.1788 79.2626 79.5428 77.1084L79.6984 75.9375L86.7754 77.4224L87.757 78.8677Z" fill="#807DBB"/>
<path d="M90.9822 90.5961L93.7864 90.6262L93.0182 82.9552C92.9077 81.8843 92.1722 80.9657 91.1429 80.617L87.5604 79.4029C87.4424 79.3628 87.3395 79.285 87.2692 79.1813L86.4182 77.9281L80.1772 76.6183L80.1044 77.1744C79.7855 79.0583 80.9278 80.8655 82.7554 81.3973L89.8299 83.4558C90.0533 83.5209 90.214 83.7139 90.2416 83.9451L90.9822 90.5961V90.5961ZM94.424 91.786C94.4165 91.786 90.46 91.7434 90.46 91.7434C90.1688 91.7409 89.9253 91.5199 89.8927 91.2312L89.137 84.4545L82.4316 82.5034C80.0441 81.808 78.5529 79.4434 78.9646 77.0024L79.1178 75.8509C79.1379 75.6922 79.2257 75.5496 79.3563 75.4573C79.4868 75.3646 79.65 75.331 79.8056 75.3639L86.8826 76.8486C87.0282 76.8794 87.1563 76.9653 87.2416 77.0888L88.1127 78.3742L91.5119 79.5265C92.9655 80.019 94.0073 81.3192 94.1629 82.8388L94.9964 91.1534C95.0115 91.3141 94.9588 91.4773 94.8483 91.5978C94.7378 91.7183 94.5847 91.786 94.424 91.786V91.786Z" fill="#66509E"/>
<path d="M82.8163 70.3125L82.5 72.8812L85.505 73.2066L85.7962 70.9268L82.8163 70.3125V70.3125Z" fill="#EE445B"/>
<path d="M85.4953 73.7725C85.4753 73.7725 85.4552 73.7715 85.4326 73.769L82.4276 73.4436C82.2744 73.4273 82.1338 73.3495 82.0384 73.2287C81.943 73.1077 81.9004 72.9533 81.9179 72.8004L82.2368 70.2317C82.2744 69.9162 82.5631 69.6922 82.8794 69.7309C83.1932 69.7701 83.4192 70.0578 83.379 70.3733L83.133 72.3614L84.9958 72.5632L85.2167 70.8435C85.2568 70.528 85.5455 70.3045 85.8619 70.3455C86.1757 70.3861 86.3991 70.6746 86.3589 70.9901L86.0652 73.2699C86.0275 73.5599 85.7815 73.7725 85.4953 73.7725V73.7725Z" fill="#66509E"/>
<path d="M96.9357 94.1721H90.4688V91.1719H93.9357C95.5926 91.1719 96.9357 92.515 96.9357 94.1721Z" fill="#EE445B"/>
<path d="M91.0351 93.5834H96.2795C96.0209 92.5265 95.0619 91.7382 93.9247 91.7382H91.0351V93.5834ZM96.9247 94.7357H90.4577C90.1414 94.7357 89.8828 94.4772 89.8828 94.1611V91.1608C89.8828 90.8445 90.1414 90.5859 90.4577 90.5859H93.9247C95.8954 90.5859 97.4996 92.1901 97.4996 94.1611C97.4996 94.4772 97.241 94.7357 96.9247 94.7357V94.7357Z" fill="#66509E"/>
<path d="M76.3259 72.6284L76.607 70.4817C76.8154 68.9013 78.274 67.7872 79.8631 67.9933C80.3451 68.0556 80.684 68.4941 80.6213 68.9724L79.5669 77.0126C79.5041 77.4909 79.0623 77.828 78.5803 77.7658L77.1518 77.5805C76.351 77.4768 75.7861 76.7475 75.8916 75.952L76.1075 74.3016L76.3259 72.6284V72.6284Z" fill="#EE445B"/>
<path d="M79.4778 68.5353C78.3255 68.5353 77.3238 69.3843 77.1707 70.5466L76.8895 72.6936L76.4527 76.0169C76.4226 76.2474 76.4828 76.4764 76.6259 76.6614C76.7715 76.8489 76.9799 76.9687 77.2159 76.9993L78.6468 77.1851C78.815 77.2066 78.9657 77.0909 78.9858 76.9277L80.0427 68.8875C80.0552 68.7828 80.01 68.7065 79.9824 68.6703C79.9347 68.6063 79.8619 68.5651 79.7816 68.5549C79.6787 68.5415 79.5782 68.5353 79.4778 68.5353V68.5353ZM78.687 78.3394C78.6243 78.3394 78.5615 78.3354 78.4987 78.3271L77.0678 78.1415C76.5255 78.0717 76.046 77.7953 75.7146 77.3638C75.3832 76.9345 75.2402 76.403 75.3104 75.8671L76.0284 70.3968C76.277 68.5044 78.0268 67.1636 79.9297 67.4126C80.3163 67.4623 80.6577 67.6596 80.8962 67.9679C81.1322 68.2747 81.2351 68.6543 81.1849 69.0376L80.128 77.0779C80.0326 77.8064 79.405 78.3394 78.687 78.3394V78.3394Z" fill="#66509E"/>
<path d="M82.4695 72.8519C82.4695 72.8519 84.2344 71.962 85.4846 73.1841L85.2561 74.9773L87.8645 78.3074C88.4068 78.9975 88.2787 79.9929 87.5833 80.5274C86.8879 81.0601 85.8913 80.9336 85.354 80.2452L82.5524 76.6523C82.2386 76.2516 82.1005 75.7442 82.1632 75.2414L82.4695 72.8519V72.8519Z" fill="white"/>
<path d="M83.0158 73.3101L82.7547 75.3657C82.7096 75.7184 82.805 76.0676 83.0259 76.3493L85.8276 79.9425C86.169 80.3811 86.8091 80.4612 87.251 80.122C87.4644 79.9576 87.6024 79.7201 87.6351 79.4537C87.6702 79.1879 87.5974 78.9253 87.4317 78.7141L84.8209 75.3838C84.7255 75.2622 84.6853 75.1081 84.7029 74.9557L84.8912 73.4733C84.2284 73.0041 83.4276 73.172 83.0158 73.3101V73.3101ZM86.6334 81.4829C85.9857 81.4829 85.3455 81.1965 84.9213 80.6507L82.1171 77.0575C81.7079 76.5318 81.5271 75.8793 81.6125 75.2198L81.9163 72.8304C81.9414 72.6406 82.0568 72.4751 82.2276 72.3888C82.3154 72.3448 84.379 71.3309 85.9054 72.8236C86.0359 72.9499 86.0987 73.1289 86.0736 73.3081L85.8778 74.8626L88.338 78.0032C88.6945 78.4588 88.8501 79.0252 88.7773 79.5983C88.7071 80.172 88.4133 80.6826 87.9514 81.0358C87.5598 81.3371 87.0953 81.4829 86.6334 81.4829Z" fill="#66509E"/>
<path d="M70.9184 102.45C70.72 102.45 70.5292 102.35 70.4213 102.169C70.2606 101.893 70.351 101.542 70.6246 101.378L74.9477 98.8255C75.0355 98.7725 75.1359 98.7449 75.2389 98.7449H83.1845L86.4305 97.4269L89.7343 95.7097L94.1226 93.6587C94.2004 93.6236 94.2832 93.6035 94.3661 93.6035H97.9309L102.751 84.7666L103.223 78.8372C103.238 78.6461 103.346 78.4752 103.514 78.381L108.128 75.7837L109.052 70.7964C109.087 70.5986 109.225 70.4339 109.414 70.3629L119.174 66.6584C119.473 66.546 119.805 66.6961 119.918 66.9933C120.03 67.2908 119.88 67.6232 119.584 67.7357L110.124 71.3254L109.21 76.2582C109.18 76.4259 109.075 76.5715 108.927 76.6554L104.345 79.2343L103.888 84.9805C103.883 85.0611 103.858 85.1394 103.82 85.2105L98.7795 94.4573C98.679 94.6403 98.4832 94.7558 98.2723 94.7558H94.4941L90.2439 96.744L86.9376 98.4612C86.92 98.4687 86.905 98.4765 86.8874 98.4838L83.5133 99.8545C83.4456 99.8821 83.3703 99.8972 83.2974 99.8972H75.397L71.2096 102.37C71.1192 102.425 71.0188 102.45 70.9184 102.45V102.45Z" fill="#66509E"/>
<path d="M112.877 78.4875H110.442C110.294 78.4875 110.151 78.4303 110.043 78.3268L108.223 76.577C107.995 76.3564 107.987 75.9919 108.208 75.7627C108.429 75.5332 108.793 75.5264 109.024 75.7468L110.676 77.3357H112.877C113.194 77.3357 113.452 77.5938 113.452 77.9116C113.452 78.2299 113.194 78.4875 112.877 78.4875V78.4875Z" fill="#66509E"/>
<path d="M106.408 87.0108H104.826C104.68 87.0108 104.54 86.9556 104.434 86.8577L102.898 85.4315C102.667 85.2153 102.652 84.8508 102.868 84.6176C103.084 84.3846 103.45 84.3711 103.681 84.5872L105.052 85.8588H106.408C106.726 85.8588 106.985 86.1169 106.985 86.4347C106.985 86.753 106.726 87.0108 106.408 87.0108V87.0108Z" fill="#66509E"/>
<path d="M87.7486 101.01C87.7009 101.01 87.6532 101.002 87.608 100.992L83.1419 99.8652C82.8331 99.7874 82.6448 99.4736 82.7226 99.1648C82.8005 98.856 83.1143 98.6702 83.4231 98.7483L87.7059 99.8275L90.2691 98.7734C90.3394 98.7458 90.4147 98.7305 90.49 98.7305H93.9168C94.2356 98.7305 94.4917 98.989 94.4917 99.3054C94.4917 99.6242 94.2356 99.8828 93.9168 99.8828H90.603L87.967 100.965C87.8967 100.995 87.8239 101.01 87.7486 101.01V101.01Z" fill="#66509E"/>
<path d="M92.1862 77.3444C91.9276 77.3444 91.6942 77.1694 91.6289 76.9078C91.5511 76.5993 91.7393 76.2868 92.0481 76.2094L95.9142 75.2429L97.7293 71.2646C97.8046 71.0946 97.9603 70.9729 98.1435 70.9377L103.192 69.9717C103.506 69.9104 103.807 70.1171 103.867 70.4294C103.928 70.7417 103.722 71.0434 103.408 71.1032L98.6532 72.013L96.8481 75.9735C96.7753 76.1329 96.6322 76.2506 96.464 76.293L92.3268 77.3268C92.2791 77.3386 92.2314 77.3444 92.1862 77.3444V77.3444Z" fill="#66509E"/>
<path d="M65.4978 92.1338C65.2769 92.1338 65.066 92.0058 64.9706 91.7899C64.8426 91.4987 64.9756 91.1572 65.2668 91.0317L71.3899 88.343L72.7304 83.0708C72.7631 82.9465 72.8334 82.8363 72.9363 82.7577L75.4568 80.8044C75.7078 80.6095 76.0693 80.6552 76.2652 80.9068C76.461 81.1581 76.4133 81.5198 76.1622 81.7146L73.7974 83.5468L72.4367 88.8978C72.3915 89.071 72.271 89.2141 72.1078 89.2844L65.7288 92.0861C65.6534 92.1187 65.5756 92.1338 65.4978 92.1338V92.1338Z" fill="#66509E"/>
<path d="M55.9883 61.4667L53.0008 60.7617C50.169 62.9832 48.836 67.3984 47.6787 68.3832C46.2276 69.6189 44.9172 69.6003 42.3715 69.8769L36.1632 70.1925C35.7565 70.2128 35.2368 70.6386 35.3096 71.3832C35.3799 72.1102 35.995 72.3575 36.4293 72.3377L48.1356 71.8025L55.9883 61.4667V61.4667Z" fill="white"/>
<path d="M53.1344 61.3774C51.5955 62.6843 50.5235 64.6949 49.6549 66.3245C49.0474 67.464 48.5679 68.3642 48.0432 68.8118C46.6323 70.0141 45.3043 70.1474 43.2934 70.3495C43.0198 70.3771 42.7311 70.4062 42.4248 70.4396L36.1813 70.7574C36.1461 70.7595 36.0608 70.7933 35.988 70.8764C35.8951 70.9846 35.8549 71.1373 35.8725 71.3183C35.9152 71.7616 36.3444 71.7541 36.3947 71.7523L47.8298 71.2294L54.9846 61.8134L53.1344 61.3774V61.3774ZM36.367 72.9046C35.6089 72.9046 34.8206 72.4096 34.7252 71.4277C34.68 70.9337 34.8181 70.4705 35.1168 70.1236C35.3854 69.8145 35.752 69.6262 36.1235 69.6072L42.3319 69.2918C42.6106 69.2607 42.9018 69.2311 43.1779 69.2035C45.1009 69.0102 46.1578 68.904 47.2951 67.9347C47.6541 67.6294 48.1336 66.7322 48.6382 65.7827C49.5972 63.984 50.7921 61.7456 52.6348 60.2984C52.7729 60.1904 52.9536 60.151 53.1244 60.1912L56.1093 60.8959C56.3001 60.9408 56.4532 61.0784 56.521 61.2619C56.5863 61.4456 56.5536 61.6495 56.4357 61.8049L48.5854 72.1407C48.48 72.2768 48.3218 72.3599 48.1511 72.3679L36.4474 72.9029C36.4198 72.9041 36.3921 72.9046 36.367 72.9046V72.9046Z" fill="#66509E"/>
<path d="M50.3857 94.4971L44.7949 71.9748L48.1087 71.8359L53.3932 93.2218L50.3857 94.4971Z" fill="white"/>
<path d="M50.3748 95.0648C50.1137 95.0648 49.8802 94.8891 49.815 94.6255L44.2267 72.1039C44.184 71.936 44.2192 71.7582 44.3246 71.6196C44.4275 71.4813 44.5882 71.397 44.7614 71.3897L48.0727 71.2509C48.3413 71.2358 48.5899 71.4221 48.6577 71.6882L53.9422 93.074C54.0175 93.3828 53.8292 93.6941 53.5204 93.7694C53.2116 93.8475 52.9003 93.6592 52.8225 93.3502L47.651 72.4212L45.5146 72.5111L50.9321 94.3496C51.01 94.6581 50.8217 94.9694 50.5129 95.0473C50.4652 95.0573 50.42 95.0648 50.3748 95.0648V95.0648Z" fill="#66509E"/>
<path d="M58.23 97.6157V93.5837C58.2325 90.9653 51.9287 93.418 48.1329 95.9335C46.5689 96.9678 44.7262 97.5025 42.8509 97.5178L2.57812 97.8238L3.56474 101.276L58.2601 100.829L58.23 97.6157V97.6157Z" fill="white"/>
<path d="M3.33071 98.4326L3.98845 100.734L57.6696 100.298L57.642 97.6592C57.642 97.6441 57.642 97.6291 57.6445 97.6115V93.6224C57.6445 93.3412 57.5366 93.2586 57.4336 93.2031C56.2738 92.5805 51.9031 94.1571 48.4387 96.4516C46.8018 97.5362 44.8663 98.1161 42.8428 98.1337L3.33071 98.4326V98.4326ZM3.55414 101.889C3.29807 101.889 3.07213 101.719 3.00183 101.473L2.01522 98.0207C1.96501 97.8475 1.99765 97.6617 2.1056 97.5186C2.21355 97.373 2.38426 97.2876 2.5625 97.2876L42.8353 96.9813C44.6353 96.9663 46.3525 96.4516 47.8035 95.4901C50.7533 93.5398 56.0253 91.1395 57.9784 92.1889C58.5056 92.4726 58.7968 92.9822 58.7968 93.6224V97.6544C58.7968 97.6667 58.7968 97.6795 58.7943 97.6918L58.8269 100.863C58.8269 101.016 58.7692 101.164 58.6612 101.272C58.5533 101.382 58.4077 101.442 58.2546 101.445L3.55916 101.889C3.55665 101.889 3.55665 101.889 3.55414 101.889V101.889Z" fill="#66509E"/>
<path d="M15.0337 89.3851L12.832 87.9139L17.5894 80.8008L19.791 82.2734L15.0337 89.3851V89.3851Z" fill="white"/>
<path d="M13.6206 87.8015L14.8658 88.635L18.983 82.4801L17.7378 81.6478L13.6206 87.8015V87.8015ZM15.024 90.0107C14.911 90.0107 14.798 89.9755 14.7026 89.9128L12.5009 88.4391C12.2373 88.2634 12.1671 87.9044 12.3428 87.6408L17.1001 80.5289C17.1855 80.4019 17.3185 80.3138 17.4666 80.2844C17.6173 80.2548 17.7729 80.2857 17.9009 80.3703L20.1026 81.8432C20.3662 82.0199 20.4365 82.3776 20.2608 82.6417L15.5035 89.7546C15.4181 89.8801 15.285 89.968 15.1369 89.9981C15.0993 90.0057 15.0616 90.0107 15.024 90.0107V90.0107Z" fill="#66509E"/>
<path d="M7.62021 92.8895L6.44531 90.5168L14.1148 86.7188L15.2897 89.0934L7.62021 92.8895V92.8895Z" fill="white"/>
<path d="M7.20659 90.8239L7.87186 92.167L14.507 88.8808L13.8442 87.5377L7.20659 90.8239V90.8239ZM7.61077 93.5126C7.55052 93.5126 7.48776 93.5028 7.42751 93.4825C7.2819 93.4348 7.16391 93.3293 7.09612 93.194L5.91872 90.8189C5.77813 90.5352 5.89612 90.1888 6.17981 90.0482L13.8493 86.2514C13.9848 86.1831 14.143 86.173 14.2886 86.2217C14.4342 86.2704 14.5522 86.3749 14.62 86.5117L15.7949 88.8858C15.938 89.1695 15.82 89.5159 15.5363 89.6565L7.86684 93.4549C7.7865 93.4925 7.69864 93.5126 7.61077 93.5126V93.5126Z" fill="#66509E"/>
<path d="M17.381 83.5222C16.0706 82.6466 15.7191 80.8749 16.5952 79.5655L19.766 74.8242L24.5082 77.9957L21.3375 82.7372C20.4614 84.0466 18.689 84.3979 17.381 83.5222V83.5222Z" fill="#EE445B"/>
<path d="M17.7176 83.0336C18.762 83.7318 20.1779 83.4504 20.8758 82.4073L23.7277 78.1443L19.9419 75.6132L17.0925 79.876C16.3946 80.9193 16.6758 82.336 17.7176 83.0339V83.0336V83.0336ZM18.9779 84.5685C18.3227 84.5685 17.6624 84.3818 17.0775 83.9911C15.5059 82.9402 15.0842 80.8069 16.1335 79.2356L19.3068 74.4941C19.4825 74.2297 19.8415 74.1587 20.1051 74.3356L24.8473 77.5074C24.9729 77.5922 25.0607 77.7243 25.0909 77.8739C25.121 78.0238 25.0909 78.1792 25.0055 78.3062L21.8323 83.0477C21.172 84.0348 20.085 84.5685 18.9779 84.5685V84.5685Z" fill="#66509E"/>
<path d="M16.1375 89.7608C15.3869 90.883 13.868 91.1843 12.7459 90.4337C11.6237 89.683 11.3224 88.1642 12.0731 87.042C12.8237 85.9206 14.3425 85.6193 15.4647 86.37C16.5869 87.1198 16.8881 88.6387 16.1375 89.7608Z" fill="#EE445B"/>
<path d="M14.0961 86.5224C13.4936 86.5224 12.9011 86.8136 12.5396 87.3521C11.9673 88.2082 12.1982 89.3705 13.0543 89.9454C13.9104 90.5178 15.0752 90.2868 15.6476 89.4308C16.22 88.5722 15.989 87.4098 15.1329 86.8372C14.8141 86.6246 14.4526 86.5224 14.0961 86.5224V86.5224ZM14.0886 91.4115C13.5112 91.4115 12.9288 91.2458 12.4141 90.9019C11.0309 89.9755 10.6568 88.0952 11.5832 86.7112C12.5095 85.3272 14.3899 84.9539 15.7731 85.8802C17.1589 86.8061 17.5304 88.6852 16.6041 90.0709C16.0242 90.9396 15.0652 91.4115 14.0886 91.4115V91.4115Z" fill="#66509E"/>
<path d="M7.46236 96.8607L4.57031 90.9963L6.89249 89.8465C7.2791 89.6557 7.74855 89.8138 7.94186 90.2029L8.95609 92.254L9.21466 94.1318C9.3678 95.2542 8.74019 96.341 7.6883 96.7678L7.46236 96.8607V96.8607Z" fill="#EE445B"/>
<path d="M5.33159 91.2495L7.72405 96.0947C8.37175 95.7083 8.73828 94.965 8.63284 94.1993L8.38932 92.4144L7.41527 90.4462C7.38263 90.3809 7.3274 90.3533 7.29728 90.3432C7.26464 90.3332 7.20439 90.3206 7.13912 90.3533L5.33159 91.2495ZM7.45292 97.4252C7.23953 97.4252 7.03619 97.3072 6.93577 97.1039L4.04372 91.242C3.90313 90.9558 4.02113 90.6118 4.30481 90.4713L6.62698 89.3215C6.95083 89.1608 7.31987 89.1357 7.6638 89.2512C8.00773 89.3667 8.2864 89.6102 8.44707 89.9365L9.4638 91.9876C9.49142 92.0428 9.50899 92.1031 9.51652 92.1658L9.7751 94.0411C9.96589 95.4297 9.19267 96.765 7.89727 97.2922L7.66882 97.3826C7.59853 97.4127 7.52573 97.4252 7.45292 97.4252V97.4252Z" fill="#66509E"/>
<path d="M31.377 64.5472L32.715 64.1425C33.9376 63.7725 35.228 64.4666 35.597 65.6879C35.9661 66.9123 35.2732 68.2019 34.0506 68.572L32.72 68.9741L31.377 64.5472V64.5472Z" fill="white"/>
<path d="M32.0844 64.9811L33.0936 68.3057L33.8743 68.0702C34.7906 67.7925 35.3128 66.8207 35.0367 65.9042C34.9011 65.4603 34.6023 65.0948 34.1931 64.8754C33.7839 64.6557 33.3145 64.6095 32.8726 64.7436L32.0844 64.9811V64.9811ZM32.7095 69.5995C32.4634 69.5995 32.235 69.4394 32.1597 69.1908L30.8166 64.7639C30.7714 64.6175 30.7864 64.4596 30.8592 64.3248C30.9321 64.1903 31.0551 64.0893 31.2007 64.0454L32.5387 63.6407C33.2768 63.417 34.0576 63.4951 34.7379 63.8606C35.4157 64.2252 35.9153 64.8324 36.1387 65.5705C36.5982 67.0954 35.7321 68.7108 34.2082 69.1725L32.8751 69.5747C32.8199 69.5913 32.7647 69.5995 32.7095 69.5995V69.5995Z" fill="#66509E"/>
<path d="M32.7084 68.9973L28.5059 70.2658L29.5879 65.107L31.3653 64.5703L32.7084 68.9973Z" fill="#EE445B"/>
<path d="M30.101 65.5501L29.2876 69.4242L32.0089 68.6026L30.9997 65.2782L30.101 65.5501V65.5501ZM28.5244 70.8321C28.3813 70.8321 28.2432 70.7794 28.1353 70.6807C27.9846 70.5434 27.9194 70.337 27.9621 70.138L29.0441 64.9792C29.0867 64.7731 29.2399 64.6069 29.4407 64.5462L31.2181 64.0094C31.5219 63.9168 31.8432 64.0893 31.9361 64.3935L33.2792 68.8202C33.3219 68.9668 33.3068 69.1245 33.234 69.2593C33.1637 69.3941 33.0407 69.4945 32.8926 69.5387L28.6901 70.8077C28.6374 70.8241 28.5796 70.8321 28.5244 70.8321V70.8321Z" fill="#66509E"/>
<path d="M27.2987 76.0536L26.9924 77.5079C26.892 77.9811 26.7313 78.4275 26.5179 78.8357L32.3497 82.0571C33.4092 82.6421 33.8811 83.9154 33.4594 85.0498L29.8217 94.8921C29.4577 95.8787 28.5213 96.4913 27.5271 96.4913C27.2435 96.4913 26.9573 96.441 26.6786 96.3381C25.4108 95.8712 24.7581 94.4603 25.2301 93.1928L28.1397 85.3247C28.1397 85.3247 24.2962 83.6432 21.1179 81.7006C19.3154 80.5958 17.7238 79.4098 17.169 78.3949C17.1188 78.305 17.0786 78.2181 17.046 78.1338C16.7271 77.2847 16.6769 76.3325 16.8753 75.3831L17.4225 72.7734L27.2987 76.0536V76.0536Z" fill="#807DBB"/>
<path d="M17.8447 73.5132L17.4279 75.4912C17.2497 76.347 17.2999 77.1875 17.576 77.9213C17.5986 77.9783 17.6288 78.0423 17.6639 78.1086C17.9627 78.6551 18.8564 79.6352 21.4095 81.1992C24.515 83.0979 28.3208 84.7704 28.361 84.7872C28.6396 84.9095 28.7752 85.228 28.6698 85.5142L25.7601 93.3833C25.5869 93.8527 25.607 94.3598 25.8154 94.8145C26.0237 95.2686 26.3978 95.6151 26.8673 95.7883C27.0781 95.8661 27.2965 95.9038 27.5175 95.9038C28.2982 95.9038 29.0037 95.4142 29.2723 94.6812L32.9099 84.8402C33.2313 83.9788 32.8647 82.995 32.0614 82.5509L26.2296 79.3295C25.9534 79.1778 25.8505 78.8346 25.9986 78.5572C26.1894 78.1945 26.33 77.7978 26.4204 77.3781L26.6212 76.4279L17.8447 73.5132V73.5132ZM27.5175 97.0561C27.1585 97.0561 26.807 96.9933 26.4681 96.8678C25.7099 96.5891 25.1049 96.0293 24.7685 95.2937C24.4296 94.5609 24.3995 93.7397 24.6806 92.9816L27.402 85.6192C26.2522 85.095 23.3124 83.7125 20.8095 82.1818C18.5526 80.8003 17.1945 79.6488 16.6522 78.6609C16.5919 78.5474 16.5392 78.4377 16.4991 78.3313C16.1451 77.3871 16.0773 76.3252 16.3007 75.255L16.8505 72.6449C16.8832 72.4844 16.9836 72.3459 17.1267 72.264C17.2698 72.1822 17.4405 72.1651 17.5961 72.2171L27.4698 75.497C27.7484 75.5891 27.9141 75.8756 27.8539 76.162L27.5476 77.6163C27.4773 77.95 27.3794 78.2721 27.2539 78.5801L32.6187 81.5427C33.9166 82.2604 34.5066 83.85 33.9894 85.2403L30.3543 95.0803C29.9175 96.2628 28.7777 97.0561 27.5175 97.0561Z" fill="#66509E"/>
<path d="M10.8398 70.7782L12.1026 62.9212C12.3034 61.6211 13.5687 61.2139 14.475 60.9935C18.3863 60.049 23.4424 59.0589 25.506 59.6519C27.6725 60.1364 29.3595 61.9916 29.5277 64.3208L29.5804 65.0853L28.4984 70.244L27.2859 76.0053L17.4097 72.7251L19.0917 64.7263C18.4214 64.854 17.1009 65.0411 16.4231 65.1904L15.4114 71.4847L10.8398 70.7782V70.7782Z" fill="#EE445B"/>
<path d="M18.0999 72.3886L26.8765 75.303L29.0204 65.0937L28.9727 64.4096C28.8271 62.4055 27.3585 60.6996 25.4003 60.2615C23.8488 59.8172 20.0355 60.2957 14.6304 61.6009C13.7066 61.8258 12.8304 62.1582 12.6899 63.0577L11.52 70.3456L14.9543 70.8758L15.8731 65.1469C15.9108 64.9134 16.0865 64.7269 16.3175 64.6759C16.7342 64.5838 17.3593 64.4826 17.9618 64.3847C18.3585 64.3205 18.735 64.2594 19.0062 64.2082C19.1945 64.1731 19.3903 64.2333 19.5233 64.3707C19.6589 64.508 19.7166 64.704 19.6765 64.8923L18.0999 72.3886V72.3886ZM27.3057 76.6287C27.2455 76.6287 27.1827 76.6189 27.125 76.5994L17.2488 73.3197C16.9702 73.2273 16.807 72.9411 16.8673 72.6544L18.3735 65.4848C18.3007 65.4971 18.2229 65.5097 18.1476 65.5217C17.7459 65.5867 17.3066 65.658 16.9476 65.7246L16.0011 71.6236C15.9509 71.9362 15.6572 72.1501 15.3434 72.1014L10.7719 71.3954C10.6187 71.3718 10.4832 71.289 10.3928 71.1652C10.3024 71.0412 10.2673 70.8861 10.2899 70.7349L11.5526 62.8779C11.8288 61.0968 13.6664 60.6497 14.3593 60.4815C20.1183 59.0904 23.9292 58.6405 25.684 59.1464C28.1016 59.6856 29.9392 61.8195 30.1225 64.3272L30.1752 65.0922C30.1802 65.1454 30.1752 65.1991 30.1652 65.2513L27.8706 76.1716C27.8355 76.332 27.735 76.4708 27.5919 76.5524C27.5041 76.6029 27.4062 76.6287 27.3057 76.6287Z" fill="#66509E"/>
<path d="M15.4195 71.4877L15.2036 72.8363C15.0204 73.9708 14.0388 74.7817 12.9242 74.7817C12.8011 74.7817 12.6756 74.7736 12.5526 74.7518C11.2924 74.5505 10.4338 73.364 10.6346 72.1018L10.848 70.7812L15.4195 71.4877V71.4877Z" fill="white"/>
<path d="M11.343 71.4863L11.2225 72.2417C11.0718 73.1879 11.717 74.0809 12.661 74.2317C12.7513 74.2473 12.8417 74.2543 12.9421 74.2543C13.7831 74.2543 14.5187 73.6262 14.6518 72.7937L14.7773 72.0168L11.343 71.4863V71.4863ZM12.9421 75.4061C12.7739 75.4061 12.6158 75.3933 12.4727 75.3677C10.9087 75.1182 9.83419 73.6332 10.0852 72.0597L10.2961 70.7384C10.3463 70.4259 10.64 70.2117 10.9539 70.2609L15.5254 70.9669C15.6785 70.9905 15.8141 71.0733 15.9045 71.1971C15.9949 71.3211 16.03 71.4758 16.0074 71.6274L15.789 72.976C15.5631 74.3841 14.3656 75.4061 12.9421 75.4061Z" fill="#66509E"/>
<path d="M27.0817 59.9667C24.7444 59.9667 22.8516 58.0723 22.8516 55.7355C22.8516 53.3983 24.7444 51.5039 27.0817 51.5039C29.4189 51.5039 31.3143 53.3983 31.3143 55.7355C31.3143 58.0723 29.4189 59.9667 27.0817 59.9667V59.9667Z" fill="white"/>
<path d="M27.1025 52.07C25.0866 52.07 23.4472 53.7096 23.4472 55.7255C23.4472 57.7411 25.0866 59.381 27.1025 59.381C29.1184 59.381 30.7577 57.7411 30.7577 55.7255C30.7577 53.7096 29.1184 52.07 27.1025 52.07ZM27.1025 60.5328C24.4514 60.5328 22.2949 58.3763 22.2949 55.7255C22.2949 53.0747 24.4514 50.918 27.1025 50.918C29.7535 50.918 31.91 53.0747 31.91 55.7255C31.91 58.3763 29.7535 60.5328 27.1025 60.5328V60.5328Z" fill="#66509E"/>
<path d="M63.9755 18.1208C63.7044 18.1208 63.4609 17.9285 63.4081 17.6518C63.3504 17.3395 63.5563 17.0383 63.8676 16.9788L70.0307 15.8114L70.2893 9.51771C70.3019 9.19963 70.5705 8.94633 70.8893 8.96591C71.2056 8.97896 71.4542 9.24733 71.4391 9.5649L71.1629 16.3158C71.1504 16.5834 70.9571 16.8081 70.6935 16.8578L64.0835 18.1105C64.0458 18.1175 64.0107 18.1208 63.9755 18.1208V18.1208Z" fill="#66509E"/>
<path d="M87.5979 25.9513C87.5979 25.9513 75.505 33.5894 59.7016 26.2736C43.9008 18.9581 31.3184 28.4068 31.3184 28.4068V47.0986C31.3184 47.0986 43.9008 37.65 59.7016 44.9658C75.505 52.2812 87.5979 44.6432 87.5979 44.6432V25.9513Z" fill="#807DBB"/>
<path d="M62.5205 29.2045V20.3203L62.6033 20.2181L64.5514 19.6196L63.2108 15.9375L59.8594 16.8581L54.492 16.5787H51.123L44.5832 18.5152C42.9891 18.988 41.8945 20.4538 41.8945 22.118V26.8331C41.8945 27.7183 42.6125 28.4361 43.4962 28.4361C44.3824 28.4361 45.1004 27.7183 45.1004 26.8331V21.9229L50.3799 20.6539V29.2045H62.5205V29.2045Z" fill="white"/>
<path d="M62.5412 29.7708C62.2249 29.7708 61.9663 29.5132 61.9663 29.1949V20.3106C61.9663 20.1791 62.0115 20.0516 62.0944 19.9491L62.1747 19.847C62.2475 19.7576 62.3454 19.6916 62.4559 19.6582L63.8241 19.2374L62.8701 16.6238L60.0333 17.4035C59.973 17.4201 59.9128 17.4276 59.85 17.4236L54.4827 17.1442L51.2291 17.145L44.7697 19.0579C43.4266 19.4551 42.4902 20.7093 42.4902 22.1081V26.8235C42.4902 27.3901 42.9521 27.8506 43.517 27.8506C44.0843 27.8506 44.5437 27.3901 44.5437 26.8235V21.9133C44.5437 21.6472 44.727 21.4155 44.9856 21.3535L50.2651 20.0842C50.4383 20.0428 50.6191 20.0827 50.7571 20.1919C50.8952 20.3009 50.9755 20.4678 50.9755 20.6443V29.1949C50.9755 29.5132 50.7195 29.7708 50.4007 29.7708C50.0818 29.7708 49.8258 29.5132 49.8258 29.1949V21.3751L45.696 22.3672V26.8235C45.696 28.025 44.7195 29.0026 43.517 29.0026C42.317 29.0026 41.3379 28.025 41.3379 26.8235V22.1081C41.3379 20.2029 42.6157 18.4946 44.4408 17.9533L50.9806 16.0168C51.0358 16.0012 51.0885 15.9932 51.1437 15.9932H54.5128L59.8174 16.2683L63.0785 15.3726C63.3672 15.2922 63.6684 15.4489 63.7714 15.7306L65.112 19.4129C65.1672 19.5613 65.1571 19.7252 65.0868 19.8665C65.0166 20.0076 64.891 20.1141 64.7404 20.1608L63.1186 20.6593V29.1949C63.1186 29.5132 62.8601 29.7708 62.5412 29.7708V29.7708Z" fill="#66509E"/>
<path d="M44.6657 36.0665L45.7251 36.3C49.8372 36.0505 54.597 36.6603 59.6958 39.0208C60.2682 39.2852 60.8305 39.5232 61.3929 39.7494C64.4531 38.934 67.3452 37.3268 69.7452 34.9268L58.664 26.3746C57.4364 25.4272 55.7268 25.4272 54.4991 26.3746L43.418 34.9268C43.8196 35.329 44.2364 35.709 44.6657 36.0665V36.0665Z" fill="#EE445B"/>
<path d="M47.4222 35.6622C51.6724 35.6622 55.8724 36.6101 59.9293 38.488C60.3837 38.6983 60.8607 38.9047 61.418 39.1324C64.1871 38.3629 66.7427 36.9297 68.854 34.965L58.3026 26.8201C57.2833 26.0333 55.8599 26.0333 54.8406 26.8201L44.2892 34.965C44.495 35.1568 44.7034 35.3439 44.9168 35.5244L45.7603 35.7104C46.3151 35.6783 46.8674 35.6622 47.4222 35.6622V35.6622ZM61.3829 40.3151C61.3101 40.3151 61.2373 40.3013 61.167 40.2734C60.5118 40.0093 59.9645 39.7738 59.4448 39.5333C55.0088 37.4803 50.4021 36.583 45.7503 36.8647C45.695 36.8685 45.6423 36.8639 45.5896 36.8522L44.5302 36.6189C44.4398 36.5991 44.357 36.5577 44.2867 36.4984C43.8448 36.1291 43.4105 35.734 43.0013 35.3238C42.8833 35.2068 42.8231 35.0449 42.8331 34.8797C42.8432 34.7145 42.926 34.5619 43.0565 34.4607L54.1352 25.9086C55.5712 24.8012 57.572 24.8014 59.008 25.9086L70.0867 34.4607C70.2172 34.5619 70.2975 34.7145 70.3101 34.8797C70.3201 35.0449 70.2599 35.2068 70.1419 35.3238C67.7545 37.7117 64.777 39.4311 61.531 40.2957C61.4833 40.3088 61.4331 40.3151 61.3829 40.3151V40.3151Z" fill="#66509E"/>
<path d="M56.8249 38.295C56.5086 38.295 56.25 38.0372 56.25 37.7191V25.8301C56.25 25.512 56.5086 25.2539 56.8249 25.2539C57.1437 25.2539 57.4023 25.512 57.4023 25.8301V37.7191C57.4023 38.0372 57.1437 38.295 56.8249 38.295Z" fill="#66509E"/>
<path d="M82.0495 41.5386C81.801 41.5386 81.57 41.3747 81.4972 41.1224C81.4094 40.8169 81.5851 40.4975 81.8914 40.4094C85.2604 39.4356 87.2663 38.1867 87.2864 38.1741C87.555 38.0057 87.9115 38.0855 88.0797 38.3546C88.2504 38.6235 88.17 38.9787 87.9014 39.1482C87.8135 39.2029 85.75 40.493 82.2102 41.5158C82.1575 41.5313 82.1023 41.5386 82.0495 41.5386V41.5386Z" fill="#66509E"/>
<path d="M73.5577 42.7643C68.818 42.7643 64.0908 41.6843 59.4514 39.5369C44.1401 32.4478 31.7786 41.5151 31.6556 41.6075C31.3995 41.7983 31.038 41.7471 30.8472 41.4928C30.6565 41.2385 30.7092 40.8775 30.9627 40.6864C31.0908 40.59 44.0046 31.1165 59.9359 38.4915C65.8104 41.2114 71.8255 42.1596 77.8129 41.3108C78.1267 41.2663 78.4205 41.485 78.4631 41.8003C78.5083 42.1151 78.2899 42.4066 77.9736 42.4513C76.5025 42.6601 75.0288 42.7643 73.5577 42.7643Z" fill="#66509E"/>
<path d="M73.5326 48.653C69.4054 48.6533 64.6129 47.8442 59.4514 45.4547C44.1627 38.376 31.7786 47.4335 31.6531 47.5256C31.3995 47.7159 31.038 47.6647 30.8472 47.4101C30.6565 47.1556 30.7092 46.7951 30.9627 46.6043C31.0908 46.5079 44.0046 37.0349 59.936 44.4091C75.2472 51.4989 87.1644 44.1967 87.2824 44.1224C87.551 43.9532 87.9075 44.0333 88.0757 44.3027C88.2464 44.5715 88.1661 44.9268 87.8975 45.0965C87.8121 45.1494 82.1184 48.6525 73.5326 48.653V48.653Z" fill="#66509E"/>
<path d="M73.6529 30.0863C70.9416 30.0863 67.9315 29.7341 64.6955 28.8097C64.3893 28.7221 64.2135 28.4035 64.2989 28.0975C64.3867 27.7917 64.7056 27.6155 65.0118 27.7021C77.7901 31.3533 87.1893 25.577 87.2821 25.5183C87.5508 25.3491 87.9072 25.4294 88.0754 25.6985C88.2462 25.9676 88.1658 26.3229 87.8972 26.4923C87.5959 26.6826 82.078 30.0863 73.6529 30.0863V30.0863Z" fill="#66509E"/>
<path d="M73.6166 36.0511C72.9864 36.0511 72.3387 36.0322 71.676 35.9918C71.3571 35.9725 71.1161 35.6993 71.1337 35.3818C71.1538 35.0644 71.4325 34.8252 71.7438 34.8423C80.9747 35.4064 87.2207 31.5342 87.2835 31.4953C87.5521 31.3256 87.9061 31.4055 88.0768 31.6748C88.2475 31.9437 88.1672 32.2992 87.8986 32.4691C87.65 32.6258 82.1195 36.0511 73.6166 36.0511V36.0511Z" fill="#66509E"/>
<path d="M60.8815 9.66797C60.8815 12.1192 58.8932 14.1065 56.4404 14.1065C53.9902 14.1065 52.002 12.1192 52.002 9.66797H60.8815Z" fill="white"/>
<path d="M56.4294 14.6726C53.6654 14.6726 51.416 12.423 51.416 9.65793C51.416 9.33986 51.6746 9.08203 51.9909 9.08203C52.3097 9.08203 52.5683 9.33986 52.5683 9.65793C52.5683 11.7881 54.3005 13.5208 56.4294 13.5208C58.5608 13.5208 60.293 11.7881 60.293 9.65793C60.293 9.33986 60.5516 9.08203 60.8704 9.08203C61.1867 9.08203 61.4453 9.33986 61.4453 9.65793C61.4453 12.423 59.1959 14.6726 56.4294 14.6726Z" fill="#66509E"/>
<path d="M62.6592 9.68021C62.6592 6.24314 59.8726 3.45703 56.4358 3.45703C52.9989 3.45703 50.2148 6.24314 50.2148 9.68021H62.6592Z" fill="white"/>
<path d="M50.8113 9.09402H62.0456C61.7569 6.24967 59.3469 4.02289 56.4272 4.02289C53.5101 4.02289 51.1 6.24967 50.8113 9.09402ZM62.6507 10.2461H50.2063C49.8875 10.2461 49.6289 9.988 49.6289 9.66992C49.6289 5.92105 52.6791 2.87109 56.4272 2.87109C60.1779 2.87109 63.2281 5.92105 63.2281 9.66992C63.2281 9.988 62.9695 10.2461 62.6507 10.2461Z" fill="#66509E"/>
<path d="M45.2533 25.1909C45.05 25.1909 44.8517 25.0819 44.7487 24.8901C44.5956 24.6107 44.6985 24.261 44.9772 24.1086L77.809 6.22237C78.0901 6.07074 78.4391 6.17342 78.5922 6.45258C78.7429 6.73174 78.6399 7.0817 78.3613 7.23383L45.5295 25.1204C45.4416 25.1681 45.3462 25.1909 45.2533 25.1909V25.1909Z" fill="#66509E"/>
<path d="M33.6526 31.4925C33.4492 31.4925 33.2509 31.3838 33.1455 31.1922C32.9948 30.9128 33.0978 30.5629 33.3764 30.4107L41.5304 25.9685C41.8091 25.8168 42.1605 25.9195 42.3112 26.1987C42.4643 26.4778 42.3614 26.8278 42.0802 26.9799L33.9262 31.4224C33.8409 31.4699 33.7455 31.4925 33.6526 31.4925Z" fill="#66509E"/>
<path d="M85.1505 3.03744C85.9614 4.56631 85.5873 6.35175 84.317 7.0248L79.5246 9.56438L74.5312 8.66338L76.4518 4.10012L81.3823 1.48773C82.6551 0.814426 84.3396 1.50832 85.1505 3.03744V3.03744Z" fill="#EE445B"/>
<path d="M75.3314 8.21613L79.421 8.95396L84.0377 6.50777C85.0243 5.98459 85.2904 4.54509 84.6327 3.2989C84.3013 2.67781 83.7967 2.20283 83.2093 1.96107C82.6595 1.73463 82.1021 1.74442 81.6427 1.98818L76.8929 4.50467L75.3314 8.21613V8.21613ZM79.5139 10.1321C79.4787 10.1321 79.4461 10.1291 79.4109 10.1228L74.4201 9.22182C74.2469 9.19069 74.0988 9.08325 74.0159 8.92961C73.9306 8.77597 73.9231 8.59295 73.9908 8.43178L75.9113 3.86877C75.9616 3.74601 76.0544 3.64534 76.1724 3.58308L81.103 0.970192C81.8712 0.563247 82.7749 0.536887 83.6486 0.895632C84.4846 1.23956 85.195 1.90157 85.6494 2.75965C86.6059 4.56693 86.1264 6.70509 84.5749 7.52576L79.7825 10.0651C79.6996 10.1095 79.6067 10.1321 79.5139 10.1321V10.1321Z" fill="#66509E"/>
<path d="M26.9129 34.1829C26.102 32.6538 26.4761 30.8686 27.7464 30.1953L32.5388 27.6562L37.5322 28.5573L35.6117 33.1203L30.6786 35.7329C29.4083 36.4062 27.7213 35.7121 26.9129 34.1829V34.1829Z" fill="#EE445B"/>
<path d="M27.4075 33.9038C27.7364 34.5247 28.241 34.9996 28.8284 35.2417C29.3807 35.4681 29.938 35.4583 30.3974 35.2143L35.1472 32.6978L36.7087 28.9866L32.6192 28.2485L28.0025 30.695C27.0159 31.2181 26.7472 32.6576 27.4075 33.9038V33.9038ZM29.6167 36.5579C29.2125 36.5579 28.7983 36.4743 28.3916 36.3068C27.5556 35.9629 26.8451 35.3009 26.3907 34.4428C25.4343 32.6355 25.9138 30.4976 27.4627 29.6767L32.2577 27.1376C32.3707 27.0771 32.5012 27.0563 32.6292 27.0797L37.62 27.9807C37.7933 28.0115 37.9414 28.1192 38.0242 28.2729C38.1071 28.4265 38.1171 28.6098 38.0493 28.7709L36.1288 33.334C36.0786 33.4565 35.9857 33.5574 35.8677 33.6196L30.9372 36.232C30.528 36.4492 30.0786 36.5579 29.6167 36.5579V36.5579Z" fill="#66509E"/>
<path d="M72.3362 16.2457C72.3362 17.3217 71.4626 18.1941 70.3856 18.1941C69.3111 18.1941 68.4375 17.3217 68.4375 16.2457C68.4375 15.1695 69.3111 14.2969 70.3856 14.2969C71.4626 14.2969 72.3362 15.1695 72.3362 16.2457V16.2457Z" fill="white"/>
<path d="M70.4039 14.8627C69.6482 14.8627 69.0307 15.4786 69.0307 16.2357C69.0307 16.9924 69.6482 17.6084 70.4039 17.6084C71.162 17.6084 71.7771 16.9924 71.7771 16.2357C71.7771 15.4786 71.162 14.8627 70.4039 14.8627ZM70.4039 18.76C69.0131 18.76 67.8809 17.6278 67.8809 16.2357C67.8809 14.8434 69.0131 13.7109 70.4039 13.7109C71.7972 13.7109 72.9294 14.8434 72.9294 16.2357C72.9294 17.6278 71.7972 18.76 70.4039 18.76Z" fill="#66509E"/>
<path d="M72.5413 9.39028C72.5413 10.4665 71.6677 11.3386 70.5907 11.3386C69.5162 11.3386 68.6426 10.4665 68.6426 9.39028C68.6426 8.31404 69.5162 7.44141 70.5907 7.44141C71.6677 7.44141 72.5413 8.31404 72.5413 9.39028Z" fill="white"/>
<path d="M70.6115 8.00727C69.8533 8.00727 69.2382 8.62308 69.2382 9.38024C69.2382 10.1369 69.8533 10.753 70.6115 10.753C71.3671 10.753 71.9822 10.1369 71.9822 9.38024C71.9822 8.62308 71.3671 8.00727 70.6115 8.00727V8.00727ZM70.6115 11.9048C69.2182 11.9048 68.0859 10.7723 68.0859 9.38024C68.0859 7.98819 69.2182 6.85547 70.6115 6.85547C72.0023 6.85547 73.1345 7.98819 73.1345 9.38024C73.1345 10.7723 72.0023 11.9048 70.6115 11.9048Z" fill="#66509E"/>
</svg>
