<svg width="14" height="14" viewBox="0 0 14 14" fill="none" xmlns="http://www.w3.org/2000/svg">
<path d="M10.8809 13.642L7 11.2135L3.11912 13.642C2.97814 13.7314 2.79628 13.7245 2.66051 13.626C2.52514 13.5279 2.46304 13.3572 2.50389 13.195L3.61418 8.75337L0.146667 5.81342C0.0184791 5.70607 -0.0315873 5.53143 0.0200924 5.37242C0.071772 5.21301 0.215163 5.10126 0.381795 5.08964L4.90757 4.7736L6.61948 0.527439C6.74526 0.217416 7.25473 0.217416 7.38051 0.527439L9.09242 4.7736L13.6182 5.08964C13.7848 5.10126 13.9282 5.21301 13.9799 5.37242C14.0316 5.53143 13.9815 5.70607 13.8533 5.81342L10.3858 8.75342L11.4961 13.1951C11.5369 13.3573 11.4749 13.5279 11.3394 13.6261C11.2009 13.7267 11.0196 13.7289 10.8809 13.642Z" fill="#F79734"/>
</svg>
