<svg width="120" height="120" viewBox="0 0 120 120" fill="none" xmlns="http://www.w3.org/2000/svg">
<g clip-path="url(#clip0_164_6611)">
<path d="M2.51875 45.5617C2.4704 45.5617 2.42082 45.5554 2.37119 45.5427C2.06085 45.4612 1.87385 45.1445 1.95526 44.8329C2.53142 42.6172 3.24373 40.4129 4.06926 38.2811C4.18496 37.9823 4.52331 37.8334 4.82223 37.9492C5.12114 38.0649 5.26996 38.402 5.1542 38.7022C4.34394 40.792 3.64567 42.953 3.08096 45.1255C3.01228 45.3875 2.77695 45.5617 2.51875 45.5617ZM0.610841 59.0405C0.273736 59.0316 0.0206404 58.7645 0.0295237 58.444C0.0715282 56.9138 0.173243 55.3646 0.331004 53.8357C0.408572 53.0865 0.501434 52.3298 0.606995 51.5844C0.651533 51.2651 0.945352 51.0464 1.26335 51.0896C1.58134 51.1341 1.80263 51.4279 1.75809 51.7459C1.65513 52.4773 1.56352 53.2214 1.48717 53.9553C1.33203 55.4549 1.23279 56.9749 1.1921 58.4758C1.18321 58.7912 0.924991 59.0405 0.610841 59.0405ZM1.80138 72.5994C1.53171 72.5994 1.29006 72.4099 1.23279 72.1351C0.771075 69.8952 0.436596 67.6032 0.23686 65.3239C0.208898 65.0034 0.445479 64.7223 0.764756 64.6943C1.08529 64.6637 1.36637 64.9029 1.39562 65.2221C1.59151 67.457 1.91964 69.7045 2.37244 71.8998C2.43603 72.2153 2.23382 72.5218 1.91964 72.5867C1.88026 72.5956 1.84082 72.5994 1.80138 72.5994ZM6.06616 85.5236C5.84612 85.5236 5.63625 85.3989 5.53832 85.1865C4.57548 83.1094 3.72455 80.956 3.0084 78.7849C2.90794 78.4796 3.0733 78.1514 3.37856 78.0509C3.68383 77.9492 4.01199 78.1158 4.11248 78.4211C4.8146 80.549 5.64898 82.6617 6.59277 84.6981C6.72761 84.9894 6.6004 85.3353 6.30912 85.4702C6.23024 85.5071 6.14757 85.5236 6.06616 85.5236ZM13.1598 97.1403C12.9868 97.1403 12.8151 97.0641 12.7006 96.9164C11.2926 95.1115 9.97484 93.2074 8.7843 91.2562C8.61644 90.9828 8.70289 90.6241 8.97635 90.4575C9.25112 90.2895 9.60852 90.376 9.77642 90.6508C10.9441 92.5638 12.2376 94.4311 13.6177 96.2016C13.8148 96.4547 13.7704 96.8197 13.5172 97.0168C13.4104 97.1009 13.2844 97.1403 13.1598 97.1403ZM22.6993 106.849C22.5709 106.849 22.4424 106.807 22.3343 106.72C20.5574 105.283 18.8415 103.726 17.2376 102.093C17.0125 101.864 17.015 101.497 17.244 101.271C17.473 101.046 17.8418 101.049 18.0669 101.279C19.6404 102.88 21.3218 104.407 23.0656 105.816C23.315 106.018 23.3531 106.383 23.1522 106.634C23.0364 106.775 22.8685 106.849 22.6993 106.849Z" fill="#674EA0"/>
<path d="M82.1822 115.749C81.952 115.749 81.7345 115.61 81.6429 115.384C81.5233 115.086 81.6671 114.748 81.9647 114.627C84.0443 113.79 86.0997 112.822 88.0712 111.75C88.3536 111.597 88.7072 111.701 88.8599 111.984C89.0138 112.265 88.9095 112.618 88.6271 112.772C86.6162 113.865 84.52 114.852 82.3997 115.705C82.3285 115.735 82.2547 115.749 82.1822 115.749ZM69.0557 119.344C68.7734 119.344 68.5253 119.14 68.4821 118.852C68.4325 118.534 68.6513 118.238 68.968 118.188C71.1862 117.85 73.407 117.377 75.5694 116.784C75.8784 116.7 76.199 116.881 76.2842 117.191C76.3694 117.5 76.1862 117.821 75.8772 117.906C73.6716 118.51 71.4063 118.992 69.1448 119.338C69.1142 119.343 69.085 119.344 69.0557 119.344ZM60.0962 120.025C58.5419 120.025 56.9647 119.964 55.4091 119.843C55.0898 119.819 54.8494 119.539 54.8749 119.218C54.9003 118.898 55.1802 118.659 55.4994 118.684C57.7431 118.859 60.0249 118.904 62.2496 118.823C62.5663 118.815 62.8398 119.062 62.8512 119.383C62.8627 119.704 62.6121 119.974 62.2916 119.985C61.5666 120.012 60.8276 120.025 60.0962 120.025Z" fill="#674EA0"/>
<path d="M68.5163 1.74957C68.4883 1.74957 68.4603 1.74701 68.4324 1.74319C67.6565 1.63256 66.8679 1.5346 66.0882 1.4545C64.6356 1.30312 63.1614 1.20516 61.7064 1.16322C61.3858 1.15302 61.1327 0.88463 61.1429 0.564131C61.1518 0.243602 61.4176 -0.0145917 61.7406 0.000641108C63.2238 0.0438973 64.7272 0.144391 66.2077 0.297024C67.0027 0.37969 67.8066 0.478901 68.5977 0.592124C68.9157 0.637883 69.1357 0.932984 69.09 1.2497C69.0493 1.5397 68.7999 1.74957 68.5163 1.74957ZM81.6758 5.20799C81.6059 5.20799 81.5346 5.19526 81.4647 5.16855C79.3774 4.35321 77.2177 3.6511 75.0477 3.08129C74.7361 2.99988 74.5504 2.68191 74.6331 2.37155C74.7144 2.05993 75.0312 1.87421 75.3428 1.95691C77.556 2.53691 79.759 3.25429 81.8883 4.08485C82.1871 4.20186 82.3347 4.53894 82.2177 4.83782C82.1286 5.0668 81.9086 5.20799 81.6758 5.20799ZM93.7033 11.5893C93.5901 11.5893 93.4743 11.555 93.3739 11.4863C91.5244 10.2118 89.5835 9.03398 87.603 7.98334C87.3194 7.83199 87.2113 7.48094 87.3614 7.19728C87.5115 6.91238 87.8638 6.80553 88.1475 6.95563C90.1673 8.02788 92.1477 9.22987 94.034 10.5285C94.2986 10.7104 94.3647 11.0729 94.1828 11.3375C94.0696 11.5016 93.8877 11.5893 93.7033 11.5893ZM103.958 20.5425C103.799 20.5425 103.642 20.4789 103.528 20.353C102.015 18.6931 100.392 17.1032 98.7046 15.629C98.4629 15.4178 98.4387 15.0502 98.6499 14.8086C98.861 14.5669 99.2273 14.5415 99.4703 14.7526C101.191 16.256 102.846 17.8765 104.386 19.5695C104.603 19.8073 104.586 20.1749 104.348 20.3911C104.238 20.4929 104.096 20.5425 103.958 20.5425ZM111.915 31.583C111.711 31.583 111.513 31.4748 111.407 31.2853C110.312 29.3291 109.093 27.4148 107.78 25.5946C107.592 25.3339 107.651 24.9701 107.911 24.7832C108.172 24.5949 108.535 24.6534 108.722 24.9142C110.06 26.7712 111.306 28.7223 112.421 30.7167C112.579 30.9966 112.478 31.3514 112.199 31.5079C112.108 31.5588 112.01 31.583 111.915 31.583ZM117.155 44.1344C116.904 44.1344 116.671 43.9678 116.597 43.7135C115.978 41.5613 115.225 39.4207 114.36 37.3512C114.236 37.0548 114.376 36.714 114.673 36.5906C114.969 36.4672 115.31 36.6058 115.433 36.9022C116.315 39.0136 117.082 41.1963 117.715 43.3916C117.803 43.6994 117.625 44.0225 117.317 44.1116C117.263 44.1268 117.209 44.1344 117.155 44.1344ZM119.389 57.5585C119.08 57.5585 118.823 57.3169 118.808 57.0052C118.697 54.7628 118.454 52.5064 118.086 50.2957C118.034 49.979 118.248 49.6788 118.565 49.6267C118.883 49.5733 119.182 49.7882 119.234 50.105C119.609 52.3588 119.857 54.661 119.969 56.948C119.985 57.2685 119.739 57.5407 119.418 57.5572C119.408 57.5572 119.398 57.5585 119.389 57.5585ZM118.511 71.1428C118.477 71.1428 118.443 71.1403 118.408 71.134C118.092 71.0767 117.882 70.774 117.939 70.4586C118.2 69.0047 118.409 67.5191 118.562 66.0436C118.641 65.2856 118.706 64.516 118.755 63.7554C118.776 63.4349 119.053 63.1958 119.374 63.2136C119.694 63.2339 119.937 63.5112 119.915 63.8305C119.866 64.6063 119.8 65.3911 119.72 66.1632C119.563 67.6679 119.349 69.1815 119.084 70.6646C119.033 70.9457 118.787 71.1428 118.511 71.1428ZM114.583 84.1764C114.506 84.1764 114.428 84.1612 114.352 84.1281C114.058 84.0009 113.922 83.6587 114.049 83.3636C114.94 81.3057 115.719 79.1726 116.367 77.0243C116.46 76.7165 116.784 76.5422 117.09 76.6351C117.398 76.7267 117.573 77.051 117.48 77.3588C116.82 79.5517 116.025 81.7267 115.116 83.8254C115.022 84.0442 114.807 84.1764 114.583 84.1764Z" fill="#674EA0"/>
<path d="M16.6995 55.5267C19.1748 31.6078 40.5714 14.2242 64.4901 16.6993C88.409 19.1745 105.793 40.5724 103.317 64.4899C100.842 88.4087 79.4457 105.792 55.5269 103.317C31.608 100.842 14.2244 79.4455 16.6995 55.5267Z" fill="#EDEAF3"/>
<path d="M27.6558 116.691V100.952C20.3523 96.4025 15.655 88.0637 16.3228 78.6818C17.1864 66.5755 27.1355 56.8947 39.2584 56.3351C50.5151 55.8149 60.1653 63.009 63.3909 73.079L67.9012 90.5223C68.1531 91.4954 67.4192 92.443 66.4131 92.443H62.0071V94.6944C62.0071 100.73 59.3487 104.083 53.7026 105.293H53.6657V116.691H27.6558Z" fill="white"/>
<path d="M53.6896 117.268C53.3678 117.268 53.1083 117.007 53.1083 116.686V105.289C53.1083 104.977 53.3525 104.723 53.6603 104.707C59.047 103.536 61.4484 100.444 61.4484 94.6896V92.4381C61.4484 92.1176 61.7091 91.8568 62.031 91.8568H66.437C66.7359 91.8568 67.0106 91.722 67.1925 91.4867C67.3757 91.2514 67.4367 90.9512 67.363 90.6625L62.8514 73.2191C59.6219 63.1402 49.9374 56.418 39.309 56.9115C27.3973 57.461 17.7738 66.8365 16.9267 78.7177C16.3022 87.4852 20.5403 95.8139 27.9862 100.454C28.1567 100.561 28.2609 100.746 28.2609 100.947V116.686C28.2609 117.007 28.0002 117.268 27.6797 117.268C27.3579 117.268 27.0984 117.007 27.0984 116.686V101.268C19.454 96.3671 15.1193 87.7256 15.7667 78.6363C16.6557 66.1649 26.7537 56.3264 39.2556 55.749C50.408 55.2351 60.5695 62.2855 63.9681 72.8973L68.4886 90.3712C68.654 91.011 68.5166 91.6763 68.1121 92.199C67.7076 92.7205 67.0984 93.0207 66.437 93.0207H62.6122V94.6896C62.6122 100.788 59.8814 104.415 54.2708 105.762V116.686C54.2708 117.007 54.0101 117.268 53.6896 117.268Z" fill="#674EA0"/>
<path d="M42.4753 75.7323C41.7388 75.6127 40.982 75.5643 40.2125 75.5949C34.0779 75.8353 29.1797 80.8836 29.1797 87.0767C29.1797 89.7796 30.1133 92.2827 31.6753 94.248C32.0899 94.7694 32.4664 95.3189 32.82 95.8849C32.8632 95.9536 32.909 96.0299 32.9586 96.11C34.0741 97.9492 34.7749 100.002 35.1222 102.126C35.6271 105.198 36.9703 105.819 36.9703 105.819L42.4753 75.7323Z" fill="white"/>
<path d="M36.9657 106.397C36.8843 106.397 36.8016 106.379 36.7228 106.342C36.5561 106.266 35.0832 105.498 34.5439 102.216C34.1916 100.064 33.4895 98.1091 32.4566 96.4072L32.3218 96.1885C31.9479 95.5881 31.5854 95.0705 31.2153 94.6049C29.5249 92.4782 28.5938 89.802 28.5938 87.0724C28.5938 80.5626 33.6854 75.265 40.185 75.0093C40.9812 74.9775 41.7813 75.0271 42.5635 75.1544C42.8803 75.2052 43.0952 75.5041 43.0443 75.8208C42.9922 76.1376 42.6958 76.3551 42.3766 76.3016C41.6719 76.1872 40.9482 76.1426 40.2308 76.1719C34.3569 76.4021 29.7563 81.1897 29.7563 87.0724C29.7563 89.5413 30.5984 91.9592 32.126 93.8811C32.5241 94.3823 32.9108 94.9343 33.3076 95.5715L33.45 95.8043C34.5604 97.6334 35.3147 99.7283 35.6925 102.028C36.1262 104.676 37.1997 105.282 37.2099 105.287C37.5012 105.421 37.6284 105.767 37.4936 106.059C37.3956 106.271 37.1858 106.397 36.9657 106.397Z" fill="#674EA0"/>
<path d="M44.3848 105.812C44.3848 105.812 45.8348 105.143 46.2876 101.753C46.5191 100.016 47.0648 98.3304 47.9589 96.8232C48.048 96.6731 48.1332 96.5307 48.2159 96.3957C48.6827 95.6326 49.2181 94.9165 49.7664 94.2094C51.3537 92.1564 52.2556 89.5031 52.1703 86.7036C52.1526 86.1312 52.0915 85.5677 51.9923 85.0195L44.3848 105.812Z" fill="white"/>
<path d="M44.3803 106.39C44.1615 106.39 43.9504 106.264 43.8524 106.052C43.7201 105.765 43.841 105.425 44.1246 105.286C44.1704 105.26 45.3177 104.579 45.7069 101.673C45.9588 99.7851 46.5464 98.0516 47.4546 96.5215C47.5449 96.37 47.6313 96.225 47.7153 96.0889C48.219 95.2634 48.7977 94.5002 49.3014 93.8491C50.8532 91.8419 51.6634 89.3094 51.5846 86.7172C51.568 86.1817 51.5108 85.645 51.4154 85.1197C51.3582 84.8042 51.5667 84.5015 51.8835 84.443C52.1989 84.3858 52.5016 84.5956 52.5589 84.9111C52.6657 85.4924 52.7281 86.0889 52.7471 86.6816C52.8349 89.5422 51.9382 92.3405 50.2211 94.56C49.7377 95.1872 49.1806 95.9198 48.7074 96.6943C48.626 96.8279 48.5421 96.9679 48.4543 97.1154C47.6276 98.5094 47.0908 100.094 46.8593 101.827C46.3772 105.429 44.8026 106.254 44.6245 106.336C44.5456 106.373 44.4617 106.39 44.3803 106.39Z" fill="#674EA0"/>
<path d="M36.5918 105.82V110.211C36.5918 110.948 37.1896 111.544 37.9261 111.544H38.777V112.27C38.777 112.752 39.1688 113.143 39.6508 113.143H41.6897C42.1718 113.143 42.5623 112.752 42.5623 112.27V111.544H43.7579C44.3049 111.544 44.7475 111.101 44.7475 110.554V105.82H36.5918Z" fill="#EE445B"/>
<path d="M37.1684 106.397V110.206C37.1684 110.621 37.5067 110.958 37.9214 110.958H38.7723C39.0941 110.958 39.3549 111.219 39.3549 111.539V112.266C39.3549 112.426 39.4846 112.557 39.6462 112.557H41.6851C41.8453 112.557 41.9763 112.426 41.9763 112.266V111.539C41.9763 111.219 42.2358 110.958 42.5576 110.958H43.7533C43.9783 110.958 44.1615 110.775 44.1615 110.55V106.397H37.1684ZM41.6851 113.719H39.6462C38.8435 113.719 38.191 113.067 38.191 112.266V112.121H37.9214C36.8644 112.121 36.0059 111.262 36.0059 110.206V105.816C36.0059 105.495 36.2666 105.234 36.5871 105.234H44.7428C45.0646 105.234 45.3241 105.495 45.3241 105.816V110.55C45.3241 111.416 44.6194 112.121 43.7533 112.121H43.1389V112.266C43.1389 113.067 42.4863 113.719 41.6851 113.719Z" fill="#674EA0"/>
<path d="M36.9727 96.7383L38.9162 99.7426L39.4478 105.816L36.9727 96.7383Z" fill="white"/>
<path d="M39.4434 106.393C39.1445 106.393 38.8914 106.165 38.8647 105.862L38.3444 99.9324L36.4798 97.0502C36.3055 96.7807 36.3831 96.4206 36.6528 96.2463C36.9211 96.0708 37.2824 96.1485 37.4566 96.418L39.3989 99.4224C39.4511 99.5012 39.4816 99.5928 39.4905 99.6869L40.0221 105.76C40.0501 106.081 39.8136 106.363 39.4943 106.391C39.4765 106.393 39.46 106.393 39.4434 106.393Z" fill="#674EA0"/>
<path d="M44.4283 96.7383L42.4861 99.7426L41.9531 105.816L44.4283 96.7383Z" fill="white"/>
<path d="M41.9494 106.393C41.9316 106.393 41.9151 106.393 41.8973 106.391C41.5781 106.363 41.3414 106.081 41.3694 105.76L41.9012 99.6869C41.91 99.5928 41.9405 99.5012 41.9927 99.4224L43.935 96.418C44.1104 96.1485 44.4692 96.0708 44.7401 96.2463C45.0098 96.4206 45.0861 96.7807 44.9118 97.0502L43.0471 99.9324L42.5282 105.862C42.5015 106.165 42.2471 106.393 41.9494 106.393Z" fill="#674EA0"/>
<path d="M42.1794 85.981L46.5981 87.4742L42.1794 88.9662L40.6861 93.3849L39.1929 88.9662L34.7754 87.4742L39.1929 85.981L40.6861 81.5623L42.1794 85.981Z" fill="#EE445B"/>
<path d="M36.5871 87.4696L39.3752 88.4108C39.5469 88.4693 39.6817 88.6041 39.7402 88.7759L40.6814 91.5639L41.624 88.7759C41.6812 88.6041 41.816 88.4693 41.9877 88.4108L44.7771 87.4696L41.9877 86.5271C41.816 86.4698 41.6812 86.3337 41.624 86.162L40.6814 83.3739L39.7402 86.162C39.6817 86.3337 39.5469 86.4698 39.3752 86.5271L36.5871 87.4696ZM40.6814 93.9616C40.4322 93.9616 40.2108 93.8026 40.1307 93.5673L38.7303 89.4207L34.5838 88.0203C34.3485 87.9402 34.1895 87.7189 34.1895 87.4696C34.1895 87.2203 34.3485 86.9977 34.5838 86.9188L38.7303 85.5171L40.1307 81.3719C40.2108 81.1353 40.4322 80.9763 40.6814 80.9763C40.9308 80.9763 41.1521 81.1353 41.2322 81.3719L42.6326 85.5171L46.7791 86.9188C47.0157 86.9977 47.1747 87.2203 47.1747 87.4696C47.1747 87.7189 47.0157 87.9402 46.7791 88.0203L42.6326 89.4207L41.2322 93.5673C41.1521 93.8026 40.9308 93.9616 40.6814 93.9616Z" fill="#674EA0"/>
<path d="M53.986 73.325L58.4047 74.8182L53.986 76.3102L52.4928 80.729L51.0008 76.3102L46.582 74.8182L51.0008 73.325L52.4928 68.9062L53.986 73.325Z" fill="#807DBB"/>
<path d="M48.3937 74.8136L51.1818 75.7548C51.3535 75.8133 51.4883 75.9481 51.5468 76.1199L52.4881 78.9079L53.4305 76.1199C53.4891 75.9481 53.6239 75.8133 53.7956 75.7548L56.5837 74.8136L53.7956 73.8711C53.6239 73.8125 53.4891 73.6777 53.4305 73.506L52.4881 70.7179L51.5468 73.506C51.4883 73.6777 51.3535 73.8125 51.1818 73.8711L48.3937 74.8136ZM52.4881 81.3056C52.2388 81.3056 52.0174 81.1465 51.9373 80.9112L50.5369 76.7647L46.3904 75.3643C46.1551 75.2842 45.9961 75.0629 45.9961 74.8136C45.9961 74.5643 46.1551 74.3417 46.3904 74.2628L50.5369 72.8611L51.9373 68.7159C52.0174 68.4793 52.2388 68.3203 52.4881 68.3203C52.7374 68.3203 52.96 68.4793 53.0389 68.7159L54.4405 72.8611L58.5857 74.2628C58.8223 74.3417 58.9813 74.5643 58.9813 74.8136C58.9813 75.0629 58.8223 75.2842 58.5857 75.3643L54.4405 76.7647L53.0389 80.9112C52.96 81.1465 52.7374 81.3056 52.4881 81.3056Z" fill="#674EA0"/>
<path d="M40.7718 63.3826L44.6817 64.7041L40.7718 66.0244L39.4502 69.9356L38.1287 66.0244L34.2188 64.7041L38.1287 63.3826L39.4502 59.4727L40.7718 63.3826Z" fill="#EE445B"/>
<path d="M36.0304 64.7007L38.311 65.4703C38.4828 65.5288 38.6175 65.6636 38.6748 65.8353L39.4456 68.1159L40.2164 65.8353C40.2736 65.6636 40.4084 65.5288 40.5802 65.4703L42.8608 64.7007L40.5802 63.93C40.4084 63.8714 40.2736 63.7366 40.2164 63.5649L39.4456 61.2856L38.6748 63.5649C38.6175 63.7366 38.4828 63.8714 38.311 63.93L36.0304 64.7007ZM39.4456 70.5135C39.1963 70.5135 38.975 70.3545 38.8948 70.1179L37.6661 66.4802L34.0284 65.2515C33.7918 65.1714 33.6328 64.9501 33.6328 64.7007C33.6328 64.4502 33.7918 64.2289 34.0284 64.15L37.6661 62.92L38.8948 59.2823C38.975 59.0457 39.1963 58.8867 39.4456 58.8867C39.6949 58.8867 39.9162 59.0457 39.9964 59.2823L41.225 62.92L44.8628 64.15C45.0993 64.2289 45.2583 64.4502 45.2583 64.7007C45.2583 64.9501 45.0993 65.1714 44.8628 65.2515L41.225 66.4802L39.9964 70.1179C39.9162 70.3545 39.6949 70.5135 39.4456 70.5135Z" fill="#674EA0"/>
<path d="M54.2729 5.27344C50.1239 5.27344 46.2432 6.41818 42.926 8.40623C39.7398 6.62677 36.0702 5.60795 32.1602 5.60795C19.9484 5.60795 10.0488 15.5075 10.0488 27.7194C10.0488 39.9313 19.9484 49.8321 32.1602 49.8321C36.3093 49.8321 40.1887 48.6873 43.5072 46.6993C46.6935 48.48 50.363 49.4975 54.2729 49.4975C66.4849 49.4975 76.3843 39.598 76.3843 27.3861C76.3843 15.1729 66.4849 5.27344 54.2729 5.27344Z" fill="white"/>
<path d="M48.3219 46.3162L49.9334 43.4989C50.0352 43.2979 50.17 43.0727 50.2998 42.854C50.8454 41.9407 51.1583 41.348 50.7703 40.6993C50.4359 40.1422 49.8202 40.0582 48.8447 39.9883C48.5534 39.9667 48.2545 39.945 47.9644 39.8967L45.2425 39.6156C44.6371 39.622 44.0151 39.5495 43.4148 39.4782C42.864 39.4134 42.2954 39.3459 41.7625 39.3459C41.3491 39.3472 40.9777 39.5329 40.7271 39.856C40.4817 40.1727 40.3951 40.567 40.4893 40.941C40.6813 41.7041 43.8306 42.3096 43.893 42.5945C43.9566 42.8807 43.8269 43.1732 43.5738 43.3195C42.6948 43.8257 42.0474 44.2035 41.5399 44.4986C40.1408 45.3152 39.8088 45.5085 38.7035 46.0389C34.3114 48.1503 29.356 48.5497 24.7515 47.1646C19.5977 45.6154 15.2769 42.0743 12.8971 37.4495C10.5274 32.8451 10.1573 27.1913 11.8808 21.9369C13.3473 17.4711 16.302 13.5001 20.2005 10.7553C24.1321 7.9875 28.9477 6.58459 33.7556 6.80463C34.113 6.81989 34.4031 6.6787 34.5925 6.41795C34.7757 6.16357 34.8151 5.84814 34.702 5.55175C34.5811 5.23886 34.4539 4.95777 34.3254 4.71734C34.1715 4.43244 33.8828 4.24674 33.5725 4.2353C33.2697 4.22513 32.967 4.21875 32.6643 4.21875C31.9405 4.21875 31.2219 4.25056 30.516 4.31415C23.2799 4.96919 16.5056 8.99744 12.3946 15.0913C10.0721 18.5357 8.65644 22.5754 8.30026 26.7766C7.73426 34.0585 10.736 41.0949 16.3325 45.5925C21.4242 49.6869 28.2074 51.3887 34.4781 50.146C36.8592 49.6754 39.1703 48.8016 41.3478 47.55C41.7345 47.3286 41.8375 47.2727 41.952 47.2104C42.1085 47.1252 42.2865 47.0285 43.2863 46.4523C43.5381 46.3073 43.7976 46.1661 44.0583 46.0249C44.3217 45.8825 44.6447 45.9321 44.8533 46.1445C45.0632 46.3569 44.4157 48.6986 45.1128 49.1552C45.6508 49.5075 46.3771 49.3841 46.8006 48.869C47.1174 48.4849 47.3819 47.9811 47.6389 47.494C47.85 47.0946 48.0675 46.6813 48.3219 46.3162Z" fill="#EE445B"/>
<path d="M32.6602 4.79546C31.9555 4.79546 31.2496 4.82727 30.564 4.88961C23.4997 5.5281 16.8856 9.46221 12.8714 15.4124C10.6047 18.7741 9.22339 22.7197 8.87615 26.8217C8.32414 33.9089 11.2458 40.7571 16.6922 45.1351C21.6515 49.1226 28.258 50.7812 34.3608 49.5716C36.6795 49.1124 38.9321 48.2615 41.0537 47.0417C41.4429 46.8178 41.5511 46.7593 41.6668 46.697C41.8258 46.6105 42.0026 46.5139 42.9922 45.944C43.2491 45.7952 43.5124 45.6515 43.7782 45.509C44.2654 45.2458 44.8772 45.3373 45.2638 45.7329C45.5297 46.0025 45.4928 46.3778 45.4241 47.0595C45.3859 47.4449 45.2842 48.4688 45.4483 48.6812C45.7167 48.853 46.1122 48.7817 46.3475 48.4956C46.6248 48.1572 46.8767 47.6815 47.1196 47.2223C47.3358 46.8102 47.5584 46.3892 47.8256 46.0013L49.4244 43.2055C49.516 43.0236 49.6546 42.7909 49.7881 42.5658C50.3656 41.5965 50.4546 41.3053 50.2676 40.9936C50.0947 40.7062 49.7322 40.6311 48.7973 40.5625C48.4908 40.5408 48.1791 40.5179 47.8662 40.4671L45.2117 40.1936C44.5782 40.1961 43.9194 40.1198 43.342 40.0511C42.8065 39.9875 42.2557 39.9226 41.7584 39.9226C41.5269 39.9239 41.3221 40.0282 41.1809 40.2088C41.0563 40.3704 41.0054 40.5676 41.0397 40.7558C41.2738 41.0178 42.4719 41.4108 42.9896 41.5813C43.9881 41.9107 44.3621 42.0328 44.4575 42.4665C44.5745 43.0007 44.3353 43.5439 43.8596 43.8186C43.0164 44.3045 42.3867 44.6721 41.8894 44.9608L41.8283 44.9964C40.4127 45.8219 40.0769 46.0178 38.9512 46.5584C34.4282 48.7334 29.3239 49.1442 24.5795 47.7171C19.2756 46.1221 14.8276 42.4755 12.3765 37.7108C9.9357 32.969 9.55281 27.1511 11.3246 21.7517C12.8293 17.1664 15.8616 13.0911 19.8619 10.2762C23.899 7.43348 28.8419 5.99616 33.7782 6.21876C33.9805 6.22896 34.0682 6.13988 34.1165 6.07248C34.1852 5.97837 34.198 5.86899 34.1547 5.75705C34.0428 5.46451 33.9258 5.20632 33.8087 4.98754C33.754 4.88451 33.651 4.81582 33.5467 4.81201C33.2517 4.80053 32.9553 4.79546 32.6602 4.79546ZM30.3783 51.1208C25.232 51.1208 20.0629 49.3362 15.9635 46.0406C10.218 41.4222 7.13489 34.2027 7.71614 26.7275C8.08118 22.4245 9.52994 18.2882 11.9085 14.7623C16.116 8.52471 23.0507 4.40109 30.4597 3.73079C31.4811 3.63921 32.538 3.61121 33.59 3.6494C34.1063 3.66845 34.5821 3.97118 34.8326 4.43671C34.9739 4.69875 35.1099 5.00146 35.2397 5.33853C35.4254 5.82186 35.3605 6.33699 35.0603 6.75292C34.7551 7.17522 34.2679 7.40671 33.7261 7.38125C29.0441 7.16756 24.3583 8.53237 20.5309 11.2263C16.7342 13.8987 13.8571 17.7654 12.4299 22.1141C10.7536 27.221 11.1109 32.712 13.4106 37.179C15.7179 41.6639 19.9115 45.0994 24.914 46.6041C29.3799 47.9473 34.1865 47.5581 38.4475 45.5102C39.5312 44.99 39.8594 44.798 41.242 43.9928L41.3043 43.9559C41.7813 43.6786 42.3816 43.3289 43.1753 42.8709C43.0036 42.8099 42.7989 42.7425 42.6271 42.6865C41.111 42.1879 40.1049 41.8064 39.9204 41.0788C39.7831 40.5306 39.9077 39.9531 40.2638 39.4952C40.6251 39.0297 41.1644 38.7613 41.7393 38.76C42.3244 38.76 42.9095 38.8287 43.4755 38.8961C44.0593 38.9648 44.6558 39.0335 45.2333 39.0297C45.2537 39.0284 45.2766 39.031 45.2982 39.0335L48.0201 39.3146C48.3165 39.3617 48.6014 39.3833 48.8775 39.4024C49.8009 39.4698 50.751 39.5398 51.2649 40.3958C51.8525 41.3751 51.3145 42.277 50.7943 43.1482C50.667 43.3632 50.5424 43.5718 50.447 43.7588L48.8228 46.6003C48.8139 46.6143 48.8049 46.6296 48.7947 46.6435C48.562 46.9793 48.3521 47.3762 48.1499 47.759C47.8777 48.2755 47.5991 48.8046 47.2455 49.2345C46.6337 49.9786 45.578 50.1516 44.7906 49.6364C44.0466 49.1505 44.1687 47.9269 44.2679 46.9437C44.2793 46.8191 44.2946 46.6702 44.3035 46.5456C44.0568 46.6791 43.8125 46.814 43.5721 46.9513C42.5635 47.5326 42.3829 47.6306 42.2252 47.7158C42.1094 47.7794 42.0064 47.8354 41.6324 48.0503C39.4015 49.3324 37.0306 50.2279 34.5872 50.7125C33.2008 50.9872 31.7902 51.1208 30.3783 51.1208Z" fill="#674EA0"/>
<path d="M52.9661 50.5275C53.9964 50.5657 55.0228 50.5389 56.0225 50.4486C63.2586 49.7949 70.0342 45.7653 74.1451 39.6715C76.4664 36.2283 77.8821 32.1887 78.2383 27.9861C78.8055 20.7043 75.8025 13.6692 70.2072 9.17035C65.1144 5.07726 58.3311 3.37537 52.0604 4.61679C49.6806 5.08867 47.3695 5.96124 45.1919 7.21283C44.8053 7.43543 44.7022 7.49139 44.5865 7.55369C44.4301 7.63764 44.2533 7.73432 43.2522 8.31051C43.0004 8.45679 42.7409 8.59798 42.4802 8.73916C42.2169 8.88032 41.8939 8.83074 41.6839 8.61831C41.4754 8.4059 42.124 6.06427 41.4258 5.60891C40.8864 5.25657 40.1614 5.37868 39.7391 5.89381C39.4211 6.27921 39.1566 6.7829 38.8997 7.26879C38.6885 7.66945 38.471 8.08281 38.2167 8.44788L36.6063 11.264C36.5033 11.4649 36.3698 11.6913 36.2387 11.9088C35.6944 12.8221 35.3802 13.4161 35.7681 14.0635C36.1027 14.6219 36.7196 14.7045 37.6951 14.7758C37.9851 14.7974 38.2853 14.819 38.5753 14.8661L41.296 15.1472C41.9065 15.1421 42.5247 15.2146 43.1251 15.2846C43.6809 15.3507 44.2622 15.4143 44.7938 15.4181C45.1894 15.4169 45.5608 15.2299 45.8114 14.9068C46.0569 14.5914 46.1447 14.1958 46.0505 13.8218C45.8585 13.06 42.7079 12.4532 42.6455 12.1683C42.5819 11.8834 42.7117 11.5896 42.9648 11.4446C43.845 10.9371 44.4937 10.5593 45.0012 10.263C46.3991 9.44888 46.731 9.25427 47.8351 8.7239C52.2271 6.61372 57.1825 6.21309 61.7882 7.59823C66.9409 9.14874 71.2617 12.6898 73.6414 17.3146C76.0111 21.919 76.3812 27.5728 74.6578 32.8272C73.1912 37.293 70.2365 41.264 66.338 44.0075C62.4064 46.7753 57.5921 48.1782 52.7829 47.9594C52.7651 47.9582 52.7473 47.9582 52.7282 47.9582C52.4013 47.9582 52.1253 48.0981 51.946 48.3461C51.7628 48.5993 51.7234 48.9147 51.8378 49.211C51.9587 49.5265 52.0859 49.8076 52.2131 50.0454C52.367 50.3316 52.6557 50.516 52.9661 50.5275Z" fill="#EE445B"/>
<path d="M52.7506 48.5347C52.5853 48.5347 52.4848 48.5831 52.4136 48.681C52.3449 48.7764 52.3321 48.8845 52.3754 48.9977C52.4899 49.2915 52.6056 49.551 52.7214 49.766C52.7773 49.869 52.8803 49.9377 52.9834 49.9415C53.9882 49.9797 54.9918 49.953 55.9661 49.8652C63.0305 49.2267 69.6446 45.2926 73.6587 39.3412C75.9254 35.982 77.3067 32.0364 77.6539 27.9331C78.2059 20.8446 75.2843 13.9977 69.8379 9.61844C64.8786 5.63215 58.2733 3.97483 52.1693 5.18189C49.8518 5.64107 47.6006 6.49328 45.4777 7.71181C45.0834 7.93947 44.9765 7.99671 44.8595 8.0603C44.7043 8.14425 44.5301 8.23836 43.5392 8.81073C43.2823 8.9583 43.0177 9.10202 42.7531 9.24577C42.2647 9.50903 41.6529 9.4162 41.265 9.02063C40.9992 8.75096 41.0373 8.37576 41.106 7.69398C41.1442 7.30858 41.2459 6.28469 41.0818 6.07225C40.8134 5.90057 40.4179 5.97304 40.1838 6.25798C39.9053 6.5963 39.6547 7.072 39.4117 7.53118C39.1955 7.94329 38.9729 8.36303 38.7046 8.75353L37.107 11.548C37.0142 11.7311 36.8768 11.9626 36.742 12.189C36.1645 13.157 36.0767 13.4482 36.2624 13.7599C36.4354 14.0474 36.7979 14.1236 37.7328 14.1911C38.0394 14.2139 38.351 14.2369 38.6651 14.2877L41.3196 14.5612C41.9671 14.5663 42.6145 14.635 43.1882 14.7024C43.7224 14.766 44.2859 14.8283 44.7933 14.8308C45.0033 14.8308 45.208 14.7265 45.3492 14.5459C45.4751 14.3831 45.5247 14.186 45.4903 13.999C45.2563 13.737 44.0582 13.3427 43.5405 13.1722C42.542 12.8441 42.1681 12.7207 42.0727 12.2882C41.9556 11.754 42.1948 11.2096 42.6705 10.9361C43.5494 10.4286 44.1968 10.0509 44.703 9.75581C46.1175 8.93284 46.4532 8.73698 47.5789 8.19513C52.1019 6.0214 57.2062 5.61054 61.9506 7.03641C67.2546 8.63267 71.7025 12.2793 74.1536 17.0427C76.5944 21.7858 76.9773 27.6024 75.2054 33.0031C73.7007 37.5871 70.6685 41.6624 66.6695 44.4785C62.6323 47.32 57.6896 48.7599 52.7531 48.5347C52.7519 48.5347 52.7506 48.5347 52.7506 48.5347ZM53.8725 51.1219C53.5621 51.1219 53.2517 51.1155 52.9414 51.1041C52.4237 51.085 51.948 50.7835 51.6975 50.3155C51.5588 50.0585 51.4214 49.7558 51.2904 49.4162C51.1047 48.9316 51.1709 48.4164 51.471 48.0005C51.7585 47.6011 52.2164 47.3722 52.7239 47.3722L52.8028 47.3735C57.4874 47.5846 62.1731 46.2211 65.9992 43.5271C69.7959 40.8548 72.673 36.9881 74.1001 32.6406C75.7766 27.5337 75.4192 22.0428 73.1207 17.5757C70.8122 13.0908 66.6186 9.65534 61.616 8.15063C57.1503 6.80743 52.3436 7.19539 48.0826 9.24323C46.9989 9.76469 46.6707 9.95548 45.2894 10.7606C44.8023 11.0456 44.1841 11.4055 43.3548 11.8825C43.5265 11.9436 43.7313 12.011 43.903 12.0682C45.4192 12.5668 46.4265 12.9471 46.6097 13.6759C46.7471 14.2241 46.6224 14.8016 46.2662 15.2595C45.905 15.725 45.367 15.9921 44.7908 15.9947C44.2184 15.9909 43.6181 15.9247 43.0521 15.8573C42.4759 15.7899 41.8819 15.7212 41.2968 15.7238C41.2739 15.7238 41.2536 15.7238 41.2319 15.7212L38.5113 15.4401C38.2136 15.3918 37.9287 15.3714 37.6527 15.3511C36.7292 15.2837 35.7791 15.215 35.2652 14.3577C34.6789 13.3783 35.2156 12.4778 35.7358 11.6065C35.8643 11.3915 35.989 11.1829 36.0831 10.9959L37.7073 8.15444C37.7163 8.13915 37.7252 8.1252 37.7354 8.1099C37.9694 7.77411 38.1792 7.37727 38.3802 6.99315C38.6524 6.47801 38.9323 5.94887 39.2858 5.51899C39.8963 4.77487 40.9521 4.60191 41.7394 5.11702C42.4835 5.60419 42.3614 6.82654 42.2622 7.80974C42.2495 7.93441 42.2355 8.08448 42.2253 8.20783C42.4733 8.07556 42.7188 7.94076 42.9579 7.8021C43.9691 7.21953 44.1472 7.12289 44.3049 7.03766C44.4182 6.9766 44.5199 6.92065 44.8977 6.7044C47.1312 5.42103 49.5008 4.52559 51.9429 4.04224C58.3803 2.76647 65.3416 4.51287 70.5667 8.7128C76.3133 13.3312 79.3952 20.5521 78.814 28.0272C78.4489 32.3315 77.0002 36.4678 74.6216 39.9924C70.4153 46.23 63.4794 50.3536 56.0704 51.0239C55.3492 51.0888 54.6127 51.1219 53.8725 51.1219Z" fill="#674EA0"/>
<path d="M41.118 28.9433C41.132 35.6858 35.6753 41.1641 28.9328 41.1768C22.189 41.1908 16.712 35.7342 16.6992 28.9916C16.6853 22.2478 22.1406 16.7708 28.8845 16.7581C35.627 16.7441 41.1052 22.1994 41.118 28.9433Z" fill="white"/>
<path d="M28.9052 17.3347C28.8976 17.3347 28.89 17.3347 28.8823 17.3347C25.7762 17.341 22.8584 18.5558 20.6669 20.7562C18.474 22.9567 17.2708 25.8796 17.2771 28.9857C17.2835 32.0917 18.4982 35.0096 20.6987 37.2012C22.894 39.3876 25.8067 40.5909 28.9039 40.5909C28.9116 40.5909 28.9205 40.5909 28.9281 40.5909C35.34 40.5781 40.546 35.3517 40.5333 28.9399C40.5269 25.8338 39.3122 22.916 37.1105 20.7244C34.9164 18.5379 32.0024 17.3347 28.9052 17.3347ZM28.9039 41.7534C25.4964 41.7534 22.2924 40.4306 19.8782 38.0254C17.4578 35.6137 16.1209 32.4046 16.1133 28.9882C16.107 25.5718 17.4311 22.3563 19.8426 19.9358C22.253 17.5153 25.4634 16.1785 28.8798 16.1721C28.8886 16.1721 28.8976 16.1721 28.9052 16.1721C32.3128 16.1721 35.5168 17.4949 37.9322 19.9002C40.3527 22.3118 41.6895 25.5209 41.6959 28.9373C41.7098 35.9903 35.9836 41.7394 28.9307 41.7534C28.9218 41.7534 28.9129 41.7534 28.9039 41.7534Z" fill="#674EA0"/>
<path d="M25.0781 31.57V32.6931C25.0781 33.815 25.9875 34.7244 27.1094 34.7244H30.7243C31.8449 34.7244 32.7543 33.815 32.7543 32.6931V31.0231C32.7543 29.9025 31.8449 28.9931 30.7243 28.9931H27.1094C25.9875 28.9931 25.0781 28.0836 25.0781 26.9631V25.293C25.0781 24.1724 25.9875 23.2617 27.1094 23.2617H30.7243C31.8449 23.2617 32.7543 24.1724 32.7543 25.293V26.453L25.0781 31.57Z" fill="white"/>
<path d="M30.7196 35.3011H27.1047C25.6636 35.3011 24.4922 34.1283 24.4922 32.6885V31.5654C24.4922 31.2436 24.7529 30.9841 25.0734 30.9841C25.3952 30.9841 25.6547 31.2436 25.6547 31.5654V32.6885C25.6547 33.4873 26.306 34.1373 27.1047 34.1373H30.7196C31.5183 34.1373 32.1683 33.4873 32.1683 32.6885V31.0185C32.1683 30.2197 31.5183 29.5697 30.7196 29.5697H27.1047C25.6636 29.5697 24.4922 28.3983 24.4922 26.9584V25.2884C24.4922 23.8472 25.6636 22.6758 27.1047 22.6758H30.7196C32.1594 22.6758 33.3309 23.8472 33.3309 25.2884V26.4484C33.3309 26.7689 33.0714 27.0296 32.7496 27.0296C32.4291 27.0296 32.1683 26.7689 32.1683 26.4484V25.2884C32.1683 24.4896 31.5183 23.8384 30.7196 23.8384H27.1047C26.306 23.8384 25.6547 24.4896 25.6547 25.2884V26.9584C25.6547 27.7572 26.306 28.4072 27.1047 28.4072H30.7196C32.1594 28.4072 33.3309 29.5786 33.3309 31.0185V32.6885C33.3309 34.1283 32.1594 35.3011 30.7196 35.3011Z" fill="#674EA0"/>
<path d="M28.9114 23.8497C28.5896 23.8497 28.3301 23.589 28.3301 23.2685V20.5618C28.3301 20.24 28.5896 19.9805 28.9114 19.9805C29.2319 19.9805 29.4926 20.24 29.4926 20.5618V23.2685C29.4926 23.589 29.2319 23.8497 28.9114 23.8497Z" fill="#674EA0"/>
<path d="M28.9114 38.0292C28.5896 38.0292 28.3301 37.7684 28.3301 37.4479V34.7412C28.3301 34.4207 28.5896 34.1599 28.9114 34.1599C29.2319 34.1599 29.4926 34.4207 29.4926 34.7412V37.4479C29.4926 37.7684 29.2319 38.0292 28.9114 38.0292Z" fill="#674EA0"/>
<path d="M54.7221 22.5543C56.6594 20.6171 59.7998 20.6171 61.737 22.5543C63.6741 24.4914 63.6741 27.6318 61.737 29.569C59.7998 31.5061 56.6594 31.5061 54.7221 29.569C52.7863 27.6318 52.7863 24.4914 54.7221 22.5543ZM48.0089 19.6046L49.3368 20.9325C49.4881 21.0839 49.5187 21.3141 49.4194 21.5036C49.1599 22.0047 48.9463 22.525 48.7771 23.0554C48.7122 23.2589 48.5291 23.4001 48.3154 23.4001H46.4368C45.9343 23.4001 45.5273 23.8071 45.5273 24.3095V27.8137C45.5273 28.3161 45.9343 28.7232 46.4368 28.7232H48.3154C48.5291 28.7232 48.7122 28.8643 48.7771 29.0679C48.9463 29.5995 49.1599 30.1185 49.4194 30.6209C49.5187 30.8104 49.4881 31.0406 49.3368 31.1907L48.0089 32.5186C47.654 32.8735 47.654 33.4497 48.0089 33.8046L50.4866 36.2823C50.8415 36.6372 51.4177 36.6372 51.7725 36.2823L53.1004 34.9544C53.2519 34.8043 53.482 34.7738 53.6716 34.8717C54.1727 35.1312 54.6929 35.3461 55.2233 35.514C55.4268 35.5789 55.568 35.7633 55.568 35.977V37.8544C55.568 38.3568 55.975 38.7638 56.4775 38.7638H59.9816C60.4841 38.7638 60.8911 38.3568 60.8911 37.8544V35.977C60.8911 35.7633 61.0323 35.5789 61.2358 35.514C61.7675 35.3461 62.2864 35.1312 62.7888 34.8717C62.9783 34.7738 63.2086 34.8043 63.3587 34.9544L64.6866 36.2823C65.0415 36.6372 65.6176 36.6372 65.9725 36.2823L68.4502 33.8046C68.8051 33.4497 68.8051 32.8735 68.4502 32.5186L67.1223 31.1907C66.9722 31.0406 66.9417 30.8104 67.0397 30.6209C67.2991 30.1185 67.5141 29.5995 67.682 29.0679C67.7469 28.8643 67.9313 28.7232 68.145 28.7232H70.0223C70.5248 28.7232 70.9318 28.3161 70.9318 27.8137V24.3095C70.9318 23.8071 70.5248 23.4001 70.0223 23.4001H68.145C67.9313 23.4001 67.7469 23.2589 67.682 23.0554C67.5141 22.525 67.2991 22.0047 67.0397 21.5036C66.9417 21.3141 66.9722 21.0839 67.1223 20.9325L68.4502 19.6046C68.8051 19.2498 68.8051 18.6736 68.4502 18.3187L65.9725 15.8409C65.6176 15.4861 65.0415 15.4861 64.6866 15.8409L63.3587 17.1688C63.2086 17.3202 62.9783 17.3494 62.7888 17.2515C62.2864 16.992 61.7675 16.7771 61.2358 16.6092C61.0323 16.5443 60.8911 16.3599 60.8911 16.1475V14.2688C60.8911 13.7664 60.4841 13.3594 59.9816 13.3594H56.4775C55.975 13.3594 55.568 13.7664 55.568 14.2688V16.1475C55.568 16.3599 55.4268 16.5443 55.2233 16.6092C54.6929 16.7771 54.1727 16.992 53.6716 17.2515C53.482 17.3494 53.2519 17.3202 53.1004 17.1688L51.7725 15.8409C51.4177 15.4861 50.8415 15.4861 50.4866 15.8409L48.0089 18.3187C47.654 18.6736 47.654 19.2498 48.0089 19.6046Z" fill="#807DBB"/>
<path d="M58.2548 21.6786C57.0847 21.6786 55.9857 22.1339 55.159 22.9607C53.452 24.6689 53.452 27.4468 55.159 29.1538C55.9857 29.9805 57.0847 30.4359 58.2548 30.4359C59.4238 30.4359 60.524 29.9805 61.3508 29.1538C63.0577 27.4468 63.0577 24.6689 61.3508 22.9607C60.524 22.1339 59.4238 21.6786 58.2548 21.6786ZM58.2548 31.5984C56.7744 31.5984 55.3828 31.0222 54.336 29.9754C52.1762 27.8157 52.1762 24.3 54.336 22.139C55.3828 21.0922 56.7744 20.516 58.2548 20.516C59.7342 20.516 61.1269 21.0922 62.1725 22.139C64.3335 24.3 64.3335 27.8157 62.1725 29.9754C61.1269 31.0222 59.7342 31.5984 58.2548 31.5984ZM53.4648 34.2288C53.6326 34.2288 53.8044 34.2682 53.9633 34.3509C54.4301 34.5926 54.9224 34.7961 55.4235 34.9563C55.8725 35.0988 56.1753 35.5071 56.1753 35.9726V37.85C56.1753 38.0306 56.3215 38.1782 56.5022 38.1782H60.0063C60.1869 38.1782 60.3345 38.0306 60.3345 37.85V35.9726C60.3345 35.5071 60.6359 35.0988 61.0849 34.9563C61.5874 34.7961 62.0783 34.5926 62.5464 34.3509C62.9636 34.1347 63.466 34.2097 63.7942 34.5392L65.1221 35.8671C65.2467 35.9904 65.4617 35.9904 65.5863 35.8671L68.0641 33.3893C68.1913 33.2609 68.1913 33.0535 68.0641 32.925L66.7362 31.5971C66.4067 31.269 66.3317 30.7666 66.5479 30.3481C66.7909 29.8813 66.9931 29.3891 67.1533 28.8879C67.2958 28.4389 67.7041 28.1375 68.1697 28.1375H70.047C70.2277 28.1375 70.3752 27.9899 70.3752 27.8093V24.3051C70.3752 24.1245 70.2277 23.977 70.047 23.977H68.1697C67.7041 23.977 67.2958 23.6755 67.1533 23.2265C66.9931 22.7253 66.7909 22.2331 66.5479 21.7663C66.3317 21.3478 66.4067 20.8467 66.7362 20.5173L68.0641 19.1894C68.1264 19.127 68.1595 19.0456 68.1595 18.9579C68.1595 18.8701 68.1264 18.7874 68.0641 18.7264L65.5863 16.2474C65.4579 16.1202 65.2505 16.1202 65.1221 16.2486L63.7954 17.5753C63.466 17.9047 62.9636 17.9797 62.5451 17.7635C62.0783 17.5218 61.5874 17.3183 61.0849 17.1593C60.6359 17.0169 60.3345 16.6073 60.3345 16.1431V14.2644C60.3345 14.0838 60.1869 13.9362 60.0063 13.9362H56.5022C56.3215 13.9362 56.1753 14.0838 56.1753 14.2644V16.1431C56.1753 16.6073 55.8725 17.0169 55.4248 17.1593C54.9224 17.3183 54.4314 17.5218 53.9633 17.7635C53.5449 17.9797 53.0437 17.9047 52.7143 17.5753L51.3864 16.2474C51.2592 16.1202 51.0506 16.1202 50.9234 16.2474L48.4444 18.7251C48.3833 18.7874 48.349 18.8701 48.349 18.9579C48.349 19.0456 48.3833 19.127 48.4444 19.1894L49.7723 20.5173C50.1018 20.8467 50.1768 21.3478 49.9605 21.7663C49.7189 22.2344 49.5153 22.7253 49.3564 23.2265C49.2139 23.6755 48.8056 23.977 48.3401 23.977H46.4614C46.2808 23.977 46.1333 24.1245 46.1333 24.3051V27.8093C46.1333 27.9899 46.2808 28.1375 46.4614 28.1375H48.3401C48.8056 28.1375 49.2139 28.4389 49.3564 28.8879C49.5153 29.3891 49.7189 29.8813 49.9605 30.3494C50.178 30.7666 50.1018 31.269 49.7723 31.5971L48.4444 32.925C48.3172 33.0535 48.3172 33.2609 48.4457 33.3893L50.9234 35.8671C51.0468 35.9904 51.263 35.9904 51.3864 35.8671L52.7143 34.5392C52.9178 34.3356 53.1887 34.2288 53.4648 34.2288ZM60.0063 39.3407H56.5022C55.6805 39.3407 55.0114 38.6717 55.0114 37.85V36.0451C54.4887 35.8747 53.9748 35.6623 53.4851 35.413L52.2094 36.6887C51.6459 37.2522 50.6639 37.2522 50.1005 36.6887L47.6227 34.211C47.0414 33.6297 47.0414 32.6846 47.6227 32.1034L48.8997 30.8263C48.6492 30.3367 48.4368 29.8241 48.2676 29.3H46.4614C45.6398 29.3 44.9707 28.631 44.9707 27.8093V24.3051C44.9707 23.4834 45.6398 22.8144 46.4614 22.8144H48.2676C48.4368 22.2916 48.6492 21.779 48.8997 21.2881L47.6227 20.0123C47.3416 19.7299 47.1864 19.356 47.1864 18.9579C47.1864 18.5598 47.3416 18.1845 47.6227 17.9034L50.1005 15.4257C50.6817 14.8444 51.6281 14.8444 52.2094 15.4257L53.4851 16.7014C53.9748 16.4521 54.4887 16.2397 55.0114 16.0706V14.2644C55.0114 13.4427 55.6805 12.7737 56.5022 12.7737H60.0063C60.8293 12.7737 61.4971 13.4427 61.4971 14.2644V16.0706C62.0198 16.2397 62.5337 16.4521 63.0234 16.7014L64.3004 15.4257C64.8817 14.8444 65.828 14.8444 66.408 15.4257L68.8858 17.9034C69.1682 18.1845 69.3233 18.5598 69.3233 18.9579C69.3233 19.356 69.1682 19.7299 68.8858 20.0123L67.61 21.2881C67.8605 21.779 68.0717 22.2916 68.2421 22.8144H70.047C70.8687 22.8144 71.5378 23.4834 71.5378 24.3051V27.8093C71.5378 28.631 70.8687 29.3 70.047 29.3H68.2421C68.0717 29.8241 67.8593 30.3367 67.61 30.8263L68.8858 32.1034C69.4671 32.6846 69.4671 33.6297 68.8858 34.211L66.408 36.6887C65.8458 37.2522 64.8626 37.2522 64.3004 36.6887L63.0234 35.413C62.5337 35.6623 62.0211 35.8747 61.4971 36.0451V37.85C61.4971 38.6717 60.8293 39.3407 60.0063 39.3407Z" fill="#674EA0"/>
<path d="M81.2033 59.4138C78.9762 61.641 77.7246 64.6619 77.7246 67.8124V74.4214C77.7246 76.2759 79.9657 77.2045 81.2759 75.8931L85.9909 71.1755L81.2033 59.4138Z" fill="#EE445B"/>
<path d="M79.8174 77.0869C79.4714 77.0869 79.1204 77.0182 78.7808 76.877C77.7683 76.4573 77.1387 75.5148 77.1387 74.4171V67.8081C77.1387 64.4794 78.4335 61.3517 80.7879 58.9986C81.0143 58.771 81.3831 58.771 81.6095 58.9986C81.8372 59.225 81.8372 59.5939 81.6095 59.8203C79.4765 61.9546 78.3012 64.791 78.3012 67.8081V74.4171C78.3012 75.1561 78.7795 75.6178 79.226 75.8022C79.6737 75.988 80.3376 76.0007 80.8604 75.4779L85.5755 70.7603C85.8018 70.5339 86.1708 70.5326 86.3971 70.7603C86.6248 70.9867 86.6248 71.3555 86.3985 71.5819L81.6833 76.3008C81.1669 76.816 80.503 77.0869 79.8174 77.0869Z" fill="#674EA0"/>
<path d="M109.525 59.4138C111.752 61.641 113.004 64.6619 113.004 67.8124V74.4214C113.004 76.2759 110.763 77.2045 109.451 75.8931L104.766 71.206L109.525 59.4138Z" fill="#EE445B"/>
<path d="M110.902 77.0869C110.217 77.0869 109.553 76.816 109.036 76.3008L104.35 71.6137C104.123 71.3861 104.123 71.0185 104.35 70.7908C104.577 70.5644 104.946 70.5644 105.172 70.7908L109.859 75.4779C110.381 76.0007 111.046 75.988 111.492 75.8022C111.94 75.6178 112.418 75.1561 112.418 74.4171V67.8081C112.418 64.791 111.243 61.9546 109.11 59.8203C108.882 59.5939 108.882 59.225 109.11 58.9986C109.336 58.771 109.705 58.771 109.932 58.9986C112.285 61.3517 113.581 64.4794 113.581 67.8081V74.4171C113.581 75.5148 112.951 76.4573 111.938 76.877C111.598 77.0182 111.247 77.0869 110.902 77.0869Z" fill="#674EA0"/>
<path d="M102.56 72.4921C103.418 72.4921 104.218 72.0533 104.674 71.3283C108.325 65.5257 110.439 58.661 110.439 51.3003C110.439 40.6287 106.001 30.995 98.8706 24.1405C96.9207 22.2657 93.8502 22.2657 91.9003 24.1405C84.7698 30.995 80.332 40.6287 80.332 51.3003C80.332 58.661 82.4459 65.5257 86.0964 71.3283C86.553 72.0533 87.3531 72.4921 88.2104 72.4921H102.56Z" fill="#807DBB"/>
<path d="M95.3808 23.3132C94.2717 23.3132 93.1625 23.7279 92.2976 24.5597C84.9534 31.6203 80.9087 41.1166 80.9087 51.2998C80.9087 58.298 82.8713 65.1169 86.5828 71.0174C86.9351 71.5758 87.5418 71.9103 88.2058 71.9103H102.556C103.22 71.9103 103.827 71.5758 104.178 71.0174C107.89 65.1156 109.853 58.298 109.853 51.2998C109.853 41.1166 105.808 31.6203 98.464 24.5597C97.5991 23.7279 96.4899 23.3132 95.3808 23.3132ZM102.556 73.0728H88.2058C87.1399 73.0728 86.1656 72.536 85.5996 71.6368C81.7698 65.5506 79.7461 58.518 79.7461 51.2997C79.7461 40.7973 83.9181 31.0034 91.4925 23.7215C93.6726 21.6241 97.089 21.6241 99.2692 23.7215C106.844 31.0034 111.016 40.7973 111.016 51.2997C111.016 58.5167 108.992 65.5493 105.162 71.6368C104.596 72.536 103.622 73.0728 102.556 73.0728Z" fill="#674EA0"/>
<path d="M109.904 97.4258C110.773 97.4258 111.56 97.0761 112.13 96.5062C112.7 95.9364 113.05 95.1503 113.05 94.2803C113.05 92.5454 111.643 91.1336 109.904 91.1336H104.053C104.573 91.1336 105.044 90.9262 105.385 90.5841C105.726 90.2432 105.934 89.7777 105.934 89.2574C105.934 88.217 105.094 87.3762 104.053 87.3762H99.7859L99.7719 89.8171V77.8125H90.9434V89.8171V87.3762H86.676C86.1558 87.3762 85.6852 87.5887 85.3443 87.927C85.0035 88.2666 84.7948 88.7372 84.7948 89.2574C84.7948 90.2941 85.6356 91.1348 86.676 91.1348H80.8251C79.9551 91.1348 79.169 91.4884 78.5992 92.0582C78.0281 92.623 77.6796 93.4143 77.6796 94.2803C77.6796 96.0192 79.0864 97.4258 80.8251 97.4258H84.7833H77.658C76.5997 97.4258 75.642 97.857 74.9475 98.5502C74.253 99.2396 73.8281 100.202 73.8281 101.257C73.8281 103.376 75.5401 105.088 77.658 105.088H113.07C114.13 105.088 115.087 104.662 115.782 103.969C116.476 103.274 116.901 102.315 116.901 101.257C116.901 99.1442 115.189 97.4258 113.07 97.4258H105.946H109.904Z" fill="#FEFEFE"/>
<path d="M77.6546 98.0024C76.7884 98.0024 75.9705 98.3422 75.3549 98.9577C74.7418 99.5656 74.4061 100.38 74.4061 101.252C74.4061 103.044 75.8637 104.502 77.6546 104.502H113.067C113.938 104.502 114.755 104.165 115.366 103.553C115.979 102.94 116.317 102.124 116.317 101.252C116.317 99.4601 114.859 98.0024 113.067 98.0024H105.943C105.621 98.0024 105.361 97.743 105.361 97.4212C105.361 97.1007 105.621 96.8399 105.943 96.8399H109.901C110.588 96.8399 111.233 96.574 111.716 96.0907C112.199 95.6075 112.465 94.9625 112.465 94.2757C112.465 92.8612 111.314 91.7114 109.901 91.7114H104.05C103.728 91.7114 103.469 91.4507 103.469 91.1289C103.469 90.8083 103.728 90.5476 104.05 90.5476C104.398 90.5476 104.727 90.4128 104.971 90.1686C105.215 89.9243 105.349 89.6 105.349 89.2528C105.349 88.5354 104.766 87.9528 104.05 87.9528H100.36L100.35 89.815C100.349 90.1355 100.088 90.3937 99.7686 90.3937C99.4467 90.3924 99.1873 90.1329 99.1873 89.8124V78.3904H91.5213V89.8124C91.5213 90.1329 91.2605 90.3937 90.94 90.3937C90.6195 90.3937 90.3587 90.1329 90.3587 89.8124V87.9528H86.6727C86.3267 87.9528 85.9998 88.0889 85.7492 88.3357C85.5076 88.5774 85.3727 88.903 85.3727 89.2528C85.3727 89.9676 85.9553 90.5489 86.6727 90.5489C86.9932 90.5489 87.2539 90.8083 87.2539 91.1301C87.2539 91.4507 86.9932 91.7114 86.6727 91.7114H80.8217C80.1374 91.7114 79.4925 91.9785 79.0067 92.4644C78.5233 92.9439 78.2575 93.5875 78.2575 94.2757C78.2575 95.6786 79.3908 96.8233 80.7899 96.8399H84.78C85.1018 96.8399 85.3613 97.1007 85.3613 97.4212C85.3613 97.743 85.1018 98.0024 84.78 98.0024H80.8217C80.809 98.0024 80.7963 98.0024 80.7835 98.0024H77.6546ZM113.067 105.665H77.6546C75.2227 105.665 73.2422 103.685 73.2422 101.252C73.2422 100.068 73.7014 98.9602 74.5345 98.1335C75.3689 97.2991 76.4781 96.8399 77.6546 96.8399H78.1189C77.4841 96.1708 77.0937 95.2677 77.0937 94.2757C77.0937 93.2746 77.4816 92.3385 78.1862 91.6402C78.8897 90.9368 79.8258 90.5489 80.8217 90.5489H84.5803C84.3463 90.1724 84.2101 89.7285 84.2101 89.2528C84.2101 88.5926 84.4658 87.9745 84.9301 87.5102C85.402 87.0447 86.0189 86.7903 86.6727 86.7903H90.3587V77.8078C90.3587 77.4873 90.6195 77.2266 90.94 77.2266H99.7686C100.089 77.2266 100.35 77.4873 100.35 77.8078V86.7903H104.05C105.407 86.7903 106.512 87.8956 106.512 89.2528C106.512 89.7183 106.384 90.1635 106.145 90.5476H109.901C111.956 90.5476 113.628 92.2202 113.628 94.2757C113.628 95.2385 113.266 96.1455 112.609 96.8399H113.067C115.5 96.8399 117.479 98.8191 117.479 101.252C117.479 102.434 117.021 103.543 116.189 104.375C115.357 105.207 114.248 105.665 113.067 105.665Z" fill="#674EA0"/>
<path d="M106.982 51.9688V49.7353C106.982 49.3193 106.645 48.9836 106.23 48.9836H104.592C104.351 47.7383 103.884 46.6521 103.242 45.6689L104.286 44.6157C104.576 44.3232 104.576 43.8487 104.284 43.5562L102.647 41.9154C102.348 41.6152 101.859 41.6216 101.568 41.9306L100.632 42.924C99.6476 42.2715 98.2624 41.7933 97.4318 41.5465V40.1855C97.4318 39.7709 97.0948 39.4338 96.6801 39.4338H94.032C93.616 39.4338 93.2802 39.7709 93.2802 40.1855V41.5465C92.0337 41.7933 91.0365 42.2677 90.052 42.9189L89.0561 41.9026C88.7636 41.6037 88.2827 41.6025 87.9877 41.8988L86.3545 43.5422C86.0633 43.8347 86.062 44.3066 86.352 44.6004L87.4065 45.6689C86.7641 46.6521 86.3062 47.7383 86.0658 48.9836H84.4822C84.0663 48.9836 83.7305 49.3193 83.7305 49.7353V51.9688C83.7305 52.3835 84.0663 52.7205 84.4822 52.7205H86.0823C86.3316 53.9657 86.801 55.0202 87.4458 55.9932L86.3736 57.0731C86.081 57.3656 86.0823 57.8401 86.3736 58.1326L88.0157 59.7772C88.312 60.0749 88.7966 60.0698 89.0892 59.767L90.1004 58.7139C91.0734 59.3486 92.0337 59.8141 93.2802 60.0571V61.5173C93.2802 61.9332 93.616 62.269 94.032 62.269H96.6801C97.0948 62.269 97.4318 61.9332 97.4318 61.5173V60.0571C98.2624 59.8141 99.612 59.3511 100.584 58.7152L101.613 59.776C101.905 60.0774 102.39 60.08 102.686 59.7798L104.309 58.1428C104.6 57.8503 104.599 57.3758 104.308 57.0833L103.223 55.9932C103.868 55.0202 104.326 53.9657 104.575 52.7205H106.23C106.646 52.7205 106.982 52.3835 106.982 51.9688Z" fill="white"/>
<path d="M90.0957 58.128C90.2064 58.128 90.317 58.1585 90.4137 58.2221C91.4541 58.9013 92.3432 59.2778 93.3862 59.4813C93.6597 59.5348 93.8569 59.7739 93.8569 60.0524V61.5126C93.8569 61.6067 93.9331 61.6831 94.0273 61.6831H96.6754C96.7696 61.6831 96.8459 61.6067 96.8459 61.5126V60.0524C96.8459 59.7942 97.0163 59.5665 97.2644 59.494C97.9754 59.2867 99.3122 58.8441 100.261 58.2247C100.494 58.072 100.802 58.1063 100.996 58.306L102.025 59.3656C102.066 59.4088 102.118 59.4113 102.147 59.4177C102.179 59.4177 102.226 59.4088 102.268 59.3668L103.891 57.7286C103.957 57.6624 103.957 57.5556 103.891 57.4894L102.806 56.3994C102.612 56.2035 102.581 55.897 102.734 55.6668C103.363 54.7166 103.778 53.7143 103.999 52.6014C104.054 52.3292 104.293 52.1333 104.57 52.1333H106.225C106.319 52.1333 106.396 52.057 106.396 51.9641V49.7306C106.396 49.6365 106.319 49.5602 106.225 49.5602H104.587C104.308 49.5602 104.068 49.363 104.016 49.0883C103.8 47.9715 103.386 46.9552 102.75 45.9822C102.6 45.7533 102.632 45.4492 102.824 45.2546L103.868 44.2027C103.933 44.1353 103.933 44.0285 103.868 43.9624L102.231 42.3216C102.188 42.2783 102.141 42.2681 102.108 42.2707C102.075 42.2719 102.028 42.2809 101.986 42.3241L101.051 43.3175C100.856 43.5235 100.542 43.5604 100.306 43.404C99.3555 42.7731 97.9907 42.3165 97.2619 42.1003C97.015 42.0265 96.8459 41.8001 96.8459 41.5418V40.1809C96.8459 40.0868 96.7696 40.0104 96.6754 40.0104H94.0273C93.9331 40.0104 93.8569 40.0868 93.8569 40.1809V41.5418C93.8569 41.8204 93.6597 42.0583 93.3874 42.113C92.3254 42.3228 91.3943 42.7197 90.3691 43.3989C90.1364 43.5528 89.8273 43.521 89.6314 43.3213L88.6368 42.3038C88.5948 42.263 88.5477 42.2478 88.516 42.2541C88.4829 42.2541 88.4358 42.263 88.3951 42.3038L86.7619 43.9471C86.6958 44.0132 86.6958 44.1201 86.7607 44.1862L87.8164 45.2559C88.0072 45.4505 88.0377 45.7533 87.8888 45.9822C87.2605 46.9438 86.8497 47.9601 86.6322 49.0883C86.5788 49.363 86.3397 49.5602 86.0611 49.5602H84.4775C84.3835 49.5602 84.3071 49.6365 84.3071 49.7306V51.9641C84.3071 52.057 84.3835 52.1333 84.4775 52.1333H86.0776C86.355 52.1333 86.5941 52.3292 86.6475 52.6014C86.8675 53.6965 87.2847 54.7001 87.9258 55.6681C88.0784 55.897 88.0479 56.2023 87.8533 56.3981L86.781 57.478C86.7149 57.5441 86.7149 57.6523 86.781 57.7171L88.4218 59.3618C88.4638 59.4025 88.5071 59.4113 88.544 59.4113C88.5707 59.4101 88.6215 59.4037 88.6647 59.3592L89.6772 58.306C89.7892 58.1877 89.9418 58.128 90.0957 58.128ZM96.6754 62.8469H94.0273C93.2921 62.8469 92.693 62.2478 92.693 61.5126V60.5192C91.8281 60.303 91.0408 59.9685 90.1873 59.4533L89.503 60.1643C89.2524 60.4251 88.9153 60.5701 88.5541 60.5739C88.1852 60.5739 87.8507 60.4353 87.5989 60.1834L85.9581 58.5388C85.4404 58.0211 85.4404 57.1778 85.9555 56.6576L86.7022 55.9072C86.2023 55.0753 85.8436 54.2142 85.6134 53.2971H84.4775C83.7424 53.2971 83.1445 52.6993 83.1445 51.9641V49.7306C83.1445 48.9955 83.7424 48.3976 84.4775 48.3976H85.593C85.8194 47.4551 86.1743 46.5813 86.6665 45.7469L85.9339 45.0041C85.4226 44.4864 85.4239 43.6444 85.9365 43.128L87.5709 41.4833C87.8253 41.229 88.1611 41.0802 88.521 41.0916C88.8797 41.0929 89.2155 41.234 89.4661 41.4897L90.1326 42.1714C90.9886 41.65 91.8052 41.3002 92.693 41.0776V40.1809C92.693 39.4457 93.2921 38.8479 94.0273 38.8479H96.6754C97.4106 38.8479 98.0084 39.4457 98.0084 40.1809V41.1145C98.7144 41.3409 99.6912 41.7021 100.528 42.1765L101.14 41.5266C101.389 41.262 101.728 41.1132 102.091 41.1081C102.448 41.0992 102.797 41.243 103.054 41.5011L104.691 43.1407C105.208 43.6584 105.209 44.5017 104.694 45.0206L103.974 45.7469C104.471 46.5876 104.827 47.4615 105.055 48.3976H106.225C106.96 48.3976 107.558 48.9955 107.558 49.7306V51.9641C107.558 52.6993 106.96 53.2971 106.225 53.2971H105.035C104.804 54.2231 104.448 55.0842 103.956 55.9072L104.715 56.669C105.232 57.1867 105.232 58.03 104.717 58.5477L103.094 60.1847C102.841 60.4416 102.504 60.5803 102.14 60.5803C101.78 60.5777 101.443 60.4353 101.191 60.1758L100.484 59.4482C99.6568 59.9125 98.7004 60.2623 98.0084 60.4823V61.5126C98.0084 62.2478 97.4106 62.8469 96.6754 62.8469Z" fill="#674EA0"/>
<path d="M88.2129 72.4805V75.7328C88.2129 76.8826 89.1452 77.815 90.2938 77.815H100.327C101.477 77.815 102.408 76.8826 102.408 75.7328V72.4805H88.2129Z" fill="#EE445B"/>
<path d="M88.7908 73.0571V75.7282C88.7908 76.5549 89.4624 77.2278 90.2891 77.2278H100.322C101.149 77.2278 101.822 76.5549 101.822 75.7282V73.0571H88.7908ZM100.322 78.3916H90.2891C88.8213 78.3916 87.627 77.1973 87.627 75.7282V72.4758C87.627 72.154 87.8877 71.8945 88.2083 71.8945H102.403C102.725 71.8945 102.984 72.154 102.984 72.4758V75.7282C102.984 77.1973 101.79 78.3916 100.322 78.3916Z" fill="#674EA0"/>
<path d="M104.037 30.8693H86.7434C86.4216 30.8693 86.1621 30.6099 86.1621 30.288C86.1621 29.9675 86.4216 29.7068 86.7434 29.7068H104.037C104.359 29.7068 104.618 29.9675 104.618 30.288C104.618 30.6099 104.359 30.8693 104.037 30.8693Z" fill="#674EA0"/>
<path d="M98.5138 49.0352V48.1194C98.5138 47.2061 97.7723 46.4646 96.8577 46.4646H93.9107C92.9974 46.4646 92.2559 47.2061 92.2559 48.1194V49.4816C92.2559 50.3949 92.9974 51.1364 93.9107 51.1364H96.8577C97.7723 51.1364 98.5138 51.878 98.5138 52.7912V54.1522C98.5138 55.0667 97.7723 55.8083 96.8577 55.8083H93.9107C92.9974 55.8083 92.2559 55.0667 92.2559 54.1522V53.2072L98.5138 49.0352Z" fill="white"/>
<path d="M96.8531 56.3851H93.906C92.6734 56.3851 91.6699 55.3816 91.6699 54.1478V53.2027C91.6699 52.8822 91.9294 52.6215 92.2512 52.6215C92.5717 52.6215 92.8324 52.8822 92.8324 53.2027V54.1478C92.8324 54.7405 93.3145 55.2226 93.906 55.2226H96.8531C97.4458 55.2226 97.9266 54.7405 97.9266 54.1478V52.7881C97.9266 52.1954 97.4458 51.7133 96.8531 51.7133H93.906C92.6734 51.7133 91.6699 50.7097 91.6699 49.4759V48.115C91.6699 46.8825 92.6734 45.8789 93.906 45.8789H96.8531C98.0868 45.8789 99.0904 46.8825 99.0904 48.115V49.0308C99.0904 49.3526 98.8296 49.6121 98.5091 49.6121C98.1873 49.6121 97.9266 49.3526 97.9266 49.0308V48.115C97.9266 47.5235 97.4458 47.0414 96.8531 47.0414H93.906C93.3145 47.0414 92.8324 47.5235 92.8324 48.115V49.4759C92.8324 50.0687 93.3145 50.5508 93.906 50.5508H96.8531C98.0868 50.5508 99.0904 51.5543 99.0904 52.7881V54.1478C99.0904 55.3816 98.0868 56.3851 96.8531 56.3851Z" fill="#674EA0"/>
<path d="M95.3859 58.5634C95.0641 58.5634 94.8047 58.3027 94.8047 57.9821V55.7766C94.8047 55.4548 95.0641 55.1953 95.3859 55.1953C95.7065 55.1953 95.9672 55.4548 95.9672 55.7766V57.9821C95.9672 58.3027 95.7065 58.5634 95.3859 58.5634Z" fill="#674EA0"/>
<path d="M95.3859 47.0217C95.0641 47.0217 94.8047 46.761 94.8047 46.4405V44.2349C94.8047 43.9131 95.0641 43.6523 95.3859 43.6523C95.7065 43.6523 95.9672 43.9131 95.9672 44.2349V46.4405C95.9672 46.761 95.7065 47.0217 95.3859 47.0217Z" fill="#674EA0"/>
</g>
<defs>
<clipPath id="clip0_164_6611">
<rect width="120" height="120" fill="white"/>
</clipPath>
</defs>
</svg>
