<svg width="591" height="506" viewBox="0 0 591 506" fill="none" xmlns="http://www.w3.org/2000/svg">
<path d="M432.155 397.306C430.873 399.875 429.08 401.932 426.776 403.467C423.315 405.785 396.4 436.603 391.396 450.472C386.403 464.331 387.936 471.265 389.092 473.969C390.24 476.664 394.876 482.178 400.622 482.825C403.957 483.202 411.091 483.385 422.033 483.385" stroke="#37466E" stroke-width="2" stroke-linecap="round" stroke-linejoin="round"/>
<path d="M442.846 421.96C429.86 445.477 422.707 459.21 421.387 463.18C417.54 474.73 421.233 483.278 424.462 487.382C428.308 492.259 438.17 493.225 442.846 493.225C447.531 493.225 503.675 477.435 512.129 477.048C520.593 476.662 529.819 477.048 531.361 475.889C532.894 474.73 535.969 464.329 531.361 457.588C524.179 455.927 517.643 454.449 511.744 453.165C502.904 451.233 490.603 451.233 485.985 453.165C481.368 455.087 476.538 460.872 477.415 457.588C478.292 454.314 492.521 431.975 494.064 425.814C495.596 419.652 497.9 410.786 495.982 406.17" stroke="#37466E" stroke-width="2" stroke-linecap="round" stroke-linejoin="round"/>
<path d="M532.462 473.987C538.198 472.838 543.471 472.838 548.281 473.987" stroke="#37466E" stroke-width="2" stroke-linecap="round" stroke-linejoin="round"/>
<path d="M532.462 459.636C533.975 459.365 535.103 458.747 535.874 457.781" stroke="#37466E" stroke-width="2" stroke-linecap="round" stroke-linejoin="round"/>
<path d="M537.707 449.697C535.335 453.29 534.439 455.54 535.007 456.438C535.875 457.781 542.507 461.827 544.435 462.021C546.354 462.214 550.393 460.678 552.697 462.021C555.011 463.373 549.043 467.989 548.282 470.114C547.511 472.229 548.475 477.821 550.393 478.004C552.311 478.197 562.115 477.048 570.965 480.515C579.805 483.982 587.102 484.369 587.112 480.515C587.112 478.777 582.494 475.928 578.658 473.987C574.811 472.036 565.759 464.329 564.419 463.952C563.079 463.566 559.233 466.454 558.654 464.908C558.086 463.373 559.426 462.069 557.7 459.635C555.965 457.211 554.239 454.314 548.282 450.847C544.3 448.538 540.782 448.152 537.707 449.697Z" fill="#37466E"/>
<path d="M537.707 449.697C536.81 446.616 537.061 444.559 538.468 443.535C540.589 441.99 545.968 441.024 553.082 443.535C560.197 446.037 561.932 450.083 562.115 452.585C562.308 455.086 561.334 457.211 564.419 456.824C567.504 456.438 569.23 456.168 572.305 458.708C575.39 461.248 587.498 472.267 588.847 473.986C590.187 475.696 590.573 479.163 587.112 480.515" stroke="#37466E" stroke-width="2" stroke-linecap="round" stroke-linejoin="round"/>
<path d="M527.313 456.659L521.548 451.231C513.094 446.48 505.401 443.727 498.48 442.955C491.558 442.182 486.989 442.549 484.771 444.046" stroke="#37466E" stroke-width="2" stroke-linecap="round" stroke-linejoin="round"/>
<path d="M524.248 446.424L522.552 452.171L528.278 456.662L531.363 457.589C531.961 458.352 532.423 459.25 532.751 460.283C534.949 459.066 536.193 458.236 536.491 457.782C534.862 456.98 534.322 456.015 534.872 454.894C535.431 453.774 536.231 452.026 537.282 449.64C532.819 447.11 528.471 446.038 524.248 446.424Z" fill="#37466E"/>
<path d="M540.925 442.453C539.286 439.961 535.613 438.397 529.916 437.75C521.365 436.793 521.365 440.946 521.837 442.627C522.165 443.737 522.908 445.215 524.064 447.031" stroke="#37466E" stroke-width="2" stroke-linecap="round" stroke-linejoin="round"/>
<path d="M466.233 461.258C465.144 464.368 464.893 467.796 465.819 468.762C469.279 472.393 482.814 458.515 502.422 460.282C515.494 461.47 526.079 462.562 534.167 463.566" stroke="#37466E" stroke-width="4"/>
<path d="M427.73 321.713C429.465 323.828 429.465 324.89 427.73 324.89C425.136 324.89 423.69 325.18 425.715 327.488C427.73 329.796 423.98 349.16 422.543 355.225C421.097 361.29 417.058 381.804 417.636 385.271C418.215 388.738 421.097 394.32 436.386 397.304C451.666 400.289 474.445 399.719 483.391 395.382" stroke="#37466E" stroke-width="2" stroke-linecap="round" stroke-linejoin="round"/>
<path d="M473.011 324.021C474.486 325.18 475.768 325.943 476.858 326.329C475.315 327.295 474.679 328.357 474.93 329.506C475.315 331.245 479.644 341.067 480.511 343.954C481.369 346.842 482.815 349.44 488.291 347.422C493.776 345.403 509.056 337.889 510.791 332.404C512.516 326.909 507.041 325.75 503.291 321.713C499.541 317.666 492.041 305.526 482.237 300.91C475.701 297.829 470.052 296.573 465.28 297.153C463.284 303.701 458.349 306.878 450.492 306.685C442.626 306.492 438.982 304.57 439.56 300.91C433.024 302.059 427.732 304.377 423.693 307.844C416.26 316.121 411.71 320.747 410.042 321.713C407.545 323.152 405.531 325.469 403.795 325.75C402.07 326.039 400.913 328.647 403.795 331.245C406.687 333.843 416.202 340.777 424.271 342.515" stroke="#37466E" stroke-width="2" stroke-linecap="round" stroke-linejoin="round"/>
<path d="M486.566 348.137C492.91 359.6 496.178 365.917 496.37 367.066C496.66 368.804 480.802 400.482 478.488 406.17C476.184 411.849 471.277 425.718 468.106 427.446C464.934 429.185 459.458 430.054 459.748 431.783C460.037 433.521 460.037 433.811 461.762 433.811C463.498 433.811 467.816 433.521 467.527 433.811C467.344 433.994 464.741 440.166 459.738 452.296C458.957 453.841 458.957 454.749 459.738 455.039C460.895 455.473 462.052 455.184 463.208 452.586C464.356 449.988 469.262 440.735 470.13 441.17C470.988 441.605 464.789 456.777 464.5 457.781C464.211 458.795 464.028 460.186 465.281 460.283C466.525 460.389 467.816 458.853 468.829 456.661C469.503 455.193 471.47 451.378 474.738 445.217" stroke="#37466E" stroke-width="2" stroke-linecap="round" stroke-linejoin="round"/>
<path d="M466.956 460.293C466.764 461.413 467.149 462.021 468.104 462.118C469.55 462.263 471.854 458.216 472.866 456.053C473.878 453.89 478.197 446.202 478.631 446.366C479.064 446.521 475.7 457.482 477.416 457.589C479.142 457.704 480.694 452.953 481.966 448.945C483.248 444.927 485.552 433.376 485.552 430.914C485.552 428.461 484.395 422.83 487.287 417.625C490.17 412.429 507.185 389.897 511.793 379.061C516.41 368.225 515.687 365.917 514.82 363.02C513.962 360.132 507.214 340.942 505.035 338.547" stroke="#37466E" stroke-width="2" stroke-linecap="round" stroke-linejoin="round"/>
<path d="M453.056 285.998C456.951 290.325 459.544 293.386 460.865 295.192C468.509 291.493 473.358 288.808 475.412 287.138C478.487 284.636 479.065 285.023 479.065 281.932C479.065 278.851 480.222 278.465 481.562 280.59C482.912 282.705 483.297 283.284 485.794 281.739C488.291 280.203 492.137 278.465 488.484 270.188C484.83 261.902 479.027 252.273 477.793 247.27C475.547 250.989 473.493 253.046 471.643 253.432C468.741 252.659 467.169 251.5 466.928 249.965C470.659 244.054 473.166 240.848 474.448 240.336C471.893 232.117 468.616 226.467 464.644 223.387C458.686 218.761 450.993 215.1 441.961 216.259C432.928 217.418 422.43 222.035 417.581 226.274C412.742 230.514 408.124 238.404 411.392 246.691L411.941 254.378L416.01 257.092L416.395 251.694C417.803 253.876 418.767 254.91 419.278 254.774C420.049 254.591 424.657 253.432 425.428 252.08C426.199 250.737 426.778 247.657 427.346 248.613C427.925 249.579 427.539 251.694 429.274 251.694C431 251.694 437.401 251.887 442.848 251.5C448.304 251.124 452.536 249.965 452.921 248.613C453.307 247.27 454.647 242.451 455.033 244.19C455.418 245.918 456.585 248.613 456.575 248.613C456.575 248.613 458.59 247.85 459.216 247.463C459.843 247.077 462.34 255.354 462.725 259.207C463.111 263.061 463.053 277.335 453.056 285.998Z" fill="#37466E"/>
<path d="M415.431 262.483H412.356C412.298 271.861 411.614 278.66 410.293 282.9C408.317 289.255 408.76 294.074 412.867 295.996C416.964 297.927 419.278 299.656 420.618 298.69C421.967 297.734 421.389 295.61 422.931 295.996C424.464 296.382 423.51 300.042 426.199 300.429C428.889 300.815 436.967 300.815 439.657 299.463C439.522 294.325 438.953 291.244 437.922 290.221C431 289.583 425.939 287.207 422.739 283.093C417.909 276.902 416.781 270.19 415.431 262.483Z" fill="#37466E"/>
<path d="M416.009 257.092C411.141 253.238 407.545 251.761 405.241 252.659C401.78 254.011 406.012 261.332 415.43 262.481L416.009 257.092Z" stroke="#37466E" stroke-width="2" stroke-linecap="round" stroke-linejoin="round"/>
<path d="M466.927 249.965C470.764 242.77 474.379 239.245 477.791 239.37C482.91 239.564 477.107 251.307 471.641 253.432C469.385 252.92 467.814 251.761 466.927 249.965Z" stroke="#37466E" stroke-width="2" stroke-linecap="round" stroke-linejoin="round"/>
<path d="M435.666 291.252C443.928 292.237 450.907 289.9 456.575 284.25" stroke="#37466E" stroke-width="2" stroke-linecap="round" stroke-linejoin="round"/>
<path opacity="0.2" d="M419.17 269.783C419.45 271.087 421.484 269.909 424.183 269.329C426.882 268.75 429.224 268.991 428.944 267.687C428.665 266.384 425.87 264.027 423.171 264.607C420.472 265.186 418.891 268.479 419.17 269.783Z" fill="#EE445B"/>
<path opacity="0.2" d="M453.054 266.895C453.015 268.228 450.798 267.427 448.042 267.349C445.285 267.262 443.029 267.929 443.068 266.596C443.116 265.263 445.439 262.434 448.196 262.521C450.953 262.607 453.092 265.563 453.054 266.895Z" fill="#EE445B"/>
<path d="M445.613 252.455C450.095 253.489 452.659 254.261 453.305 254.773C454.26 255.546 456.573 253.981 454.645 252.455C453.363 251.432 452.341 250.543 451.58 249.771L445.613 252.455Z" stroke="#37466E" stroke-width="2" stroke-linecap="round" stroke-linejoin="round"/>
<path d="M419.276 254.773C418.051 256.058 417.733 256.956 418.312 257.468C419.179 258.241 425.04 255.353 425.425 254.773C425.811 254.204 425.637 252.069 425.107 252.456C424.577 252.842 421.29 254.677 419.276 254.773Z" stroke="#37466E" stroke-width="2" stroke-linecap="round" stroke-linejoin="round"/>
<path d="M420.656 260.937C420.772 260.087 421.341 259.382 422.083 258.938C422.815 258.474 423.741 258.339 424.599 258.436C425.466 258.552 426.228 258.928 426.844 259.44C427.452 259.962 427.914 260.609 428.155 261.42C427.298 261.352 426.632 261.188 426.006 261.043C425.37 260.947 424.82 260.763 424.29 260.724C423.239 260.589 422.276 260.56 420.656 260.937Z" fill="#37466E"/>
<path d="M449.835 259.991C448.225 259.614 447.252 259.643 446.201 259.788C445.671 259.817 445.122 260 444.495 260.097C443.869 260.242 443.194 260.406 442.346 260.473C442.577 259.662 443.049 259.015 443.657 258.494C444.273 257.991 445.035 257.615 445.893 257.489C446.751 257.393 447.676 257.528 448.418 258.001C449.151 258.436 449.729 259.141 449.835 259.991Z" fill="#37466E"/>
<path d="M432.06 261.419L431.481 270.372C431.481 271.666 431.915 272.303 432.783 272.303C434.074 272.303 436.388 272.448 436.388 271.154C436.388 270.285 436.05 267.04 435.376 261.419C434.026 259.941 432.927 259.941 432.06 261.419Z" stroke="#37466E" stroke-width="2" stroke-linecap="round" stroke-linejoin="round"/>
<path d="M435.664 279.381C437.457 278.329 439.009 277.701 440.406 276.919C441.1 276.542 441.717 276.117 442.363 275.644C443.009 275.151 443.558 274.524 444.31 273.751C444.58 274.755 444.445 275.905 443.896 276.861C443.375 277.827 442.527 278.58 441.611 279.121C440.667 279.604 439.664 279.903 438.643 279.951C437.64 280.009 436.609 279.884 435.664 279.381Z" fill="#37466E"/>
<path d="M463.418 300.649C474.87 301.142 483.171 305.758 488.289 314.489C493.418 323.22 497.737 332.066 501.255 341.019" stroke="#37466E" stroke-width="2" stroke-linecap="round" stroke-linejoin="round"/>
<path d="M439.993 302.821C431.635 305.719 424.338 310.895 418.081 318.341C411.825 325.787 407.709 330.616 405.732 332.838" stroke="#37466E" stroke-width="2" stroke-linecap="round" stroke-linejoin="round"/>
<path d="M409.154 335.318C396.024 357.145 388.949 368.02 387.927 367.952" stroke="#37466E" stroke-width="2" stroke-linecap="round" stroke-linejoin="round"/>
<path d="M424.079 347.875L410.959 367.954" stroke="#37466E" stroke-width="2" stroke-linecap="round" stroke-linejoin="round"/>
<path d="M439.657 301.963C440.563 297.163 440.38 293.764 439.107 291.765" stroke="#37466E" stroke-width="2" stroke-linecap="round" stroke-linejoin="round"/>
<path d="M454.704 286.828C457.808 292.941 461.886 296.36 466.928 297.094" stroke="#37466E" stroke-width="2" stroke-linecap="round" stroke-linejoin="round"/>
<path d="M314.498 150.741C301.966 141.257 294.292 136.139 291.468 135.366C287.236 134.207 311.413 124.192 319.106 121.111C326.799 118.03 342.57 107.629 357.184 105.321C361.503 104.635 367.249 103.225 374.421 101.081C375.019 115.201 382.413 121.623 396.622 120.339C410.832 119.054 417.29 112.641 416.008 101.081C429.649 103.138 439.087 105.446 444.312 108.015C452.149 111.869 462.869 127.273 466.927 135.366C470.995 143.45 477.666 163.866 477.792 165.798C477.917 167.72 460.603 182.129 439.655 181.665" stroke="#37466E" stroke-width="2" stroke-linecap="round" stroke-linejoin="round"/>
<path d="M433.928 147.303C432.81 151.668 432.81 154.237 433.928 155.01C435.615 156.169 438.305 155.396 436.386 158.863C434.468 162.33 437.148 170.037 437.919 175.04C438.44 178.381 439.779 192.115 441.958 216.259" stroke="#37466E" stroke-width="2" stroke-linecap="round" stroke-linejoin="round"/>
<path d="M439.992 190.541C443.607 201.329 445.641 207.49 446.094 209.036C446.547 210.581 445.949 212.986 444.31 216.26" stroke="#37466E" stroke-width="2" stroke-linecap="round" stroke-linejoin="round"/>
<path d="M467.977 173.862C473.837 191.536 476.372 202.971 475.611 208.167C474.839 213.372 472.565 220.036 468.805 228.158" stroke="#37466E" stroke-width="2" stroke-linecap="round" stroke-linejoin="round"/>
<path d="M339.368 254.979C339.561 258.842 339.561 262.019 339.378 264.52C339.108 268.268 344.024 266.413 346.753 266.375C349.49 266.336 358.562 270.566 379.404 270.373C393.295 270.247 404.227 269.349 412.209 267.659" stroke="#37466E" stroke-width="2" stroke-linecap="round" stroke-linejoin="round"/>
<path d="M344.198 267.446C344.15 296.758 344.15 312.432 344.198 314.489C344.285 317.57 345.441 332.945 344.198 338.547C342.954 344.148 346.848 348.33 347.591 351.633C348.333 354.936 343.909 362.479 344.198 367.955C344.391 371.596 344.207 376.598 343.639 382.944" stroke="#37466E" stroke-width="2" stroke-linecap="round" stroke-linejoin="round"/>
<path d="M356.489 480.516C360.663 481.027 363.969 481.027 366.408 480.516" stroke="#37466E" stroke-width="2" stroke-linecap="round" stroke-linejoin="round"/>
<path d="M357.626 473.224C361.915 475.426 364.961 475.426 366.773 473.224" stroke="#37466E" stroke-width="2" stroke-linecap="round" stroke-linejoin="round"/>
<path d="M386.276 297.085C390.845 298.138 392.551 300.05 391.395 302.822C389.669 306.975 391.963 309.283 391.684 312.75C391.395 316.217 391.433 324.31 391.703 328.936C391.886 332.017 391.906 341.066 391.761 356.075" stroke="#37466E" stroke-width="2" stroke-linecap="round" stroke-linejoin="round"/>
<path d="M339.475 231.488C341.46 220.864 342.482 214.084 342.569 211.148" stroke="#37466E" stroke-width="2" stroke-linecap="round" stroke-linejoin="round"/>
<path d="M381.669 80.6797C380.666 88.8985 378.71 103.776 375.789 105.321" stroke="#37466E" stroke-width="2" stroke-linecap="round" stroke-linejoin="round"/>
<path d="M406.01 74.6777C406.974 86.2284 410.232 103.776 415.774 105.322" stroke="#37466E" stroke-width="2" stroke-linecap="round" stroke-linejoin="round"/>
<path d="M362.274 49.9073C362.467 55.7793 361.985 59.3913 360.838 60.7337C359.102 62.7618 359.488 63.3413 361.599 65.07C363.72 66.8084 364.578 69.6961 364.009 71.4248C363.431 73.1632 364.867 76.0509 368.039 77.2098C371.21 78.3591 378.71 86.1626 386.21 87.6016C393.71 89.0503 400.343 88.0845 401.779 85.6797C403.225 83.2749 405.818 79.8078 408.99 77.4899C412.162 75.1817 414.764 74.0228 415.777 67.9577C416.779 61.8926 415.054 58.7152 415.777 55.5378C416.49 52.3604 416.21 49.183 415.777 48.3138C415.333 47.4446 415.622 41.0898 418.216 39.361C420.336 30.302 421.397 24.913 421.397 23.1843C421.397 20.5767 419.96 12.2034 415.777 8.73623C411.583 5.26909 406.397 3.24096 402.358 3.24096C398.318 3.24096 396.651 6.41837 392.004 4.11016C387.367 1.80195 383.251 -1.95492 375.789 1.22249C368.328 4.39989 371.21 6.99784 369.485 8.73623C367.75 10.465 358.235 12.7828 360.838 18.5582C363.431 24.3335 365.06 23.4643 366.41 23.4643C367.75 23.4643 375.539 21.1561 380.156 19.7171C384.764 18.2685 387.714 17.3993 392.004 18.2685C396.304 19.1377 406.108 21.4459 409.568 22.0253C413.029 22.6048 413.897 25.4925 413.897 28.9596C413.897 32.4268 413.029 42.8571 412.74 44.1416C412.451 45.4261 405.018 54.3789 392.004 52.6501C391.406 54.7652 389.719 55.8758 386.933 55.9724C382.75 56.1173 381.014 53.2296 381.67 52.6501C378.161 52.5536 375.346 51.8775 373.235 50.622C370.063 48.7484 368.906 49.3279 367.171 48.6035C365.446 47.8792 365.012 43.8519 364.289 44.1416C363.566 44.4314 362.11 48.4973 362.274 49.9073Z" fill="#37466E"/>
<path d="M387.511 33.6524C386.277 33.6717 384.841 33.6427 384.387 35.893C384.021 37.6893 383.115 43.2812 381.669 52.6492C381.997 54.4649 383.51 55.5755 386.209 55.9618C388.899 56.3481 390.837 55.2471 392.003 52.6492L390.567 35.4584C390.355 34.2318 389.333 33.6234 387.511 33.6524Z" stroke="#37466E" stroke-width="2" stroke-linecap="round" stroke-linejoin="round"/>
<path d="M367.17 31.1045C366.592 32.2827 363.633 45.6877 364.211 46.1706" stroke="#37466E" stroke-width="2" stroke-linecap="round" stroke-linejoin="round"/>
<path d="M418.213 39.361C420.585 35.1889 423.245 34.001 426.195 35.7973C430.62 38.4918 423.159 47.8502 416.121 49.9073C415.148 44.2285 415.842 40.7034 418.213 39.361Z" stroke="#37466E" stroke-width="2" stroke-linecap="round" stroke-linejoin="round"/>
<path d="M371.643 29.5397C368.983 30.5924 367.238 31.1719 366.409 31.2685C365.156 31.4133 362.929 28.5257 364.192 26.5072C365.445 24.4791 371.788 23.6099 374.102 23.7547C376.406 23.8996 377.842 25.0585 377.697 26.7873C377.601 27.9462 375.586 28.8637 371.643 29.5397Z" stroke="#37466E" stroke-width="2" stroke-linecap="round" stroke-linejoin="round"/>
<path d="M407.118 26.6415C403.079 25.0866 400.1 24.1208 398.172 23.7442C395.29 23.184 393.776 26.7864 395.377 28.2254C396.341 29.1042 405.528 30.3984 407.118 31.847C408.699 33.2957 411.322 28.1674 407.118 26.6415Z" stroke="#37466E" stroke-width="2" stroke-linecap="round" stroke-linejoin="round"/>
<path d="M368.828 37.4484C369.011 36.5213 369.638 35.768 370.399 35.2465C371.161 34.696 372.096 34.4255 373.021 34.3483C373.946 34.329 374.872 34.4835 375.681 34.8698C376.491 35.2465 377.195 35.8066 377.706 36.5792C376.771 36.6758 375.99 36.6372 375.248 36.6275C374.506 36.6372 373.821 36.6179 373.146 36.6565C371.807 36.7434 370.563 36.9172 368.828 37.4484Z" fill="#37466E"/>
<path d="M405.132 38.7337C403.465 37.9997 402.26 37.6713 400.93 37.4202C400.274 37.3043 399.59 37.2367 398.857 37.1402C398.115 37.0629 397.335 37.005 396.409 36.8021C397.016 36.0971 397.788 35.6142 398.636 35.3438C399.484 35.0541 400.419 35.0155 401.335 35.141C402.25 35.3342 403.147 35.7205 403.831 36.3482C404.525 36.9567 405.065 37.7872 405.132 38.7337Z" fill="#37466E"/>
<path opacity="0.2" d="M368.385 44.8574C368.665 46.1612 370.699 44.983 373.398 44.4035C376.097 43.8241 378.439 44.0655 378.159 42.7617C377.88 41.4579 375.084 39.1014 372.386 39.6809C369.687 40.2603 368.106 43.5536 368.385 44.8574Z" fill="#EE445B"/>
<path opacity="0.2" d="M405.855 45.5808C405.575 46.8846 403.541 45.7063 400.842 45.1365C398.143 44.5764 395.801 44.8275 396.071 43.5237C396.351 42.2199 399.127 39.8441 401.826 40.4139C404.524 40.9837 406.124 44.2673 405.855 45.5808Z" fill="#EE445B"/>
<path d="M386.788 65.7949C389.507 65.1768 391.946 64.6939 394.25 63.8247C395.416 63.448 396.476 62.8686 397.566 62.2698C398.665 61.671 399.609 60.8501 400.776 60.0195C400.429 61.362 399.744 62.7044 398.684 63.6895C397.662 64.7132 396.399 65.5148 395.05 65.9977C393.69 66.4709 392.273 66.7317 390.866 66.693C389.458 66.6737 388.061 66.4323 386.788 65.7949Z" fill="white"/>
<path d="M415.823 107.05C432.799 109.744 443.539 114.66 448.06 121.788C454.846 132.479 464.332 151.408 471.842 171.409" stroke="#37466E" stroke-width="2" stroke-linecap="round" stroke-linejoin="round"/>
<path d="M375.623 107.05C362.32 108.788 349.807 112.738 338.065 118.9C326.323 125.062 313.088 131.841 298.357 139.23" stroke="#37466E" stroke-width="2" stroke-linecap="round" stroke-linejoin="round"/>
<path d="M295.274 137.289C281.942 151.669 274.124 161.434 271.82 166.571C268.359 174.269 270.277 175.814 271.82 177.736C273.352 179.667 278.182 184.67 284.226 186.602C290.271 188.524 327.183 187.365 337.951 186.602C345.133 186.08 351.158 185.568 356.026 185.056C357.048 181.976 358.079 180.43 359.101 180.43" stroke="#37466E" stroke-width="2" stroke-linecap="round" stroke-linejoin="round"/>
<path d="M295.274 152.315C307.064 149.234 317.832 149.872 327.569 154.237C342.183 160.785 359.873 170.8 365.637 172.345C371.402 173.881 379.481 176.585 381.399 179.28C383.327 181.974 382.941 183.317 387.173 187.653C391.396 191.989 392.553 194.298 391.781 195.843C391.02 197.378 388.706 197.378 386.788 195.843C385.506 194.819 384.86 194.298 384.86 194.298C385.631 199.947 385.891 203.801 385.631 205.858C385.38 207.915 384.031 210.156 381.592 212.599" stroke="#37466E" stroke-width="2" stroke-linecap="round" stroke-linejoin="round"/>
<path d="M380.638 197.377C381.534 199.82 381.852 202.457 381.592 205.277C381.206 209.517 380.059 218.952 379.866 220.208C379.674 221.454 379.481 225.307 376.792 225.5C374.102 225.694 373.717 223.192 373.91 220.208C374.102 217.224 375.249 207.015 375.249 205.084C375.249 203.162 375.548 198.536 373.861 197.377" stroke="#37466E" stroke-width="2" stroke-linecap="round" stroke-linejoin="round"/>
<path d="M356.025 185.056C354.868 189.807 354.868 194.24 356.025 198.345C357.75 204.506 360.064 211.827 359.1 213.759C358.136 215.68 356.796 220.5 358.136 221.263C359.486 222.035 362.368 222.808 363.139 220.21C363.91 217.602 366.407 213.179 366.407 209.326C366.407 206.757 366.407 202.778 366.407 197.379" stroke="#37466E" stroke-width="2" stroke-linecap="round" stroke-linejoin="round"/>
<path d="M366.177 211.451C365.049 219.419 364.615 224.112 364.866 225.513C365.251 227.628 369.483 228.777 370.254 227.811C371.015 226.855 373.599 215.459 374.784 210.823" stroke="#37466E" stroke-width="2" stroke-linecap="round" stroke-linejoin="round"/>
<path d="M136.186 190.831C135.732 190.831 135.299 190.561 135.116 190.107C133.226 185.365 132.436 160.38 132.436 158.767C132.436 157.744 132.166 157.521 131.578 157.029C131.086 156.623 130.479 156.111 130.094 155.155C129.612 153.958 130.007 152.722 130.354 151.621C130.499 151.157 130.778 150.307 130.682 150.095C129.091 148.665 129.804 146.492 130.47 145.44C130.817 144.899 131.53 144.735 132.06 145.082C132.6 145.42 132.764 146.125 132.426 146.666C132.417 146.676 131.703 147.912 132.224 148.376C133.458 149.486 132.937 151.128 132.552 152.326C132.33 153.05 132.06 153.871 132.234 154.286C132.397 154.711 132.677 154.943 133.053 155.252C133.766 155.851 134.749 156.662 134.749 158.767C134.749 162.418 135.684 185.307 137.255 189.247C137.496 189.846 137.207 190.512 136.61 190.754C136.475 190.812 136.33 190.831 136.186 190.831Z" fill="#37466E"/>
<path d="M213.759 184.187C213.441 184.187 213.133 184.061 212.901 183.81C206.558 176.77 202.5 163.094 200.321 155.745C199.685 153.581 199.174 151.872 198.875 151.215C198.345 150.066 195.771 144.184 197.12 140.93C197.361 140.36 195.742 139.037 194.238 138.341C193.66 138.071 193.409 137.385 193.679 136.806C193.949 136.226 194.643 135.975 195.212 136.246C195.761 136.497 200.504 138.805 199.251 141.828C198.653 143.257 199.376 146.801 200.967 150.24C201.343 151.061 201.844 152.751 202.538 155.088C204.659 162.264 208.621 175.611 214.617 182.265C215.041 182.728 215.003 183.462 214.53 183.887C214.309 184.09 214.039 184.187 213.759 184.187Z" fill="#37466E"/>
<path d="M141.092 112.64C137.419 112.64 134.903 113.789 133.534 116.107C131.471 119.565 123.21 122.269 121.185 128.044C119.17 133.819 119.17 154.535 106.098 150.73C93.0264 146.915 95.0412 131.125 99.225 116.87C103.409 102.615 105.327 90.2919 106.098 76.8096C106.87 63.3274 112.249 49.2656 116.866 42.6211C121.474 35.9765 133.014 28.1827 141.092 35.1073C143.203 30.0853 147.242 27.9606 153.2 28.7429C162.136 29.9115 174.832 43.5096 178.004 54.9058C175.015 56.4414 173.049 58.1798 172.085 60.1017C170.07 55.8619 167.573 53.3122 164.595 52.443C160.122 51.1489 148.293 48.9759 143.685 42.6211C144.418 47.9232 142.201 51.9602 137.024 54.7609C129.264 58.9427 126.815 64.5829 125.803 66.8911C124.791 69.1993 123.788 71.2274 122.197 69.3441C120.616 67.4705 117.156 65.0175 114.842 64.8726C112.538 64.7277 107.207 64.8726 110.379 68.9095C112.49 71.6137 115.324 73.0044 118.881 73.101C117.445 86.2935 118.062 92.8898 120.761 92.8898C123.451 92.8898 124.029 86.535 122.487 73.8254C123.258 82.6815 125.755 89.2778 129.987 93.6141C134.219 97.9505 139.019 100.433 144.408 101.08C144.215 105.957 143.107 109.81 141.092 112.64Z" fill="#37466E"/>
<path d="M123.277 78.4521C122.689 78.4521 122.178 77.9982 122.13 77.3898C122.034 76.1632 121.667 75.2844 121.031 74.7822C120.183 74.1158 119.074 74.2413 119.055 74.251C118.688 74.2124 112.933 74.0482 109.473 69.6249C108.258 68.0797 107.94 66.7276 108.518 65.6169C109.492 63.7723 112.538 63.5695 114.919 63.7144C117.696 63.8882 121.446 66.6696 123.084 68.6012C123.325 68.8909 123.451 68.9392 123.451 68.9392C123.74 68.7364 124.501 66.998 124.752 66.4282C125.841 63.9365 128.377 58.1128 136.484 53.7379C143.415 50.0003 142.577 43.0757 142.538 42.7763C142.471 42.2548 142.769 41.7526 143.251 41.5498C143.743 41.3566 144.302 41.5111 144.62 41.9457C148.312 47.045 157.201 49.3339 162.512 50.6957C163.438 50.9371 164.257 51.1496 164.913 51.3331C169.82 52.7624 173.001 59.3297 173.126 59.6098C173.406 60.1796 173.165 60.8653 172.586 61.1454C172.008 61.4158 171.323 61.1744 171.044 60.6046C171.025 60.5466 168.181 54.694 164.267 53.5544C163.631 53.3709 162.84 53.1681 161.934 52.9363C157.095 51.6904 149.45 49.7202 144.746 45.4998C144.35 48.4647 142.827 52.9459 137.573 55.7757C130.17 59.7643 127.856 65.0761 126.863 67.3457C125.967 69.4124 125.157 71.006 123.692 71.2184C122.843 71.344 122.053 70.9673 121.32 70.0981C119.807 68.3018 116.625 66.1385 114.775 66.0226C112.22 65.868 110.755 66.322 110.562 66.689C110.514 66.7855 110.543 67.2491 111.285 68.1956C114.071 71.7496 118.872 71.9428 118.92 71.9524C118.929 71.9331 120.848 71.682 122.467 72.9762C123.624 73.8936 124.289 75.323 124.434 77.2063C124.482 77.8437 124.01 78.4038 123.374 78.4521C123.345 78.4521 123.316 78.4521 123.277 78.4521Z" fill="#37466E"/>
<path d="M179.44 59.958C178.39 62.9423 176.606 64.6807 174.11 65.1635C179.585 74.5992 181.369 80.3745 179.44 82.4896C177.522 84.6143 174.881 79.7951 171.516 68.0512C173.049 75.4684 172.326 81.8715 169.347 87.2605C166.369 92.6496 163.534 96.1167 160.845 97.662L164.739 108.498C167.911 106.277 170.552 106.277 172.663 108.498C175.835 111.82 179.874 124.781 189.678 123.139C199.482 121.497 193.717 105.465 198.904 104.162C202.365 103.292 205.112 103.775 207.127 105.61C206.356 96.9956 202.847 91.7611 196.6 89.9068C187.23 87.1157 184.492 84.8075 183.981 80.1814C183.48 75.565 184.781 65.0187 179.44 59.958Z" fill="#37466E"/>
<path d="M149.257 102.965C147.531 102.965 145.796 102.743 144.147 102.212C143.058 102.057 135.365 100.782 129.157 94.4277C122.583 87.6865 122.149 77.768 122.129 77.3431C122.11 76.7057 122.602 76.1745 123.238 76.1455C123.894 76.1552 124.414 76.6187 124.433 77.2562C124.443 77.3527 124.867 86.7208 130.806 92.8052C136.802 98.9475 144.466 99.9229 144.543 99.9326C144.62 99.9423 144.697 99.9616 144.764 99.9809C151.937 102.357 161.133 97.9141 162.946 96.2337C163.408 95.8087 164.131 95.8281 164.575 96.3013C165.009 96.7649 164.98 97.4988 164.507 97.9334C162.84 99.4883 156.072 102.965 149.257 102.965Z" fill="#37466E"/>
<path d="M174.158 80.6648C173.647 80.6648 173.175 80.3267 173.04 79.8052C172.471 77.6515 169.637 66.8155 169.637 65.164C169.637 64.4976 169.936 63.9375 170.456 63.6091C171.478 62.962 173.117 63.4643 174.206 63.9375C177.407 62.9041 181.687 57.9786 181.783 55.6897C181.793 55.2745 181.687 55.1199 181.301 54.9944C178.506 54.0866 174.293 58.9927 173.03 60.7697C172.664 61.2913 171.941 61.4168 171.42 61.0498C170.909 60.6828 170.784 59.9585 171.15 59.437C171.738 58.5871 177.108 51.2375 182.005 52.7924C183.383 53.2367 184.145 54.3183 184.087 55.7863C183.943 59.3597 178.4 65.3475 174.37 66.2843C174.119 66.3423 173.849 66.3133 173.608 66.2071C173.078 65.9463 172.442 65.7338 171.999 65.6469C172.307 67.5398 173.811 73.6822 175.267 79.2161C175.43 79.8342 175.064 80.4619 174.447 80.6261C174.351 80.6551 174.254 80.6648 174.158 80.6648Z" fill="#37466E"/>
<path fill-rule="evenodd" clip-rule="evenodd" d="M130.324 68.6618C129.948 68.6618 129.582 68.5556 129.245 68.3045C127.413 66.9234 129.004 64.0647 129.486 63.2825C130.498 60.8101 132.464 59.6705 133.949 59.1393C135.675 58.5212 137.66 58.4439 138.576 58.9558C139.415 59.429 140.774 61.0805 140.504 62.703C140.389 63.379 139.897 64.5766 137.834 64.9533C136.504 65.1947 135.029 66.1798 133.727 67.0587C132.464 67.8989 131.327 68.6618 130.324 68.6618ZM136.908 60.9163C135.636 60.9163 132.686 61.4571 131.587 64.2386C131.558 64.3062 131.529 64.3738 131.481 64.4414C131.115 65.0112 130.806 65.7549 130.71 66.2088C131.182 65.9866 131.886 65.5134 132.445 65.1368C133.862 64.1903 135.626 63.0024 137.419 62.674C137.979 62.5774 138.21 62.4036 138.229 62.3263C138.297 61.969 137.757 61.1578 137.448 60.9743C137.352 60.9453 137.169 60.9163 136.908 60.9163ZM130.7 66.5468H130.729H130.7ZM130.517 63.8136H130.536H130.517Z" fill="#37466E"/>
<path fill-rule="evenodd" clip-rule="evenodd" d="M165.628 62.8272C165.252 62.8272 164.857 62.7306 164.462 62.5085C163.074 61.7358 159.594 60.886 156.943 60.4224C155.545 60.1809 154.552 59.418 154.205 58.3363C153.973 57.612 153.858 56.1247 155.651 54.3283C157.675 52.3002 160.249 53.2853 161.435 54.1448C162.061 54.4249 164.847 55.7384 166.486 56.9746C168.096 58.1914 168.27 60.4996 167.421 61.8131C166.988 62.4795 166.342 62.8272 165.628 62.8272ZM158.495 55.4486C158.09 55.4486 157.666 55.5742 157.29 55.9605C156.547 56.7041 156.306 57.3416 156.403 57.6409C156.48 57.8631 156.837 58.0562 157.338 58.1431C158.321 58.317 163.295 59.2248 165.561 60.4803C165.561 60.4224 165.638 60.1809 165.609 59.8526C165.599 59.6498 165.522 59.1379 165.098 58.8192C163.498 57.612 160.403 56.2116 160.374 56.2019C160.288 56.1633 160.211 56.115 160.133 56.0571C160.018 55.9702 159.304 55.4486 158.495 55.4486Z" fill="#37466E"/>
<path d="M132.242 74.1182C132.204 73.1814 132.715 72.3605 133.331 71.7521C133.958 71.1243 134.768 70.7477 135.577 70.5062C137.226 70.1102 138.961 70.3227 140.329 71.4816C139.529 71.9452 138.826 72.1867 138.141 72.3991C137.476 72.6502 136.83 72.7661 136.223 72.9593C135.597 73.1042 135.009 73.278 134.373 73.4325C133.736 73.6257 133.081 73.7802 132.242 74.1182Z" fill="#37466E"/>
<path d="M156.951 69.2011C157.048 68.3126 157.558 67.5979 158.185 67.0667C158.811 66.5162 159.592 66.1782 160.392 65.9947C162.012 65.7146 163.756 66.1299 164.836 67.5013C163.997 67.8297 163.323 67.9649 162.677 68.1194C162.041 68.2546 161.453 68.3705 160.874 68.4864L156.951 69.2011Z" fill="#37466E"/>
<path d="M144.457 89.3375C146.954 89.3568 148.959 89.4244 150.887 89.0767C151.861 88.9512 152.796 88.7001 153.769 88.3524C154.762 88.0434 155.726 87.5508 156.951 87.1162C156.584 88.3234 155.871 89.4341 154.859 90.226C153.885 91.0855 152.613 91.5878 151.33 91.8099C150.029 91.9934 148.708 91.9065 147.513 91.4719C146.327 91.0566 145.219 90.3805 144.457 89.3375Z" fill="#37466E"/>
<path fill-rule="evenodd" clip-rule="evenodd" d="M150.926 85.9957C148.902 85.9957 147.803 84.9527 147.456 84.267C147.408 84.1511 147.369 84.0352 147.35 83.9096C147.282 83.475 145.808 73.2764 145.615 71.5187C145.384 69.4326 147.022 68.4186 148.063 68.1192C149.596 67.3369 151.196 68.0999 151.919 68.6986C152.102 68.8532 152.237 69.0656 152.304 69.2974C153.047 72.2141 155.495 81.7656 155.591 82.5479C155.678 83.2046 155.485 83.871 155.061 84.4118C154.415 85.2424 153.288 85.7639 151.707 85.9571C151.437 85.9861 151.177 85.9957 150.926 85.9957ZM149.596 83.3012C149.76 83.4557 150.261 83.7937 151.427 83.6585C152.757 83.4943 153.153 83.108 153.239 82.9922C153.21 82.2002 151.379 74.9955 150.174 70.3115C149.895 70.157 149.432 69.9831 149.075 70.2053C148.969 70.2632 148.863 70.3018 148.748 70.3308C148.535 70.3791 147.832 70.6109 147.909 71.2676C148.073 72.8322 149.345 81.6111 149.596 83.3012ZM148.487 69.2009H148.516H148.487Z" fill="#37466E"/>
<path opacity="0.2" d="M129.889 83.215C130.236 84.8279 132.743 83.3599 136.078 82.6452C139.404 81.9305 142.296 82.2299 141.949 80.6267C141.602 79.0139 138.16 76.0972 134.825 76.8119C131.499 77.5266 129.542 81.6022 129.889 83.215Z" fill="#EE445B"/>
<path opacity="0.2" d="M157.703 77.9035C158.05 79.5067 160.556 78.0484 163.892 77.3337C167.217 76.619 170.11 76.9184 169.762 75.3152C169.415 73.7024 165.974 70.7857 162.638 71.5004C159.313 72.2151 157.356 76.2906 157.703 77.9035Z" fill="#EE445B"/>
<path d="M153.876 124.337C149.383 124.337 145.826 123.062 143.262 120.541C138.972 116.302 139.165 110.15 139.175 109.898C139.204 109.261 139.763 108.749 140.37 108.788C141.006 108.807 141.508 109.348 141.488 109.985C141.479 110.034 141.334 115.403 144.901 118.909C147.234 121.208 150.685 122.241 155.168 121.99C158.773 121.787 161.385 120.532 162.947 118.262C166.514 113.086 163.757 104.22 163.728 104.123C163.535 103.515 163.873 102.868 164.48 102.674C165.097 102.481 165.743 102.819 165.926 103.428C166.061 103.833 169.049 113.472 164.846 119.576C162.86 122.463 159.65 124.047 155.293 124.298C154.811 124.318 154.339 124.337 153.876 124.337Z" fill="#37466E"/>
<path d="M128.907 178.826C121.619 178.826 111.835 175.968 104.537 172.452C98.2227 169.41 96.796 165.325 96.5068 163.162C96.1886 160.786 96.9116 158.458 98.3384 157.222C99.6302 156.092 100.845 149.94 101.298 145.922C101.365 145.295 101.934 144.85 102.57 144.908C103.207 144.976 103.66 145.546 103.592 146.183C103.39 147.951 102.281 156.855 99.8422 158.97C99.1674 159.55 98.5505 161.027 98.7915 162.862C99.0228 164.562 100.199 167.797 105.54 170.366C114.823 174.838 128.02 178.073 134.045 175.755C134.643 175.524 135.308 175.823 135.54 176.412C135.771 177.011 135.472 177.677 134.874 177.909C133.236 178.537 131.192 178.826 128.907 178.826Z" fill="#37466E"/>
<path d="M105.037 172.569C104.488 172.569 104.006 172.183 103.9 171.632C102.801 165.847 109.857 151.785 110.667 150.201C110.956 149.632 111.65 149.41 112.219 149.699C112.787 149.989 113.009 150.684 112.72 151.254C110.618 155.368 105.356 166.958 106.165 171.197C106.291 171.825 105.876 172.424 105.25 172.55C105.182 172.559 105.105 172.569 105.037 172.569Z" fill="#37466E"/>
<path fill-rule="evenodd" clip-rule="evenodd" d="M217.154 155.019C207.437 155.019 201.363 153.85 199.098 151.542C198.655 151.088 198.655 150.354 199.108 149.9C199.561 149.456 200.293 149.456 200.746 149.92C201.816 151.011 205.595 152.827 218.378 152.701C218.793 151.059 218.86 145.409 218.908 141.189C218.957 135.868 219.024 130.363 219.545 127.089C219.892 124.925 220.682 122.607 221.906 120.212C222.437 119.179 223.044 118.136 223.719 117.093C224.76 115.48 225.753 114.225 226.37 113.471C224.953 112.341 220.393 109.56 213.539 108.179C204.612 106.392 201.228 102.751 201.084 102.597C200.66 102.123 200.689 101.399 201.161 100.964C201.633 100.539 202.356 100.568 202.79 101.042C202.819 101.071 205.894 104.296 213.982 105.919C222.273 107.58 228.404 111.501 228.973 113.085C229.127 113.491 229.03 113.944 228.741 114.263C228.722 114.273 227.247 115.895 225.656 118.348C225.02 119.324 224.451 120.309 223.96 121.265C222.851 123.438 222.128 125.524 221.82 127.456C221.328 130.556 221.27 135.974 221.212 141.218C221.087 152.749 220.894 155.009 218.957 155.009H218.465C218.021 155.019 217.578 155.019 217.154 155.019ZM218.957 152.701C218.947 152.701 218.947 152.701 218.937 152.701H218.957Z" fill="#37466E"/>
<path d="M227.892 113.482C226.87 114.593 225.8 116.003 224.682 117.722C224.094 118.62 223.497 119.644 222.938 120.735L227.892 123.285C229.454 118.041 229.454 114.777 227.892 113.482Z" fill="#37466E"/>
<path d="M251.491 161.491C250.942 161.491 250.382 161.423 249.823 161.288C243.76 159.791 220.45 150.664 219.467 150.278C218.869 150.046 218.58 149.38 218.811 148.781C219.042 148.192 219.708 147.892 220.305 148.124C220.546 148.221 244.463 157.579 250.373 159.037C251.607 159.347 252.725 159.163 253.785 158.477C256.417 156.807 258.654 152.19 259.926 145.826C260.717 141.866 261.247 126.056 261.719 112.101C262.134 99.6036 262.413 91.7518 262.789 89.7816C262.837 88.1301 263.936 85.0783 267.812 84.5278C271.118 84.0545 277.587 76.2704 278.975 71.0938C279.322 69.8093 279.717 68.5248 280.103 67.2983C280.614 65.6468 281.395 63.1648 281.52 61.7837C281.076 62.7012 280.546 64.0243 280.18 64.9418C279.091 67.7039 278.647 68.7083 277.953 69.1333C277.134 69.6355 276.179 69.6258 275.447 69.1043C274.521 68.4476 274.165 67.1534 274.492 65.6372C276.16 57.853 277.336 51.8942 277.346 51.1698C277.346 50.8318 277.288 50.5324 277.211 50.3199C276.603 51.1505 275.418 53.8257 273.972 58.3359C273.094 61.098 270.993 65.0963 270.906 65.2702C270.607 65.8303 269.904 66.0428 269.344 65.7531C268.776 65.4537 268.564 64.7486 268.862 64.1885C268.882 64.1499 270.954 60.1998 271.783 57.6309C274.483 49.19 275.707 48.4367 276.17 48.1566C276.864 47.7317 277.616 47.7027 278.242 48.0504C279.283 48.6395 279.659 50.0978 279.659 51.1698C279.659 52.3481 277.837 61.0401 276.748 66.1201C276.594 66.8444 276.738 67.1728 276.796 67.221C276.912 66.9313 277.587 65.2219 278.04 64.0919C279.486 60.4413 280.44 58.0462 282.214 58.6932C284.894 59.6783 283.747 63.3483 282.301 67.984C281.934 69.1816 281.539 70.4371 281.202 71.6926C279.65 77.4583 272.786 86.1503 268.139 86.8167C265.228 87.2319 265.093 89.6464 265.093 89.9168C265.093 89.9941 265.084 90.081 265.064 90.1583C264.708 91.7808 264.38 101.69 264.023 112.178C263.551 126.22 263.011 142.136 262.182 146.28C261.362 150.384 259.348 157.676 255.029 160.428C253.911 161.133 252.735 161.491 251.491 161.491Z" fill="#37466E"/>
<path d="M240.433 129.872C240.394 129.872 240.356 129.872 240.317 129.872C239.691 129.805 239.218 129.244 239.286 128.607C239.72 124.319 247.191 98.2236 250.295 93.2885C252.869 89.2033 252.849 83.003 252.84 80.0187V79.5068C252.84 77.131 248.781 69.6559 247.316 67.8209C247.113 67.5602 246.901 67.3091 246.699 67.0676C245.629 65.7735 244.607 64.5663 244.742 63.1756C244.79 62.6927 245.002 61.9973 245.764 61.3792C247.991 59.5442 249.909 61.3213 251.606 62.8858L252.049 63.2914C252.994 64.151 253.784 65.2713 254.479 66.266C254.951 66.9324 255.655 67.9368 255.953 68.0817C256.166 67.8789 257.004 66.2757 257.457 65.4162L257.872 64.6146C258.643 63.1852 260.282 57.9507 261.371 54.4836L262.114 52.0981C263.704 47.134 267.088 47.8004 268.196 48.0032C268.63 48.0901 268.997 48.3605 269.209 48.7661C269.903 50.0313 268.968 52.8224 266.471 59.013C265.941 60.3168 265.449 61.553 265.343 61.9587C265.314 62.0939 265.285 62.2098 265.266 62.3257C265.854 61.3599 266.77 59.0613 267.406 57.4581C268.987 53.4985 270.028 51.0261 271.223 50.2148C273.547 48.6309 275.301 49.307 275.494 49.3842C276.082 49.6353 276.352 50.3211 276.101 50.9005C275.86 51.48 275.195 51.7504 274.617 51.5283C274.54 51.4993 273.749 51.2868 272.515 52.1271C271.821 52.6003 270.394 56.1737 269.546 58.308C268.158 61.8041 267.329 63.813 266.374 64.5566C265.14 65.5127 264.282 65.3099 263.772 64.9816C262.904 64.4117 262.663 63.1369 263.106 61.3889C263.241 60.8577 263.637 59.8629 264.331 58.1438C265.131 56.164 266.885 51.8083 267.117 50.1762C266.172 50.0989 265.092 50.3693 264.311 52.8031L263.569 55.1693C262.326 59.1483 260.774 64.093 259.906 65.7059L259.501 66.4785C258.45 68.497 257.39 70.5734 255.577 70.3513C254.43 70.2064 253.621 69.0571 252.599 67.5988C251.962 66.7103 251.249 65.6962 250.497 65.0009L250.034 64.5856C248.097 62.7892 247.779 62.712 247.22 63.1659C247.171 63.2045 247.046 63.3108 247.036 63.388C246.998 63.8226 247.885 64.8753 248.473 65.5803C248.685 65.8411 248.907 66.1115 249.128 66.3819C250.574 68.2169 255.144 76.2715 255.144 79.5068V80.0187C255.153 83.2154 255.182 89.8696 252.252 94.5247C249.485 98.9093 242.024 124.367 241.58 128.839C241.522 129.428 241.021 129.872 240.433 129.872Z" fill="#37466E"/>
<path d="M243.027 131.319C242.892 131.319 242.747 131.29 242.603 131.232C237.571 129.223 223.043 122.076 222.426 121.777C221.857 121.497 221.616 120.802 221.896 120.232C222.176 119.652 222.87 119.42 223.448 119.701C223.593 119.768 238.515 127.108 243.461 129.088C244.049 129.329 244.338 129.996 244.097 130.595C243.924 131.048 243.49 131.319 243.027 131.319Z" fill="#37466E"/>
<path d="M260.908 78.4532C260.619 78.4532 260.33 78.3469 260.108 78.1345C259.646 77.6902 259.636 76.9562 260.079 76.4926C260.282 76.2898 265.15 71.3451 271.05 71.5962C271.686 71.6251 272.178 72.1563 272.158 72.7937C272.13 73.4311 271.609 73.9913 270.963 73.9044C265.97 73.7498 261.776 78.0669 261.738 78.1055C261.516 78.3373 261.207 78.4532 260.908 78.4532Z" fill="#37466E"/>
<path d="M163.216 232.649C163.177 232.649 163.149 232.64 163.12 232.64C163.062 232.64 157.037 232.138 146.683 231.568C142.904 231.365 140.224 230.158 138.701 227.985C136.542 224.923 137.631 221.157 137.679 220.993C137.853 220.384 138.499 220.036 139.106 220.22C139.713 220.394 140.07 221.041 139.887 221.649C139.877 221.678 139.077 224.537 140.591 226.671C141.69 228.226 143.782 229.095 146.809 229.26C157.201 229.829 163.245 230.332 163.303 230.341C163.939 230.39 164.411 230.95 164.363 231.587C164.315 232.186 163.804 232.649 163.216 232.649Z" fill="#37466E"/>
<path d="M138.509 286.367C138.007 286.367 137.545 286.039 137.4 285.527C128.743 254.419 142.365 229.57 142.5 229.328C142.808 228.768 143.512 228.575 144.071 228.884C144.63 229.193 144.823 229.898 144.514 230.458C144.38 230.7 131.23 254.748 139.627 284.899C139.791 285.517 139.434 286.155 138.827 286.329C138.721 286.358 138.615 286.367 138.509 286.367Z" fill="#37466E"/>
<path d="M143.502 286.367C142.953 286.367 142.461 285.971 142.365 285.401C137.285 254.988 147.859 230.323 147.975 230.081C148.226 229.502 148.91 229.241 149.488 229.492C150.076 229.743 150.336 230.419 150.086 231.008C149.98 231.25 139.685 255.307 144.64 285.024C144.746 285.652 144.322 286.251 143.695 286.357C143.628 286.367 143.57 286.367 143.502 286.367Z" fill="#37466E"/>
<path d="M119.123 207.134C118.583 207.134 118.101 206.747 117.995 206.197C117.956 206.023 117.147 201.764 117.995 197.176C118.544 194.192 114.11 181.869 111.19 174.809C110.939 174.22 111.219 173.544 111.807 173.293C112.395 173.051 113.069 173.331 113.32 173.92C114.12 175.852 121.118 192.966 120.26 197.592C119.499 201.745 120.25 205.714 120.26 205.753C120.385 206.38 119.971 206.989 119.354 207.105C119.277 207.124 119.2 207.134 119.123 207.134Z" fill="#37466E"/>
<path d="M131.443 285.4C131.327 285.4 131.211 285.391 131.096 285.352C130.488 285.159 130.151 284.502 130.344 283.894C130.354 283.884 130.97 281.769 129.843 279.461C128.455 276.631 124.252 263.941 124.069 263.4C123.876 262.792 124.204 262.144 124.801 261.942C125.409 261.729 126.064 262.067 126.267 262.676C126.305 262.801 130.595 275.752 131.915 278.447C133.467 281.615 132.58 284.483 132.542 284.599C132.387 285.091 131.934 285.4 131.443 285.4Z" fill="#37466E"/>
<path d="M212.863 227.56C212.526 227.56 212.179 227.405 211.957 227.115C211.562 226.604 211.658 225.879 212.16 225.493C214.222 223.89 216.661 221.881 216.998 221.408C217.297 220.847 217.982 220.654 218.541 220.954C219.109 221.243 219.302 221.977 219.013 222.538C218.676 223.175 216.844 224.788 213.567 227.318C213.364 227.482 213.114 227.56 212.863 227.56Z" fill="#37466E"/>
<path d="M226.851 431.792C226.234 431.792 225.723 431.29 225.703 430.672C225.655 428.972 224.527 389.105 225.144 381.775C225.376 378.993 224.614 372.426 223.727 364.825C222.349 353.062 220.642 338.421 221.79 330.125C223.573 317.299 226.079 276.177 224.778 258.764C223.534 241.969 214.531 227.163 214.444 227.009C214.116 226.468 214.28 225.753 214.82 225.425C215.36 225.087 216.073 225.261 216.41 225.802C216.796 226.42 225.8 241.215 227.082 258.59C228.383 276.138 225.867 317.541 224.074 330.444C222.966 338.45 224.662 352.927 226.012 364.555C226.918 372.281 227.699 378.955 227.439 381.978C226.841 389.163 227.998 430.189 228.007 430.604C228.027 431.242 227.525 431.773 226.889 431.792C226.88 431.792 226.87 431.792 226.851 431.792Z" fill="#37466E"/>
<path d="M194.728 369.103C194.131 369.103 193.62 368.649 193.581 368.041C193.552 367.741 192.993 360.633 193.581 355.003C194.14 349.623 190.738 323.567 190.699 323.306C190.613 322.669 191.056 322.089 191.692 322.012C192.309 321.925 192.907 322.369 192.984 323.007C193.128 324.088 196.454 349.594 195.875 355.244C195.316 360.662 195.866 367.79 195.875 367.857C195.924 368.495 195.451 369.055 194.815 369.103C194.786 369.103 194.757 369.103 194.728 369.103Z" fill="#37466E"/>
<path d="M162.85 482.873C162.339 482.873 161.867 482.535 161.732 482.013C161.568 481.395 161.944 480.767 162.561 480.603C162.783 480.545 168.162 479.184 178.024 479.357C186.613 479.502 186.835 473.447 186.844 473.186C186.864 472.549 187.394 472.027 188.03 472.075C188.666 472.095 189.168 472.616 189.148 473.254C189.148 473.341 188.811 481.675 178.371 481.675C178.245 481.675 178.11 481.675 177.975 481.666C168.48 481.482 163.187 482.825 163.139 482.844C163.043 482.863 162.946 482.873 162.85 482.873Z" fill="#37466E"/>
<path d="M224.682 118.873C224.682 118.873 224.672 118.873 224.663 118.873C224.46 118.873 219.476 118.747 213.249 114.43C207.436 110.403 194.47 105.786 194.345 105.738C193.747 105.526 193.429 104.869 193.641 104.27C193.853 103.662 194.509 103.353 195.116 103.565C195.656 103.758 208.496 108.326 214.56 112.527C220.171 116.419 224.663 116.564 224.711 116.564C225.347 116.584 225.849 117.105 225.839 117.743C225.829 118.37 225.309 118.873 224.682 118.873Z" fill="#37466E"/>
<path d="M163.293 369.102C162.772 369.102 162.3 368.755 162.174 368.223C161.317 364.698 158.165 349.033 158.03 348.367C157.904 347.739 158.309 347.131 158.936 347.005C159.543 346.88 160.16 347.285 160.295 347.913C160.324 348.068 163.562 364.196 164.411 367.673C164.565 368.301 164.189 368.919 163.562 369.073C163.476 369.093 163.379 369.102 163.293 369.102Z" fill="#37466E"/>
<path d="M188.242 369.102C187.635 369.102 187.124 368.638 187.085 368.02C186.199 353.64 181.263 339.066 181.215 338.921C181.013 338.313 181.331 337.656 181.938 337.453C182.536 337.241 183.191 337.569 183.394 338.168C183.451 338.323 188.483 353.176 189.389 367.875C189.437 368.513 188.946 369.063 188.309 369.102C188.29 369.102 188.261 369.102 188.242 369.102Z" fill="#37466E"/>
<path opacity="0.2" d="M82.6159 264.063C83.416 265.463 85.3248 263.358 88.2361 261.706C91.1377 260.055 93.9237 259.485 93.1332 258.085C92.3331 256.675 88.2553 254.975 85.3537 256.626C82.452 258.278 81.8254 262.653 82.6159 264.063Z" fill="#EE445B"/>
<path opacity="0.2" d="M109.83 252.803C110.398 254.309 112.625 252.542 115.749 251.373C118.882 250.205 121.726 250.089 121.157 248.572C120.598 247.066 116.848 244.729 113.715 245.897C110.582 247.056 109.271 251.286 109.83 252.803Z" fill="#EE445B"/>
<path d="M81.1022 475.84C80.9094 475.84 80.7262 475.801 80.5527 475.705C80.4756 475.657 71.9248 471.031 57.8599 463.13C44.2288 455.472 4.55978 420.771 1.21466 412.369C-2.27505 403.639 2.52572 392.117 5.91903 386.68C9.9004 380.296 22.5096 374.54 23.0399 374.298C23.6183 374.028 24.3027 374.289 24.5726 374.878C24.8329 375.457 24.5726 376.143 23.9942 376.404C23.8689 376.462 11.491 382.111 7.87597 387.906C3.77893 394.473 0.616978 404.662 3.35477 411.519C6.26608 418.811 44.7397 453.115 58.9878 461.112C71.597 468.201 79.7622 472.643 81.3625 473.513C83.0784 473.387 91.9473 472.334 97.8374 464.618C95.3599 459.528 77.9691 424.673 60.9351 415.267C60.376 414.957 60.1735 414.262 60.482 413.702C60.7905 413.142 61.4942 412.929 62.0533 413.248C81.0058 423.707 99.4473 462.609 100.219 464.26C100.402 464.637 100.353 465.081 100.112 465.419C92.9402 475.434 81.6131 475.83 81.1311 475.84C81.1215 475.84 81.1118 475.84 81.1022 475.84Z" fill="#37466E"/>
<path d="M117.252 493.611C117.039 493.611 116.837 493.563 116.654 493.447L112.807 491.139C110.041 489.468 107.544 476.874 104.18 447.659C104.016 446.249 103.89 445.148 103.804 444.443C103.322 440.629 101.316 433.598 93.2573 429.397C86.6346 425.939 72.8685 424.857 72.7335 424.857C72.0973 424.8 71.6153 424.249 71.6635 423.612C71.7117 422.974 72.2708 422.501 72.9071 422.549C73.4855 422.588 87.2708 423.679 94.3274 427.349C100.892 430.768 105.182 436.891 106.088 444.154C106.175 444.868 106.3 445.979 106.464 447.399C110.253 480.206 112.653 488.222 114.003 489.159L117.84 491.467C118.389 491.796 118.563 492.501 118.235 493.051C118.023 493.408 117.637 493.611 117.252 493.611Z" fill="#37466E"/>
<path d="M51.275 413.151C48.971 413.151 47.4479 410.283 45.9729 407.492C45.4524 406.516 44.9318 405.531 44.3727 404.672C43.9292 403.986 43.3316 403.02 42.6375 401.909C41.1143 399.476 38.7043 395.622 36.8727 393.034C36.9305 393.179 36.9787 393.324 37.0366 393.449L37.3933 394.396C38.5693 397.534 42.1265 404.391 43.0809 405.348C43.6979 405.956 44.016 407.115 42.8977 408.37C41.6638 409.752 38.8296 410.901 36.9305 409.375C34.6073 407.511 26.23 391.421 23.5308 385.424C21.9594 381.937 21.9016 371.883 23.9164 367.47C29.5076 355.262 39.9768 354.026 40.4202 353.978C41.0276 353.891 41.6156 354.374 41.6831 355.002C41.7506 355.639 41.2975 356.209 40.6612 356.276C40.2756 356.315 31.0404 357.464 26.0179 368.436C24.1574 372.502 24.4273 381.792 25.6323 384.477C28.9967 391.952 36.7859 406.304 38.3765 407.569C38.7814 407.907 39.4177 407.772 39.7647 407.675C40.4877 407.463 41.0276 407.028 41.2493 406.748C39.7454 404.932 36.3328 398.143 35.2339 395.207L34.8772 394.27C33.5468 390.764 32.9395 389.161 34.0578 388.34C34.6651 387.896 35.4074 388.022 36.2654 388.698C37.8078 389.943 40.9504 394.859 44.5848 400.683C45.2789 401.784 45.8765 402.74 46.3103 403.416C46.8984 404.324 47.4575 405.377 48.007 406.41C49.0481 408.361 50.4652 411.046 51.4292 410.814C52.962 410.466 53.338 409.993 53.4344 409.809C53.5308 409.616 53.4922 409.327 53.3283 408.95C53.1452 408.525 52.4318 407.105 51.4582 405.183C44.1028 390.552 42.917 387.616 43.0424 386.573C43.1291 385.935 43.7075 385.472 44.3341 385.568C44.9318 385.646 45.3656 386.158 45.3463 386.756C45.597 388.389 51.14 399.418 53.5211 404.15C54.5141 406.12 55.2467 407.579 55.4395 408.003C56.0083 409.298 55.7866 410.263 55.4974 410.843C54.9575 411.915 53.8007 412.639 51.9498 413.074C51.7184 413.122 51.4967 413.151 51.275 413.151Z" fill="#37466E"/>
<path fill-rule="evenodd" clip-rule="evenodd" d="M56.578 410.794C54.621 410.794 53.6088 409.664 53.31 408.892C53.0786 408.303 53.3678 407.627 53.9655 407.404C54.5535 407.173 55.2283 407.462 55.4597 408.061C55.479 408.1 55.9321 408.863 57.8312 408.264C58.371 408.1 58.5542 407.82 58.6409 407.627C59.0458 406.738 58.5349 405.183 58.3228 404.71L51.3723 385.336C51.1699 384.786 51.4302 384.168 51.9604 383.907C52.4906 383.646 53.1364 383.849 53.4449 384.342C53.7727 384.883 61.6005 397.621 62.9694 401.542C63.702 403.638 64.2515 404.285 64.425 404.459C65.2251 404.555 65.8903 404.42 66.3241 404.063C66.594 403.821 66.6904 403.561 66.6904 403.474C66.5651 402.286 61.9379 383.82 60.8196 381.193C59.6339 378.421 58.6699 373.66 58.6313 373.457C58.5542 373.071 58.6795 372.675 58.9591 372.405C59.2386 372.125 59.6339 372.018 60.0195 372.105C61.4077 372.414 65.1191 373.795 68.0883 374.916L70.3537 375.746C70.6236 375.746 70.826 375.428 70.855 374.751C70.9032 373.805 70.5561 372.791 70.0645 372.443C68.3582 371.246 64.5793 369.391 61.0799 368.03C59.0458 367.238 55.9996 364.389 52.7798 361.376C50.5143 359.251 48.1718 357.058 46.6487 356.102C43.7084 354.238 41.2598 356.035 41.2309 356.054C40.72 356.431 39.997 356.324 39.621 355.822C39.2354 355.31 39.3415 354.586 39.8524 354.2C40.0066 354.094 43.612 351.447 47.8826 354.151C49.5889 355.223 51.9025 357.387 54.3511 359.685C57.1371 362.293 60.2894 365.248 61.9089 365.876C65.042 367.093 69.3029 369.092 71.3852 370.55C73.2168 371.835 73.612 374.974 72.7059 376.702C72.0696 377.929 70.8646 378.402 69.5632 377.919L67.2785 377.079C65.4854 376.403 63.0561 375.495 61.3209 374.906C61.6969 376.509 62.2945 378.769 62.9404 380.285C64.1262 383.048 68.9944 402.218 68.9944 403.474C68.9944 404.304 68.551 405.183 67.8183 405.811C66.8929 406.612 65.6011 406.951 64.1454 406.748C64.1454 406.748 64.1358 406.748 64.1262 406.748C62.9404 406.748 61.8222 405.26 60.7907 402.305C60.3472 401.04 59.1229 398.683 57.6962 396.134L60.4629 403.85C60.5593 404.044 61.6487 406.574 60.7521 408.563C60.3376 409.49 59.5664 410.147 58.5253 410.476C57.7926 410.707 57.1467 410.794 56.578 410.794ZM63.9719 404.449C63.9623 404.449 63.9623 404.459 63.9623 404.459C63.9623 404.459 63.9623 404.449 63.9719 404.449Z" fill="#37466E"/>
<path d="M47.9194 356.075L46.6182 354.172C48.6616 352.762 50.3195 351.603 51.5919 350.695C52.6715 349.923 53.7221 346.861 54.127 344.939C54.2619 344.312 54.8692 343.906 55.4957 344.051C56.1126 344.176 56.5174 344.795 56.3825 345.413C56.2668 345.982 55.1583 350.985 52.9317 352.579C51.6497 353.496 49.9822 354.665 47.9194 356.075Z" fill="#37466E"/>
<path d="M148.611 398.461C148.379 398.461 148.148 398.394 147.946 398.249C147.849 398.181 138.286 391.498 131.365 391.005C130.025 390.918 128.309 390.832 126.332 390.735C117.251 390.31 103.514 389.653 94.6454 386.447C84.0221 382.622 71.5574 376.441 71.4321 376.384C70.8633 376.103 70.632 375.408 70.9115 374.838C71.1911 374.259 71.8852 374.037 72.4539 374.317C72.5793 374.375 84.9282 380.488 95.4263 384.274C103.977 387.364 117.492 388.002 126.438 388.427C128.434 388.523 130.169 388.61 131.528 388.697C139.096 389.238 148.861 396.076 149.266 396.356C149.787 396.732 149.912 397.447 149.546 397.969C149.324 398.287 148.967 398.461 148.611 398.461Z" fill="#37466E"/>
<path d="M68.9752 371.583C68.792 371.583 68.6089 371.535 68.4353 371.448C67.8762 371.149 67.6641 370.444 67.9533 369.884C68.0594 369.7 77.6802 351.428 78.4225 344.407C78.6635 342.098 79.1262 339.249 79.6082 336.226C80.5047 330.654 81.729 323.024 80.8614 321.373C80.5047 320.706 80.2734 320.619 80.2637 320.61C79.8781 320.648 79.2033 320.446 78.9623 320.127C78.5189 319.528 78.6828 319.074 79.2612 317.548C80.0324 315.472 80.6879 313.791 81.2374 312.497C81.488 311.908 82.1628 311.638 82.7509 311.879C83.3293 312.13 83.6088 312.806 83.3582 313.395C83.3582 313.405 82.5581 315.308 81.4205 318.36C81.3916 318.427 81.3627 318.504 81.3338 318.562C81.8447 318.833 82.3845 319.335 82.8955 320.291C84.0523 322.464 83.2811 327.901 81.8833 336.593C81.4013 339.587 80.9482 342.407 80.7168 344.658C79.936 352.104 70.4019 370.202 69.997 370.965C69.7849 371.352 69.3897 371.583 68.9752 371.583Z" fill="#37466E"/>
<path d="M77.6035 352.79C77.5746 352.79 77.5553 352.79 77.5264 352.78C76.6491 352.732 56.0771 351.283 46.5527 339.501C46.1189 339.279 45.473 338.825 45.0392 337.917C44.1523 336.072 44.5476 333.291 46.225 329.65C49.3194 322.88 65.6208 294.824 75.1838 290.7C84.1202 286.837 96.8837 284.374 97.4235 284.268C98.0019 284.152 98.5803 284.509 98.7442 285.079C98.9177 285.659 102.957 299.16 117.272 299.489C117.436 299.498 117.6 299.498 117.764 299.498C131.521 299.498 134.085 285.794 134.191 285.205C134.268 284.702 134.673 284.316 135.174 284.258C136.003 284.152 155.64 281.815 164.191 295.374C164.528 295.915 164.364 296.63 163.825 296.968C163.294 297.306 162.571 297.151 162.234 296.611C155.399 285.746 139.927 286.199 136.254 286.479C135.367 289.898 131.318 302.135 117.224 301.797C103.593 301.488 98.2237 290.217 96.8837 286.731C93.7025 287.397 83.4068 289.667 76.0996 292.815C67.6838 296.446 51.9897 322.6 48.3169 330.616C46.572 334.421 46.7937 336.14 47.0829 336.835C47.2757 337.308 47.5649 337.424 47.5938 337.434C47.8445 337.502 48.018 337.627 48.1722 337.83C56.9833 349.033 77.4685 350.462 77.671 350.482C78.3072 350.52 78.7892 351.071 78.7506 351.708C78.7121 352.317 78.2012 352.79 77.6035 352.79Z" fill="#37466E"/>
<path d="M157.732 349.951C157.529 349.951 157.317 349.931 157.096 349.883C155.524 349.516 154.319 347.874 153.442 344.861C152.092 340.283 150.222 335.744 148.844 332.431C148.284 331.06 147.812 329.93 147.523 329.128C147.234 328.337 147.137 327.699 147.224 327.168C147.157 327.12 147.079 327.062 146.983 327.004C146.26 326.521 145.874 326.608 145.595 326.685C145.373 326.733 144.708 326.907 144.207 326.357C143.677 325.787 143.86 325.236 144.226 324.135C144.428 323.527 145.084 323.208 145.682 323.401C146.115 323.546 146.405 323.923 146.463 324.348C146.973 324.425 147.581 324.628 148.265 325.082C149.47 325.893 149.798 326.106 149.846 326.772C149.865 327.071 149.711 327.429 149.509 327.68C149.528 327.796 149.567 327.999 149.692 328.337C149.972 329.119 150.425 330.22 150.974 331.543C152.372 334.904 154.271 339.511 155.65 344.204C156.536 347.218 157.433 347.584 157.606 347.623C157.944 347.71 158.32 347.353 158.32 347.343C158.57 347.092 158.927 346.947 159.293 346.986C171.874 348.425 182.584 336.903 186.112 333.127C186.536 332.663 186.864 332.316 187.086 332.103C187.009 331.089 184.936 327.805 182.497 324.85C182.092 324.358 182.16 323.633 182.651 323.228C183.143 322.822 183.866 322.89 184.271 323.382C191.154 331.688 189.332 333.214 188.744 333.726C188.57 333.87 188.252 334.218 187.79 334.701C184.117 338.641 173.06 350.53 159.534 349.333C159.13 349.622 158.503 349.951 157.732 349.951Z" fill="#37466E"/>
<path d="M49.4921 342.118C49.3764 342.118 49.2511 342.099 49.1354 342.06C48.528 341.867 48.2003 341.22 48.3931 340.611C52.7986 326.772 69.3892 301.323 73.4573 296.678C77.7858 291.753 96.7382 288.131 98.8783 287.735C99.5145 287.609 100.112 288.034 100.228 288.662C100.344 289.29 99.9291 289.889 99.3025 290.004C93.6823 291.048 78.4027 294.544 75.1926 298.204C71.0088 302.975 54.7363 328.307 50.591 341.316C50.4271 341.799 49.9741 342.118 49.4921 342.118Z" fill="#37466E"/>
<path d="M163.295 302.358C162.948 302.358 162.601 302.194 162.37 301.885C152.768 288.973 135.021 290.006 134.847 290.025C134.23 290.083 133.652 289.581 133.614 288.953C133.575 288.306 134.047 287.756 134.684 287.717C135.464 287.669 153.877 286.587 164.221 300.504C164.606 301.016 164.5 301.74 163.99 302.126C163.777 302.281 163.536 302.358 163.295 302.358Z" fill="#37466E"/>
<path d="M184.502 337.608C184.136 337.608 183.769 337.434 183.548 337.106L175.103 324.763C174.746 324.241 174.881 323.517 175.402 323.16C175.932 322.802 176.645 322.938 177.012 323.459L185.447 335.802C185.813 336.333 185.678 337.048 185.148 337.405C184.955 337.55 184.724 337.608 184.502 337.608Z" fill="#37466E"/>
<path d="M82.2975 478.582C81.4395 483.72 79.5501 486.936 76.6388 488.211C72.2622 490.142 66.401 496.304 76.6388 497.849C86.8766 499.385 101.105 502.079 103.024 493.223C104.942 484.367 102.638 486.289 104.942 484.367C106.485 483.082 107.892 481.151 109.174 478.582L107.458 464.752C102.87 463.574 100.103 463.574 99.1773 464.752C97.7892 466.5 98.6182 470.17 99.0906 473.222C99.5629 476.274 101.481 483.894 99.1773 480.851C96.8733 477.819 98.2808 475.858 92.6317 474.69C86.9922 473.521 81.5745 473.579 82.2975 478.582Z" fill="#37466E"/>
<path d="M89.2382 506C81.8635 506 74.3057 504.214 71.5679 503.055C69.8905 502.34 68.9361 501.307 68.7626 500.003C68.4252 497.608 70.9316 495.512 71.2208 495.28C71.7125 494.875 72.4355 494.952 72.8404 495.454C73.2453 495.947 73.1681 496.671 72.6669 497.077C72.0885 497.55 70.922 498.815 71.0473 499.684C71.1244 500.244 71.8571 500.669 72.4644 500.92C77.0338 502.862 93.904 505.913 100.922 501.036C104.672 498.438 105.617 495.068 106.533 491.803C107.342 488.935 108.104 486.221 110.793 484.801C111.353 484.502 112.056 484.715 112.355 485.284C112.654 485.845 112.432 486.55 111.873 486.849C110.061 487.805 109.482 489.853 108.75 492.431C107.824 495.744 106.658 499.868 102.233 502.939C98.9554 505.208 94.1354 506 89.2382 506Z" fill="#37466E"/>
<path d="M99.2052 288.199C99.0414 288.199 98.9257 288.19 98.8775 288.18C98.251 288.054 97.8365 287.456 97.9618 286.828C98.0678 286.229 98.6076 285.823 99.2245 285.891C99.7161 285.852 101.104 284.51 101.287 278.908C101.316 278.271 101.856 277.798 102.483 277.798C103.119 277.817 103.62 278.348 103.591 278.986C103.446 283.38 102.579 286.258 100.998 287.523C100.275 288.103 99.6004 288.199 99.2052 288.199Z" fill="#37466E"/>
<path d="M134.758 288.673C134.671 288.673 134.575 288.663 134.488 288.644C126.535 286.693 120.375 271.462 120.124 270.806C119.883 270.217 120.172 269.55 120.76 269.309C121.348 269.067 122.023 269.357 122.264 269.956C123.903 274.06 129.388 285.012 135.037 286.393C135.654 286.548 136.03 287.176 135.886 287.794C135.751 288.325 135.278 288.673 134.758 288.673Z" fill="#37466E"/>
<path fill-rule="evenodd" clip-rule="evenodd" d="M82.2969 262.645C76.1369 262.645 71.124 257.622 71.124 251.451C71.124 245.28 76.1369 240.258 82.2969 240.258C88.4569 240.258 93.4698 245.28 93.4698 251.451C93.4698 257.622 88.4569 262.645 82.2969 262.645ZM82.2969 242.576C77.4094 242.576 73.4376 246.555 73.4376 251.451C73.4376 256.357 77.4094 260.336 82.2969 260.336C87.1844 260.336 91.1658 256.357 91.1658 251.451C91.1658 246.555 87.1844 242.576 82.2969 242.576Z" fill="#37466E"/>
<path fill-rule="evenodd" clip-rule="evenodd" d="M109.107 254.368C102.947 254.368 97.9346 249.346 97.9346 243.175C97.9346 237.004 102.947 231.991 109.107 231.991C115.267 231.991 120.28 237.004 120.28 243.175C120.28 249.346 115.267 254.368 109.107 254.368ZM109.107 234.299C104.22 234.299 100.248 238.278 100.248 243.175C100.248 248.081 104.22 252.06 109.107 252.06C113.995 252.06 117.976 248.081 117.976 243.175C117.976 238.278 113.995 234.299 109.107 234.299Z" fill="#37466E"/>
<path fill-rule="evenodd" clip-rule="evenodd" d="M99.7376 264.189C97.8481 264.189 96.7395 262.817 96.3828 261.929L92.3147 249.847C92.2761 249.712 92.2568 249.577 92.2568 249.432C92.3436 247.326 93.2498 246.331 93.9921 245.868C95.8237 244.719 98.2144 245.704 98.4843 245.82C98.7061 245.916 98.8892 246.08 99.0145 246.283C99.2363 246.66 104.615 255.574 105.493 257.216C106.582 259.263 106.1 260.519 105.994 260.751C105.936 260.866 105.869 260.973 105.782 261.06C105.705 261.147 103.815 263.117 101.116 263.967C100.615 264.121 100.162 264.189 99.7376 264.189ZM94.5705 249.325L98.5422 261.127C98.6675 261.388 99.1688 262.17 100.422 261.765C102.099 261.233 103.401 260.142 103.892 259.679C103.883 259.485 103.835 259.012 103.459 258.307C102.697 256.897 98.2723 249.528 97.2504 247.828C96.7009 247.664 95.7658 247.481 95.2163 247.828C94.85 248.06 94.6379 248.562 94.5705 249.325Z" fill="#37466E"/>
<path d="M106.099 267.107C107.516 265.793 108.595 265.011 109.482 264.123C109.964 263.707 110.349 263.253 110.783 262.722C111.236 262.191 111.622 261.544 112.248 260.752C112.769 261.563 112.981 262.558 112.788 263.524C112.653 264.509 112.113 265.426 111.4 266.122C110.658 266.788 109.79 267.271 108.855 267.435C107.949 267.609 106.985 267.57 106.099 267.107Z" fill="#37466E"/>
<path d="M79.4728 253.624C79.3186 252.803 79.5692 252.049 79.9644 251.422C80.35 250.784 80.9379 250.282 81.5838 249.925C82.9043 249.268 84.5333 249.171 85.8153 250.156C85.1984 250.717 84.6682 251.045 84.167 251.364C83.6754 251.663 83.2224 251.924 82.7694 252.175C82.2874 252.387 81.844 252.648 81.3139 252.861C80.7934 253.102 80.2247 253.334 79.4728 253.624Z" fill="#37466E"/>
<path d="M106.099 244.478C106.042 243.686 106.369 243.019 106.803 242.498C107.227 241.967 107.815 241.6 108.422 241.329C109.675 240.895 111.121 240.933 112.249 241.967C111.671 242.498 111.17 242.797 110.688 243.068C110.225 243.338 109.772 243.522 109.328 243.705C108.413 244.043 107.574 244.246 106.099 244.478Z" fill="#37466E"/>
<path d="M102.195 278.581C98.6671 278.581 94.7917 277.866 90.0777 276.137C79.8785 272.381 75.714 260.608 75.5404 260.105C75.338 259.507 75.6561 258.85 76.2538 258.637C76.8611 258.435 77.5167 258.753 77.7287 259.352C77.7673 259.468 81.7101 270.594 90.8778 273.964C100.826 277.634 106.485 276.282 111.884 274.438C117.774 272.419 125.033 266.026 126.103 254.649C127.192 242.963 123.789 238.559 123.76 238.511C123.452 238.134 123.413 237.603 123.664 237.188C125.814 233.624 128.927 226.96 128.137 224.246C128.012 223.802 127.799 223.531 127.462 223.358C126.922 223.087 126.479 223.068 126.006 223.29C124.262 224.13 122.816 228.08 122.314 230.369C122.179 230.997 121.572 231.393 120.945 231.258C120.328 231.122 119.933 230.504 120.068 229.886C120.222 229.162 121.678 222.807 125.013 221.204C126.112 220.673 127.327 220.702 128.494 221.291C129.409 221.754 130.055 222.546 130.354 223.599C131.53 227.665 127.385 235.353 126.016 237.748C127.048 239.496 129.351 244.634 128.397 254.861C127.231 267.339 119.172 274.38 112.626 276.62C109.165 277.808 105.859 278.581 102.195 278.581Z" fill="#37466E"/>
<path d="M72.2814 252.611C72.1754 252.611 72.0597 252.592 71.944 252.563C67.9626 251.365 58.6407 248.13 58.1201 244.035C57.9948 243.079 58.2743 241.679 60.318 240.433C66.7094 236.531 74.1805 245.358 74.489 245.735C74.8939 246.227 74.836 246.952 74.3444 247.357C73.8528 247.773 73.1297 247.705 72.7152 247.212C72.6574 247.135 66.2178 239.525 61.5231 242.403C60.9736 242.741 60.347 243.243 60.4048 243.745C60.5976 245.223 64.9357 248.033 72.6092 250.351C73.2261 250.535 73.5732 251.182 73.39 251.79C73.2358 252.292 72.7731 252.611 72.2814 252.611Z" fill="#37466E"/>
<path d="M84.7058 204.698C80.763 204.215 77.4951 204.794 74.9019 206.436C71.0747 208.851 63.7965 217.272 63.5169 224.776C63.2277 232.29 67.2187 241.31 68.2695 241.967C69.3202 242.624 70.9976 244.855 73.6004 241.967C75.3357 240.045 77.6397 235.854 80.522 229.402C77.9963 237.37 77.8517 241.368 80.0979 241.417C83.4526 241.484 94.3652 232.222 95.0882 224.023C92.5915 232.618 92.5915 236.964 95.0882 237.061C98.8382 237.206 106.917 224.728 106.772 220.208C104.372 229.209 104.372 233.517 106.772 233.14C109.172 232.763 111.91 230.078 114.985 225.066C114.793 229.982 115.612 232.435 117.444 232.435C119.266 232.435 120.519 231.179 121.184 228.678C123.392 223.984 125.079 221.753 126.235 221.985C125.368 214.124 122.1 207.923 116.431 203.404C107.919 196.614 93.7965 196.324 84.7058 204.698Z" fill="#37466E"/>
<path fill-rule="evenodd" clip-rule="evenodd" d="M200.516 494.316L194.867 472.384H165.32L161.869 485.431L151.756 494.316H117.679L155.14 376.839L165.243 367.954H206.618L244.542 485.431L234.44 494.316H200.516ZM198.54 437.577L193.585 418.368C192.438 414.099 191.04 408.575 189.391 401.805C187.733 395.025 186.654 390.167 186.123 387.241C185.661 389.955 184.726 394.436 183.337 400.684C181.959 406.923 178.874 419.218 174.112 437.577H198.54Z" fill="#626F91" stroke="#37466E" stroke-width="2.2" stroke-linecap="round" stroke-linejoin="round"/>
<path fill-rule="evenodd" clip-rule="evenodd" d="M200.515 494.317L194.866 472.384H157.568L151.756 494.317H117.678L155.139 376.84H196.514L234.439 494.317H200.515ZM188.426 446.463L183.481 427.253C182.324 422.985 180.926 417.46 179.278 410.69C177.63 403.911 176.54 399.062 176.02 396.126C175.547 398.84 174.622 403.321 173.234 409.57C171.845 415.809 168.77 428.113 164.008 446.463H188.426Z" fill="#4569B1" stroke="#37466E" stroke-width="2.2" stroke-linecap="round" stroke-linejoin="round"/>
<path d="M309.351 494.316L295.045 391.828H294.255C295.479 407.454 296.086 419.594 296.086 428.247V483.557L284.393 494.316H253.959V366.949L265.652 356.2H311.385L337.915 446.626H338.609L352.915 366.949L364.608 356.2H410.427V483.557L398.744 494.316H367.172L378.866 427.716C378.866 424.819 378.914 421.593 379.001 418.049C379.088 414.514 379.473 405.822 380.167 392.002H379.386L353.734 483.557L342.05 494.316H309.351Z" fill="#626F91" stroke="#37466E" stroke-width="2.2" stroke-linecap="round" stroke-linejoin="round"/>
<path d="M309.351 494.314L283.352 402.584H282.571C283.785 418.201 284.393 430.341 284.393 438.994V494.314H253.959V366.947H299.701L326.221 457.373H326.915L352.915 366.947H398.744V494.314H367.172V438.473C367.172 435.566 367.221 432.35 367.307 428.805C367.394 425.261 367.789 416.579 368.483 402.758H367.703L342.05 494.314H309.351Z" fill="#FFCA06" stroke="#37466E" stroke-width="2.2" stroke-linecap="round" stroke-linejoin="round"/>
<path d="M212.865 313.456L198.366 323.316H163.218V221.774H131.444V192.985L145.953 183.124H244.542V211.914L230.043 221.774H212.865V313.456Z" fill="#626F91" stroke="#37466E" stroke-width="2.2" stroke-linecap="round" stroke-linejoin="round"/>
<path d="M198.365 323.315H163.217V221.773H131.443V192.983H230.042V221.773H198.365V323.315Z" fill="#EC2A65" stroke="#37466E" stroke-width="2.2" stroke-linecap="round" stroke-linejoin="round"/>
<path d="M342.573 312.393L329.781 323.316H253.171V194.037L265.963 183.124H277.474C281.455 186.147 289.823 187.654 302.586 187.654C310.53 187.654 323.852 187.19 342.573 186.253V211.151L329.781 222.064H300.822V231.49H339.479V259.517L326.686 270.43H300.822V283.922H342.573V312.393Z" fill="#626F91" stroke="#37466E" stroke-width="2.2" stroke-linecap="round" stroke-linejoin="round"/>
<path d="M329.78 323.316H253.17V194.037H329.78V222.064H288.029V242.403H326.685V270.43H288.029V294.835H329.78V323.316Z" fill="#F69734" stroke="#37466E" stroke-width="2.2" stroke-linecap="round" stroke-linejoin="round"/>
<path d="M349.128 377.341C345.108 380.711 342.457 383.869 341.175 386.815C339.256 391.238 340.722 394.599 342.197 395.864C343.662 397.13 352.28 401.553 354.382 402.181C356.483 402.808 357.322 401.756 356.695 400.703C356.425 400.259 354.652 398.868 352.695 397.419C350.921 396.096 349.031 394.734 347.026 393.334L352.695 397.419C356.483 399.612 358.797 400.635 359.636 400.5C360.898 400.288 361.525 398.037 360.686 397.902C360.127 397.806 356.83 395.121 350.815 389.857L360.262 396.338C362.566 396.338 363.337 395.7 362.566 394.416C361.795 393.131 359.173 390.176 354.681 385.559C359.481 389.79 362.19 391.789 362.797 391.528C363.723 391.142 363.723 388.061 361.988 386.709C360.841 385.811 358.141 383.628 353.919 380.161C354.218 374.762 353.524 371.614 351.837 370.715C349.301 369.373 350.42 376.182 349.128 377.341Z" fill="white" stroke="#37466E" stroke-width="2.2" stroke-linecap="round" stroke-linejoin="round"/>
</svg>
