<svg width="180" height="100" viewBox="0 0 180 100" fill="none" xmlns="http://www.w3.org/2000/svg">
<g clip-path="url(#clip0_1414_2058)">
<path d="M130.012 43.6751L128.291 47.3713C127.731 45.9094 126.455 45.2861 124.608 45.3917C123.384 45.4621 121.892 46.5254 121.909 48.2845C121.953 49.8396 122.753 50.5768 126.632 52.5968C130.192 54.4614 131 56.5725 131 58.7426C131 62.5196 128.462 65.2964 123.925 65.3109C120.447 65.2964 118.411 63.3913 118.411 61.0721C118.413 59.2479 119.447 57.8553 121.189 57.4401C120.559 58.1659 120.465 59.0636 120.455 59.4808C120.465 60.6352 121.112 62.6014 123.927 62.6014C125.544 62.6014 126.826 61.536 126.826 59.544C126.814 56.9069 124.812 56.0838 122.972 55.1479C121.765 54.5391 118.386 52.7438 118.386 48.5858C118.382 45.4238 121.298 42.9638 124.372 42.9462C127.223 42.9276 126.496 44.2145 130.012 43.6751Z" fill="#BFBFBF"/>
<path d="M108.886 45.7582C108.87 44.8719 108.627 43.7444 108.089 43.2412C109.345 43.2412 117.856 43.2464 117.868 43.2464L117.328 47.0316C116.823 46.4829 116.214 45.755 115.45 45.755C114.67 45.7571 113.04 45.755 113.03 45.755V51.9392C113.04 51.9516 114.283 51.9516 114.941 51.9392C115.61 51.9516 116.271 51.7994 116.947 51.1409V55.3465C116.381 54.8982 115.717 54.4893 115.069 54.4893L113.031 54.4872V62.3569C113.538 62.5153 116.719 62.3352 117.872 60.6372L117.203 64.8738H107.994C108.783 64.2143 108.872 63.1697 108.885 62.3911V45.7582H108.886Z" fill="#BFBFBF"/>
<path d="M99.0713 45.7582C99.0858 44.8719 98.8404 43.7444 98.2741 43.2412H104.04C103.491 43.7434 103.277 44.8719 103.277 45.7582V62.2938C103.773 62.4687 106.951 62.2865 108.12 60.574L107.322 64.8728H98.2109C98.7535 64.5436 99.0858 63.4368 99.0713 62.2938V45.7582H99.0713Z" fill="#BFBFBF"/>
<path d="M97.5439 43.2401L98.2438 47.5731C97.8473 46.8141 96.5065 45.7539 95.7911 45.7539L94.5797 45.756C94.2909 45.756 94.1728 46.2706 94.1728 46.7748C94.1656 47.6507 94.3488 66.9155 94.4203 68.1206C94.4648 69.3465 95.1129 70.8353 95.6006 71.3385H88.114C88.5995 70.8353 89.2466 69.3434 89.2932 68.1206C89.3647 66.9155 89.5427 47.6507 89.5427 46.7748C89.549 46.2706 89.4247 45.7529 89.1348 45.7529L87.9235 45.755C87.2101 45.755 85.8755 46.7572 85.4707 47.571L86.1716 43.238H97.5439V43.2401Z" fill="#BFBFBF"/>
<path d="M78.3626 43.2402C79.1412 44.2487 79.2519 44.8813 79.0324 45.7572L75.3373 62.3891C75.1747 63.1128 74.7896 64.2682 74.127 64.8708H79.1598C78.3957 64.291 78.2021 63.382 78.3957 62.3891L78.9703 59.9042H83.0165L83.5901 62.2948C83.7423 62.9119 83.5942 64.436 82.9202 64.8749H88.655C88.1446 64.436 87.4809 63.3851 87.1889 62.357L83.6211 45.7903C83.4037 44.9103 83.5155 44.2497 84.29 43.2402H78.3626ZM82.5371 57.5146H79.5108L81.0711 50.7279L82.5371 57.5146Z" fill="#BFBFBF"/>
<path d="M65.3965 45.7582C65.41 44.8719 65.1667 43.7444 64.5993 43.2412C65.8842 43.2412 74.3937 43.2464 74.3813 43.2464L73.8709 47.0316C73.3604 46.4829 72.7537 45.755 71.9917 45.755C71.2079 45.7571 69.5783 45.755 69.57 45.755V51.9392C69.5783 51.9516 70.8207 51.9516 71.4813 51.9392C72.147 51.9516 72.8086 51.7994 73.4557 51.1409V55.3465C72.9194 54.8982 72.2567 54.4893 71.6086 54.4893L69.57 54.4872V62.3569C70.0763 62.5153 73.2559 62.3352 74.4123 60.6372L73.7435 64.8738H64.5361C65.3199 64.2143 65.4089 63.1697 65.3965 62.3911C65.3965 62.3911 65.3965 45.7582 65.3965 45.7582Z" fill="#BFBFBF"/>
<path d="M57.3689 29.7653C61.1065 29.7497 63.7353 31.5958 63.7353 37.9839C63.7394 41.707 62.6047 44.6609 60.2989 45.8857C62.4991 47.0608 64.6143 49.8376 64.5998 54.5195C64.6143 62.5579 61.2701 64.8761 57.0169 64.8761L48.001 64.872C49.054 63.7134 49.463 62.7184 49.463 61.271L49.4661 33.2037C49.4661 31.779 49.053 30.8814 48 29.7332L57.3689 29.7653ZM54.2452 43.4319C54.2452 44.2188 54.9369 44.4393 56.0933 44.4507C58.7066 44.4393 59.0141 41.6231 59.0244 37.9197C59.0141 33.1364 57.7893 32.0824 56.0292 32.0886C54.9866 32.0824 54.2463 32.6591 54.2463 33.2999C54.2452 34.0299 54.2463 42.674 54.2452 43.4319ZM56.6659 62.0703C59.3019 62.0703 59.626 59.3991 59.626 54.4874C59.628 50.0913 58.4156 47.8094 56.3801 47.7969C55.5063 47.8094 54.2463 47.974 54.2463 48.6252C54.2452 49.3003 54.2463 59.5171 54.2463 60.3495C54.2452 61.2834 55.2164 62.0724 56.6659 62.0724V62.0703Z" fill="#BFBFBF"/>
<path d="M93.1773 29.9877C93.1856 29.645 93.0696 29.2081 92.7953 29C93.4123 29.0135 97.4668 29.0135 97.4782 29L97.2245 30.4982C96.974 30.2673 96.6851 29.9908 96.332 29.9908C95.9479 29.9877 95.1714 29.9908 95.1859 29.9908V32.3773C95.1714 32.3846 95.7647 32.3846 96.0773 32.3773C96.3962 32.3846 96.711 32.3504 97.034 32.0905V33.9386C96.7648 33.7533 96.449 33.5452 96.1426 33.5555H95.1869V36.4866C95.4106 36.5508 96.9263 36.4804 97.4802 35.8178L97.1614 37.4754H92.7632C93.1432 37.2197 93.1856 36.789 93.1773 36.4877V29.9877H93.1773Z" fill="#BFBFBF"/>
<path d="M89.4512 37.4754H92.2849C92.0302 37.3491 91.8718 36.9318 91.8718 36.4877V29.9877C91.8718 29.645 91.9795 29.2091 92.2549 29H89.5143C89.7659 29.2081 89.8746 29.645 89.8653 29.9877V32.3784H88.7181V29.9877C88.7036 29.645 88.8123 29.2081 89.0681 29H86.3275C86.5967 29.2081 86.7054 29.645 86.7054 29.9877L86.7096 36.4877C86.7096 36.9318 86.548 37.3491 86.2954 37.4754H89.0991C88.861 37.3491 88.7036 36.9318 88.7161 36.4877V33.5545H89.8632V36.4866C89.8746 36.9318 89.7172 37.348 89.4512 37.4754Z" fill="#BFBFBF"/>
<path d="M82.186 30.4019C82.186 30.2093 82.1301 30.0074 81.9945 30.0188H81.3256C80.9902 30.0064 80.5232 30.4008 80.3379 30.7208L80.4984 29H85.9133L86.0727 30.7208C85.8915 30.4215 85.4204 30.0074 85.085 30.0188H84.384C84.2381 30.0064 84.1822 30.2093 84.1925 30.4019V36.4877C84.1801 36.9142 84.3054 37.2859 84.5425 37.4754H81.836C82.0121 37.3253 82.1829 36.966 82.1829 36.4877L82.186 30.4019Z" fill="#BFBFBF"/>
</g>
<defs>
<clipPath id="clip0_1414_2058">
<rect width="83" height="42.3386" fill="white" transform="translate(48 29)"/>
</clipPath>
</defs>
</svg>
