<svg width="120" height="120" viewBox="0 0 120 120" fill="none" xmlns="http://www.w3.org/2000/svg">
<g clip-path="url(#clip0_165_9434)">
<path d="M111.303 30.74C111.092 30.74 110.886 30.6309 110.771 30.4348C109.643 28.5055 108.393 26.6205 107.056 24.8321C106.853 24.5597 106.908 24.1739 107.18 23.9701C107.453 23.7669 107.839 23.8222 108.042 24.0943C109.409 25.92 110.684 27.8441 111.834 29.8135C112.006 30.1071 111.908 30.4841 111.614 30.6558C111.516 30.7131 111.409 30.74 111.303 30.74V30.74ZM116.766 43.1544C116.502 43.1544 116.259 42.9847 116.177 42.7205C115.517 40.5877 114.727 38.4689 113.826 36.423C113.689 36.112 113.831 35.7484 114.141 35.6113C114.454 35.4742 114.817 35.6159 114.954 35.9271C115.873 38.0159 116.681 40.1789 117.354 42.3564C117.454 42.6813 117.272 43.0262 116.947 43.1268C116.888 43.1454 116.826 43.1544 116.766 43.1544ZM119.251 56.4849C118.93 56.4849 118.661 56.2376 118.637 55.9117C118.483 53.6817 118.198 51.4392 117.788 49.2455C117.725 48.9116 117.946 48.5889 118.281 48.5274C118.618 48.4629 118.936 48.6849 118.999 49.0187C119.417 51.2597 119.71 53.5495 119.867 55.8266C119.889 56.1668 119.634 56.4613 119.294 56.4833C119.28 56.4849 119.265 56.4849 119.251 56.4849V56.4849ZM118.637 70.0361C118.606 70.0361 118.573 70.0329 118.54 70.0282C118.204 69.9731 117.976 69.6581 118.029 69.3227C118.202 68.2408 118.347 67.1369 118.461 66.0408C118.579 64.9069 118.664 63.7605 118.716 62.6329C118.73 62.2943 119.034 62.0314 119.358 62.0471C119.699 62.0613 119.962 62.3494 119.946 62.6896C119.894 63.8392 119.806 65.0093 119.686 66.1684C119.571 67.2865 119.421 68.414 119.245 69.5164C119.196 69.8203 118.935 70.0361 118.637 70.0361V70.0361ZM114.974 83.0959C114.897 83.0959 114.818 83.0817 114.741 83.0503C114.426 82.9211 114.277 82.5621 114.406 82.2471C115.25 80.1794 115.984 78.0392 116.587 75.8881C116.678 75.5605 117.018 75.3699 117.346 75.4613C117.673 75.5542 117.866 75.8928 117.773 76.2203C117.158 78.4172 116.407 80.6014 115.544 82.7132C115.447 82.951 115.217 83.0959 114.974 83.0959Z" fill="#66509E"/>
<path d="M67.5251 1.70661C67.4984 1.70661 67.4716 1.70502 67.4464 1.70139C66.9882 1.64345 66.5283 1.59024 66.0653 1.54235C64.3015 1.35984 62.5094 1.25511 60.7378 1.23167C60.3976 1.2271 60.1267 0.947528 60.1315 0.60771C60.1361 0.270198 60.4102 0 60.7472 0H60.7551C62.5629 0.0240756 64.3912 0.130885 66.1928 0.31714C66.6637 0.365972 67.133 0.420321 67.6007 0.479811C67.9394 0.522671 68.1771 0.831005 68.1346 1.16833C68.0952 1.47953 67.8307 1.70661 67.5251 1.70661V1.70661ZM47.2543 2.60564C46.9708 2.60564 46.7157 2.40945 46.6528 2.12186C46.5787 1.78976 46.7897 1.46109 47.122 1.38833C49.3472 0.898734 51.6275 0.533367 53.8968 0.302211C54.2433 0.267704 54.5393 0.514016 54.5723 0.852435C54.607 1.1907 54.3614 1.49291 54.0228 1.52723C51.7991 1.75385 49.5677 2.11196 47.3865 2.59102C47.3425 2.60092 47.2968 2.60564 47.2543 2.60564ZM80.6984 4.94109C80.6259 4.94109 80.5551 4.92865 80.4842 4.90235C78.3897 4.12426 76.2275 3.46001 74.0574 2.9274C73.7268 2.84644 73.5251 2.51293 73.6055 2.18264C73.6874 1.85212 74.0165 1.64897 74.3503 1.73117C76.5677 2.27478 78.7756 2.95336 80.9126 3.74804C81.2307 3.86631 81.3929 4.22109 81.2747 4.53982C81.1834 4.78768 80.9488 4.94109 80.6984 4.94109ZM34.429 7.01809C34.2007 7.01809 33.9802 6.88894 33.8731 6.66803C33.7267 6.36129 33.8574 5.9935 34.1629 5.84678C36.2227 4.86191 38.3582 3.98631 40.514 3.24472C40.8385 3.13368 41.1865 3.3052 41.2967 3.62642C41.407 3.94802 41.2369 4.29842 40.9157 4.40916C38.8038 5.13555 36.7109 5.99305 34.6952 6.95777C34.6085 6.99889 34.5188 7.01809 34.429 7.01809ZM92.7819 11.0995C92.6654 11.0995 92.5473 11.0662 92.4418 10.9965C90.5788 9.75889 88.626 8.61747 86.6386 7.60422C86.3347 7.4496 86.215 7.0789 86.3693 6.77571C86.5236 6.47278 86.8953 6.35308 87.1977 6.50691C89.226 7.54156 91.2213 8.7069 93.1237 9.97054C93.4071 10.1585 93.4843 10.5408 93.2953 10.8242C93.1772 11.0027 92.9819 11.0995 92.7819 11.0995V11.0995ZM22.9427 14.2316C22.7631 14.2316 22.5836 14.1524 22.4623 14.0003C22.2497 13.7348 22.2922 13.3474 22.5585 13.1348C24.3426 11.7074 26.2246 10.3697 28.1537 9.15889C28.4419 8.97827 28.8214 9.06474 29.0025 9.35289C29.1836 9.64078 29.097 10.021 28.8088 10.2017C26.919 11.3882 25.075 12.6983 23.3269 14.0967C23.2135 14.1874 23.0781 14.2316 22.9427 14.2316V14.2316ZM13.3821 23.8524C13.2482 23.8524 13.1143 23.8091 13.0009 23.72C12.7347 23.5094 12.6891 23.1222 12.8986 22.8551C14.3096 21.0672 15.8403 19.3395 17.4497 17.72C17.6907 17.4787 18.0796 17.4776 18.3222 17.7171C18.5632 17.957 18.5647 18.3471 18.3238 18.5882C16.7474 20.1746 15.2481 21.8668 13.867 23.6178C13.7442 23.7719 13.5647 23.8524 13.3821 23.8524V23.8524ZM6.25762 35.3918C6.1694 35.3918 6.08123 35.3732 5.99778 35.3335C5.68914 35.1891 5.55678 34.8225 5.70014 34.5148C6.6686 32.4499 7.76629 30.4189 8.9647 28.4775C9.14261 28.1876 9.52219 28.0981 9.81192 28.2768C10.1017 28.4554 10.1915 28.835 10.0135 29.1242C8.83873 31.0255 7.76312 33.0151 6.81665 35.0371C6.71112 35.2606 6.48915 35.3918 6.25762 35.3918V35.3918ZM1.94737 48.2529C1.90485 48.2529 1.86233 48.2482 1.81977 48.2387C1.48751 48.1679 1.27337 47.8419 1.34419 47.509C1.81826 45.274 2.42612 43.046 3.14899 40.8864C3.25766 40.5644 3.60722 40.3894 3.92848 40.4984C4.25137 40.6064 4.42613 40.9554 4.31747 41.278C3.60881 43.3931 3.0135 45.5752 2.54899 47.7641C2.48909 48.0545 2.23242 48.2529 1.94737 48.2529V48.2529ZM0.654469 61.7553C0.319035 61.7553 0.0449819 61.4876 0.0387457 61.1505C0.0324339 60.7978 0.0292969 60.445 0.0292969 60.0923C0.0292969 58.1726 0.122198 56.2214 0.306412 54.2938C0.339483 53.9553 0.635533 53.7096 0.977316 53.7395C1.31589 53.771 1.56473 54.0718 1.53166 54.4104C1.35213 56.3001 1.26078 58.212 1.26078 60.0923C1.26078 60.4387 1.26392 60.7836 1.27023 61.1301C1.27654 61.4686 1.00562 61.7506 0.665505 61.7553H0.654469V61.7553ZM2.44188 75.1978C2.16783 75.1978 1.91592 75.0119 1.84661 74.7332C1.28754 72.5254 0.851306 70.2576 0.550569 67.9931C0.504875 67.6561 0.742645 67.3474 1.07967 67.3017C1.40724 67.2561 1.72536 67.4939 1.77105 67.8308C2.06548 70.0482 2.49223 72.2686 3.04026 74.4309C3.12379 74.7615 2.92377 75.0954 2.59465 75.1789C2.54268 75.1915 2.49223 75.1978 2.44188 75.1978ZM7.26864 87.8734C7.04663 87.8734 6.83241 87.7521 6.7222 87.5411C5.6702 85.5159 4.72532 83.4088 3.91272 81.2781C3.79144 80.9616 3.95207 80.6056 4.27019 80.4844C4.58676 80.3631 4.94427 80.5222 5.06389 80.8403C5.85922 82.9269 6.78358 84.9899 7.81512 86.9741C7.97258 87.275 7.85447 87.6466 7.55214 87.8041C7.4623 87.8513 7.36468 87.8734 7.26864 87.8734ZM14.8513 99.1222C14.6765 99.1222 14.5033 99.0482 14.382 98.9049C14.0718 98.5426 13.7663 98.1742 13.464 97.8025C12.3238 96.4009 11.2371 94.9332 10.2308 93.4403C10.0403 93.1584 10.1143 92.7758 10.3962 92.5868C10.678 92.3962 11.0608 92.4702 11.2513 92.7521C12.2372 94.2135 13.3033 95.6513 14.4198 97.0261C14.7159 97.3899 15.0151 97.7505 15.319 98.1064C15.5395 98.3647 15.508 98.7537 15.2498 98.9741C15.1332 99.0734 14.9915 99.1222 14.8513 99.1222V99.1222Z" fill="#66509E"/>
<path d="M94.3433 109.008C94.1513 109.008 93.9623 108.918 93.841 108.748C93.6442 108.47 93.7088 108.086 93.9875 107.889C95.8064 106.598 97.5748 105.185 99.241 103.693C99.493 103.466 99.8819 103.486 100.11 103.74C100.337 103.993 100.317 104.382 100.063 104.609C98.3623 106.133 96.5575 107.576 94.6993 108.894C94.5922 108.971 94.4678 109.008 94.3433 109.008ZM36.1435 114.962C36.06 114.962 35.9766 114.945 35.8963 114.91C33.8065 113.995 31.7482 112.948 29.7782 111.798C29.4837 111.626 29.386 111.25 29.5561 110.956C29.7262 110.663 30.1041 110.562 30.3986 110.735C32.3278 111.861 34.3435 112.886 36.3907 113.781C36.7026 113.918 36.8444 114.282 36.7073 114.592C36.6065 114.823 36.3797 114.962 36.1435 114.962V114.962ZM82.4586 115.545C82.2161 115.545 81.9862 115.4 81.8885 115.162C81.761 114.847 81.9106 114.486 82.2256 114.359C84.2917 113.513 86.3327 112.538 88.2917 111.461C88.5909 111.297 88.9641 111.406 89.1279 111.704C89.2916 112.001 89.183 112.376 88.8854 112.54C86.8854 113.641 84.8019 114.636 82.6917 115.499C82.6161 115.529 82.5374 115.545 82.4586 115.545V115.545ZM49.1137 118.934C49.0759 118.934 49.0381 118.93 49.0003 118.924C46.7531 118.508 44.509 117.959 42.3342 117.293C42.0082 117.193 41.8256 116.848 41.9263 116.524C42.0239 116.2 42.3688 116.015 42.6948 116.116C44.8255 116.768 47.0224 117.305 49.224 117.713C49.5594 117.774 49.7798 118.096 49.7185 118.43C49.6634 118.727 49.4051 118.934 49.1137 118.934V118.934ZM69.4004 119.204C69.1027 119.204 68.8413 118.989 68.7925 118.685C68.7373 118.349 68.9673 118.033 69.3027 117.979C71.509 117.628 73.7168 117.145 75.8681 116.541C76.194 116.448 76.5357 116.641 76.6271 116.968C76.7201 117.296 76.5279 117.634 76.2003 117.727C74.0051 118.343 71.7483 118.836 69.4979 119.196C69.4649 119.201 69.4318 119.204 69.4004 119.204ZM60.0712 119.943C58.6602 119.943 57.2271 119.893 55.8082 119.792C55.4681 119.768 55.2129 119.474 55.2381 119.134C55.2617 118.795 55.5546 118.543 55.8948 118.563C58.1358 118.721 60.4003 118.752 62.6161 118.656C62.9562 118.65 63.2444 118.905 63.2586 119.245C63.2728 119.584 63.0098 119.872 62.6712 119.886C61.8098 119.924 60.9358 119.943 60.0712 119.943V119.943Z" fill="#66509E"/>
<path d="M16.6118 55.497C19.0937 31.5241 40.5378 14.1017 64.5094 16.583C88.4826 19.0639 105.905 40.5083 103.425 64.4798C100.943 88.453 79.4985 105.875 55.5254 103.393C31.5537 100.913 14.1316 79.4687 16.6122 55.497H16.6118Z" fill="#EDEAF3"/>
<path d="M52.3532 43.651L100.043 26.0697C101.304 25.5297 102.63 25.0596 102.563 23.8093C102.386 20.5772 93.6445 19.2998 89.0523 21.3058L76.6382 25.8641C76.0901 26.1034 75.4634 26.0866 74.9295 25.8182L51.1626 14.3565C47.0319 12.2812 42.1531 12.3271 38.0618 14.4798L58.9594 31.2176C59.5436 31.6856 59.4036 32.6103 58.7074 32.8855L53.6004 34.9041C52.6633 35.2743 42.9106 32.9171 39.8051 32.1508C39.1941 32.0003 38.5531 32.0876 38.0035 32.394L35.0098 34.0669L43.1468 41.8485C45.6003 44.1948 49.1956 44.8987 52.3532 43.651V43.651Z" fill="white"/>
<path d="M36.0374 34.2244L43.5728 41.4298C45.8453 43.6026 49.2028 44.2597 52.1272 43.1044L52.1398 43.0997L99.831 25.5183L100.053 25.4225C101.368 24.8667 101.984 24.5322 101.948 23.8693C101.911 23.2035 101.294 22.6882 100.784 22.3733C98.1506 20.7512 92.4625 20.5146 89.3003 21.8964L76.8514 26.4687C76.168 26.7678 75.3538 26.7463 74.6546 26.3952L50.8955 14.9377C47.2294 13.095 42.9302 12.9998 39.2089 14.6361L59.3444 30.763C59.7932 31.1221 60.009 31.675 59.9239 32.2422C59.8373 32.8095 59.4688 33.274 58.9349 33.4848L53.8262 35.5031C53.5318 35.6206 52.6326 35.9757 39.6578 32.775C39.1979 32.6624 38.7176 32.7273 38.305 32.958L36.0373 34.2244H36.0374ZM49.1697 44.8983C46.8091 44.8983 44.4831 44.004 42.7225 42.3199L34.5839 34.5383C34.4438 34.4035 34.3744 34.2095 34.3996 34.0155C34.4233 33.8216 34.5382 33.6511 34.7099 33.5556L37.7036 31.8825C38.3918 31.499 39.1902 31.3901 39.9524 31.5793C48.3949 33.6614 52.7933 34.4709 53.4107 34.3461L58.4831 32.3394C58.6564 32.2706 58.6958 32.1202 58.7051 32.0585C58.7146 31.9969 58.7209 31.8411 58.5745 31.7241L37.6768 14.987C37.5146 14.8571 37.4296 14.6542 37.4484 14.4474C37.4689 14.2406 37.5918 14.058 37.776 13.9612C42.0327 11.7211 47.1398 11.6723 51.4406 13.8326L75.198 25.2898C75.5776 25.4813 76.0123 25.4933 76.3917 25.326L88.8421 20.7537C92.3335 19.2279 98.4673 19.4993 101.43 21.3246C102.809 22.1747 103.141 23.1411 103.178 23.8019C103.266 25.4018 101.751 26.0424 100.534 26.557L100.286 26.6621L52.5727 44.2531C51.4704 44.6871 50.316 44.8983 49.1696 44.8983H49.1697Z" fill="#66509E"/>
<path d="M89.0521 21.3512L87.7734 21.821C90.3624 23.9503 93.8931 24.6573 97.1561 23.5991L101.544 22.1755C99.0805 20.2467 92.7341 19.7426 89.0521 21.3512Z" fill="#807DBB"/>
<path d="M89.0523 21.3185H89.0586H89.0523ZM89.0665 21.9695C91.4035 23.4676 94.2823 23.8515 96.9673 22.9805L100.059 21.9774C97.2507 20.71 92.257 20.5906 89.2996 21.8828L89.2649 21.8964L89.0665 21.9695V21.9695ZM94.0728 24.6722C91.6649 24.6722 89.3043 23.8446 87.3831 22.2641C87.2114 22.1239 87.1295 21.903 87.1673 21.6854C87.2035 21.4676 87.3531 21.2863 87.561 21.2106L88.824 20.7467C92.6319 19.0934 99.2335 19.5517 101.923 21.6582C102.103 21.7983 102.189 22.0263 102.15 22.2503C102.111 22.4744 101.95 22.6585 101.734 22.7287L97.3468 24.1522C96.2712 24.501 95.1673 24.6722 94.0728 24.6722V24.6722Z" fill="#66509E"/>
<path d="M43.6826 19.6237C43.4228 19.6237 43.1803 19.4577 43.0968 19.1964C42.9913 18.8728 43.1693 18.5259 43.4937 18.4216L53.6637 15.147C53.9897 15.0428 54.3346 15.2205 54.4401 15.5444C54.5441 15.8679 54.3661 16.215 54.0417 16.3191L43.8716 19.5939C43.8087 19.6142 43.7441 19.6237 43.6826 19.6237Z" fill="#66509E"/>
<path d="M45.8791 21.3564C45.6176 21.3564 45.3751 21.1885 45.2917 20.9257C45.1909 20.6013 45.3704 20.2553 45.6949 20.1533L56.7547 16.6692C57.0806 16.5671 57.424 16.7473 57.5263 17.0715C57.6287 17.3959 57.4476 17.742 57.1247 17.844L46.0649 21.3279C46.0035 21.3473 45.9405 21.3564 45.8791 21.3564V21.3564Z" fill="#66509E"/>
<path d="M109.855 97.7889C109.855 91.2157 107.46 85.2015 103.495 80.5715L92.7874 73.0314C89.8316 71.8912 86.7324 71.3086 83.3749 71.3086C78.4457 71.3086 73.8299 72.6566 69.8788 75.0015L65.1245 78.603C60.0159 83.4298 56.8945 90.2062 56.8945 97.7889H109.855H109.855Z" fill="white"/>
<path d="M109.856 98.3759C109.515 98.3759 109.24 98.1003 109.24 97.7601C109.24 91.62 107.051 85.6704 103.076 81.0027L92.4966 73.5491C89.5864 72.4373 86.6006 71.8956 83.3754 71.8956C78.7375 71.8956 74.191 73.1366 70.2241 75.4845L65.5233 79.0452C60.3564 83.9397 57.5107 90.5853 57.5107 97.7601C57.5107 98.1003 57.2352 98.3759 56.895 98.3759C56.5549 98.3759 56.2793 98.1003 56.2793 97.7601C56.2793 90.2326 59.2698 83.2593 64.7013 78.1271C64.717 78.1113 64.7344 78.0972 64.7533 78.083L69.5076 74.4814C69.5265 74.4673 69.5454 74.4546 69.5643 74.4436C73.7297 71.9712 78.506 70.6641 83.3754 70.6641C86.7816 70.6641 89.9328 71.2405 93.01 72.4279C93.0572 72.4468 93.1013 72.4704 93.1422 72.4988L103.849 80.0405C103.892 80.0688 103.93 80.1035 103.963 80.1429C108.16 85.0436 110.471 91.3003 110.471 97.7601C110.471 98.1003 110.196 98.3759 109.856 98.3759V98.3759Z" fill="#66509E"/>
<path d="M98.4285 98.4025C98.0931 98.4025 97.8175 98.1316 97.8143 97.7946C97.6348 82.9237 85.6695 72.0828 85.5482 71.9741C85.2946 71.7474 85.271 71.3584 85.4978 71.1048C85.7246 70.8513 86.1135 70.8277 86.3671 71.0544C86.4931 71.1662 98.86 82.3552 99.0442 97.7804C99.0489 98.1206 98.7765 98.3993 98.4364 98.4025H98.4285V98.4025Z" fill="#66509E"/>
<path d="M83.3795 98.3759C83.0393 98.3759 82.7637 98.1003 82.7637 97.7601V71.2799C82.7637 70.9397 83.0393 70.6641 83.3795 70.6641C83.7196 70.6641 83.9952 70.9397 83.9952 71.2799V97.7601C83.9952 98.1003 83.7196 98.3759 83.3795 98.3759Z" fill="#66509E"/>
<path d="M83.4104 88.6924C76.0608 88.6924 68.697 87.1633 61.1742 84.0972C60.8592 83.968 60.708 83.609 60.8372 83.294C60.9647 82.979 61.3237 82.8279 61.6403 82.9554C74.2245 88.0862 86.3505 88.8247 98.7159 85.209C99.0403 85.1145 99.3836 85.3003 99.4797 85.6279C99.5742 85.9539 99.3868 86.2956 99.0607 86.3917C93.8183 87.924 88.6183 88.6924 83.4104 88.6924V88.6924Z" fill="#66509E"/>
<path d="M102.657 85.1822C102.404 85.1822 102.167 85.0263 102.078 84.7743C101.963 84.4547 102.128 84.1019 102.448 83.987C103.334 83.6673 104.238 83.3208 105.133 82.9554C105.449 82.8279 105.808 82.9791 105.936 83.2924C106.063 83.6074 105.912 83.9681 105.597 84.0956C104.687 84.4673 103.767 84.82 102.865 85.1444C102.796 85.1696 102.726 85.1822 102.657 85.1822Z" fill="#66509E"/>
<path d="M68.3505 98.4084H68.3316C67.9914 98.3989 67.7237 98.1155 67.7347 97.7753C68.1741 82.6462 79.9788 71.2399 80.0985 71.1265C80.3442 70.8934 80.7347 70.9013 80.9694 71.1469C81.2024 71.3942 81.193 71.7832 80.9473 72.0178C80.8323 72.1281 69.3898 83.199 68.9646 97.8115C68.9551 98.1454 68.6812 98.4084 68.3505 98.4084V98.4084Z" fill="#66509E"/>
<path d="M83.5503 78.2627C79.6968 78.2627 76.0007 76.9839 71.6937 74.3855C71.4023 74.2091 71.3094 73.8311 71.4858 73.5398C71.6622 73.2485 72.0401 73.1556 72.3299 73.3303C79.9582 77.9335 85.3299 78.2106 93.6086 74.4264C93.9205 74.2847 94.2842 74.4217 94.4259 74.7304C94.566 75.039 94.4307 75.4044 94.1204 75.5461C90.1755 77.3493 86.8071 78.2627 83.5503 78.2627Z" fill="#66509E"/>
<path d="M67.2264 78.75C67.8531 79.0854 68.2799 79.7453 68.2799 80.5059C68.2799 81.6035 67.3901 82.4933 66.2924 82.4933C65.1964 82.4933 64.3066 81.6035 64.3066 80.5059C64.3066 79.7516 64.7271 79.0948 65.346 78.7579L67.2264 78.75V78.75Z" fill="#807DBB"/>
<path d="M66.293 83.0798C64.8584 83.0798 63.6914 81.9112 63.6914 80.4766C63.6914 79.5207 64.2127 78.6435 65.0521 78.1884C65.3513 78.0262 65.726 78.1364 65.8883 78.4357C66.0505 78.7333 65.9386 79.1081 65.6411 79.2703C65.1969 79.5112 64.923 79.9726 64.923 80.4766C64.923 81.2325 65.5371 81.8483 66.293 81.8483C67.0505 81.8483 67.6663 81.2325 67.6663 80.4766C67.6663 79.9679 67.3859 79.5034 66.9371 79.2656C66.6379 79.1049 66.5245 78.7317 66.6835 78.4325C66.8426 78.1317 67.2174 78.0183 67.5166 78.1774C68.3686 78.6309 68.8962 79.5128 68.8962 80.4766C68.8962 81.9112 67.7292 83.0798 66.293 83.0798V83.0798Z" fill="#66509E"/>
<path d="M101.498 83.3789C102.24 83.6671 102.764 84.3883 102.764 85.2309C102.764 86.3285 101.874 87.2182 100.776 87.2182C99.6789 87.2182 98.7891 86.3285 98.7891 85.2309C98.7891 84.3883 99.3151 83.6671 100.055 83.3789H101.498V83.3789Z" fill="#807DBB"/>
<path d="M100.777 87.8054C99.3423 87.8054 98.1738 86.6368 98.1738 85.2022C98.1738 84.1203 98.8258 83.1691 99.8321 82.777C100.149 82.6526 100.506 82.81 100.629 83.1266C100.753 83.4431 100.596 83.8006 100.279 83.9235C99.7486 84.1313 99.4053 84.6321 99.4053 85.2022C99.4053 85.9581 100.021 86.5739 100.777 86.5739C101.533 86.5739 102.149 85.9581 102.149 85.2022C102.149 84.6321 101.805 84.1313 101.276 83.9235C100.958 83.8006 100.802 83.4431 100.925 83.1266C101.049 82.81 101.407 82.6541 101.722 82.777C102.73 83.1691 103.38 84.1203 103.38 85.2022C103.38 86.6368 102.213 87.8054 100.777 87.8054Z" fill="#66509E"/>
<path d="M107.639 74.7088C109.132 72.6017 110.052 70.0836 110.153 67.4584C110.157 67.3119 110.161 67.167 110.161 67.0269C110.161 61.5922 105.962 57.1875 100.783 57.1875C95.6047 57.1875 91.4062 61.5922 91.4062 67.0269C91.4062 67.167 91.4078 67.3119 91.4141 67.4584C91.5134 70.0836 92.433 72.6017 93.9275 74.7088L100.783 84.378L107.639 74.7088V74.7088Z" fill="#EE445B"/>
<path d="M100.783 57.833C95.9517 57.833 92.0209 61.9716 92.0209 67.0567C92.0209 67.1889 92.0241 67.326 92.0304 67.4645C92.1217 69.907 92.9533 72.2976 94.4304 74.3827L100.783 83.3433L107.136 74.3827H107.138C108.615 72.2976 109.445 69.907 109.537 67.4661C109.542 67.326 109.545 67.1889 109.545 67.0567C109.545 61.9716 105.615 57.833 100.783 57.833V57.833ZM100.783 85.0236C100.585 85.0236 100.396 84.9275 100.281 84.7638L93.4258 75.0945C91.8084 72.8157 90.9013 70.1937 90.799 67.5118C90.7926 67.3559 90.791 67.2047 90.791 67.0567C90.791 61.2913 95.273 56.6016 100.783 56.6016C106.293 56.6016 110.777 61.2913 110.777 67.0567C110.777 67.2047 110.774 67.3559 110.769 67.5118C110.667 70.1937 109.758 72.8157 108.141 75.0945L101.286 84.7638C101.171 84.9275 100.983 85.0236 100.783 85.0236V85.0236Z" fill="#66509E"/>
<path d="M107.162 67.0732C107.162 70.5913 104.31 73.4433 100.792 73.4433C97.2758 73.4433 94.4238 70.5913 94.4238 67.0732C94.4238 63.5551 97.2758 60.7031 100.792 60.7031C104.31 60.7031 107.162 63.5551 107.162 67.0732Z" fill="white"/>
<path d="M100.793 61.3486C97.6212 61.3486 95.0402 63.9298 95.0402 67.103C95.0402 70.2762 97.6212 72.8573 100.793 72.8573C103.966 72.8573 106.547 70.2762 106.547 67.103C106.547 63.9298 103.966 61.3486 100.793 61.3486ZM100.793 74.0888C96.9409 74.0888 93.8086 70.9549 93.8086 67.103C93.8086 63.251 96.9409 60.1172 100.793 60.1172C104.645 60.1172 107.779 63.251 107.779 67.103C107.779 70.9549 104.645 74.0888 100.793 74.0888Z" fill="#66509E"/>
<path d="M102.931 65.206C102.931 66.398 101.964 67.365 100.772 67.365C99.5802 67.365 98.6133 66.398 98.6133 65.206C98.6133 64.0138 99.5802 63.0469 100.772 63.0469C101.964 63.0469 102.931 64.0138 102.931 65.206Z" fill="#807DBB"/>
<path d="M100.773 63.6925C99.9225 63.6925 99.2296 64.3854 99.2296 65.2358C99.2296 66.0861 99.9225 66.7791 100.773 66.7791C101.625 66.7791 102.316 66.0861 102.316 65.2358C102.316 64.3854 101.625 63.6925 100.773 63.6925ZM100.773 68.0106C99.2437 68.0106 97.998 66.7649 97.998 65.2358C97.998 63.705 99.2437 62.4609 100.773 62.4609C102.304 62.4609 103.548 63.705 103.548 65.2358C103.548 66.7649 102.304 68.0106 100.773 68.0106Z" fill="#66509E"/>
<path d="M97.2363 70.0145C97.7749 69.1389 98.7402 68.5547 99.8426 68.5547H101.458C102.614 68.5547 103.621 69.1972 104.14 70.1436L97.2363 70.0145V70.0145Z" fill="#807DBB"/>
<path d="M104.14 70.7893C103.923 70.7893 103.712 70.6743 103.6 70.4696C103.17 69.6869 102.35 69.2003 101.458 69.2003H99.8428C98.9876 69.2003 98.2097 69.6365 97.7624 70.3672C97.5845 70.6569 97.205 70.7467 96.9152 70.5704C96.6254 70.3924 96.5341 70.0128 96.7121 69.7231C97.386 68.6239 98.5561 67.9688 99.8428 67.9688H101.458C102.8 67.9688 104.035 68.6995 104.681 69.8774C104.843 70.175 104.734 70.5499 104.436 70.7136C104.342 70.7656 104.241 70.7893 104.14 70.7893Z" fill="#66509E"/>
<path d="M73.1276 70.3712C74.6221 68.2642 75.5418 65.7461 75.641 63.1224C75.6458 62.9744 75.6489 62.8295 75.6489 62.6893C75.6489 57.2563 71.4505 52.8516 66.2709 52.8516C61.093 52.8516 56.8945 57.2563 56.8945 62.6893C56.8945 62.8295 56.8977 62.9744 56.9025 63.1224C57.0016 65.7461 57.9213 68.2642 59.4158 70.3712L66.2709 80.0405L73.1276 70.3712V70.3712Z" fill="#807DBB"/>
<path d="M66.2713 53.4971C61.4415 53.4971 57.5107 57.6341 57.5107 62.7192C57.5107 62.853 57.5139 62.9885 57.5186 63.1286C57.6116 65.5696 58.4415 67.9617 59.9186 70.0452L66.2713 79.0058L72.6257 70.0452C74.1029 67.9617 74.9328 65.5696 75.0258 63.1286C75.032 62.9885 75.0336 62.853 75.0336 62.7192C75.0336 57.6341 71.1029 53.4971 66.2713 53.4971V53.4971ZM66.2713 80.6877C66.073 80.6877 65.8856 80.5901 65.769 80.4279L58.9139 70.7585C57.2981 68.4782 56.3895 65.8562 56.2871 63.1743C56.2824 63.02 56.2793 62.8672 56.2793 62.7192C56.2793 56.9554 60.7612 52.2656 66.2713 52.2656C71.7816 52.2656 76.2651 56.9554 76.2651 62.7192C76.2651 62.8672 76.2635 63.02 76.2572 63.1743C76.1549 65.8562 75.2462 68.4782 73.6304 70.7585L66.7753 80.4279C66.6587 80.5901 66.4714 80.6877 66.2713 80.6877V80.6877Z" fill="#66509E"/>
<path d="M72.6507 62.7943C72.6507 66.3124 69.7987 69.1643 66.2806 69.1643C62.764 69.1643 59.9121 66.3124 59.9121 62.7943C59.9121 59.2777 62.764 56.4258 66.2806 56.4258C69.7987 56.4258 72.6507 59.2777 72.6507 62.7943Z" fill="white"/>
<path d="M66.2811 57.0127C63.1095 57.0127 60.5284 59.5938 60.5284 62.7655C60.5284 65.9387 63.1095 68.5198 66.2811 68.5198C69.4544 68.5198 72.0355 65.9387 72.0355 62.7655C72.0355 59.5938 69.4544 57.0127 66.2811 57.0127V57.0127ZM66.2811 69.7513C62.4308 69.7513 59.2969 66.6175 59.2969 62.7655C59.2969 58.9135 62.4308 55.7812 66.2811 55.7812C70.1331 55.7812 73.267 58.9135 73.267 62.7655C73.267 66.6175 70.1331 69.7513 66.2811 69.7513Z" fill="#66509E"/>
<path d="M68.7304 51.3557C68.5887 51.3557 68.447 51.3085 68.3305 51.2093C68.0722 50.9872 68.0423 50.5998 68.2628 50.34C68.3131 50.2817 69.4974 48.9022 70.8753 47.825C71.1446 47.6167 71.532 47.6643 71.7399 47.9321C71.9494 48.1998 71.9021 48.5872 71.6344 48.7967C70.3557 49.7951 69.2108 51.1274 69.1998 51.1415C69.0769 51.2833 68.9053 51.3557 68.7304 51.3557Z" fill="#66509E"/>
<path d="M74.9411 46.3504C74.7285 46.3504 74.5222 46.2398 74.4089 46.0422C74.2387 45.7477 74.3395 45.3715 74.634 45.2014C74.7096 45.1567 76.5301 44.1121 78.0529 43.8381C78.3821 43.7773 78.708 44.0006 78.7679 44.3354C78.8277 44.6701 78.6057 44.9902 78.2703 45.0507C76.9631 45.2858 75.2655 46.2579 75.2498 46.2679C75.1521 46.3236 75.0466 46.3504 74.9411 46.3504V46.3504Z" fill="#66509E"/>
<path d="M87.0389 44.8542C87.0106 44.8542 86.9822 44.8521 86.9523 44.8483C85.6074 44.6606 83.5933 44.7154 83.5728 44.7165L83.5555 44.7167C83.2232 44.7167 82.9508 44.4524 82.9397 44.1184C82.9302 43.7786 83.198 43.4949 83.5381 43.4851C83.6264 43.4834 85.6768 43.4269 87.1224 43.6283C87.4594 43.6751 87.694 43.9863 87.6484 44.3231C87.6059 44.6311 87.3413 44.8542 87.0389 44.8542V44.8542Z" fill="#66509E"/>
<path d="M95.619 48.0223C95.4867 48.0223 95.3545 47.9798 95.241 47.8916C94.5229 47.3322 92.4868 46.3352 91.7623 45.9983C91.4537 45.8547 91.3198 45.4886 91.4647 45.1802C91.6064 44.8722 91.9733 44.7385 92.282 44.8817C92.3938 44.9336 95.0221 46.1601 95.9985 46.9201C96.2663 47.1287 96.315 47.5158 96.1056 47.7842C95.9844 47.9404 95.8017 48.0223 95.619 48.0223V48.0223Z" fill="#66509E"/>
<path d="M100.271 56.1865C99.9872 56.1865 99.7321 55.9896 99.6691 55.703C99.277 53.9109 98.1164 51.1566 98.1054 51.1298C97.973 50.8164 98.1195 50.4542 98.4329 50.3219C98.7463 50.1896 99.1069 50.3377 99.2392 50.6495C99.288 50.7676 100.455 53.5377 100.872 55.4384C100.945 55.7707 100.735 56.0983 100.403 56.1723C100.359 56.1818 100.315 56.1865 100.271 56.1865Z" fill="#66509E"/>
<path d="M100.239 56.1269C100.11 56.1269 99.9779 56.086 99.8677 56.0009L97.0992 53.8986C96.8284 53.6939 96.7748 53.3065 96.9811 53.0356C97.1874 52.7663 97.5732 52.7127 97.8425 52.9175L100.613 55.0214C100.883 55.2261 100.935 55.6135 100.731 55.8844C100.609 56.0435 100.425 56.1269 100.239 56.1269V56.1269Z" fill="#66509E"/>
<path d="M100.342 56.1561C100.275 56.1561 100.207 56.1451 100.139 56.1214C99.8179 56.0081 99.6493 55.6569 99.7611 55.3356L100.879 52.1514C100.991 51.8301 101.345 51.6601 101.665 51.7734C101.986 51.8868 102.155 52.238 102.042 52.5593L100.923 55.7435C100.835 55.997 100.597 56.1561 100.342 56.1561Z" fill="#66509E"/>
<path d="M25.4462 58.0078V61.1244C25.4462 61.8047 24.8951 62.3559 24.2163 62.3559H11.3864H8.08559C6.95328 62.3559 6.03516 63.2724 6.03516 64.4047V75.0125C6.03516 76.1433 6.95328 77.0614 8.08559 77.0614H43.4651C44.1439 77.0614 44.695 77.6126 44.695 78.2913V78.8583C44.695 79.5385 44.1439 80.0882 43.4651 80.0882H30.6352H27.3344C26.2021 80.0882 25.2856 81.0063 25.2856 82.1385V90.7086H31.125V87.159C31.125 86.4787 31.6746 85.9275 32.3548 85.9275H48.4856C49.6178 85.9275 50.5344 85.011 50.5344 83.8787V80.5779V76.5716V73.2708C50.5344 72.1401 49.6178 71.222 48.4856 71.222H45.1848H13.106C12.4257 71.222 11.8746 70.6709 11.8746 69.9921V69.4252C11.8746 68.7464 12.4257 68.1953 13.106 68.1953H29.2368C30.3675 68.1953 31.2856 67.2771 31.2856 66.1449V62.8441V58.0078H25.4462V58.0078Z" fill="white"/>
<path d="M28.3769 90.293L20.8887 104.291L28.3769 99.6079L35.8651 104.291L28.3769 90.293V90.293Z" fill="#807DBB"/>
<path d="M28.3778 99.0236C28.4911 99.0236 28.6046 99.0551 28.7037 99.1181L34.2329 102.575L28.3778 91.6299L22.5227 102.575L28.0502 99.1181C28.151 99.0551 28.2644 99.0236 28.3778 99.0236ZM20.8896 104.939C20.7368 104.939 20.5872 104.883 20.4691 104.773C20.266 104.583 20.214 104.279 20.3463 104.033L27.8345 90.033C27.9416 89.833 28.151 89.707 28.3778 89.707C28.6046 89.707 28.814 89.833 28.9195 90.033L36.4093 104.033C36.54 104.279 36.4896 104.583 36.2864 104.773C36.0833 104.964 35.7762 104.994 35.54 104.846L28.3778 100.367L21.2156 104.846C21.1148 104.909 21.0014 104.939 20.8896 104.939V104.939Z" fill="#66509E"/>
<path d="M28.4428 47.6892C27.2853 47.6892 26.3467 46.7511 26.3467 45.5941C26.3467 44.4368 27.2853 43.4988 28.4428 43.4988C29.6003 43.4988 30.5373 44.4368 30.5373 45.5941C30.5373 46.7511 29.6003 47.6892 28.4428 47.6892V47.6892ZM28.3893 40.3711C25.4774 40.3711 23.1152 42.7319 23.1152 45.644C23.1152 48.5571 28.3893 55.5571 28.3893 55.5571C28.3893 55.5571 33.6617 48.5571 33.6617 45.644C33.6617 42.7319 31.3011 40.3711 28.3893 40.3711V40.3711Z" fill="#807DBB"/>
<path d="M28.4417 44.1447C27.6259 44.1447 26.9614 44.808 26.9614 45.6239C26.9614 46.4396 27.6259 47.1034 28.4417 47.1034C29.2575 47.1034 29.9205 46.4396 29.9205 45.6239C29.9205 44.808 29.2575 44.1447 28.4417 44.1447V44.1447ZM28.4417 48.3351C26.9472 48.3351 25.7299 47.1188 25.7299 45.6239C25.7299 44.1291 26.9472 42.9128 28.4417 42.9128C29.9362 42.9128 31.1519 44.1291 31.1519 45.6239C31.1519 47.1188 29.9362 48.3351 28.4417 48.3351ZM28.3882 41.017C25.8197 41.017 23.7299 43.1061 23.7299 45.674C23.7299 47.6711 26.741 52.2626 28.3882 54.5477C30.0338 52.2626 33.0449 47.6711 33.0449 45.674C33.0449 43.1061 30.9551 41.017 28.3882 41.017ZM28.3882 56.2028C28.1945 56.2028 28.0118 56.113 27.8952 55.9587C27.344 55.2248 22.5 48.7051 22.5 45.674C22.5 42.427 25.1409 39.7852 28.3882 39.7852C31.6354 39.7852 34.2763 42.427 34.2763 45.674C34.2763 48.7051 29.4323 55.2248 28.8795 55.9587C28.763 56.113 28.5819 56.2028 28.3882 56.2028V56.2028Z" fill="#66509E"/>
<path d="M28.3765 64.1483C28.0363 64.1483 27.7607 63.8727 27.7607 63.5325V58.6821C27.7607 58.342 28.0363 58.0664 28.3765 58.0664C28.7166 58.0664 28.9921 58.342 28.9921 58.6821V63.5325C28.9921 63.8727 28.7166 64.1483 28.3765 64.1483ZM15.0252 65.8743H10.1969C9.85991 65.8743 9.57641 65.6049 9.57009 65.2695C9.56386 64.9341 9.81894 64.6554 10.1544 64.6428H15.0252C15.3654 64.6428 15.641 64.9184 15.641 65.2585C15.641 65.5987 15.3654 65.8743 15.0252 65.8743V65.8743ZM24.7245 65.8743H19.8757C19.5355 65.8743 19.2599 65.5987 19.2599 65.2585C19.2599 64.9184 19.5355 64.6428 19.8757 64.6428H24.7245C25.0646 64.6428 25.3402 64.9184 25.3402 65.2585C25.3402 65.5987 25.0646 65.8743 24.7245 65.8743ZM9.67883 74.6081C9.59217 74.6081 9.50558 74.5892 9.42054 74.5514C8.77016 74.2491 8.34961 73.5924 8.34961 72.8758V69.4254C8.34961 69.0853 8.62521 68.8097 8.96541 68.8097C9.30557 68.8097 9.58117 69.0853 9.58117 69.4254V72.8758C9.58117 73.1137 9.72135 73.3325 9.93864 73.4333C10.2473 73.5766 10.3812 73.942 10.2394 74.2506C10.1339 74.4758 9.91188 74.6081 9.67883 74.6081V74.6081ZM19.3622 74.7215H14.5134C14.1733 74.7215 13.8977 74.4459 13.8977 74.1057C13.8977 73.7656 14.1733 73.49 14.5134 73.49H19.3622C19.7024 73.49 19.978 73.7656 19.978 74.1057C19.978 74.4459 19.7024 74.7215 19.3622 74.7215V74.7215ZM29.063 74.7215H24.2127C23.8725 74.7215 23.5969 74.4459 23.5969 74.1057C23.5969 73.7656 23.8725 73.49 24.2127 73.49H29.063C29.4032 73.49 29.6788 73.7656 29.6788 74.1057C29.6788 74.4459 29.4032 74.7215 29.063 74.7215ZM38.7622 74.7215H33.9119C33.5717 74.7215 33.2961 74.4459 33.2961 74.1057C33.2961 73.7656 33.5717 73.49 33.9119 73.49H38.7622C39.1024 73.49 39.378 73.7656 39.378 74.1057C39.378 74.4459 39.1024 74.7215 38.7622 74.7215ZM47.7859 75.9231C47.452 75.9231 47.178 75.6569 47.1701 75.3215C47.1638 74.9908 46.8867 74.7215 46.556 74.7215H43.6111C43.2709 74.7215 42.9953 74.4459 42.9953 74.1057C42.9953 73.7656 43.2709 73.49 43.6111 73.49H46.556C47.5512 73.49 48.3796 74.2995 48.4016 75.2947C48.4095 75.6349 48.1403 75.9168 47.8001 75.9231H47.7859V75.9231ZM40.3544 83.5687H35.504C35.1638 83.5687 34.8882 83.2932 34.8882 82.953C34.8882 82.6128 35.1638 82.3373 35.504 82.3373H40.3544C40.6945 82.3373 40.9701 82.6128 40.9701 82.953C40.9701 83.2932 40.6945 83.5687 40.3544 83.5687ZM46.556 83.5687H45.2032C44.8631 83.5687 44.589 83.2932 44.589 82.953C44.589 82.6128 44.8631 82.3373 45.2032 82.3373H46.556C46.8946 82.3373 47.1701 82.0617 47.1701 81.7215V80.1578C47.1701 79.8176 47.4457 79.5419 47.7859 79.5419C48.126 79.5419 48.4016 79.8176 48.4016 80.1578V81.7215C48.4016 82.7404 47.5733 83.5687 46.556 83.5687V83.5687ZM28.3765 86.6664C28.0363 86.6664 27.7607 86.3908 27.7607 86.0506V84.183C27.7607 83.164 28.589 82.3373 29.6064 82.3373H30.6552C30.9953 82.3373 31.2709 82.6128 31.2709 82.953C31.2709 83.2932 30.9953 83.5687 30.6552 83.5687H29.6064C29.2677 83.5687 28.9921 83.8443 28.9921 84.183V86.0506C28.9921 86.3908 28.7166 86.6664 28.3765 86.6664V86.6664Z" fill="#66509E"/>
<path d="M31.1455 91.4125C30.8053 91.4125 30.5298 91.1368 30.5298 90.7967V87.1904C30.5298 86.1715 31.3565 85.3432 32.3754 85.3432H48.5061C49.2967 85.3432 49.9392 84.7006 49.9392 83.9101V73.3022C49.9392 72.5117 49.2967 71.8691 48.5061 71.8691H13.1265C12.1077 71.8691 11.2793 71.0408 11.2793 70.0235V69.4565C11.2793 68.4392 12.1077 67.6108 13.1265 67.6108H29.2558C30.0463 67.6108 30.6904 66.9668 30.6904 66.1762V58.0376C30.6904 57.6975 30.966 57.4219 31.3061 57.4219C31.6463 57.4219 31.9218 57.6975 31.9218 58.0376V66.1762C31.9218 67.6471 30.7266 68.8424 29.2558 68.8424H13.1265C12.788 68.8424 12.5109 69.118 12.5109 69.4565V70.0235C12.5109 70.362 12.788 70.6376 13.1265 70.6376H48.5061C49.9754 70.6376 51.1707 71.8329 51.1707 73.3022V83.9101C51.1707 85.3794 49.9754 86.5762 48.5061 86.5762H32.3754C32.0368 86.5762 31.7612 86.8503 31.7612 87.1904V90.7967C31.7612 91.1368 31.4856 91.4125 31.1455 91.4125Z" fill="#66509E"/>
<path d="M25.2861 91.1999C24.9459 91.1999 24.6703 90.9243 24.6703 90.5841V82.1699C24.6703 80.7006 25.8655 79.5038 27.3348 79.5038H43.4656C43.8041 79.5038 44.0797 79.2282 44.0797 78.8896V78.3227C44.0797 77.9841 43.8041 77.7085 43.4656 77.7085H8.08604C6.61671 77.7085 5.41992 76.5132 5.41992 75.0439V64.4361C5.41992 62.9668 6.61671 61.7715 8.08604 61.7715H24.2151C24.5538 61.7715 24.8309 61.4959 24.8309 61.1557V58.0376C24.8309 57.6975 25.1065 57.4219 25.4467 57.4219C25.7868 57.4219 26.0624 57.6975 26.0624 58.0376V61.1557C26.0624 62.1746 25.2341 63.003 24.2151 63.003H8.08604C7.29547 63.003 6.65141 63.6455 6.65141 64.4361V75.0439C6.65141 75.8345 7.29547 76.477 8.08604 76.477H43.4656C44.4829 76.477 45.3112 77.3054 45.3112 78.3227V78.8896C45.3112 79.9085 44.4829 80.7353 43.4656 80.7353H27.3348C26.5443 80.7353 25.9017 81.3794 25.9017 82.1699V90.5841C25.9017 90.9243 25.6261 91.1999 25.2861 91.1999V91.1999Z" fill="#66509E"/>
</g>
<defs>
<clipPath id="clip0_165_9434">
<rect width="120" height="120" fill="white"/>
</clipPath>
</defs>
</svg>
