<svg width="72" height="72" viewBox="0 0 72 72" fill="none" xmlns="http://www.w3.org/2000/svg">
<path d="M62.2354 43.576L54.4279 30.6243C54.1097 30.0959 53.6043 29.7231 53.0052 29.5748C52.4077 29.427 51.7861 29.5202 51.2583 29.8388L48.3224 31.6082C47.7941 31.9265 47.4212 32.4319 47.273 33.0306C47.1536 33.5111 47.1978 34.0033 47.3819 34.4529L46.5305 34.8635C46.0708 35.0853 45.5332 35.1086 45.0563 34.929L38.9842 32.6428C37.6751 32.1506 36.2641 32.0546 34.9008 32.3667L32.8361 32.8397C32.6103 32.8915 32.3909 32.959 32.1719 33.0261H30.3659C29.3297 33.0261 28.2862 33.1792 27.2641 33.4813L25.2957 34.0667H24.3025C24.3752 33.7284 24.3797 33.3768 24.2937 33.0313C24.145 32.4327 23.7722 31.9277 23.2442 31.609L20.3084 29.8396C19.78 29.5214 19.1593 29.4278 18.5614 29.5756C17.9624 29.7239 17.4574 30.0963 17.1395 30.6247L9.33043 43.5764C8.67391 44.6669 9.02628 46.0888 10.1163 46.7457L13.0522 48.5155C13.4238 48.7397 13.8344 48.8462 14.2403 48.8462C15.0238 48.8462 15.7888 48.448 16.2219 47.73L16.4172 47.4065L19.0758 49.0752L21.3705 52.7351C21.0032 53.3048 20.8301 53.971 20.904 54.654C20.99 55.4423 21.3777 56.1506 21.9952 56.6476L22.1531 56.7746C22.6083 57.1402 23.1391 57.3407 23.6799 57.4014C23.7836 58.2146 24.189 58.972 24.856 59.5112C25.4522 59.9901 26.1763 60.2272 26.8935 60.2272C27.1571 60.2272 27.417 60.1838 27.6722 60.1199C27.8614 60.7069 28.2134 61.2361 28.714 61.6391C29.3042 62.1184 30.0214 62.3595 30.7402 62.3595C31.0395 62.3595 31.3376 62.3101 31.6285 62.2265C31.8174 62.5933 32.0809 62.9228 32.4092 63.1872C32.9452 63.6199 33.5988 63.8493 34.2791 63.8493C34.3888 63.8493 34.4997 63.8433 34.6098 63.8312C35.4081 63.7441 36.1242 63.3507 36.6239 62.7255L37.1535 62.0682L38.7767 62.932C39.3782 63.2515 40.0259 63.4029 40.6654 63.4029C41.9693 63.4029 43.2324 62.7677 43.9975 61.6499C44.2623 61.7207 44.5315 61.7584 44.7995 61.7584C45.9189 61.7584 47.0041 61.1565 47.5654 60.103C47.702 59.8495 47.788 59.5787 47.8487 59.3031C48.0499 59.3409 48.2533 59.3662 48.4586 59.3662C48.7876 59.3662 49.1183 59.3171 49.4417 59.2183C50.2995 58.9559 51.0031 58.3746 51.4241 57.5802C51.7142 57.0314 51.8416 56.4254 51.8082 55.8232C52.7259 55.6183 53.546 55.0393 54.0201 54.1935C55.2881 51.9186 53.4797 50.2822 52.8754 49.7361L52.8396 49.7048C53.3945 48.3407 54.5215 47.734 55.1969 47.4845L55.3455 47.7316C55.7787 48.4496 56.5436 48.8478 57.3272 48.8478C57.7326 48.8478 58.1432 48.7413 58.5153 48.5171L61.4511 46.7473C62.5404 46.0888 62.8928 44.6668 62.2358 43.576L62.2354 43.576ZM23.0777 55.3007C22.8189 55.093 22.657 54.7969 22.6209 54.4674C22.5855 54.138 22.6799 53.8141 22.888 53.5558L23.1082 53.2821C23.1126 53.2761 23.1179 53.2713 23.1219 53.2653L24.7792 51.2045C24.9869 50.9462 25.2827 50.7839 25.6121 50.7485C25.944 50.7144 26.2662 50.8076 26.5238 51.0153L26.6817 51.1423C26.9404 51.35 27.1023 51.6461 27.1385 51.9756C27.1739 52.305 27.0794 52.6289 26.8713 52.8872L24.9801 55.2388C24.8266 55.4297 24.6269 55.5607 24.4103 55.6338C24.3806 55.639 24.3529 55.6495 24.324 55.6579C23.9571 55.7527 23.5521 55.6832 23.2351 55.4281L23.0777 55.3007ZM25.94 58.1658C25.6049 57.8946 25.4068 57.5053 25.3791 57.0922C25.7351 56.9082 26.0605 56.653 26.3277 56.3216L28.219 53.9699C28.5472 53.5621 28.7445 53.0836 28.8252 52.5801C29.2994 52.4283 29.8253 52.5134 30.221 52.8313C30.5754 53.1193 30.7867 53.5617 30.7867 54.0145C30.7867 54.125 30.7727 54.2419 30.7474 54.3649C30.6991 54.573 30.6011 54.7691 30.4544 54.9503L28.0578 57.9308C27.9863 58.0184 27.928 58.079 27.8388 58.1473C27.2956 58.6058 26.4968 58.6122 25.94 58.1658H25.94ZM29.7995 60.2953C29.4556 60.0184 29.2671 59.615 29.2507 59.1839C29.3001 59.1301 29.3491 59.0806 29.4001 59.0176L31.7979 56.0355C32.0077 55.7772 32.1684 55.4955 32.2877 55.1926C32.763 55.0327 33.2918 55.1211 33.6967 55.4465C34.0563 55.739 34.2621 56.1673 34.2621 56.6222L34.2625 56.6732C34.2524 56.9962 34.1363 57.306 33.9306 57.5648L31.9137 60.0667C31.8401 60.1591 31.7473 60.2479 31.6449 60.325C31.0932 60.7417 30.3351 60.7304 29.7995 60.2953V60.2953ZM34.4213 62.1134C34.0834 62.1491 33.7551 62.0531 33.4928 61.8422C33.3156 61.6991 33.1898 61.5159 33.1123 61.3126C33.1625 61.2584 33.2159 61.2061 33.2617 61.1491L35.2807 58.6455C35.5881 58.2594 35.7934 57.8191 35.9019 57.3453C36.2498 57.2887 36.6146 57.3751 36.8991 57.6013C37.1988 57.8444 37.3712 58.2052 37.3712 58.5917C37.3712 58.8818 37.2724 59.165 37.0932 59.388L36.296 60.378C36.2687 60.4073 36.2438 60.4387 36.2201 60.4724L35.2763 61.6445C35.0625 61.9097 34.7592 62.0764 34.4213 62.1134L34.4213 62.1134ZM39.5871 61.4058L38.2563 60.6975L38.4391 60.4705C38.7537 60.0783 38.9622 59.6106 39.0502 59.1173L42.4011 60.896C41.7112 61.6763 40.5457 61.9161 39.587 61.4059L39.5871 61.4058ZM52.51 53.3496C52.185 53.9302 51.5245 54.2593 50.8631 54.1661C50.6554 54.1383 50.4734 54.0781 50.2978 53.978L43.1191 49.9694C42.7032 49.738 42.1765 49.8858 41.9434 50.3025C41.7104 50.7191 41.8594 51.2455 42.2765 51.4781L49.448 55.4828C49.6441 55.5949 49.849 55.6804 50.0615 55.7479C50.1174 56.0955 50.0635 56.4539 49.896 56.7721C49.6919 57.157 49.3508 57.4387 48.9357 57.5656C48.5223 57.6922 48.0835 57.6504 47.6983 57.4443L40.4331 53.5979C40.0137 53.3757 39.4885 53.5353 39.2655 53.9571C39.0421 54.379 39.2032 54.9017 39.6243 55.1251L46.2 58.6062C46.2056 58.8412 46.1558 59.0751 46.0413 59.2864C45.678 59.969 44.8287 60.2286 44.1441 59.8654L44.0545 59.8176C44.0528 59.8167 44.0512 59.8151 44.0496 59.8143C44.0472 59.8131 44.0448 59.8127 44.0428 59.8115L38.5817 56.9126C38.4166 56.6691 38.2177 56.4453 37.9814 56.2541C37.3607 55.7599 36.5865 55.5465 35.8282 55.6164C35.6366 55.0322 35.2806 54.5063 34.7844 54.1029C34.1066 53.5577 33.2717 53.323 32.4533 53.4022C32.3107 52.6569 31.9137 51.9799 31.3069 51.4869C30.5267 50.8613 29.5242 50.652 28.5869 50.8593C28.3972 50.4519 28.1268 50.0851 27.7668 49.7953L27.6089 49.6684C26.9906 49.171 26.2172 48.9439 25.4276 49.0303C24.6389 49.1159 23.931 49.5032 23.434 50.1216L22.4998 51.2831L20.4355 47.99C20.3664 47.88 20.2735 47.7863 20.1627 47.7172L17.31 45.9273L23.418 35.7951H25.4225C25.5056 35.7951 25.5888 35.783 25.6688 35.7593L27.7556 35.1385C28.0891 35.0401 28.425 34.9662 28.7621 34.9055C28.0734 35.5046 27.4692 36.2077 26.9689 37.0012L24.9214 40.2492C24.2464 41.3196 24.559 42.754 25.6177 43.4462C27.3052 44.5496 29.4584 44.5113 31.1061 43.349L35.4614 40.2753L45.0014 45.1217L51.7257 51.0259C53.0022 52.1809 52.8247 52.7849 52.51 53.3494L52.51 53.3496ZM51.4859 48.5166L46.0581 43.751C46.0043 43.7032 45.944 43.6622 45.8797 43.6297L35.8126 38.5153C35.5269 38.3538 35.1661 38.3675 34.8897 38.5619L30.1081 41.9366C29.0449 42.6867 27.6532 42.7124 26.5627 41.9996C26.2875 41.82 26.2067 41.448 26.3815 41.1703L28.4289 37.9223C29.3848 36.4056 30.8071 35.2927 32.4854 34.7314C32.4874 34.731 32.489 34.7302 32.4907 34.7298C32.7293 34.6502 32.9728 34.5815 33.2215 34.5249L35.2863 34.052C36.3169 33.8153 37.3843 33.888 38.3747 34.2605L44.4465 36.5467C45.3646 36.8922 46.3968 36.846 47.2803 36.4205L48.2458 35.9549L54.2935 45.9879C53.4132 46.3667 52.234 47.11 51.4858 48.5167L51.4859 48.5166Z" fill="#66509E"/>
<path d="M35.6046 31.0203C35.6621 31.0319 35.7256 31.0376 35.783 31.0376C35.8405 31.0376 35.904 31.0319 35.9614 31.0203C39.8089 30.2083 43.0522 27.6449 44.8662 23.9986C45.8397 22.0749 46.3524 19.8915 46.3524 17.6858C46.3524 15.2895 46.1507 13.2967 45.7416 11.5976C45.6842 11.3501 45.517 11.1367 45.2864 11.0274C42.66 9.72 39.2789 9 35.7826 9C32.2863 9 28.9053 9.72 26.2788 11.0274C26.0486 11.1367 25.8815 11.35 25.8236 11.5976C25.4146 13.2968 25.2129 15.2896 25.2129 17.6858C25.2129 19.892 25.7256 22.0749 26.6931 23.993C28.514 27.6448 31.7568 30.2078 35.6048 31.0202L35.6046 31.0203ZM34.1931 21.4124L41.1166 14.4889C41.4509 14.149 41.9978 14.149 42.3377 14.4889C42.6719 14.8228 42.6719 15.37 42.3377 15.7099L34.8038 23.2442C34.6366 23.4053 34.4181 23.4977 34.1931 23.4977C33.9628 23.4977 33.7439 23.4057 33.5767 23.2442L30.3801 20.0476C30.0458 19.7077 30.0458 19.1604 30.3801 18.8266C30.72 18.4866 31.2673 18.4866 31.6012 18.8266L34.1931 21.4124Z" fill="#66509E"/>
</svg>
