<svg width="48" height="48" viewBox="0 0 48 48" fill="none" xmlns="http://www.w3.org/2000/svg">
<path d="M36.3674 0.55127H11.7087C10.0956 0.55127 8.78894 1.86376 8.78894 3.48257V44.5207C8.78894 46.1395 10.0956 47.452 11.7087 47.452H36.3674C37.9799 47.452 39.2872 46.1395 39.2872 44.5207V3.48257C39.2872 1.86376 37.9799 0.55127 36.3674 0.55127Z" fill="#EDEAF3"/>
<path d="M38.6367 41.604H5.78894V44.5353H37.9068C38.3105 44.5353 38.6367 44.207 38.6367 43.8025V41.604Z" fill="white"/>
<path d="M38.6367 0.55127H8.70875C7.09555 0.55127 5.78894 1.86376 5.78894 3.48257H37.9068C38.3105 3.48257 38.6367 3.15426 38.6367 2.74974V0.55127Z" fill="white"/>
<path d="M11.6568 1.09924C10.3487 1.09924 9.28444 2.16769 9.28444 3.48092V44.5191C9.28444 45.8323 10.3487 46.9008 11.6568 46.9008H36.3155C37.6235 46.9008 38.6878 45.8323 38.6878 44.5191V3.48092C38.6878 2.16769 37.6235 1.09924 36.3155 1.09924H11.6568ZM36.3155 48H11.6568C9.74504 48 8.18951 46.4384 8.18951 44.5191V3.48092C8.18951 1.56165 9.74504 0 11.6568 0H36.3155C38.2272 0 39.7827 1.56165 39.7827 3.48092V44.5191C39.7827 46.4384 38.2272 48 36.3155 48Z" fill="#674EA0"/>
<path d="M37.7999 6.6001H10.1999C9.53687 6.6001 8.99988 7.2497 8.99988 8.0501V39.9501C8.99988 40.7512 9.53687 41.4001 10.1999 41.4001H37.7999C38.4623 41.4001 38.9999 40.7512 38.9999 39.9501V8.0501C38.9999 7.2497 38.4623 6.6001 37.7999 6.6001Z" fill="#EDEAF3"/>
<path d="M38.9999 6.6001H10.3895C9.62172 6.6001 8.99988 7.25022 8.99988 8.05126V37.8001H38.3051C38.6886 37.8001 38.9999 37.475 38.9999 37.0745V6.6001Z" fill="white"/>
<path d="M10.1969 6.96056C9.69321 6.96056 9.28444 7.37168 9.28444 7.8766V40.1209C9.28444 40.6265 9.69321 41.0369 10.1969 41.0369H37.7754C38.2783 41.0369 38.6878 40.6265 38.6878 40.1209V7.8766C38.6878 7.37168 38.2783 6.96056 37.7754 6.96056H10.1969ZM37.7754 42.1361H10.1969C9.09027 42.1361 8.18951 41.2326 8.18951 40.1209V7.8766C8.18951 6.7649 9.09027 5.86133 10.1969 5.86133H37.7754C38.882 5.86133 39.7827 6.7649 39.7827 7.8766V40.1209C39.7827 41.2326 38.882 42.1361 37.7754 42.1361Z" fill="#674EA0"/>
<path d="M27.6072 4.0299H20.3069C20.0055 4.0299 19.7595 3.78367 19.7595 3.48028C19.7595 3.17689 20.0055 2.93066 20.3069 2.93066H27.6072C27.9094 2.93066 28.1546 3.17689 28.1546 3.48028C28.1546 3.78367 27.9094 4.0299 27.6072 4.0299Z" fill="#674EA0"/>
<path d="M25.4234 45.0831H22.5036C22.2014 45.0831 21.9561 44.8369 21.9561 44.5335C21.9561 44.2301 22.2014 43.9839 22.5036 43.9839H25.4234C25.7256 43.9839 25.9708 44.2301 25.9708 44.5335C25.9708 44.8369 25.7256 45.0831 25.4234 45.0831Z" fill="#674EA0"/>
<path d="M17.4377 45.0831H14.5179C14.2157 45.0831 13.9704 44.8369 13.9704 44.5335C13.9704 44.2301 14.2157 43.9839 14.5179 43.9839H17.4377C17.7399 43.9839 17.9851 44.2301 17.9851 44.5335C17.9851 44.8369 17.7399 45.0831 17.4377 45.0831Z" fill="#674EA0"/>
<path d="M33.4068 45.0831H30.487C30.1848 45.0831 29.9395 44.8369 29.9395 44.5335C29.9395 44.2301 30.1848 43.9839 30.487 43.9839H33.4068C33.709 43.9839 33.9542 44.2301 33.9542 44.5335C33.9542 44.8369 33.709 45.0831 33.4068 45.0831Z" fill="#674EA0"/>
<path d="M31.2002 3.48771C31.2002 3.89222 30.8739 4.22053 30.4702 4.22053C30.0673 4.22053 29.7403 3.89222 29.7403 3.48771C29.7403 3.08319 30.0673 2.75488 30.4702 2.75488C30.8739 2.75488 31.2002 3.08319 31.2002 3.48771Z" fill="#674EA0"/>
<path d="M37.4773 31.9297C36.8992 32.025 36.3065 32.0785 35.7006 32.0785C35.0962 32.0785 34.502 32.025 33.9239 31.9297L33.3312 28.1894C33.0013 28.078 32.6823 27.941 32.3735 27.7878L29.3208 30.0126C28.35 29.3165 27.5003 28.4627 26.8054 27.4917L29.023 24.4263C28.8697 24.1163 28.7332 23.7939 28.6237 23.4634L24.8959 22.8683C24.8003 22.2887 24.7499 21.69 24.7499 21.0847C24.7499 20.4764 24.8003 19.8814 24.8959 19.3024L28.6237 18.7059C28.7332 18.3747 28.8697 18.053 29.0216 17.7444L26.8054 14.6761C27.5003 13.7073 28.35 12.8536 29.3208 12.1559L32.3735 14.3822C32.6823 14.2261 33.0013 14.0906 33.3312 13.9814L33.9239 10.241C34.502 10.1443 35.0962 10.0938 35.7006 10.0938C36.3065 10.0938 36.8992 10.1443 37.4773 10.241L38.07 13.9814C38.4007 14.0906 38.7204 14.2261 39.0263 14.3822L42.0826 12.1559C43.0505 12.8536 43.9009 13.7073 44.5965 14.6761L42.3775 17.7444C42.5359 18.053 42.6673 18.3747 42.7782 18.7059L46.5046 19.3024C46.6003 19.8814 46.6484 20.4764 46.6484 21.0847C46.6484 21.69 46.6003 22.2887 46.5046 22.8683L42.7782 23.4634C42.6673 23.7939 42.5337 24.1163 42.3775 24.4263L44.5965 27.4917C43.9009 28.4627 43.0505 29.3165 42.0826 30.0126L39.0263 27.7878C38.7204 27.941 38.4007 28.078 38.07 28.1894L37.4773 31.9297Z" fill="#FFBAC3"/>
<path d="M37.9566 31.9176C37.3785 32.0128 36.7857 32.0663 36.1799 32.0663C35.5755 32.0663 34.9813 32.0128 34.4032 31.9176L33.8105 28.1772C33.7148 28.1443 33.6272 28.0974 33.5331 28.0607C38.5697 27.4774 42.5619 23.4674 43.1392 18.4102C43.1757 18.5062 43.2246 18.5963 43.2575 18.6938L46.9839 19.2903C47.0795 19.8692 47.1277 20.4643 47.1277 21.0725C47.1277 21.6778 47.0795 22.2765 46.9839 22.8562L43.2575 23.4513C43.1465 23.7818 43.013 24.1042 42.8567 24.4142L45.0758 27.4796C44.3802 28.4506 43.5298 29.3043 42.5618 30.0005L39.5055 27.7756C39.1997 27.9288 38.88 28.0658 38.5493 28.1772L37.9566 31.9176Z" fill="#DE7885"/>
<path d="M34.9499 31.4431C35.8295 31.5544 36.6697 31.5544 37.5486 31.4431L38.0778 28.1014C38.1099 27.8991 38.2515 27.7313 38.4449 27.6661C38.7311 27.5708 39.0289 27.4455 39.3311 27.2945C39.5136 27.2029 39.7318 27.2205 39.8968 27.3407L42.6268 29.3289C43.3144 28.7939 43.9305 28.1761 44.4648 27.4851L42.483 24.7472C42.3626 24.5816 42.3451 24.361 42.4378 24.1771C42.5823 23.8898 42.7064 23.5901 42.8071 23.2875C42.8721 23.0933 43.0392 22.9511 43.2407 22.9196L46.5693 22.3868C46.6226 21.9603 46.6496 21.5228 46.6496 21.0831C46.6496 20.6434 46.6226 20.2067 46.5693 19.7802L43.24 19.2467C43.0392 19.2151 42.8721 19.0722 42.8071 18.8781C42.7027 18.5644 42.5794 18.2661 42.4392 17.9935C42.3451 17.8096 42.3618 17.5875 42.483 17.4197L44.4648 14.6797C43.9291 13.9894 43.3137 13.3716 42.6268 12.8359L39.8968 14.8248C39.7311 14.9457 39.5114 14.964 39.3274 14.8702C39.0398 14.7237 38.7435 14.5991 38.4478 14.5024C38.253 14.4379 38.1099 14.2693 38.0778 14.0663L37.5486 10.7246C36.6872 10.6147 35.8127 10.6147 34.9507 10.7246L34.4207 14.0663C34.3886 14.2693 34.2455 14.4379 34.0514 14.5024C33.7579 14.5991 33.4608 14.7229 33.1681 14.8717C32.9849 14.9633 32.7666 14.9457 32.6002 14.8248L29.8731 12.8359C29.187 13.3701 28.5701 13.9879 28.0344 14.6797L30.014 17.4197C30.133 17.5853 30.1512 17.803 30.0614 17.9862C29.9082 18.2977 29.7877 18.5901 29.6921 18.8773C29.6279 19.0722 29.4607 19.2151 29.2592 19.2467L25.9277 19.7802C25.873 20.2133 25.846 20.6493 25.846 21.0831C25.846 21.5169 25.873 21.9544 25.9285 22.3868L29.2585 22.9196C29.4607 22.9511 29.6279 23.094 29.6921 23.2889C29.7877 23.5762 29.9125 23.8774 30.0622 24.1808C30.1527 24.364 30.1344 24.5824 30.0147 24.7472L28.0344 27.4851C28.5694 28.1769 29.1855 28.7954 29.8731 29.3289L32.6002 27.3407C32.7659 27.2205 32.9834 27.2037 33.1652 27.2938C33.4762 27.4484 33.7667 27.5701 34.0535 27.6661C34.247 27.7313 34.3886 27.8991 34.4207 28.1014L34.9499 31.4431ZM38.0259 31.9282H38.0332H38.0259ZM36.2492 32.6266C35.6419 32.6266 35.0142 32.5738 34.3842 32.4705C34.1514 32.4316 33.9689 32.2484 33.9324 32.0139L33.39 28.5946C33.255 28.5418 33.1192 28.4846 32.9812 28.4224L30.1914 30.4552C30.0001 30.5944 29.7424 30.5959 29.5512 30.4581C28.5322 29.7268 27.6431 28.8364 26.9095 27.8104C26.7723 27.6184 26.773 27.359 26.9117 27.167L28.938 24.3654C28.8767 24.2269 28.8198 24.0906 28.7672 23.9536L25.3584 23.4091C25.1262 23.3717 24.943 23.19 24.9043 22.9569C24.8029 22.3377 24.751 21.7075 24.751 21.0831C24.751 20.4595 24.8029 19.8285 24.9043 19.2108C24.943 18.9777 25.1262 18.7952 25.3584 18.7579L28.7665 18.2126C28.8183 18.0778 28.8753 17.9415 28.9373 17.803L26.9117 14.997C26.773 14.8057 26.7723 14.5456 26.9102 14.3536C27.6453 13.3284 28.5336 12.438 29.5512 11.7066C29.7424 11.5696 30.0008 11.5711 30.1914 11.7096L32.9805 13.7432C33.1163 13.6816 33.2535 13.6244 33.39 13.5717L33.9324 10.1538C33.9689 9.92074 34.1506 9.73753 34.3828 9.69796C35.6142 9.4913 36.8865 9.4913 38.1165 9.69796C38.3486 9.73753 38.5296 9.92074 38.5668 10.1538L39.1085 13.5717C39.2457 13.6244 39.3822 13.6816 39.5172 13.7432L42.31 11.7096C42.4998 11.5703 42.7582 11.5696 42.9502 11.7074C43.9677 12.4402 44.8554 13.3306 45.589 14.3536C45.7277 14.5456 45.7269 14.8057 45.5882 14.997L43.5612 17.8001C43.6217 17.9342 43.6794 18.0719 43.7327 18.2126L47.1394 18.7579C47.3722 18.7952 47.5547 18.9777 47.5934 19.2108C47.6934 19.819 47.7445 20.4485 47.7445 21.0831C47.7445 21.717 47.6934 22.3487 47.5934 22.9569C47.5554 23.19 47.3722 23.3717 47.1394 23.4091L43.732 23.9536C43.6794 24.0928 43.6217 24.2306 43.5604 24.3669L45.5882 27.167C45.7269 27.359 45.7277 27.6184 45.5897 27.8104C44.8568 28.8335 43.9692 29.7246 42.9502 30.4581C42.7582 30.5944 42.5005 30.5944 42.31 30.4552L39.5165 28.4224C39.3793 28.4846 39.2435 28.5418 39.1085 28.5946L38.5668 32.0139C38.5296 32.2484 38.3471 32.4316 38.1143 32.4705C37.485 32.5738 36.8573 32.6266 36.2492 32.6266Z" fill="#674EA0"/>
<path d="M36.2996 24.0636C37.9377 24.0636 39.2647 22.7298 39.2647 21.0861C39.2647 19.4416 37.9377 18.1094 36.2996 18.1094C34.6616 18.1094 33.3339 19.4416 33.3339 21.0861C33.3339 22.7298 34.6616 24.0636 36.2996 24.0636Z" fill="#EDEAF3"/>
<path d="M36.2483 18.6573C34.9147 18.6573 33.83 19.7456 33.83 21.0845C33.83 22.4226 34.9147 23.5123 36.2483 23.5123C37.5819 23.5123 38.6659 22.4226 38.6659 21.0845C38.6659 19.7456 37.5819 18.6573 36.2483 18.6573ZM36.2483 24.6115C34.311 24.6115 32.735 23.0286 32.735 21.0845C32.735 19.1395 34.311 17.5581 36.2483 17.5581C38.1856 17.5581 39.7608 19.1395 39.7608 21.0845C39.7608 23.0286 38.1856 24.6115 36.2483 24.6115Z" fill="#674EA0"/>
<path d="M14.1243 37.7918C13.5462 37.8871 12.9535 37.9398 12.3476 37.9398C11.7432 37.9398 11.1491 37.8871 10.5709 37.7918L9.97821 34.0507C9.64828 33.9408 9.32856 33.8038 9.02052 33.6491L5.96786 35.8747C4.9963 35.1778 4.14737 34.3241 3.45245 33.3538L5.67004 30.2884C5.51675 29.9784 5.38025 29.6552 5.27076 29.3255L1.5429 28.7304C1.44727 28.15 1.39618 27.5528 1.39618 26.9467V26.946C1.39618 26.3392 1.44727 25.7434 1.5429 25.1638L5.27076 24.568C5.38025 24.2367 5.51675 23.915 5.66858 23.6058L3.45245 20.5382C4.14737 19.5694 4.9963 18.7156 5.96786 18.018L9.02052 20.2436C9.32856 20.0875 9.64828 19.9526 9.97821 19.8442L10.5709 16.1031C11.1491 16.0064 11.7432 15.9551 12.3476 15.9551C12.9535 15.9551 13.5462 16.0064 14.1243 16.1031L14.7171 19.8442C15.0477 19.9526 15.3667 20.0875 15.6733 20.2436L18.7296 18.018C19.6975 18.7156 20.5472 19.5694 21.2428 20.5382L19.0245 23.6058C19.1829 23.915 19.3143 24.2367 19.4252 24.568L23.1516 25.1638C23.2465 25.7434 23.2947 26.3392 23.2947 26.946V26.9467C23.2947 27.5528 23.2465 28.15 23.1516 28.7304L19.4252 29.3255C19.3143 29.6552 19.18 29.9784 19.0245 30.2884L21.2428 33.3538C20.5472 34.3241 19.6975 35.1778 18.7296 35.8747L15.6733 33.6491C15.3667 33.8038 15.0477 33.9408 14.7171 34.0507L14.1243 37.7918Z" fill="#FFBAC3"/>
<path d="M14.0046 37.7796C13.4265 37.8749 12.8338 37.9277 12.2279 37.9277C11.6235 37.9277 11.0293 37.8749 10.4512 37.7796L9.8585 34.0386C9.76287 34.0071 9.67455 33.9587 9.58112 33.9228C14.6178 33.3395 18.6099 29.3302 19.1865 24.2715C19.2238 24.3675 19.2727 24.4576 19.3055 24.5558L23.0319 25.1516C23.1268 25.7313 23.175 26.3271 23.175 26.9338C23.175 27.5399 23.1268 28.1379 23.0319 28.7183L19.3055 29.3133C19.1946 29.6431 19.0603 29.9663 18.9048 30.2762L21.1231 33.3417C20.4275 34.3119 19.5778 35.1656 18.6099 35.8626L15.5536 33.637C15.247 33.7916 14.928 33.9286 14.5966 34.0386L14.0046 37.7796Z" fill="#DE7885"/>
<path d="M10.3968 37.3031C11.2764 37.416 12.1173 37.416 12.9954 37.3031L13.5247 33.9622C13.5568 33.7592 13.6984 33.5914 13.8926 33.5269C14.1787 33.4316 14.4765 33.3055 14.7773 33.1553C14.9597 33.0644 15.178 33.0813 15.3437 33.2015L18.0737 35.1889C18.7613 34.6547 19.3767 34.0369 19.9117 33.3459L17.9299 30.608C17.8095 30.4417 17.792 30.2211 17.8839 30.0379C18.0285 29.7499 18.1533 29.4509 18.2547 29.1475C18.3197 28.954 18.4861 28.8126 18.6876 28.7796L22.0162 28.2483C22.0695 27.8204 22.0965 27.3843 22.0965 26.9439C22.0965 26.5035 22.0695 26.0674 22.0162 25.6409L18.6869 25.1082C18.4861 25.0752 18.319 24.9338 18.254 24.7396C18.1489 24.423 18.0248 24.1247 17.8861 23.8543C17.792 23.6696 17.8087 23.4483 17.9299 23.2805L19.9117 20.5397C19.3767 19.8494 18.7606 19.2331 18.0737 18.6967L15.3437 20.6856C15.1765 20.8072 14.9576 20.8241 14.7743 20.731C14.4889 20.5852 14.1933 20.4613 13.894 20.3624C13.6991 20.2979 13.5568 20.1301 13.5247 19.9271L12.9954 16.5847C12.1334 16.4755 11.2611 16.4748 10.3968 16.5847L9.8676 19.9271C9.83549 20.1301 9.69314 20.2979 9.49825 20.3624C9.20115 20.4606 8.90479 20.5852 8.61573 20.7317C8.43179 20.8241 8.2128 20.8065 8.0471 20.6856L5.32 18.6967C4.63385 19.2302 4.01777 19.848 3.48126 20.5405L5.46016 23.2805C5.57914 23.4454 5.59812 23.6638 5.50833 23.8463C5.35431 24.1592 5.23387 24.4516 5.13898 24.7374C5.07474 24.933 4.90759 25.0752 4.70539 25.1082L1.37462 25.6409C1.31987 26.0718 1.29286 26.5079 1.29286 26.9432C1.29286 27.3792 1.31987 27.8167 1.37462 28.2476L4.70539 28.7796C4.90759 28.8126 5.07474 28.954 5.13898 29.149C5.23387 29.4362 5.35869 29.736 5.50906 30.0408C5.59958 30.224 5.58133 30.4424 5.46162 30.608L3.48126 33.3459C4.01704 34.0384 4.63312 34.6561 5.32 35.1889L8.0471 33.2015C8.2128 33.082 8.43033 33.0637 8.61282 33.1546C8.92231 33.3085 9.21211 33.4309 9.50044 33.5269C9.69388 33.5914 9.83549 33.7592 9.8676 33.9622L10.3968 37.3031ZM13.4728 37.7882H13.4801H13.4728ZM11.6961 38.4866C11.0873 38.4866 10.4603 38.4346 9.8311 38.3305C9.59752 38.2924 9.41576 38.1085 9.37854 37.8747L8.83691 34.4546C8.70187 34.4033 8.5661 34.3462 8.42741 34.2831L5.63754 36.316C5.44775 36.4552 5.19008 36.456 4.99883 36.3182C3.97982 35.589 3.09146 34.6979 2.3564 33.672C2.21844 33.4785 2.21917 33.2198 2.35786 33.0278L4.38494 30.2255C4.32289 30.0877 4.26596 29.9507 4.2134 29.8144L0.805257 29.2706C0.573133 29.2332 0.389914 29.05 0.351226 28.817C0.249763 28.2014 0.197937 27.5712 0.197937 26.9439C0.197937 26.3181 0.249763 25.6871 0.351226 25.0708C0.389914 24.8378 0.573133 24.656 0.805257 24.6186L4.2134 24.0734C4.26523 23.9386 4.32143 23.8015 4.38421 23.663L2.35786 20.8571C2.21917 20.6658 2.21844 20.4064 2.35713 20.2136C3.09292 19.1884 3.98127 18.298 4.99809 17.5674C5.18934 17.4304 5.44775 17.4311 5.63827 17.5696L8.42668 19.6032C8.56245 19.5416 8.69968 19.4845 8.83691 19.4317L9.37854 16.0138C9.41576 15.7808 9.59679 15.5976 9.82964 15.5587C11.0633 15.3528 12.3305 15.3528 13.5626 15.5587C13.7955 15.5976 13.9765 15.7808 14.0137 16.0138L14.5553 19.4317C14.6926 19.4845 14.8298 19.5416 14.9649 19.6032L17.7569 17.5696C17.9474 17.4311 18.2051 17.4296 18.3971 17.5681C19.4146 18.3017 20.3015 19.1914 21.0359 20.2136C21.1745 20.4064 21.1738 20.6658 21.0351 20.8571L19.0081 23.6608C19.0686 23.7942 19.1248 23.932 19.1796 24.0734L22.5863 24.6186C22.8191 24.656 23.0023 24.8378 23.0403 25.0708C23.1403 25.679 23.1914 26.3093 23.1914 26.9432C23.1914 27.5785 23.1403 28.2088 23.0403 28.817C23.0023 29.05 22.8191 29.2332 22.5863 29.2706L19.1789 29.8144C19.1248 29.9536 19.0686 30.0906 19.0073 30.227L21.0351 33.0278C21.1738 33.2198 21.1746 33.4792 21.0366 33.672C20.3037 34.695 19.4154 35.5854 18.3971 36.3182C18.2051 36.4552 17.9474 36.4552 17.7569 36.316L14.9634 34.2831C14.8269 34.3454 14.6904 34.4026 14.5553 34.4546L14.0137 37.8747C13.9765 38.1085 13.7947 38.2924 13.5619 38.3305C12.9327 38.4346 12.3049 38.4866 11.6961 38.4866Z" fill="#674EA0"/>
<path d="M11.7464 29.9249C13.3844 29.9249 14.7122 28.5919 14.7122 26.9474C14.7122 25.3037 13.3844 23.9707 11.7464 23.9707C10.1091 23.9707 8.78131 25.3037 8.78131 26.9474C8.78131 28.5919 10.1091 29.9249 11.7464 29.9249Z" fill="#EDEAF3"/>
<path d="M11.6946 24.5187C10.361 24.5187 9.27626 25.6076 9.27626 26.9458C9.27626 28.2847 10.361 29.3736 11.6946 29.3736C13.0282 29.3736 14.1122 28.2847 14.1122 26.9458C14.1122 25.6076 13.0282 24.5187 11.6946 24.5187ZM11.6946 30.4729C9.7573 30.4729 8.18134 28.8907 8.18134 26.9458C8.18134 25.0016 9.7573 23.4194 11.6946 23.4194C13.6319 23.4194 15.2071 25.0016 15.2071 26.9458C15.2071 28.8907 13.6319 30.4729 11.6946 30.4729Z" fill="#674EA0"/>
<path d="M0.54734 11.9327C0.245141 11.9327 -0.00012207 11.6865 -0.00012207 11.3831V3.48028C-0.00012207 3.17689 0.245141 2.93066 0.54734 2.93066C0.84954 2.93066 1.0948 3.17689 1.0948 3.48028V11.3831C1.0948 11.6865 0.84954 11.9327 0.54734 11.9327Z" fill="#674EA0"/>
<path d="M0.54734 16.4988C0.245141 16.4988 -0.00012207 16.2526 -0.00012207 15.9492V14.326C-0.00012207 14.0226 0.245141 13.7764 0.54734 13.7764C0.84954 13.7764 1.0948 14.0226 1.0948 14.326V15.9492C1.0948 16.2526 0.84954 16.4988 0.54734 16.4988Z" fill="#674EA0"/>
<path d="M47.4528 45.0722C47.1506 45.0722 46.9053 44.826 46.9053 44.5226V33.6878C46.9053 33.3844 47.1506 33.1382 47.4528 33.1382C47.755 33.1382 48.0003 33.3844 48.0003 33.6878V44.5226C48.0003 44.826 47.755 45.0722 47.4528 45.0722Z" fill="#674EA0"/>
<path d="M47.4528 31.3013C47.1506 31.3013 46.9053 31.0551 46.9053 30.7517V29.1292C46.9053 28.8258 47.1506 28.5796 47.4528 28.5796C47.755 28.5796 48.0003 28.8258 48.0003 29.1292V30.7517C48.0003 31.0551 47.755 31.3013 47.4528 31.3013Z" fill="#674EA0"/>
</svg>
