<svg width="66" height="32" viewBox="0 0 66 32" fill="none" xmlns="http://www.w3.org/2000/svg">
<path d="M43.4519 5.00171L40.8147 1.60446C40.1698 0.77364 38.8297 0.0933316 37.7417 0.0149657C37.6891 0.0113377 37.641 0 37.5866 0H27.0567C25.9393 0 24.4985 0.747831 23.8554 1.66159L21.4868 5.02703C20.8433 5.94084 20.8764 7.41202 21.5598 8.29587L31.1805 20.7415C31.5233 21.1846 31.975 21.4059 32.4281 21.4059C32.8784 21.4059 33.3296 21.1864 33.6725 20.7465L43.4483 8.20914C44.1358 7.32799 44.1371 5.88487 43.4519 5.00195L43.4519 5.00171ZM41.334 5.58719H37.8715L38.8307 2.51966C38.9881 2.62623 39.1232 2.7396 39.2098 2.85072L41.334 5.58719ZM32.6403 3.66345L33.8724 5.58719H31.3069L32.6403 3.66345ZM35.1074 7.61889L32.5972 15.6473L29.9981 7.61889H35.1074ZM27.8626 7.61889L30.9311 17.0968L23.6043 7.61889H27.8626ZM37.2366 7.61889H41.3322L34.4946 16.3883L37.2366 7.61889ZM36.8547 2.0317L35.9205 5.01807L34.008 2.0317H36.8547ZM31.2984 2.0317L29.1792 5.09064L28.1896 2.0317H31.2984ZM25.5166 2.83123C25.6382 2.65844 25.8808 2.47568 26.1502 2.32784L27.205 5.58716H23.577L25.5166 2.83123Z" fill="#66509E"/>
<path d="M11.8383 23.9012L8.56575 23.4237L7.10234 20.4446C6.89463 20.0215 6.62163 19.8102 6.34952 19.8102C6.07695 19.8102 5.8044 20.0215 5.59715 20.4446L4.13327 23.4237L0.860365 23.9012C-0.0697737 24.0368 -0.27839 24.6808 0.395069 25.3393L2.76369 27.6582L2.20452 30.9325C2.08933 31.6055 2.34284 32 2.80768 32C2.985 32 3.19271 31.9429 3.42219 31.8213L6.34959 30.2758L9.27652 31.8213C9.50645 31.9429 9.7137 32 9.89057 32C10.3554 32 10.6094 31.6055 10.4942 30.9325L9.93502 27.6582L12.3032 25.3393C12.9766 24.6813 12.7685 24.0368 11.8383 23.9012H11.8383Z" fill="#66509E"/>
<path d="M23.5204 14.7573L20.2479 14.2798L18.7845 11.3007C18.5768 10.8776 18.3038 10.6663 18.0316 10.6663C17.7591 10.6663 17.4865 10.8776 17.2793 11.3007L15.8154 14.2798L12.5425 14.7573C11.6124 14.8929 11.4037 15.5369 12.0772 16.1959L14.4458 18.5142L13.8866 21.7885C13.7715 22.462 14.025 22.8565 14.4898 22.8565C14.6671 22.8565 14.8748 22.7994 15.1043 22.6779L18.0317 21.1319L20.9587 22.6779C21.1886 22.7994 21.3958 22.8565 21.5727 22.8565C22.0375 22.8565 22.2915 22.462 22.1763 21.7885L21.6171 18.5142L23.9853 16.1959C24.6588 15.5374 24.4506 14.8929 23.5205 14.7573H23.5204Z" fill="#66509E"/>
<path d="M64.1531 23.9012L60.8802 23.4237L59.4168 20.4446C59.2096 20.0215 58.9366 19.8102 58.6644 19.8102C58.3923 19.8102 58.1193 20.0215 57.9116 20.4446L56.4482 23.4237L53.1753 23.9012C52.2452 24.0368 52.0375 24.6808 52.7105 25.3393L55.0786 27.6582L54.5194 30.9325C54.4047 31.6055 54.6587 32 55.1235 32C55.3008 32 55.5081 31.9429 55.7376 31.8213L58.6645 30.2758L61.5919 31.8213C61.8218 31.9429 62.0295 32 62.2064 32C62.6713 32 62.9248 31.6055 62.8091 30.9325L62.2499 27.6582L64.6186 25.3393C65.2925 24.6813 65.0834 24.0368 64.1533 23.9012H64.1531Z" fill="#66509E"/>
<path d="M50.5688 18.5142L52.9374 16.1959C53.6108 15.5369 53.4022 14.8929 52.4721 14.7573L49.1992 14.2798L47.7353 11.3007C47.5281 10.8776 47.255 10.6663 46.9829 10.6663C46.7108 10.6663 46.4378 10.8776 46.2301 11.3007L44.7667 14.2798L41.4942 14.7573C40.564 14.8929 40.3563 15.5369 41.0293 16.1959L43.3975 18.5142L42.8383 21.7885C42.7231 22.462 42.9771 22.8565 43.4419 22.8565C43.6192 22.8565 43.8265 22.7994 44.056 22.6779L46.9829 21.1319L49.9103 22.6779C50.1402 22.7994 50.3479 22.8565 50.5248 22.8565C50.9896 22.8565 51.2432 22.462 51.1275 21.7885L50.5688 18.5142Z" fill="#66509E"/>
</svg>
