<svg width="27" height="18" viewBox="0 0 27 18" fill="none" xmlns="http://www.w3.org/2000/svg">
<g clip-path="url(#clip0_240_1049)">
<path d="M0 0.0175781H26.9474V17.9827H0V0.0175781Z" fill="#F0F0F0"/>
<path d="M0 2.26318H26.9474V4.5086H0V2.26318ZM0 6.7546H26.9474V9.00002H0V6.7546ZM0 11.2454H26.9474V13.4909H0V11.2454ZM0 15.7369H26.9474V17.9823H0V15.7369Z" fill="#D80027"/>
<path d="M0 0.0175781H13.4737V9.69111H0V0.0175781Z" fill="#2E52B2"/>
<path d="M5.25348 3.98045L5.03648 4.64802H4.33458L4.90253 5.06039L4.68553 5.72792L5.25348 5.31555L5.82106 5.72792L5.60411 5.06039L6.17206 4.64802H5.47011L5.25348 3.98045ZM5.47011 7.05707L5.25348 6.38955L5.03648 7.05707H4.33458L4.90253 7.4695L4.68553 8.13702L5.25348 7.7246L5.82106 8.13702L5.60411 7.4695L6.17206 7.05707H5.47011ZM2.50374 7.05707L2.28706 6.38955L2.07006 7.05707H1.36816L1.93611 7.4695L1.71911 8.13702L2.28706 7.7246L2.85469 8.13702L2.63774 7.4695L3.20559 7.05707H2.50374ZM2.28706 3.98045L2.07006 4.64802H1.36816L1.93611 5.06039L1.71911 5.72792L2.28706 5.31555L2.85469 5.72792L2.63774 5.06039L3.20559 4.64802H2.50374L2.28706 3.98045ZM5.25348 1.57129L5.03648 2.23892H4.33458L4.90253 2.65134L4.68553 3.31887L5.25348 2.90645L5.82106 3.31887L5.60411 2.65134L6.17206 2.23892H5.47011L5.25348 1.57129ZM2.28706 1.57129L2.07006 2.23892H1.36816L1.93611 2.65134L1.71911 3.31887L2.28706 2.90645L2.85469 3.31887L2.63774 2.65134L3.20559 2.23892H2.50374L2.28706 1.57129ZM8.21985 3.98045L8.0029 4.64802H7.30101L7.8689 5.06039L7.65201 5.72792L8.21985 5.31555L8.78753 5.72792L8.57053 5.06039L9.13848 4.64802H8.43658L8.21985 3.98045ZM8.43658 7.05707L8.21985 6.38955L8.0029 7.05707H7.30101L7.8689 7.4695L7.65201 8.13702L8.21985 7.7246L8.78753 8.13702L8.57053 7.4695L9.13848 7.05707H8.43658ZM11.403 7.05707L11.1863 6.38955L10.9693 7.05707H10.2675L10.8353 7.4695L10.6184 8.13702L11.1863 7.7246L11.754 8.13702L11.537 7.4695L12.1049 7.05707H11.403ZM11.1863 3.98045L10.9693 4.64802H10.2675L10.8353 5.06039L10.6184 5.72792L11.1863 5.31555L11.754 5.72792L11.537 5.06039L12.1049 4.64802H11.403L11.1863 3.98045ZM8.21985 1.57129L8.0029 2.23892H7.30101L7.8689 2.65134L7.65201 3.31887L8.21985 2.90645L8.78753 3.31887L8.57053 2.65134L9.13848 2.23892H8.43658L8.21985 1.57129ZM11.1863 1.57129L10.9693 2.23892H10.2675L10.8353 2.65134L10.6184 3.31887L11.1863 2.90645L11.754 3.31887L11.537 2.65134L12.1049 2.23892H11.403L11.1863 1.57129Z" fill="#F0F0F0"/>
</g>
<defs>
<clipPath id="clip0_240_1049">
<rect width="26.9474" height="18" rx="2" fill="white"/>
</clipPath>
</defs>
</svg>
