<svg width="16" height="25" viewBox="0 0 16 25" fill="none" xmlns="http://www.w3.org/2000/svg">
<path d="M13.2351 6.3232H11.4431V1.2032C11.4431 0.537646 10.9054 0 10.2399 0H5.50391C4.83835 0 4.30071 0.537691 4.30071 1.2032V6.3232H2.50875C1.12645 6.3232 0 7.44965 0 8.83195V20.352C0 21.7343 1.12645 22.8607 2.50875 22.8607H3.2V23.5775C3.2 23.9872 3.53286 24.3456 3.96805 24.3456H4.94089C5.35053 24.3456 5.70894 24.0127 5.70894 23.5775V22.8607H10.0354V23.5775C10.0354 23.9872 10.3682 24.3456 10.8034 24.3456H11.7763C12.1859 24.3456 12.5443 24.0127 12.5443 23.5775V22.8607H13.2356C14.6179 22.8607 15.7443 21.7343 15.7443 20.352V8.83195C15.744 7.44946 14.6176 6.3232 13.235 6.3232H13.2351ZM5.81106 2.22711H9.98391V6.3232H5.81106V2.22711ZM2.53426 7.80791H13.2351C13.7983 7.80791 14.259 8.26862 14.259 8.83182V11.7502H11.4429V11.2895C11.4429 10.8799 11.11 10.5472 10.7006 10.5472C10.2909 10.5472 9.95826 10.8801 9.95826 11.2895V11.7502L5.81111 11.7504V11.2897C5.81111 10.88 5.47825 10.5474 5.0688 10.5474C4.65916 10.5474 4.32649 10.8802 4.32649 11.2897V11.7504H1.5104L1.51022 8.832C1.51022 8.2688 1.97111 7.8079 2.53431 7.8079L2.53426 7.80791ZM13.2351 21.4015H2.53426C1.97106 21.4015 1.51035 20.9408 1.51035 20.3776L1.51018 13.2352H4.32627V13.6959C4.32627 14.1055 4.65912 14.4382 5.06858 14.4382C5.47822 14.4382 5.81088 14.1054 5.81088 13.6959V13.2352H9.98373V13.6959C9.98373 14.1055 10.3166 14.4382 10.726 14.4382C11.1357 14.4382 11.4683 14.1054 11.4683 13.6959V13.2352H14.2844L14.2846 20.3776C14.2591 20.9408 13.7982 21.4017 13.235 21.4017L13.2351 21.4015Z" fill="white"/>
</svg>
