<svg width="25" height="24" viewBox="0 0 25 24" fill="none" xmlns="http://www.w3.org/2000/svg">
<g clip-path="url(#clip0_170_10288)">
<path fill-rule="evenodd" clip-rule="evenodd" d="M1.7973 20.7838H4.12335C4.64811 20.7838 5.04184 21.2223 5.04054 21.747V21.7671C5.04184 22.2919 4.64811 22.7297 4.12335 22.7297H1.7973C1.25957 22.7297 0.824324 22.2945 0.824324 21.7568C0.824324 21.2197 1.25957 20.7838 1.7973 20.7838ZM2.44595 0H22.5541C23.6282 0 24.5 0.871784 24.5 1.94595V14.9189C24.5 15.9937 23.6282 16.8649 22.5541 16.8649H2.44595C1.37114 16.8649 0.5 15.9937 0.5 14.9189V1.94595C0.5 0.871784 1.37114 0 2.44595 0ZM10.8116 12.3801L16.4334 8.93708C16.8103 8.70616 16.8103 8.15935 16.4334 7.92844L10.8116 4.4854C10.4172 4.2441 9.91124 4.52757 9.91124 4.98941V11.8761C9.91124 12.3379 10.4178 12.6214 10.8116 12.3801ZM13.7409 20.7838H23.2027C23.7398 20.7838 24.1757 21.2197 24.1757 21.7568C24.1757 22.2945 23.7398 22.7297 23.2027 22.7297H13.7409C13.2161 22.7297 12.8224 22.2919 12.8243 21.7671V21.747C12.8224 21.2223 13.2161 20.7838 13.7409 20.7838ZM6.88477 21.7521C6.88477 20.6779 7.7559 19.8062 8.83071 19.8062C9.90487 19.8062 10.7767 20.6779 10.7767 21.7521C10.7767 22.8269 9.90487 23.698 8.83071 23.698C7.7559 23.698 6.88477 22.8269 6.88477 21.7521Z" fill="#F59737"/>
</g>
<defs>
<clipPath id="clip0_170_10288">
<rect width="24" height="24" fill="white" transform="translate(0.5)"/>
</clipPath>
</defs>
</svg>
