<svg width="48" height="48" viewBox="0 0 48 48" fill="none" xmlns="http://www.w3.org/2000/svg">
<path d="M24.0027 2.70618L39.9421 7.98432L45.2073 23.9654L39.9421 39.9457L24.0027 45.2246L8.06398 39.9457L2.79883 23.9654L8.06398 7.98432L24.0027 2.70618Z" fill="white"/>
<path d="M8.44722 39.5093L23.9523 44.6438L39.4568 39.5093L44.5786 23.9644L39.4568 8.41882L23.9523 3.28363L8.44722 8.41882L3.32539 23.9644L8.44722 39.5093ZM23.9523 45.7734L23.7798 45.7456L7.84107 40.4667C7.67583 40.4117 7.54642 40.2827 7.49231 40.117L2.22719 24.136C2.1899 24.0245 2.1899 23.9036 2.22719 23.7907L7.49231 7.8111C7.54642 7.64543 7.67583 7.51567 7.84107 7.46142L23.7798 2.18255C23.8917 2.1459 24.013 2.14516 24.1242 2.18255L40.0629 7.46142C40.2281 7.51567 40.3568 7.64543 40.4109 7.8111L45.6768 23.7907C45.7134 23.9036 45.7134 24.0245 45.6768 24.136L40.4109 40.117C40.3568 40.2827 40.2281 40.4117 40.0629 40.4667L24.1242 45.7449L23.9523 45.7734Z" fill="#674EA0"/>
<path d="M43.8302 24.5271H4.3472C4.0445 24.5271 3.79883 24.2808 3.79883 23.9773C3.79883 23.6738 4.0445 23.4275 4.3472 23.4275H43.8302C44.1329 23.4275 44.3786 23.6738 44.3786 23.9773C44.3786 24.2808 44.1329 24.5271 43.8302 24.5271Z" fill="#674EA0"/>
<path d="M8.14585 40.5025C8.00546 40.5025 7.86508 40.4482 7.75833 40.3412C7.5441 40.1264 7.5441 39.7782 7.75833 39.5634L39.6357 7.60274C39.85 7.38795 40.1973 7.38795 40.4108 7.60274C40.6257 7.81754 40.6257 8.16501 40.4108 8.3798L8.53337 40.3412C8.42662 40.4482 8.28623 40.5025 8.14585 40.5025Z" fill="#674EA0"/>
<path d="M40.024 40.5025C39.8829 40.5025 39.7425 40.4482 39.6357 40.3412L7.75833 8.3798C7.5441 8.16501 7.5441 7.81754 7.75833 7.60274C7.97256 7.38795 8.31913 7.38795 8.53337 7.60274L40.4108 39.5634C40.6257 39.7782 40.6257 40.1264 40.4108 40.3412C40.304 40.4482 40.1644 40.5025 40.024 40.5025Z" fill="#674EA0"/>
<path d="M23.94 44.3188C23.6373 44.3188 23.3916 44.0725 23.3916 43.769V4.18286C23.3916 3.87937 23.6373 3.63306 23.94 3.63306C24.2427 3.63306 24.4884 3.87937 24.4884 4.18286V43.769C24.4884 44.0725 24.2427 44.3188 23.94 44.3188Z" fill="#674EA0"/>
<path d="M37.9799 23.9761C37.9799 31.6675 31.7606 37.9038 24.0885 37.9038C16.4163 37.9038 10.1963 31.6675 10.1963 23.9761C10.1963 16.2832 16.4163 10.0476 24.0885 10.0476C31.7606 10.0476 37.9799 16.2832 37.9799 23.9761Z" fill="#FFBAC3"/>
<path d="M32.7504 13.2047C33.8676 15.2119 34.5111 17.5211 34.5111 19.9827C34.5111 27.6749 28.2918 33.9112 20.6189 33.9112C17.2679 33.9112 14.1949 32.7214 11.7959 30.7406C14.1707 35.0035 18.7105 37.8911 23.9274 37.8911C31.5996 37.8911 37.8189 31.6548 37.8189 23.9633C37.8189 19.6301 35.8455 15.7595 32.7504 13.2047Z" fill="#DE7885"/>
<path d="M24.0372 10.596C16.6788 10.596 10.6934 16.5969 10.6934 23.9746C10.6934 31.3508 16.6788 37.3525 24.0372 37.3525C31.395 37.3525 37.381 31.3508 37.381 23.9746C37.381 16.5969 31.395 10.596 24.0372 10.596ZM24.0372 38.4521C16.0741 38.4521 9.59668 31.9571 9.59668 23.9746C9.59668 15.9907 16.0741 9.49634 24.0372 9.49634C31.9997 9.49634 38.4778 15.9907 38.4778 23.9746C38.4778 31.9571 31.9997 38.4521 24.0372 38.4521Z" fill="#674EA0"/>
<path d="M23.9902 10.6866C19.356 13.525 16.4913 18.6111 16.4913 24.0396C16.4913 29.3602 19.3575 34.3979 23.9931 37.2613C28.6272 34.4221 31.4919 29.336 31.4919 23.9083C31.4919 18.5869 28.6258 13.5507 23.9902 10.6866ZM23.9916 38.4526C23.8951 38.4526 23.7993 38.4269 23.713 38.3763C18.5817 35.3465 15.3945 29.8536 15.3945 24.0396C15.3945 18.1141 18.5824 12.5699 23.7152 9.57011C23.887 9.47114 24.0976 9.47187 24.2702 9.57157C29.4008 12.5999 32.5887 18.0936 32.5887 23.9083C32.5887 29.8331 29.4 35.3766 24.268 38.3771C24.1817 38.4269 24.0874 38.4526 23.9916 38.4526Z" fill="#674EA0"/>
<path d="M23.9669 18.7344C20.11 18.7344 16.4834 17.2287 13.7554 14.4936C13.5412 14.2795 13.5412 13.9313 13.7554 13.7165C13.9696 13.5017 14.3169 13.5017 14.5304 13.7165C17.0522 16.2427 20.4032 17.6348 23.9669 17.6348C27.5306 17.6348 30.8815 16.2427 33.4019 13.7165C33.6161 13.5017 33.9634 13.5017 34.1776 13.7165C34.3919 13.9313 34.3919 14.2795 34.1776 14.4936C31.4497 17.2287 27.8238 18.7344 23.9669 18.7344Z" fill="#674EA0"/>
<path d="M33.7894 34.369C33.649 34.369 33.5094 34.3162 33.4019 34.2092C30.8815 31.6815 27.5306 30.2902 23.9662 30.2902C20.4024 30.2902 17.0515 31.6815 14.5304 34.2092C14.3169 34.424 13.9696 34.424 13.7554 34.2092C13.5412 33.9944 13.5412 33.6462 13.7554 33.4314C16.4827 30.697 20.1085 29.1906 23.9662 29.1906C27.8231 29.1906 31.4497 30.697 34.1776 33.4314C34.3919 33.6462 34.3919 33.9944 34.1776 34.2092C34.0702 34.3162 33.9305 34.369 33.7894 34.369Z" fill="#674EA0"/>
<path d="M37.9287 24.5271H10.1451C9.84235 24.5271 9.59668 24.2808 9.59668 23.9773C9.59668 23.6738 9.84235 23.4275 10.1451 23.4275H37.9287C38.2314 23.4275 38.4771 23.6738 38.4771 23.9773C38.4771 24.2808 38.2314 24.5271 37.9287 24.5271Z" fill="#674EA0"/>
<path d="M23.94 38.4528C23.6373 38.4528 23.3916 38.2065 23.3916 37.903V10.0461C23.3916 9.74265 23.6373 9.49634 23.94 9.49634C24.2427 9.49634 24.4884 9.74265 24.4884 10.0461V37.903C24.4884 38.2065 24.2427 38.4528 23.94 38.4528Z" fill="#674EA0"/>
<path d="M42.5049 7.97812C42.5049 9.39516 41.3584 10.5439 39.9458 10.5439C38.5325 10.5439 37.3867 9.39516 37.3867 7.97812C37.3867 6.56108 38.5325 5.41235 39.9458 5.41235C41.3584 5.41235 42.5049 6.56108 42.5049 7.97812Z" fill="white"/>
<path d="M40.8874 5.58752C40.9985 5.87416 41.0658 6.18352 41.0658 6.509C41.0658 7.92604 39.9193 9.07477 38.5067 9.07477C38.1806 9.07477 37.8728 9.00806 37.5869 8.89663C37.9569 9.85696 38.8803 10.5409 39.9691 10.5409C41.3817 10.5409 42.5282 9.39219 42.5282 7.97515C42.5282 6.88434 41.846 5.95846 40.8874 5.58752Z" fill="#EDEAF3"/>
<path d="M39.8946 5.96057C38.7847 5.96057 37.8839 6.86446 37.8839 7.97653C37.8839 9.08861 38.7847 9.99249 39.8946 9.99249C41.003 9.99249 41.9053 9.08861 41.9053 7.97653C41.9053 6.86446 41.003 5.96057 39.8946 5.96057ZM39.8946 11.0921C38.1807 11.0921 36.7871 9.69413 36.7871 7.97653C36.7871 6.25894 38.1807 4.86096 39.8946 4.86096C41.6077 4.86096 43.002 6.25894 43.002 7.97653C43.002 9.69413 41.6077 11.0921 39.8946 11.0921Z" fill="#674EA0"/>
<path d="M10.5156 7.97812C10.5156 9.39516 9.36989 10.5439 7.95655 10.5439C6.5432 10.5439 5.39746 9.39516 5.39746 7.97812C5.39746 6.56108 6.5432 5.41235 7.95655 5.41235C9.36989 5.41235 10.5156 6.56108 10.5156 7.97812Z" fill="white"/>
<path d="M8.89961 5.58752C9.00928 5.87416 9.07655 6.18352 9.07655 6.509C9.07655 7.92604 7.93081 9.07477 6.51746 9.07477C6.19282 9.07477 5.88427 9.00806 5.59766 8.89663C5.96836 9.85696 6.89182 10.5409 7.9798 10.5409C9.39315 10.5409 10.5389 9.39219 10.5389 7.97515C10.5389 6.88434 9.85671 5.95846 8.89961 5.58752Z" fill="#EDEAF3"/>
<path d="M8.10551 5.96057C6.99633 5.96057 6.0948 6.86446 6.0948 7.97653C6.0948 9.08861 6.99633 9.99249 8.10551 9.99249C9.21469 9.99249 10.1162 9.08861 10.1162 7.97653C10.1162 6.86446 9.21469 5.96057 8.10551 5.96057ZM8.10551 11.0921C6.39165 11.0921 4.99805 9.69413 4.99805 7.97653C4.99805 6.25894 6.39165 4.86096 8.10551 4.86096C9.81937 4.86096 11.213 6.25894 11.213 7.97653C11.213 9.69413 9.81937 11.0921 8.10551 11.0921Z" fill="#674EA0"/>
<path d="M42.5049 39.9998C42.5049 41.4162 41.3584 42.5656 39.9458 42.5656C38.5325 42.5656 37.3867 41.4162 37.3867 39.9998C37.3867 38.5828 38.5325 37.4341 39.9458 37.4341C41.3584 37.4341 42.5049 38.5828 42.5049 39.9998Z" fill="white"/>
<path d="M40.8874 37.6096C40.9985 37.8963 41.0658 38.2049 41.0658 38.5311C41.0658 39.9481 39.9193 41.0969 38.5067 41.0969C38.1806 41.0969 37.8728 41.0302 37.5869 40.9187C37.9569 41.8798 38.8803 42.5638 39.9691 42.5638C41.3817 42.5638 42.5282 41.4143 42.5282 39.998C42.5282 38.9057 41.846 37.9806 40.8874 37.6096Z" fill="#EDEAF3"/>
<path d="M39.8946 37.9827C38.7847 37.9827 37.8839 38.8873 37.8839 39.9986C37.8839 41.1107 38.7847 42.0146 39.8946 42.0146C41.003 42.0146 41.9053 41.1107 41.9053 39.9986C41.9053 38.8873 41.003 37.9827 39.8946 37.9827ZM39.8946 43.1142C38.1807 43.1142 36.7871 41.7162 36.7871 39.9986C36.7871 38.281 38.1807 36.8831 39.8946 36.8831C41.6077 36.8831 43.002 38.281 43.002 39.9986C43.002 41.7162 41.6077 43.1142 39.8946 43.1142Z" fill="#674EA0"/>
<path d="M10.5156 39.9998C10.5156 41.4162 9.36989 42.5656 7.95655 42.5656C6.5432 42.5656 5.39746 41.4162 5.39746 39.9998C5.39746 38.5828 6.5432 37.4341 7.95655 37.4341C9.36989 37.4341 10.5156 38.5828 10.5156 39.9998Z" fill="white"/>
<path d="M8.89961 37.6096C9.00928 37.8963 9.07655 38.2049 9.07655 38.5311C9.07655 39.9481 7.93081 41.0969 6.51746 41.0969C6.19282 41.0969 5.88427 41.0302 5.59766 40.9187C5.96836 41.8798 6.89182 42.5638 7.9798 42.5638C9.39315 42.5638 10.5389 41.4143 10.5389 39.998C10.5389 38.9057 9.85671 37.9806 8.89961 37.6096Z" fill="#EDEAF3"/>
<path d="M8.10551 37.9827C6.99633 37.9827 6.0948 38.8873 6.0948 39.9986C6.0948 41.1107 6.99633 42.0146 8.10551 42.0146C9.21469 42.0146 10.1162 41.1107 10.1162 39.9986C10.1162 38.8873 9.21469 37.9827 8.10551 37.9827ZM8.10551 43.1142C6.39165 43.1142 4.99805 41.7162 4.99805 39.9986C4.99805 38.281 6.39165 36.8831 8.10551 36.8831C9.81937 36.8831 11.213 38.281 11.213 39.9986C11.213 41.7162 9.81937 43.1142 8.10551 43.1142Z" fill="#674EA0"/>
<path d="M26.5108 3.11716C26.5108 4.53346 25.365 5.68292 23.9517 5.68292C22.5383 5.68292 21.3926 4.53346 21.3926 3.11716C21.3926 1.69939 22.5383 0.551392 23.9517 0.551392C25.365 0.551392 26.5108 1.69939 26.5108 3.11716Z" fill="white"/>
<path d="M24.8947 0.726562C25.0052 1.01319 25.0717 1.32181 25.0717 1.64803C25.0717 3.06433 23.9252 4.21379 22.5126 4.21379C22.1872 4.21379 21.8794 4.14709 21.5928 4.0364C21.9635 4.99599 22.8862 5.68068 23.9749 5.68068C25.3883 5.68068 26.534 4.53049 26.534 3.11492C26.534 2.02337 25.8518 1.0975 24.8947 0.726562Z" fill="#EDEAF3"/>
<path d="M23.9004 1.09961C22.7913 1.09961 21.8897 2.00276 21.8897 3.11557C21.8897 4.22618 22.7913 5.13153 23.9004 5.13153C25.0089 5.13153 25.9111 4.22618 25.9111 3.11557C25.9111 2.00276 25.0089 1.09961 23.9004 1.09961ZM23.9004 6.23114C22.1866 6.23114 20.793 4.83317 20.793 3.11557C20.793 1.39724 22.1866 0 23.9004 0C25.6143 0 27.0079 1.39724 27.0079 3.11557C27.0079 4.83317 25.6143 6.23114 23.9004 6.23114Z" fill="#674EA0"/>
<path d="M26.5108 44.8857C26.5108 46.3027 25.365 47.4515 23.9517 47.4515C22.5383 47.4515 21.3926 46.3027 21.3926 44.8857C21.3926 43.4687 22.5383 42.3199 23.9517 42.3199C25.365 42.3199 26.5108 43.4687 26.5108 44.8857Z" fill="white"/>
<path d="M24.8947 42.4954C25.0052 42.7835 25.0717 43.0913 25.0717 43.4176C25.0717 44.8346 23.9252 45.9833 22.5126 45.9833C22.1872 45.9833 21.8794 45.9166 21.5928 45.8059C21.9635 46.7655 22.8862 47.4495 23.9749 47.4495C25.3883 47.4495 26.534 46.3008 26.534 44.8837C26.534 43.7922 25.8518 42.867 24.8947 42.4954Z" fill="#EDEAF3"/>
<path d="M23.9004 42.8684C22.7913 42.8684 21.8897 43.773 21.8897 44.8844C21.8897 45.9964 22.7913 46.9003 23.9004 46.9003C25.0089 46.9003 25.9111 45.9964 25.9111 44.8844C25.9111 43.773 25.0089 42.8684 23.9004 42.8684ZM23.9004 47.9999C22.1866 47.9999 20.793 46.6027 20.793 44.8844C20.793 43.1668 22.1866 41.7688 23.9004 41.7688C25.6143 41.7688 27.0079 43.1668 27.0079 44.8844C27.0079 46.6027 25.6143 47.9999 23.9004 47.9999Z" fill="#674EA0"/>
<path d="M47.3027 23.9889C47.3027 25.4059 46.1563 26.5546 44.7437 26.5546C43.3303 26.5546 42.1846 25.4059 42.1846 23.9889C42.1846 22.5711 43.3303 21.4231 44.7437 21.4231C46.1563 21.4231 47.3027 22.5711 47.3027 23.9889Z" fill="white"/>
<path d="M45.686 21.5985C45.7964 21.8859 45.8637 22.1938 45.8637 22.5207C45.8637 23.937 44.7172 25.0865 43.3046 25.0865C42.9785 25.0865 42.6714 25.019 42.3848 24.9091C42.754 25.8679 43.6775 26.5526 44.7669 26.5526C46.1795 26.5526 47.326 25.4032 47.326 23.9869C47.326 22.8953 46.6438 21.9694 45.686 21.5985Z" fill="#EDEAF3"/>
<path d="M44.8926 21.9713C43.7834 21.9713 42.8819 22.8752 42.8819 23.9873C42.8819 25.0986 43.7834 26.0032 44.8926 26.0032C46.0011 26.0032 46.9033 25.0986 46.9033 23.9873C46.9033 22.8752 46.0011 21.9713 44.8926 21.9713ZM44.8926 27.1028C43.1788 27.1028 41.7852 25.7056 41.7852 23.9873C41.7852 22.2689 43.1788 20.8717 44.8926 20.8717C46.6065 20.8717 48.0001 22.2689 48.0001 23.9873C48.0001 25.7056 46.6065 27.1028 44.8926 27.1028Z" fill="#674EA0"/>
<path d="M5.71778 23.9889C5.71778 25.4059 4.57131 26.5546 3.1587 26.5546C1.74462 26.5546 0.599609 25.4059 0.599609 23.9889C0.599609 22.5711 1.74462 21.4231 3.1587 21.4231C4.57131 21.4231 5.71778 22.5711 5.71778 23.9889Z" fill="white"/>
<path d="M4.10104 21.5985C4.21145 21.8859 4.2787 22.1938 4.2787 22.5207C4.2787 23.937 3.13223 25.0865 1.71961 25.0865C1.39351 25.0865 1.08642 25.019 0.799805 24.9091C1.16978 25.8679 2.09324 26.5526 3.18195 26.5526C4.59457 26.5526 5.74104 25.4032 5.74104 23.9869C5.74104 22.8953 5.05887 21.9694 4.10104 21.5985Z" fill="#EDEAF3"/>
<path d="M3.10747 21.9713C1.99828 21.9713 1.09675 22.8752 1.09675 23.9873C1.09675 25.0986 1.99828 26.0032 3.10747 26.0032C4.21592 26.0032 5.11818 25.0986 5.11818 23.9873C5.11818 22.8752 4.21592 21.9713 3.10747 21.9713ZM3.10747 27.1028C1.39361 27.1028 0 25.7056 0 23.9873C0 22.2689 1.39361 20.8717 3.10747 20.8717C4.82132 20.8717 6.21493 22.2689 6.21493 23.9873C6.21493 25.7056 4.82132 27.1028 3.10747 27.1028Z" fill="#674EA0"/>
<path d="M38.5288 3.47432C38.3877 3.47432 38.248 3.42006 38.1413 3.3123L35.9478 1.11308C35.7336 0.898286 35.7336 0.550811 35.9478 0.33602C36.1606 0.121229 36.5086 0.121229 36.7228 0.33602L38.9163 2.53524C39.1306 2.75003 39.1306 3.09751 38.9163 3.3123C38.8096 3.42006 38.6685 3.47432 38.5288 3.47432Z" fill="#674EA0"/>
<path d="M36.3353 3.47432C36.1942 3.47432 36.0545 3.42006 35.9478 3.3123C35.7336 3.09751 35.7336 2.75003 35.9478 2.53524L38.1413 0.33602C38.3541 0.121229 38.7021 0.121229 38.9163 0.33602C39.1306 0.550811 39.1306 0.898286 38.9163 1.11308L36.7228 3.3123C36.6161 3.42006 36.475 3.47432 36.3353 3.47432Z" fill="#674EA0"/>
<path d="M2.74171 13.7219C2.60059 13.7219 2.46094 13.6684 2.35419 13.5606L0.160675 11.3614C-0.0535582 11.1466 -0.0535582 10.7991 0.160675 10.5843C0.374177 10.3695 0.721481 10.3695 0.935714 10.5843L3.12923 12.7835C3.34346 12.9983 3.34346 13.3458 3.12923 13.5606C3.02247 13.6684 2.88209 13.7219 2.74171 13.7219Z" fill="#674EA0"/>
<path d="M0.548194 13.7219C0.407078 13.7219 0.267426 13.6684 0.160675 13.5606C-0.0535582 13.3458 -0.0535582 12.9983 0.160675 12.7835L2.35419 10.5843C2.56769 10.3695 2.91499 10.3695 3.12923 10.5843C3.34346 10.7991 3.34346 11.1466 3.12923 11.3614L0.935714 13.5606C0.828963 13.6684 0.688579 13.7219 0.548194 13.7219Z" fill="#674EA0"/>
<path d="M3.54151 36.9987C3.40039 36.9987 3.26074 36.9459 3.15399 36.8382L0.960479 34.639C0.746246 34.4242 0.746246 34.076 0.960479 33.8619C1.17398 33.6471 1.52129 33.6471 1.73552 33.8619L3.92903 36.0611C4.14326 36.2752 4.14326 36.6234 3.92903 36.8382C3.82228 36.9459 3.6819 36.9987 3.54151 36.9987Z" fill="#674EA0"/>
<path d="M1.348 36.9987C1.20688 36.9987 1.06723 36.9459 0.960479 36.8382C0.746246 36.6234 0.746246 36.2752 0.960479 36.0611L3.15399 33.8619C3.36749 33.6471 3.7148 33.6471 3.92903 33.8619C4.14326 34.076 4.14326 34.4242 3.92903 34.639L1.73552 36.8382C1.62877 36.9459 1.48838 36.9987 1.348 36.9987Z" fill="#674EA0"/>
<path d="M15.1379 47.9994C14.9968 47.9994 14.8572 47.9459 14.7497 47.8381L12.5562 45.6389C12.3419 45.4241 12.3419 45.0759 12.5562 44.8611C12.7704 44.647 13.1177 44.647 13.332 44.8611L15.5255 47.0603C15.7397 47.2751 15.7397 47.6233 15.5255 47.8381C15.4187 47.9459 15.2783 47.9994 15.1379 47.9994Z" fill="#674EA0"/>
<path d="M12.9444 47.9994C12.8033 47.9994 12.6637 47.9459 12.5562 47.8381C12.3419 47.6233 12.3419 47.2751 12.5562 47.0603L14.7497 44.8611C14.9639 44.647 15.3112 44.647 15.5255 44.8611C15.7397 45.0759 15.7397 45.4241 15.5255 45.6389L13.332 47.8381C13.2252 47.9459 13.0848 47.9994 12.9444 47.9994Z" fill="#674EA0"/>
<path d="M46.7268 37.7504C46.5857 37.7504 46.446 37.6976 46.3386 37.5899L44.145 35.3907C43.9308 35.1759 43.9308 34.8277 44.145 34.6136C44.3593 34.3988 44.7066 34.3988 44.9208 34.6136L47.1144 36.8128C47.3286 37.0269 47.3286 37.3751 47.1144 37.5899C47.0069 37.6976 46.8672 37.7504 46.7268 37.7504Z" fill="#674EA0"/>
<path d="M44.5333 37.7504C44.3922 37.7504 44.2525 37.6976 44.145 37.5899C43.9308 37.3751 43.9308 37.0269 44.145 36.8128L46.3386 34.6136C46.5528 34.3988 46.9001 34.3988 47.1144 34.6136C47.3286 34.8277 47.3286 35.1759 47.1144 35.3907L44.9208 37.5899C44.8134 37.6976 44.6737 37.7504 44.5333 37.7504Z" fill="#674EA0"/>
<path d="M47.3258 11.5422C47.1847 11.5422 47.0451 11.4887 46.9376 11.3809L44.7441 9.18168C44.5306 8.96689 44.5306 8.61942 44.7441 8.40462C44.9583 8.18983 45.3057 8.18983 45.5199 8.40462L47.7134 10.6039C47.9276 10.8186 47.9276 11.1661 47.7134 11.3809C47.6066 11.4887 47.4662 11.5422 47.3258 11.5422Z" fill="#674EA0"/>
<path d="M45.1324 11.5422C44.9912 11.5422 44.8516 11.4887 44.7441 11.3809C44.5306 11.1661 44.5306 10.8186 44.7441 10.6039L46.9376 8.40462C47.1518 8.18983 47.4992 8.18983 47.7134 8.40462C47.9276 8.61942 47.9276 8.96689 47.7134 9.18168L45.5199 11.3809C45.4131 11.4887 45.2727 11.5422 45.1324 11.5422Z" fill="#674EA0"/>
</svg>
