<svg width="26" height="26" viewBox="0 0 26 26" fill="none" xmlns="http://www.w3.org/2000/svg">
<path fill-rule="evenodd" clip-rule="evenodd" d="M21.63 4.34209C19.3473 2.05902 16.3116 0.801144 13.0776 0.799805C6.41345 0.799805 0.989836 6.21798 0.987156 12.8774C0.986262 15.0062 1.54292 17.0842 2.60099 18.9159L0.885742 25.1748L7.29505 23.4952C9.06108 24.4576 11.0493 24.9647 13.0726 24.9653H13.0777C19.7411 24.9653 25.1653 19.5467 25.1678 12.887C25.1692 9.65955 23.9127 6.62502 21.63 4.34209ZM13.0776 22.9255H13.0734C11.2703 22.9248 9.50187 22.4407 7.95878 21.5261L7.59199 21.3085L3.78861 22.3053L4.80379 18.6007L4.56478 18.2208C3.55883 16.6224 3.02764 14.775 3.02853 12.8781C3.03062 7.343 7.53868 2.83978 13.0816 2.83978C15.7657 2.84068 18.2888 3.88625 20.186 5.78386C22.0833 7.68146 23.1275 10.2038 23.1266 12.8863C23.1242 18.4218 18.6164 22.9255 13.0776 22.9255ZM18.5896 15.4067C18.2876 15.2555 16.8023 14.5256 16.5253 14.4248C16.2486 14.324 16.047 14.2739 15.8458 14.5759C15.6443 14.8779 15.0655 15.5578 14.8892 15.7591C14.7128 15.9605 14.5368 15.9858 14.2347 15.8347C13.9325 15.6837 12.9592 15.3648 11.8052 14.3367C10.9072 13.5364 10.301 12.5481 10.1247 12.2461C9.94863 11.9438 10.1232 11.7962 10.2572 11.6302C10.5842 11.2245 10.9117 10.7991 11.0124 10.5979C11.1132 10.3964 11.0627 10.2201 10.987 10.0691C10.9117 9.91811 10.3075 8.43261 10.0559 7.82815C9.81043 7.2399 9.56159 7.31934 9.37604 7.31012C9.20002 7.30134 8.99853 7.29956 8.79704 7.29956C8.59571 7.29956 8.26838 7.37498 7.99139 7.67729C7.71455 7.97945 6.93422 8.70948 6.93422 10.195C6.93422 11.6805 8.01671 13.1155 8.16771 13.317C8.31872 13.5184 10.298 16.5668 13.3283 17.8739C14.0491 18.1851 14.6117 18.3707 15.0506 18.5098C15.7743 18.7395 16.4327 18.707 16.9533 18.6294C17.5338 18.5426 18.7405 17.8992 18.9925 17.1943C19.2441 16.4893 19.2441 15.8851 19.1685 15.7591C19.0931 15.6332 18.8916 15.5578 18.5896 15.4067Z" fill="#76BB20"/>
</svg>
