<svg width="28" height="28" viewBox="0 0 28 28" fill="none" xmlns="http://www.w3.org/2000/svg">
<g clip-path="url(#clip0_177_13920)">
<path d="M26.2651 7.47351C24.1498 3.3347 18.796 -0.579768 12.0582 0.370076C1.26027 1.88662 -4.4286 15.5618 4.19284 23.9676C14.6207 34.1347 33.8711 22.3301 26.2651 7.47351ZM11.0442 27.0109C5.46755 26.061 0.75184 20.2571 0.641122 14.3249C0.499811 6.91701 5.63946 2.0323 11.8062 1.12908C20.4363 -0.136896 28.2172 6.16383 27.0284 15.8473C26.0553 23.7913 18.6546 28.3089 11.0442 27.0109ZM8.50793 7.98194C8.16558 8.40296 7.06714 8.06643 6.73061 8.48891C8.11459 12.6845 9.34268 17.0404 11.0442 20.9199C12.6671 16.7185 14.4576 12.6219 11.8047 8.48891C11.3793 8.06643 9.95018 8.65062 10.0274 7.72699C11.1608 7.27247 16.2494 7.27247 17.3843 7.72699C17.3814 8.56903 15.9537 7.98485 15.6084 8.48891C17.0114 12.584 18.136 16.9588 19.9221 20.6679C20.3985 17.594 22.0257 16.4839 21.9514 13.3081C21.8713 9.68933 17.3333 6.51638 21.6979 4.93428C17.4484 0.374446 6.05028 1.77008 4.19284 7.47351C5.88712 7.83771 8.17723 6.71305 8.50793 7.98194ZM19.9235 23.9676C24.5416 22.2718 27.7641 13.8791 24.2357 8.74094C24.3115 14.3322 21.2988 18.9824 19.9235 23.9676ZM8.50793 24.4745C6.80491 19.2388 5.05236 14.0554 2.92395 9.25082C0.4867 15.588 3.60283 22.4175 8.50793 24.4745ZM10.5344 25.235C12.2155 26.1149 15.8998 25.8454 17.6378 25.235C16.5292 21.7765 15.6871 18.0544 13.8326 15.3389C12.9425 18.8469 11.7188 22.0227 10.5344 25.235Z" fill="#085AA4"/>
</g>
<defs>
<clipPath id="clip0_177_13920">
<rect width="28" height="28" fill="white"/>
</clipPath>
</defs>
</svg>
