<svg width="28" height="28" viewBox="0 0 28 28" fill="none" xmlns="http://www.w3.org/2000/svg">
<path d="M26.5714 7.43242C26.2689 6.30676 25.3823 5.41941 24.2579 5.1163C22.2037 4.55371 13.987 4.55371 13.987 4.55371C13.987 4.55371 5.77056 4.55371 3.71642 5.09497C2.61364 5.39776 1.70537 6.30692 1.40288 7.43242C0.862305 9.48842 0.862305 13.7523 0.862305 13.7523C0.862305 13.7523 0.862305 18.0376 1.40288 20.0721C1.70569 21.1976 2.59201 22.085 3.71658 22.3881C5.79219 22.9508 13.9873 22.9508 13.9873 22.9508C13.9873 22.9508 22.2037 22.9508 24.2579 22.4096C25.3824 22.1066 26.2689 21.2193 26.5717 20.0938C27.1121 18.0376 27.1121 13.7739 27.1121 13.7739C27.1121 13.7739 27.1338 9.48842 26.5714 7.43242ZM11.371 17.6914V9.81318L18.2036 13.7523L11.371 17.6914Z" fill="#EE4459"/>
</svg>
