<svg width="34" height="34" viewBox="0 0 34 34" fill="none" xmlns="http://www.w3.org/2000/svg">
<path opacity="0.1" fill-rule="evenodd" clip-rule="evenodd" d="M0 17C0 7.61116 7.61116 0 17 0C26.3888 0 34 7.61116 34 17C34 26.3888 26.3888 34 17 34C7.61116 34 0 26.3888 0 17Z" fill="white"/>
<path fill-rule="evenodd" clip-rule="evenodd" d="M24.0857 11.1547C24.866 11.3688 25.4804 11.9997 25.689 12.8008C26.0679 14.2528 26.0679 17.2823 26.0679 17.2823C26.0679 17.2823 26.0679 20.3117 25.689 21.7638C25.4804 22.5649 24.866 23.1957 24.0857 23.41C22.6717 23.799 17.0012 23.799 17.0012 23.799C17.0012 23.799 11.3308 23.799 9.91667 23.41C9.13642 23.1957 8.52195 22.5649 8.31341 21.7638C7.93457 20.3117 7.93457 17.2823 7.93457 17.2823C7.93457 17.2823 7.93457 14.2528 8.31341 12.8008C8.52195 11.9997 9.13642 11.3688 9.91667 11.1547C11.3308 10.7656 17.0012 10.7656 17.0012 10.7656C17.0012 10.7656 22.6717 10.7656 24.0857 11.1547ZM15.3013 14.7322V20.3989L19.8346 17.5657L15.3013 14.7322Z" fill="white"/>
</svg>
